%TF.GenerationSoftware,KiCad,Pcbnew,(6.0.5-0)*%
%TF.CreationDate,2023-01-22T16:33:31-06:00*%
%TF.ProjectId,piscsi,70697363-7369-42e6-9b69-6361645f7063,rev?*%
%TF.SameCoordinates,PX59d60c0PY325aa00*%
%TF.FileFunction,Other,Comment*%
%FSLAX46Y46*%
G04 Gerber Fmt 4.6, Leading zero omitted, Abs format (unit mm)*
G04 Created by KiCad (PCBNEW (6.0.5-0)) date 2023-01-22 16:33:31*
%MOMM*%
%LPD*%
G01*
G04 APERTURE LIST*
%ADD10C,0.150000*%
G04 APERTURE END LIST*
D10*
%TO.C,R31*%
X128992380Y-14242857D02*
X128516190Y-14576190D01*
X128992380Y-14814285D02*
X127992380Y-14814285D01*
X127992380Y-14433333D01*
X128040000Y-14338095D01*
X128087619Y-14290476D01*
X128182857Y-14242857D01*
X128325714Y-14242857D01*
X128420952Y-14290476D01*
X128468571Y-14338095D01*
X128516190Y-14433333D01*
X128516190Y-14814285D01*
X127992380Y-13909523D02*
X127992380Y-13290476D01*
X128373333Y-13623809D01*
X128373333Y-13480952D01*
X128420952Y-13385714D01*
X128468571Y-13338095D01*
X128563809Y-13290476D01*
X128801904Y-13290476D01*
X128897142Y-13338095D01*
X128944761Y-13385714D01*
X128992380Y-13480952D01*
X128992380Y-13766666D01*
X128944761Y-13861904D01*
X128897142Y-13909523D01*
X128992380Y-12338095D02*
X128992380Y-12909523D01*
X128992380Y-12623809D02*
X127992380Y-12623809D01*
X128135238Y-12719047D01*
X128230476Y-12814285D01*
X128278095Y-12909523D01*
%TO.C,R23*%
X130904880Y-14242857D02*
X130428690Y-14576190D01*
X130904880Y-14814285D02*
X129904880Y-14814285D01*
X129904880Y-14433333D01*
X129952500Y-14338095D01*
X130000119Y-14290476D01*
X130095357Y-14242857D01*
X130238214Y-14242857D01*
X130333452Y-14290476D01*
X130381071Y-14338095D01*
X130428690Y-14433333D01*
X130428690Y-14814285D01*
X130000119Y-13861904D02*
X129952500Y-13814285D01*
X129904880Y-13719047D01*
X129904880Y-13480952D01*
X129952500Y-13385714D01*
X130000119Y-13338095D01*
X130095357Y-13290476D01*
X130190595Y-13290476D01*
X130333452Y-13338095D01*
X130904880Y-13909523D01*
X130904880Y-13290476D01*
X129904880Y-12957142D02*
X129904880Y-12338095D01*
X130285833Y-12671428D01*
X130285833Y-12528571D01*
X130333452Y-12433333D01*
X130381071Y-12385714D01*
X130476309Y-12338095D01*
X130714404Y-12338095D01*
X130809642Y-12385714D01*
X130857261Y-12433333D01*
X130904880Y-12528571D01*
X130904880Y-12814285D01*
X130857261Y-12909523D01*
X130809642Y-12957142D01*
%TO.C,R24*%
X132817380Y-14242857D02*
X132341190Y-14576190D01*
X132817380Y-14814285D02*
X131817380Y-14814285D01*
X131817380Y-14433333D01*
X131865000Y-14338095D01*
X131912619Y-14290476D01*
X132007857Y-14242857D01*
X132150714Y-14242857D01*
X132245952Y-14290476D01*
X132293571Y-14338095D01*
X132341190Y-14433333D01*
X132341190Y-14814285D01*
X131912619Y-13861904D02*
X131865000Y-13814285D01*
X131817380Y-13719047D01*
X131817380Y-13480952D01*
X131865000Y-13385714D01*
X131912619Y-13338095D01*
X132007857Y-13290476D01*
X132103095Y-13290476D01*
X132245952Y-13338095D01*
X132817380Y-13909523D01*
X132817380Y-13290476D01*
X132150714Y-12433333D02*
X132817380Y-12433333D01*
X131769761Y-12671428D02*
X132484047Y-12909523D01*
X132484047Y-12290476D01*
%TO.C,R25*%
X134729880Y-14242857D02*
X134253690Y-14576190D01*
X134729880Y-14814285D02*
X133729880Y-14814285D01*
X133729880Y-14433333D01*
X133777500Y-14338095D01*
X133825119Y-14290476D01*
X133920357Y-14242857D01*
X134063214Y-14242857D01*
X134158452Y-14290476D01*
X134206071Y-14338095D01*
X134253690Y-14433333D01*
X134253690Y-14814285D01*
X133825119Y-13861904D02*
X133777500Y-13814285D01*
X133729880Y-13719047D01*
X133729880Y-13480952D01*
X133777500Y-13385714D01*
X133825119Y-13338095D01*
X133920357Y-13290476D01*
X134015595Y-13290476D01*
X134158452Y-13338095D01*
X134729880Y-13909523D01*
X134729880Y-13290476D01*
X133729880Y-12385714D02*
X133729880Y-12861904D01*
X134206071Y-12909523D01*
X134158452Y-12861904D01*
X134110833Y-12766666D01*
X134110833Y-12528571D01*
X134158452Y-12433333D01*
X134206071Y-12385714D01*
X134301309Y-12338095D01*
X134539404Y-12338095D01*
X134634642Y-12385714D01*
X134682261Y-12433333D01*
X134729880Y-12528571D01*
X134729880Y-12766666D01*
X134682261Y-12861904D01*
X134634642Y-12909523D01*
%TO.C,R26*%
X136642380Y-14242857D02*
X136166190Y-14576190D01*
X136642380Y-14814285D02*
X135642380Y-14814285D01*
X135642380Y-14433333D01*
X135690000Y-14338095D01*
X135737619Y-14290476D01*
X135832857Y-14242857D01*
X135975714Y-14242857D01*
X136070952Y-14290476D01*
X136118571Y-14338095D01*
X136166190Y-14433333D01*
X136166190Y-14814285D01*
X135737619Y-13861904D02*
X135690000Y-13814285D01*
X135642380Y-13719047D01*
X135642380Y-13480952D01*
X135690000Y-13385714D01*
X135737619Y-13338095D01*
X135832857Y-13290476D01*
X135928095Y-13290476D01*
X136070952Y-13338095D01*
X136642380Y-13909523D01*
X136642380Y-13290476D01*
X135642380Y-12433333D02*
X135642380Y-12623809D01*
X135690000Y-12719047D01*
X135737619Y-12766666D01*
X135880476Y-12861904D01*
X136070952Y-12909523D01*
X136451904Y-12909523D01*
X136547142Y-12861904D01*
X136594761Y-12814285D01*
X136642380Y-12719047D01*
X136642380Y-12528571D01*
X136594761Y-12433333D01*
X136547142Y-12385714D01*
X136451904Y-12338095D01*
X136213809Y-12338095D01*
X136118571Y-12385714D01*
X136070952Y-12433333D01*
X136023333Y-12528571D01*
X136023333Y-12719047D01*
X136070952Y-12814285D01*
X136118571Y-12861904D01*
X136213809Y-12909523D01*
%TO.C,R27*%
X121342380Y-14242857D02*
X120866190Y-14576190D01*
X121342380Y-14814285D02*
X120342380Y-14814285D01*
X120342380Y-14433333D01*
X120390000Y-14338095D01*
X120437619Y-14290476D01*
X120532857Y-14242857D01*
X120675714Y-14242857D01*
X120770952Y-14290476D01*
X120818571Y-14338095D01*
X120866190Y-14433333D01*
X120866190Y-14814285D01*
X120437619Y-13861904D02*
X120390000Y-13814285D01*
X120342380Y-13719047D01*
X120342380Y-13480952D01*
X120390000Y-13385714D01*
X120437619Y-13338095D01*
X120532857Y-13290476D01*
X120628095Y-13290476D01*
X120770952Y-13338095D01*
X121342380Y-13909523D01*
X121342380Y-13290476D01*
X120342380Y-12957142D02*
X120342380Y-12290476D01*
X121342380Y-12719047D01*
%TO.C,R28*%
X123254880Y-14242857D02*
X122778690Y-14576190D01*
X123254880Y-14814285D02*
X122254880Y-14814285D01*
X122254880Y-14433333D01*
X122302500Y-14338095D01*
X122350119Y-14290476D01*
X122445357Y-14242857D01*
X122588214Y-14242857D01*
X122683452Y-14290476D01*
X122731071Y-14338095D01*
X122778690Y-14433333D01*
X122778690Y-14814285D01*
X122350119Y-13861904D02*
X122302500Y-13814285D01*
X122254880Y-13719047D01*
X122254880Y-13480952D01*
X122302500Y-13385714D01*
X122350119Y-13338095D01*
X122445357Y-13290476D01*
X122540595Y-13290476D01*
X122683452Y-13338095D01*
X123254880Y-13909523D01*
X123254880Y-13290476D01*
X122683452Y-12719047D02*
X122635833Y-12814285D01*
X122588214Y-12861904D01*
X122492976Y-12909523D01*
X122445357Y-12909523D01*
X122350119Y-12861904D01*
X122302500Y-12814285D01*
X122254880Y-12719047D01*
X122254880Y-12528571D01*
X122302500Y-12433333D01*
X122350119Y-12385714D01*
X122445357Y-12338095D01*
X122492976Y-12338095D01*
X122588214Y-12385714D01*
X122635833Y-12433333D01*
X122683452Y-12528571D01*
X122683452Y-12719047D01*
X122731071Y-12814285D01*
X122778690Y-12861904D01*
X122873928Y-12909523D01*
X123064404Y-12909523D01*
X123159642Y-12861904D01*
X123207261Y-12814285D01*
X123254880Y-12719047D01*
X123254880Y-12528571D01*
X123207261Y-12433333D01*
X123159642Y-12385714D01*
X123064404Y-12338095D01*
X122873928Y-12338095D01*
X122778690Y-12385714D01*
X122731071Y-12433333D01*
X122683452Y-12528571D01*
%TO.C,R29*%
X125167380Y-14242857D02*
X124691190Y-14576190D01*
X125167380Y-14814285D02*
X124167380Y-14814285D01*
X124167380Y-14433333D01*
X124215000Y-14338095D01*
X124262619Y-14290476D01*
X124357857Y-14242857D01*
X124500714Y-14242857D01*
X124595952Y-14290476D01*
X124643571Y-14338095D01*
X124691190Y-14433333D01*
X124691190Y-14814285D01*
X124262619Y-13861904D02*
X124215000Y-13814285D01*
X124167380Y-13719047D01*
X124167380Y-13480952D01*
X124215000Y-13385714D01*
X124262619Y-13338095D01*
X124357857Y-13290476D01*
X124453095Y-13290476D01*
X124595952Y-13338095D01*
X125167380Y-13909523D01*
X125167380Y-13290476D01*
X125167380Y-12814285D02*
X125167380Y-12623809D01*
X125119761Y-12528571D01*
X125072142Y-12480952D01*
X124929285Y-12385714D01*
X124738809Y-12338095D01*
X124357857Y-12338095D01*
X124262619Y-12385714D01*
X124215000Y-12433333D01*
X124167380Y-12528571D01*
X124167380Y-12719047D01*
X124215000Y-12814285D01*
X124262619Y-12861904D01*
X124357857Y-12909523D01*
X124595952Y-12909523D01*
X124691190Y-12861904D01*
X124738809Y-12814285D01*
X124786428Y-12719047D01*
X124786428Y-12528571D01*
X124738809Y-12433333D01*
X124691190Y-12385714D01*
X124595952Y-12338095D01*
%TO.C,R30*%
X127079880Y-14242857D02*
X126603690Y-14576190D01*
X127079880Y-14814285D02*
X126079880Y-14814285D01*
X126079880Y-14433333D01*
X126127500Y-14338095D01*
X126175119Y-14290476D01*
X126270357Y-14242857D01*
X126413214Y-14242857D01*
X126508452Y-14290476D01*
X126556071Y-14338095D01*
X126603690Y-14433333D01*
X126603690Y-14814285D01*
X126079880Y-13909523D02*
X126079880Y-13290476D01*
X126460833Y-13623809D01*
X126460833Y-13480952D01*
X126508452Y-13385714D01*
X126556071Y-13338095D01*
X126651309Y-13290476D01*
X126889404Y-13290476D01*
X126984642Y-13338095D01*
X127032261Y-13385714D01*
X127079880Y-13480952D01*
X127079880Y-13766666D01*
X127032261Y-13861904D01*
X126984642Y-13909523D01*
X126079880Y-12671428D02*
X126079880Y-12576190D01*
X126127500Y-12480952D01*
X126175119Y-12433333D01*
X126270357Y-12385714D01*
X126460833Y-12338095D01*
X126698928Y-12338095D01*
X126889404Y-12385714D01*
X126984642Y-12433333D01*
X127032261Y-12480952D01*
X127079880Y-12576190D01*
X127079880Y-12671428D01*
X127032261Y-12766666D01*
X126984642Y-12814285D01*
X126889404Y-12861904D01*
X126698928Y-12909523D01*
X126460833Y-12909523D01*
X126270357Y-12861904D01*
X126175119Y-12814285D01*
X126127500Y-12766666D01*
X126079880Y-12671428D01*
%TO.C,R34*%
X93727380Y-14242857D02*
X93251190Y-14576190D01*
X93727380Y-14814285D02*
X92727380Y-14814285D01*
X92727380Y-14433333D01*
X92775000Y-14338095D01*
X92822619Y-14290476D01*
X92917857Y-14242857D01*
X93060714Y-14242857D01*
X93155952Y-14290476D01*
X93203571Y-14338095D01*
X93251190Y-14433333D01*
X93251190Y-14814285D01*
X92727380Y-13909523D02*
X92727380Y-13290476D01*
X93108333Y-13623809D01*
X93108333Y-13480952D01*
X93155952Y-13385714D01*
X93203571Y-13338095D01*
X93298809Y-13290476D01*
X93536904Y-13290476D01*
X93632142Y-13338095D01*
X93679761Y-13385714D01*
X93727380Y-13480952D01*
X93727380Y-13766666D01*
X93679761Y-13861904D01*
X93632142Y-13909523D01*
X93060714Y-12433333D02*
X93727380Y-12433333D01*
X92679761Y-12671428D02*
X93394047Y-12909523D01*
X93394047Y-12290476D01*
%TO.C,R35*%
X95639880Y-14242857D02*
X95163690Y-14576190D01*
X95639880Y-14814285D02*
X94639880Y-14814285D01*
X94639880Y-14433333D01*
X94687500Y-14338095D01*
X94735119Y-14290476D01*
X94830357Y-14242857D01*
X94973214Y-14242857D01*
X95068452Y-14290476D01*
X95116071Y-14338095D01*
X95163690Y-14433333D01*
X95163690Y-14814285D01*
X94639880Y-13909523D02*
X94639880Y-13290476D01*
X95020833Y-13623809D01*
X95020833Y-13480952D01*
X95068452Y-13385714D01*
X95116071Y-13338095D01*
X95211309Y-13290476D01*
X95449404Y-13290476D01*
X95544642Y-13338095D01*
X95592261Y-13385714D01*
X95639880Y-13480952D01*
X95639880Y-13766666D01*
X95592261Y-13861904D01*
X95544642Y-13909523D01*
X94639880Y-12385714D02*
X94639880Y-12861904D01*
X95116071Y-12909523D01*
X95068452Y-12861904D01*
X95020833Y-12766666D01*
X95020833Y-12528571D01*
X95068452Y-12433333D01*
X95116071Y-12385714D01*
X95211309Y-12338095D01*
X95449404Y-12338095D01*
X95544642Y-12385714D01*
X95592261Y-12433333D01*
X95639880Y-12528571D01*
X95639880Y-12766666D01*
X95592261Y-12861904D01*
X95544642Y-12909523D01*
%TO.C,R36*%
X97552380Y-14242857D02*
X97076190Y-14576190D01*
X97552380Y-14814285D02*
X96552380Y-14814285D01*
X96552380Y-14433333D01*
X96600000Y-14338095D01*
X96647619Y-14290476D01*
X96742857Y-14242857D01*
X96885714Y-14242857D01*
X96980952Y-14290476D01*
X97028571Y-14338095D01*
X97076190Y-14433333D01*
X97076190Y-14814285D01*
X96552380Y-13909523D02*
X96552380Y-13290476D01*
X96933333Y-13623809D01*
X96933333Y-13480952D01*
X96980952Y-13385714D01*
X97028571Y-13338095D01*
X97123809Y-13290476D01*
X97361904Y-13290476D01*
X97457142Y-13338095D01*
X97504761Y-13385714D01*
X97552380Y-13480952D01*
X97552380Y-13766666D01*
X97504761Y-13861904D01*
X97457142Y-13909523D01*
X96552380Y-12433333D02*
X96552380Y-12623809D01*
X96600000Y-12719047D01*
X96647619Y-12766666D01*
X96790476Y-12861904D01*
X96980952Y-12909523D01*
X97361904Y-12909523D01*
X97457142Y-12861904D01*
X97504761Y-12814285D01*
X97552380Y-12719047D01*
X97552380Y-12528571D01*
X97504761Y-12433333D01*
X97457142Y-12385714D01*
X97361904Y-12338095D01*
X97123809Y-12338095D01*
X97028571Y-12385714D01*
X96980952Y-12433333D01*
X96933333Y-12528571D01*
X96933333Y-12719047D01*
X96980952Y-12814285D01*
X97028571Y-12861904D01*
X97123809Y-12909523D01*
%TO.C,R37*%
X99464880Y-14242857D02*
X98988690Y-14576190D01*
X99464880Y-14814285D02*
X98464880Y-14814285D01*
X98464880Y-14433333D01*
X98512500Y-14338095D01*
X98560119Y-14290476D01*
X98655357Y-14242857D01*
X98798214Y-14242857D01*
X98893452Y-14290476D01*
X98941071Y-14338095D01*
X98988690Y-14433333D01*
X98988690Y-14814285D01*
X98464880Y-13909523D02*
X98464880Y-13290476D01*
X98845833Y-13623809D01*
X98845833Y-13480952D01*
X98893452Y-13385714D01*
X98941071Y-13338095D01*
X99036309Y-13290476D01*
X99274404Y-13290476D01*
X99369642Y-13338095D01*
X99417261Y-13385714D01*
X99464880Y-13480952D01*
X99464880Y-13766666D01*
X99417261Y-13861904D01*
X99369642Y-13909523D01*
X98464880Y-12957142D02*
X98464880Y-12290476D01*
X99464880Y-12719047D01*
%TO.C,R38*%
X101377380Y-14242857D02*
X100901190Y-14576190D01*
X101377380Y-14814285D02*
X100377380Y-14814285D01*
X100377380Y-14433333D01*
X100425000Y-14338095D01*
X100472619Y-14290476D01*
X100567857Y-14242857D01*
X100710714Y-14242857D01*
X100805952Y-14290476D01*
X100853571Y-14338095D01*
X100901190Y-14433333D01*
X100901190Y-14814285D01*
X100377380Y-13909523D02*
X100377380Y-13290476D01*
X100758333Y-13623809D01*
X100758333Y-13480952D01*
X100805952Y-13385714D01*
X100853571Y-13338095D01*
X100948809Y-13290476D01*
X101186904Y-13290476D01*
X101282142Y-13338095D01*
X101329761Y-13385714D01*
X101377380Y-13480952D01*
X101377380Y-13766666D01*
X101329761Y-13861904D01*
X101282142Y-13909523D01*
X100805952Y-12719047D02*
X100758333Y-12814285D01*
X100710714Y-12861904D01*
X100615476Y-12909523D01*
X100567857Y-12909523D01*
X100472619Y-12861904D01*
X100425000Y-12814285D01*
X100377380Y-12719047D01*
X100377380Y-12528571D01*
X100425000Y-12433333D01*
X100472619Y-12385714D01*
X100567857Y-12338095D01*
X100615476Y-12338095D01*
X100710714Y-12385714D01*
X100758333Y-12433333D01*
X100805952Y-12528571D01*
X100805952Y-12719047D01*
X100853571Y-12814285D01*
X100901190Y-12861904D01*
X100996428Y-12909523D01*
X101186904Y-12909523D01*
X101282142Y-12861904D01*
X101329761Y-12814285D01*
X101377380Y-12719047D01*
X101377380Y-12528571D01*
X101329761Y-12433333D01*
X101282142Y-12385714D01*
X101186904Y-12338095D01*
X100996428Y-12338095D01*
X100901190Y-12385714D01*
X100853571Y-12433333D01*
X100805952Y-12528571D01*
%TO.C,R39*%
X103289880Y-14242857D02*
X102813690Y-14576190D01*
X103289880Y-14814285D02*
X102289880Y-14814285D01*
X102289880Y-14433333D01*
X102337500Y-14338095D01*
X102385119Y-14290476D01*
X102480357Y-14242857D01*
X102623214Y-14242857D01*
X102718452Y-14290476D01*
X102766071Y-14338095D01*
X102813690Y-14433333D01*
X102813690Y-14814285D01*
X102289880Y-13909523D02*
X102289880Y-13290476D01*
X102670833Y-13623809D01*
X102670833Y-13480952D01*
X102718452Y-13385714D01*
X102766071Y-13338095D01*
X102861309Y-13290476D01*
X103099404Y-13290476D01*
X103194642Y-13338095D01*
X103242261Y-13385714D01*
X103289880Y-13480952D01*
X103289880Y-13766666D01*
X103242261Y-13861904D01*
X103194642Y-13909523D01*
X103289880Y-12814285D02*
X103289880Y-12623809D01*
X103242261Y-12528571D01*
X103194642Y-12480952D01*
X103051785Y-12385714D01*
X102861309Y-12338095D01*
X102480357Y-12338095D01*
X102385119Y-12385714D01*
X102337500Y-12433333D01*
X102289880Y-12528571D01*
X102289880Y-12719047D01*
X102337500Y-12814285D01*
X102385119Y-12861904D01*
X102480357Y-12909523D01*
X102718452Y-12909523D01*
X102813690Y-12861904D01*
X102861309Y-12814285D01*
X102908928Y-12719047D01*
X102908928Y-12528571D01*
X102861309Y-12433333D01*
X102813690Y-12385714D01*
X102718452Y-12338095D01*
%TO.C,R40*%
X105202380Y-14242857D02*
X104726190Y-14576190D01*
X105202380Y-14814285D02*
X104202380Y-14814285D01*
X104202380Y-14433333D01*
X104250000Y-14338095D01*
X104297619Y-14290476D01*
X104392857Y-14242857D01*
X104535714Y-14242857D01*
X104630952Y-14290476D01*
X104678571Y-14338095D01*
X104726190Y-14433333D01*
X104726190Y-14814285D01*
X104535714Y-13385714D02*
X105202380Y-13385714D01*
X104154761Y-13623809D02*
X104869047Y-13861904D01*
X104869047Y-13242857D01*
X104202380Y-12671428D02*
X104202380Y-12576190D01*
X104250000Y-12480952D01*
X104297619Y-12433333D01*
X104392857Y-12385714D01*
X104583333Y-12338095D01*
X104821428Y-12338095D01*
X105011904Y-12385714D01*
X105107142Y-12433333D01*
X105154761Y-12480952D01*
X105202380Y-12576190D01*
X105202380Y-12671428D01*
X105154761Y-12766666D01*
X105107142Y-12814285D01*
X105011904Y-12861904D01*
X104821428Y-12909523D01*
X104583333Y-12909523D01*
X104392857Y-12861904D01*
X104297619Y-12814285D01*
X104250000Y-12766666D01*
X104202380Y-12671428D01*
%TO.C,R41*%
X127604880Y-17642857D02*
X127128690Y-17976190D01*
X127604880Y-18214285D02*
X126604880Y-18214285D01*
X126604880Y-17833333D01*
X126652500Y-17738095D01*
X126700119Y-17690476D01*
X126795357Y-17642857D01*
X126938214Y-17642857D01*
X127033452Y-17690476D01*
X127081071Y-17738095D01*
X127128690Y-17833333D01*
X127128690Y-18214285D01*
X126938214Y-16785714D02*
X127604880Y-16785714D01*
X126557261Y-17023809D02*
X127271547Y-17261904D01*
X127271547Y-16642857D01*
X127604880Y-15738095D02*
X127604880Y-16309523D01*
X127604880Y-16023809D02*
X126604880Y-16023809D01*
X126747738Y-16119047D01*
X126842976Y-16214285D01*
X126890595Y-16309523D01*
%TO.C,R42*%
X129517380Y-17642857D02*
X129041190Y-17976190D01*
X129517380Y-18214285D02*
X128517380Y-18214285D01*
X128517380Y-17833333D01*
X128565000Y-17738095D01*
X128612619Y-17690476D01*
X128707857Y-17642857D01*
X128850714Y-17642857D01*
X128945952Y-17690476D01*
X128993571Y-17738095D01*
X129041190Y-17833333D01*
X129041190Y-18214285D01*
X128850714Y-16785714D02*
X129517380Y-16785714D01*
X128469761Y-17023809D02*
X129184047Y-17261904D01*
X129184047Y-16642857D01*
X128612619Y-16309523D02*
X128565000Y-16261904D01*
X128517380Y-16166666D01*
X128517380Y-15928571D01*
X128565000Y-15833333D01*
X128612619Y-15785714D01*
X128707857Y-15738095D01*
X128803095Y-15738095D01*
X128945952Y-15785714D01*
X129517380Y-16357142D01*
X129517380Y-15738095D01*
%TO.C,R43*%
X131429880Y-17642857D02*
X130953690Y-17976190D01*
X131429880Y-18214285D02*
X130429880Y-18214285D01*
X130429880Y-17833333D01*
X130477500Y-17738095D01*
X130525119Y-17690476D01*
X130620357Y-17642857D01*
X130763214Y-17642857D01*
X130858452Y-17690476D01*
X130906071Y-17738095D01*
X130953690Y-17833333D01*
X130953690Y-18214285D01*
X130763214Y-16785714D02*
X131429880Y-16785714D01*
X130382261Y-17023809D02*
X131096547Y-17261904D01*
X131096547Y-16642857D01*
X130429880Y-16357142D02*
X130429880Y-15738095D01*
X130810833Y-16071428D01*
X130810833Y-15928571D01*
X130858452Y-15833333D01*
X130906071Y-15785714D01*
X131001309Y-15738095D01*
X131239404Y-15738095D01*
X131334642Y-15785714D01*
X131382261Y-15833333D01*
X131429880Y-15928571D01*
X131429880Y-16214285D01*
X131382261Y-16309523D01*
X131334642Y-16357142D01*
%TO.C,R44*%
X133342380Y-17642857D02*
X132866190Y-17976190D01*
X133342380Y-18214285D02*
X132342380Y-18214285D01*
X132342380Y-17833333D01*
X132390000Y-17738095D01*
X132437619Y-17690476D01*
X132532857Y-17642857D01*
X132675714Y-17642857D01*
X132770952Y-17690476D01*
X132818571Y-17738095D01*
X132866190Y-17833333D01*
X132866190Y-18214285D01*
X132675714Y-16785714D02*
X133342380Y-16785714D01*
X132294761Y-17023809D02*
X133009047Y-17261904D01*
X133009047Y-16642857D01*
X132675714Y-15833333D02*
X133342380Y-15833333D01*
X132294761Y-16071428D02*
X133009047Y-16309523D01*
X133009047Y-15690476D01*
%TO.C,R45*%
X118042380Y-17642857D02*
X117566190Y-17976190D01*
X118042380Y-18214285D02*
X117042380Y-18214285D01*
X117042380Y-17833333D01*
X117090000Y-17738095D01*
X117137619Y-17690476D01*
X117232857Y-17642857D01*
X117375714Y-17642857D01*
X117470952Y-17690476D01*
X117518571Y-17738095D01*
X117566190Y-17833333D01*
X117566190Y-18214285D01*
X117375714Y-16785714D02*
X118042380Y-16785714D01*
X116994761Y-17023809D02*
X117709047Y-17261904D01*
X117709047Y-16642857D01*
X117042380Y-15785714D02*
X117042380Y-16261904D01*
X117518571Y-16309523D01*
X117470952Y-16261904D01*
X117423333Y-16166666D01*
X117423333Y-15928571D01*
X117470952Y-15833333D01*
X117518571Y-15785714D01*
X117613809Y-15738095D01*
X117851904Y-15738095D01*
X117947142Y-15785714D01*
X117994761Y-15833333D01*
X118042380Y-15928571D01*
X118042380Y-16166666D01*
X117994761Y-16261904D01*
X117947142Y-16309523D01*
%TO.C,R46*%
X119954880Y-17642857D02*
X119478690Y-17976190D01*
X119954880Y-18214285D02*
X118954880Y-18214285D01*
X118954880Y-17833333D01*
X119002500Y-17738095D01*
X119050119Y-17690476D01*
X119145357Y-17642857D01*
X119288214Y-17642857D01*
X119383452Y-17690476D01*
X119431071Y-17738095D01*
X119478690Y-17833333D01*
X119478690Y-18214285D01*
X119288214Y-16785714D02*
X119954880Y-16785714D01*
X118907261Y-17023809D02*
X119621547Y-17261904D01*
X119621547Y-16642857D01*
X118954880Y-15833333D02*
X118954880Y-16023809D01*
X119002500Y-16119047D01*
X119050119Y-16166666D01*
X119192976Y-16261904D01*
X119383452Y-16309523D01*
X119764404Y-16309523D01*
X119859642Y-16261904D01*
X119907261Y-16214285D01*
X119954880Y-16119047D01*
X119954880Y-15928571D01*
X119907261Y-15833333D01*
X119859642Y-15785714D01*
X119764404Y-15738095D01*
X119526309Y-15738095D01*
X119431071Y-15785714D01*
X119383452Y-15833333D01*
X119335833Y-15928571D01*
X119335833Y-16119047D01*
X119383452Y-16214285D01*
X119431071Y-16261904D01*
X119526309Y-16309523D01*
%TO.C,R47*%
X121867380Y-17642857D02*
X121391190Y-17976190D01*
X121867380Y-18214285D02*
X120867380Y-18214285D01*
X120867380Y-17833333D01*
X120915000Y-17738095D01*
X120962619Y-17690476D01*
X121057857Y-17642857D01*
X121200714Y-17642857D01*
X121295952Y-17690476D01*
X121343571Y-17738095D01*
X121391190Y-17833333D01*
X121391190Y-18214285D01*
X121200714Y-16785714D02*
X121867380Y-16785714D01*
X120819761Y-17023809D02*
X121534047Y-17261904D01*
X121534047Y-16642857D01*
X120867380Y-16357142D02*
X120867380Y-15690476D01*
X121867380Y-16119047D01*
%TO.C,R48*%
X123779880Y-17642857D02*
X123303690Y-17976190D01*
X123779880Y-18214285D02*
X122779880Y-18214285D01*
X122779880Y-17833333D01*
X122827500Y-17738095D01*
X122875119Y-17690476D01*
X122970357Y-17642857D01*
X123113214Y-17642857D01*
X123208452Y-17690476D01*
X123256071Y-17738095D01*
X123303690Y-17833333D01*
X123303690Y-18214285D01*
X123113214Y-16785714D02*
X123779880Y-16785714D01*
X122732261Y-17023809D02*
X123446547Y-17261904D01*
X123446547Y-16642857D01*
X123208452Y-16119047D02*
X123160833Y-16214285D01*
X123113214Y-16261904D01*
X123017976Y-16309523D01*
X122970357Y-16309523D01*
X122875119Y-16261904D01*
X122827500Y-16214285D01*
X122779880Y-16119047D01*
X122779880Y-15928571D01*
X122827500Y-15833333D01*
X122875119Y-15785714D01*
X122970357Y-15738095D01*
X123017976Y-15738095D01*
X123113214Y-15785714D01*
X123160833Y-15833333D01*
X123208452Y-15928571D01*
X123208452Y-16119047D01*
X123256071Y-16214285D01*
X123303690Y-16261904D01*
X123398928Y-16309523D01*
X123589404Y-16309523D01*
X123684642Y-16261904D01*
X123732261Y-16214285D01*
X123779880Y-16119047D01*
X123779880Y-15928571D01*
X123732261Y-15833333D01*
X123684642Y-15785714D01*
X123589404Y-15738095D01*
X123398928Y-15738095D01*
X123303690Y-15785714D01*
X123256071Y-15833333D01*
X123208452Y-15928571D01*
%TO.C,R49*%
X125692380Y-17642857D02*
X125216190Y-17976190D01*
X125692380Y-18214285D02*
X124692380Y-18214285D01*
X124692380Y-17833333D01*
X124740000Y-17738095D01*
X124787619Y-17690476D01*
X124882857Y-17642857D01*
X125025714Y-17642857D01*
X125120952Y-17690476D01*
X125168571Y-17738095D01*
X125216190Y-17833333D01*
X125216190Y-18214285D01*
X125025714Y-16785714D02*
X125692380Y-16785714D01*
X124644761Y-17023809D02*
X125359047Y-17261904D01*
X125359047Y-16642857D01*
X125692380Y-16214285D02*
X125692380Y-16023809D01*
X125644761Y-15928571D01*
X125597142Y-15880952D01*
X125454285Y-15785714D01*
X125263809Y-15738095D01*
X124882857Y-15738095D01*
X124787619Y-15785714D01*
X124740000Y-15833333D01*
X124692380Y-15928571D01*
X124692380Y-16119047D01*
X124740000Y-16214285D01*
X124787619Y-16261904D01*
X124882857Y-16309523D01*
X125120952Y-16309523D01*
X125216190Y-16261904D01*
X125263809Y-16214285D01*
X125311428Y-16119047D01*
X125311428Y-15928571D01*
X125263809Y-15833333D01*
X125216190Y-15785714D01*
X125120952Y-15738095D01*
%TO.C,R50*%
X86602380Y-17642857D02*
X86126190Y-17976190D01*
X86602380Y-18214285D02*
X85602380Y-18214285D01*
X85602380Y-17833333D01*
X85650000Y-17738095D01*
X85697619Y-17690476D01*
X85792857Y-17642857D01*
X85935714Y-17642857D01*
X86030952Y-17690476D01*
X86078571Y-17738095D01*
X86126190Y-17833333D01*
X86126190Y-18214285D01*
X85602380Y-16738095D02*
X85602380Y-17214285D01*
X86078571Y-17261904D01*
X86030952Y-17214285D01*
X85983333Y-17119047D01*
X85983333Y-16880952D01*
X86030952Y-16785714D01*
X86078571Y-16738095D01*
X86173809Y-16690476D01*
X86411904Y-16690476D01*
X86507142Y-16738095D01*
X86554761Y-16785714D01*
X86602380Y-16880952D01*
X86602380Y-17119047D01*
X86554761Y-17214285D01*
X86507142Y-17261904D01*
X85602380Y-16071428D02*
X85602380Y-15976190D01*
X85650000Y-15880952D01*
X85697619Y-15833333D01*
X85792857Y-15785714D01*
X85983333Y-15738095D01*
X86221428Y-15738095D01*
X86411904Y-15785714D01*
X86507142Y-15833333D01*
X86554761Y-15880952D01*
X86602380Y-15976190D01*
X86602380Y-16071428D01*
X86554761Y-16166666D01*
X86507142Y-16214285D01*
X86411904Y-16261904D01*
X86221428Y-16309523D01*
X85983333Y-16309523D01*
X85792857Y-16261904D01*
X85697619Y-16214285D01*
X85650000Y-16166666D01*
X85602380Y-16071428D01*
%TO.C,R51*%
X88514880Y-17642857D02*
X88038690Y-17976190D01*
X88514880Y-18214285D02*
X87514880Y-18214285D01*
X87514880Y-17833333D01*
X87562500Y-17738095D01*
X87610119Y-17690476D01*
X87705357Y-17642857D01*
X87848214Y-17642857D01*
X87943452Y-17690476D01*
X87991071Y-17738095D01*
X88038690Y-17833333D01*
X88038690Y-18214285D01*
X87514880Y-16738095D02*
X87514880Y-17214285D01*
X87991071Y-17261904D01*
X87943452Y-17214285D01*
X87895833Y-17119047D01*
X87895833Y-16880952D01*
X87943452Y-16785714D01*
X87991071Y-16738095D01*
X88086309Y-16690476D01*
X88324404Y-16690476D01*
X88419642Y-16738095D01*
X88467261Y-16785714D01*
X88514880Y-16880952D01*
X88514880Y-17119047D01*
X88467261Y-17214285D01*
X88419642Y-17261904D01*
X88514880Y-15738095D02*
X88514880Y-16309523D01*
X88514880Y-16023809D02*
X87514880Y-16023809D01*
X87657738Y-16119047D01*
X87752976Y-16214285D01*
X87800595Y-16309523D01*
%TO.C,R52*%
X90427380Y-17642857D02*
X89951190Y-17976190D01*
X90427380Y-18214285D02*
X89427380Y-18214285D01*
X89427380Y-17833333D01*
X89475000Y-17738095D01*
X89522619Y-17690476D01*
X89617857Y-17642857D01*
X89760714Y-17642857D01*
X89855952Y-17690476D01*
X89903571Y-17738095D01*
X89951190Y-17833333D01*
X89951190Y-18214285D01*
X89427380Y-16738095D02*
X89427380Y-17214285D01*
X89903571Y-17261904D01*
X89855952Y-17214285D01*
X89808333Y-17119047D01*
X89808333Y-16880952D01*
X89855952Y-16785714D01*
X89903571Y-16738095D01*
X89998809Y-16690476D01*
X90236904Y-16690476D01*
X90332142Y-16738095D01*
X90379761Y-16785714D01*
X90427380Y-16880952D01*
X90427380Y-17119047D01*
X90379761Y-17214285D01*
X90332142Y-17261904D01*
X89522619Y-16309523D02*
X89475000Y-16261904D01*
X89427380Y-16166666D01*
X89427380Y-15928571D01*
X89475000Y-15833333D01*
X89522619Y-15785714D01*
X89617857Y-15738095D01*
X89713095Y-15738095D01*
X89855952Y-15785714D01*
X90427380Y-16357142D01*
X90427380Y-15738095D01*
%TO.C,R53*%
X92339880Y-17642857D02*
X91863690Y-17976190D01*
X92339880Y-18214285D02*
X91339880Y-18214285D01*
X91339880Y-17833333D01*
X91387500Y-17738095D01*
X91435119Y-17690476D01*
X91530357Y-17642857D01*
X91673214Y-17642857D01*
X91768452Y-17690476D01*
X91816071Y-17738095D01*
X91863690Y-17833333D01*
X91863690Y-18214285D01*
X91339880Y-16738095D02*
X91339880Y-17214285D01*
X91816071Y-17261904D01*
X91768452Y-17214285D01*
X91720833Y-17119047D01*
X91720833Y-16880952D01*
X91768452Y-16785714D01*
X91816071Y-16738095D01*
X91911309Y-16690476D01*
X92149404Y-16690476D01*
X92244642Y-16738095D01*
X92292261Y-16785714D01*
X92339880Y-16880952D01*
X92339880Y-17119047D01*
X92292261Y-17214285D01*
X92244642Y-17261904D01*
X91339880Y-16357142D02*
X91339880Y-15738095D01*
X91720833Y-16071428D01*
X91720833Y-15928571D01*
X91768452Y-15833333D01*
X91816071Y-15785714D01*
X91911309Y-15738095D01*
X92149404Y-15738095D01*
X92244642Y-15785714D01*
X92292261Y-15833333D01*
X92339880Y-15928571D01*
X92339880Y-16214285D01*
X92292261Y-16309523D01*
X92244642Y-16357142D01*
%TO.C,R54*%
X94252380Y-17642857D02*
X93776190Y-17976190D01*
X94252380Y-18214285D02*
X93252380Y-18214285D01*
X93252380Y-17833333D01*
X93300000Y-17738095D01*
X93347619Y-17690476D01*
X93442857Y-17642857D01*
X93585714Y-17642857D01*
X93680952Y-17690476D01*
X93728571Y-17738095D01*
X93776190Y-17833333D01*
X93776190Y-18214285D01*
X93252380Y-16738095D02*
X93252380Y-17214285D01*
X93728571Y-17261904D01*
X93680952Y-17214285D01*
X93633333Y-17119047D01*
X93633333Y-16880952D01*
X93680952Y-16785714D01*
X93728571Y-16738095D01*
X93823809Y-16690476D01*
X94061904Y-16690476D01*
X94157142Y-16738095D01*
X94204761Y-16785714D01*
X94252380Y-16880952D01*
X94252380Y-17119047D01*
X94204761Y-17214285D01*
X94157142Y-17261904D01*
X93585714Y-15833333D02*
X94252380Y-15833333D01*
X93204761Y-16071428D02*
X93919047Y-16309523D01*
X93919047Y-15690476D01*
%TO.C,R55*%
X96164880Y-17642857D02*
X95688690Y-17976190D01*
X96164880Y-18214285D02*
X95164880Y-18214285D01*
X95164880Y-17833333D01*
X95212500Y-17738095D01*
X95260119Y-17690476D01*
X95355357Y-17642857D01*
X95498214Y-17642857D01*
X95593452Y-17690476D01*
X95641071Y-17738095D01*
X95688690Y-17833333D01*
X95688690Y-18214285D01*
X95164880Y-16738095D02*
X95164880Y-17214285D01*
X95641071Y-17261904D01*
X95593452Y-17214285D01*
X95545833Y-17119047D01*
X95545833Y-16880952D01*
X95593452Y-16785714D01*
X95641071Y-16738095D01*
X95736309Y-16690476D01*
X95974404Y-16690476D01*
X96069642Y-16738095D01*
X96117261Y-16785714D01*
X96164880Y-16880952D01*
X96164880Y-17119047D01*
X96117261Y-17214285D01*
X96069642Y-17261904D01*
X95164880Y-15785714D02*
X95164880Y-16261904D01*
X95641071Y-16309523D01*
X95593452Y-16261904D01*
X95545833Y-16166666D01*
X95545833Y-15928571D01*
X95593452Y-15833333D01*
X95641071Y-15785714D01*
X95736309Y-15738095D01*
X95974404Y-15738095D01*
X96069642Y-15785714D01*
X96117261Y-15833333D01*
X96164880Y-15928571D01*
X96164880Y-16166666D01*
X96117261Y-16261904D01*
X96069642Y-16309523D01*
%TO.C,R56*%
X98077380Y-17642857D02*
X97601190Y-17976190D01*
X98077380Y-18214285D02*
X97077380Y-18214285D01*
X97077380Y-17833333D01*
X97125000Y-17738095D01*
X97172619Y-17690476D01*
X97267857Y-17642857D01*
X97410714Y-17642857D01*
X97505952Y-17690476D01*
X97553571Y-17738095D01*
X97601190Y-17833333D01*
X97601190Y-18214285D01*
X97077380Y-16738095D02*
X97077380Y-17214285D01*
X97553571Y-17261904D01*
X97505952Y-17214285D01*
X97458333Y-17119047D01*
X97458333Y-16880952D01*
X97505952Y-16785714D01*
X97553571Y-16738095D01*
X97648809Y-16690476D01*
X97886904Y-16690476D01*
X97982142Y-16738095D01*
X98029761Y-16785714D01*
X98077380Y-16880952D01*
X98077380Y-17119047D01*
X98029761Y-17214285D01*
X97982142Y-17261904D01*
X97077380Y-15833333D02*
X97077380Y-16023809D01*
X97125000Y-16119047D01*
X97172619Y-16166666D01*
X97315476Y-16261904D01*
X97505952Y-16309523D01*
X97886904Y-16309523D01*
X97982142Y-16261904D01*
X98029761Y-16214285D01*
X98077380Y-16119047D01*
X98077380Y-15928571D01*
X98029761Y-15833333D01*
X97982142Y-15785714D01*
X97886904Y-15738095D01*
X97648809Y-15738095D01*
X97553571Y-15785714D01*
X97505952Y-15833333D01*
X97458333Y-15928571D01*
X97458333Y-16119047D01*
X97505952Y-16214285D01*
X97553571Y-16261904D01*
X97648809Y-16309523D01*
%TO.C,R57*%
X99989880Y-17642857D02*
X99513690Y-17976190D01*
X99989880Y-18214285D02*
X98989880Y-18214285D01*
X98989880Y-17833333D01*
X99037500Y-17738095D01*
X99085119Y-17690476D01*
X99180357Y-17642857D01*
X99323214Y-17642857D01*
X99418452Y-17690476D01*
X99466071Y-17738095D01*
X99513690Y-17833333D01*
X99513690Y-18214285D01*
X98989880Y-16738095D02*
X98989880Y-17214285D01*
X99466071Y-17261904D01*
X99418452Y-17214285D01*
X99370833Y-17119047D01*
X99370833Y-16880952D01*
X99418452Y-16785714D01*
X99466071Y-16738095D01*
X99561309Y-16690476D01*
X99799404Y-16690476D01*
X99894642Y-16738095D01*
X99942261Y-16785714D01*
X99989880Y-16880952D01*
X99989880Y-17119047D01*
X99942261Y-17214285D01*
X99894642Y-17261904D01*
X98989880Y-16357142D02*
X98989880Y-15690476D01*
X99989880Y-16119047D01*
%TO.C,R58*%
X101902380Y-17642857D02*
X101426190Y-17976190D01*
X101902380Y-18214285D02*
X100902380Y-18214285D01*
X100902380Y-17833333D01*
X100950000Y-17738095D01*
X100997619Y-17690476D01*
X101092857Y-17642857D01*
X101235714Y-17642857D01*
X101330952Y-17690476D01*
X101378571Y-17738095D01*
X101426190Y-17833333D01*
X101426190Y-18214285D01*
X100902380Y-16738095D02*
X100902380Y-17214285D01*
X101378571Y-17261904D01*
X101330952Y-17214285D01*
X101283333Y-17119047D01*
X101283333Y-16880952D01*
X101330952Y-16785714D01*
X101378571Y-16738095D01*
X101473809Y-16690476D01*
X101711904Y-16690476D01*
X101807142Y-16738095D01*
X101854761Y-16785714D01*
X101902380Y-16880952D01*
X101902380Y-17119047D01*
X101854761Y-17214285D01*
X101807142Y-17261904D01*
X101330952Y-16119047D02*
X101283333Y-16214285D01*
X101235714Y-16261904D01*
X101140476Y-16309523D01*
X101092857Y-16309523D01*
X100997619Y-16261904D01*
X100950000Y-16214285D01*
X100902380Y-16119047D01*
X100902380Y-15928571D01*
X100950000Y-15833333D01*
X100997619Y-15785714D01*
X101092857Y-15738095D01*
X101140476Y-15738095D01*
X101235714Y-15785714D01*
X101283333Y-15833333D01*
X101330952Y-15928571D01*
X101330952Y-16119047D01*
X101378571Y-16214285D01*
X101426190Y-16261904D01*
X101521428Y-16309523D01*
X101711904Y-16309523D01*
X101807142Y-16261904D01*
X101854761Y-16214285D01*
X101902380Y-16119047D01*
X101902380Y-15928571D01*
X101854761Y-15833333D01*
X101807142Y-15785714D01*
X101711904Y-15738095D01*
X101521428Y-15738095D01*
X101426190Y-15785714D01*
X101378571Y-15833333D01*
X101330952Y-15928571D01*
%TO.C,R32*%
X89902380Y-14242857D02*
X89426190Y-14576190D01*
X89902380Y-14814285D02*
X88902380Y-14814285D01*
X88902380Y-14433333D01*
X88950000Y-14338095D01*
X88997619Y-14290476D01*
X89092857Y-14242857D01*
X89235714Y-14242857D01*
X89330952Y-14290476D01*
X89378571Y-14338095D01*
X89426190Y-14433333D01*
X89426190Y-14814285D01*
X88902380Y-13909523D02*
X88902380Y-13290476D01*
X89283333Y-13623809D01*
X89283333Y-13480952D01*
X89330952Y-13385714D01*
X89378571Y-13338095D01*
X89473809Y-13290476D01*
X89711904Y-13290476D01*
X89807142Y-13338095D01*
X89854761Y-13385714D01*
X89902380Y-13480952D01*
X89902380Y-13766666D01*
X89854761Y-13861904D01*
X89807142Y-13909523D01*
X88997619Y-12909523D02*
X88950000Y-12861904D01*
X88902380Y-12766666D01*
X88902380Y-12528571D01*
X88950000Y-12433333D01*
X88997619Y-12385714D01*
X89092857Y-12338095D01*
X89188095Y-12338095D01*
X89330952Y-12385714D01*
X89902380Y-12957142D01*
X89902380Y-12338095D01*
%TO.C,R33*%
X91814880Y-14242857D02*
X91338690Y-14576190D01*
X91814880Y-14814285D02*
X90814880Y-14814285D01*
X90814880Y-14433333D01*
X90862500Y-14338095D01*
X90910119Y-14290476D01*
X91005357Y-14242857D01*
X91148214Y-14242857D01*
X91243452Y-14290476D01*
X91291071Y-14338095D01*
X91338690Y-14433333D01*
X91338690Y-14814285D01*
X90814880Y-13909523D02*
X90814880Y-13290476D01*
X91195833Y-13623809D01*
X91195833Y-13480952D01*
X91243452Y-13385714D01*
X91291071Y-13338095D01*
X91386309Y-13290476D01*
X91624404Y-13290476D01*
X91719642Y-13338095D01*
X91767261Y-13385714D01*
X91814880Y-13480952D01*
X91814880Y-13766666D01*
X91767261Y-13861904D01*
X91719642Y-13909523D01*
X90814880Y-12957142D02*
X90814880Y-12338095D01*
X91195833Y-12671428D01*
X91195833Y-12528571D01*
X91243452Y-12433333D01*
X91291071Y-12385714D01*
X91386309Y-12338095D01*
X91624404Y-12338095D01*
X91719642Y-12385714D01*
X91767261Y-12433333D01*
X91814880Y-12528571D01*
X91814880Y-12814285D01*
X91767261Y-12909523D01*
X91719642Y-12957142D01*
%TO.C,H1*%
X86500000Y6800000D02*
G75*
G03*
X86500000Y6800000I-2700000J0D01*
G01*
%TO.C,H3*%
X86500000Y-16200000D02*
G75*
G03*
X86500000Y-16200000I-2700000J0D01*
G01*
%TO.C,H5*%
X86500000Y-42200000D02*
G75*
G03*
X86500000Y-42200000I-2700000J0D01*
G01*
%TO.C,H4*%
X144500000Y-16200000D02*
G75*
G03*
X144500000Y-16200000I-2700000J0D01*
G01*
%TO.C,H6*%
X144500000Y-42200000D02*
G75*
G03*
X144500000Y-42200000I-2700000J0D01*
G01*
%TO.C,H2*%
X144500000Y6800000D02*
G75*
G03*
X144500000Y6800000I-2700000J0D01*
G01*
%TD*%
M02*
