%TF.GenerationSoftware,KiCad,Pcbnew,(6.0.5-0)*%
%TF.CreationDate,2023-01-22T16:33:31-06:00*%
%TF.ProjectId,piscsi,70697363-7369-42e6-9b69-6361645f7063,rev?*%
%TF.SameCoordinates,PX59d60c0PY325aa00*%
%TF.FileFunction,Paste,Top*%
%TF.FilePolarity,Positive*%
%FSLAX46Y46*%
G04 Gerber Fmt 4.6, Leading zero omitted, Abs format (unit mm)*
G04 Created by KiCad (PCBNEW (6.0.5-0)) date 2023-01-22 16:33:31*
%MOMM*%
%LPD*%
G01*
G04 APERTURE LIST*
G04 Aperture macros list*
%AMRoundRect*
0 Rectangle with rounded corners*
0 $1 Rounding radius*
0 $2 $3 $4 $5 $6 $7 $8 $9 X,Y pos of 4 corners*
0 Add a 4 corners polygon primitive as box body*
4,1,4,$2,$3,$4,$5,$6,$7,$8,$9,$2,$3,0*
0 Add four circle primitives for the rounded corners*
1,1,$1+$1,$2,$3*
1,1,$1+$1,$4,$5*
1,1,$1+$1,$6,$7*
1,1,$1+$1,$8,$9*
0 Add four rect primitives between the rounded corners*
20,1,$1+$1,$2,$3,$4,$5,0*
20,1,$1+$1,$4,$5,$6,$7,0*
20,1,$1+$1,$6,$7,$8,$9,0*
20,1,$1+$1,$8,$9,$2,$3,0*%
G04 Aperture macros list end*
%ADD10RoundRect,0.243750X0.243750X0.456250X-0.243750X0.456250X-0.243750X-0.456250X0.243750X-0.456250X0*%
%ADD11RoundRect,0.250000X-0.450000X0.262500X-0.450000X-0.262500X0.450000X-0.262500X0.450000X0.262500X0*%
%ADD12RoundRect,0.250000X-0.625000X0.375000X-0.625000X-0.375000X0.625000X-0.375000X0.625000X0.375000X0*%
%ADD13R,0.650000X1.950000*%
%ADD14RoundRect,0.135000X-0.135000X-0.185000X0.135000X-0.185000X0.135000X0.185000X-0.135000X0.185000X0*%
%ADD15RoundRect,0.135000X-0.185000X0.135000X-0.185000X-0.135000X0.185000X-0.135000X0.185000X0.135000X0*%
%ADD16RoundRect,0.250000X0.450000X-0.262500X0.450000X0.262500X-0.450000X0.262500X-0.450000X-0.262500X0*%
%ADD17R,0.750000X1.425000*%
%ADD18R,1.100000X1.100000*%
%ADD19R,1.400000X0.400000*%
G04 APERTURE END LIST*
D10*
%TO.C,D3*%
X142767000Y-22066500D03*
X140892000Y-22066500D03*
%TD*%
%TO.C,D1*%
X143641000Y2381000D03*
X141766000Y2381000D03*
%TD*%
%TO.C,D2*%
X143529000Y-1556000D03*
X141654000Y-1556000D03*
%TD*%
D11*
%TO.C,R31*%
X126890000Y-12687500D03*
X126890000Y-14512500D03*
%TD*%
D12*
%TO.C,FUSE1*%
X109250000Y-12800000D03*
X109250000Y-15600000D03*
%TD*%
D13*
%TO.C,IC1*%
X99729000Y-9710000D03*
X100999000Y-9710000D03*
X102269000Y-9710000D03*
X103539000Y-9710000D03*
X104809000Y-9710000D03*
X106079000Y-9710000D03*
X107349000Y-9710000D03*
X108619000Y-9710000D03*
X109889000Y-9710000D03*
X111159000Y-9710000D03*
X111159000Y-260000D03*
X109889000Y-260000D03*
X108619000Y-260000D03*
X107349000Y-260000D03*
X106079000Y-260000D03*
X104809000Y-260000D03*
X103539000Y-260000D03*
X102269000Y-260000D03*
X100999000Y-260000D03*
X99729000Y-260000D03*
%TD*%
%TO.C,IC3*%
X124113000Y-260000D03*
X122843000Y-260000D03*
X121573000Y-260000D03*
X120303000Y-260000D03*
X119033000Y-260000D03*
X117763000Y-260000D03*
X116493000Y-260000D03*
X115223000Y-260000D03*
X113953000Y-260000D03*
X112683000Y-260000D03*
X112683000Y-9710000D03*
X113953000Y-9710000D03*
X115223000Y-9710000D03*
X116493000Y-9710000D03*
X117763000Y-9710000D03*
X119033000Y-9710000D03*
X120303000Y-9710000D03*
X121573000Y-9710000D03*
X122843000Y-9710000D03*
X124113000Y-9710000D03*
%TD*%
D14*
%TO.C,R2*%
X138248500Y3460500D03*
X139268500Y3460500D03*
%TD*%
D15*
%TO.C,R3*%
X139607000Y-21493000D03*
X139607000Y-22513000D03*
%TD*%
%TO.C,R5*%
X132812500Y2741000D03*
X132812500Y1721000D03*
%TD*%
%TO.C,R6*%
X134082500Y2741000D03*
X134082500Y1721000D03*
%TD*%
%TO.C,R7*%
X135352500Y2741000D03*
X135352500Y1721000D03*
%TD*%
%TO.C,R9*%
X118525000Y2741000D03*
X118525000Y1721000D03*
%TD*%
%TO.C,R11*%
X121065000Y2741000D03*
X121065000Y1721000D03*
%TD*%
%TO.C,R12*%
X122335000Y2741000D03*
X122335000Y1721000D03*
%TD*%
%TO.C,R13*%
X123605000Y2741000D03*
X123605000Y1721000D03*
%TD*%
%TO.C,R15*%
X91220000Y2741000D03*
X91220000Y1721000D03*
%TD*%
%TO.C,R16*%
X92490000Y2741000D03*
X92490000Y1721000D03*
%TD*%
%TO.C,R19*%
X102269000Y2741000D03*
X102269000Y1721000D03*
%TD*%
%TO.C,R20*%
X103539000Y2741000D03*
X103539000Y1721000D03*
%TD*%
%TO.C,R21*%
X104809000Y2741000D03*
X104809000Y1721000D03*
%TD*%
%TO.C,R22*%
X106079000Y2741000D03*
X106079000Y1721000D03*
%TD*%
D11*
%TO.C,R23*%
X128802500Y-12687500D03*
X128802500Y-14512500D03*
%TD*%
%TO.C,R24*%
X130715000Y-12687500D03*
X130715000Y-14512500D03*
%TD*%
%TO.C,R25*%
X132627500Y-12687500D03*
X132627500Y-14512500D03*
%TD*%
%TO.C,R26*%
X134540000Y-12687500D03*
X134540000Y-14512500D03*
%TD*%
%TO.C,R27*%
X119240000Y-12687500D03*
X119240000Y-14512500D03*
%TD*%
%TO.C,R28*%
X121152500Y-12687500D03*
X121152500Y-14512500D03*
%TD*%
%TO.C,R29*%
X123065000Y-12687500D03*
X123065000Y-14512500D03*
%TD*%
%TO.C,R30*%
X124977500Y-12687500D03*
X124977500Y-14512500D03*
%TD*%
%TO.C,R34*%
X91625000Y-12687500D03*
X91625000Y-14512500D03*
%TD*%
%TO.C,R35*%
X93537500Y-12687500D03*
X93537500Y-14512500D03*
%TD*%
%TO.C,R36*%
X95450000Y-12687500D03*
X95450000Y-14512500D03*
%TD*%
%TO.C,R37*%
X97362500Y-12687500D03*
X97362500Y-14512500D03*
%TD*%
%TO.C,R38*%
X99275000Y-12687500D03*
X99275000Y-14512500D03*
%TD*%
%TO.C,R39*%
X101187500Y-12687500D03*
X101187500Y-14512500D03*
%TD*%
%TO.C,R40*%
X103100000Y-12687500D03*
X103100000Y-14512500D03*
%TD*%
D16*
%TO.C,R41*%
X128802500Y-17912500D03*
X128802500Y-16087500D03*
%TD*%
%TO.C,R42*%
X130715000Y-17912500D03*
X130715000Y-16087500D03*
%TD*%
%TO.C,R43*%
X132627500Y-17912500D03*
X132627500Y-16087500D03*
%TD*%
%TO.C,R44*%
X134540000Y-17912500D03*
X134540000Y-16087500D03*
%TD*%
%TO.C,R45*%
X119240000Y-17912500D03*
X119240000Y-16087500D03*
%TD*%
%TO.C,R46*%
X121152500Y-17912500D03*
X121152500Y-16087500D03*
%TD*%
%TO.C,R47*%
X123065000Y-17912500D03*
X123065000Y-16087500D03*
%TD*%
%TO.C,R48*%
X124977500Y-17912500D03*
X124977500Y-16087500D03*
%TD*%
%TO.C,R49*%
X126890000Y-17912500D03*
X126890000Y-16087500D03*
%TD*%
%TO.C,R50*%
X87800000Y-17912500D03*
X87800000Y-16087500D03*
%TD*%
%TO.C,R51*%
X89712500Y-17912500D03*
X89712500Y-16087500D03*
%TD*%
%TO.C,R52*%
X91625000Y-17912500D03*
X91625000Y-16087500D03*
%TD*%
%TO.C,R53*%
X93537500Y-17912500D03*
X93537500Y-16087500D03*
%TD*%
%TO.C,R54*%
X95450000Y-17912500D03*
X95450000Y-16087500D03*
%TD*%
%TO.C,R55*%
X97362500Y-17912500D03*
X97362500Y-16087500D03*
%TD*%
%TO.C,R56*%
X99275000Y-17912500D03*
X99275000Y-16087500D03*
%TD*%
%TO.C,R57*%
X101187500Y-17912500D03*
X101187500Y-16087500D03*
%TD*%
%TO.C,R58*%
X103100000Y-17912500D03*
X103100000Y-16087500D03*
%TD*%
D15*
%TO.C,R18*%
X95030000Y2741000D03*
X95030000Y1721000D03*
%TD*%
%TO.C,R14*%
X89950000Y2741000D03*
X89950000Y1721000D03*
%TD*%
%TO.C,R17*%
X93760000Y2741000D03*
X93760000Y1721000D03*
%TD*%
D11*
%TO.C,R32*%
X87800000Y-12687500D03*
X87800000Y-14512500D03*
%TD*%
%TO.C,R33*%
X89712500Y-12687500D03*
X89712500Y-14512500D03*
%TD*%
D13*
%TO.C,IC4*%
X137067000Y-260000D03*
X135797000Y-260000D03*
X134527000Y-260000D03*
X133257000Y-260000D03*
X131987000Y-260000D03*
X130717000Y-260000D03*
X129447000Y-260000D03*
X128177000Y-260000D03*
X126907000Y-260000D03*
X125637000Y-260000D03*
X125637000Y-9710000D03*
X126907000Y-9710000D03*
X128177000Y-9710000D03*
X129447000Y-9710000D03*
X130717000Y-9710000D03*
X131987000Y-9710000D03*
X133257000Y-9710000D03*
X134527000Y-9710000D03*
X135797000Y-9710000D03*
X137067000Y-9710000D03*
%TD*%
D15*
%TO.C,R4*%
X139607000Y-19588000D03*
X139607000Y-20608000D03*
%TD*%
D17*
%TO.C,S1*%
X116515000Y-12887500D03*
X115245000Y-12887500D03*
X115245000Y-20511500D03*
X116515000Y-20511500D03*
%TD*%
D18*
%TO.C,D5*%
X111570000Y-12725000D03*
X111570000Y-15525000D03*
%TD*%
D13*
%TO.C,IC2*%
X86775000Y-9710000D03*
X88045000Y-9710000D03*
X89315000Y-9710000D03*
X90585000Y-9710000D03*
X91855000Y-9710000D03*
X93125000Y-9710000D03*
X94395000Y-9710000D03*
X95665000Y-9710000D03*
X96935000Y-9710000D03*
X98205000Y-9710000D03*
X98205000Y-260000D03*
X96935000Y-260000D03*
X95665000Y-260000D03*
X94395000Y-260000D03*
X93125000Y-260000D03*
X91855000Y-260000D03*
X90585000Y-260000D03*
X89315000Y-260000D03*
X88045000Y-260000D03*
X86775000Y-260000D03*
%TD*%
D10*
%TO.C,D4*%
X142767000Y-20161500D03*
X140892000Y-20161500D03*
%TD*%
D14*
%TO.C,R1*%
X138248500Y2444500D03*
X139268500Y2444500D03*
%TD*%
D19*
%TO.C,J8*%
X141205000Y-9960000D03*
X141205000Y-9310000D03*
X141205000Y-8660000D03*
X141205000Y-8010000D03*
X141205000Y-7360000D03*
%TD*%
D15*
%TO.C,R8*%
X136622500Y2741000D03*
X136622500Y1721000D03*
%TD*%
%TO.C,R10*%
X119795000Y2741000D03*
X119795000Y1721000D03*
%TD*%
M02*
