%TF.GenerationSoftware,KiCad,Pcbnew,(6.0.5-0)*%
%TF.CreationDate,2023-01-29T19:07:15-06:00*%
%TF.ProjectId,piscsi,70697363-7369-42e6-9b69-6361645f7063,rev?*%
%TF.SameCoordinates,PX59d60c0PY325aa00*%
%TF.FileFunction,Other,Comment*%
%FSLAX46Y46*%
G04 Gerber Fmt 4.6, Leading zero omitted, Abs format (unit mm)*
G04 Created by KiCad (PCBNEW (6.0.5-0)) date 2023-01-29 19:07:15*
%MOMM*%
%LPD*%
G01*
G04 APERTURE LIST*
%ADD10C,0.150000*%
G04 APERTURE END LIST*
D10*
%TO.C,R31*%
X125742380Y-14142857D02*
X125266190Y-14476190D01*
X125742380Y-14714285D02*
X124742380Y-14714285D01*
X124742380Y-14333333D01*
X124790000Y-14238095D01*
X124837619Y-14190476D01*
X124932857Y-14142857D01*
X125075714Y-14142857D01*
X125170952Y-14190476D01*
X125218571Y-14238095D01*
X125266190Y-14333333D01*
X125266190Y-14714285D01*
X124742380Y-13809523D02*
X124742380Y-13190476D01*
X125123333Y-13523809D01*
X125123333Y-13380952D01*
X125170952Y-13285714D01*
X125218571Y-13238095D01*
X125313809Y-13190476D01*
X125551904Y-13190476D01*
X125647142Y-13238095D01*
X125694761Y-13285714D01*
X125742380Y-13380952D01*
X125742380Y-13666666D01*
X125694761Y-13761904D01*
X125647142Y-13809523D01*
X125742380Y-12238095D02*
X125742380Y-12809523D01*
X125742380Y-12523809D02*
X124742380Y-12523809D01*
X124885238Y-12619047D01*
X124980476Y-12714285D01*
X125028095Y-12809523D01*
%TO.C,R23*%
X130904880Y-14242857D02*
X130428690Y-14576190D01*
X130904880Y-14814285D02*
X129904880Y-14814285D01*
X129904880Y-14433333D01*
X129952500Y-14338095D01*
X130000119Y-14290476D01*
X130095357Y-14242857D01*
X130238214Y-14242857D01*
X130333452Y-14290476D01*
X130381071Y-14338095D01*
X130428690Y-14433333D01*
X130428690Y-14814285D01*
X130000119Y-13861904D02*
X129952500Y-13814285D01*
X129904880Y-13719047D01*
X129904880Y-13480952D01*
X129952500Y-13385714D01*
X130000119Y-13338095D01*
X130095357Y-13290476D01*
X130190595Y-13290476D01*
X130333452Y-13338095D01*
X130904880Y-13909523D01*
X130904880Y-13290476D01*
X129904880Y-12957142D02*
X129904880Y-12338095D01*
X130285833Y-12671428D01*
X130285833Y-12528571D01*
X130333452Y-12433333D01*
X130381071Y-12385714D01*
X130476309Y-12338095D01*
X130714404Y-12338095D01*
X130809642Y-12385714D01*
X130857261Y-12433333D01*
X130904880Y-12528571D01*
X130904880Y-12814285D01*
X130857261Y-12909523D01*
X130809642Y-12957142D01*
%TO.C,R24*%
X132817380Y-14242857D02*
X132341190Y-14576190D01*
X132817380Y-14814285D02*
X131817380Y-14814285D01*
X131817380Y-14433333D01*
X131865000Y-14338095D01*
X131912619Y-14290476D01*
X132007857Y-14242857D01*
X132150714Y-14242857D01*
X132245952Y-14290476D01*
X132293571Y-14338095D01*
X132341190Y-14433333D01*
X132341190Y-14814285D01*
X131912619Y-13861904D02*
X131865000Y-13814285D01*
X131817380Y-13719047D01*
X131817380Y-13480952D01*
X131865000Y-13385714D01*
X131912619Y-13338095D01*
X132007857Y-13290476D01*
X132103095Y-13290476D01*
X132245952Y-13338095D01*
X132817380Y-13909523D01*
X132817380Y-13290476D01*
X132150714Y-12433333D02*
X132817380Y-12433333D01*
X131769761Y-12671428D02*
X132484047Y-12909523D01*
X132484047Y-12290476D01*
%TO.C,R25*%
X134729880Y-14242857D02*
X134253690Y-14576190D01*
X134729880Y-14814285D02*
X133729880Y-14814285D01*
X133729880Y-14433333D01*
X133777500Y-14338095D01*
X133825119Y-14290476D01*
X133920357Y-14242857D01*
X134063214Y-14242857D01*
X134158452Y-14290476D01*
X134206071Y-14338095D01*
X134253690Y-14433333D01*
X134253690Y-14814285D01*
X133825119Y-13861904D02*
X133777500Y-13814285D01*
X133729880Y-13719047D01*
X133729880Y-13480952D01*
X133777500Y-13385714D01*
X133825119Y-13338095D01*
X133920357Y-13290476D01*
X134015595Y-13290476D01*
X134158452Y-13338095D01*
X134729880Y-13909523D01*
X134729880Y-13290476D01*
X133729880Y-12385714D02*
X133729880Y-12861904D01*
X134206071Y-12909523D01*
X134158452Y-12861904D01*
X134110833Y-12766666D01*
X134110833Y-12528571D01*
X134158452Y-12433333D01*
X134206071Y-12385714D01*
X134301309Y-12338095D01*
X134539404Y-12338095D01*
X134634642Y-12385714D01*
X134682261Y-12433333D01*
X134729880Y-12528571D01*
X134729880Y-12766666D01*
X134682261Y-12861904D01*
X134634642Y-12909523D01*
%TO.C,R26*%
X136642380Y-14242857D02*
X136166190Y-14576190D01*
X136642380Y-14814285D02*
X135642380Y-14814285D01*
X135642380Y-14433333D01*
X135690000Y-14338095D01*
X135737619Y-14290476D01*
X135832857Y-14242857D01*
X135975714Y-14242857D01*
X136070952Y-14290476D01*
X136118571Y-14338095D01*
X136166190Y-14433333D01*
X136166190Y-14814285D01*
X135737619Y-13861904D02*
X135690000Y-13814285D01*
X135642380Y-13719047D01*
X135642380Y-13480952D01*
X135690000Y-13385714D01*
X135737619Y-13338095D01*
X135832857Y-13290476D01*
X135928095Y-13290476D01*
X136070952Y-13338095D01*
X136642380Y-13909523D01*
X136642380Y-13290476D01*
X135642380Y-12433333D02*
X135642380Y-12623809D01*
X135690000Y-12719047D01*
X135737619Y-12766666D01*
X135880476Y-12861904D01*
X136070952Y-12909523D01*
X136451904Y-12909523D01*
X136547142Y-12861904D01*
X136594761Y-12814285D01*
X136642380Y-12719047D01*
X136642380Y-12528571D01*
X136594761Y-12433333D01*
X136547142Y-12385714D01*
X136451904Y-12338095D01*
X136213809Y-12338095D01*
X136118571Y-12385714D01*
X136070952Y-12433333D01*
X136023333Y-12528571D01*
X136023333Y-12719047D01*
X136070952Y-12814285D01*
X136118571Y-12861904D01*
X136213809Y-12909523D01*
%TO.C,R27*%
X118092380Y-14142857D02*
X117616190Y-14476190D01*
X118092380Y-14714285D02*
X117092380Y-14714285D01*
X117092380Y-14333333D01*
X117140000Y-14238095D01*
X117187619Y-14190476D01*
X117282857Y-14142857D01*
X117425714Y-14142857D01*
X117520952Y-14190476D01*
X117568571Y-14238095D01*
X117616190Y-14333333D01*
X117616190Y-14714285D01*
X117187619Y-13761904D02*
X117140000Y-13714285D01*
X117092380Y-13619047D01*
X117092380Y-13380952D01*
X117140000Y-13285714D01*
X117187619Y-13238095D01*
X117282857Y-13190476D01*
X117378095Y-13190476D01*
X117520952Y-13238095D01*
X118092380Y-13809523D01*
X118092380Y-13190476D01*
X117092380Y-12857142D02*
X117092380Y-12190476D01*
X118092380Y-12619047D01*
%TO.C,R28*%
X120004880Y-14142857D02*
X119528690Y-14476190D01*
X120004880Y-14714285D02*
X119004880Y-14714285D01*
X119004880Y-14333333D01*
X119052500Y-14238095D01*
X119100119Y-14190476D01*
X119195357Y-14142857D01*
X119338214Y-14142857D01*
X119433452Y-14190476D01*
X119481071Y-14238095D01*
X119528690Y-14333333D01*
X119528690Y-14714285D01*
X119100119Y-13761904D02*
X119052500Y-13714285D01*
X119004880Y-13619047D01*
X119004880Y-13380952D01*
X119052500Y-13285714D01*
X119100119Y-13238095D01*
X119195357Y-13190476D01*
X119290595Y-13190476D01*
X119433452Y-13238095D01*
X120004880Y-13809523D01*
X120004880Y-13190476D01*
X119433452Y-12619047D02*
X119385833Y-12714285D01*
X119338214Y-12761904D01*
X119242976Y-12809523D01*
X119195357Y-12809523D01*
X119100119Y-12761904D01*
X119052500Y-12714285D01*
X119004880Y-12619047D01*
X119004880Y-12428571D01*
X119052500Y-12333333D01*
X119100119Y-12285714D01*
X119195357Y-12238095D01*
X119242976Y-12238095D01*
X119338214Y-12285714D01*
X119385833Y-12333333D01*
X119433452Y-12428571D01*
X119433452Y-12619047D01*
X119481071Y-12714285D01*
X119528690Y-12761904D01*
X119623928Y-12809523D01*
X119814404Y-12809523D01*
X119909642Y-12761904D01*
X119957261Y-12714285D01*
X120004880Y-12619047D01*
X120004880Y-12428571D01*
X119957261Y-12333333D01*
X119909642Y-12285714D01*
X119814404Y-12238095D01*
X119623928Y-12238095D01*
X119528690Y-12285714D01*
X119481071Y-12333333D01*
X119433452Y-12428571D01*
%TO.C,R29*%
X121917380Y-14142857D02*
X121441190Y-14476190D01*
X121917380Y-14714285D02*
X120917380Y-14714285D01*
X120917380Y-14333333D01*
X120965000Y-14238095D01*
X121012619Y-14190476D01*
X121107857Y-14142857D01*
X121250714Y-14142857D01*
X121345952Y-14190476D01*
X121393571Y-14238095D01*
X121441190Y-14333333D01*
X121441190Y-14714285D01*
X121012619Y-13761904D02*
X120965000Y-13714285D01*
X120917380Y-13619047D01*
X120917380Y-13380952D01*
X120965000Y-13285714D01*
X121012619Y-13238095D01*
X121107857Y-13190476D01*
X121203095Y-13190476D01*
X121345952Y-13238095D01*
X121917380Y-13809523D01*
X121917380Y-13190476D01*
X121917380Y-12714285D02*
X121917380Y-12523809D01*
X121869761Y-12428571D01*
X121822142Y-12380952D01*
X121679285Y-12285714D01*
X121488809Y-12238095D01*
X121107857Y-12238095D01*
X121012619Y-12285714D01*
X120965000Y-12333333D01*
X120917380Y-12428571D01*
X120917380Y-12619047D01*
X120965000Y-12714285D01*
X121012619Y-12761904D01*
X121107857Y-12809523D01*
X121345952Y-12809523D01*
X121441190Y-12761904D01*
X121488809Y-12714285D01*
X121536428Y-12619047D01*
X121536428Y-12428571D01*
X121488809Y-12333333D01*
X121441190Y-12285714D01*
X121345952Y-12238095D01*
%TO.C,R30*%
X123829880Y-14142857D02*
X123353690Y-14476190D01*
X123829880Y-14714285D02*
X122829880Y-14714285D01*
X122829880Y-14333333D01*
X122877500Y-14238095D01*
X122925119Y-14190476D01*
X123020357Y-14142857D01*
X123163214Y-14142857D01*
X123258452Y-14190476D01*
X123306071Y-14238095D01*
X123353690Y-14333333D01*
X123353690Y-14714285D01*
X122829880Y-13809523D02*
X122829880Y-13190476D01*
X123210833Y-13523809D01*
X123210833Y-13380952D01*
X123258452Y-13285714D01*
X123306071Y-13238095D01*
X123401309Y-13190476D01*
X123639404Y-13190476D01*
X123734642Y-13238095D01*
X123782261Y-13285714D01*
X123829880Y-13380952D01*
X123829880Y-13666666D01*
X123782261Y-13761904D01*
X123734642Y-13809523D01*
X122829880Y-12571428D02*
X122829880Y-12476190D01*
X122877500Y-12380952D01*
X122925119Y-12333333D01*
X123020357Y-12285714D01*
X123210833Y-12238095D01*
X123448928Y-12238095D01*
X123639404Y-12285714D01*
X123734642Y-12333333D01*
X123782261Y-12380952D01*
X123829880Y-12476190D01*
X123829880Y-12571428D01*
X123782261Y-12666666D01*
X123734642Y-12714285D01*
X123639404Y-12761904D01*
X123448928Y-12809523D01*
X123210833Y-12809523D01*
X123020357Y-12761904D01*
X122925119Y-12714285D01*
X122877500Y-12666666D01*
X122829880Y-12571428D01*
%TO.C,R34*%
X93727380Y-14242857D02*
X93251190Y-14576190D01*
X93727380Y-14814285D02*
X92727380Y-14814285D01*
X92727380Y-14433333D01*
X92775000Y-14338095D01*
X92822619Y-14290476D01*
X92917857Y-14242857D01*
X93060714Y-14242857D01*
X93155952Y-14290476D01*
X93203571Y-14338095D01*
X93251190Y-14433333D01*
X93251190Y-14814285D01*
X92727380Y-13909523D02*
X92727380Y-13290476D01*
X93108333Y-13623809D01*
X93108333Y-13480952D01*
X93155952Y-13385714D01*
X93203571Y-13338095D01*
X93298809Y-13290476D01*
X93536904Y-13290476D01*
X93632142Y-13338095D01*
X93679761Y-13385714D01*
X93727380Y-13480952D01*
X93727380Y-13766666D01*
X93679761Y-13861904D01*
X93632142Y-13909523D01*
X93060714Y-12433333D02*
X93727380Y-12433333D01*
X92679761Y-12671428D02*
X93394047Y-12909523D01*
X93394047Y-12290476D01*
%TO.C,R35*%
X95639880Y-14242857D02*
X95163690Y-14576190D01*
X95639880Y-14814285D02*
X94639880Y-14814285D01*
X94639880Y-14433333D01*
X94687500Y-14338095D01*
X94735119Y-14290476D01*
X94830357Y-14242857D01*
X94973214Y-14242857D01*
X95068452Y-14290476D01*
X95116071Y-14338095D01*
X95163690Y-14433333D01*
X95163690Y-14814285D01*
X94639880Y-13909523D02*
X94639880Y-13290476D01*
X95020833Y-13623809D01*
X95020833Y-13480952D01*
X95068452Y-13385714D01*
X95116071Y-13338095D01*
X95211309Y-13290476D01*
X95449404Y-13290476D01*
X95544642Y-13338095D01*
X95592261Y-13385714D01*
X95639880Y-13480952D01*
X95639880Y-13766666D01*
X95592261Y-13861904D01*
X95544642Y-13909523D01*
X94639880Y-12385714D02*
X94639880Y-12861904D01*
X95116071Y-12909523D01*
X95068452Y-12861904D01*
X95020833Y-12766666D01*
X95020833Y-12528571D01*
X95068452Y-12433333D01*
X95116071Y-12385714D01*
X95211309Y-12338095D01*
X95449404Y-12338095D01*
X95544642Y-12385714D01*
X95592261Y-12433333D01*
X95639880Y-12528571D01*
X95639880Y-12766666D01*
X95592261Y-12861904D01*
X95544642Y-12909523D01*
%TO.C,R36*%
X97552380Y-14242857D02*
X97076190Y-14576190D01*
X97552380Y-14814285D02*
X96552380Y-14814285D01*
X96552380Y-14433333D01*
X96600000Y-14338095D01*
X96647619Y-14290476D01*
X96742857Y-14242857D01*
X96885714Y-14242857D01*
X96980952Y-14290476D01*
X97028571Y-14338095D01*
X97076190Y-14433333D01*
X97076190Y-14814285D01*
X96552380Y-13909523D02*
X96552380Y-13290476D01*
X96933333Y-13623809D01*
X96933333Y-13480952D01*
X96980952Y-13385714D01*
X97028571Y-13338095D01*
X97123809Y-13290476D01*
X97361904Y-13290476D01*
X97457142Y-13338095D01*
X97504761Y-13385714D01*
X97552380Y-13480952D01*
X97552380Y-13766666D01*
X97504761Y-13861904D01*
X97457142Y-13909523D01*
X96552380Y-12433333D02*
X96552380Y-12623809D01*
X96600000Y-12719047D01*
X96647619Y-12766666D01*
X96790476Y-12861904D01*
X96980952Y-12909523D01*
X97361904Y-12909523D01*
X97457142Y-12861904D01*
X97504761Y-12814285D01*
X97552380Y-12719047D01*
X97552380Y-12528571D01*
X97504761Y-12433333D01*
X97457142Y-12385714D01*
X97361904Y-12338095D01*
X97123809Y-12338095D01*
X97028571Y-12385714D01*
X96980952Y-12433333D01*
X96933333Y-12528571D01*
X96933333Y-12719047D01*
X96980952Y-12814285D01*
X97028571Y-12861904D01*
X97123809Y-12909523D01*
%TO.C,R37*%
X99464880Y-14242857D02*
X98988690Y-14576190D01*
X99464880Y-14814285D02*
X98464880Y-14814285D01*
X98464880Y-14433333D01*
X98512500Y-14338095D01*
X98560119Y-14290476D01*
X98655357Y-14242857D01*
X98798214Y-14242857D01*
X98893452Y-14290476D01*
X98941071Y-14338095D01*
X98988690Y-14433333D01*
X98988690Y-14814285D01*
X98464880Y-13909523D02*
X98464880Y-13290476D01*
X98845833Y-13623809D01*
X98845833Y-13480952D01*
X98893452Y-13385714D01*
X98941071Y-13338095D01*
X99036309Y-13290476D01*
X99274404Y-13290476D01*
X99369642Y-13338095D01*
X99417261Y-13385714D01*
X99464880Y-13480952D01*
X99464880Y-13766666D01*
X99417261Y-13861904D01*
X99369642Y-13909523D01*
X98464880Y-12957142D02*
X98464880Y-12290476D01*
X99464880Y-12719047D01*
%TO.C,R38*%
X101377380Y-14242857D02*
X100901190Y-14576190D01*
X101377380Y-14814285D02*
X100377380Y-14814285D01*
X100377380Y-14433333D01*
X100425000Y-14338095D01*
X100472619Y-14290476D01*
X100567857Y-14242857D01*
X100710714Y-14242857D01*
X100805952Y-14290476D01*
X100853571Y-14338095D01*
X100901190Y-14433333D01*
X100901190Y-14814285D01*
X100377380Y-13909523D02*
X100377380Y-13290476D01*
X100758333Y-13623809D01*
X100758333Y-13480952D01*
X100805952Y-13385714D01*
X100853571Y-13338095D01*
X100948809Y-13290476D01*
X101186904Y-13290476D01*
X101282142Y-13338095D01*
X101329761Y-13385714D01*
X101377380Y-13480952D01*
X101377380Y-13766666D01*
X101329761Y-13861904D01*
X101282142Y-13909523D01*
X100805952Y-12719047D02*
X100758333Y-12814285D01*
X100710714Y-12861904D01*
X100615476Y-12909523D01*
X100567857Y-12909523D01*
X100472619Y-12861904D01*
X100425000Y-12814285D01*
X100377380Y-12719047D01*
X100377380Y-12528571D01*
X100425000Y-12433333D01*
X100472619Y-12385714D01*
X100567857Y-12338095D01*
X100615476Y-12338095D01*
X100710714Y-12385714D01*
X100758333Y-12433333D01*
X100805952Y-12528571D01*
X100805952Y-12719047D01*
X100853571Y-12814285D01*
X100901190Y-12861904D01*
X100996428Y-12909523D01*
X101186904Y-12909523D01*
X101282142Y-12861904D01*
X101329761Y-12814285D01*
X101377380Y-12719047D01*
X101377380Y-12528571D01*
X101329761Y-12433333D01*
X101282142Y-12385714D01*
X101186904Y-12338095D01*
X100996428Y-12338095D01*
X100901190Y-12385714D01*
X100853571Y-12433333D01*
X100805952Y-12528571D01*
%TO.C,R39*%
X103289880Y-14242857D02*
X102813690Y-14576190D01*
X103289880Y-14814285D02*
X102289880Y-14814285D01*
X102289880Y-14433333D01*
X102337500Y-14338095D01*
X102385119Y-14290476D01*
X102480357Y-14242857D01*
X102623214Y-14242857D01*
X102718452Y-14290476D01*
X102766071Y-14338095D01*
X102813690Y-14433333D01*
X102813690Y-14814285D01*
X102289880Y-13909523D02*
X102289880Y-13290476D01*
X102670833Y-13623809D01*
X102670833Y-13480952D01*
X102718452Y-13385714D01*
X102766071Y-13338095D01*
X102861309Y-13290476D01*
X103099404Y-13290476D01*
X103194642Y-13338095D01*
X103242261Y-13385714D01*
X103289880Y-13480952D01*
X103289880Y-13766666D01*
X103242261Y-13861904D01*
X103194642Y-13909523D01*
X103289880Y-12814285D02*
X103289880Y-12623809D01*
X103242261Y-12528571D01*
X103194642Y-12480952D01*
X103051785Y-12385714D01*
X102861309Y-12338095D01*
X102480357Y-12338095D01*
X102385119Y-12385714D01*
X102337500Y-12433333D01*
X102289880Y-12528571D01*
X102289880Y-12719047D01*
X102337500Y-12814285D01*
X102385119Y-12861904D01*
X102480357Y-12909523D01*
X102718452Y-12909523D01*
X102813690Y-12861904D01*
X102861309Y-12814285D01*
X102908928Y-12719047D01*
X102908928Y-12528571D01*
X102861309Y-12433333D01*
X102813690Y-12385714D01*
X102718452Y-12338095D01*
%TO.C,R40*%
X105202380Y-14242857D02*
X104726190Y-14576190D01*
X105202380Y-14814285D02*
X104202380Y-14814285D01*
X104202380Y-14433333D01*
X104250000Y-14338095D01*
X104297619Y-14290476D01*
X104392857Y-14242857D01*
X104535714Y-14242857D01*
X104630952Y-14290476D01*
X104678571Y-14338095D01*
X104726190Y-14433333D01*
X104726190Y-14814285D01*
X104535714Y-13385714D02*
X105202380Y-13385714D01*
X104154761Y-13623809D02*
X104869047Y-13861904D01*
X104869047Y-13242857D01*
X104202380Y-12671428D02*
X104202380Y-12576190D01*
X104250000Y-12480952D01*
X104297619Y-12433333D01*
X104392857Y-12385714D01*
X104583333Y-12338095D01*
X104821428Y-12338095D01*
X105011904Y-12385714D01*
X105107142Y-12433333D01*
X105154761Y-12480952D01*
X105202380Y-12576190D01*
X105202380Y-12671428D01*
X105154761Y-12766666D01*
X105107142Y-12814285D01*
X105011904Y-12861904D01*
X104821428Y-12909523D01*
X104583333Y-12909523D01*
X104392857Y-12861904D01*
X104297619Y-12814285D01*
X104250000Y-12766666D01*
X104202380Y-12671428D01*
%TO.C,R41*%
X127604880Y-17642857D02*
X127128690Y-17976190D01*
X127604880Y-18214285D02*
X126604880Y-18214285D01*
X126604880Y-17833333D01*
X126652500Y-17738095D01*
X126700119Y-17690476D01*
X126795357Y-17642857D01*
X126938214Y-17642857D01*
X127033452Y-17690476D01*
X127081071Y-17738095D01*
X127128690Y-17833333D01*
X127128690Y-18214285D01*
X126938214Y-16785714D02*
X127604880Y-16785714D01*
X126557261Y-17023809D02*
X127271547Y-17261904D01*
X127271547Y-16642857D01*
X127604880Y-15738095D02*
X127604880Y-16309523D01*
X127604880Y-16023809D02*
X126604880Y-16023809D01*
X126747738Y-16119047D01*
X126842976Y-16214285D01*
X126890595Y-16309523D01*
%TO.C,R42*%
X129517380Y-17642857D02*
X129041190Y-17976190D01*
X129517380Y-18214285D02*
X128517380Y-18214285D01*
X128517380Y-17833333D01*
X128565000Y-17738095D01*
X128612619Y-17690476D01*
X128707857Y-17642857D01*
X128850714Y-17642857D01*
X128945952Y-17690476D01*
X128993571Y-17738095D01*
X129041190Y-17833333D01*
X129041190Y-18214285D01*
X128850714Y-16785714D02*
X129517380Y-16785714D01*
X128469761Y-17023809D02*
X129184047Y-17261904D01*
X129184047Y-16642857D01*
X128612619Y-16309523D02*
X128565000Y-16261904D01*
X128517380Y-16166666D01*
X128517380Y-15928571D01*
X128565000Y-15833333D01*
X128612619Y-15785714D01*
X128707857Y-15738095D01*
X128803095Y-15738095D01*
X128945952Y-15785714D01*
X129517380Y-16357142D01*
X129517380Y-15738095D01*
%TO.C,R43*%
X131429880Y-17642857D02*
X130953690Y-17976190D01*
X131429880Y-18214285D02*
X130429880Y-18214285D01*
X130429880Y-17833333D01*
X130477500Y-17738095D01*
X130525119Y-17690476D01*
X130620357Y-17642857D01*
X130763214Y-17642857D01*
X130858452Y-17690476D01*
X130906071Y-17738095D01*
X130953690Y-17833333D01*
X130953690Y-18214285D01*
X130763214Y-16785714D02*
X131429880Y-16785714D01*
X130382261Y-17023809D02*
X131096547Y-17261904D01*
X131096547Y-16642857D01*
X130429880Y-16357142D02*
X130429880Y-15738095D01*
X130810833Y-16071428D01*
X130810833Y-15928571D01*
X130858452Y-15833333D01*
X130906071Y-15785714D01*
X131001309Y-15738095D01*
X131239404Y-15738095D01*
X131334642Y-15785714D01*
X131382261Y-15833333D01*
X131429880Y-15928571D01*
X131429880Y-16214285D01*
X131382261Y-16309523D01*
X131334642Y-16357142D01*
%TO.C,R44*%
X133342380Y-17642857D02*
X132866190Y-17976190D01*
X133342380Y-18214285D02*
X132342380Y-18214285D01*
X132342380Y-17833333D01*
X132390000Y-17738095D01*
X132437619Y-17690476D01*
X132532857Y-17642857D01*
X132675714Y-17642857D01*
X132770952Y-17690476D01*
X132818571Y-17738095D01*
X132866190Y-17833333D01*
X132866190Y-18214285D01*
X132675714Y-16785714D02*
X133342380Y-16785714D01*
X132294761Y-17023809D02*
X133009047Y-17261904D01*
X133009047Y-16642857D01*
X132675714Y-15833333D02*
X133342380Y-15833333D01*
X132294761Y-16071428D02*
X133009047Y-16309523D01*
X133009047Y-15690476D01*
%TO.C,R45*%
X114792380Y-17542857D02*
X114316190Y-17876190D01*
X114792380Y-18114285D02*
X113792380Y-18114285D01*
X113792380Y-17733333D01*
X113840000Y-17638095D01*
X113887619Y-17590476D01*
X113982857Y-17542857D01*
X114125714Y-17542857D01*
X114220952Y-17590476D01*
X114268571Y-17638095D01*
X114316190Y-17733333D01*
X114316190Y-18114285D01*
X114125714Y-16685714D02*
X114792380Y-16685714D01*
X113744761Y-16923809D02*
X114459047Y-17161904D01*
X114459047Y-16542857D01*
X113792380Y-15685714D02*
X113792380Y-16161904D01*
X114268571Y-16209523D01*
X114220952Y-16161904D01*
X114173333Y-16066666D01*
X114173333Y-15828571D01*
X114220952Y-15733333D01*
X114268571Y-15685714D01*
X114363809Y-15638095D01*
X114601904Y-15638095D01*
X114697142Y-15685714D01*
X114744761Y-15733333D01*
X114792380Y-15828571D01*
X114792380Y-16066666D01*
X114744761Y-16161904D01*
X114697142Y-16209523D01*
%TO.C,R46*%
X116704880Y-17542857D02*
X116228690Y-17876190D01*
X116704880Y-18114285D02*
X115704880Y-18114285D01*
X115704880Y-17733333D01*
X115752500Y-17638095D01*
X115800119Y-17590476D01*
X115895357Y-17542857D01*
X116038214Y-17542857D01*
X116133452Y-17590476D01*
X116181071Y-17638095D01*
X116228690Y-17733333D01*
X116228690Y-18114285D01*
X116038214Y-16685714D02*
X116704880Y-16685714D01*
X115657261Y-16923809D02*
X116371547Y-17161904D01*
X116371547Y-16542857D01*
X115704880Y-15733333D02*
X115704880Y-15923809D01*
X115752500Y-16019047D01*
X115800119Y-16066666D01*
X115942976Y-16161904D01*
X116133452Y-16209523D01*
X116514404Y-16209523D01*
X116609642Y-16161904D01*
X116657261Y-16114285D01*
X116704880Y-16019047D01*
X116704880Y-15828571D01*
X116657261Y-15733333D01*
X116609642Y-15685714D01*
X116514404Y-15638095D01*
X116276309Y-15638095D01*
X116181071Y-15685714D01*
X116133452Y-15733333D01*
X116085833Y-15828571D01*
X116085833Y-16019047D01*
X116133452Y-16114285D01*
X116181071Y-16161904D01*
X116276309Y-16209523D01*
%TO.C,R47*%
X118617380Y-17542857D02*
X118141190Y-17876190D01*
X118617380Y-18114285D02*
X117617380Y-18114285D01*
X117617380Y-17733333D01*
X117665000Y-17638095D01*
X117712619Y-17590476D01*
X117807857Y-17542857D01*
X117950714Y-17542857D01*
X118045952Y-17590476D01*
X118093571Y-17638095D01*
X118141190Y-17733333D01*
X118141190Y-18114285D01*
X117950714Y-16685714D02*
X118617380Y-16685714D01*
X117569761Y-16923809D02*
X118284047Y-17161904D01*
X118284047Y-16542857D01*
X117617380Y-16257142D02*
X117617380Y-15590476D01*
X118617380Y-16019047D01*
%TO.C,R48*%
X120529880Y-17542857D02*
X120053690Y-17876190D01*
X120529880Y-18114285D02*
X119529880Y-18114285D01*
X119529880Y-17733333D01*
X119577500Y-17638095D01*
X119625119Y-17590476D01*
X119720357Y-17542857D01*
X119863214Y-17542857D01*
X119958452Y-17590476D01*
X120006071Y-17638095D01*
X120053690Y-17733333D01*
X120053690Y-18114285D01*
X119863214Y-16685714D02*
X120529880Y-16685714D01*
X119482261Y-16923809D02*
X120196547Y-17161904D01*
X120196547Y-16542857D01*
X119958452Y-16019047D02*
X119910833Y-16114285D01*
X119863214Y-16161904D01*
X119767976Y-16209523D01*
X119720357Y-16209523D01*
X119625119Y-16161904D01*
X119577500Y-16114285D01*
X119529880Y-16019047D01*
X119529880Y-15828571D01*
X119577500Y-15733333D01*
X119625119Y-15685714D01*
X119720357Y-15638095D01*
X119767976Y-15638095D01*
X119863214Y-15685714D01*
X119910833Y-15733333D01*
X119958452Y-15828571D01*
X119958452Y-16019047D01*
X120006071Y-16114285D01*
X120053690Y-16161904D01*
X120148928Y-16209523D01*
X120339404Y-16209523D01*
X120434642Y-16161904D01*
X120482261Y-16114285D01*
X120529880Y-16019047D01*
X120529880Y-15828571D01*
X120482261Y-15733333D01*
X120434642Y-15685714D01*
X120339404Y-15638095D01*
X120148928Y-15638095D01*
X120053690Y-15685714D01*
X120006071Y-15733333D01*
X119958452Y-15828571D01*
%TO.C,R49*%
X122442380Y-17542857D02*
X121966190Y-17876190D01*
X122442380Y-18114285D02*
X121442380Y-18114285D01*
X121442380Y-17733333D01*
X121490000Y-17638095D01*
X121537619Y-17590476D01*
X121632857Y-17542857D01*
X121775714Y-17542857D01*
X121870952Y-17590476D01*
X121918571Y-17638095D01*
X121966190Y-17733333D01*
X121966190Y-18114285D01*
X121775714Y-16685714D02*
X122442380Y-16685714D01*
X121394761Y-16923809D02*
X122109047Y-17161904D01*
X122109047Y-16542857D01*
X122442380Y-16114285D02*
X122442380Y-15923809D01*
X122394761Y-15828571D01*
X122347142Y-15780952D01*
X122204285Y-15685714D01*
X122013809Y-15638095D01*
X121632857Y-15638095D01*
X121537619Y-15685714D01*
X121490000Y-15733333D01*
X121442380Y-15828571D01*
X121442380Y-16019047D01*
X121490000Y-16114285D01*
X121537619Y-16161904D01*
X121632857Y-16209523D01*
X121870952Y-16209523D01*
X121966190Y-16161904D01*
X122013809Y-16114285D01*
X122061428Y-16019047D01*
X122061428Y-15828571D01*
X122013809Y-15733333D01*
X121966190Y-15685714D01*
X121870952Y-15638095D01*
%TO.C,R50*%
X86602380Y-17642857D02*
X86126190Y-17976190D01*
X86602380Y-18214285D02*
X85602380Y-18214285D01*
X85602380Y-17833333D01*
X85650000Y-17738095D01*
X85697619Y-17690476D01*
X85792857Y-17642857D01*
X85935714Y-17642857D01*
X86030952Y-17690476D01*
X86078571Y-17738095D01*
X86126190Y-17833333D01*
X86126190Y-18214285D01*
X85602380Y-16738095D02*
X85602380Y-17214285D01*
X86078571Y-17261904D01*
X86030952Y-17214285D01*
X85983333Y-17119047D01*
X85983333Y-16880952D01*
X86030952Y-16785714D01*
X86078571Y-16738095D01*
X86173809Y-16690476D01*
X86411904Y-16690476D01*
X86507142Y-16738095D01*
X86554761Y-16785714D01*
X86602380Y-16880952D01*
X86602380Y-17119047D01*
X86554761Y-17214285D01*
X86507142Y-17261904D01*
X85602380Y-16071428D02*
X85602380Y-15976190D01*
X85650000Y-15880952D01*
X85697619Y-15833333D01*
X85792857Y-15785714D01*
X85983333Y-15738095D01*
X86221428Y-15738095D01*
X86411904Y-15785714D01*
X86507142Y-15833333D01*
X86554761Y-15880952D01*
X86602380Y-15976190D01*
X86602380Y-16071428D01*
X86554761Y-16166666D01*
X86507142Y-16214285D01*
X86411904Y-16261904D01*
X86221428Y-16309523D01*
X85983333Y-16309523D01*
X85792857Y-16261904D01*
X85697619Y-16214285D01*
X85650000Y-16166666D01*
X85602380Y-16071428D01*
%TO.C,R51*%
X88514880Y-17642857D02*
X88038690Y-17976190D01*
X88514880Y-18214285D02*
X87514880Y-18214285D01*
X87514880Y-17833333D01*
X87562500Y-17738095D01*
X87610119Y-17690476D01*
X87705357Y-17642857D01*
X87848214Y-17642857D01*
X87943452Y-17690476D01*
X87991071Y-17738095D01*
X88038690Y-17833333D01*
X88038690Y-18214285D01*
X87514880Y-16738095D02*
X87514880Y-17214285D01*
X87991071Y-17261904D01*
X87943452Y-17214285D01*
X87895833Y-17119047D01*
X87895833Y-16880952D01*
X87943452Y-16785714D01*
X87991071Y-16738095D01*
X88086309Y-16690476D01*
X88324404Y-16690476D01*
X88419642Y-16738095D01*
X88467261Y-16785714D01*
X88514880Y-16880952D01*
X88514880Y-17119047D01*
X88467261Y-17214285D01*
X88419642Y-17261904D01*
X88514880Y-15738095D02*
X88514880Y-16309523D01*
X88514880Y-16023809D02*
X87514880Y-16023809D01*
X87657738Y-16119047D01*
X87752976Y-16214285D01*
X87800595Y-16309523D01*
%TO.C,R52*%
X90427380Y-17642857D02*
X89951190Y-17976190D01*
X90427380Y-18214285D02*
X89427380Y-18214285D01*
X89427380Y-17833333D01*
X89475000Y-17738095D01*
X89522619Y-17690476D01*
X89617857Y-17642857D01*
X89760714Y-17642857D01*
X89855952Y-17690476D01*
X89903571Y-17738095D01*
X89951190Y-17833333D01*
X89951190Y-18214285D01*
X89427380Y-16738095D02*
X89427380Y-17214285D01*
X89903571Y-17261904D01*
X89855952Y-17214285D01*
X89808333Y-17119047D01*
X89808333Y-16880952D01*
X89855952Y-16785714D01*
X89903571Y-16738095D01*
X89998809Y-16690476D01*
X90236904Y-16690476D01*
X90332142Y-16738095D01*
X90379761Y-16785714D01*
X90427380Y-16880952D01*
X90427380Y-17119047D01*
X90379761Y-17214285D01*
X90332142Y-17261904D01*
X89522619Y-16309523D02*
X89475000Y-16261904D01*
X89427380Y-16166666D01*
X89427380Y-15928571D01*
X89475000Y-15833333D01*
X89522619Y-15785714D01*
X89617857Y-15738095D01*
X89713095Y-15738095D01*
X89855952Y-15785714D01*
X90427380Y-16357142D01*
X90427380Y-15738095D01*
%TO.C,R53*%
X92339880Y-17642857D02*
X91863690Y-17976190D01*
X92339880Y-18214285D02*
X91339880Y-18214285D01*
X91339880Y-17833333D01*
X91387500Y-17738095D01*
X91435119Y-17690476D01*
X91530357Y-17642857D01*
X91673214Y-17642857D01*
X91768452Y-17690476D01*
X91816071Y-17738095D01*
X91863690Y-17833333D01*
X91863690Y-18214285D01*
X91339880Y-16738095D02*
X91339880Y-17214285D01*
X91816071Y-17261904D01*
X91768452Y-17214285D01*
X91720833Y-17119047D01*
X91720833Y-16880952D01*
X91768452Y-16785714D01*
X91816071Y-16738095D01*
X91911309Y-16690476D01*
X92149404Y-16690476D01*
X92244642Y-16738095D01*
X92292261Y-16785714D01*
X92339880Y-16880952D01*
X92339880Y-17119047D01*
X92292261Y-17214285D01*
X92244642Y-17261904D01*
X91339880Y-16357142D02*
X91339880Y-15738095D01*
X91720833Y-16071428D01*
X91720833Y-15928571D01*
X91768452Y-15833333D01*
X91816071Y-15785714D01*
X91911309Y-15738095D01*
X92149404Y-15738095D01*
X92244642Y-15785714D01*
X92292261Y-15833333D01*
X92339880Y-15928571D01*
X92339880Y-16214285D01*
X92292261Y-16309523D01*
X92244642Y-16357142D01*
%TO.C,R54*%
X94252380Y-17642857D02*
X93776190Y-17976190D01*
X94252380Y-18214285D02*
X93252380Y-18214285D01*
X93252380Y-17833333D01*
X93300000Y-17738095D01*
X93347619Y-17690476D01*
X93442857Y-17642857D01*
X93585714Y-17642857D01*
X93680952Y-17690476D01*
X93728571Y-17738095D01*
X93776190Y-17833333D01*
X93776190Y-18214285D01*
X93252380Y-16738095D02*
X93252380Y-17214285D01*
X93728571Y-17261904D01*
X93680952Y-17214285D01*
X93633333Y-17119047D01*
X93633333Y-16880952D01*
X93680952Y-16785714D01*
X93728571Y-16738095D01*
X93823809Y-16690476D01*
X94061904Y-16690476D01*
X94157142Y-16738095D01*
X94204761Y-16785714D01*
X94252380Y-16880952D01*
X94252380Y-17119047D01*
X94204761Y-17214285D01*
X94157142Y-17261904D01*
X93585714Y-15833333D02*
X94252380Y-15833333D01*
X93204761Y-16071428D02*
X93919047Y-16309523D01*
X93919047Y-15690476D01*
%TO.C,R55*%
X96164880Y-17642857D02*
X95688690Y-17976190D01*
X96164880Y-18214285D02*
X95164880Y-18214285D01*
X95164880Y-17833333D01*
X95212500Y-17738095D01*
X95260119Y-17690476D01*
X95355357Y-17642857D01*
X95498214Y-17642857D01*
X95593452Y-17690476D01*
X95641071Y-17738095D01*
X95688690Y-17833333D01*
X95688690Y-18214285D01*
X95164880Y-16738095D02*
X95164880Y-17214285D01*
X95641071Y-17261904D01*
X95593452Y-17214285D01*
X95545833Y-17119047D01*
X95545833Y-16880952D01*
X95593452Y-16785714D01*
X95641071Y-16738095D01*
X95736309Y-16690476D01*
X95974404Y-16690476D01*
X96069642Y-16738095D01*
X96117261Y-16785714D01*
X96164880Y-16880952D01*
X96164880Y-17119047D01*
X96117261Y-17214285D01*
X96069642Y-17261904D01*
X95164880Y-15785714D02*
X95164880Y-16261904D01*
X95641071Y-16309523D01*
X95593452Y-16261904D01*
X95545833Y-16166666D01*
X95545833Y-15928571D01*
X95593452Y-15833333D01*
X95641071Y-15785714D01*
X95736309Y-15738095D01*
X95974404Y-15738095D01*
X96069642Y-15785714D01*
X96117261Y-15833333D01*
X96164880Y-15928571D01*
X96164880Y-16166666D01*
X96117261Y-16261904D01*
X96069642Y-16309523D01*
%TO.C,R56*%
X98077380Y-17642857D02*
X97601190Y-17976190D01*
X98077380Y-18214285D02*
X97077380Y-18214285D01*
X97077380Y-17833333D01*
X97125000Y-17738095D01*
X97172619Y-17690476D01*
X97267857Y-17642857D01*
X97410714Y-17642857D01*
X97505952Y-17690476D01*
X97553571Y-17738095D01*
X97601190Y-17833333D01*
X97601190Y-18214285D01*
X97077380Y-16738095D02*
X97077380Y-17214285D01*
X97553571Y-17261904D01*
X97505952Y-17214285D01*
X97458333Y-17119047D01*
X97458333Y-16880952D01*
X97505952Y-16785714D01*
X97553571Y-16738095D01*
X97648809Y-16690476D01*
X97886904Y-16690476D01*
X97982142Y-16738095D01*
X98029761Y-16785714D01*
X98077380Y-16880952D01*
X98077380Y-17119047D01*
X98029761Y-17214285D01*
X97982142Y-17261904D01*
X97077380Y-15833333D02*
X97077380Y-16023809D01*
X97125000Y-16119047D01*
X97172619Y-16166666D01*
X97315476Y-16261904D01*
X97505952Y-16309523D01*
X97886904Y-16309523D01*
X97982142Y-16261904D01*
X98029761Y-16214285D01*
X98077380Y-16119047D01*
X98077380Y-15928571D01*
X98029761Y-15833333D01*
X97982142Y-15785714D01*
X97886904Y-15738095D01*
X97648809Y-15738095D01*
X97553571Y-15785714D01*
X97505952Y-15833333D01*
X97458333Y-15928571D01*
X97458333Y-16119047D01*
X97505952Y-16214285D01*
X97553571Y-16261904D01*
X97648809Y-16309523D01*
%TO.C,R57*%
X99989880Y-17642857D02*
X99513690Y-17976190D01*
X99989880Y-18214285D02*
X98989880Y-18214285D01*
X98989880Y-17833333D01*
X99037500Y-17738095D01*
X99085119Y-17690476D01*
X99180357Y-17642857D01*
X99323214Y-17642857D01*
X99418452Y-17690476D01*
X99466071Y-17738095D01*
X99513690Y-17833333D01*
X99513690Y-18214285D01*
X98989880Y-16738095D02*
X98989880Y-17214285D01*
X99466071Y-17261904D01*
X99418452Y-17214285D01*
X99370833Y-17119047D01*
X99370833Y-16880952D01*
X99418452Y-16785714D01*
X99466071Y-16738095D01*
X99561309Y-16690476D01*
X99799404Y-16690476D01*
X99894642Y-16738095D01*
X99942261Y-16785714D01*
X99989880Y-16880952D01*
X99989880Y-17119047D01*
X99942261Y-17214285D01*
X99894642Y-17261904D01*
X98989880Y-16357142D02*
X98989880Y-15690476D01*
X99989880Y-16119047D01*
%TO.C,R58*%
X101902380Y-17642857D02*
X101426190Y-17976190D01*
X101902380Y-18214285D02*
X100902380Y-18214285D01*
X100902380Y-17833333D01*
X100950000Y-17738095D01*
X100997619Y-17690476D01*
X101092857Y-17642857D01*
X101235714Y-17642857D01*
X101330952Y-17690476D01*
X101378571Y-17738095D01*
X101426190Y-17833333D01*
X101426190Y-18214285D01*
X100902380Y-16738095D02*
X100902380Y-17214285D01*
X101378571Y-17261904D01*
X101330952Y-17214285D01*
X101283333Y-17119047D01*
X101283333Y-16880952D01*
X101330952Y-16785714D01*
X101378571Y-16738095D01*
X101473809Y-16690476D01*
X101711904Y-16690476D01*
X101807142Y-16738095D01*
X101854761Y-16785714D01*
X101902380Y-16880952D01*
X101902380Y-17119047D01*
X101854761Y-17214285D01*
X101807142Y-17261904D01*
X101330952Y-16119047D02*
X101283333Y-16214285D01*
X101235714Y-16261904D01*
X101140476Y-16309523D01*
X101092857Y-16309523D01*
X100997619Y-16261904D01*
X100950000Y-16214285D01*
X100902380Y-16119047D01*
X100902380Y-15928571D01*
X100950000Y-15833333D01*
X100997619Y-15785714D01*
X101092857Y-15738095D01*
X101140476Y-15738095D01*
X101235714Y-15785714D01*
X101283333Y-15833333D01*
X101330952Y-15928571D01*
X101330952Y-16119047D01*
X101378571Y-16214285D01*
X101426190Y-16261904D01*
X101521428Y-16309523D01*
X101711904Y-16309523D01*
X101807142Y-16261904D01*
X101854761Y-16214285D01*
X101902380Y-16119047D01*
X101902380Y-15928571D01*
X101854761Y-15833333D01*
X101807142Y-15785714D01*
X101711904Y-15738095D01*
X101521428Y-15738095D01*
X101426190Y-15785714D01*
X101378571Y-15833333D01*
X101330952Y-15928571D01*
%TO.C,R32*%
X89902380Y-14242857D02*
X89426190Y-14576190D01*
X89902380Y-14814285D02*
X88902380Y-14814285D01*
X88902380Y-14433333D01*
X88950000Y-14338095D01*
X88997619Y-14290476D01*
X89092857Y-14242857D01*
X89235714Y-14242857D01*
X89330952Y-14290476D01*
X89378571Y-14338095D01*
X89426190Y-14433333D01*
X89426190Y-14814285D01*
X88902380Y-13909523D02*
X88902380Y-13290476D01*
X89283333Y-13623809D01*
X89283333Y-13480952D01*
X89330952Y-13385714D01*
X89378571Y-13338095D01*
X89473809Y-13290476D01*
X89711904Y-13290476D01*
X89807142Y-13338095D01*
X89854761Y-13385714D01*
X89902380Y-13480952D01*
X89902380Y-13766666D01*
X89854761Y-13861904D01*
X89807142Y-13909523D01*
X88997619Y-12909523D02*
X88950000Y-12861904D01*
X88902380Y-12766666D01*
X88902380Y-12528571D01*
X88950000Y-12433333D01*
X88997619Y-12385714D01*
X89092857Y-12338095D01*
X89188095Y-12338095D01*
X89330952Y-12385714D01*
X89902380Y-12957142D01*
X89902380Y-12338095D01*
%TO.C,R33*%
X91814880Y-14242857D02*
X91338690Y-14576190D01*
X91814880Y-14814285D02*
X90814880Y-14814285D01*
X90814880Y-14433333D01*
X90862500Y-14338095D01*
X90910119Y-14290476D01*
X91005357Y-14242857D01*
X91148214Y-14242857D01*
X91243452Y-14290476D01*
X91291071Y-14338095D01*
X91338690Y-14433333D01*
X91338690Y-14814285D01*
X90814880Y-13909523D02*
X90814880Y-13290476D01*
X91195833Y-13623809D01*
X91195833Y-13480952D01*
X91243452Y-13385714D01*
X91291071Y-13338095D01*
X91386309Y-13290476D01*
X91624404Y-13290476D01*
X91719642Y-13338095D01*
X91767261Y-13385714D01*
X91814880Y-13480952D01*
X91814880Y-13766666D01*
X91767261Y-13861904D01*
X91719642Y-13909523D01*
X90814880Y-12957142D02*
X90814880Y-12338095D01*
X91195833Y-12671428D01*
X91195833Y-12528571D01*
X91243452Y-12433333D01*
X91291071Y-12385714D01*
X91386309Y-12338095D01*
X91624404Y-12338095D01*
X91719642Y-12385714D01*
X91767261Y-12433333D01*
X91814880Y-12528571D01*
X91814880Y-12814285D01*
X91767261Y-12909523D01*
X91719642Y-12957142D01*
%TO.C,H1*%
X86500000Y6800000D02*
G75*
G03*
X86500000Y6800000I-2700000J0D01*
G01*
%TO.C,H3*%
X86500000Y-16200000D02*
G75*
G03*
X86500000Y-16200000I-2700000J0D01*
G01*
%TO.C,H5*%
X86500000Y-42200000D02*
G75*
G03*
X86500000Y-42200000I-2700000J0D01*
G01*
%TO.C,H4*%
X144500000Y-16200000D02*
G75*
G03*
X144500000Y-16200000I-2700000J0D01*
G01*
%TO.C,H6*%
X144500000Y-42200000D02*
G75*
G03*
X144500000Y-42200000I-2700000J0D01*
G01*
%TO.C,H2*%
X144500000Y6800000D02*
G75*
G03*
X144500000Y6800000I-2700000J0D01*
G01*
%TD*%
M02*
