%TF.GenerationSoftware,KiCad,Pcbnew,(6.0.5-0)*%
%TF.CreationDate,2023-01-29T19:07:15-06:00*%
%TF.ProjectId,piscsi,70697363-7369-42e6-9b69-6361645f7063,rev?*%
%TF.SameCoordinates,PX59d60c0PY325aa00*%
%TF.FileFunction,Soldermask,Bot*%
%TF.FilePolarity,Negative*%
%FSLAX46Y46*%
G04 Gerber Fmt 4.6, Leading zero omitted, Abs format (unit mm)*
G04 Created by KiCad (PCBNEW (6.0.5-0)) date 2023-01-29 19:07:15*
%MOMM*%
%LPD*%
G01*
G04 APERTURE LIST*
%ADD10C,0.800000*%
%ADD11C,5.400000*%
%ADD12R,1.700000X1.700000*%
%ADD13O,1.700000X1.700000*%
%ADD14C,1.545000*%
%ADD15C,4.845000*%
%ADD16C,0.650000*%
%ADD17C,2.000000*%
%ADD18R,1.350000X1.350000*%
%ADD19O,1.350000X1.350000*%
%ADD20C,1.000000*%
%ADD21C,0.500000*%
G04 APERTURE END LIST*
D10*
%TO.C,H1*%
X85231891Y8231891D03*
X83800000Y8825000D03*
X83800000Y4775000D03*
X81775000Y6800000D03*
X85825000Y6800000D03*
X85231891Y5368109D03*
X82368109Y8231891D03*
X82368109Y5368109D03*
D11*
X83800000Y6800000D03*
%TD*%
D10*
%TO.C,H3*%
X81775000Y-16200000D03*
D11*
X83800000Y-16200000D03*
D10*
X82368109Y-17631891D03*
X85231891Y-17631891D03*
X83800000Y-18225000D03*
X82368109Y-14768109D03*
X83800000Y-14175000D03*
X85231891Y-14768109D03*
X85825000Y-16200000D03*
%TD*%
%TO.C,H5*%
X85231891Y-43631891D03*
X85825000Y-42200000D03*
X82368109Y-40768109D03*
D11*
X83800000Y-42200000D03*
D10*
X83800000Y-44225000D03*
X83800000Y-40175000D03*
X82368109Y-43631891D03*
X85231891Y-40768109D03*
X81775000Y-42200000D03*
%TD*%
D12*
%TO.C,J4*%
X83810000Y-10980000D03*
D13*
X83810000Y-8440000D03*
X83810000Y-5900000D03*
X83810000Y-3360000D03*
X83810000Y-820000D03*
X83810000Y1720000D03*
%TD*%
D10*
%TO.C,H4*%
X141800000Y-18225000D03*
X143231891Y-17631891D03*
D11*
X141800000Y-16200000D03*
D10*
X143825000Y-16200000D03*
X140368109Y-14768109D03*
X139775000Y-16200000D03*
X140368109Y-17631891D03*
X143231891Y-14768109D03*
X141800000Y-14175000D03*
%TD*%
%TO.C,H6*%
X141800000Y-44225000D03*
X140368109Y-40768109D03*
X141800000Y-40175000D03*
X143231891Y-40768109D03*
X143231891Y-43631891D03*
D11*
X141800000Y-42200000D03*
D10*
X140368109Y-43631891D03*
X143825000Y-42200000D03*
X139775000Y-42200000D03*
%TD*%
%TO.C,H2*%
X143231891Y5368109D03*
X140368109Y8231891D03*
D11*
X141800000Y6800000D03*
D10*
X140368109Y5368109D03*
X141800000Y4775000D03*
X143825000Y6800000D03*
X143231891Y8231891D03*
X141800000Y8825000D03*
X139775000Y6800000D03*
%TD*%
D14*
%TO.C,J6*%
X129421600Y-34830000D03*
X126651600Y-34830000D03*
X123881600Y-34830000D03*
X121111600Y-34830000D03*
X118341600Y-34830000D03*
X115571600Y-34830000D03*
X112801600Y-34830000D03*
X110031600Y-34830000D03*
X107261600Y-34830000D03*
X104491600Y-34830000D03*
X101721600Y-34830000D03*
X98951600Y-34830000D03*
X96181600Y-34830000D03*
X128036600Y-37670000D03*
X125266600Y-37670000D03*
X122496600Y-37670000D03*
X119726600Y-37670000D03*
X116956600Y-37670000D03*
X114186600Y-37670000D03*
X111416600Y-37670000D03*
X108646600Y-37670000D03*
X105876600Y-37670000D03*
X103106600Y-37670000D03*
X100336600Y-37670000D03*
X97566600Y-37670000D03*
D15*
X89281600Y-36250000D03*
X136321600Y-36250000D03*
%TD*%
D16*
%TO.C,J8*%
X142025000Y-10660000D03*
X142025000Y-6660000D03*
D17*
X144155000Y-12235000D03*
X144155000Y-5085000D03*
X140705000Y-5085000D03*
X140705000Y-12235000D03*
%TD*%
D12*
%TO.C,J3*%
X82266500Y-30194500D03*
D13*
X82266500Y-27654500D03*
X84806500Y-30194500D03*
X84806500Y-27654500D03*
X87346500Y-30194500D03*
X87346500Y-27654500D03*
X89886500Y-30194500D03*
X89886500Y-27654500D03*
X92426500Y-30194500D03*
X92426500Y-27654500D03*
X94966500Y-30194500D03*
X94966500Y-27654500D03*
X97506500Y-30194500D03*
X97506500Y-27654500D03*
X100046500Y-30194500D03*
X100046500Y-27654500D03*
X102586500Y-30194500D03*
X102586500Y-27654500D03*
X105126500Y-30194500D03*
X105126500Y-27654500D03*
X107666500Y-30194500D03*
X107666500Y-27654500D03*
X110206500Y-30194500D03*
X110206500Y-27654500D03*
X112746500Y-30194500D03*
X112746500Y-27654500D03*
X115286500Y-30194500D03*
X115286500Y-27654500D03*
X117826500Y-30194500D03*
X117826500Y-27654500D03*
X120366500Y-30194500D03*
X120366500Y-27654500D03*
X122906500Y-30194500D03*
X122906500Y-27654500D03*
X125446500Y-30194500D03*
X125446500Y-27654500D03*
X127986500Y-30194500D03*
X127986500Y-27654500D03*
X130526500Y-30194500D03*
X130526500Y-27654500D03*
X133066500Y-30194500D03*
X133066500Y-27654500D03*
X135606500Y-30194500D03*
X135606500Y-27654500D03*
X138146500Y-30194500D03*
X138146500Y-27654500D03*
X140686500Y-30194500D03*
X140686500Y-27654500D03*
X143226500Y-30194500D03*
X143226500Y-27654500D03*
%TD*%
D18*
%TO.C,J9*%
X136772000Y-40688000D03*
D19*
X136772000Y-42688000D03*
X134772000Y-40688000D03*
X134772000Y-42688000D03*
X132772000Y-40688000D03*
X132772000Y-42688000D03*
X130772000Y-40688000D03*
X130772000Y-42688000D03*
X128772000Y-40688000D03*
X128772000Y-42688000D03*
X126772000Y-40688000D03*
X126772000Y-42688000D03*
X124772000Y-40688000D03*
X124772000Y-42688000D03*
X122772000Y-40688000D03*
X122772000Y-42688000D03*
X120772000Y-40688000D03*
X120772000Y-42688000D03*
X118772000Y-40688000D03*
X118772000Y-42688000D03*
X116772000Y-40688000D03*
X116772000Y-42688000D03*
X114772000Y-40688000D03*
X114772000Y-42688000D03*
X112772000Y-40688000D03*
X112772000Y-42688000D03*
X110772000Y-40688000D03*
X110772000Y-42688000D03*
X108772000Y-40688000D03*
X108772000Y-42688000D03*
X106772000Y-40688000D03*
X106772000Y-42688000D03*
X104772000Y-40688000D03*
X104772000Y-42688000D03*
X102772000Y-40688000D03*
X102772000Y-42688000D03*
X100772000Y-40688000D03*
X100772000Y-42688000D03*
X98772000Y-40688000D03*
X98772000Y-42688000D03*
X96772000Y-40688000D03*
X96772000Y-42688000D03*
X94772000Y-40688000D03*
X94772000Y-42688000D03*
X92772000Y-40688000D03*
X92772000Y-42688000D03*
X90772000Y-40688000D03*
X90772000Y-42688000D03*
X88772000Y-40688000D03*
X88772000Y-42688000D03*
%TD*%
D12*
%TO.C,J5*%
X87610000Y-20500000D03*
D13*
X87610000Y-23040000D03*
X85070000Y-20500000D03*
X85070000Y-23040000D03*
X82530000Y-20500000D03*
X82530000Y-23040000D03*
%TD*%
D12*
%TO.C,J20*%
X105870000Y-22580000D03*
D13*
X105870000Y-20040000D03*
X105870000Y-17500000D03*
X105870000Y-14960000D03*
%TD*%
D12*
%TO.C,J1*%
X88670000Y5530000D03*
D13*
X88670000Y8070000D03*
X91210000Y5530000D03*
X91210000Y8070000D03*
X93750000Y5530000D03*
X93750000Y8070000D03*
X96290000Y5530000D03*
X96290000Y8070000D03*
X98830000Y5530000D03*
X98830000Y8070000D03*
X101370000Y5530000D03*
X101370000Y8070000D03*
X103910000Y5530000D03*
X103910000Y8070000D03*
X106450000Y5530000D03*
X106450000Y8070000D03*
X108990000Y5530000D03*
X108990000Y8070000D03*
X111530000Y5530000D03*
X111530000Y8070000D03*
X114070000Y5530000D03*
X114070000Y8070000D03*
X116610000Y5530000D03*
X116610000Y8070000D03*
X119150000Y5530000D03*
X119150000Y8070000D03*
X121690000Y5530000D03*
X121690000Y8070000D03*
X124230000Y5530000D03*
X124230000Y8070000D03*
X126770000Y5530000D03*
X126770000Y8070000D03*
X129310000Y5530000D03*
X129310000Y8070000D03*
X131850000Y5530000D03*
X131850000Y8070000D03*
X134390000Y5530000D03*
X134390000Y8070000D03*
X136930000Y5530000D03*
X136930000Y8070000D03*
%TD*%
D12*
%TO.C,J2*%
X139226000Y-1683000D03*
D13*
X139226000Y857000D03*
%TD*%
D20*
%TO.C,TP2*%
X139150000Y-8680000D03*
%TD*%
%TO.C,TP3*%
X140650000Y-10110000D03*
%TD*%
%TO.C,TP1*%
X140650000Y-7250000D03*
%TD*%
D21*
X93190000Y-25820000D03*
X139377000Y-7383000D03*
X100990000Y380000D03*
X137680000Y-14650000D03*
X90210000Y-7800000D03*
X91580000Y-25840000D03*
X131510000Y-25960000D03*
X103000000Y-19270000D03*
X106079000Y-1810000D03*
X89910000Y-25950000D03*
X125330000Y-2000000D03*
X115899999Y-1570001D03*
X96943500Y-25863543D03*
X103539000Y-1746500D03*
X123159259Y-22348500D03*
X101100000Y-19170000D03*
X91660000Y-18990000D03*
D10*
X126750000Y-25640000D03*
D21*
X95640000Y-25870000D03*
X89740000Y-19040000D03*
X98440000Y-25710000D03*
X97620000Y-8440000D03*
D10*
X120234902Y-8196500D03*
D21*
X97150000Y-19070000D03*
X88258000Y-1572000D03*
X135923500Y-15191377D03*
X130422000Y-2080000D03*
X123220000Y-1780000D03*
X93620000Y-19030000D03*
X142910000Y600000D03*
X134470000Y-25740000D03*
X84963500Y-12347757D03*
X113379999Y-1570001D03*
X100820000Y-25900000D03*
X99700000Y-8010000D03*
X101710000Y-1930000D03*
X129406000Y-4620000D03*
X96340000Y-11340000D03*
X123732000Y-26003500D03*
D10*
X139030000Y4550000D03*
D21*
X99000000Y-19040000D03*
X95510000Y-19050000D03*
X89243314Y2464011D03*
D10*
X88616500Y3270000D03*
X136650000Y-7420000D03*
X109120000Y2800000D03*
X123910000Y-7420000D03*
X100530000Y-7040000D03*
X99750000Y-2750000D03*
D21*
X136400000Y-11780000D03*
D10*
X113480000Y-5790000D03*
X138042000Y-6906000D03*
X113320000Y-22680000D03*
X110980000Y-22580000D03*
X113310000Y-11780000D03*
X86480000Y-5890000D03*
X113390000Y-8170000D03*
D21*
X95770000Y-29100000D03*
X130419308Y-32414713D03*
X122661021Y-23991021D03*
X139350000Y-31150000D03*
X96390000Y-23880000D03*
X118954890Y-25824890D03*
X128817950Y-31630159D03*
X133993502Y-31150000D03*
X117187010Y-31684832D03*
X124267635Y-30901010D03*
X105394338Y-38713449D03*
X115588434Y-38215548D03*
X125240000Y-19890000D03*
X117100000Y-19770000D03*
X100909837Y-39247077D03*
X135828947Y-32665648D03*
X115235886Y-31652762D03*
X115182000Y-39662031D03*
X121540000Y-31560000D03*
X131502655Y-28977345D03*
X121532000Y-38656000D03*
X99434000Y-38656000D03*
X106038000Y-35862000D03*
X126730000Y-32950000D03*
X118812489Y-32689064D03*
X129270000Y-19290000D03*
X104490326Y-38501086D03*
X121279324Y-19422452D03*
X100644714Y-33758047D03*
X111018510Y-31996010D03*
X109713077Y-38111020D03*
X82530000Y-24780000D03*
X101060000Y-24780000D03*
X83780000Y-31480000D03*
X110120000Y-31996010D03*
X123564000Y-36116000D03*
X99030000Y-24303500D03*
X84744361Y-24303500D03*
X121024000Y-36624000D03*
X108521033Y-31856657D03*
X86370000Y-31530000D03*
X118230000Y-36256511D03*
X89002424Y-31302989D03*
X89490000Y-22980000D03*
X105519686Y-31957742D03*
X97988500Y-22390000D03*
X90561500Y-21985885D03*
X96320000Y-21910000D03*
X117243766Y-33076963D03*
X91693529Y-31178968D03*
X104280000Y-32052000D03*
X103498000Y-31750000D03*
X114608688Y-35948588D03*
X93930504Y-30851957D03*
X114166000Y-31544000D03*
X92600000Y-21370000D03*
X102510000Y-31434946D03*
X96408551Y-31108553D03*
X95050000Y-21380000D03*
X108431070Y-33137679D03*
X90680000Y-20640000D03*
X100973502Y-29027449D03*
X97420000Y-20720000D03*
X108752442Y-35782442D03*
X99431263Y-36493836D03*
X99770000Y-20270000D03*
X89470000Y-20300000D03*
X101686769Y-23478251D03*
X125036247Y-31748511D03*
X142000000Y-31220000D03*
X98960000Y-26450000D03*
X124670000Y-23510000D03*
X120030000Y-24990000D03*
X137054940Y-31121502D03*
X126371042Y-31585360D03*
X101974000Y-39418000D03*
X116610000Y-28880000D03*
X115479033Y-33403489D03*
X102686051Y-35947053D03*
X90611321Y2164500D03*
X92606010Y4116010D03*
X100071557Y4632242D03*
X91728000Y2127000D03*
X92557577Y3472237D03*
X130785361Y4920000D03*
X93051254Y2164500D03*
X94400000Y2140000D03*
X95583143Y2164500D03*
X95579021Y4529977D03*
X102980000Y1110000D03*
X115088942Y6212691D03*
X104230000Y1090000D03*
X105382522Y1860825D03*
X106795066Y1541500D03*
X117596707Y1388500D03*
X132847721Y4815780D03*
X128748500Y3194737D03*
X112370000Y1520000D03*
X120493500Y2127000D03*
X121904492Y1236649D03*
X125375797Y3229285D03*
X107080000Y3280000D03*
X122990000Y2220000D03*
X133387496Y2003496D03*
X134654000Y2127000D03*
X135777207Y2019438D03*
X136064293Y1462010D03*
X105960000Y3740000D03*
X131340387Y4413823D03*
X91550000Y6850000D03*
X130715000Y-17010000D03*
X93537500Y-17010000D03*
X123600000Y-16890000D03*
X101187500Y-17010000D03*
X128802500Y-17010000D03*
X115950000Y-16890000D03*
X117862500Y-16890000D03*
X89712500Y-17010000D03*
X121687500Y-16890000D03*
X99275000Y-17010000D03*
X97362500Y-17010000D03*
D10*
X114073500Y-17010000D03*
D21*
X91625000Y-17010000D03*
X95450000Y-17010000D03*
X103100000Y-17010000D03*
X87800000Y-17010000D03*
X132627500Y-17010000D03*
X134540000Y-17010000D03*
X119775000Y-16890000D03*
D10*
X114300000Y-13970000D03*
D21*
X91625000Y-13560000D03*
X95450000Y-13560000D03*
X99275000Y-13560000D03*
X101187500Y-13560000D03*
X87800000Y-13560000D03*
X97362500Y-13560000D03*
X121730000Y-13490000D03*
X134540000Y-13560000D03*
X115990000Y-13490000D03*
X103100000Y-13560000D03*
X130715000Y-13560000D03*
X117910000Y-13490000D03*
X123640000Y-13490000D03*
X89712500Y-13560000D03*
X119815000Y-13490000D03*
X93537500Y-13560000D03*
X128802500Y-13560000D03*
X132627500Y-13560000D03*
X137340000Y1120000D03*
X131077665Y3803316D03*
X127480000Y3194936D03*
X124093367Y1052134D03*
X116500000Y2300000D03*
X87031937Y-7191937D03*
X117452806Y-6416500D03*
X115190000Y2200000D03*
X116650000Y1260000D03*
X99070000Y-6860000D03*
X89000000Y-4060000D03*
X127490000Y1340000D03*
X127490000Y-4120000D03*
X126230000Y1480000D03*
X89443897Y-4723228D03*
X86291500Y-12552367D03*
X126030000Y-4700000D03*
X85850000Y-4790000D03*
X119200000Y-4891500D03*
X119790000Y1074500D03*
X143577990Y-8020000D03*
X143201287Y-8646949D03*
X143577990Y-9320000D03*
X138670000Y-19600000D03*
X135983368Y-3393368D03*
M02*
