M48
; DRILL file {KiCad (6.0.5-0)} date Sunday, January 29, 2023 at 07:07:15 PM
; FORMAT={-:-/ absolute / inch / decimal}
; #@! TF.CreationDate,2023-01-29T19:07:15-06:00
; #@! TF.GenerationSoftware,Kicad,Pcbnew,(6.0.5-0)
; #@! TF.FileFunction,Plated,1,2,PTH
FMAT,2
INCH
; #@! TA.AperFunction,Plated,PTH,ViaDrill
T1C0.0098
; #@! TA.AperFunction,Plated,PTH,ViaDrill
T2C0.0157
; #@! TA.AperFunction,Plated,PTH,ComponentDrill
T3C0.0197
; #@! TA.AperFunction,Plated,PTH,ComponentDrill
T4C0.0315
; #@! TA.AperFunction,Plated,PTH,ComponentDrill
T5C0.0394
; #@! TA.AperFunction,Plated,PTH,ComponentDrill
T6C0.0406
; #@! TA.AperFunction,Plated,PTH,ComponentDrill
T7C0.0523
; #@! TA.AperFunction,Plated,PTH,ComponentDrill
T8C0.1063
; #@! TA.AperFunction,Plated,PTH,ComponentDrill
T9C0.1272
%
G90
G05
T1
X3.2492Y-0.9756
X3.2984Y-1.2394
X3.3364Y-0.9568
X3.345Y-0.4861
X3.3799Y-0.1886
X3.3973Y-0.4942
X3.4004Y-1.2413
X3.4265Y-0.2831
X3.4567Y-0.5339
X3.4567Y-0.6697
X3.4747Y-0.0619
X3.5039Y-0.1598
X3.504Y-1.2324
X3.5135Y0.097
X3.5214Y-0.186
X3.5224Y-0.7992
X3.5232Y-0.9047
X3.532Y-0.5339
X3.532Y-0.6697
X3.5331Y-0.7496
X3.5398Y-1.0217
X3.5516Y-0.3071
X3.5654Y-0.8656
X3.5674Y0.0852
X3.5701Y-0.8126
X3.6043Y0.2697
X3.6055Y-1.0173
X3.6073Y-0.5339
X3.6073Y-0.6697
X3.6087Y-0.7476
X3.61Y-1.2275
X3.6113Y0.0837
X3.644Y0.1367
X3.6457Y-0.8413
X3.6459Y0.162
X3.6634Y0.0852
X3.6689Y-1.0165
X3.6826Y-0.5339
X3.6826Y-0.6697
X3.6858Y-0.7492
X3.6981Y-1.2146
X3.7165Y0.0843
X3.7421Y-0.8417
X3.7579Y-0.5339
X3.7579Y-0.6697
X3.7602Y-0.75
X3.763Y0.1783
X3.7631Y0.0852
X3.7654Y-1.0185
X3.7705Y-1.1457
X3.7921Y-0.8626
X3.7929Y-0.4465
X3.7949Y-0.9402
X3.7956Y-1.2247
X3.8167Y-1.0182
X3.8248Y-0.7508
X3.8332Y-0.5339
X3.8332Y-0.6697
X3.8354Y-0.8157
X3.8433Y-0.3323
X3.8578Y-0.8815
X3.8756Y-1.0122
X3.8961Y-1.0413
X3.8976Y-0.7496
X3.8988Y-0.9568
X3.9004Y-0.2701
X3.9085Y-0.5339
X3.9085Y-0.6697
X3.9146Y-1.4368
X3.9147Y-1.5219
X3.9252Y-0.3154
X3.928Y-0.798
X3.9398Y0.1824
X3.9624Y-1.3291
X3.9693Y-1.0197
X3.9728Y-1.5452
X3.9753Y-1.1428
X3.976Y0.015
X3.9787Y-0.9756
X3.9803Y-0.7547
X3.9838Y-0.5339
X3.9838Y-0.6697
X4.0034Y-0.9243
X4.0043Y-0.076
X4.0147Y-1.5519
X4.0358Y-1.2376
X4.0428Y-1.4152
X4.0543Y0.0437
X4.0551Y-0.7587
X4.0591Y-0.5339
X4.0591Y-0.6697
X4.0747Y-1.25
X4.0763Y-0.0688
X4.1035Y0.0429
X4.1055Y-1.2619
X4.1138Y-1.5158
X4.1489Y0.0733
X4.1494Y-1.5242
X4.1543Y-1.2582
X4.1717Y0.1472
X4.1747Y-1.4119
X4.1763Y-0.0713
X4.2045Y0.0607
X4.2157Y0.1291
X4.2689Y-1.3046
X4.2725Y-1.2542
X4.2816Y-1.4088
X4.3194Y-1.5004
X4.3354Y-1.2597
X4.3708Y-1.2597
X4.424Y0.0598
X4.4638Y-0.0618
X4.4947Y-1.2419
X4.5122Y-1.4153
X4.5311Y0.2446
X4.5347Y-1.5615
X4.535Y0.0866
X4.5368Y-1.2462
X4.5464Y-1.3151
X4.5507Y-1.5045
X4.563Y-0.0618
X4.565Y-0.665
X4.5665Y-0.5311
X4.5866Y0.0906
X4.5909Y-1.137
X4.5925Y0.0496
X4.6102Y-0.7783
X4.6137Y-1.2474
X4.6159Y-1.3022
X4.6241Y-0.2526
X4.6298Y0.0547
X4.6403Y-0.665
X4.6421Y-0.5311
X4.6547Y-1.4274
X4.6777Y-1.287
X4.6833Y-1.0167
X4.6929Y-0.1926
X4.7156Y-0.665
X4.7161Y0.0423
X4.7171Y-0.5311
X4.7256Y-0.9839
X4.7438Y0.0837
X4.7647Y-1.4419
X4.7748Y-0.7647
X4.7847Y-1.5219
X4.785Y-1.2425
X4.7908Y-0.665
X4.7925Y-0.5311
X4.7994Y0.0487
X4.8292Y-0.9445
X4.8421Y0.0874
X4.8488Y-0.8799
X4.8512Y-0.0701
X4.8647Y-1.4219
X4.8661Y-0.665
X4.8677Y-0.5311
X4.8713Y-1.0238
X4.8856Y0.0414
X4.8924Y-1.2166
X4.9083Y-0.9256
X4.9227Y-1.2499
X4.9307Y-0.7831
X4.9343Y-0.0787
X4.9361Y0.1271
X4.9618Y-0.185
X4.9697Y0.0583
X4.9752Y-1.2435
X4.9894Y-1.2972
X5.0189Y0.1258
X5.0193Y0.0528
X5.0193Y-0.1622
X5.0688Y0.1258
X5.071Y-0.5339
X5.071Y-0.6697
X5.0716Y-1.2453
X5.0894Y-0.7594
X5.0947Y-0.1819
X5.1346Y-1.2762
X5.1347Y-0.0819
X5.1463Y-0.5339
X5.1463Y-0.6697
X5.149Y0.1937
X5.1605Y0.1497
X5.1709Y0.1738
X5.1773Y-1.1408
X5.1776Y-1.022
X5.2216Y-0.5339
X5.2216Y-0.6697
X5.2302Y0.1896
X5.2515Y0.0789
X5.2753Y-1.2264
X5.2941Y-1.0134
X5.2969Y-0.5339
X5.2969Y-0.6697
X5.3013Y0.0837
X5.3456Y0.0795
X5.3476Y-1.286
X5.3513Y-0.5981
X5.3537Y-0.1336
X5.3569Y0.0576
X5.3701Y-0.4638
X5.3959Y-1.2253
X5.4071Y0.0441
X5.4205Y-0.5768
X5.4594Y-0.7717
X5.4862Y-1.2264
X5.4873Y-0.2907
X5.5906Y-1.2291
X5.6264Y0.0236
X5.6378Y-0.3404
X5.6527Y-0.3157
X5.6527Y-0.3669
T2
X3.4047Y-0.2319
X3.4888Y0.1287
X3.9272Y-0.1083
X3.9579Y-0.2772
X4.2961Y0.1102
X4.3693Y-0.889
X4.461Y-0.4638
X4.4614Y-0.8929
X4.4642Y-0.3217
X4.4677Y-0.228
X4.4911Y-0.6697
X4.5Y-0.55
X4.7337Y-0.3227
X4.8783Y-0.2921
X4.9902Y-1.0094
X5.3799Y-0.2921
X5.4347Y-0.2719
X5.4736Y0.1791
T3
X3.2195Y0.2677
X3.2195Y-0.6378
X3.2195Y-1.6614
X3.2428Y0.3241
X3.2428Y0.2113
X3.2428Y-0.5814
X3.2428Y-0.6942
X3.2428Y-1.605
X3.2428Y-1.7178
X3.2992Y0.3474
X3.2992Y0.188
X3.2992Y-0.5581
X3.2992Y-0.7175
X3.2992Y-1.5817
X3.2992Y-1.7411
X3.3556Y0.3241
X3.3556Y0.2113
X3.3556Y-0.5814
X3.3556Y-0.6942
X3.3556Y-1.605
X3.3556Y-1.7178
X3.3789Y0.2677
X3.3789Y-0.6378
X3.3789Y-1.6614
X5.503Y0.2677
X5.503Y-0.6378
X5.503Y-1.6614
X5.5263Y0.3241
X5.5263Y0.2113
X5.5263Y-0.5814
X5.5263Y-0.6942
X5.5263Y-1.605
X5.5263Y-1.7178
X5.5827Y0.3474
X5.5827Y0.188
X5.5827Y-0.5581
X5.5827Y-0.7175
X5.5827Y-1.5817
X5.5827Y-1.7411
X5.6391Y0.3241
X5.6391Y0.2113
X5.6391Y-0.5814
X5.6391Y-0.6942
X5.6391Y-1.605
X5.6391Y-1.7178
X5.6624Y0.2677
X5.6624Y-0.6378
X5.6624Y-1.6614
T4
X3.495Y-1.6019
X3.495Y-1.6806
X3.5737Y-1.6019
X3.5737Y-1.6806
X3.6524Y-1.6019
X3.6524Y-1.6806
X3.7312Y-1.6019
X3.7312Y-1.6806
X3.8099Y-1.6019
X3.8099Y-1.6806
X3.8887Y-1.6019
X3.8887Y-1.6806
X3.9674Y-1.6019
X3.9674Y-1.6806
X4.0461Y-1.6019
X4.0461Y-1.6806
X4.1249Y-1.6019
X4.1249Y-1.6806
X4.2036Y-1.6019
X4.2036Y-1.6806
X4.2824Y-1.6019
X4.2824Y-1.6806
X4.3611Y-1.6019
X4.3611Y-1.6806
X4.4398Y-1.6019
X4.4398Y-1.6806
X4.5186Y-1.6019
X4.5186Y-1.6806
X4.5973Y-1.6019
X4.5973Y-1.6806
X4.6761Y-1.6019
X4.6761Y-1.6806
X4.7548Y-1.6019
X4.7548Y-1.6806
X4.8335Y-1.6019
X4.8335Y-1.6806
X4.9123Y-1.6019
X4.9123Y-1.6806
X4.991Y-1.6019
X4.991Y-1.6806
X5.0698Y-1.6019
X5.0698Y-1.6806
X5.1485Y-1.6019
X5.1485Y-1.6806
X5.2272Y-1.6019
X5.2272Y-1.6806
X5.306Y-1.6019
X5.306Y-1.6806
X5.3847Y-1.6019
X5.3847Y-1.6806
T5
X3.2388Y-1.0888
X3.2388Y-1.1888
X3.2492Y-0.8071
X3.2492Y-0.9071
X3.2996Y0.0677
X3.2996Y-0.0323
X3.2996Y-0.1323
X3.2996Y-0.2323
X3.2996Y-0.3323
X3.2996Y-0.4323
X3.3388Y-1.0888
X3.3388Y-1.1888
X3.3492Y-0.8071
X3.3492Y-0.9071
X3.4388Y-1.0888
X3.4388Y-1.1888
X3.4492Y-0.8071
X3.4492Y-0.9071
X3.4909Y0.3177
X3.4909Y0.2177
X3.5388Y-1.0888
X3.5388Y-1.1888
X3.5909Y0.3177
X3.5909Y0.2177
X3.6388Y-1.0888
X3.6388Y-1.1888
X3.6909Y0.3177
X3.6909Y0.2177
X3.7388Y-1.0888
X3.7388Y-1.1888
X3.7909Y0.3177
X3.7909Y0.2177
X3.8388Y-1.0888
X3.8388Y-1.1888
X3.8909Y0.3177
X3.8909Y0.2177
X3.9388Y-1.0888
X3.9388Y-1.1888
X3.9909Y0.3177
X3.9909Y0.2177
X4.0388Y-1.0888
X4.0388Y-1.1888
X4.0909Y0.3177
X4.0909Y0.2177
X4.1388Y-1.0888
X4.1388Y-1.1888
X4.1681Y-0.589
X4.1681Y-0.689
X4.1681Y-0.789
X4.1681Y-0.889
X4.1909Y0.3177
X4.1909Y0.2177
X4.2388Y-1.0888
X4.2388Y-1.1888
X4.2909Y0.3177
X4.2909Y0.2177
X4.3388Y-1.0888
X4.3388Y-1.1888
X4.3909Y0.3177
X4.3909Y0.2177
X4.4388Y-1.0888
X4.4388Y-1.1888
X4.4909Y0.3177
X4.4909Y0.2177
X4.5388Y-1.0888
X4.5388Y-1.1888
X4.5909Y0.3177
X4.5909Y0.2177
X4.6388Y-1.0888
X4.6388Y-1.1888
X4.6909Y0.3177
X4.6909Y0.2177
X4.7388Y-1.0888
X4.7388Y-1.1888
X4.7909Y0.3177
X4.7909Y0.2177
X4.8388Y-1.0888
X4.8388Y-1.1888
X4.8909Y0.3177
X4.8909Y0.2177
X4.9388Y-1.0888
X4.9388Y-1.1888
X4.9909Y0.3177
X4.9909Y0.2177
X5.0388Y-1.0888
X5.0388Y-1.1888
X5.0909Y0.3177
X5.0909Y0.2177
X5.1388Y-1.0888
X5.1388Y-1.1888
X5.1909Y0.3177
X5.1909Y0.2177
X5.2388Y-1.0888
X5.2388Y-1.1888
X5.2909Y0.3177
X5.2909Y0.2177
X5.3388Y-1.0888
X5.3388Y-1.1888
X5.3909Y0.3177
X5.3909Y0.2177
X5.4388Y-1.0888
X5.4388Y-1.1888
X5.4813Y0.0337
X5.4813Y-0.0663
X5.5388Y-1.0888
X5.5388Y-1.1888
X5.6388Y-1.0888
X5.6388Y-1.1888
T6
X3.7867Y-1.3713
X3.8412Y-1.4831
X3.8957Y-1.3713
X3.9503Y-1.4831
X4.0048Y-1.3713
X4.0593Y-1.4831
X4.1138Y-1.3713
X4.1684Y-1.4831
X4.2229Y-1.3713
X4.2774Y-1.4831
X4.332Y-1.3713
X4.3865Y-1.4831
X4.441Y-1.3713
X4.4955Y-1.4831
X4.5501Y-1.3713
X4.6046Y-1.4831
X4.6591Y-1.3713
X4.7136Y-1.4831
X4.7682Y-1.3713
X4.8227Y-1.4831
X4.8772Y-1.3713
X4.9318Y-1.4831
X4.9863Y-1.3713
X5.0408Y-1.4831
X5.0953Y-1.3713
T7
X5.5396Y-0.2002
X5.5396Y-0.4817
X5.6754Y-0.2002
X5.6754Y-0.4817
T8
X3.2992Y0.2677
X3.2992Y-0.6378
X3.2992Y-1.6614
X5.5827Y0.2677
X5.5827Y-0.6378
X5.5827Y-1.6614
T9
X3.515Y-1.4272
X5.367Y-1.4272
T0
M30
