M48
; DRILL file {KiCad (6.0.4)} date Tue Dec 13 21:39:54 2022
; FORMAT={-:-/ absolute / metric / decimal}
; #@! TF.CreationDate,2022-12-13T21:39:54-06:00
; #@! TF.GenerationSoftware,Kicad,Pcbnew,(6.0.4)
; #@! TF.FileFunction,Plated,1,2,PTH
FMAT,2
METRIC
; #@! TA.AperFunction,Plated,PTH,ViaDrill
T1C0.250
; #@! TA.AperFunction,Plated,PTH,ViaDrill
T2C0.400
; #@! TA.AperFunction,Plated,PTH,ComponentDrill
T3C1.000
; #@! TA.AperFunction,Plated,PTH,ComponentDrill
T4C1.030
; #@! TA.AperFunction,Plated,PTH,ComponentDrill
T5C3.230
%
G90
G05
T1
X177.98Y-84.28
X180.57Y-84.33
X183.202Y-84.103
X185.894Y-83.979
X188.131Y-83.652
X190.58Y-83.95
X195.06Y-86.65
X195.174Y-81.827
X196.71Y-84.235
X197.42Y-84.55
X198.48Y-84.38
X200.15Y-84.43
X202.55Y-84.48
X204.32Y-84.43
X205.192Y-84.485
X208.73Y-85.67
X211.387Y-84.485
X213.012Y-85.489
X215.74Y-84.36
X218.47Y-83.673
X219.236Y-84.549
X220.571Y-84.385
X220.93Y-85.75
X223.018Y-84.43
X224.619Y-85.215
X225.76Y-81.72
X228.194Y-83.95
X230.029Y-85.466
X231.255Y-83.922
X233.55Y-83.95
X236.2Y-84.02
T2
X194.564Y-88.519
T3
X176.466Y-80.454
X176.466Y-82.995
X179.006Y-80.454
X179.006Y-82.995
X181.546Y-80.454
X181.546Y-82.995
X184.087Y-80.454
X184.087Y-82.995
X186.626Y-80.454
X186.626Y-82.995
X189.166Y-80.454
X189.166Y-82.995
X191.707Y-80.454
X191.707Y-82.995
X194.246Y-80.454
X194.246Y-82.995
X196.786Y-80.454
X196.786Y-82.995
X199.326Y-80.454
X199.326Y-82.995
X201.867Y-80.454
X201.867Y-82.995
X204.406Y-80.454
X204.406Y-82.995
X206.946Y-80.454
X206.946Y-82.995
X209.486Y-80.454
X209.486Y-82.995
X212.026Y-80.454
X212.026Y-82.995
X214.566Y-80.454
X214.566Y-82.995
X217.106Y-80.454
X217.106Y-82.995
X219.647Y-80.454
X219.647Y-82.995
X222.186Y-80.454
X222.186Y-82.995
X224.726Y-80.454
X224.726Y-82.995
X227.266Y-80.454
X227.266Y-82.995
X229.806Y-80.454
X229.806Y-82.995
X232.346Y-80.454
X232.346Y-82.995
X234.886Y-80.454
X234.886Y-82.995
X237.426Y-80.454
X237.426Y-82.995
T4
X190.38Y-87.63
X191.765Y-90.47
X193.15Y-87.63
X194.535Y-90.47
X195.92Y-87.63
X197.305Y-90.47
X198.69Y-87.63
X200.075Y-90.47
X201.46Y-87.63
X202.845Y-90.47
X204.23Y-87.63
X205.615Y-90.47
X207.0Y-87.63
X208.385Y-90.47
X209.77Y-87.63
X211.155Y-90.47
X212.54Y-87.63
X213.925Y-90.47
X215.31Y-87.63
X216.695Y-90.47
X218.08Y-87.63
X219.465Y-90.47
X220.85Y-87.63
X222.235Y-90.47
X223.62Y-87.63
T5
X183.48Y-89.05
X230.52Y-89.05
T0
M30
