G04 #@! TF.GenerationSoftware,KiCad,Pcbnew,(6.0.4)*
G04 #@! TF.CreationDate,2022-12-13T21:39:52-06:00*
G04 #@! TF.ProjectId,daisy_chain_board,64616973-795f-4636-9861-696e5f626f61,rev?*
G04 #@! TF.SameCoordinates,Original*
G04 #@! TF.FileFunction,Copper,L1,Top*
G04 #@! TF.FilePolarity,Positive*
%FSLAX46Y46*%
G04 Gerber Fmt 4.6, Leading zero omitted, Abs format (unit mm)*
G04 Created by KiCad (PCBNEW (6.0.4)) date 2022-12-13 21:39:52*
%MOMM*%
%LPD*%
G01*
G04 APERTURE LIST*
%ADD10C,0.400000*%
G04 #@! TA.AperFunction,NonConductor*
%ADD11C,0.400000*%
G04 #@! TD*
G04 #@! TA.AperFunction,NonConductor*
%ADD12C,0.200000*%
G04 #@! TD*
G04 #@! TA.AperFunction,ComponentPad*
%ADD13R,1.700000X1.700000*%
G04 #@! TD*
G04 #@! TA.AperFunction,ComponentPad*
%ADD14O,1.700000X1.700000*%
G04 #@! TD*
G04 #@! TA.AperFunction,ComponentPad*
%ADD15C,1.545000*%
G04 #@! TD*
G04 #@! TA.AperFunction,ComponentPad*
%ADD16C,4.845000*%
G04 #@! TD*
G04 #@! TA.AperFunction,ViaPad*
%ADD17C,0.800000*%
G04 #@! TD*
G04 #@! TA.AperFunction,ViaPad*
%ADD18C,0.500000*%
G04 #@! TD*
G04 #@! TA.AperFunction,Conductor*
%ADD19C,0.400000*%
G04 #@! TD*
G04 #@! TA.AperFunction,Conductor*
%ADD20C,0.250000*%
G04 #@! TD*
G04 #@! TA.AperFunction,Conductor*
%ADD21C,0.200000*%
G04 #@! TD*
G04 #@! TA.AperFunction,Conductor*
%ADD22C,0.150000*%
G04 #@! TD*
G04 APERTURE END LIST*
D10*
D11*
X182149702Y-96274761D02*
X182399702Y-94274761D01*
X183161607Y-94274761D01*
X183340178Y-94370000D01*
X183423511Y-94465238D01*
X183494940Y-94655714D01*
X183459226Y-94941428D01*
X183340178Y-95131904D01*
X183233035Y-95227142D01*
X183030654Y-95322380D01*
X182268750Y-95322380D01*
X184149702Y-96274761D02*
X184316369Y-94941428D01*
X184399702Y-94274761D02*
X184292559Y-94370000D01*
X184375892Y-94465238D01*
X184483035Y-94370000D01*
X184399702Y-94274761D01*
X184375892Y-94465238D01*
X185018750Y-96179523D02*
X185292559Y-96274761D01*
X185768750Y-96274761D01*
X185971130Y-96179523D01*
X186078273Y-96084285D01*
X186197321Y-95893809D01*
X186221130Y-95703333D01*
X186149702Y-95512857D01*
X186066369Y-95417619D01*
X185887797Y-95322380D01*
X185518750Y-95227142D01*
X185340178Y-95131904D01*
X185256845Y-95036666D01*
X185185416Y-94846190D01*
X185209226Y-94655714D01*
X185328273Y-94465238D01*
X185435416Y-94370000D01*
X185637797Y-94274761D01*
X186113988Y-94274761D01*
X186387797Y-94370000D01*
X188173511Y-96084285D02*
X188066369Y-96179523D01*
X187768750Y-96274761D01*
X187578273Y-96274761D01*
X187304464Y-96179523D01*
X187137797Y-95989047D01*
X187066369Y-95798571D01*
X187018750Y-95417619D01*
X187054464Y-95131904D01*
X187197321Y-94750952D01*
X187316369Y-94560476D01*
X187530654Y-94370000D01*
X187828273Y-94274761D01*
X188018750Y-94274761D01*
X188292559Y-94370000D01*
X188375892Y-94465238D01*
X188923511Y-96179523D02*
X189197321Y-96274761D01*
X189673511Y-96274761D01*
X189875892Y-96179523D01*
X189983035Y-96084285D01*
X190102083Y-95893809D01*
X190125892Y-95703333D01*
X190054464Y-95512857D01*
X189971130Y-95417619D01*
X189792559Y-95322380D01*
X189423511Y-95227142D01*
X189244940Y-95131904D01*
X189161607Y-95036666D01*
X189090178Y-94846190D01*
X189113988Y-94655714D01*
X189233035Y-94465238D01*
X189340178Y-94370000D01*
X189542559Y-94274761D01*
X190018750Y-94274761D01*
X190292559Y-94370000D01*
X190911607Y-96274761D02*
X191161607Y-94274761D01*
D12*
X181000000Y-92900000D02*
X192520000Y-92900000D01*
X192520000Y-92900000D02*
X192520000Y-97860000D01*
X192520000Y-97860000D02*
X181000000Y-97860000D01*
X181000000Y-97860000D02*
X181000000Y-92900000D01*
X181305000Y-93210000D02*
X192195000Y-93210000D01*
X192195000Y-93210000D02*
X192195000Y-97530000D01*
X192195000Y-97530000D02*
X181305000Y-97530000D01*
X181305000Y-97530000D02*
X181305000Y-93210000D01*
D13*
X176466500Y-82994500D03*
D14*
X176466500Y-80454500D03*
X179006500Y-82994500D03*
X179006500Y-80454500D03*
X181546500Y-82994500D03*
X181546500Y-80454500D03*
X184086500Y-82994500D03*
X184086500Y-80454500D03*
X186626500Y-82994500D03*
X186626500Y-80454500D03*
X189166500Y-82994500D03*
X189166500Y-80454500D03*
X191706500Y-82994500D03*
X191706500Y-80454500D03*
X194246500Y-82994500D03*
X194246500Y-80454500D03*
X196786500Y-82994500D03*
X196786500Y-80454500D03*
X199326500Y-82994500D03*
X199326500Y-80454500D03*
X201866500Y-82994500D03*
X201866500Y-80454500D03*
X204406500Y-82994500D03*
X204406500Y-80454500D03*
X206946500Y-82994500D03*
X206946500Y-80454500D03*
X209486500Y-82994500D03*
X209486500Y-80454500D03*
X212026500Y-82994500D03*
X212026500Y-80454500D03*
X214566500Y-82994500D03*
X214566500Y-80454500D03*
X217106500Y-82994500D03*
X217106500Y-80454500D03*
X219646500Y-82994500D03*
X219646500Y-80454500D03*
X222186500Y-82994500D03*
X222186500Y-80454500D03*
X224726500Y-82994500D03*
X224726500Y-80454500D03*
X227266500Y-82994500D03*
X227266500Y-80454500D03*
X229806500Y-82994500D03*
X229806500Y-80454500D03*
X232346500Y-82994500D03*
X232346500Y-80454500D03*
X234886500Y-82994500D03*
X234886500Y-80454500D03*
X237426500Y-82994500D03*
X237426500Y-80454500D03*
D15*
X223620000Y-87630000D03*
X220850000Y-87630000D03*
X218080000Y-87630000D03*
X215310000Y-87630000D03*
X212540000Y-87630000D03*
X209770000Y-87630000D03*
X207000000Y-87630000D03*
X204230000Y-87630000D03*
X201460000Y-87630000D03*
X198690000Y-87630000D03*
X195920000Y-87630000D03*
X193150000Y-87630000D03*
X190380000Y-87630000D03*
X222235000Y-90470000D03*
X219465000Y-90470000D03*
X216695000Y-90470000D03*
X213925000Y-90470000D03*
X211155000Y-90470000D03*
X208385000Y-90470000D03*
X205615000Y-90470000D03*
X202845000Y-90470000D03*
X200075000Y-90470000D03*
X197305000Y-90470000D03*
X194535000Y-90470000D03*
X191765000Y-90470000D03*
D16*
X230520000Y-89050000D03*
X183480000Y-89050000D03*
D17*
X194564000Y-88519000D03*
D18*
X224619308Y-85214713D03*
X233550000Y-83950000D03*
X223017950Y-84430159D03*
X228193502Y-83950000D03*
X218470000Y-83672990D03*
X211387010Y-84484832D03*
X230028947Y-85465648D03*
X208730000Y-85670000D03*
X215740000Y-84360000D03*
X225760000Y-81720000D03*
X213012489Y-85489064D03*
X220930000Y-85750000D03*
X195060000Y-86650000D03*
X205192489Y-84485265D03*
X204320000Y-84430000D03*
X177980000Y-84280000D03*
X202550000Y-84480000D03*
X180570000Y-84330000D03*
X200150000Y-84430000D03*
X183202424Y-84102989D03*
X198480000Y-84380000D03*
X185893529Y-83978968D03*
X197420000Y-84550000D03*
X188130504Y-83651957D03*
X190580000Y-83950000D03*
X196710000Y-84234946D03*
X195173502Y-81827449D03*
X219236247Y-84548511D03*
X236200000Y-84020000D03*
X220571042Y-84385360D03*
X231254940Y-83921502D03*
D19*
X228443011Y-78443011D02*
X228300000Y-78300000D01*
X220137161Y-78300000D02*
X223500000Y-78300000D01*
D20*
X222186500Y-82994500D02*
X223288011Y-81892989D01*
D19*
X233523011Y-81817989D02*
X232346500Y-82994500D01*
D20*
X237426500Y-82994500D02*
X235988011Y-81556011D01*
D19*
X233500000Y-78300000D02*
X233523011Y-78323011D01*
X228300000Y-78300000D02*
X233500000Y-78300000D01*
X217106500Y-82994500D02*
X218283011Y-81817989D01*
X228443011Y-81817989D02*
X228443011Y-78443011D01*
D20*
X233546022Y-78300000D02*
X233523011Y-78323011D01*
D19*
X218283011Y-81817989D02*
X218283011Y-80154150D01*
D20*
X233523011Y-78323011D02*
X233700000Y-78300000D01*
D19*
X223500000Y-78300000D02*
X228300000Y-78300000D01*
X218283011Y-80154150D02*
X220137161Y-78300000D01*
X233523011Y-78323011D02*
X233523011Y-81817989D01*
X227266500Y-82994500D02*
X228443011Y-81817989D01*
D20*
X223288011Y-78511989D02*
X223500000Y-78300000D01*
X235988011Y-81556011D02*
X235988011Y-79998238D01*
X223288011Y-81892989D02*
X223288011Y-78511989D01*
X233700000Y-78300000D02*
X233546022Y-78300000D01*
X235988011Y-79998238D02*
X234312784Y-78323011D01*
X234312784Y-78323011D02*
X233523011Y-78323011D01*
D21*
X229135004Y-85052534D02*
X225135040Y-85052534D01*
X233101488Y-84398512D02*
X229789026Y-84398512D01*
X229789026Y-84398512D02*
X229135004Y-85052534D01*
X233550000Y-83950000D02*
X233101488Y-84398512D01*
X224972861Y-85214713D02*
X224619308Y-85214713D01*
X225135040Y-85052534D02*
X224972861Y-85214713D01*
X225378913Y-84398512D02*
X223403150Y-84398512D01*
X225568458Y-84208967D02*
X225378913Y-84398512D01*
X228193502Y-83950000D02*
X227934535Y-84208967D01*
X223371503Y-84430159D02*
X223017950Y-84430159D01*
X223403150Y-84398512D02*
X223371503Y-84430159D01*
X227934535Y-84208967D02*
X225568458Y-84208967D01*
X218071489Y-84071501D02*
X216589539Y-84071501D01*
X216589539Y-84071501D02*
X216341027Y-83822989D01*
X215571049Y-83822989D02*
X214909206Y-84484832D01*
X214909206Y-84484832D02*
X211387010Y-84484832D01*
X218470000Y-83672990D02*
X218071489Y-84071501D01*
X216341027Y-83822989D02*
X215571049Y-83822989D01*
X219980245Y-84962989D02*
X220015069Y-84997814D01*
X209437011Y-84962989D02*
X218944761Y-84962989D01*
X218944761Y-84962989D02*
X219007285Y-85025513D01*
X219007285Y-85025513D02*
X219465209Y-85025513D01*
X222276984Y-86021022D02*
X229473573Y-86021022D01*
X219465209Y-85025513D02*
X219527733Y-84962989D01*
X219527733Y-84962989D02*
X219980245Y-84962989D01*
X220206628Y-85189373D02*
X221445335Y-85189373D01*
X208730000Y-85670000D02*
X209437011Y-84962989D01*
X229473573Y-86021022D02*
X230028947Y-85465648D01*
X221445335Y-85189373D02*
X222276984Y-86021022D01*
X220015069Y-84997814D02*
X220206628Y-85189373D01*
X220498628Y-83736334D02*
X220582489Y-83736334D01*
X222703461Y-84071501D02*
X222897065Y-83877897D01*
X218978514Y-84071501D02*
X220163461Y-84071501D01*
X221669539Y-84071501D02*
X222703461Y-84071501D01*
X225206903Y-84071501D02*
X225546447Y-83731957D01*
D22*
X225546447Y-83731957D02*
X225778501Y-83499903D01*
D21*
X221584509Y-83986471D02*
X221669539Y-84071501D01*
D22*
X225778501Y-82092054D02*
X225760000Y-82073553D01*
D21*
X223913650Y-83877897D02*
X224107254Y-84071501D01*
D22*
X225778501Y-83499903D02*
X225778501Y-82092054D01*
D21*
X220163461Y-84071501D02*
X220498628Y-83736334D01*
X220832626Y-83986471D02*
X221584509Y-83986471D01*
X220582489Y-83736334D02*
X220832626Y-83986471D01*
X218440016Y-84609999D02*
X218978514Y-84071501D01*
D22*
X225760000Y-82073553D02*
X225760000Y-81720000D01*
D21*
X215740000Y-84360000D02*
X215989999Y-84609999D01*
X222897065Y-83877897D02*
X223913650Y-83877897D01*
X224107254Y-84071501D02*
X225206903Y-84071501D01*
X215989999Y-84609999D02*
X218440016Y-84609999D01*
X213273425Y-85750000D02*
X213012489Y-85489064D01*
X220930000Y-85750000D02*
X213273425Y-85750000D01*
X203330745Y-86347009D02*
X205192489Y-84485265D01*
X195362991Y-86347009D02*
X203330745Y-86347009D01*
X195060000Y-86650000D02*
X195362991Y-86347009D01*
X188748188Y-86019999D02*
X201715963Y-86019999D01*
X203305962Y-84430000D02*
X204320000Y-84430000D01*
X187838188Y-85110000D02*
X188748188Y-86019999D01*
X178810000Y-85110000D02*
X187838188Y-85110000D01*
X201715963Y-86019999D02*
X203305962Y-84430000D01*
X177980000Y-84280000D02*
X178810000Y-85110000D01*
X181022989Y-84782989D02*
X187973640Y-84782989D01*
X180570000Y-84330000D02*
X181022989Y-84782989D01*
X201337011Y-85692989D02*
X202550000Y-84480000D01*
X188883639Y-85692989D02*
X201337011Y-85692989D01*
X187973640Y-84782989D02*
X188883639Y-85692989D01*
X189019089Y-85365978D02*
X188109092Y-84455978D01*
X200150000Y-84430000D02*
X199214022Y-85365978D01*
X183555413Y-84455978D02*
X183202424Y-84102989D01*
X199214022Y-85365978D02*
X189019089Y-85365978D01*
X188109092Y-84455978D02*
X183555413Y-84455978D01*
X197821033Y-85038967D02*
X189154540Y-85038967D01*
X188244544Y-84128967D02*
X186043528Y-84128967D01*
X198480000Y-84380000D02*
X197821033Y-85038967D01*
X189154540Y-85038967D02*
X188244544Y-84128967D01*
X186043528Y-84128967D02*
X185893529Y-83978968D01*
X197258044Y-84711956D02*
X189289992Y-84711956D01*
X197420000Y-84550000D02*
X197258044Y-84711956D01*
X189289992Y-84711956D02*
X188229993Y-83651957D01*
X188229993Y-83651957D02*
X188130504Y-83651957D01*
X190580000Y-83950000D02*
X190864946Y-84234946D01*
X190864946Y-84234946D02*
X196710000Y-84234946D01*
X191706500Y-80454500D02*
X193079449Y-81827449D01*
X193079449Y-81827449D02*
X195173502Y-81827449D01*
X225663901Y-85379545D02*
X225351732Y-85691714D01*
X220028229Y-84548511D02*
X219236247Y-84548511D01*
X235494477Y-84725523D02*
X229934477Y-84725523D01*
X222480139Y-85691714D02*
X221650787Y-84862362D01*
X225351732Y-85691714D02*
X222480139Y-85691714D01*
X236200000Y-84020000D02*
X235494477Y-84725523D01*
X221650787Y-84862362D02*
X220342080Y-84862362D01*
X229280455Y-85379545D02*
X225663901Y-85379545D01*
X220342080Y-84862362D02*
X220028229Y-84548511D01*
X229934477Y-84725523D02*
X229280455Y-85379545D01*
X228246051Y-84725523D02*
X223737449Y-84725523D01*
X230751388Y-84071501D02*
X228900073Y-84071501D01*
X220953795Y-84414560D02*
X220924595Y-84385360D01*
X221665448Y-84414560D02*
X220953795Y-84414560D01*
X223555812Y-84907160D02*
X222158048Y-84907160D01*
X228900073Y-84071501D02*
X228246051Y-84725523D01*
X220924595Y-84385360D02*
X220571042Y-84385360D01*
X223737449Y-84725523D02*
X223555812Y-84907160D01*
X231254940Y-83921502D02*
X230901387Y-83921502D01*
X230901387Y-83921502D02*
X230751388Y-84071501D01*
X222158048Y-84907160D02*
X221665448Y-84414560D01*
D19*
X191766600Y-90470000D02*
X192866101Y-89370499D01*
X205769499Y-88330501D02*
X205769499Y-81631501D01*
X205769499Y-81631501D02*
X206946500Y-80454500D01*
X204729501Y-89370499D02*
X205769499Y-88330501D01*
X192866101Y-89370499D02*
X204729501Y-89370499D01*
G04 #@! TA.AperFunction,Conductor*
G36*
X187787263Y-82760502D02*
G01*
X187833756Y-82814158D01*
X187843860Y-82884432D01*
X187814366Y-82949012D01*
X187785164Y-82973817D01*
X187666575Y-83046774D01*
X187666571Y-83046777D01*
X187660570Y-83050469D01*
X187648707Y-83062086D01*
X187549686Y-83159056D01*
X187538990Y-83169530D01*
X187535179Y-83175443D01*
X187535176Y-83175447D01*
X187525312Y-83190754D01*
X187471598Y-83237180D01*
X187419400Y-83248500D01*
X186125157Y-83248500D01*
X186082890Y-83241199D01*
X186076456Y-83238908D01*
X186067829Y-83235836D01*
X185898858Y-83215688D01*
X185891855Y-83216424D01*
X185891854Y-83216424D01*
X185736630Y-83232738D01*
X185736626Y-83232739D01*
X185729622Y-83233475D01*
X185715032Y-83238442D01*
X185705232Y-83241778D01*
X185664627Y-83248500D01*
X176738615Y-83248500D01*
X176723376Y-83252975D01*
X176722171Y-83254365D01*
X176720500Y-83262048D01*
X176720500Y-84334384D01*
X176724975Y-84349623D01*
X176726365Y-84350828D01*
X176734048Y-84352499D01*
X177113832Y-84352499D01*
X177181953Y-84372501D01*
X177228446Y-84426157D01*
X177233390Y-84438727D01*
X177261748Y-84523973D01*
X177287094Y-84600167D01*
X177290741Y-84606189D01*
X177290742Y-84606191D01*
X177356715Y-84715124D01*
X177375246Y-84745723D01*
X177493455Y-84868132D01*
X177524981Y-84888762D01*
X177583076Y-84926778D01*
X177635846Y-84961310D01*
X177642450Y-84963766D01*
X177642452Y-84963767D01*
X177788731Y-85018168D01*
X177788733Y-85018169D01*
X177795341Y-85020626D01*
X177802326Y-85021558D01*
X177802330Y-85021559D01*
X177822710Y-85024278D01*
X177827770Y-85024953D01*
X177892648Y-85053788D01*
X177900202Y-85060751D01*
X178345685Y-85506234D01*
X178356552Y-85518625D01*
X178376013Y-85543987D01*
X178407925Y-85568474D01*
X178407928Y-85568477D01*
X178503124Y-85641524D01*
X178510754Y-85644684D01*
X178510755Y-85644685D01*
X178552708Y-85662062D01*
X178562901Y-85666284D01*
X178651150Y-85702838D01*
X178770115Y-85718500D01*
X178770120Y-85718500D01*
X178770129Y-85718501D01*
X178801812Y-85722672D01*
X178810000Y-85723750D01*
X178841693Y-85719578D01*
X178858136Y-85718500D01*
X187533948Y-85718500D01*
X187602069Y-85738502D01*
X187623043Y-85755404D01*
X188283876Y-86416236D01*
X188294743Y-86428628D01*
X188314201Y-86453986D01*
X188346113Y-86478473D01*
X188346117Y-86478477D01*
X188346147Y-86478500D01*
X188346152Y-86478504D01*
X188352369Y-86483274D01*
X188391281Y-86513132D01*
X188441313Y-86551523D01*
X188589338Y-86612837D01*
X188597109Y-86613860D01*
X188597523Y-86613915D01*
X188597525Y-86613915D01*
X188740001Y-86632672D01*
X188748189Y-86633750D01*
X188756377Y-86632672D01*
X188779886Y-86629577D01*
X188796332Y-86628499D01*
X189275403Y-86628499D01*
X189343524Y-86648501D01*
X189390017Y-86702157D01*
X189400121Y-86772431D01*
X189378616Y-86826770D01*
X189269541Y-86982545D01*
X189269540Y-86982547D01*
X189266384Y-86987054D01*
X189264061Y-86992036D01*
X189264058Y-86992041D01*
X189197508Y-87134759D01*
X189171656Y-87190199D01*
X189113643Y-87406707D01*
X189094107Y-87630000D01*
X189113643Y-87853293D01*
X189171656Y-88069801D01*
X189173978Y-88074782D01*
X189173979Y-88074783D01*
X189264058Y-88267959D01*
X189264061Y-88267964D01*
X189266384Y-88272946D01*
X189269540Y-88277453D01*
X189269541Y-88277455D01*
X189384313Y-88441366D01*
X189394949Y-88456556D01*
X189553444Y-88615051D01*
X189557952Y-88618208D01*
X189557955Y-88618210D01*
X189593452Y-88643065D01*
X189737053Y-88743616D01*
X189742035Y-88745939D01*
X189742040Y-88745942D01*
X189935217Y-88836021D01*
X189940199Y-88838344D01*
X189945507Y-88839766D01*
X189945509Y-88839767D01*
X190151392Y-88894933D01*
X190151394Y-88894933D01*
X190156707Y-88896357D01*
X190380000Y-88915893D01*
X190603293Y-88896357D01*
X190608606Y-88894933D01*
X190608608Y-88894933D01*
X190814491Y-88839767D01*
X190814493Y-88839766D01*
X190819801Y-88838344D01*
X190824783Y-88836021D01*
X191017960Y-88745942D01*
X191017965Y-88745939D01*
X191022947Y-88743616D01*
X191166548Y-88643065D01*
X191202045Y-88618210D01*
X191202048Y-88618208D01*
X191206556Y-88615051D01*
X191365051Y-88456556D01*
X191375688Y-88441366D01*
X191490459Y-88277455D01*
X191490460Y-88277453D01*
X191493616Y-88272946D01*
X191495939Y-88267964D01*
X191495942Y-88267959D01*
X191586021Y-88074783D01*
X191586022Y-88074782D01*
X191588344Y-88069801D01*
X191643293Y-87864728D01*
X191680245Y-87804105D01*
X191744105Y-87773084D01*
X191814600Y-87781512D01*
X191869347Y-87826715D01*
X191886707Y-87864728D01*
X191941656Y-88069801D01*
X191943978Y-88074782D01*
X191943979Y-88074783D01*
X192034058Y-88267959D01*
X192034061Y-88267964D01*
X192036384Y-88272946D01*
X192039540Y-88277453D01*
X192039541Y-88277455D01*
X192154313Y-88441366D01*
X192164949Y-88456556D01*
X192323444Y-88615051D01*
X192327952Y-88618208D01*
X192327955Y-88618210D01*
X192371678Y-88648825D01*
X192416006Y-88704282D01*
X192423315Y-88774902D01*
X192393483Y-88835857D01*
X192352666Y-88881669D01*
X192347685Y-88886945D01*
X192069099Y-89165531D01*
X192006787Y-89199557D01*
X191969022Y-89201957D01*
X191941591Y-89199557D01*
X191765000Y-89184107D01*
X191541707Y-89203643D01*
X191536394Y-89205067D01*
X191536392Y-89205067D01*
X191330509Y-89260233D01*
X191330507Y-89260234D01*
X191325199Y-89261656D01*
X191320218Y-89263978D01*
X191320217Y-89263979D01*
X191127041Y-89354058D01*
X191127036Y-89354061D01*
X191122054Y-89356384D01*
X191117547Y-89359540D01*
X191117545Y-89359541D01*
X190942955Y-89481790D01*
X190942952Y-89481792D01*
X190938444Y-89484949D01*
X190779949Y-89643444D01*
X190776792Y-89647952D01*
X190776790Y-89647955D01*
X190686059Y-89777533D01*
X190651384Y-89827054D01*
X190649061Y-89832036D01*
X190649058Y-89832041D01*
X190558979Y-90025217D01*
X190556656Y-90030199D01*
X190555234Y-90035507D01*
X190555233Y-90035509D01*
X190520306Y-90165859D01*
X190498643Y-90246707D01*
X190479107Y-90470000D01*
X190498643Y-90693293D01*
X190500067Y-90698606D01*
X190500067Y-90698608D01*
X190536490Y-90834539D01*
X190556656Y-90909801D01*
X190558978Y-90914782D01*
X190558979Y-90914783D01*
X190649058Y-91107959D01*
X190649061Y-91107964D01*
X190651384Y-91112946D01*
X190654540Y-91117453D01*
X190654541Y-91117455D01*
X190771432Y-91284392D01*
X190779949Y-91296556D01*
X190938444Y-91455051D01*
X190942952Y-91458208D01*
X190942955Y-91458210D01*
X191019256Y-91511636D01*
X191122053Y-91583616D01*
X191127035Y-91585939D01*
X191127040Y-91585942D01*
X191319205Y-91675549D01*
X191325199Y-91678344D01*
X191330507Y-91679766D01*
X191330509Y-91679767D01*
X191536392Y-91734933D01*
X191536394Y-91734933D01*
X191541707Y-91736357D01*
X191765000Y-91755893D01*
X191988293Y-91736357D01*
X191993606Y-91734933D01*
X191993608Y-91734933D01*
X192199491Y-91679767D01*
X192199493Y-91679766D01*
X192204801Y-91678344D01*
X192210795Y-91675549D01*
X192402960Y-91585942D01*
X192402965Y-91585939D01*
X192407947Y-91583616D01*
X192475498Y-91536316D01*
X193833238Y-91536316D01*
X193842532Y-91548330D01*
X193887796Y-91580024D01*
X193897291Y-91585507D01*
X194090388Y-91675549D01*
X194100680Y-91679295D01*
X194306479Y-91734439D01*
X194317274Y-91736342D01*
X194529525Y-91754912D01*
X194540475Y-91754912D01*
X194752726Y-91736342D01*
X194763521Y-91734439D01*
X194969320Y-91679295D01*
X194979612Y-91675549D01*
X195172709Y-91585507D01*
X195182204Y-91580024D01*
X195228302Y-91547746D01*
X195236678Y-91537267D01*
X195229611Y-91523822D01*
X194547811Y-90842021D01*
X194533868Y-90834408D01*
X194532034Y-90834539D01*
X194525420Y-90838790D01*
X193839665Y-91524546D01*
X193833238Y-91536316D01*
X192475498Y-91536316D01*
X192510744Y-91511636D01*
X192587045Y-91458210D01*
X192587048Y-91458208D01*
X192591556Y-91455051D01*
X192750051Y-91296556D01*
X192758569Y-91284392D01*
X192875459Y-91117455D01*
X192875460Y-91117453D01*
X192878616Y-91112946D01*
X192880939Y-91107964D01*
X192880942Y-91107959D01*
X192971021Y-90914783D01*
X192971022Y-90914782D01*
X192973344Y-90909801D01*
X192991506Y-90842021D01*
X193028552Y-90703763D01*
X193065504Y-90643140D01*
X193129365Y-90612119D01*
X193199859Y-90620547D01*
X193254606Y-90665750D01*
X193271966Y-90703763D01*
X193325705Y-90904320D01*
X193329451Y-90914612D01*
X193419496Y-91107714D01*
X193424974Y-91117200D01*
X193457254Y-91163302D01*
X193467732Y-91171677D01*
X193481180Y-91164609D01*
X194445905Y-90199885D01*
X194508217Y-90165859D01*
X194579033Y-90170924D01*
X194624095Y-90199885D01*
X195589542Y-91165331D01*
X195601317Y-91171761D01*
X195613330Y-91162467D01*
X195645026Y-91117200D01*
X195650504Y-91107714D01*
X195740549Y-90914612D01*
X195744295Y-90904320D01*
X195798034Y-90703763D01*
X195834986Y-90643140D01*
X195898846Y-90612119D01*
X195969341Y-90620547D01*
X196024088Y-90665750D01*
X196041448Y-90703763D01*
X196078494Y-90842021D01*
X196096656Y-90909801D01*
X196098978Y-90914782D01*
X196098979Y-90914783D01*
X196189058Y-91107959D01*
X196189061Y-91107964D01*
X196191384Y-91112946D01*
X196194540Y-91117453D01*
X196194541Y-91117455D01*
X196311432Y-91284392D01*
X196319949Y-91296556D01*
X196478444Y-91455051D01*
X196482952Y-91458208D01*
X196482955Y-91458210D01*
X196559256Y-91511636D01*
X196662053Y-91583616D01*
X196667035Y-91585939D01*
X196667040Y-91585942D01*
X196859205Y-91675549D01*
X196865199Y-91678344D01*
X196870507Y-91679766D01*
X196870509Y-91679767D01*
X197076392Y-91734933D01*
X197076394Y-91734933D01*
X197081707Y-91736357D01*
X197305000Y-91755893D01*
X197528293Y-91736357D01*
X197533606Y-91734933D01*
X197533608Y-91734933D01*
X197739491Y-91679767D01*
X197739493Y-91679766D01*
X197744801Y-91678344D01*
X197750795Y-91675549D01*
X197942960Y-91585942D01*
X197942965Y-91585939D01*
X197947947Y-91583616D01*
X198050744Y-91511636D01*
X198127045Y-91458210D01*
X198127048Y-91458208D01*
X198131556Y-91455051D01*
X198290051Y-91296556D01*
X198298569Y-91284392D01*
X198415459Y-91117455D01*
X198415460Y-91117453D01*
X198418616Y-91112946D01*
X198420939Y-91107964D01*
X198420942Y-91107959D01*
X198511021Y-90914783D01*
X198511022Y-90914782D01*
X198513344Y-90909801D01*
X198533546Y-90834408D01*
X198568293Y-90704728D01*
X198605245Y-90644105D01*
X198669105Y-90613084D01*
X198739600Y-90621512D01*
X198794347Y-90666715D01*
X198811707Y-90704728D01*
X198846455Y-90834408D01*
X198866656Y-90909801D01*
X198868978Y-90914782D01*
X198868979Y-90914783D01*
X198959058Y-91107959D01*
X198959061Y-91107964D01*
X198961384Y-91112946D01*
X198964540Y-91117453D01*
X198964541Y-91117455D01*
X199081432Y-91284392D01*
X199089949Y-91296556D01*
X199248444Y-91455051D01*
X199252952Y-91458208D01*
X199252955Y-91458210D01*
X199329256Y-91511636D01*
X199432053Y-91583616D01*
X199437035Y-91585939D01*
X199437040Y-91585942D01*
X199629205Y-91675549D01*
X199635199Y-91678344D01*
X199640507Y-91679766D01*
X199640509Y-91679767D01*
X199846392Y-91734933D01*
X199846394Y-91734933D01*
X199851707Y-91736357D01*
X200075000Y-91755893D01*
X200298293Y-91736357D01*
X200303606Y-91734933D01*
X200303608Y-91734933D01*
X200509491Y-91679767D01*
X200509493Y-91679766D01*
X200514801Y-91678344D01*
X200520795Y-91675549D01*
X200712960Y-91585942D01*
X200712965Y-91585939D01*
X200717947Y-91583616D01*
X200820744Y-91511636D01*
X200897045Y-91458210D01*
X200897048Y-91458208D01*
X200901556Y-91455051D01*
X201060051Y-91296556D01*
X201068569Y-91284392D01*
X201185459Y-91117455D01*
X201185460Y-91117453D01*
X201188616Y-91112946D01*
X201190939Y-91107964D01*
X201190942Y-91107959D01*
X201281021Y-90914783D01*
X201281022Y-90914782D01*
X201283344Y-90909801D01*
X201303546Y-90834408D01*
X201338293Y-90704728D01*
X201375245Y-90644105D01*
X201439105Y-90613084D01*
X201509600Y-90621512D01*
X201564347Y-90666715D01*
X201581707Y-90704728D01*
X201616455Y-90834408D01*
X201636656Y-90909801D01*
X201638978Y-90914782D01*
X201638979Y-90914783D01*
X201729058Y-91107959D01*
X201729061Y-91107964D01*
X201731384Y-91112946D01*
X201734540Y-91117453D01*
X201734541Y-91117455D01*
X201851432Y-91284392D01*
X201859949Y-91296556D01*
X202018444Y-91455051D01*
X202022952Y-91458208D01*
X202022955Y-91458210D01*
X202099256Y-91511636D01*
X202202053Y-91583616D01*
X202207035Y-91585939D01*
X202207040Y-91585942D01*
X202399205Y-91675549D01*
X202405199Y-91678344D01*
X202410507Y-91679766D01*
X202410509Y-91679767D01*
X202616392Y-91734933D01*
X202616394Y-91734933D01*
X202621707Y-91736357D01*
X202845000Y-91755893D01*
X203068293Y-91736357D01*
X203073606Y-91734933D01*
X203073608Y-91734933D01*
X203279491Y-91679767D01*
X203279493Y-91679766D01*
X203284801Y-91678344D01*
X203290795Y-91675549D01*
X203482960Y-91585942D01*
X203482965Y-91585939D01*
X203487947Y-91583616D01*
X203590744Y-91511636D01*
X203667045Y-91458210D01*
X203667048Y-91458208D01*
X203671556Y-91455051D01*
X203830051Y-91296556D01*
X203838569Y-91284392D01*
X203955459Y-91117455D01*
X203955460Y-91117453D01*
X203958616Y-91112946D01*
X203960939Y-91107964D01*
X203960942Y-91107959D01*
X204051021Y-90914783D01*
X204051022Y-90914782D01*
X204053344Y-90909801D01*
X204073546Y-90834408D01*
X204108293Y-90704728D01*
X204145245Y-90644105D01*
X204209105Y-90613084D01*
X204279600Y-90621512D01*
X204334347Y-90666715D01*
X204351707Y-90704728D01*
X204386455Y-90834408D01*
X204406656Y-90909801D01*
X204408978Y-90914782D01*
X204408979Y-90914783D01*
X204499058Y-91107959D01*
X204499061Y-91107964D01*
X204501384Y-91112946D01*
X204504540Y-91117453D01*
X204504541Y-91117455D01*
X204621432Y-91284392D01*
X204629949Y-91296556D01*
X204788444Y-91455051D01*
X204792952Y-91458208D01*
X204792955Y-91458210D01*
X204869256Y-91511636D01*
X204972053Y-91583616D01*
X204977035Y-91585939D01*
X204977040Y-91585942D01*
X205169205Y-91675549D01*
X205175199Y-91678344D01*
X205180507Y-91679766D01*
X205180509Y-91679767D01*
X205386392Y-91734933D01*
X205386394Y-91734933D01*
X205391707Y-91736357D01*
X205615000Y-91755893D01*
X205838293Y-91736357D01*
X205843606Y-91734933D01*
X205843608Y-91734933D01*
X206049491Y-91679767D01*
X206049493Y-91679766D01*
X206054801Y-91678344D01*
X206060795Y-91675549D01*
X206252960Y-91585942D01*
X206252965Y-91585939D01*
X206257947Y-91583616D01*
X206360744Y-91511636D01*
X206437045Y-91458210D01*
X206437048Y-91458208D01*
X206441556Y-91455051D01*
X206600051Y-91296556D01*
X206608569Y-91284392D01*
X206725459Y-91117455D01*
X206725460Y-91117453D01*
X206728616Y-91112946D01*
X206730939Y-91107964D01*
X206730942Y-91107959D01*
X206821021Y-90914783D01*
X206821022Y-90914782D01*
X206823344Y-90909801D01*
X206843546Y-90834408D01*
X206878293Y-90704728D01*
X206915245Y-90644105D01*
X206979105Y-90613084D01*
X207049600Y-90621512D01*
X207104347Y-90666715D01*
X207121707Y-90704728D01*
X207156455Y-90834408D01*
X207176656Y-90909801D01*
X207178978Y-90914782D01*
X207178979Y-90914783D01*
X207269058Y-91107959D01*
X207269061Y-91107964D01*
X207271384Y-91112946D01*
X207274540Y-91117453D01*
X207274541Y-91117455D01*
X207391432Y-91284392D01*
X207399949Y-91296556D01*
X207558444Y-91455051D01*
X207562952Y-91458208D01*
X207562955Y-91458210D01*
X207639256Y-91511636D01*
X207742053Y-91583616D01*
X207747035Y-91585939D01*
X207747040Y-91585942D01*
X207939205Y-91675549D01*
X207945199Y-91678344D01*
X207950507Y-91679766D01*
X207950509Y-91679767D01*
X208156392Y-91734933D01*
X208156394Y-91734933D01*
X208161707Y-91736357D01*
X208385000Y-91755893D01*
X208608293Y-91736357D01*
X208613606Y-91734933D01*
X208613608Y-91734933D01*
X208819491Y-91679767D01*
X208819493Y-91679766D01*
X208824801Y-91678344D01*
X208830795Y-91675549D01*
X209022960Y-91585942D01*
X209022965Y-91585939D01*
X209027947Y-91583616D01*
X209095498Y-91536316D01*
X210453238Y-91536316D01*
X210462532Y-91548330D01*
X210507796Y-91580024D01*
X210517291Y-91585507D01*
X210710388Y-91675549D01*
X210720680Y-91679295D01*
X210926479Y-91734439D01*
X210937274Y-91736342D01*
X211149525Y-91754912D01*
X211160475Y-91754912D01*
X211372726Y-91736342D01*
X211383521Y-91734439D01*
X211589320Y-91679295D01*
X211599612Y-91675549D01*
X211792709Y-91585507D01*
X211802204Y-91580024D01*
X211848302Y-91547746D01*
X211856678Y-91537267D01*
X211849611Y-91523822D01*
X211167811Y-90842021D01*
X211153868Y-90834408D01*
X211152034Y-90834539D01*
X211145420Y-90838790D01*
X210459665Y-91524546D01*
X210453238Y-91536316D01*
X209095498Y-91536316D01*
X209130744Y-91511636D01*
X209207045Y-91458210D01*
X209207048Y-91458208D01*
X209211556Y-91455051D01*
X209370051Y-91296556D01*
X209378569Y-91284392D01*
X209495459Y-91117455D01*
X209495460Y-91117453D01*
X209498616Y-91112946D01*
X209500939Y-91107964D01*
X209500942Y-91107959D01*
X209591021Y-90914783D01*
X209591022Y-90914782D01*
X209593344Y-90909801D01*
X209611506Y-90842021D01*
X209648552Y-90703763D01*
X209685504Y-90643140D01*
X209749365Y-90612119D01*
X209819859Y-90620547D01*
X209874606Y-90665750D01*
X209891966Y-90703763D01*
X209945705Y-90904320D01*
X209949451Y-90914612D01*
X210039496Y-91107714D01*
X210044974Y-91117200D01*
X210077254Y-91163302D01*
X210087733Y-91171678D01*
X210101177Y-91164612D01*
X210782979Y-90482811D01*
X210789356Y-90471132D01*
X211519408Y-90471132D01*
X211519539Y-90472966D01*
X211523790Y-90479580D01*
X212209546Y-91165335D01*
X212221316Y-91171762D01*
X212233330Y-91162467D01*
X212265026Y-91117200D01*
X212270504Y-91107714D01*
X212360549Y-90914612D01*
X212364295Y-90904320D01*
X212418034Y-90703763D01*
X212454986Y-90643140D01*
X212518846Y-90612119D01*
X212589341Y-90620547D01*
X212644088Y-90665750D01*
X212661448Y-90703763D01*
X212698494Y-90842021D01*
X212716656Y-90909801D01*
X212718978Y-90914782D01*
X212718979Y-90914783D01*
X212809058Y-91107959D01*
X212809061Y-91107964D01*
X212811384Y-91112946D01*
X212814540Y-91117453D01*
X212814541Y-91117455D01*
X212931432Y-91284392D01*
X212939949Y-91296556D01*
X213098444Y-91455051D01*
X213102952Y-91458208D01*
X213102955Y-91458210D01*
X213179256Y-91511636D01*
X213282053Y-91583616D01*
X213287035Y-91585939D01*
X213287040Y-91585942D01*
X213479205Y-91675549D01*
X213485199Y-91678344D01*
X213490507Y-91679766D01*
X213490509Y-91679767D01*
X213696392Y-91734933D01*
X213696394Y-91734933D01*
X213701707Y-91736357D01*
X213925000Y-91755893D01*
X214148293Y-91736357D01*
X214153606Y-91734933D01*
X214153608Y-91734933D01*
X214359491Y-91679767D01*
X214359493Y-91679766D01*
X214364801Y-91678344D01*
X214370795Y-91675549D01*
X214562960Y-91585942D01*
X214562965Y-91585939D01*
X214567947Y-91583616D01*
X214635498Y-91536316D01*
X215993238Y-91536316D01*
X216002532Y-91548330D01*
X216047796Y-91580024D01*
X216057291Y-91585507D01*
X216250388Y-91675549D01*
X216260680Y-91679295D01*
X216466479Y-91734439D01*
X216477274Y-91736342D01*
X216689525Y-91754912D01*
X216700475Y-91754912D01*
X216912726Y-91736342D01*
X216923521Y-91734439D01*
X217129320Y-91679295D01*
X217139612Y-91675549D01*
X217332709Y-91585507D01*
X217342204Y-91580024D01*
X217388302Y-91547746D01*
X217396678Y-91537267D01*
X217389611Y-91523822D01*
X216707811Y-90842021D01*
X216693868Y-90834408D01*
X216692034Y-90834539D01*
X216685420Y-90838790D01*
X215999665Y-91524546D01*
X215993238Y-91536316D01*
X214635498Y-91536316D01*
X214670744Y-91511636D01*
X214747045Y-91458210D01*
X214747048Y-91458208D01*
X214751556Y-91455051D01*
X214910051Y-91296556D01*
X214918569Y-91284392D01*
X215035459Y-91117455D01*
X215035460Y-91117453D01*
X215038616Y-91112946D01*
X215040939Y-91107964D01*
X215040942Y-91107959D01*
X215131021Y-90914783D01*
X215131022Y-90914782D01*
X215133344Y-90909801D01*
X215151506Y-90842021D01*
X215188552Y-90703763D01*
X215225504Y-90643140D01*
X215289365Y-90612119D01*
X215359859Y-90620547D01*
X215414606Y-90665750D01*
X215431966Y-90703763D01*
X215485705Y-90904320D01*
X215489451Y-90914612D01*
X215579496Y-91107714D01*
X215584974Y-91117200D01*
X215617254Y-91163302D01*
X215627733Y-91171678D01*
X215641177Y-91164612D01*
X216322979Y-90482811D01*
X216329356Y-90471132D01*
X217059408Y-90471132D01*
X217059539Y-90472966D01*
X217063790Y-90479580D01*
X217749546Y-91165335D01*
X217761316Y-91171762D01*
X217773330Y-91162467D01*
X217805026Y-91117200D01*
X217810504Y-91107714D01*
X217900549Y-90914612D01*
X217904295Y-90904320D01*
X217958034Y-90703763D01*
X217994986Y-90643140D01*
X218058846Y-90612119D01*
X218129341Y-90620547D01*
X218184088Y-90665750D01*
X218201448Y-90703763D01*
X218238494Y-90842021D01*
X218256656Y-90909801D01*
X218258978Y-90914782D01*
X218258979Y-90914783D01*
X218349058Y-91107959D01*
X218349061Y-91107964D01*
X218351384Y-91112946D01*
X218354540Y-91117453D01*
X218354541Y-91117455D01*
X218471432Y-91284392D01*
X218479949Y-91296556D01*
X218638444Y-91455051D01*
X218642952Y-91458208D01*
X218642955Y-91458210D01*
X218719256Y-91511636D01*
X218822053Y-91583616D01*
X218827035Y-91585939D01*
X218827040Y-91585942D01*
X219019205Y-91675549D01*
X219025199Y-91678344D01*
X219030507Y-91679766D01*
X219030509Y-91679767D01*
X219236392Y-91734933D01*
X219236394Y-91734933D01*
X219241707Y-91736357D01*
X219465000Y-91755893D01*
X219688293Y-91736357D01*
X219693606Y-91734933D01*
X219693608Y-91734933D01*
X219899491Y-91679767D01*
X219899493Y-91679766D01*
X219904801Y-91678344D01*
X219910795Y-91675549D01*
X220102960Y-91585942D01*
X220102965Y-91585939D01*
X220107947Y-91583616D01*
X220175498Y-91536316D01*
X221533238Y-91536316D01*
X221542532Y-91548330D01*
X221587796Y-91580024D01*
X221597291Y-91585507D01*
X221790388Y-91675549D01*
X221800680Y-91679295D01*
X222006479Y-91734439D01*
X222017274Y-91736342D01*
X222229525Y-91754912D01*
X222240475Y-91754912D01*
X222452726Y-91736342D01*
X222463521Y-91734439D01*
X222669320Y-91679295D01*
X222679612Y-91675549D01*
X222872709Y-91585507D01*
X222882204Y-91580024D01*
X222928302Y-91547746D01*
X222936678Y-91537267D01*
X222929611Y-91523822D01*
X222702605Y-91296816D01*
X228638724Y-91296816D01*
X228638742Y-91297068D01*
X228644658Y-91305814D01*
X228669970Y-91328846D01*
X228675592Y-91333399D01*
X228944148Y-91526376D01*
X228950279Y-91530266D01*
X229239223Y-91691090D01*
X229245743Y-91694242D01*
X229551268Y-91820795D01*
X229558119Y-91823181D01*
X229876147Y-91913773D01*
X229883236Y-91915358D01*
X230209580Y-91968799D01*
X230216786Y-91969556D01*
X230547113Y-91985134D01*
X230554363Y-91985058D01*
X230884280Y-91962567D01*
X230891489Y-91961656D01*
X231216642Y-91901393D01*
X231223672Y-91899666D01*
X231539758Y-91802424D01*
X231546536Y-91799904D01*
X231849363Y-91666972D01*
X231855798Y-91663693D01*
X232141322Y-91496847D01*
X232147371Y-91492828D01*
X232393473Y-91308049D01*
X232401927Y-91296722D01*
X232395182Y-91284392D01*
X230532812Y-89422022D01*
X230518868Y-89414408D01*
X230517035Y-89414539D01*
X230510420Y-89418790D01*
X228646338Y-91282872D01*
X228638724Y-91296816D01*
X222702605Y-91296816D01*
X222247811Y-90842021D01*
X222233868Y-90834408D01*
X222232034Y-90834539D01*
X222225420Y-90838790D01*
X221539665Y-91524546D01*
X221533238Y-91536316D01*
X220175498Y-91536316D01*
X220210744Y-91511636D01*
X220287045Y-91458210D01*
X220287048Y-91458208D01*
X220291556Y-91455051D01*
X220450051Y-91296556D01*
X220458569Y-91284392D01*
X220575459Y-91117455D01*
X220575460Y-91117453D01*
X220578616Y-91112946D01*
X220580939Y-91107964D01*
X220580942Y-91107959D01*
X220671021Y-90914783D01*
X220671022Y-90914782D01*
X220673344Y-90909801D01*
X220691506Y-90842021D01*
X220728552Y-90703763D01*
X220765504Y-90643140D01*
X220829365Y-90612119D01*
X220899859Y-90620547D01*
X220954606Y-90665750D01*
X220971966Y-90703763D01*
X221025705Y-90904320D01*
X221029451Y-90914612D01*
X221119496Y-91107714D01*
X221124974Y-91117200D01*
X221157254Y-91163302D01*
X221167733Y-91171678D01*
X221181177Y-91164612D01*
X221862979Y-90482811D01*
X221869356Y-90471132D01*
X222599408Y-90471132D01*
X222599539Y-90472966D01*
X222603790Y-90479580D01*
X223289546Y-91165335D01*
X223301316Y-91171762D01*
X223313330Y-91162467D01*
X223345026Y-91117200D01*
X223350504Y-91107714D01*
X223440549Y-90914612D01*
X223444295Y-90904320D01*
X223499439Y-90698521D01*
X223501342Y-90687726D01*
X223519912Y-90475475D01*
X223519912Y-90464525D01*
X223501342Y-90252274D01*
X223499439Y-90241479D01*
X223444295Y-90035680D01*
X223440549Y-90025388D01*
X223350504Y-89832286D01*
X223345026Y-89822800D01*
X223312746Y-89776698D01*
X223302267Y-89768322D01*
X223288823Y-89775388D01*
X222607021Y-90457189D01*
X222599408Y-90471132D01*
X221869356Y-90471132D01*
X221870592Y-90468868D01*
X221870461Y-90467034D01*
X221866210Y-90460420D01*
X221180454Y-89774665D01*
X221168684Y-89768238D01*
X221156670Y-89777533D01*
X221124974Y-89822800D01*
X221119496Y-89832286D01*
X221029451Y-90025388D01*
X221025705Y-90035680D01*
X220971966Y-90236237D01*
X220935014Y-90296860D01*
X220871154Y-90327881D01*
X220800659Y-90319453D01*
X220745912Y-90274250D01*
X220728552Y-90236237D01*
X220674767Y-90035509D01*
X220674766Y-90035507D01*
X220673344Y-90030199D01*
X220671021Y-90025217D01*
X220580942Y-89832041D01*
X220580939Y-89832036D01*
X220578616Y-89827054D01*
X220543941Y-89777533D01*
X220453210Y-89647955D01*
X220453208Y-89647952D01*
X220450051Y-89643444D01*
X220291556Y-89484949D01*
X220174140Y-89402733D01*
X221533322Y-89402733D01*
X221540388Y-89416177D01*
X222222189Y-90097979D01*
X222236132Y-90105592D01*
X222237966Y-90105461D01*
X222244580Y-90101210D01*
X222930335Y-89415454D01*
X222936762Y-89403684D01*
X222927468Y-89391670D01*
X222882204Y-89359976D01*
X222872709Y-89354493D01*
X222679612Y-89264451D01*
X222669320Y-89260705D01*
X222463521Y-89205561D01*
X222452726Y-89203658D01*
X222240475Y-89185088D01*
X222229525Y-89185088D01*
X222017274Y-89203658D01*
X222006479Y-89205561D01*
X221800680Y-89260705D01*
X221790388Y-89264451D01*
X221597286Y-89354496D01*
X221587800Y-89359974D01*
X221541698Y-89392254D01*
X221533322Y-89402733D01*
X220174140Y-89402733D01*
X220107947Y-89356384D01*
X220102965Y-89354061D01*
X220102960Y-89354058D01*
X219909783Y-89263979D01*
X219909782Y-89263979D01*
X219904801Y-89261656D01*
X219899493Y-89260234D01*
X219899491Y-89260233D01*
X219693608Y-89205067D01*
X219693606Y-89205067D01*
X219688293Y-89203643D01*
X219465000Y-89184107D01*
X219241707Y-89203643D01*
X219236394Y-89205067D01*
X219236392Y-89205067D01*
X219030509Y-89260233D01*
X219030507Y-89260234D01*
X219025199Y-89261656D01*
X219020218Y-89263978D01*
X219020217Y-89263979D01*
X218827041Y-89354058D01*
X218827036Y-89354061D01*
X218822054Y-89356384D01*
X218817547Y-89359540D01*
X218817545Y-89359541D01*
X218642955Y-89481790D01*
X218642952Y-89481792D01*
X218638444Y-89484949D01*
X218479949Y-89643444D01*
X218476792Y-89647952D01*
X218476790Y-89647955D01*
X218386059Y-89777533D01*
X218351384Y-89827054D01*
X218349061Y-89832036D01*
X218349058Y-89832041D01*
X218258979Y-90025217D01*
X218256656Y-90030199D01*
X218255234Y-90035507D01*
X218255233Y-90035509D01*
X218201448Y-90236237D01*
X218164496Y-90296860D01*
X218100635Y-90327881D01*
X218030141Y-90319453D01*
X217975394Y-90274250D01*
X217958034Y-90236237D01*
X217904295Y-90035680D01*
X217900549Y-90025388D01*
X217810504Y-89832286D01*
X217805026Y-89822800D01*
X217772746Y-89776698D01*
X217762267Y-89768322D01*
X217748823Y-89775388D01*
X217067021Y-90457189D01*
X217059408Y-90471132D01*
X216329356Y-90471132D01*
X216330592Y-90468868D01*
X216330461Y-90467034D01*
X216326210Y-90460420D01*
X215640454Y-89774665D01*
X215628684Y-89768238D01*
X215616670Y-89777533D01*
X215584974Y-89822800D01*
X215579496Y-89832286D01*
X215489451Y-90025388D01*
X215485705Y-90035680D01*
X215431966Y-90236237D01*
X215395014Y-90296860D01*
X215331154Y-90327881D01*
X215260659Y-90319453D01*
X215205912Y-90274250D01*
X215188552Y-90236237D01*
X215134767Y-90035509D01*
X215134766Y-90035507D01*
X215133344Y-90030199D01*
X215131021Y-90025217D01*
X215040942Y-89832041D01*
X215040939Y-89832036D01*
X215038616Y-89827054D01*
X215003941Y-89777533D01*
X214913210Y-89647955D01*
X214913208Y-89647952D01*
X214910051Y-89643444D01*
X214751556Y-89484949D01*
X214634140Y-89402733D01*
X215993322Y-89402733D01*
X216000388Y-89416177D01*
X216682189Y-90097979D01*
X216696132Y-90105592D01*
X216697966Y-90105461D01*
X216704580Y-90101210D01*
X217390335Y-89415454D01*
X217396762Y-89403684D01*
X217387468Y-89391670D01*
X217342204Y-89359976D01*
X217332709Y-89354493D01*
X217139612Y-89264451D01*
X217129320Y-89260705D01*
X216923521Y-89205561D01*
X216912726Y-89203658D01*
X216700475Y-89185088D01*
X216689525Y-89185088D01*
X216477274Y-89203658D01*
X216466479Y-89205561D01*
X216260680Y-89260705D01*
X216250388Y-89264451D01*
X216057286Y-89354496D01*
X216047800Y-89359974D01*
X216001698Y-89392254D01*
X215993322Y-89402733D01*
X214634140Y-89402733D01*
X214567947Y-89356384D01*
X214562965Y-89354061D01*
X214562960Y-89354058D01*
X214369783Y-89263979D01*
X214369782Y-89263979D01*
X214364801Y-89261656D01*
X214359493Y-89260234D01*
X214359491Y-89260233D01*
X214153608Y-89205067D01*
X214153606Y-89205067D01*
X214148293Y-89203643D01*
X213925000Y-89184107D01*
X213701707Y-89203643D01*
X213696394Y-89205067D01*
X213696392Y-89205067D01*
X213490509Y-89260233D01*
X213490507Y-89260234D01*
X213485199Y-89261656D01*
X213480218Y-89263978D01*
X213480217Y-89263979D01*
X213287041Y-89354058D01*
X213287036Y-89354061D01*
X213282054Y-89356384D01*
X213277547Y-89359540D01*
X213277545Y-89359541D01*
X213102955Y-89481790D01*
X213102952Y-89481792D01*
X213098444Y-89484949D01*
X212939949Y-89643444D01*
X212936792Y-89647952D01*
X212936790Y-89647955D01*
X212846059Y-89777533D01*
X212811384Y-89827054D01*
X212809061Y-89832036D01*
X212809058Y-89832041D01*
X212718979Y-90025217D01*
X212716656Y-90030199D01*
X212715234Y-90035507D01*
X212715233Y-90035509D01*
X212661448Y-90236237D01*
X212624496Y-90296860D01*
X212560635Y-90327881D01*
X212490141Y-90319453D01*
X212435394Y-90274250D01*
X212418034Y-90236237D01*
X212364295Y-90035680D01*
X212360549Y-90025388D01*
X212270504Y-89832286D01*
X212265026Y-89822800D01*
X212232746Y-89776698D01*
X212222267Y-89768322D01*
X212208823Y-89775388D01*
X211527021Y-90457189D01*
X211519408Y-90471132D01*
X210789356Y-90471132D01*
X210790592Y-90468868D01*
X210790461Y-90467034D01*
X210786210Y-90460420D01*
X210100454Y-89774665D01*
X210088684Y-89768238D01*
X210076670Y-89777533D01*
X210044974Y-89822800D01*
X210039496Y-89832286D01*
X209949451Y-90025388D01*
X209945705Y-90035680D01*
X209891966Y-90236237D01*
X209855014Y-90296860D01*
X209791154Y-90327881D01*
X209720659Y-90319453D01*
X209665912Y-90274250D01*
X209648552Y-90236237D01*
X209594767Y-90035509D01*
X209594766Y-90035507D01*
X209593344Y-90030199D01*
X209591021Y-90025217D01*
X209500942Y-89832041D01*
X209500939Y-89832036D01*
X209498616Y-89827054D01*
X209463941Y-89777533D01*
X209373210Y-89647955D01*
X209373208Y-89647952D01*
X209370051Y-89643444D01*
X209211556Y-89484949D01*
X209094140Y-89402733D01*
X210453322Y-89402733D01*
X210460388Y-89416177D01*
X211142189Y-90097979D01*
X211156132Y-90105592D01*
X211157966Y-90105461D01*
X211164580Y-90101210D01*
X211850335Y-89415454D01*
X211856762Y-89403684D01*
X211847468Y-89391670D01*
X211802204Y-89359976D01*
X211792709Y-89354493D01*
X211599612Y-89264451D01*
X211589320Y-89260705D01*
X211383521Y-89205561D01*
X211372726Y-89203658D01*
X211160475Y-89185088D01*
X211149525Y-89185088D01*
X210937274Y-89203658D01*
X210926479Y-89205561D01*
X210720680Y-89260705D01*
X210710388Y-89264451D01*
X210517286Y-89354496D01*
X210507800Y-89359974D01*
X210461698Y-89392254D01*
X210453322Y-89402733D01*
X209094140Y-89402733D01*
X209027947Y-89356384D01*
X209022965Y-89354061D01*
X209022960Y-89354058D01*
X208829783Y-89263979D01*
X208829782Y-89263979D01*
X208824801Y-89261656D01*
X208819493Y-89260234D01*
X208819491Y-89260233D01*
X208613608Y-89205067D01*
X208613606Y-89205067D01*
X208608293Y-89203643D01*
X208385000Y-89184107D01*
X208161707Y-89203643D01*
X208156394Y-89205067D01*
X208156392Y-89205067D01*
X207950509Y-89260233D01*
X207950507Y-89260234D01*
X207945199Y-89261656D01*
X207940218Y-89263978D01*
X207940217Y-89263979D01*
X207747041Y-89354058D01*
X207747036Y-89354061D01*
X207742054Y-89356384D01*
X207737547Y-89359540D01*
X207737545Y-89359541D01*
X207562955Y-89481790D01*
X207562952Y-89481792D01*
X207558444Y-89484949D01*
X207399949Y-89643444D01*
X207396792Y-89647952D01*
X207396790Y-89647955D01*
X207306059Y-89777533D01*
X207271384Y-89827054D01*
X207269061Y-89832036D01*
X207269058Y-89832041D01*
X207178979Y-90025217D01*
X207176656Y-90030199D01*
X207175234Y-90035507D01*
X207175233Y-90035509D01*
X207121707Y-90235272D01*
X207084755Y-90295895D01*
X207020895Y-90326916D01*
X206950400Y-90318488D01*
X206895653Y-90273285D01*
X206878293Y-90235272D01*
X206824767Y-90035509D01*
X206824766Y-90035507D01*
X206823344Y-90030199D01*
X206821021Y-90025217D01*
X206730942Y-89832041D01*
X206730939Y-89832036D01*
X206728616Y-89827054D01*
X206693941Y-89777533D01*
X206603210Y-89647955D01*
X206603208Y-89647952D01*
X206600051Y-89643444D01*
X206441556Y-89484949D01*
X206257947Y-89356384D01*
X206252959Y-89354058D01*
X206252956Y-89354056D01*
X206071612Y-89269495D01*
X206018326Y-89222578D01*
X205998865Y-89154301D01*
X206019407Y-89086341D01*
X206035766Y-89066205D01*
X206140545Y-88961426D01*
X227586077Y-88961426D01*
X227594734Y-89292006D01*
X227595340Y-89299227D01*
X227641936Y-89626622D01*
X227643367Y-89633724D01*
X227727287Y-89953606D01*
X227729523Y-89960486D01*
X227849650Y-90268596D01*
X227852665Y-90275183D01*
X228007413Y-90567452D01*
X228011159Y-90573637D01*
X228198470Y-90846176D01*
X228202915Y-90851905D01*
X228263674Y-90921555D01*
X228276846Y-90929959D01*
X228286701Y-90924089D01*
X230147978Y-89062812D01*
X230154356Y-89051132D01*
X230884408Y-89051132D01*
X230884539Y-89052965D01*
X230888790Y-89059580D01*
X232751246Y-90922036D01*
X232764600Y-90929328D01*
X232774572Y-90922274D01*
X232874321Y-90802975D01*
X232878631Y-90797172D01*
X233060201Y-90520759D01*
X233063815Y-90514497D01*
X233212411Y-90219050D01*
X233215283Y-90212412D01*
X233328931Y-89901855D01*
X233331027Y-89894913D01*
X233408226Y-89573355D01*
X233409510Y-89566216D01*
X233449335Y-89237119D01*
X233449762Y-89231506D01*
X233455378Y-89052797D01*
X233455305Y-89047204D01*
X233436221Y-88716226D01*
X233435389Y-88709036D01*
X233378532Y-88383257D01*
X233376877Y-88376202D01*
X233282956Y-88059131D01*
X233280498Y-88052303D01*
X233150754Y-87748126D01*
X233147537Y-87741643D01*
X232983680Y-87454371D01*
X232979748Y-87448316D01*
X232783960Y-87181784D01*
X232779347Y-87176208D01*
X232778990Y-87175824D01*
X232765337Y-87167705D01*
X232764732Y-87167726D01*
X232756250Y-87172960D01*
X230892022Y-89037188D01*
X230884408Y-89051132D01*
X230154356Y-89051132D01*
X230155592Y-89048868D01*
X230155461Y-89047035D01*
X230151210Y-89040420D01*
X228287577Y-87176787D01*
X228274784Y-87169801D01*
X228264031Y-87177665D01*
X228111784Y-87371833D01*
X228107650Y-87377781D01*
X227934858Y-87659753D01*
X227931437Y-87666132D01*
X227792197Y-87966100D01*
X227789537Y-87972819D01*
X227685697Y-88286799D01*
X227683821Y-88293803D01*
X227616760Y-88617628D01*
X227615703Y-88624789D01*
X227586305Y-88954174D01*
X227586077Y-88961426D01*
X206140545Y-88961426D01*
X206250027Y-88851944D01*
X206256292Y-88846090D01*
X206294163Y-88813053D01*
X206294164Y-88813052D01*
X206299884Y-88808062D01*
X206300549Y-88808824D01*
X206355204Y-88775154D01*
X206426188Y-88776506D01*
X206441643Y-88782509D01*
X206555388Y-88835549D01*
X206565680Y-88839295D01*
X206771479Y-88894439D01*
X206782274Y-88896342D01*
X206994525Y-88914912D01*
X207005475Y-88914912D01*
X207217726Y-88896342D01*
X207228521Y-88894439D01*
X207434320Y-88839295D01*
X207444612Y-88835549D01*
X207637709Y-88745507D01*
X207647204Y-88740024D01*
X207693302Y-88707746D01*
X207701678Y-88697267D01*
X207694610Y-88683821D01*
X206729885Y-87719095D01*
X206695859Y-87656783D01*
X206700924Y-87585967D01*
X206729885Y-87540905D01*
X207000000Y-87270790D01*
X207695331Y-86575458D01*
X207701761Y-86563683D01*
X207692465Y-86551668D01*
X207647204Y-86519976D01*
X207637709Y-86514493D01*
X207444612Y-86424451D01*
X207434320Y-86420705D01*
X207228521Y-86365561D01*
X207217726Y-86363658D01*
X207005475Y-86345088D01*
X206994525Y-86345088D01*
X206782274Y-86363658D01*
X206771479Y-86365561D01*
X206636610Y-86401699D01*
X206565634Y-86400009D01*
X206506838Y-86360215D01*
X206478890Y-86294950D01*
X206477999Y-86279992D01*
X206477999Y-84439803D01*
X206498001Y-84371682D01*
X206551657Y-84325189D01*
X206621931Y-84315085D01*
X206629119Y-84316333D01*
X206780018Y-84347034D01*
X206780022Y-84347034D01*
X206785097Y-84348067D01*
X206790272Y-84348257D01*
X206790274Y-84348257D01*
X207003173Y-84356064D01*
X207003177Y-84356064D01*
X207008337Y-84356253D01*
X207013457Y-84355597D01*
X207013459Y-84355597D01*
X207224788Y-84328525D01*
X207224789Y-84328525D01*
X207229916Y-84327868D01*
X207234956Y-84326356D01*
X207438929Y-84265161D01*
X207438934Y-84265159D01*
X207443884Y-84263674D01*
X207644494Y-84165396D01*
X207826360Y-84035673D01*
X207859745Y-84002405D01*
X207980935Y-83881637D01*
X207984596Y-83877989D01*
X208042381Y-83797573D01*
X208114953Y-83696577D01*
X208116140Y-83697430D01*
X208163460Y-83653862D01*
X208233397Y-83641645D01*
X208298838Y-83669178D01*
X208326666Y-83701011D01*
X208384194Y-83794888D01*
X208390277Y-83803199D01*
X208529713Y-83964167D01*
X208537080Y-83971383D01*
X208700934Y-84107416D01*
X208709381Y-84113331D01*
X208893256Y-84220779D01*
X208902542Y-84225229D01*
X209023355Y-84271362D01*
X209079858Y-84314349D01*
X209104151Y-84381060D01*
X209088521Y-84450315D01*
X209055110Y-84489034D01*
X209034948Y-84504504D01*
X209034932Y-84504518D01*
X209009577Y-84523973D01*
X209009574Y-84523976D01*
X209003024Y-84529002D01*
X208997994Y-84535557D01*
X208983559Y-84554368D01*
X208972692Y-84566759D01*
X208652233Y-84887218D01*
X208589921Y-84921244D01*
X208576313Y-84923432D01*
X208573107Y-84923769D01*
X208573100Y-84923771D01*
X208566093Y-84924507D01*
X208559422Y-84926778D01*
X208411673Y-84977075D01*
X208411670Y-84977076D01*
X208405003Y-84979346D01*
X208399005Y-84983036D01*
X208399003Y-84983037D01*
X208266065Y-85064821D01*
X208266063Y-85064823D01*
X208260066Y-85068512D01*
X208138486Y-85187573D01*
X208134675Y-85193487D01*
X208134673Y-85193489D01*
X208054198Y-85318361D01*
X208046304Y-85330610D01*
X208043894Y-85337232D01*
X207990834Y-85483014D01*
X207988103Y-85490516D01*
X207966775Y-85659343D01*
X207983381Y-85828699D01*
X208037094Y-85990167D01*
X208040741Y-85996189D01*
X208040742Y-85996191D01*
X208117475Y-86122891D01*
X208125246Y-86135723D01*
X208243455Y-86258132D01*
X208312331Y-86303203D01*
X208376338Y-86345088D01*
X208385846Y-86351310D01*
X208392450Y-86353766D01*
X208392452Y-86353767D01*
X208428134Y-86367037D01*
X208545341Y-86410626D01*
X208714015Y-86433132D01*
X208721026Y-86432494D01*
X208721030Y-86432494D01*
X208814588Y-86423979D01*
X208854924Y-86420308D01*
X208924576Y-86434053D01*
X208975741Y-86483274D01*
X208992172Y-86552343D01*
X208968654Y-86619331D01*
X208947562Y-86642066D01*
X208943444Y-86644949D01*
X208784949Y-86803444D01*
X208781792Y-86807952D01*
X208781790Y-86807955D01*
X208659541Y-86982545D01*
X208659540Y-86982547D01*
X208656384Y-86987054D01*
X208654061Y-86992036D01*
X208654058Y-86992041D01*
X208587508Y-87134759D01*
X208561656Y-87190199D01*
X208560234Y-87195507D01*
X208560233Y-87195509D01*
X208506448Y-87396237D01*
X208469496Y-87456860D01*
X208405635Y-87487881D01*
X208335141Y-87479453D01*
X208280394Y-87434250D01*
X208263034Y-87396237D01*
X208209295Y-87195680D01*
X208205549Y-87185388D01*
X208115504Y-86992286D01*
X208110026Y-86982800D01*
X208077746Y-86936698D01*
X208067267Y-86928322D01*
X208053823Y-86935388D01*
X207372021Y-87617189D01*
X207364408Y-87631132D01*
X207364539Y-87632966D01*
X207368790Y-87639580D01*
X208054546Y-88325335D01*
X208066316Y-88331762D01*
X208078330Y-88322467D01*
X208110026Y-88277200D01*
X208115504Y-88267714D01*
X208205549Y-88074612D01*
X208209295Y-88064320D01*
X208263034Y-87863763D01*
X208299986Y-87803140D01*
X208363846Y-87772119D01*
X208434341Y-87780547D01*
X208489088Y-87825750D01*
X208506448Y-87863763D01*
X208561656Y-88069801D01*
X208563978Y-88074782D01*
X208563979Y-88074783D01*
X208654058Y-88267959D01*
X208654061Y-88267964D01*
X208656384Y-88272946D01*
X208659540Y-88277453D01*
X208659541Y-88277455D01*
X208774313Y-88441366D01*
X208784949Y-88456556D01*
X208943444Y-88615051D01*
X208947952Y-88618208D01*
X208947955Y-88618210D01*
X208983452Y-88643065D01*
X209127053Y-88743616D01*
X209132035Y-88745939D01*
X209132040Y-88745942D01*
X209325217Y-88836021D01*
X209330199Y-88838344D01*
X209335507Y-88839766D01*
X209335509Y-88839767D01*
X209541392Y-88894933D01*
X209541394Y-88894933D01*
X209546707Y-88896357D01*
X209770000Y-88915893D01*
X209993293Y-88896357D01*
X209998606Y-88894933D01*
X209998608Y-88894933D01*
X210204491Y-88839767D01*
X210204493Y-88839766D01*
X210209801Y-88838344D01*
X210214783Y-88836021D01*
X210407960Y-88745942D01*
X210407965Y-88745939D01*
X210412947Y-88743616D01*
X210556548Y-88643065D01*
X210592045Y-88618210D01*
X210592048Y-88618208D01*
X210596556Y-88615051D01*
X210755051Y-88456556D01*
X210765688Y-88441366D01*
X210880459Y-88277455D01*
X210880460Y-88277453D01*
X210883616Y-88272946D01*
X210885939Y-88267964D01*
X210885942Y-88267959D01*
X210976021Y-88074783D01*
X210976022Y-88074782D01*
X210978344Y-88069801D01*
X211033293Y-87864728D01*
X211070245Y-87804105D01*
X211134105Y-87773084D01*
X211204600Y-87781512D01*
X211259347Y-87826715D01*
X211276707Y-87864728D01*
X211331656Y-88069801D01*
X211333978Y-88074782D01*
X211333979Y-88074783D01*
X211424058Y-88267959D01*
X211424061Y-88267964D01*
X211426384Y-88272946D01*
X211429540Y-88277453D01*
X211429541Y-88277455D01*
X211544313Y-88441366D01*
X211554949Y-88456556D01*
X211713444Y-88615051D01*
X211717952Y-88618208D01*
X211717955Y-88618210D01*
X211753452Y-88643065D01*
X211897053Y-88743616D01*
X211902035Y-88745939D01*
X211902040Y-88745942D01*
X212095217Y-88836021D01*
X212100199Y-88838344D01*
X212105507Y-88839766D01*
X212105509Y-88839767D01*
X212311392Y-88894933D01*
X212311394Y-88894933D01*
X212316707Y-88896357D01*
X212540000Y-88915893D01*
X212763293Y-88896357D01*
X212768606Y-88894933D01*
X212768608Y-88894933D01*
X212974491Y-88839767D01*
X212974493Y-88839766D01*
X212979801Y-88838344D01*
X212984783Y-88836021D01*
X213177960Y-88745942D01*
X213177965Y-88745939D01*
X213182947Y-88743616D01*
X213326548Y-88643065D01*
X213362045Y-88618210D01*
X213362048Y-88618208D01*
X213366556Y-88615051D01*
X213525051Y-88456556D01*
X213535688Y-88441366D01*
X213650459Y-88277455D01*
X213650460Y-88277453D01*
X213653616Y-88272946D01*
X213655939Y-88267964D01*
X213655942Y-88267959D01*
X213746021Y-88074783D01*
X213746022Y-88074782D01*
X213748344Y-88069801D01*
X213803293Y-87864728D01*
X213840245Y-87804105D01*
X213904105Y-87773084D01*
X213974600Y-87781512D01*
X214029347Y-87826715D01*
X214046707Y-87864728D01*
X214101656Y-88069801D01*
X214103978Y-88074782D01*
X214103979Y-88074783D01*
X214194058Y-88267959D01*
X214194061Y-88267964D01*
X214196384Y-88272946D01*
X214199540Y-88277453D01*
X214199541Y-88277455D01*
X214314313Y-88441366D01*
X214324949Y-88456556D01*
X214483444Y-88615051D01*
X214487952Y-88618208D01*
X214487955Y-88618210D01*
X214523452Y-88643065D01*
X214667053Y-88743616D01*
X214672035Y-88745939D01*
X214672040Y-88745942D01*
X214865217Y-88836021D01*
X214870199Y-88838344D01*
X214875507Y-88839766D01*
X214875509Y-88839767D01*
X215081392Y-88894933D01*
X215081394Y-88894933D01*
X215086707Y-88896357D01*
X215310000Y-88915893D01*
X215533293Y-88896357D01*
X215538606Y-88894933D01*
X215538608Y-88894933D01*
X215744491Y-88839767D01*
X215744493Y-88839766D01*
X215749801Y-88838344D01*
X215754783Y-88836021D01*
X215947960Y-88745942D01*
X215947965Y-88745939D01*
X215952947Y-88743616D01*
X216096548Y-88643065D01*
X216132045Y-88618210D01*
X216132048Y-88618208D01*
X216136556Y-88615051D01*
X216295051Y-88456556D01*
X216305688Y-88441366D01*
X216420459Y-88277455D01*
X216420460Y-88277453D01*
X216423616Y-88272946D01*
X216425939Y-88267964D01*
X216425942Y-88267959D01*
X216516021Y-88074783D01*
X216516022Y-88074782D01*
X216518344Y-88069801D01*
X216573293Y-87864728D01*
X216610245Y-87804105D01*
X216674105Y-87773084D01*
X216744600Y-87781512D01*
X216799347Y-87826715D01*
X216816707Y-87864728D01*
X216871656Y-88069801D01*
X216873978Y-88074782D01*
X216873979Y-88074783D01*
X216964058Y-88267959D01*
X216964061Y-88267964D01*
X216966384Y-88272946D01*
X216969540Y-88277453D01*
X216969541Y-88277455D01*
X217084313Y-88441366D01*
X217094949Y-88456556D01*
X217253444Y-88615051D01*
X217257952Y-88618208D01*
X217257955Y-88618210D01*
X217293452Y-88643065D01*
X217437053Y-88743616D01*
X217442035Y-88745939D01*
X217442040Y-88745942D01*
X217635217Y-88836021D01*
X217640199Y-88838344D01*
X217645507Y-88839766D01*
X217645509Y-88839767D01*
X217851392Y-88894933D01*
X217851394Y-88894933D01*
X217856707Y-88896357D01*
X218080000Y-88915893D01*
X218303293Y-88896357D01*
X218308606Y-88894933D01*
X218308608Y-88894933D01*
X218514491Y-88839767D01*
X218514493Y-88839766D01*
X218519801Y-88838344D01*
X218524783Y-88836021D01*
X218717960Y-88745942D01*
X218717965Y-88745939D01*
X218722947Y-88743616D01*
X218866548Y-88643065D01*
X218902045Y-88618210D01*
X218902048Y-88618208D01*
X218906556Y-88615051D01*
X219065051Y-88456556D01*
X219075688Y-88441366D01*
X219190459Y-88277455D01*
X219190460Y-88277453D01*
X219193616Y-88272946D01*
X219195939Y-88267964D01*
X219195942Y-88267959D01*
X219286021Y-88074783D01*
X219286022Y-88074782D01*
X219288344Y-88069801D01*
X219343293Y-87864728D01*
X219380245Y-87804105D01*
X219444105Y-87773084D01*
X219514600Y-87781512D01*
X219569347Y-87826715D01*
X219586707Y-87864728D01*
X219641656Y-88069801D01*
X219643978Y-88074782D01*
X219643979Y-88074783D01*
X219734058Y-88267959D01*
X219734061Y-88267964D01*
X219736384Y-88272946D01*
X219739540Y-88277453D01*
X219739541Y-88277455D01*
X219854313Y-88441366D01*
X219864949Y-88456556D01*
X220023444Y-88615051D01*
X220027952Y-88618208D01*
X220027955Y-88618210D01*
X220063452Y-88643065D01*
X220207053Y-88743616D01*
X220212035Y-88745939D01*
X220212040Y-88745942D01*
X220405217Y-88836021D01*
X220410199Y-88838344D01*
X220415507Y-88839766D01*
X220415509Y-88839767D01*
X220621392Y-88894933D01*
X220621394Y-88894933D01*
X220626707Y-88896357D01*
X220850000Y-88915893D01*
X221073293Y-88896357D01*
X221078606Y-88894933D01*
X221078608Y-88894933D01*
X221284491Y-88839767D01*
X221284493Y-88839766D01*
X221289801Y-88838344D01*
X221294783Y-88836021D01*
X221487960Y-88745942D01*
X221487965Y-88745939D01*
X221492947Y-88743616D01*
X221636548Y-88643065D01*
X221672045Y-88618210D01*
X221672048Y-88618208D01*
X221676556Y-88615051D01*
X221835051Y-88456556D01*
X221845688Y-88441366D01*
X221960459Y-88277455D01*
X221960460Y-88277453D01*
X221963616Y-88272946D01*
X221965939Y-88267964D01*
X221965942Y-88267959D01*
X222056021Y-88074783D01*
X222056022Y-88074782D01*
X222058344Y-88069801D01*
X222113293Y-87864728D01*
X222150245Y-87804105D01*
X222214105Y-87773084D01*
X222284600Y-87781512D01*
X222339347Y-87826715D01*
X222356707Y-87864728D01*
X222411656Y-88069801D01*
X222413978Y-88074782D01*
X222413979Y-88074783D01*
X222504058Y-88267959D01*
X222504061Y-88267964D01*
X222506384Y-88272946D01*
X222509540Y-88277453D01*
X222509541Y-88277455D01*
X222624313Y-88441366D01*
X222634949Y-88456556D01*
X222793444Y-88615051D01*
X222797952Y-88618208D01*
X222797955Y-88618210D01*
X222833452Y-88643065D01*
X222977053Y-88743616D01*
X222982035Y-88745939D01*
X222982040Y-88745942D01*
X223175217Y-88836021D01*
X223180199Y-88838344D01*
X223185507Y-88839766D01*
X223185509Y-88839767D01*
X223391392Y-88894933D01*
X223391394Y-88894933D01*
X223396707Y-88896357D01*
X223620000Y-88915893D01*
X223843293Y-88896357D01*
X223848606Y-88894933D01*
X223848608Y-88894933D01*
X224054491Y-88839767D01*
X224054493Y-88839766D01*
X224059801Y-88838344D01*
X224064783Y-88836021D01*
X224257960Y-88745942D01*
X224257965Y-88745939D01*
X224262947Y-88743616D01*
X224406548Y-88643065D01*
X224442045Y-88618210D01*
X224442048Y-88618208D01*
X224446556Y-88615051D01*
X224605051Y-88456556D01*
X224615688Y-88441366D01*
X224730459Y-88277455D01*
X224730460Y-88277453D01*
X224733616Y-88272946D01*
X224735939Y-88267964D01*
X224735942Y-88267959D01*
X224826021Y-88074783D01*
X224826022Y-88074782D01*
X224828344Y-88069801D01*
X224886357Y-87853293D01*
X224905893Y-87630000D01*
X224886357Y-87406707D01*
X224828344Y-87190199D01*
X224802492Y-87134759D01*
X224735942Y-86992041D01*
X224735939Y-86992036D01*
X224733616Y-86987054D01*
X224622100Y-86827792D01*
X224599412Y-86760519D01*
X224616697Y-86691658D01*
X224668467Y-86643074D01*
X224725313Y-86629522D01*
X228521958Y-86629522D01*
X228590079Y-86649524D01*
X228636572Y-86703180D01*
X228646676Y-86773454D01*
X228640315Y-86789553D01*
X228639711Y-86805205D01*
X228646662Y-86817452D01*
X230507188Y-88677978D01*
X230521132Y-88685592D01*
X230522965Y-88685461D01*
X230529580Y-88681210D01*
X232392102Y-86818688D01*
X232399494Y-86805151D01*
X232392707Y-86795451D01*
X232297538Y-86714170D01*
X232291764Y-86709787D01*
X232017282Y-86525342D01*
X232011059Y-86521662D01*
X231717182Y-86369980D01*
X231710571Y-86367037D01*
X231401222Y-86250144D01*
X231394303Y-86247976D01*
X231073573Y-86167414D01*
X231066448Y-86166055D01*
X230738593Y-86122892D01*
X230728983Y-86122186D01*
X230662509Y-86097249D01*
X230620070Y-86040333D01*
X230615139Y-85969508D01*
X230633260Y-85926799D01*
X230707838Y-85814550D01*
X230768266Y-85655473D01*
X230791948Y-85486961D01*
X230792246Y-85465648D01*
X230792215Y-85465375D01*
X230808676Y-85397157D01*
X230859999Y-85348101D01*
X230917873Y-85334023D01*
X235446341Y-85334023D01*
X235462784Y-85335101D01*
X235494477Y-85339273D01*
X235502666Y-85338195D01*
X235534351Y-85334024D01*
X235534361Y-85334023D01*
X235534362Y-85334023D01*
X235560287Y-85330610D01*
X235641212Y-85319956D01*
X235645140Y-85319439D01*
X235645141Y-85319439D01*
X235653328Y-85318361D01*
X235801353Y-85257047D01*
X235896549Y-85184000D01*
X235896552Y-85183997D01*
X235928464Y-85159510D01*
X235933494Y-85152955D01*
X235947929Y-85134144D01*
X235958796Y-85121753D01*
X236276621Y-84803928D01*
X236340382Y-84769596D01*
X236346463Y-84768348D01*
X236353483Y-84767709D01*
X236421149Y-84745723D01*
X236508623Y-84717301D01*
X236508626Y-84717300D01*
X236515322Y-84715124D01*
X236661490Y-84627990D01*
X236666584Y-84623139D01*
X236666588Y-84623136D01*
X236758554Y-84535557D01*
X236784721Y-84510639D01*
X236788790Y-84504515D01*
X236874990Y-84374774D01*
X236874991Y-84374772D01*
X236878891Y-84368902D01*
X236881395Y-84362311D01*
X236882328Y-84360495D01*
X236931256Y-84309050D01*
X237000230Y-84292224D01*
X237036528Y-84299793D01*
X237036537Y-84299761D01*
X237036952Y-84299881D01*
X237039352Y-84300382D01*
X237041506Y-84301205D01*
X237051399Y-84304079D01*
X237154750Y-84325106D01*
X237168799Y-84323910D01*
X237172500Y-84313565D01*
X237172500Y-83266615D01*
X237168025Y-83251376D01*
X237166635Y-83250171D01*
X237158952Y-83248500D01*
X233862979Y-83248500D01*
X233820714Y-83241199D01*
X233724300Y-83206868D01*
X233555329Y-83186720D01*
X233548326Y-83187456D01*
X233548325Y-83187456D01*
X233393101Y-83203770D01*
X233393097Y-83203771D01*
X233386093Y-83204507D01*
X233379422Y-83206778D01*
X233276609Y-83241778D01*
X233236004Y-83248500D01*
X231643597Y-83248500D01*
X231590959Y-83236349D01*
X231589548Y-83235453D01*
X231429240Y-83178370D01*
X231260269Y-83158222D01*
X231253266Y-83158958D01*
X231253265Y-83158958D01*
X231098041Y-83175272D01*
X231098037Y-83175273D01*
X231091033Y-83176009D01*
X231084362Y-83178280D01*
X230936613Y-83228577D01*
X230936610Y-83228578D01*
X230929943Y-83230848D01*
X230923943Y-83234539D01*
X230919757Y-83236509D01*
X230866110Y-83248500D01*
X228506481Y-83248500D01*
X228464216Y-83241199D01*
X228367802Y-83206868D01*
X228198831Y-83186720D01*
X228191828Y-83187456D01*
X228191827Y-83187456D01*
X228036603Y-83203770D01*
X228036599Y-83203771D01*
X228029595Y-83204507D01*
X228022924Y-83206778D01*
X227920111Y-83241778D01*
X227879506Y-83248500D01*
X226488001Y-83248500D01*
X226419880Y-83228498D01*
X226373387Y-83174842D01*
X226362001Y-83122500D01*
X226362001Y-82866500D01*
X226382003Y-82798379D01*
X226435659Y-82751886D01*
X226488001Y-82740500D01*
X237554500Y-82740500D01*
X237622621Y-82760502D01*
X237669114Y-82814158D01*
X237680500Y-82866500D01*
X237680500Y-84313017D01*
X237684564Y-84326859D01*
X237697978Y-84328893D01*
X237704684Y-84328034D01*
X237714762Y-84325892D01*
X237918755Y-84264691D01*
X237928342Y-84260933D01*
X238119595Y-84167239D01*
X238128445Y-84161964D01*
X238301828Y-84038292D01*
X238309700Y-84031639D01*
X238460552Y-83881312D01*
X238467230Y-83873465D01*
X238591503Y-83700520D01*
X238596813Y-83691683D01*
X238691170Y-83500767D01*
X238694969Y-83491172D01*
X238744942Y-83326693D01*
X238783883Y-83267329D01*
X238848737Y-83238442D01*
X238918913Y-83249203D01*
X238972131Y-83296197D01*
X238991500Y-83363322D01*
X238991500Y-94946633D01*
X238990000Y-94966018D01*
X238987690Y-94980851D01*
X238987690Y-94980855D01*
X238986309Y-94989724D01*
X238988135Y-95003683D01*
X238988756Y-95008433D01*
X238989647Y-95031366D01*
X238979389Y-95227100D01*
X238975458Y-95302099D01*
X238974080Y-95315215D01*
X238927162Y-95611445D01*
X238924420Y-95624345D01*
X238846795Y-95914047D01*
X238842719Y-95926591D01*
X238735238Y-96206587D01*
X238729874Y-96218635D01*
X238593711Y-96485870D01*
X238587120Y-96497286D01*
X238423764Y-96748832D01*
X238416018Y-96759492D01*
X238335977Y-96858335D01*
X238227273Y-96992573D01*
X238218448Y-97002374D01*
X238006374Y-97214448D01*
X237996573Y-97223273D01*
X237763495Y-97412016D01*
X237752832Y-97419764D01*
X237501286Y-97583120D01*
X237489870Y-97589711D01*
X237222635Y-97725874D01*
X237210588Y-97731237D01*
X236930586Y-97838721D01*
X236918052Y-97842793D01*
X236773196Y-97881608D01*
X236628345Y-97920420D01*
X236615445Y-97923162D01*
X236534134Y-97936040D01*
X236319209Y-97970081D01*
X236306101Y-97971458D01*
X236230937Y-97975397D01*
X236042701Y-97985262D01*
X236016724Y-97983935D01*
X236015154Y-97983691D01*
X236015150Y-97983691D01*
X236006276Y-97982309D01*
X235997374Y-97983473D01*
X235997372Y-97983473D01*
X235982323Y-97985441D01*
X235974714Y-97986436D01*
X235958379Y-97987500D01*
X193258673Y-97987500D01*
X193190552Y-97967498D01*
X193144059Y-97913842D01*
X193133222Y-97864022D01*
X193133751Y-97860000D01*
X193129578Y-97828303D01*
X193128500Y-97811857D01*
X193128500Y-95042277D01*
X234137009Y-95042277D01*
X234162625Y-95310769D01*
X234163710Y-95315203D01*
X234163711Y-95315209D01*
X234225645Y-95568312D01*
X234226731Y-95572750D01*
X234327985Y-95822733D01*
X234464265Y-96055482D01*
X234467118Y-96059049D01*
X234584686Y-96206060D01*
X234632716Y-96266119D01*
X234829809Y-96450234D01*
X235051416Y-96603968D01*
X235055499Y-96605999D01*
X235055502Y-96606001D01*
X235171013Y-96663466D01*
X235292894Y-96724101D01*
X235297228Y-96725522D01*
X235297231Y-96725523D01*
X235544853Y-96806698D01*
X235544859Y-96806699D01*
X235549186Y-96808118D01*
X235553677Y-96808898D01*
X235553678Y-96808898D01*
X235811140Y-96853601D01*
X235811148Y-96853602D01*
X235814921Y-96854257D01*
X235818758Y-96854448D01*
X235898578Y-96858422D01*
X235898586Y-96858422D01*
X235900149Y-96858500D01*
X236068512Y-96858500D01*
X236070780Y-96858335D01*
X236070792Y-96858335D01*
X236201884Y-96848823D01*
X236269004Y-96843953D01*
X236273459Y-96842969D01*
X236273462Y-96842969D01*
X236527912Y-96786791D01*
X236527916Y-96786790D01*
X236532372Y-96785806D01*
X236658480Y-96738028D01*
X236780318Y-96691868D01*
X236780321Y-96691867D01*
X236784588Y-96690250D01*
X237020368Y-96559286D01*
X237234773Y-96395657D01*
X237423312Y-96202792D01*
X237582034Y-95984730D01*
X237665190Y-95826676D01*
X237705490Y-95750079D01*
X237705493Y-95750073D01*
X237707615Y-95746039D01*
X237755146Y-95611445D01*
X237795902Y-95496033D01*
X237795902Y-95496032D01*
X237797425Y-95491720D01*
X237833090Y-95310769D01*
X237848700Y-95231572D01*
X237848701Y-95231566D01*
X237849581Y-95227100D01*
X237858555Y-95046833D01*
X237862764Y-94962292D01*
X237862764Y-94962286D01*
X237862991Y-94957723D01*
X237837375Y-94689231D01*
X237792042Y-94503967D01*
X237774355Y-94431688D01*
X237773269Y-94427250D01*
X237672015Y-94177267D01*
X237535735Y-93944518D01*
X237417928Y-93797208D01*
X237370136Y-93737447D01*
X237370135Y-93737445D01*
X237367284Y-93733881D01*
X237170191Y-93549766D01*
X236948584Y-93396032D01*
X236944501Y-93394001D01*
X236944498Y-93393999D01*
X236779606Y-93311967D01*
X236707106Y-93275899D01*
X236702772Y-93274478D01*
X236702769Y-93274477D01*
X236455147Y-93193302D01*
X236455141Y-93193301D01*
X236450814Y-93191882D01*
X236446322Y-93191102D01*
X236188860Y-93146399D01*
X236188852Y-93146398D01*
X236185079Y-93145743D01*
X236173817Y-93145182D01*
X236101422Y-93141578D01*
X236101414Y-93141578D01*
X236099851Y-93141500D01*
X235931488Y-93141500D01*
X235929220Y-93141665D01*
X235929208Y-93141665D01*
X235798116Y-93151177D01*
X235730996Y-93156047D01*
X235726541Y-93157031D01*
X235726538Y-93157031D01*
X235472088Y-93213209D01*
X235472084Y-93213210D01*
X235467628Y-93214194D01*
X235341520Y-93261972D01*
X235219682Y-93308132D01*
X235219679Y-93308133D01*
X235215412Y-93309750D01*
X234979632Y-93440714D01*
X234765227Y-93604343D01*
X234576688Y-93797208D01*
X234417966Y-94015270D01*
X234415844Y-94019304D01*
X234294510Y-94249921D01*
X234294507Y-94249927D01*
X234292385Y-94253961D01*
X234290865Y-94258266D01*
X234290863Y-94258270D01*
X234204098Y-94503967D01*
X234202575Y-94508280D01*
X234150419Y-94772900D01*
X234150192Y-94777453D01*
X234150192Y-94777456D01*
X234138372Y-95014905D01*
X234137009Y-95042277D01*
X193128500Y-95042277D01*
X193128500Y-92948143D01*
X193129578Y-92931697D01*
X193132673Y-92908188D01*
X193133751Y-92900000D01*
X193112838Y-92741150D01*
X193051524Y-92593125D01*
X193002756Y-92529569D01*
X192959016Y-92472566D01*
X192959013Y-92472563D01*
X192953987Y-92466013D01*
X192826876Y-92368476D01*
X192819250Y-92365317D01*
X192819248Y-92365316D01*
X192686480Y-92310322D01*
X192686477Y-92310321D01*
X192678850Y-92307162D01*
X192520000Y-92286249D01*
X192511812Y-92287327D01*
X192488303Y-92290422D01*
X192471857Y-92291500D01*
X181048143Y-92291500D01*
X181031697Y-92290422D01*
X181008188Y-92287327D01*
X181000000Y-92286249D01*
X180960115Y-92291500D01*
X180841150Y-92307162D01*
X180693125Y-92368476D01*
X180629569Y-92417245D01*
X180572566Y-92460984D01*
X180572564Y-92460986D01*
X180566013Y-92466013D01*
X180560987Y-92472563D01*
X180560986Y-92472564D01*
X180473504Y-92586572D01*
X180468476Y-92593124D01*
X180407162Y-92741150D01*
X180386249Y-92900000D01*
X180387327Y-92908188D01*
X180390422Y-92931697D01*
X180391500Y-92948143D01*
X180391500Y-97811857D01*
X180390422Y-97828303D01*
X180386249Y-97860000D01*
X180386719Y-97863570D01*
X180367325Y-97929621D01*
X180313669Y-97976114D01*
X180261327Y-97987500D01*
X178049367Y-97987500D01*
X178029982Y-97986000D01*
X178015149Y-97983690D01*
X178015145Y-97983690D01*
X178006276Y-97982309D01*
X177987564Y-97984756D01*
X177964634Y-97985647D01*
X177693897Y-97971458D01*
X177680791Y-97970081D01*
X177465866Y-97936040D01*
X177384555Y-97923162D01*
X177371655Y-97920420D01*
X177226804Y-97881608D01*
X177081948Y-97842793D01*
X177069414Y-97838721D01*
X176789412Y-97731237D01*
X176777365Y-97725874D01*
X176510130Y-97589711D01*
X176498714Y-97583120D01*
X176247168Y-97419764D01*
X176236505Y-97412016D01*
X176003427Y-97223273D01*
X175993626Y-97214448D01*
X175781552Y-97002374D01*
X175772727Y-96992573D01*
X175664023Y-96858335D01*
X175583982Y-96759492D01*
X175576236Y-96748832D01*
X175412880Y-96497286D01*
X175406289Y-96485870D01*
X175270126Y-96218635D01*
X175264762Y-96206587D01*
X175157281Y-95926591D01*
X175153205Y-95914047D01*
X175075580Y-95624345D01*
X175072838Y-95611445D01*
X175025920Y-95315215D01*
X175024542Y-95302098D01*
X175020612Y-95227100D01*
X175010932Y-95042409D01*
X175010940Y-95042277D01*
X176137009Y-95042277D01*
X176162625Y-95310769D01*
X176163710Y-95315203D01*
X176163711Y-95315209D01*
X176225645Y-95568312D01*
X176226731Y-95572750D01*
X176327985Y-95822733D01*
X176464265Y-96055482D01*
X176467118Y-96059049D01*
X176584686Y-96206060D01*
X176632716Y-96266119D01*
X176829809Y-96450234D01*
X177051416Y-96603968D01*
X177055499Y-96605999D01*
X177055502Y-96606001D01*
X177171013Y-96663466D01*
X177292894Y-96724101D01*
X177297228Y-96725522D01*
X177297231Y-96725523D01*
X177544853Y-96806698D01*
X177544859Y-96806699D01*
X177549186Y-96808118D01*
X177553677Y-96808898D01*
X177553678Y-96808898D01*
X177811140Y-96853601D01*
X177811148Y-96853602D01*
X177814921Y-96854257D01*
X177818758Y-96854448D01*
X177898578Y-96858422D01*
X177898586Y-96858422D01*
X177900149Y-96858500D01*
X178068512Y-96858500D01*
X178070780Y-96858335D01*
X178070792Y-96858335D01*
X178201884Y-96848823D01*
X178269004Y-96843953D01*
X178273459Y-96842969D01*
X178273462Y-96842969D01*
X178527912Y-96786791D01*
X178527916Y-96786790D01*
X178532372Y-96785806D01*
X178658480Y-96738028D01*
X178780318Y-96691868D01*
X178780321Y-96691867D01*
X178784588Y-96690250D01*
X179020368Y-96559286D01*
X179234773Y-96395657D01*
X179423312Y-96202792D01*
X179582034Y-95984730D01*
X179665190Y-95826676D01*
X179705490Y-95750079D01*
X179705493Y-95750073D01*
X179707615Y-95746039D01*
X179755146Y-95611445D01*
X179795902Y-95496033D01*
X179795902Y-95496032D01*
X179797425Y-95491720D01*
X179833090Y-95310769D01*
X179848700Y-95231572D01*
X179848701Y-95231566D01*
X179849581Y-95227100D01*
X179858555Y-95046833D01*
X179862764Y-94962292D01*
X179862764Y-94962286D01*
X179862991Y-94957723D01*
X179837375Y-94689231D01*
X179792042Y-94503967D01*
X179774355Y-94431688D01*
X179773269Y-94427250D01*
X179672015Y-94177267D01*
X179535735Y-93944518D01*
X179417928Y-93797208D01*
X179370136Y-93737447D01*
X179370135Y-93737445D01*
X179367284Y-93733881D01*
X179170191Y-93549766D01*
X178948584Y-93396032D01*
X178944501Y-93394001D01*
X178944498Y-93393999D01*
X178779606Y-93311967D01*
X178707106Y-93275899D01*
X178702772Y-93274478D01*
X178702769Y-93274477D01*
X178455147Y-93193302D01*
X178455141Y-93193301D01*
X178450814Y-93191882D01*
X178446322Y-93191102D01*
X178188860Y-93146399D01*
X178188852Y-93146398D01*
X178185079Y-93145743D01*
X178173817Y-93145182D01*
X178101422Y-93141578D01*
X178101414Y-93141578D01*
X178099851Y-93141500D01*
X177931488Y-93141500D01*
X177929220Y-93141665D01*
X177929208Y-93141665D01*
X177798116Y-93151177D01*
X177730996Y-93156047D01*
X177726541Y-93157031D01*
X177726538Y-93157031D01*
X177472088Y-93213209D01*
X177472084Y-93213210D01*
X177467628Y-93214194D01*
X177341520Y-93261972D01*
X177219682Y-93308132D01*
X177219679Y-93308133D01*
X177215412Y-93309750D01*
X176979632Y-93440714D01*
X176765227Y-93604343D01*
X176576688Y-93797208D01*
X176417966Y-94015270D01*
X176415844Y-94019304D01*
X176294510Y-94249921D01*
X176294507Y-94249927D01*
X176292385Y-94253961D01*
X176290865Y-94258266D01*
X176290863Y-94258270D01*
X176204098Y-94503967D01*
X176202575Y-94508280D01*
X176150419Y-94772900D01*
X176150192Y-94777453D01*
X176150192Y-94777456D01*
X176138372Y-95014905D01*
X176137009Y-95042277D01*
X175010940Y-95042277D01*
X175012505Y-95014915D01*
X175013576Y-95008552D01*
X175013729Y-94996000D01*
X175009773Y-94968376D01*
X175008500Y-94950514D01*
X175008500Y-91296816D01*
X181598724Y-91296816D01*
X181598742Y-91297068D01*
X181604658Y-91305814D01*
X181629970Y-91328846D01*
X181635592Y-91333399D01*
X181904148Y-91526376D01*
X181910279Y-91530266D01*
X182199223Y-91691090D01*
X182205743Y-91694242D01*
X182511268Y-91820795D01*
X182518119Y-91823181D01*
X182836147Y-91913773D01*
X182843236Y-91915358D01*
X183169580Y-91968799D01*
X183176786Y-91969556D01*
X183507113Y-91985134D01*
X183514363Y-91985058D01*
X183844280Y-91962567D01*
X183851489Y-91961656D01*
X184176642Y-91901393D01*
X184183672Y-91899666D01*
X184499758Y-91802424D01*
X184506536Y-91799904D01*
X184809363Y-91666972D01*
X184815798Y-91663693D01*
X185101322Y-91496847D01*
X185107371Y-91492828D01*
X185353473Y-91308049D01*
X185361927Y-91296722D01*
X185355182Y-91284392D01*
X183492812Y-89422022D01*
X183478868Y-89414408D01*
X183477035Y-89414539D01*
X183470420Y-89418790D01*
X181606338Y-91282872D01*
X181598724Y-91296816D01*
X175008500Y-91296816D01*
X175008500Y-88961426D01*
X180546077Y-88961426D01*
X180554734Y-89292006D01*
X180555340Y-89299227D01*
X180601936Y-89626622D01*
X180603367Y-89633724D01*
X180687287Y-89953606D01*
X180689523Y-89960486D01*
X180809650Y-90268596D01*
X180812665Y-90275183D01*
X180967413Y-90567452D01*
X180971159Y-90573637D01*
X181158470Y-90846176D01*
X181162915Y-90851905D01*
X181223674Y-90921555D01*
X181236846Y-90929959D01*
X181246701Y-90924089D01*
X183107978Y-89062812D01*
X183114356Y-89051132D01*
X183844408Y-89051132D01*
X183844539Y-89052965D01*
X183848790Y-89059580D01*
X185711246Y-90922036D01*
X185724600Y-90929328D01*
X185734572Y-90922274D01*
X185834321Y-90802975D01*
X185838631Y-90797172D01*
X186020201Y-90520759D01*
X186023815Y-90514497D01*
X186172411Y-90219050D01*
X186175283Y-90212412D01*
X186288931Y-89901855D01*
X186291027Y-89894913D01*
X186368226Y-89573355D01*
X186369510Y-89566216D01*
X186409335Y-89237119D01*
X186409762Y-89231506D01*
X186415378Y-89052797D01*
X186415305Y-89047204D01*
X186396221Y-88716226D01*
X186395389Y-88709036D01*
X186338532Y-88383257D01*
X186336877Y-88376202D01*
X186242956Y-88059131D01*
X186240498Y-88052303D01*
X186110754Y-87748126D01*
X186107537Y-87741643D01*
X185943680Y-87454371D01*
X185939748Y-87448316D01*
X185743960Y-87181784D01*
X185739347Y-87176208D01*
X185738990Y-87175824D01*
X185725337Y-87167705D01*
X185724732Y-87167726D01*
X185716250Y-87172960D01*
X183852022Y-89037188D01*
X183844408Y-89051132D01*
X183114356Y-89051132D01*
X183115592Y-89048868D01*
X183115461Y-89047035D01*
X183111210Y-89040420D01*
X181247577Y-87176787D01*
X181234784Y-87169801D01*
X181224031Y-87177665D01*
X181071784Y-87371833D01*
X181067650Y-87377781D01*
X180894858Y-87659753D01*
X180891437Y-87666132D01*
X180752197Y-87966100D01*
X180749537Y-87972819D01*
X180645697Y-88286799D01*
X180643821Y-88293803D01*
X180576760Y-88617628D01*
X180575703Y-88624789D01*
X180546305Y-88954174D01*
X180546077Y-88961426D01*
X175008500Y-88961426D01*
X175008500Y-86806184D01*
X181600267Y-86806184D01*
X181606662Y-86817452D01*
X183467188Y-88677978D01*
X183481132Y-88685592D01*
X183482965Y-88685461D01*
X183489580Y-88681210D01*
X185352102Y-86818688D01*
X185359494Y-86805151D01*
X185352707Y-86795451D01*
X185257538Y-86714170D01*
X185251764Y-86709787D01*
X184977282Y-86525342D01*
X184971059Y-86521662D01*
X184677182Y-86369980D01*
X184670571Y-86367037D01*
X184361222Y-86250144D01*
X184354303Y-86247976D01*
X184033573Y-86167414D01*
X184026448Y-86166055D01*
X183698592Y-86122891D01*
X183691350Y-86122360D01*
X183360717Y-86117166D01*
X183353455Y-86117470D01*
X183024400Y-86150314D01*
X183017252Y-86151446D01*
X182694139Y-86221896D01*
X182687162Y-86223845D01*
X182374288Y-86330965D01*
X182367595Y-86333696D01*
X182069103Y-86476070D01*
X182062748Y-86479564D01*
X181782625Y-86655285D01*
X181776697Y-86659497D01*
X181608737Y-86794058D01*
X181600267Y-86806184D01*
X175008500Y-86806184D01*
X175008500Y-84258591D01*
X175028502Y-84190470D01*
X175082158Y-84143977D01*
X175152432Y-84133873D01*
X175217012Y-84163367D01*
X175235327Y-84183027D01*
X175248216Y-84200225D01*
X175260776Y-84212785D01*
X175362851Y-84289286D01*
X175378446Y-84297824D01*
X175498894Y-84342978D01*
X175514149Y-84346605D01*
X175565014Y-84352131D01*
X175571828Y-84352500D01*
X176194385Y-84352500D01*
X176209624Y-84348025D01*
X176210829Y-84346635D01*
X176212500Y-84338952D01*
X176212500Y-82866500D01*
X176232502Y-82798379D01*
X176286158Y-82751886D01*
X176338500Y-82740500D01*
X187719142Y-82740500D01*
X187787263Y-82760502D01*
G37*
G04 #@! TD.AperFunction*
G04 #@! TA.AperFunction,Conductor*
G36*
X194584600Y-87781512D02*
G01*
X194639347Y-87826715D01*
X194656707Y-87864728D01*
X194711656Y-88069801D01*
X194713978Y-88074782D01*
X194713979Y-88074783D01*
X194804058Y-88267959D01*
X194804061Y-88267964D01*
X194806384Y-88272946D01*
X194809540Y-88277453D01*
X194809541Y-88277455D01*
X194924313Y-88441366D01*
X194934949Y-88456556D01*
X194934957Y-88456564D01*
X194962740Y-88520049D01*
X194951523Y-88590153D01*
X194904184Y-88643065D01*
X194837754Y-88661999D01*
X194232246Y-88661999D01*
X194164125Y-88641997D01*
X194117632Y-88588341D01*
X194107528Y-88518067D01*
X194135016Y-88456591D01*
X194135051Y-88456556D01*
X194145687Y-88441366D01*
X194260459Y-88277455D01*
X194260460Y-88277453D01*
X194263616Y-88272946D01*
X194265939Y-88267964D01*
X194265942Y-88267959D01*
X194356021Y-88074783D01*
X194356022Y-88074782D01*
X194358344Y-88069801D01*
X194413293Y-87864728D01*
X194450245Y-87804105D01*
X194514105Y-87773084D01*
X194584600Y-87781512D01*
G37*
G04 #@! TD.AperFunction*
G04 #@! TA.AperFunction,Conductor*
G36*
X235970018Y-77808000D02*
G01*
X235984851Y-77810310D01*
X235984855Y-77810310D01*
X235993724Y-77811691D01*
X236012436Y-77809244D01*
X236035366Y-77808353D01*
X236306103Y-77822542D01*
X236319209Y-77823919D01*
X236534134Y-77857960D01*
X236615445Y-77870838D01*
X236628345Y-77873580D01*
X236773196Y-77912393D01*
X236918052Y-77951207D01*
X236930586Y-77955279D01*
X237210587Y-78062762D01*
X237222635Y-78068126D01*
X237489870Y-78204289D01*
X237501286Y-78210880D01*
X237752832Y-78374236D01*
X237763495Y-78381984D01*
X237996573Y-78570727D01*
X238006374Y-78579552D01*
X238218448Y-78791626D01*
X238227273Y-78801427D01*
X238416016Y-79034505D01*
X238423764Y-79045168D01*
X238587117Y-79296709D01*
X238593711Y-79308130D01*
X238643123Y-79405107D01*
X238656227Y-79474884D01*
X238629527Y-79540669D01*
X238571499Y-79581575D01*
X238500568Y-79584615D01*
X238437662Y-79547109D01*
X238359651Y-79461375D01*
X238359642Y-79461366D01*
X238356170Y-79457551D01*
X238352119Y-79454352D01*
X238352115Y-79454348D01*
X238184914Y-79322300D01*
X238184910Y-79322298D01*
X238180859Y-79319098D01*
X238160991Y-79308130D01*
X238052298Y-79248129D01*
X237985289Y-79211138D01*
X237980420Y-79209414D01*
X237980416Y-79209412D01*
X237779587Y-79138295D01*
X237779583Y-79138294D01*
X237774712Y-79136569D01*
X237769619Y-79135662D01*
X237769616Y-79135661D01*
X237559873Y-79098300D01*
X237559867Y-79098299D01*
X237554784Y-79097394D01*
X237480952Y-79096492D01*
X237336581Y-79094728D01*
X237336579Y-79094728D01*
X237331411Y-79094665D01*
X237110591Y-79128455D01*
X236898256Y-79197857D01*
X236700107Y-79301007D01*
X236695974Y-79304110D01*
X236695971Y-79304112D01*
X236525600Y-79432030D01*
X236521465Y-79435135D01*
X236496041Y-79461740D01*
X236381524Y-79581575D01*
X236367129Y-79596638D01*
X236259701Y-79754121D01*
X236204793Y-79799121D01*
X236134268Y-79807292D01*
X236070521Y-79776038D01*
X236049824Y-79751554D01*
X235969322Y-79627117D01*
X235969320Y-79627114D01*
X235966514Y-79622777D01*
X235816170Y-79457551D01*
X235812119Y-79454352D01*
X235812115Y-79454348D01*
X235644914Y-79322300D01*
X235644910Y-79322298D01*
X235640859Y-79319098D01*
X235620991Y-79308130D01*
X235512298Y-79248129D01*
X235445289Y-79211138D01*
X235440420Y-79209414D01*
X235440416Y-79209412D01*
X235239587Y-79138295D01*
X235239583Y-79138294D01*
X235234712Y-79136569D01*
X235229619Y-79135662D01*
X235229616Y-79135661D01*
X235019873Y-79098300D01*
X235019867Y-79098299D01*
X235014784Y-79097394D01*
X234940952Y-79096492D01*
X234796581Y-79094728D01*
X234796579Y-79094728D01*
X234791411Y-79094665D01*
X234570591Y-79128455D01*
X234358256Y-79197857D01*
X234160107Y-79301007D01*
X234155974Y-79304110D01*
X234155971Y-79304112D01*
X233985600Y-79432030D01*
X233981465Y-79435135D01*
X233956041Y-79461740D01*
X233841524Y-79581575D01*
X233827129Y-79596638D01*
X233719701Y-79754121D01*
X233664793Y-79799121D01*
X233594268Y-79807292D01*
X233530521Y-79776038D01*
X233509824Y-79751554D01*
X233429322Y-79627117D01*
X233429320Y-79627114D01*
X233426514Y-79622777D01*
X233276170Y-79457551D01*
X233272119Y-79454352D01*
X233272115Y-79454348D01*
X233104914Y-79322300D01*
X233104910Y-79322298D01*
X233100859Y-79319098D01*
X233080991Y-79308130D01*
X232972298Y-79248129D01*
X232905289Y-79211138D01*
X232900420Y-79209414D01*
X232900416Y-79209412D01*
X232699587Y-79138295D01*
X232699583Y-79138294D01*
X232694712Y-79136569D01*
X232689619Y-79135662D01*
X232689616Y-79135661D01*
X232479873Y-79098300D01*
X232479867Y-79098299D01*
X232474784Y-79097394D01*
X232400952Y-79096492D01*
X232256581Y-79094728D01*
X232256579Y-79094728D01*
X232251411Y-79094665D01*
X232030591Y-79128455D01*
X231818256Y-79197857D01*
X231620107Y-79301007D01*
X231615974Y-79304110D01*
X231615971Y-79304112D01*
X231445600Y-79432030D01*
X231441465Y-79435135D01*
X231416041Y-79461740D01*
X231301524Y-79581575D01*
X231287129Y-79596638D01*
X231179701Y-79754121D01*
X231124793Y-79799121D01*
X231054268Y-79807292D01*
X230990521Y-79776038D01*
X230969824Y-79751554D01*
X230889322Y-79627117D01*
X230889320Y-79627114D01*
X230886514Y-79622777D01*
X230736170Y-79457551D01*
X230732119Y-79454352D01*
X230732115Y-79454348D01*
X230564914Y-79322300D01*
X230564910Y-79322298D01*
X230560859Y-79319098D01*
X230540991Y-79308130D01*
X230432298Y-79248129D01*
X230365289Y-79211138D01*
X230360420Y-79209414D01*
X230360416Y-79209412D01*
X230159587Y-79138295D01*
X230159583Y-79138294D01*
X230154712Y-79136569D01*
X230149619Y-79135662D01*
X230149616Y-79135661D01*
X229939873Y-79098300D01*
X229939867Y-79098299D01*
X229934784Y-79097394D01*
X229860952Y-79096492D01*
X229716581Y-79094728D01*
X229716579Y-79094728D01*
X229711411Y-79094665D01*
X229490591Y-79128455D01*
X229278256Y-79197857D01*
X229080107Y-79301007D01*
X229075974Y-79304110D01*
X229075971Y-79304112D01*
X228905600Y-79432030D01*
X228901465Y-79435135D01*
X228876041Y-79461740D01*
X228761524Y-79581575D01*
X228747129Y-79596638D01*
X228639701Y-79754121D01*
X228584793Y-79799121D01*
X228514268Y-79807292D01*
X228450521Y-79776038D01*
X228429824Y-79751554D01*
X228349322Y-79627117D01*
X228349320Y-79627114D01*
X228346514Y-79622777D01*
X228196170Y-79457551D01*
X228192119Y-79454352D01*
X228192115Y-79454348D01*
X228024914Y-79322300D01*
X228024910Y-79322298D01*
X228020859Y-79319098D01*
X228000991Y-79308130D01*
X227892298Y-79248129D01*
X227825289Y-79211138D01*
X227820420Y-79209414D01*
X227820416Y-79209412D01*
X227619587Y-79138295D01*
X227619583Y-79138294D01*
X227614712Y-79136569D01*
X227609619Y-79135662D01*
X227609616Y-79135661D01*
X227399873Y-79098300D01*
X227399867Y-79098299D01*
X227394784Y-79097394D01*
X227320952Y-79096492D01*
X227176581Y-79094728D01*
X227176579Y-79094728D01*
X227171411Y-79094665D01*
X226950591Y-79128455D01*
X226738256Y-79197857D01*
X226540107Y-79301007D01*
X226535974Y-79304110D01*
X226535971Y-79304112D01*
X226365600Y-79432030D01*
X226361465Y-79435135D01*
X226336041Y-79461740D01*
X226221524Y-79581575D01*
X226207129Y-79596638D01*
X226099701Y-79754121D01*
X226044793Y-79799121D01*
X225974268Y-79807292D01*
X225910521Y-79776038D01*
X225889824Y-79751554D01*
X225809322Y-79627117D01*
X225809320Y-79627114D01*
X225806514Y-79622777D01*
X225656170Y-79457551D01*
X225652119Y-79454352D01*
X225652115Y-79454348D01*
X225484914Y-79322300D01*
X225484910Y-79322298D01*
X225480859Y-79319098D01*
X225460991Y-79308130D01*
X225352298Y-79248129D01*
X225285289Y-79211138D01*
X225280420Y-79209414D01*
X225280416Y-79209412D01*
X225079587Y-79138295D01*
X225079583Y-79138294D01*
X225074712Y-79136569D01*
X225069619Y-79135662D01*
X225069616Y-79135661D01*
X224859873Y-79098300D01*
X224859867Y-79098299D01*
X224854784Y-79097394D01*
X224780952Y-79096492D01*
X224636581Y-79094728D01*
X224636579Y-79094728D01*
X224631411Y-79094665D01*
X224410591Y-79128455D01*
X224198256Y-79197857D01*
X224000107Y-79301007D01*
X223995974Y-79304110D01*
X223995971Y-79304112D01*
X223825600Y-79432030D01*
X223821465Y-79435135D01*
X223796041Y-79461740D01*
X223681524Y-79581575D01*
X223667129Y-79596638D01*
X223559701Y-79754121D01*
X223504793Y-79799121D01*
X223434268Y-79807292D01*
X223370521Y-79776038D01*
X223349824Y-79751554D01*
X223269322Y-79627117D01*
X223269320Y-79627114D01*
X223266514Y-79622777D01*
X223116170Y-79457551D01*
X223112119Y-79454352D01*
X223112115Y-79454348D01*
X222944914Y-79322300D01*
X222944910Y-79322298D01*
X222940859Y-79319098D01*
X222920991Y-79308130D01*
X222812298Y-79248129D01*
X222745289Y-79211138D01*
X222740420Y-79209414D01*
X222740416Y-79209412D01*
X222539587Y-79138295D01*
X222539583Y-79138294D01*
X222534712Y-79136569D01*
X222529619Y-79135662D01*
X222529616Y-79135661D01*
X222319873Y-79098300D01*
X222319867Y-79098299D01*
X222314784Y-79097394D01*
X222240952Y-79096492D01*
X222096581Y-79094728D01*
X222096579Y-79094728D01*
X222091411Y-79094665D01*
X221870591Y-79128455D01*
X221658256Y-79197857D01*
X221460107Y-79301007D01*
X221455974Y-79304110D01*
X221455971Y-79304112D01*
X221285600Y-79432030D01*
X221281465Y-79435135D01*
X221256041Y-79461740D01*
X221141524Y-79581575D01*
X221127129Y-79596638D01*
X221019701Y-79754121D01*
X220964793Y-79799121D01*
X220894268Y-79807292D01*
X220830521Y-79776038D01*
X220809824Y-79751554D01*
X220729322Y-79627117D01*
X220729320Y-79627114D01*
X220726514Y-79622777D01*
X220576170Y-79457551D01*
X220572119Y-79454352D01*
X220572115Y-79454348D01*
X220404914Y-79322300D01*
X220404910Y-79322298D01*
X220400859Y-79319098D01*
X220380991Y-79308130D01*
X220272298Y-79248129D01*
X220205289Y-79211138D01*
X220200420Y-79209414D01*
X220200416Y-79209412D01*
X219999587Y-79138295D01*
X219999583Y-79138294D01*
X219994712Y-79136569D01*
X219989619Y-79135662D01*
X219989616Y-79135661D01*
X219779873Y-79098300D01*
X219779867Y-79098299D01*
X219774784Y-79097394D01*
X219700952Y-79096492D01*
X219556581Y-79094728D01*
X219556579Y-79094728D01*
X219551411Y-79094665D01*
X219330591Y-79128455D01*
X219118256Y-79197857D01*
X218920107Y-79301007D01*
X218915974Y-79304110D01*
X218915971Y-79304112D01*
X218745600Y-79432030D01*
X218741465Y-79435135D01*
X218716041Y-79461740D01*
X218601524Y-79581575D01*
X218587129Y-79596638D01*
X218479701Y-79754121D01*
X218424793Y-79799121D01*
X218354268Y-79807292D01*
X218290521Y-79776038D01*
X218269824Y-79751554D01*
X218189322Y-79627117D01*
X218189320Y-79627114D01*
X218186514Y-79622777D01*
X218036170Y-79457551D01*
X218032119Y-79454352D01*
X218032115Y-79454348D01*
X217864914Y-79322300D01*
X217864910Y-79322298D01*
X217860859Y-79319098D01*
X217840991Y-79308130D01*
X217732298Y-79248129D01*
X217665289Y-79211138D01*
X217660420Y-79209414D01*
X217660416Y-79209412D01*
X217459587Y-79138295D01*
X217459583Y-79138294D01*
X217454712Y-79136569D01*
X217449619Y-79135662D01*
X217449616Y-79135661D01*
X217239873Y-79098300D01*
X217239867Y-79098299D01*
X217234784Y-79097394D01*
X217160952Y-79096492D01*
X217016581Y-79094728D01*
X217016579Y-79094728D01*
X217011411Y-79094665D01*
X216790591Y-79128455D01*
X216578256Y-79197857D01*
X216380107Y-79301007D01*
X216375974Y-79304110D01*
X216375971Y-79304112D01*
X216205600Y-79432030D01*
X216201465Y-79435135D01*
X216176041Y-79461740D01*
X216061524Y-79581575D01*
X216047129Y-79596638D01*
X215939701Y-79754121D01*
X215884793Y-79799121D01*
X215814268Y-79807292D01*
X215750521Y-79776038D01*
X215729824Y-79751554D01*
X215649322Y-79627117D01*
X215649320Y-79627114D01*
X215646514Y-79622777D01*
X215496170Y-79457551D01*
X215492119Y-79454352D01*
X215492115Y-79454348D01*
X215324914Y-79322300D01*
X215324910Y-79322298D01*
X215320859Y-79319098D01*
X215300991Y-79308130D01*
X215192298Y-79248129D01*
X215125289Y-79211138D01*
X215120420Y-79209414D01*
X215120416Y-79209412D01*
X214919587Y-79138295D01*
X214919583Y-79138294D01*
X214914712Y-79136569D01*
X214909619Y-79135662D01*
X214909616Y-79135661D01*
X214699873Y-79098300D01*
X214699867Y-79098299D01*
X214694784Y-79097394D01*
X214620952Y-79096492D01*
X214476581Y-79094728D01*
X214476579Y-79094728D01*
X214471411Y-79094665D01*
X214250591Y-79128455D01*
X214038256Y-79197857D01*
X213840107Y-79301007D01*
X213835974Y-79304110D01*
X213835971Y-79304112D01*
X213665600Y-79432030D01*
X213661465Y-79435135D01*
X213636041Y-79461740D01*
X213521524Y-79581575D01*
X213507129Y-79596638D01*
X213504220Y-79600903D01*
X213504214Y-79600911D01*
X213491904Y-79618957D01*
X213399704Y-79754118D01*
X213399398Y-79754566D01*
X213344487Y-79799569D01*
X213273962Y-79807740D01*
X213210215Y-79776486D01*
X213189518Y-79752002D01*
X213108926Y-79627426D01*
X213102636Y-79619257D01*
X212959306Y-79461740D01*
X212951773Y-79454715D01*
X212784639Y-79322722D01*
X212776052Y-79317017D01*
X212589617Y-79214099D01*
X212580205Y-79209869D01*
X212379459Y-79138780D01*
X212369488Y-79136146D01*
X212298337Y-79123472D01*
X212285040Y-79124932D01*
X212280500Y-79139489D01*
X212280500Y-82722385D01*
X212284975Y-82737624D01*
X212286365Y-82738829D01*
X212294048Y-82740500D01*
X218097083Y-82740500D01*
X218165204Y-82760502D01*
X218211697Y-82814158D01*
X218221801Y-82884432D01*
X218192307Y-82949012D01*
X218151024Y-82980286D01*
X218145003Y-82982336D01*
X218139005Y-82986026D01*
X218139003Y-82986027D01*
X218006065Y-83067811D01*
X218006063Y-83067813D01*
X218000066Y-83071502D01*
X217946802Y-83123662D01*
X217891789Y-83177536D01*
X217878486Y-83190563D01*
X217874670Y-83196484D01*
X217870219Y-83201942D01*
X217867766Y-83199941D01*
X217824536Y-83237231D01*
X217772451Y-83248500D01*
X216569239Y-83248500D01*
X216521020Y-83238908D01*
X216507509Y-83233312D01*
X216507510Y-83233312D01*
X216499878Y-83230151D01*
X216491691Y-83229073D01*
X216491690Y-83229073D01*
X216480485Y-83227598D01*
X216441472Y-83222462D01*
X216380912Y-83214489D01*
X216380909Y-83214489D01*
X216380901Y-83214488D01*
X216349216Y-83210317D01*
X216341027Y-83209239D01*
X216309334Y-83213411D01*
X216292891Y-83214489D01*
X215619185Y-83214489D01*
X215602739Y-83213411D01*
X215579237Y-83210317D01*
X215571049Y-83209239D01*
X215562861Y-83210317D01*
X215531178Y-83214488D01*
X215531169Y-83214489D01*
X215531164Y-83214489D01*
X215412199Y-83230151D01*
X215404571Y-83233311D01*
X215404566Y-83233312D01*
X215391057Y-83238908D01*
X215342838Y-83248500D01*
X209358500Y-83248500D01*
X209290379Y-83228498D01*
X209243886Y-83174842D01*
X209232500Y-83122500D01*
X209232500Y-82722385D01*
X209740500Y-82722385D01*
X209744975Y-82737624D01*
X209746365Y-82738829D01*
X209754048Y-82740500D01*
X211754385Y-82740500D01*
X211769624Y-82736025D01*
X211770829Y-82734635D01*
X211772500Y-82726952D01*
X211772500Y-80726615D01*
X211768025Y-80711376D01*
X211766635Y-80710171D01*
X211758952Y-80708500D01*
X209758615Y-80708500D01*
X209743376Y-80712975D01*
X209742171Y-80714365D01*
X209740500Y-80722048D01*
X209740500Y-82722385D01*
X209232500Y-82722385D01*
X209232500Y-80182385D01*
X209740500Y-80182385D01*
X209744975Y-80197624D01*
X209746365Y-80198829D01*
X209754048Y-80200500D01*
X211754385Y-80200500D01*
X211769624Y-80196025D01*
X211770829Y-80194635D01*
X211772500Y-80186952D01*
X211772500Y-79137602D01*
X211768582Y-79124258D01*
X211754306Y-79122271D01*
X211715824Y-79128160D01*
X211705788Y-79130551D01*
X211503368Y-79196712D01*
X211493859Y-79200709D01*
X211304963Y-79299042D01*
X211296238Y-79304536D01*
X211125933Y-79432405D01*
X211118226Y-79439248D01*
X210971090Y-79593217D01*
X210964604Y-79601227D01*
X210859693Y-79755021D01*
X210804782Y-79800024D01*
X210734257Y-79808195D01*
X210670510Y-79776941D01*
X210649813Y-79752457D01*
X210568927Y-79627426D01*
X210562636Y-79619257D01*
X210419306Y-79461740D01*
X210411773Y-79454715D01*
X210244639Y-79322722D01*
X210236052Y-79317017D01*
X210049617Y-79214099D01*
X210040205Y-79209869D01*
X209839459Y-79138780D01*
X209829488Y-79136146D01*
X209758337Y-79123472D01*
X209745040Y-79124932D01*
X209740500Y-79139489D01*
X209740500Y-80182385D01*
X209232500Y-80182385D01*
X209232500Y-79137602D01*
X209228582Y-79124258D01*
X209214306Y-79122271D01*
X209175824Y-79128160D01*
X209165788Y-79130551D01*
X208963368Y-79196712D01*
X208953859Y-79200709D01*
X208764963Y-79299042D01*
X208756238Y-79304536D01*
X208585933Y-79432405D01*
X208578226Y-79439248D01*
X208431090Y-79593217D01*
X208424609Y-79601222D01*
X208319998Y-79754574D01*
X208265087Y-79799576D01*
X208194562Y-79807747D01*
X208130815Y-79776493D01*
X208110118Y-79752009D01*
X208029322Y-79627117D01*
X208029320Y-79627114D01*
X208026514Y-79622777D01*
X207876170Y-79457551D01*
X207872119Y-79454352D01*
X207872115Y-79454348D01*
X207704914Y-79322300D01*
X207704910Y-79322298D01*
X207700859Y-79319098D01*
X207680991Y-79308130D01*
X207572298Y-79248129D01*
X207505289Y-79211138D01*
X207500420Y-79209414D01*
X207500416Y-79209412D01*
X207299587Y-79138295D01*
X207299583Y-79138294D01*
X207294712Y-79136569D01*
X207289619Y-79135662D01*
X207289616Y-79135661D01*
X207079873Y-79098300D01*
X207079867Y-79098299D01*
X207074784Y-79097394D01*
X207000952Y-79096492D01*
X206856581Y-79094728D01*
X206856579Y-79094728D01*
X206851411Y-79094665D01*
X206630591Y-79128455D01*
X206418256Y-79197857D01*
X206220107Y-79301007D01*
X206215974Y-79304110D01*
X206215971Y-79304112D01*
X206045600Y-79432030D01*
X206041465Y-79435135D01*
X206016041Y-79461740D01*
X205901524Y-79581575D01*
X205887129Y-79596638D01*
X205884220Y-79600903D01*
X205884214Y-79600911D01*
X205871904Y-79618957D01*
X205779704Y-79754118D01*
X205779398Y-79754566D01*
X205724487Y-79799569D01*
X205653962Y-79807740D01*
X205590215Y-79776486D01*
X205569518Y-79752002D01*
X205488926Y-79627426D01*
X205482636Y-79619257D01*
X205339306Y-79461740D01*
X205331773Y-79454715D01*
X205164639Y-79322722D01*
X205156052Y-79317017D01*
X204969617Y-79214099D01*
X204960205Y-79209869D01*
X204759459Y-79138780D01*
X204749488Y-79136146D01*
X204678337Y-79123472D01*
X204665040Y-79124932D01*
X204660500Y-79139489D01*
X204660500Y-83122500D01*
X204640498Y-83190621D01*
X204586842Y-83237114D01*
X204534500Y-83248500D01*
X190892979Y-83248500D01*
X190850714Y-83241199D01*
X190754300Y-83206868D01*
X190585329Y-83186720D01*
X190578326Y-83187456D01*
X190578325Y-83187456D01*
X190423101Y-83203770D01*
X190423097Y-83203771D01*
X190416093Y-83204507D01*
X190409422Y-83206778D01*
X190306609Y-83241778D01*
X190266004Y-83248500D01*
X188842695Y-83248500D01*
X188774574Y-83228498D01*
X188735842Y-83189271D01*
X188732432Y-83183813D01*
X188732427Y-83183806D01*
X188728696Y-83177836D01*
X188709950Y-83158958D01*
X188634639Y-83083119D01*
X188608790Y-83057089D01*
X188592537Y-83046774D01*
X188476106Y-82972885D01*
X188429307Y-82919496D01*
X188418802Y-82849281D01*
X188447926Y-82784533D01*
X188507432Y-82745809D01*
X188543620Y-82740500D01*
X199054385Y-82740500D01*
X199069624Y-82736025D01*
X199070829Y-82734635D01*
X199072500Y-82726952D01*
X199072500Y-82722385D01*
X199580500Y-82722385D01*
X199584975Y-82737624D01*
X199586365Y-82738829D01*
X199594048Y-82740500D01*
X201594385Y-82740500D01*
X201609624Y-82736025D01*
X201610829Y-82734635D01*
X201612500Y-82726952D01*
X201612500Y-82722385D01*
X202120500Y-82722385D01*
X202124975Y-82737624D01*
X202126365Y-82738829D01*
X202134048Y-82740500D01*
X204134385Y-82740500D01*
X204149624Y-82736025D01*
X204150829Y-82734635D01*
X204152500Y-82726952D01*
X204152500Y-80726615D01*
X204148025Y-80711376D01*
X204146635Y-80710171D01*
X204138952Y-80708500D01*
X202138615Y-80708500D01*
X202123376Y-80712975D01*
X202122171Y-80714365D01*
X202120500Y-80722048D01*
X202120500Y-82722385D01*
X201612500Y-82722385D01*
X201612500Y-80726615D01*
X201608025Y-80711376D01*
X201606635Y-80710171D01*
X201598952Y-80708500D01*
X199598615Y-80708500D01*
X199583376Y-80712975D01*
X199582171Y-80714365D01*
X199580500Y-80722048D01*
X199580500Y-82722385D01*
X199072500Y-82722385D01*
X199072500Y-80182385D01*
X199580500Y-80182385D01*
X199584975Y-80197624D01*
X199586365Y-80198829D01*
X199594048Y-80200500D01*
X201594385Y-80200500D01*
X201609624Y-80196025D01*
X201610829Y-80194635D01*
X201612500Y-80186952D01*
X201612500Y-80182385D01*
X202120500Y-80182385D01*
X202124975Y-80197624D01*
X202126365Y-80198829D01*
X202134048Y-80200500D01*
X204134385Y-80200500D01*
X204149624Y-80196025D01*
X204150829Y-80194635D01*
X204152500Y-80186952D01*
X204152500Y-79137602D01*
X204148582Y-79124258D01*
X204134306Y-79122271D01*
X204095824Y-79128160D01*
X204085788Y-79130551D01*
X203883368Y-79196712D01*
X203873859Y-79200709D01*
X203684963Y-79299042D01*
X203676238Y-79304536D01*
X203505933Y-79432405D01*
X203498226Y-79439248D01*
X203351090Y-79593217D01*
X203344604Y-79601227D01*
X203239693Y-79755021D01*
X203184782Y-79800024D01*
X203114257Y-79808195D01*
X203050510Y-79776941D01*
X203029813Y-79752457D01*
X202948927Y-79627426D01*
X202942636Y-79619257D01*
X202799306Y-79461740D01*
X202791773Y-79454715D01*
X202624639Y-79322722D01*
X202616052Y-79317017D01*
X202429617Y-79214099D01*
X202420205Y-79209869D01*
X202219459Y-79138780D01*
X202209488Y-79136146D01*
X202138337Y-79123472D01*
X202125040Y-79124932D01*
X202120500Y-79139489D01*
X202120500Y-80182385D01*
X201612500Y-80182385D01*
X201612500Y-79137602D01*
X201608582Y-79124258D01*
X201594306Y-79122271D01*
X201555824Y-79128160D01*
X201545788Y-79130551D01*
X201343368Y-79196712D01*
X201333859Y-79200709D01*
X201144963Y-79299042D01*
X201136238Y-79304536D01*
X200965933Y-79432405D01*
X200958226Y-79439248D01*
X200811090Y-79593217D01*
X200804604Y-79601227D01*
X200699693Y-79755021D01*
X200644782Y-79800024D01*
X200574257Y-79808195D01*
X200510510Y-79776941D01*
X200489813Y-79752457D01*
X200408927Y-79627426D01*
X200402636Y-79619257D01*
X200259306Y-79461740D01*
X200251773Y-79454715D01*
X200084639Y-79322722D01*
X200076052Y-79317017D01*
X199889617Y-79214099D01*
X199880205Y-79209869D01*
X199679459Y-79138780D01*
X199669488Y-79136146D01*
X199598337Y-79123472D01*
X199585040Y-79124932D01*
X199580500Y-79139489D01*
X199580500Y-80182385D01*
X199072500Y-80182385D01*
X199072500Y-79137602D01*
X199068582Y-79124258D01*
X199054306Y-79122271D01*
X199015824Y-79128160D01*
X199005788Y-79130551D01*
X198803368Y-79196712D01*
X198793859Y-79200709D01*
X198604963Y-79299042D01*
X198596238Y-79304536D01*
X198425933Y-79432405D01*
X198418226Y-79439248D01*
X198271090Y-79593217D01*
X198264609Y-79601222D01*
X198159998Y-79754574D01*
X198105087Y-79799576D01*
X198034562Y-79807747D01*
X197970815Y-79776493D01*
X197950118Y-79752009D01*
X197869322Y-79627117D01*
X197869320Y-79627114D01*
X197866514Y-79622777D01*
X197716170Y-79457551D01*
X197712119Y-79454352D01*
X197712115Y-79454348D01*
X197544914Y-79322300D01*
X197544910Y-79322298D01*
X197540859Y-79319098D01*
X197520991Y-79308130D01*
X197412298Y-79248129D01*
X197345289Y-79211138D01*
X197340420Y-79209414D01*
X197340416Y-79209412D01*
X197139587Y-79138295D01*
X197139583Y-79138294D01*
X197134712Y-79136569D01*
X197129619Y-79135662D01*
X197129616Y-79135661D01*
X196919873Y-79098300D01*
X196919867Y-79098299D01*
X196914784Y-79097394D01*
X196840952Y-79096492D01*
X196696581Y-79094728D01*
X196696579Y-79094728D01*
X196691411Y-79094665D01*
X196470591Y-79128455D01*
X196258256Y-79197857D01*
X196060107Y-79301007D01*
X196055974Y-79304110D01*
X196055971Y-79304112D01*
X195885600Y-79432030D01*
X195881465Y-79435135D01*
X195856041Y-79461740D01*
X195741524Y-79581575D01*
X195727129Y-79596638D01*
X195619701Y-79754121D01*
X195564793Y-79799121D01*
X195494268Y-79807292D01*
X195430521Y-79776038D01*
X195409824Y-79751554D01*
X195329322Y-79627117D01*
X195329320Y-79627114D01*
X195326514Y-79622777D01*
X195176170Y-79457551D01*
X195172119Y-79454352D01*
X195172115Y-79454348D01*
X195004914Y-79322300D01*
X195004910Y-79322298D01*
X195000859Y-79319098D01*
X194980991Y-79308130D01*
X194872298Y-79248129D01*
X194805289Y-79211138D01*
X194800420Y-79209414D01*
X194800416Y-79209412D01*
X194599587Y-79138295D01*
X194599583Y-79138294D01*
X194594712Y-79136569D01*
X194589619Y-79135662D01*
X194589616Y-79135661D01*
X194379873Y-79098300D01*
X194379867Y-79098299D01*
X194374784Y-79097394D01*
X194300952Y-79096492D01*
X194156581Y-79094728D01*
X194156579Y-79094728D01*
X194151411Y-79094665D01*
X193930591Y-79128455D01*
X193718256Y-79197857D01*
X193520107Y-79301007D01*
X193515974Y-79304110D01*
X193515971Y-79304112D01*
X193345600Y-79432030D01*
X193341465Y-79435135D01*
X193316041Y-79461740D01*
X193201524Y-79581575D01*
X193187129Y-79596638D01*
X193079701Y-79754121D01*
X193024793Y-79799121D01*
X192954268Y-79807292D01*
X192890521Y-79776038D01*
X192869824Y-79751554D01*
X192789322Y-79627117D01*
X192789320Y-79627114D01*
X192786514Y-79622777D01*
X192636170Y-79457551D01*
X192632119Y-79454352D01*
X192632115Y-79454348D01*
X192464914Y-79322300D01*
X192464910Y-79322298D01*
X192460859Y-79319098D01*
X192440991Y-79308130D01*
X192332298Y-79248129D01*
X192265289Y-79211138D01*
X192260420Y-79209414D01*
X192260416Y-79209412D01*
X192059587Y-79138295D01*
X192059583Y-79138294D01*
X192054712Y-79136569D01*
X192049619Y-79135662D01*
X192049616Y-79135661D01*
X191839873Y-79098300D01*
X191839867Y-79098299D01*
X191834784Y-79097394D01*
X191760952Y-79096492D01*
X191616581Y-79094728D01*
X191616579Y-79094728D01*
X191611411Y-79094665D01*
X191390591Y-79128455D01*
X191178256Y-79197857D01*
X190980107Y-79301007D01*
X190975974Y-79304110D01*
X190975971Y-79304112D01*
X190805600Y-79432030D01*
X190801465Y-79435135D01*
X190776041Y-79461740D01*
X190661524Y-79581575D01*
X190647129Y-79596638D01*
X190539701Y-79754121D01*
X190484793Y-79799121D01*
X190414268Y-79807292D01*
X190350521Y-79776038D01*
X190329824Y-79751554D01*
X190249322Y-79627117D01*
X190249320Y-79627114D01*
X190246514Y-79622777D01*
X190096170Y-79457551D01*
X190092119Y-79454352D01*
X190092115Y-79454348D01*
X189924914Y-79322300D01*
X189924910Y-79322298D01*
X189920859Y-79319098D01*
X189900991Y-79308130D01*
X189792298Y-79248129D01*
X189725289Y-79211138D01*
X189720420Y-79209414D01*
X189720416Y-79209412D01*
X189519587Y-79138295D01*
X189519583Y-79138294D01*
X189514712Y-79136569D01*
X189509619Y-79135662D01*
X189509616Y-79135661D01*
X189299873Y-79098300D01*
X189299867Y-79098299D01*
X189294784Y-79097394D01*
X189220952Y-79096492D01*
X189076581Y-79094728D01*
X189076579Y-79094728D01*
X189071411Y-79094665D01*
X188850591Y-79128455D01*
X188638256Y-79197857D01*
X188440107Y-79301007D01*
X188435974Y-79304110D01*
X188435971Y-79304112D01*
X188265600Y-79432030D01*
X188261465Y-79435135D01*
X188236041Y-79461740D01*
X188121524Y-79581575D01*
X188107129Y-79596638D01*
X187999701Y-79754121D01*
X187944793Y-79799121D01*
X187874268Y-79807292D01*
X187810521Y-79776038D01*
X187789824Y-79751554D01*
X187709322Y-79627117D01*
X187709320Y-79627114D01*
X187706514Y-79622777D01*
X187556170Y-79457551D01*
X187552119Y-79454352D01*
X187552115Y-79454348D01*
X187384914Y-79322300D01*
X187384910Y-79322298D01*
X187380859Y-79319098D01*
X187360991Y-79308130D01*
X187252298Y-79248129D01*
X187185289Y-79211138D01*
X187180420Y-79209414D01*
X187180416Y-79209412D01*
X186979587Y-79138295D01*
X186979583Y-79138294D01*
X186974712Y-79136569D01*
X186969619Y-79135662D01*
X186969616Y-79135661D01*
X186759873Y-79098300D01*
X186759867Y-79098299D01*
X186754784Y-79097394D01*
X186680952Y-79096492D01*
X186536581Y-79094728D01*
X186536579Y-79094728D01*
X186531411Y-79094665D01*
X186310591Y-79128455D01*
X186098256Y-79197857D01*
X185900107Y-79301007D01*
X185895974Y-79304110D01*
X185895971Y-79304112D01*
X185725600Y-79432030D01*
X185721465Y-79435135D01*
X185696041Y-79461740D01*
X185581524Y-79581575D01*
X185567129Y-79596638D01*
X185459701Y-79754121D01*
X185404793Y-79799121D01*
X185334268Y-79807292D01*
X185270521Y-79776038D01*
X185249824Y-79751554D01*
X185169322Y-79627117D01*
X185169320Y-79627114D01*
X185166514Y-79622777D01*
X185016170Y-79457551D01*
X185012119Y-79454352D01*
X185012115Y-79454348D01*
X184844914Y-79322300D01*
X184844910Y-79322298D01*
X184840859Y-79319098D01*
X184820991Y-79308130D01*
X184712298Y-79248129D01*
X184645289Y-79211138D01*
X184640420Y-79209414D01*
X184640416Y-79209412D01*
X184439587Y-79138295D01*
X184439583Y-79138294D01*
X184434712Y-79136569D01*
X184429619Y-79135662D01*
X184429616Y-79135661D01*
X184219873Y-79098300D01*
X184219867Y-79098299D01*
X184214784Y-79097394D01*
X184140952Y-79096492D01*
X183996581Y-79094728D01*
X183996579Y-79094728D01*
X183991411Y-79094665D01*
X183770591Y-79128455D01*
X183558256Y-79197857D01*
X183360107Y-79301007D01*
X183355974Y-79304110D01*
X183355971Y-79304112D01*
X183185600Y-79432030D01*
X183181465Y-79435135D01*
X183156041Y-79461740D01*
X183041524Y-79581575D01*
X183027129Y-79596638D01*
X182919701Y-79754121D01*
X182864793Y-79799121D01*
X182794268Y-79807292D01*
X182730521Y-79776038D01*
X182709824Y-79751554D01*
X182629322Y-79627117D01*
X182629320Y-79627114D01*
X182626514Y-79622777D01*
X182476170Y-79457551D01*
X182472119Y-79454352D01*
X182472115Y-79454348D01*
X182304914Y-79322300D01*
X182304910Y-79322298D01*
X182300859Y-79319098D01*
X182280991Y-79308130D01*
X182172298Y-79248129D01*
X182105289Y-79211138D01*
X182100420Y-79209414D01*
X182100416Y-79209412D01*
X181899587Y-79138295D01*
X181899583Y-79138294D01*
X181894712Y-79136569D01*
X181889619Y-79135662D01*
X181889616Y-79135661D01*
X181679873Y-79098300D01*
X181679867Y-79098299D01*
X181674784Y-79097394D01*
X181600952Y-79096492D01*
X181456581Y-79094728D01*
X181456579Y-79094728D01*
X181451411Y-79094665D01*
X181230591Y-79128455D01*
X181018256Y-79197857D01*
X180820107Y-79301007D01*
X180815974Y-79304110D01*
X180815971Y-79304112D01*
X180645600Y-79432030D01*
X180641465Y-79435135D01*
X180616041Y-79461740D01*
X180501524Y-79581575D01*
X180487129Y-79596638D01*
X180379701Y-79754121D01*
X180324793Y-79799121D01*
X180254268Y-79807292D01*
X180190521Y-79776038D01*
X180169824Y-79751554D01*
X180089322Y-79627117D01*
X180089320Y-79627114D01*
X180086514Y-79622777D01*
X179936170Y-79457551D01*
X179932119Y-79454352D01*
X179932115Y-79454348D01*
X179764914Y-79322300D01*
X179764910Y-79322298D01*
X179760859Y-79319098D01*
X179740991Y-79308130D01*
X179632298Y-79248129D01*
X179565289Y-79211138D01*
X179560420Y-79209414D01*
X179560416Y-79209412D01*
X179359587Y-79138295D01*
X179359583Y-79138294D01*
X179354712Y-79136569D01*
X179349619Y-79135662D01*
X179349616Y-79135661D01*
X179139873Y-79098300D01*
X179139867Y-79098299D01*
X179134784Y-79097394D01*
X179060952Y-79096492D01*
X178916581Y-79094728D01*
X178916579Y-79094728D01*
X178911411Y-79094665D01*
X178690591Y-79128455D01*
X178478256Y-79197857D01*
X178280107Y-79301007D01*
X178275974Y-79304110D01*
X178275971Y-79304112D01*
X178105600Y-79432030D01*
X178101465Y-79435135D01*
X178076041Y-79461740D01*
X177961524Y-79581575D01*
X177947129Y-79596638D01*
X177839701Y-79754121D01*
X177784793Y-79799121D01*
X177714268Y-79807292D01*
X177650521Y-79776038D01*
X177629824Y-79751554D01*
X177549322Y-79627117D01*
X177549320Y-79627114D01*
X177546514Y-79622777D01*
X177396170Y-79457551D01*
X177392119Y-79454352D01*
X177392115Y-79454348D01*
X177224914Y-79322300D01*
X177224910Y-79322298D01*
X177220859Y-79319098D01*
X177200991Y-79308130D01*
X177092298Y-79248129D01*
X177025289Y-79211138D01*
X177020420Y-79209414D01*
X177020416Y-79209412D01*
X176819587Y-79138295D01*
X176819583Y-79138294D01*
X176814712Y-79136569D01*
X176809619Y-79135662D01*
X176809616Y-79135661D01*
X176599873Y-79098300D01*
X176599867Y-79098299D01*
X176594784Y-79097394D01*
X176520952Y-79096492D01*
X176376581Y-79094728D01*
X176376579Y-79094728D01*
X176371411Y-79094665D01*
X176150591Y-79128455D01*
X175938256Y-79197857D01*
X175740107Y-79301007D01*
X175735974Y-79304110D01*
X175735971Y-79304112D01*
X175664602Y-79357698D01*
X175598117Y-79382604D01*
X175528722Y-79367612D01*
X175478448Y-79317481D01*
X175463257Y-79248129D01*
X175483276Y-79188314D01*
X175516209Y-79137602D01*
X175576236Y-79045168D01*
X175583984Y-79034505D01*
X175772727Y-78801427D01*
X175781552Y-78791626D01*
X175993626Y-78579552D01*
X176003427Y-78570727D01*
X176236505Y-78381984D01*
X176247168Y-78374236D01*
X176498714Y-78210880D01*
X176510130Y-78204289D01*
X176777365Y-78068126D01*
X176789413Y-78062762D01*
X177069414Y-77955279D01*
X177081948Y-77951207D01*
X177226804Y-77912393D01*
X177371655Y-77873580D01*
X177384555Y-77870838D01*
X177465866Y-77857960D01*
X177680791Y-77823919D01*
X177693899Y-77822542D01*
X177769063Y-77818603D01*
X177957299Y-77808738D01*
X177983276Y-77810065D01*
X177984846Y-77810309D01*
X177984850Y-77810309D01*
X177993724Y-77811691D01*
X178002626Y-77810527D01*
X178002628Y-77810527D01*
X178017677Y-77808559D01*
X178025286Y-77807564D01*
X178041621Y-77806500D01*
X235950633Y-77806500D01*
X235970018Y-77808000D01*
G37*
G04 #@! TD.AperFunction*
G04 #@! TA.AperFunction,Conductor*
G36*
X225137122Y-82760502D02*
G01*
X225183615Y-82814158D01*
X225195001Y-82866500D01*
X225195001Y-83122500D01*
X225174999Y-83190621D01*
X225121343Y-83237114D01*
X225069001Y-83248500D01*
X220989074Y-83248500D01*
X220920953Y-83228498D01*
X220912373Y-83222465D01*
X220889365Y-83204810D01*
X220881739Y-83201651D01*
X220881737Y-83201650D01*
X220748969Y-83146656D01*
X220741340Y-83143496D01*
X220733153Y-83142418D01*
X220733152Y-83142418D01*
X220708092Y-83139119D01*
X220622382Y-83127835D01*
X220622380Y-83127835D01*
X220622374Y-83127834D01*
X220622372Y-83127834D01*
X220622363Y-83127833D01*
X220590678Y-83123662D01*
X220582489Y-83122584D01*
X220557004Y-83125939D01*
X220524120Y-83125939D01*
X220498628Y-83122583D01*
X220339777Y-83143496D01*
X220191752Y-83204810D01*
X220179138Y-83214489D01*
X220168746Y-83222463D01*
X220102525Y-83248063D01*
X220092042Y-83248500D01*
X219167438Y-83248500D01*
X219099317Y-83228498D01*
X219070268Y-83202191D01*
X219068192Y-83198869D01*
X219060002Y-83190621D01*
X218953248Y-83083119D01*
X218948286Y-83078122D01*
X218932039Y-83067811D01*
X218893406Y-83043294D01*
X218804608Y-82986941D01*
X218797964Y-82984575D01*
X218791639Y-82981490D01*
X218792414Y-82979901D01*
X218742252Y-82943504D01*
X218716452Y-82877361D01*
X218730508Y-82807770D01*
X218779956Y-82756825D01*
X218841983Y-82740500D01*
X225069001Y-82740500D01*
X225137122Y-82760502D01*
G37*
G04 #@! TD.AperFunction*
G04 #@! TA.AperFunction,Conductor*
G36*
X233698526Y-81129644D02*
G01*
X233726375Y-81161494D01*
X233786487Y-81259588D01*
X233932750Y-81428438D01*
X234104626Y-81571132D01*
X234166360Y-81607206D01*
X234178455Y-81614274D01*
X234227179Y-81665912D01*
X234240250Y-81735695D01*
X234213519Y-81801467D01*
X234173062Y-81834827D01*
X234164957Y-81839046D01*
X234156238Y-81844536D01*
X233985933Y-81972405D01*
X233978226Y-81979248D01*
X233831090Y-82133217D01*
X233824604Y-82141227D01*
X233719693Y-82295021D01*
X233664782Y-82340024D01*
X233594257Y-82348195D01*
X233530510Y-82316941D01*
X233509813Y-82292457D01*
X233428927Y-82167426D01*
X233422636Y-82159257D01*
X233279306Y-82001740D01*
X233271773Y-81994715D01*
X233104639Y-81862722D01*
X233096056Y-81857020D01*
X233059102Y-81836620D01*
X233009131Y-81786187D01*
X232994359Y-81716745D01*
X233019475Y-81650339D01*
X233046827Y-81623732D01*
X233101304Y-81584874D01*
X233226360Y-81495673D01*
X233250823Y-81471296D01*
X233380935Y-81341637D01*
X233384596Y-81337989D01*
X233444094Y-81255189D01*
X233514953Y-81156577D01*
X233516276Y-81157528D01*
X233563145Y-81114357D01*
X233633080Y-81102125D01*
X233698526Y-81129644D01*
G37*
G04 #@! TD.AperFunction*
G04 #@! TA.AperFunction,Conductor*
G36*
X236238526Y-81129644D02*
G01*
X236266375Y-81161494D01*
X236326487Y-81259588D01*
X236472750Y-81428438D01*
X236644626Y-81571132D01*
X236706360Y-81607206D01*
X236718455Y-81614274D01*
X236767179Y-81665912D01*
X236780250Y-81735695D01*
X236753519Y-81801467D01*
X236713062Y-81834827D01*
X236704957Y-81839046D01*
X236696238Y-81844536D01*
X236525933Y-81972405D01*
X236518226Y-81979248D01*
X236371090Y-82133217D01*
X236364604Y-82141227D01*
X236259693Y-82295021D01*
X236204782Y-82340024D01*
X236134257Y-82348195D01*
X236070510Y-82316941D01*
X236049813Y-82292457D01*
X235968927Y-82167426D01*
X235962636Y-82159257D01*
X235819306Y-82001740D01*
X235811773Y-81994715D01*
X235644639Y-81862722D01*
X235636056Y-81857020D01*
X235599102Y-81836620D01*
X235549131Y-81786187D01*
X235534359Y-81716745D01*
X235559475Y-81650339D01*
X235586827Y-81623732D01*
X235641304Y-81584874D01*
X235766360Y-81495673D01*
X235790823Y-81471296D01*
X235920935Y-81341637D01*
X235924596Y-81337989D01*
X235984094Y-81255189D01*
X236054953Y-81156577D01*
X236056276Y-81157528D01*
X236103145Y-81114357D01*
X236173080Y-81102125D01*
X236238526Y-81129644D01*
G37*
G04 #@! TD.AperFunction*
G04 #@! TA.AperFunction,Conductor*
G36*
X218458526Y-81129644D02*
G01*
X218486375Y-81161494D01*
X218546487Y-81259588D01*
X218692750Y-81428438D01*
X218864626Y-81571132D01*
X218926360Y-81607206D01*
X218938455Y-81614274D01*
X218987179Y-81665912D01*
X219000250Y-81735695D01*
X218973519Y-81801467D01*
X218933062Y-81834827D01*
X218924957Y-81839046D01*
X218916238Y-81844536D01*
X218745933Y-81972405D01*
X218738226Y-81979248D01*
X218591090Y-82133217D01*
X218584604Y-82141227D01*
X218479693Y-82295021D01*
X218424782Y-82340024D01*
X218354257Y-82348195D01*
X218290510Y-82316941D01*
X218269813Y-82292457D01*
X218188927Y-82167426D01*
X218182636Y-82159257D01*
X218039306Y-82001740D01*
X218031773Y-81994715D01*
X217864639Y-81862722D01*
X217856056Y-81857020D01*
X217819102Y-81836620D01*
X217769131Y-81786187D01*
X217754359Y-81716745D01*
X217779475Y-81650339D01*
X217806827Y-81623732D01*
X217861304Y-81584874D01*
X217986360Y-81495673D01*
X218010823Y-81471296D01*
X218140935Y-81341637D01*
X218144596Y-81337989D01*
X218204094Y-81255189D01*
X218274953Y-81156577D01*
X218276276Y-81157528D01*
X218323145Y-81114357D01*
X218393080Y-81102125D01*
X218458526Y-81129644D01*
G37*
G04 #@! TD.AperFunction*
G04 #@! TA.AperFunction,Conductor*
G36*
X223538526Y-81129644D02*
G01*
X223566375Y-81161494D01*
X223626487Y-81259588D01*
X223772750Y-81428438D01*
X223944626Y-81571132D01*
X224006360Y-81607206D01*
X224018455Y-81614274D01*
X224067179Y-81665912D01*
X224080250Y-81735695D01*
X224053519Y-81801467D01*
X224013062Y-81834827D01*
X224004957Y-81839046D01*
X223996238Y-81844536D01*
X223825933Y-81972405D01*
X223818226Y-81979248D01*
X223671090Y-82133217D01*
X223664604Y-82141227D01*
X223559693Y-82295021D01*
X223504782Y-82340024D01*
X223434257Y-82348195D01*
X223370510Y-82316941D01*
X223349813Y-82292457D01*
X223268927Y-82167426D01*
X223262636Y-82159257D01*
X223119306Y-82001740D01*
X223111773Y-81994715D01*
X222944639Y-81862722D01*
X222936056Y-81857020D01*
X222899102Y-81836620D01*
X222849131Y-81786187D01*
X222834359Y-81716745D01*
X222859475Y-81650339D01*
X222886827Y-81623732D01*
X222941304Y-81584874D01*
X223066360Y-81495673D01*
X223090823Y-81471296D01*
X223220935Y-81341637D01*
X223224596Y-81337989D01*
X223284094Y-81255189D01*
X223354953Y-81156577D01*
X223356276Y-81157528D01*
X223403145Y-81114357D01*
X223473080Y-81102125D01*
X223538526Y-81129644D01*
G37*
G04 #@! TD.AperFunction*
G04 #@! TA.AperFunction,Conductor*
G36*
X228618526Y-81129644D02*
G01*
X228646375Y-81161494D01*
X228706487Y-81259588D01*
X228852750Y-81428438D01*
X229024626Y-81571132D01*
X229086360Y-81607206D01*
X229098455Y-81614274D01*
X229147179Y-81665912D01*
X229160250Y-81735695D01*
X229133519Y-81801467D01*
X229093062Y-81834827D01*
X229084957Y-81839046D01*
X229076238Y-81844536D01*
X228905933Y-81972405D01*
X228898226Y-81979248D01*
X228751090Y-82133217D01*
X228744604Y-82141227D01*
X228639693Y-82295021D01*
X228584782Y-82340024D01*
X228514257Y-82348195D01*
X228450510Y-82316941D01*
X228429813Y-82292457D01*
X228348927Y-82167426D01*
X228342636Y-82159257D01*
X228199306Y-82001740D01*
X228191773Y-81994715D01*
X228024639Y-81862722D01*
X228016056Y-81857020D01*
X227979102Y-81836620D01*
X227929131Y-81786187D01*
X227914359Y-81716745D01*
X227939475Y-81650339D01*
X227966827Y-81623732D01*
X228021304Y-81584874D01*
X228146360Y-81495673D01*
X228170823Y-81471296D01*
X228300935Y-81341637D01*
X228304596Y-81337989D01*
X228364094Y-81255189D01*
X228434953Y-81156577D01*
X228436276Y-81157528D01*
X228483145Y-81114357D01*
X228553080Y-81102125D01*
X228618526Y-81129644D01*
G37*
G04 #@! TD.AperFunction*
M02*
