G04 #@! TF.GenerationSoftware,KiCad,Pcbnew,(6.0.4)*
G04 #@! TF.CreationDate,2022-12-13T21:39:52-06:00*
G04 #@! TF.ProjectId,daisy_chain_board,64616973-795f-4636-9861-696e5f626f61,rev?*
G04 #@! TF.SameCoordinates,Original*
G04 #@! TF.FileFunction,Legend,Bot*
G04 #@! TF.FilePolarity,Positive*
%FSLAX46Y46*%
G04 Gerber Fmt 4.6, Leading zero omitted, Abs format (unit mm)*
G04 Created by KiCad (PCBNEW (6.0.4)) date 2022-12-13 21:39:52*
%MOMM*%
%LPD*%
G01*
G04 APERTURE LIST*
G04 Aperture macros list*
%AMRoundRect*
0 Rectangle with rounded corners*
0 $1 Rounding radius*
0 $2 $3 $4 $5 $6 $7 $8 $9 X,Y pos of 4 corners*
0 Add a 4 corners polygon primitive as box body*
4,1,4,$2,$3,$4,$5,$6,$7,$8,$9,$2,$3,0*
0 Add four circle primitives for the rounded corners*
1,1,$1+$1,$2,$3*
1,1,$1+$1,$4,$5*
1,1,$1+$1,$6,$7*
1,1,$1+$1,$8,$9*
0 Add four rect primitives between the rounded corners*
20,1,$1+$1,$2,$3,$4,$5,0*
20,1,$1+$1,$4,$5,$6,$7,0*
20,1,$1+$1,$6,$7,$8,$9,0*
20,1,$1+$1,$8,$9,$2,$3,0*%
G04 Aperture macros list end*
%ADD10C,0.150000*%
%ADD11C,0.120000*%
%ADD12C,0.200000*%
%ADD13C,0.010000*%
%ADD14RoundRect,0.050000X0.850000X-0.850000X0.850000X0.850000X-0.850000X0.850000X-0.850000X-0.850000X0*%
%ADD15O,1.800000X1.800000*%
%ADD16C,2.800000*%
%ADD17C,1.645000*%
%ADD18C,4.945000*%
G04 APERTURE END LIST*
D10*
X188424285Y-93037142D02*
X188471904Y-93084761D01*
X188614761Y-93132380D01*
X188710000Y-93132380D01*
X188852857Y-93084761D01*
X188948095Y-92989523D01*
X188995714Y-92894285D01*
X189043333Y-92703809D01*
X189043333Y-92560952D01*
X188995714Y-92370476D01*
X188948095Y-92275238D01*
X188852857Y-92180000D01*
X188710000Y-92132380D01*
X188614761Y-92132380D01*
X188471904Y-92180000D01*
X188424285Y-92227619D01*
X187852857Y-93132380D02*
X187948095Y-93084761D01*
X187995714Y-93037142D01*
X188043333Y-92941904D01*
X188043333Y-92656190D01*
X187995714Y-92560952D01*
X187948095Y-92513333D01*
X187852857Y-92465714D01*
X187710000Y-92465714D01*
X187614761Y-92513333D01*
X187567142Y-92560952D01*
X187519523Y-92656190D01*
X187519523Y-92941904D01*
X187567142Y-93037142D01*
X187614761Y-93084761D01*
X187710000Y-93132380D01*
X187852857Y-93132380D01*
X187090952Y-92465714D02*
X187090952Y-93465714D01*
X187090952Y-92513333D02*
X186995714Y-92465714D01*
X186805238Y-92465714D01*
X186710000Y-92513333D01*
X186662380Y-92560952D01*
X186614761Y-92656190D01*
X186614761Y-92941904D01*
X186662380Y-93037142D01*
X186710000Y-93084761D01*
X186805238Y-93132380D01*
X186995714Y-93132380D01*
X187090952Y-93084761D01*
X186281428Y-92465714D02*
X186043333Y-93132380D01*
X185805238Y-92465714D02*
X186043333Y-93132380D01*
X186138571Y-93370476D01*
X186186190Y-93418095D01*
X186281428Y-93465714D01*
X185424285Y-93132380D02*
X185424285Y-92465714D01*
X185424285Y-92656190D02*
X185376666Y-92560952D01*
X185329047Y-92513333D01*
X185233809Y-92465714D01*
X185138571Y-92465714D01*
X184805238Y-93132380D02*
X184805238Y-92465714D01*
X184805238Y-92132380D02*
X184852857Y-92180000D01*
X184805238Y-92227619D01*
X184757619Y-92180000D01*
X184805238Y-92132380D01*
X184805238Y-92227619D01*
X183900476Y-92465714D02*
X183900476Y-93275238D01*
X183948095Y-93370476D01*
X183995714Y-93418095D01*
X184090952Y-93465714D01*
X184233809Y-93465714D01*
X184329047Y-93418095D01*
X183900476Y-93084761D02*
X183995714Y-93132380D01*
X184186190Y-93132380D01*
X184281428Y-93084761D01*
X184329047Y-93037142D01*
X184376666Y-92941904D01*
X184376666Y-92656190D01*
X184329047Y-92560952D01*
X184281428Y-92513333D01*
X184186190Y-92465714D01*
X183995714Y-92465714D01*
X183900476Y-92513333D01*
X183424285Y-93132380D02*
X183424285Y-92132380D01*
X182995714Y-93132380D02*
X182995714Y-92608571D01*
X183043333Y-92513333D01*
X183138571Y-92465714D01*
X183281428Y-92465714D01*
X183376666Y-92513333D01*
X183424285Y-92560952D01*
X182662380Y-92465714D02*
X182281428Y-92465714D01*
X182519523Y-92132380D02*
X182519523Y-92989523D01*
X182471904Y-93084761D01*
X182376666Y-93132380D01*
X182281428Y-93132380D01*
X187424285Y-93837619D02*
X187376666Y-93790000D01*
X187281428Y-93742380D01*
X187043333Y-93742380D01*
X186948095Y-93790000D01*
X186900476Y-93837619D01*
X186852857Y-93932857D01*
X186852857Y-94028095D01*
X186900476Y-94170952D01*
X187471904Y-94742380D01*
X186852857Y-94742380D01*
X186233809Y-93742380D02*
X186138571Y-93742380D01*
X186043333Y-93790000D01*
X185995714Y-93837619D01*
X185948095Y-93932857D01*
X185900476Y-94123333D01*
X185900476Y-94361428D01*
X185948095Y-94551904D01*
X185995714Y-94647142D01*
X186043333Y-94694761D01*
X186138571Y-94742380D01*
X186233809Y-94742380D01*
X186329047Y-94694761D01*
X186376666Y-94647142D01*
X186424285Y-94551904D01*
X186471904Y-94361428D01*
X186471904Y-94123333D01*
X186424285Y-93932857D01*
X186376666Y-93837619D01*
X186329047Y-93790000D01*
X186233809Y-93742380D01*
X185519523Y-93837619D02*
X185471904Y-93790000D01*
X185376666Y-93742380D01*
X185138571Y-93742380D01*
X185043333Y-93790000D01*
X184995714Y-93837619D01*
X184948095Y-93932857D01*
X184948095Y-94028095D01*
X184995714Y-94170952D01*
X185567142Y-94742380D01*
X184948095Y-94742380D01*
X184567142Y-93837619D02*
X184519523Y-93790000D01*
X184424285Y-93742380D01*
X184186190Y-93742380D01*
X184090952Y-93790000D01*
X184043333Y-93837619D01*
X183995714Y-93932857D01*
X183995714Y-94028095D01*
X184043333Y-94170952D01*
X184614761Y-94742380D01*
X183995714Y-94742380D01*
X187495714Y-96352380D02*
X187495714Y-95828571D01*
X187543333Y-95733333D01*
X187638571Y-95685714D01*
X187829047Y-95685714D01*
X187924285Y-95733333D01*
X187495714Y-96304761D02*
X187590952Y-96352380D01*
X187829047Y-96352380D01*
X187924285Y-96304761D01*
X187971904Y-96209523D01*
X187971904Y-96114285D01*
X187924285Y-96019047D01*
X187829047Y-95971428D01*
X187590952Y-95971428D01*
X187495714Y-95923809D01*
X187019523Y-96352380D02*
X187019523Y-95352380D01*
X186924285Y-95971428D02*
X186638571Y-96352380D01*
X186638571Y-95685714D02*
X187019523Y-96066666D01*
X185781428Y-95685714D02*
X185781428Y-96352380D01*
X186210000Y-95685714D02*
X186210000Y-96209523D01*
X186162380Y-96304761D01*
X186067142Y-96352380D01*
X185924285Y-96352380D01*
X185829047Y-96304761D01*
X185781428Y-96257142D01*
X185305238Y-96352380D02*
X185305238Y-95352380D01*
X185210000Y-95971428D02*
X184924285Y-96352380D01*
X184924285Y-95685714D02*
X185305238Y-96066666D01*
X184114761Y-96304761D02*
X184210000Y-96352380D01*
X184400476Y-96352380D01*
X184495714Y-96304761D01*
X184543333Y-96209523D01*
X184543333Y-95828571D01*
X184495714Y-95733333D01*
X184400476Y-95685714D01*
X184210000Y-95685714D01*
X184114761Y-95733333D01*
X184067142Y-95828571D01*
X184067142Y-95923809D01*
X184543333Y-96019047D01*
X183638571Y-96352380D02*
X183638571Y-95685714D01*
X183638571Y-95876190D02*
X183590952Y-95780952D01*
X183543333Y-95733333D01*
X183448095Y-95685714D01*
X183352857Y-95685714D01*
D11*
X222377000Y-87185500D02*
X222377000Y-88900000D01*
X222377000Y-88900000D02*
X225044000Y-88900000D01*
X222504000Y-87185500D02*
X222504000Y-88773000D01*
X222504000Y-88773000D02*
X224917000Y-88773000D01*
X222377000Y-88900000D02*
X225044000Y-88900000D01*
X225044000Y-88900000D02*
X225044000Y-87185500D01*
X222504000Y-88773000D02*
X224917000Y-88773000D01*
X224917000Y-88773000D02*
X224917000Y-87185500D01*
D10*
X221023809Y-97452380D02*
X221023809Y-96452380D01*
X220595238Y-97452380D02*
X220595238Y-96928571D01*
X220642857Y-96833333D01*
X220738095Y-96785714D01*
X220880952Y-96785714D01*
X220976190Y-96833333D01*
X221023809Y-96880952D01*
X220261904Y-96785714D02*
X219880952Y-96785714D01*
X220119047Y-96452380D02*
X220119047Y-97309523D01*
X220071428Y-97404761D01*
X219976190Y-97452380D01*
X219880952Y-97452380D01*
X219690476Y-96785714D02*
X219309523Y-96785714D01*
X219547619Y-96452380D02*
X219547619Y-97309523D01*
X219500000Y-97404761D01*
X219404761Y-97452380D01*
X219309523Y-97452380D01*
X218976190Y-96785714D02*
X218976190Y-97785714D01*
X218976190Y-96833333D02*
X218880952Y-96785714D01*
X218690476Y-96785714D01*
X218595238Y-96833333D01*
X218547619Y-96880952D01*
X218500000Y-96976190D01*
X218500000Y-97261904D01*
X218547619Y-97357142D01*
X218595238Y-97404761D01*
X218690476Y-97452380D01*
X218880952Y-97452380D01*
X218976190Y-97404761D01*
X218119047Y-97404761D02*
X218023809Y-97452380D01*
X217833333Y-97452380D01*
X217738095Y-97404761D01*
X217690476Y-97309523D01*
X217690476Y-97261904D01*
X217738095Y-97166666D01*
X217833333Y-97119047D01*
X217976190Y-97119047D01*
X218071428Y-97071428D01*
X218119047Y-96976190D01*
X218119047Y-96928571D01*
X218071428Y-96833333D01*
X217976190Y-96785714D01*
X217833333Y-96785714D01*
X217738095Y-96833333D01*
X217261904Y-97357142D02*
X217214285Y-97404761D01*
X217261904Y-97452380D01*
X217309523Y-97404761D01*
X217261904Y-97357142D01*
X217261904Y-97452380D01*
X217261904Y-96833333D02*
X217214285Y-96880952D01*
X217261904Y-96928571D01*
X217309523Y-96880952D01*
X217261904Y-96833333D01*
X217261904Y-96928571D01*
X216071428Y-96404761D02*
X216928571Y-97690476D01*
X215023809Y-96404761D02*
X215880952Y-97690476D01*
X214261904Y-96785714D02*
X214261904Y-97595238D01*
X214309523Y-97690476D01*
X214357142Y-97738095D01*
X214452380Y-97785714D01*
X214595238Y-97785714D01*
X214690476Y-97738095D01*
X214261904Y-97404761D02*
X214357142Y-97452380D01*
X214547619Y-97452380D01*
X214642857Y-97404761D01*
X214690476Y-97357142D01*
X214738095Y-97261904D01*
X214738095Y-96976190D01*
X214690476Y-96880952D01*
X214642857Y-96833333D01*
X214547619Y-96785714D01*
X214357142Y-96785714D01*
X214261904Y-96833333D01*
X213785714Y-97452380D02*
X213785714Y-96785714D01*
X213785714Y-96452380D02*
X213833333Y-96500000D01*
X213785714Y-96547619D01*
X213738095Y-96500000D01*
X213785714Y-96452380D01*
X213785714Y-96547619D01*
X213452380Y-96785714D02*
X213071428Y-96785714D01*
X213309523Y-96452380D02*
X213309523Y-97309523D01*
X213261904Y-97404761D01*
X213166666Y-97452380D01*
X213071428Y-97452380D01*
X212738095Y-97452380D02*
X212738095Y-96452380D01*
X212309523Y-97452380D02*
X212309523Y-96928571D01*
X212357142Y-96833333D01*
X212452380Y-96785714D01*
X212595238Y-96785714D01*
X212690476Y-96833333D01*
X212738095Y-96880952D01*
X211404761Y-96785714D02*
X211404761Y-97452380D01*
X211833333Y-96785714D02*
X211833333Y-97309523D01*
X211785714Y-97404761D01*
X211690476Y-97452380D01*
X211547619Y-97452380D01*
X211452380Y-97404761D01*
X211404761Y-97357142D01*
X210928571Y-97452380D02*
X210928571Y-96452380D01*
X210928571Y-96833333D02*
X210833333Y-96785714D01*
X210642857Y-96785714D01*
X210547619Y-96833333D01*
X210500000Y-96880952D01*
X210452380Y-96976190D01*
X210452380Y-97261904D01*
X210500000Y-97357142D01*
X210547619Y-97404761D01*
X210642857Y-97452380D01*
X210833333Y-97452380D01*
X210928571Y-97404761D01*
X210023809Y-97357142D02*
X209976190Y-97404761D01*
X210023809Y-97452380D01*
X210071428Y-97404761D01*
X210023809Y-97357142D01*
X210023809Y-97452380D01*
X209119047Y-97404761D02*
X209214285Y-97452380D01*
X209404761Y-97452380D01*
X209500000Y-97404761D01*
X209547619Y-97357142D01*
X209595238Y-97261904D01*
X209595238Y-96976190D01*
X209547619Y-96880952D01*
X209500000Y-96833333D01*
X209404761Y-96785714D01*
X209214285Y-96785714D01*
X209119047Y-96833333D01*
X208547619Y-97452380D02*
X208642857Y-97404761D01*
X208690476Y-97357142D01*
X208738095Y-97261904D01*
X208738095Y-96976190D01*
X208690476Y-96880952D01*
X208642857Y-96833333D01*
X208547619Y-96785714D01*
X208404761Y-96785714D01*
X208309523Y-96833333D01*
X208261904Y-96880952D01*
X208214285Y-96976190D01*
X208214285Y-97261904D01*
X208261904Y-97357142D01*
X208309523Y-97404761D01*
X208404761Y-97452380D01*
X208547619Y-97452380D01*
X207785714Y-97452380D02*
X207785714Y-96785714D01*
X207785714Y-96880952D02*
X207738095Y-96833333D01*
X207642857Y-96785714D01*
X207500000Y-96785714D01*
X207404761Y-96833333D01*
X207357142Y-96928571D01*
X207357142Y-97452380D01*
X207357142Y-96928571D02*
X207309523Y-96833333D01*
X207214285Y-96785714D01*
X207071428Y-96785714D01*
X206976190Y-96833333D01*
X206928571Y-96928571D01*
X206928571Y-97452380D01*
X205738095Y-96404761D02*
X206595238Y-97690476D01*
X205404761Y-96785714D02*
X205404761Y-97785714D01*
X205404761Y-96833333D02*
X205309523Y-96785714D01*
X205119047Y-96785714D01*
X205023809Y-96833333D01*
X204976190Y-96880952D01*
X204928571Y-96976190D01*
X204928571Y-97261904D01*
X204976190Y-97357142D01*
X205023809Y-97404761D01*
X205119047Y-97452380D01*
X205309523Y-97452380D01*
X205404761Y-97404761D01*
X204500000Y-97452380D02*
X204500000Y-96785714D01*
X204500000Y-96452380D02*
X204547619Y-96500000D01*
X204500000Y-96547619D01*
X204452380Y-96500000D01*
X204500000Y-96452380D01*
X204500000Y-96547619D01*
X204071428Y-97404761D02*
X203976190Y-97452380D01*
X203785714Y-97452380D01*
X203690476Y-97404761D01*
X203642857Y-97309523D01*
X203642857Y-97261904D01*
X203690476Y-97166666D01*
X203785714Y-97119047D01*
X203928571Y-97119047D01*
X204023809Y-97071428D01*
X204071428Y-96976190D01*
X204071428Y-96928571D01*
X204023809Y-96833333D01*
X203928571Y-96785714D01*
X203785714Y-96785714D01*
X203690476Y-96833333D01*
X202785714Y-97404761D02*
X202880952Y-97452380D01*
X203071428Y-97452380D01*
X203166666Y-97404761D01*
X203214285Y-97357142D01*
X203261904Y-97261904D01*
X203261904Y-96976190D01*
X203214285Y-96880952D01*
X203166666Y-96833333D01*
X203071428Y-96785714D01*
X202880952Y-96785714D01*
X202785714Y-96833333D01*
X202404761Y-97404761D02*
X202309523Y-97452380D01*
X202119047Y-97452380D01*
X202023809Y-97404761D01*
X201976190Y-97309523D01*
X201976190Y-97261904D01*
X202023809Y-97166666D01*
X202119047Y-97119047D01*
X202261904Y-97119047D01*
X202357142Y-97071428D01*
X202404761Y-96976190D01*
X202404761Y-96928571D01*
X202357142Y-96833333D01*
X202261904Y-96785714D01*
X202119047Y-96785714D01*
X202023809Y-96833333D01*
X201547619Y-97452380D02*
X201547619Y-96785714D01*
X201547619Y-96452380D02*
X201595238Y-96500000D01*
X201547619Y-96547619D01*
X201500000Y-96500000D01*
X201547619Y-96452380D01*
X201547619Y-96547619D01*
X200357142Y-96404761D02*
X201214285Y-97690476D01*
X200023809Y-96785714D02*
X200023809Y-97785714D01*
X200023809Y-96833333D02*
X199928571Y-96785714D01*
X199738095Y-96785714D01*
X199642857Y-96833333D01*
X199595238Y-96880952D01*
X199547619Y-96976190D01*
X199547619Y-97261904D01*
X199595238Y-97357142D01*
X199642857Y-97404761D01*
X199738095Y-97452380D01*
X199928571Y-97452380D01*
X200023809Y-97404761D01*
X199119047Y-97452380D02*
X199119047Y-96785714D01*
X199119047Y-96452380D02*
X199166666Y-96500000D01*
X199119047Y-96547619D01*
X199071428Y-96500000D01*
X199119047Y-96452380D01*
X199119047Y-96547619D01*
X198690476Y-97404761D02*
X198595238Y-97452380D01*
X198404761Y-97452380D01*
X198309523Y-97404761D01*
X198261904Y-97309523D01*
X198261904Y-97261904D01*
X198309523Y-97166666D01*
X198404761Y-97119047D01*
X198547619Y-97119047D01*
X198642857Y-97071428D01*
X198690476Y-96976190D01*
X198690476Y-96928571D01*
X198642857Y-96833333D01*
X198547619Y-96785714D01*
X198404761Y-96785714D01*
X198309523Y-96833333D01*
X197404761Y-97404761D02*
X197500000Y-97452380D01*
X197690476Y-97452380D01*
X197785714Y-97404761D01*
X197833333Y-97357142D01*
X197880952Y-97261904D01*
X197880952Y-96976190D01*
X197833333Y-96880952D01*
X197785714Y-96833333D01*
X197690476Y-96785714D01*
X197500000Y-96785714D01*
X197404761Y-96833333D01*
X197023809Y-97404761D02*
X196928571Y-97452380D01*
X196738095Y-97452380D01*
X196642857Y-97404761D01*
X196595238Y-97309523D01*
X196595238Y-97261904D01*
X196642857Y-97166666D01*
X196738095Y-97119047D01*
X196880952Y-97119047D01*
X196976190Y-97071428D01*
X197023809Y-96976190D01*
X197023809Y-96928571D01*
X196976190Y-96833333D01*
X196880952Y-96785714D01*
X196738095Y-96785714D01*
X196642857Y-96833333D01*
X196166666Y-97452380D02*
X196166666Y-96785714D01*
X196166666Y-96452380D02*
X196214285Y-96500000D01*
X196166666Y-96547619D01*
X196119047Y-96500000D01*
X196166666Y-96452380D01*
X196166666Y-96547619D01*
X195690476Y-97071428D02*
X194928571Y-97071428D01*
X194452380Y-97452380D02*
X194452380Y-96452380D01*
X194023809Y-97452380D02*
X194023809Y-96928571D01*
X194071428Y-96833333D01*
X194166666Y-96785714D01*
X194309523Y-96785714D01*
X194404761Y-96833333D01*
X194452380Y-96880952D01*
X193642857Y-96785714D02*
X193452380Y-97452380D01*
X193261904Y-96976190D01*
X193071428Y-97452380D01*
X192880952Y-96785714D01*
X179457119Y-85223357D02*
X179342833Y-85261452D01*
X179304738Y-85299547D01*
X179266642Y-85375738D01*
X179266642Y-85490023D01*
X179304738Y-85566214D01*
X179342833Y-85604309D01*
X179419023Y-85642404D01*
X179723785Y-85642404D01*
X179723785Y-84842404D01*
X179457119Y-84842404D01*
X179380928Y-84880500D01*
X179342833Y-84918595D01*
X179304738Y-84994785D01*
X179304738Y-85070976D01*
X179342833Y-85147166D01*
X179380928Y-85185261D01*
X179457119Y-85223357D01*
X179723785Y-85223357D01*
X178771404Y-84842404D02*
X178619023Y-84842404D01*
X178542833Y-84880500D01*
X178466642Y-84956690D01*
X178428547Y-85109071D01*
X178428547Y-85375738D01*
X178466642Y-85528119D01*
X178542833Y-85604309D01*
X178619023Y-85642404D01*
X178771404Y-85642404D01*
X178847595Y-85604309D01*
X178923785Y-85528119D01*
X178961880Y-85375738D01*
X178961880Y-85109071D01*
X178923785Y-84956690D01*
X178847595Y-84880500D01*
X178771404Y-84842404D01*
X178199976Y-84842404D02*
X177742833Y-84842404D01*
X177971404Y-85642404D02*
X177971404Y-84842404D01*
X177590452Y-84842404D02*
X177133309Y-84842404D01*
X177361880Y-85642404D02*
X177361880Y-84842404D01*
X176714261Y-84842404D02*
X176561880Y-84842404D01*
X176485690Y-84880500D01*
X176409500Y-84956690D01*
X176371404Y-85109071D01*
X176371404Y-85375738D01*
X176409500Y-85528119D01*
X176485690Y-85604309D01*
X176561880Y-85642404D01*
X176714261Y-85642404D01*
X176790452Y-85604309D01*
X176866642Y-85528119D01*
X176904738Y-85375738D01*
X176904738Y-85109071D01*
X176866642Y-84956690D01*
X176790452Y-84880500D01*
X176714261Y-84842404D01*
X176028547Y-85642404D02*
X176028547Y-84842404D01*
X175761880Y-85413833D01*
X175495214Y-84842404D01*
X175495214Y-85642404D01*
X210470666Y-86034571D02*
X210356380Y-86082190D01*
X210318285Y-86129809D01*
X210280190Y-86225047D01*
X210280190Y-86367904D01*
X210318285Y-86463142D01*
X210356380Y-86510761D01*
X210432571Y-86558380D01*
X210737333Y-86558380D01*
X210737333Y-85558380D01*
X210470666Y-85558380D01*
X210394476Y-85606000D01*
X210356380Y-85653619D01*
X210318285Y-85748857D01*
X210318285Y-85844095D01*
X210356380Y-85939333D01*
X210394476Y-85986952D01*
X210470666Y-86034571D01*
X210737333Y-86034571D01*
X209975428Y-86510761D02*
X209861142Y-86558380D01*
X209670666Y-86558380D01*
X209594476Y-86510761D01*
X209556380Y-86463142D01*
X209518285Y-86367904D01*
X209518285Y-86272666D01*
X209556380Y-86177428D01*
X209594476Y-86129809D01*
X209670666Y-86082190D01*
X209823047Y-86034571D01*
X209899238Y-85986952D01*
X209937333Y-85939333D01*
X209975428Y-85844095D01*
X209975428Y-85748857D01*
X209937333Y-85653619D01*
X209899238Y-85606000D01*
X209823047Y-85558380D01*
X209632571Y-85558380D01*
X209518285Y-85606000D01*
X209023047Y-86082190D02*
X209023047Y-86558380D01*
X209289714Y-85558380D02*
X209023047Y-86082190D01*
X208756380Y-85558380D01*
X221900619Y-86558380D02*
X221900619Y-85558380D01*
X221633952Y-86272666D01*
X221367285Y-85558380D01*
X221367285Y-86558380D01*
X221024428Y-86510761D02*
X220910142Y-86558380D01*
X220719666Y-86558380D01*
X220643476Y-86510761D01*
X220605380Y-86463142D01*
X220567285Y-86367904D01*
X220567285Y-86272666D01*
X220605380Y-86177428D01*
X220643476Y-86129809D01*
X220719666Y-86082190D01*
X220872047Y-86034571D01*
X220948238Y-85986952D01*
X220986333Y-85939333D01*
X221024428Y-85844095D01*
X221024428Y-85748857D01*
X220986333Y-85653619D01*
X220948238Y-85606000D01*
X220872047Y-85558380D01*
X220681571Y-85558380D01*
X220567285Y-85606000D01*
X219805380Y-85606000D02*
X219881571Y-85558380D01*
X219995857Y-85558380D01*
X220110142Y-85606000D01*
X220186333Y-85701238D01*
X220224428Y-85796476D01*
X220262523Y-85986952D01*
X220262523Y-86129809D01*
X220224428Y-86320285D01*
X220186333Y-86415523D01*
X220110142Y-86510761D01*
X219995857Y-86558380D01*
X219919666Y-86558380D01*
X219805380Y-86510761D01*
X219767285Y-86463142D01*
X219767285Y-86129809D01*
X219919666Y-86129809D01*
X213524976Y-86272666D02*
X213144023Y-86272666D01*
X213601166Y-86558380D02*
X213334500Y-85558380D01*
X213067833Y-86558380D01*
X212344023Y-86463142D02*
X212382119Y-86510761D01*
X212496404Y-86558380D01*
X212572595Y-86558380D01*
X212686880Y-86510761D01*
X212763071Y-86415523D01*
X212801166Y-86320285D01*
X212839261Y-86129809D01*
X212839261Y-85986952D01*
X212801166Y-85796476D01*
X212763071Y-85701238D01*
X212686880Y-85606000D01*
X212572595Y-85558380D01*
X212496404Y-85558380D01*
X212382119Y-85606000D01*
X212344023Y-85653619D01*
X212001166Y-86558380D02*
X212001166Y-85558380D01*
X211544023Y-86558380D02*
X211886880Y-85986952D01*
X211544023Y-85558380D02*
X212001166Y-86129809D01*
X214718785Y-92241666D02*
X214337833Y-92241666D01*
X214794976Y-92527380D02*
X214528309Y-91527380D01*
X214261642Y-92527380D01*
X214109261Y-91527380D02*
X213652119Y-91527380D01*
X213880690Y-92527380D02*
X213880690Y-91527380D01*
X213385452Y-92527380D02*
X213385452Y-91527380D01*
X212928309Y-92527380D01*
X212928309Y-91527380D01*
X218770095Y-86558380D02*
X218770095Y-85558380D01*
X217817714Y-85510761D02*
X218503428Y-86796476D01*
X217398666Y-85558380D02*
X217246285Y-85558380D01*
X217170095Y-85606000D01*
X217093904Y-85701238D01*
X217055809Y-85891714D01*
X217055809Y-86225047D01*
X217093904Y-86415523D01*
X217170095Y-86510761D01*
X217246285Y-86558380D01*
X217398666Y-86558380D01*
X217474857Y-86510761D01*
X217551047Y-86415523D01*
X217589142Y-86225047D01*
X217589142Y-85891714D01*
X217551047Y-85701238D01*
X217474857Y-85606000D01*
X217398666Y-85558380D01*
X224180333Y-86558380D02*
X224447000Y-86082190D01*
X224637476Y-86558380D02*
X224637476Y-85558380D01*
X224332714Y-85558380D01*
X224256523Y-85606000D01*
X224218428Y-85653619D01*
X224180333Y-85748857D01*
X224180333Y-85891714D01*
X224218428Y-85986952D01*
X224256523Y-86034571D01*
X224332714Y-86082190D01*
X224637476Y-86082190D01*
X223837476Y-86034571D02*
X223570809Y-86034571D01*
X223456523Y-86558380D02*
X223837476Y-86558380D01*
X223837476Y-85558380D01*
X223456523Y-85558380D01*
X222580333Y-86653619D02*
X222656523Y-86606000D01*
X222732714Y-86510761D01*
X222847000Y-86367904D01*
X222923190Y-86320285D01*
X222999380Y-86320285D01*
X222961285Y-86558380D02*
X223037476Y-86510761D01*
X223113666Y-86415523D01*
X223151761Y-86225047D01*
X223151761Y-85891714D01*
X223113666Y-85701238D01*
X223037476Y-85606000D01*
X222961285Y-85558380D01*
X222808904Y-85558380D01*
X222732714Y-85606000D01*
X222656523Y-85701238D01*
X222618428Y-85891714D01*
X222618428Y-86225047D01*
X222656523Y-86415523D01*
X222732714Y-86510761D01*
X222808904Y-86558380D01*
X222961285Y-86558380D01*
X219900428Y-92432142D02*
X219938523Y-92479761D01*
X220052809Y-92527380D01*
X220129000Y-92527380D01*
X220243285Y-92479761D01*
X220319476Y-92384523D01*
X220357571Y-92289285D01*
X220395666Y-92098809D01*
X220395666Y-91955952D01*
X220357571Y-91765476D01*
X220319476Y-91670238D01*
X220243285Y-91575000D01*
X220129000Y-91527380D01*
X220052809Y-91527380D01*
X219938523Y-91575000D01*
X219900428Y-91622619D01*
X218986142Y-91479761D02*
X219671857Y-92765476D01*
X218719476Y-92527380D02*
X218719476Y-91527380D01*
X218529000Y-91527380D01*
X218414714Y-91575000D01*
X218338523Y-91670238D01*
X218300428Y-91765476D01*
X218262333Y-91955952D01*
X218262333Y-92098809D01*
X218300428Y-92289285D01*
X218338523Y-92384523D01*
X218414714Y-92479761D01*
X218529000Y-92527380D01*
X218719476Y-92527380D01*
X204806476Y-86558380D02*
X204806476Y-85558380D01*
X204616000Y-85558380D01*
X204501714Y-85606000D01*
X204425523Y-85701238D01*
X204387428Y-85796476D01*
X204349333Y-85986952D01*
X204349333Y-86129809D01*
X204387428Y-86320285D01*
X204425523Y-86415523D01*
X204501714Y-86510761D01*
X204616000Y-86558380D01*
X204806476Y-86558380D01*
X203854095Y-85558380D02*
X203777904Y-85558380D01*
X203701714Y-85606000D01*
X203663619Y-85653619D01*
X203625523Y-85748857D01*
X203587428Y-85939333D01*
X203587428Y-86177428D01*
X203625523Y-86367904D01*
X203663619Y-86463142D01*
X203701714Y-86510761D01*
X203777904Y-86558380D01*
X203854095Y-86558380D01*
X203930285Y-86510761D01*
X203968380Y-86463142D01*
X204006476Y-86367904D01*
X204044571Y-86177428D01*
X204044571Y-85939333D01*
X204006476Y-85748857D01*
X203968380Y-85653619D01*
X203930285Y-85606000D01*
X203854095Y-85558380D01*
X200615476Y-92527380D02*
X200615476Y-91527380D01*
X200425000Y-91527380D01*
X200310714Y-91575000D01*
X200234523Y-91670238D01*
X200196428Y-91765476D01*
X200158333Y-91955952D01*
X200158333Y-92098809D01*
X200196428Y-92289285D01*
X200234523Y-92384523D01*
X200310714Y-92479761D01*
X200425000Y-92527380D01*
X200615476Y-92527380D01*
X199853571Y-91622619D02*
X199815476Y-91575000D01*
X199739285Y-91527380D01*
X199548809Y-91527380D01*
X199472619Y-91575000D01*
X199434523Y-91622619D01*
X199396428Y-91717857D01*
X199396428Y-91813095D01*
X199434523Y-91955952D01*
X199891666Y-92527380D01*
X199396428Y-92527380D01*
X193319214Y-91527380D02*
X192862071Y-91527380D01*
X193090642Y-92527380D02*
X193090642Y-91527380D01*
X192595404Y-92527380D02*
X192595404Y-91527380D01*
X192290642Y-91527380D01*
X192214452Y-91575000D01*
X192176357Y-91622619D01*
X192138261Y-91717857D01*
X192138261Y-91860714D01*
X192176357Y-91955952D01*
X192214452Y-92003571D01*
X192290642Y-92051190D01*
X192595404Y-92051190D01*
X191871595Y-91527380D02*
X191681119Y-92527380D01*
X191528738Y-91813095D01*
X191376357Y-92527380D01*
X191185880Y-91527380D01*
X190423976Y-92527380D02*
X190690642Y-92051190D01*
X190881119Y-92527380D02*
X190881119Y-91527380D01*
X190576357Y-91527380D01*
X190500166Y-91575000D01*
X190462071Y-91622619D01*
X190423976Y-91717857D01*
X190423976Y-91860714D01*
X190462071Y-91955952D01*
X190500166Y-92003571D01*
X190576357Y-92051190D01*
X190881119Y-92051190D01*
X190899976Y-86558380D02*
X190899976Y-85558380D01*
X190709500Y-85558380D01*
X190595214Y-85606000D01*
X190519023Y-85701238D01*
X190480928Y-85796476D01*
X190442833Y-85986952D01*
X190442833Y-86129809D01*
X190480928Y-86320285D01*
X190519023Y-86415523D01*
X190595214Y-86510761D01*
X190709500Y-86558380D01*
X190899976Y-86558380D01*
X190176166Y-85558380D02*
X189642833Y-85558380D01*
X189985690Y-86558380D01*
X196424476Y-86558380D02*
X196424476Y-85558380D01*
X196234000Y-85558380D01*
X196119714Y-85606000D01*
X196043523Y-85701238D01*
X196005428Y-85796476D01*
X195967333Y-85986952D01*
X195967333Y-86129809D01*
X196005428Y-86320285D01*
X196043523Y-86415523D01*
X196119714Y-86510761D01*
X196234000Y-86558380D01*
X196424476Y-86558380D01*
X195243523Y-85558380D02*
X195624476Y-85558380D01*
X195662571Y-86034571D01*
X195624476Y-85986952D01*
X195548285Y-85939333D01*
X195357809Y-85939333D01*
X195281619Y-85986952D01*
X195243523Y-86034571D01*
X195205428Y-86129809D01*
X195205428Y-86367904D01*
X195243523Y-86463142D01*
X195281619Y-86510761D01*
X195357809Y-86558380D01*
X195548285Y-86558380D01*
X195624476Y-86510761D01*
X195662571Y-86463142D01*
X203345976Y-92527380D02*
X203345976Y-91527380D01*
X203155500Y-91527380D01*
X203041214Y-91575000D01*
X202965023Y-91670238D01*
X202926928Y-91765476D01*
X202888833Y-91955952D01*
X202888833Y-92098809D01*
X202926928Y-92289285D01*
X202965023Y-92384523D01*
X203041214Y-92479761D01*
X203155500Y-92527380D01*
X203345976Y-92527380D01*
X202126928Y-92527380D02*
X202584071Y-92527380D01*
X202355500Y-92527380D02*
X202355500Y-91527380D01*
X202431690Y-91670238D01*
X202507880Y-91765476D01*
X202584071Y-91813095D01*
X193630476Y-86558380D02*
X193630476Y-85558380D01*
X193440000Y-85558380D01*
X193325714Y-85606000D01*
X193249523Y-85701238D01*
X193211428Y-85796476D01*
X193173333Y-85986952D01*
X193173333Y-86129809D01*
X193211428Y-86320285D01*
X193249523Y-86415523D01*
X193325714Y-86510761D01*
X193440000Y-86558380D01*
X193630476Y-86558380D01*
X192487619Y-85558380D02*
X192640000Y-85558380D01*
X192716190Y-85606000D01*
X192754285Y-85653619D01*
X192830476Y-85796476D01*
X192868571Y-85986952D01*
X192868571Y-86367904D01*
X192830476Y-86463142D01*
X192792380Y-86510761D01*
X192716190Y-86558380D01*
X192563809Y-86558380D01*
X192487619Y-86510761D01*
X192449523Y-86463142D01*
X192411428Y-86367904D01*
X192411428Y-86129809D01*
X192449523Y-86034571D01*
X192487619Y-85986952D01*
X192563809Y-85939333D01*
X192716190Y-85939333D01*
X192792380Y-85986952D01*
X192830476Y-86034571D01*
X192868571Y-86129809D01*
X209321285Y-92479761D02*
X209207000Y-92527380D01*
X209016523Y-92527380D01*
X208940333Y-92479761D01*
X208902238Y-92432142D01*
X208864142Y-92336904D01*
X208864142Y-92241666D01*
X208902238Y-92146428D01*
X208940333Y-92098809D01*
X209016523Y-92051190D01*
X209168904Y-92003571D01*
X209245095Y-91955952D01*
X209283190Y-91908333D01*
X209321285Y-91813095D01*
X209321285Y-91717857D01*
X209283190Y-91622619D01*
X209245095Y-91575000D01*
X209168904Y-91527380D01*
X208978428Y-91527380D01*
X208864142Y-91575000D01*
X208521285Y-92003571D02*
X208254619Y-92003571D01*
X208140333Y-92527380D02*
X208521285Y-92527380D01*
X208521285Y-91527380D01*
X208140333Y-91527380D01*
X207416523Y-92527380D02*
X207797476Y-92527380D01*
X207797476Y-91527380D01*
X197694476Y-92527380D02*
X197694476Y-91527380D01*
X197504000Y-91527380D01*
X197389714Y-91575000D01*
X197313523Y-91670238D01*
X197275428Y-91765476D01*
X197237333Y-91955952D01*
X197237333Y-92098809D01*
X197275428Y-92289285D01*
X197313523Y-92384523D01*
X197389714Y-92479761D01*
X197504000Y-92527380D01*
X197694476Y-92527380D01*
X196551619Y-91860714D02*
X196551619Y-92527380D01*
X196742095Y-91479761D02*
X196932571Y-92194047D01*
X196437333Y-92194047D01*
X206032023Y-92527380D02*
X206032023Y-91527380D01*
X205841547Y-91527380D01*
X205727261Y-91575000D01*
X205651071Y-91670238D01*
X205612976Y-91765476D01*
X205574880Y-91955952D01*
X205574880Y-92098809D01*
X205612976Y-92289285D01*
X205651071Y-92384523D01*
X205727261Y-92479761D01*
X205841547Y-92527380D01*
X206032023Y-92527380D01*
X205232023Y-92527380D02*
X205232023Y-91527380D01*
X204927261Y-91527380D01*
X204851071Y-91575000D01*
X204812976Y-91622619D01*
X204774880Y-91717857D01*
X204774880Y-91860714D01*
X204812976Y-91955952D01*
X204851071Y-92003571D01*
X204927261Y-92051190D01*
X205232023Y-92051190D01*
X215703095Y-86558380D02*
X215969761Y-86082190D01*
X216160238Y-86558380D02*
X216160238Y-85558380D01*
X215855476Y-85558380D01*
X215779285Y-85606000D01*
X215741190Y-85653619D01*
X215703095Y-85748857D01*
X215703095Y-85891714D01*
X215741190Y-85986952D01*
X215779285Y-86034571D01*
X215855476Y-86082190D01*
X216160238Y-86082190D01*
X215398333Y-86510761D02*
X215284047Y-86558380D01*
X215093571Y-86558380D01*
X215017380Y-86510761D01*
X214979285Y-86463142D01*
X214941190Y-86367904D01*
X214941190Y-86272666D01*
X214979285Y-86177428D01*
X215017380Y-86129809D01*
X215093571Y-86082190D01*
X215245952Y-86034571D01*
X215322142Y-85986952D01*
X215360238Y-85939333D01*
X215398333Y-85844095D01*
X215398333Y-85748857D01*
X215360238Y-85653619D01*
X215322142Y-85606000D01*
X215245952Y-85558380D01*
X215055476Y-85558380D01*
X214941190Y-85606000D01*
X214712619Y-85558380D02*
X214255476Y-85558380D01*
X214484047Y-86558380D02*
X214484047Y-85558380D01*
X199218476Y-86558380D02*
X199218476Y-85558380D01*
X199028000Y-85558380D01*
X198913714Y-85606000D01*
X198837523Y-85701238D01*
X198799428Y-85796476D01*
X198761333Y-85986952D01*
X198761333Y-86129809D01*
X198799428Y-86320285D01*
X198837523Y-86415523D01*
X198913714Y-86510761D01*
X199028000Y-86558380D01*
X199218476Y-86558380D01*
X198494666Y-85558380D02*
X197999428Y-85558380D01*
X198266095Y-85939333D01*
X198151809Y-85939333D01*
X198075619Y-85986952D01*
X198037523Y-86034571D01*
X197999428Y-86129809D01*
X197999428Y-86367904D01*
X198037523Y-86463142D01*
X198075619Y-86510761D01*
X198151809Y-86558380D01*
X198380380Y-86558380D01*
X198456571Y-86510761D01*
X198494666Y-86463142D01*
X197459523Y-79192380D02*
X197459523Y-78192380D01*
X197269047Y-78192380D01*
X197154761Y-78240000D01*
X197078571Y-78335238D01*
X197040476Y-78430476D01*
X197002380Y-78620952D01*
X197002380Y-78763809D01*
X197040476Y-78954285D01*
X197078571Y-79049523D01*
X197154761Y-79144761D01*
X197269047Y-79192380D01*
X197459523Y-79192380D01*
X196659523Y-79192380D02*
X196659523Y-78192380D01*
X196354761Y-78192380D01*
X196278571Y-78240000D01*
X196240476Y-78287619D01*
X196202380Y-78382857D01*
X196202380Y-78525714D01*
X196240476Y-78620952D01*
X196278571Y-78668571D01*
X196354761Y-78716190D01*
X196659523Y-78716190D01*
X233093876Y-79160642D02*
X233131971Y-79208261D01*
X233246257Y-79255880D01*
X233322448Y-79255880D01*
X233436733Y-79208261D01*
X233512924Y-79113023D01*
X233551019Y-79017785D01*
X233589114Y-78827309D01*
X233589114Y-78684452D01*
X233551019Y-78493976D01*
X233512924Y-78398738D01*
X233436733Y-78303500D01*
X233322448Y-78255880D01*
X233246257Y-78255880D01*
X233131971Y-78303500D01*
X233093876Y-78351119D01*
X232179590Y-78208261D02*
X232865305Y-79493976D01*
X231912924Y-79255880D02*
X231912924Y-78255880D01*
X231722448Y-78255880D01*
X231608162Y-78303500D01*
X231531971Y-78398738D01*
X231493876Y-78493976D01*
X231455781Y-78684452D01*
X231455781Y-78827309D01*
X231493876Y-79017785D01*
X231531971Y-79113023D01*
X231608162Y-79208261D01*
X231722448Y-79255880D01*
X231912924Y-79255880D01*
X215417285Y-78970166D02*
X215036333Y-78970166D01*
X215493476Y-79255880D02*
X215226809Y-78255880D01*
X214960142Y-79255880D01*
X214807761Y-78255880D02*
X214350619Y-78255880D01*
X214579190Y-79255880D02*
X214579190Y-78255880D01*
X214083952Y-79255880D02*
X214083952Y-78255880D01*
X213626809Y-79255880D01*
X213626809Y-78255880D01*
X223196928Y-78970166D02*
X222815975Y-78970166D01*
X223273118Y-79255880D02*
X223006452Y-78255880D01*
X222739785Y-79255880D01*
X222015975Y-79160642D02*
X222054071Y-79208261D01*
X222168356Y-79255880D01*
X222244547Y-79255880D01*
X222358832Y-79208261D01*
X222435023Y-79113023D01*
X222473118Y-79017785D01*
X222511213Y-78827309D01*
X222511213Y-78684452D01*
X222473118Y-78493976D01*
X222435023Y-78398738D01*
X222358832Y-78303500D01*
X222244547Y-78255880D01*
X222168356Y-78255880D01*
X222054071Y-78303500D01*
X222015975Y-78351119D01*
X221673118Y-79255880D02*
X221673118Y-78255880D01*
X221215975Y-79255880D02*
X221558832Y-78684452D01*
X221215975Y-78255880D02*
X221673118Y-78827309D01*
X187366200Y-79192380D02*
X187366200Y-78192380D01*
X187175724Y-78192380D01*
X187061438Y-78240000D01*
X186985247Y-78335238D01*
X186947152Y-78430476D01*
X186909057Y-78620952D01*
X186909057Y-78763809D01*
X186947152Y-78954285D01*
X186985247Y-79049523D01*
X187061438Y-79144761D01*
X187175724Y-79192380D01*
X187366200Y-79192380D01*
X186223343Y-78525714D02*
X186223343Y-79192380D01*
X186413819Y-78144761D02*
X186604295Y-78859047D01*
X186109057Y-78859047D01*
X194907618Y-79192380D02*
X194907618Y-78192380D01*
X194717142Y-78192380D01*
X194602856Y-78240000D01*
X194526665Y-78335238D01*
X194488570Y-78430476D01*
X194450475Y-78620952D01*
X194450475Y-78763809D01*
X194488570Y-78954285D01*
X194526665Y-79049523D01*
X194602856Y-79144761D01*
X194717142Y-79192380D01*
X194907618Y-79192380D01*
X194183808Y-78192380D02*
X193650475Y-78192380D01*
X193993332Y-79192380D01*
X184852394Y-79192380D02*
X184852394Y-78192380D01*
X184661918Y-78192380D01*
X184547632Y-78240000D01*
X184471441Y-78335238D01*
X184433346Y-78430476D01*
X184395251Y-78620952D01*
X184395251Y-78763809D01*
X184433346Y-78954285D01*
X184471441Y-79049523D01*
X184547632Y-79144761D01*
X184661918Y-79192380D01*
X184852394Y-79192380D01*
X184128584Y-78192380D02*
X183633346Y-78192380D01*
X183900013Y-78573333D01*
X183785727Y-78573333D01*
X183709537Y-78620952D01*
X183671441Y-78668571D01*
X183633346Y-78763809D01*
X183633346Y-79001904D01*
X183671441Y-79097142D01*
X183709537Y-79144761D01*
X183785727Y-79192380D01*
X184014298Y-79192380D01*
X184090489Y-79144761D01*
X184128584Y-79097142D01*
X208432214Y-78255880D02*
X207975071Y-78255880D01*
X208203642Y-79255880D02*
X208203642Y-78255880D01*
X207708404Y-79255880D02*
X207708404Y-78255880D01*
X207403642Y-78255880D01*
X207327452Y-78303500D01*
X207289357Y-78351119D01*
X207251261Y-78446357D01*
X207251261Y-78589214D01*
X207289357Y-78684452D01*
X207327452Y-78732071D01*
X207403642Y-78779690D01*
X207708404Y-78779690D01*
X206984595Y-78255880D02*
X206794119Y-79255880D01*
X206641738Y-78541595D01*
X206489357Y-79255880D01*
X206298880Y-78255880D01*
X205536976Y-79255880D02*
X205803642Y-78779690D01*
X205994119Y-79255880D02*
X205994119Y-78255880D01*
X205689357Y-78255880D01*
X205613166Y-78303500D01*
X205575071Y-78351119D01*
X205536976Y-78446357D01*
X205536976Y-78589214D01*
X205575071Y-78684452D01*
X205613166Y-78732071D01*
X205689357Y-78779690D01*
X205994119Y-78779690D01*
X228393022Y-79255880D02*
X228393022Y-78255880D01*
X228126355Y-78970166D01*
X227859688Y-78255880D01*
X227859688Y-79255880D01*
X227516831Y-79208261D02*
X227402545Y-79255880D01*
X227212069Y-79255880D01*
X227135879Y-79208261D01*
X227097783Y-79160642D01*
X227059688Y-79065404D01*
X227059688Y-78970166D01*
X227097783Y-78874928D01*
X227135879Y-78827309D01*
X227212069Y-78779690D01*
X227364450Y-78732071D01*
X227440641Y-78684452D01*
X227478736Y-78636833D01*
X227516831Y-78541595D01*
X227516831Y-78446357D01*
X227478736Y-78351119D01*
X227440641Y-78303500D01*
X227364450Y-78255880D01*
X227173974Y-78255880D01*
X227059688Y-78303500D01*
X226297783Y-78303500D02*
X226373974Y-78255880D01*
X226488260Y-78255880D01*
X226602545Y-78303500D01*
X226678736Y-78398738D01*
X226716831Y-78493976D01*
X226754926Y-78684452D01*
X226754926Y-78827309D01*
X226716831Y-79017785D01*
X226678736Y-79113023D01*
X226602545Y-79208261D01*
X226488260Y-79255880D01*
X226412069Y-79255880D01*
X226297783Y-79208261D01*
X226259688Y-79160642D01*
X226259688Y-78827309D01*
X226412069Y-78827309D01*
X179824782Y-79192380D02*
X179824782Y-78192380D01*
X179634306Y-78192380D01*
X179520020Y-78240000D01*
X179443829Y-78335238D01*
X179405734Y-78430476D01*
X179367639Y-78620952D01*
X179367639Y-78763809D01*
X179405734Y-78954285D01*
X179443829Y-79049523D01*
X179520020Y-79144761D01*
X179634306Y-79192380D01*
X179824782Y-79192380D01*
X178605734Y-79192380D02*
X179062877Y-79192380D01*
X178834306Y-79192380D02*
X178834306Y-78192380D01*
X178910496Y-78335238D01*
X178986686Y-78430476D01*
X179062877Y-78478095D01*
X225166403Y-79255880D02*
X225433069Y-78779690D01*
X225623546Y-79255880D02*
X225623546Y-78255880D01*
X225318784Y-78255880D01*
X225242593Y-78303500D01*
X225204498Y-78351119D01*
X225166403Y-78446357D01*
X225166403Y-78589214D01*
X225204498Y-78684452D01*
X225242593Y-78732071D01*
X225318784Y-78779690D01*
X225623546Y-78779690D01*
X224861641Y-79208261D02*
X224747355Y-79255880D01*
X224556879Y-79255880D01*
X224480688Y-79208261D01*
X224442593Y-79160642D01*
X224404498Y-79065404D01*
X224404498Y-78970166D01*
X224442593Y-78874928D01*
X224480688Y-78827309D01*
X224556879Y-78779690D01*
X224709260Y-78732071D01*
X224785450Y-78684452D01*
X224823546Y-78636833D01*
X224861641Y-78541595D01*
X224861641Y-78446357D01*
X224823546Y-78351119D01*
X224785450Y-78303500D01*
X224709260Y-78255880D01*
X224518784Y-78255880D01*
X224404498Y-78303500D01*
X224175927Y-78255880D02*
X223718784Y-78255880D01*
X223947355Y-79255880D02*
X223947355Y-78255880D01*
X237718547Y-79255880D02*
X237718547Y-78255880D01*
X237185214Y-78255880D02*
X237032833Y-78255880D01*
X236956642Y-78303500D01*
X236880452Y-78398738D01*
X236842357Y-78589214D01*
X236842357Y-78922547D01*
X236880452Y-79113023D01*
X236956642Y-79208261D01*
X237032833Y-79255880D01*
X237185214Y-79255880D01*
X237261404Y-79208261D01*
X237337595Y-79113023D01*
X237375690Y-78922547D01*
X237375690Y-78589214D01*
X237337595Y-78398738D01*
X237261404Y-78303500D01*
X237185214Y-78255880D01*
X235749066Y-79255880D02*
X236015733Y-78779690D01*
X236206209Y-79255880D02*
X236206209Y-78255880D01*
X235901447Y-78255880D01*
X235825256Y-78303500D01*
X235787161Y-78351119D01*
X235749066Y-78446357D01*
X235749066Y-78589214D01*
X235787161Y-78684452D01*
X235825256Y-78732071D01*
X235901447Y-78779690D01*
X236206209Y-78779690D01*
X235406209Y-78732071D02*
X235139542Y-78732071D01*
X235025256Y-79255880D02*
X235406209Y-79255880D01*
X235406209Y-78255880D01*
X235025256Y-78255880D01*
X234149066Y-79351119D02*
X234225256Y-79303500D01*
X234301447Y-79208261D01*
X234415733Y-79065404D01*
X234491923Y-79017785D01*
X234568113Y-79017785D01*
X234530018Y-79255880D02*
X234606209Y-79208261D01*
X234682399Y-79113023D01*
X234720494Y-78922547D01*
X234720494Y-78589214D01*
X234682399Y-78398738D01*
X234606209Y-78303500D01*
X234530018Y-78255880D01*
X234377637Y-78255880D01*
X234301447Y-78303500D01*
X234225256Y-78398738D01*
X234187161Y-78589214D01*
X234187161Y-78922547D01*
X234225256Y-79113023D01*
X234301447Y-79208261D01*
X234377637Y-79255880D01*
X234530018Y-79255880D01*
X230857734Y-79208261D02*
X230743449Y-79255880D01*
X230552972Y-79255880D01*
X230476782Y-79208261D01*
X230438687Y-79160642D01*
X230400591Y-79065404D01*
X230400591Y-78970166D01*
X230438687Y-78874928D01*
X230476782Y-78827309D01*
X230552972Y-78779690D01*
X230705353Y-78732071D01*
X230781544Y-78684452D01*
X230819639Y-78636833D01*
X230857734Y-78541595D01*
X230857734Y-78446357D01*
X230819639Y-78351119D01*
X230781544Y-78303500D01*
X230705353Y-78255880D01*
X230514877Y-78255880D01*
X230400591Y-78303500D01*
X230057734Y-78732071D02*
X229791068Y-78732071D01*
X229676782Y-79255880D02*
X230057734Y-79255880D01*
X230057734Y-78255880D01*
X229676782Y-78255880D01*
X228952972Y-79255880D02*
X229333925Y-79255880D01*
X229333925Y-78255880D01*
X220313166Y-78732071D02*
X220198880Y-78779690D01*
X220160785Y-78827309D01*
X220122690Y-78922547D01*
X220122690Y-79065404D01*
X220160785Y-79160642D01*
X220198880Y-79208261D01*
X220275071Y-79255880D01*
X220579833Y-79255880D01*
X220579833Y-78255880D01*
X220313166Y-78255880D01*
X220236976Y-78303500D01*
X220198880Y-78351119D01*
X220160785Y-78446357D01*
X220160785Y-78541595D01*
X220198880Y-78636833D01*
X220236976Y-78684452D01*
X220313166Y-78732071D01*
X220579833Y-78732071D01*
X219817928Y-79208261D02*
X219703642Y-79255880D01*
X219513166Y-79255880D01*
X219436976Y-79208261D01*
X219398880Y-79160642D01*
X219360785Y-79065404D01*
X219360785Y-78970166D01*
X219398880Y-78874928D01*
X219436976Y-78827309D01*
X219513166Y-78779690D01*
X219665547Y-78732071D01*
X219741738Y-78684452D01*
X219779833Y-78636833D01*
X219817928Y-78541595D01*
X219817928Y-78446357D01*
X219779833Y-78351119D01*
X219741738Y-78303500D01*
X219665547Y-78255880D01*
X219475071Y-78255880D01*
X219360785Y-78303500D01*
X218865547Y-78779690D02*
X218865547Y-79255880D01*
X219132214Y-78255880D02*
X218865547Y-78779690D01*
X218598880Y-78255880D01*
X192393812Y-79192380D02*
X192393812Y-78192380D01*
X192203336Y-78192380D01*
X192089050Y-78240000D01*
X192012859Y-78335238D01*
X191974764Y-78430476D01*
X191936669Y-78620952D01*
X191936669Y-78763809D01*
X191974764Y-78954285D01*
X192012859Y-79049523D01*
X192089050Y-79144761D01*
X192203336Y-79192380D01*
X192393812Y-79192380D01*
X191250955Y-78192380D02*
X191403336Y-78192380D01*
X191479526Y-78240000D01*
X191517621Y-78287619D01*
X191593812Y-78430476D01*
X191631907Y-78620952D01*
X191631907Y-79001904D01*
X191593812Y-79097142D01*
X191555716Y-79144761D01*
X191479526Y-79192380D01*
X191327145Y-79192380D01*
X191250955Y-79144761D01*
X191212859Y-79097142D01*
X191174764Y-79001904D01*
X191174764Y-78763809D01*
X191212859Y-78668571D01*
X191250955Y-78620952D01*
X191327145Y-78573333D01*
X191479526Y-78573333D01*
X191555716Y-78620952D01*
X191593812Y-78668571D01*
X191631907Y-78763809D01*
X189880006Y-79192380D02*
X189880006Y-78192380D01*
X189689530Y-78192380D01*
X189575244Y-78240000D01*
X189499053Y-78335238D01*
X189460958Y-78430476D01*
X189422863Y-78620952D01*
X189422863Y-78763809D01*
X189460958Y-78954285D01*
X189499053Y-79049523D01*
X189575244Y-79144761D01*
X189689530Y-79192380D01*
X189880006Y-79192380D01*
X188699053Y-78192380D02*
X189080006Y-78192380D01*
X189118101Y-78668571D01*
X189080006Y-78620952D01*
X189003815Y-78573333D01*
X188813339Y-78573333D01*
X188737149Y-78620952D01*
X188699053Y-78668571D01*
X188660958Y-78763809D01*
X188660958Y-79001904D01*
X188699053Y-79097142D01*
X188737149Y-79144761D01*
X188813339Y-79192380D01*
X189003815Y-79192380D01*
X189080006Y-79144761D01*
X189118101Y-79097142D01*
X182338588Y-79192380D02*
X182338588Y-78192380D01*
X182148112Y-78192380D01*
X182033826Y-78240000D01*
X181957635Y-78335238D01*
X181919540Y-78430476D01*
X181881445Y-78620952D01*
X181881445Y-78763809D01*
X181919540Y-78954285D01*
X181957635Y-79049523D01*
X182033826Y-79144761D01*
X182148112Y-79192380D01*
X182338588Y-79192380D01*
X181576683Y-78287619D02*
X181538588Y-78240000D01*
X181462397Y-78192380D01*
X181271921Y-78192380D01*
X181195731Y-78240000D01*
X181157635Y-78287619D01*
X181119540Y-78382857D01*
X181119540Y-78478095D01*
X181157635Y-78620952D01*
X181614778Y-79192380D01*
X181119540Y-79192380D01*
X177310976Y-79192380D02*
X177310976Y-78192380D01*
X177120500Y-78192380D01*
X177006214Y-78240000D01*
X176930023Y-78335238D01*
X176891928Y-78430476D01*
X176853833Y-78620952D01*
X176853833Y-78763809D01*
X176891928Y-78954285D01*
X176930023Y-79049523D01*
X177006214Y-79144761D01*
X177120500Y-79192380D01*
X177310976Y-79192380D01*
X176358595Y-78192380D02*
X176282404Y-78192380D01*
X176206214Y-78240000D01*
X176168119Y-78287619D01*
X176130023Y-78382857D01*
X176091928Y-78573333D01*
X176091928Y-78811428D01*
X176130023Y-79001904D01*
X176168119Y-79097142D01*
X176206214Y-79144761D01*
X176282404Y-79192380D01*
X176358595Y-79192380D01*
X176434785Y-79144761D01*
X176472880Y-79097142D01*
X176510976Y-79001904D01*
X176549071Y-78811428D01*
X176549071Y-78573333D01*
X176510976Y-78382857D01*
X176472880Y-78287619D01*
X176434785Y-78240000D01*
X176358595Y-78192380D01*
D12*
X220321428Y-95407142D02*
X220107142Y-95478571D01*
X219750000Y-95478571D01*
X219607142Y-95407142D01*
X219535714Y-95335714D01*
X219464285Y-95192857D01*
X219464285Y-95050000D01*
X219535714Y-94907142D01*
X219607142Y-94835714D01*
X219750000Y-94764285D01*
X220035714Y-94692857D01*
X220178571Y-94621428D01*
X220250000Y-94550000D01*
X220321428Y-94407142D01*
X220321428Y-94264285D01*
X220250000Y-94121428D01*
X220178571Y-94050000D01*
X220035714Y-93978571D01*
X219678571Y-93978571D01*
X219464285Y-94050000D01*
X217964285Y-95335714D02*
X218035714Y-95407142D01*
X218250000Y-95478571D01*
X218392857Y-95478571D01*
X218607142Y-95407142D01*
X218750000Y-95264285D01*
X218821428Y-95121428D01*
X218892857Y-94835714D01*
X218892857Y-94621428D01*
X218821428Y-94335714D01*
X218750000Y-94192857D01*
X218607142Y-94050000D01*
X218392857Y-93978571D01*
X218250000Y-93978571D01*
X218035714Y-94050000D01*
X217964285Y-94121428D01*
X217392857Y-95407142D02*
X217178571Y-95478571D01*
X216821428Y-95478571D01*
X216678571Y-95407142D01*
X216607142Y-95335714D01*
X216535714Y-95192857D01*
X216535714Y-95050000D01*
X216607142Y-94907142D01*
X216678571Y-94835714D01*
X216821428Y-94764285D01*
X217107142Y-94692857D01*
X217250000Y-94621428D01*
X217321428Y-94550000D01*
X217392857Y-94407142D01*
X217392857Y-94264285D01*
X217321428Y-94121428D01*
X217250000Y-94050000D01*
X217107142Y-93978571D01*
X216750000Y-93978571D01*
X216535714Y-94050000D01*
X215892857Y-95478571D02*
X215892857Y-93978571D01*
X214035714Y-95478571D02*
X214035714Y-93978571D01*
X213678571Y-93978571D01*
X213464285Y-94050000D01*
X213321428Y-94192857D01*
X213250000Y-94335714D01*
X213178571Y-94621428D01*
X213178571Y-94835714D01*
X213250000Y-95121428D01*
X213321428Y-95264285D01*
X213464285Y-95407142D01*
X213678571Y-95478571D01*
X214035714Y-95478571D01*
X211892857Y-95478571D02*
X211892857Y-94692857D01*
X211964285Y-94550000D01*
X212107142Y-94478571D01*
X212392857Y-94478571D01*
X212535714Y-94550000D01*
X211892857Y-95407142D02*
X212035714Y-95478571D01*
X212392857Y-95478571D01*
X212535714Y-95407142D01*
X212607142Y-95264285D01*
X212607142Y-95121428D01*
X212535714Y-94978571D01*
X212392857Y-94907142D01*
X212035714Y-94907142D01*
X211892857Y-94835714D01*
X211178571Y-95478571D02*
X211178571Y-94478571D01*
X211178571Y-93978571D02*
X211250000Y-94050000D01*
X211178571Y-94121428D01*
X211107142Y-94050000D01*
X211178571Y-93978571D01*
X211178571Y-94121428D01*
X210535714Y-95407142D02*
X210392857Y-95478571D01*
X210107142Y-95478571D01*
X209964285Y-95407142D01*
X209892857Y-95264285D01*
X209892857Y-95192857D01*
X209964285Y-95050000D01*
X210107142Y-94978571D01*
X210321428Y-94978571D01*
X210464285Y-94907142D01*
X210535714Y-94764285D01*
X210535714Y-94692857D01*
X210464285Y-94550000D01*
X210321428Y-94478571D01*
X210107142Y-94478571D01*
X209964285Y-94550000D01*
X209392857Y-94478571D02*
X209035714Y-95478571D01*
X208678571Y-94478571D02*
X209035714Y-95478571D01*
X209178571Y-95835714D01*
X209250000Y-95907142D01*
X209392857Y-95978571D01*
X206107142Y-95335714D02*
X206178571Y-95407142D01*
X206392857Y-95478571D01*
X206535714Y-95478571D01*
X206750000Y-95407142D01*
X206892857Y-95264285D01*
X206964285Y-95121428D01*
X207035714Y-94835714D01*
X207035714Y-94621428D01*
X206964285Y-94335714D01*
X206892857Y-94192857D01*
X206750000Y-94050000D01*
X206535714Y-93978571D01*
X206392857Y-93978571D01*
X206178571Y-94050000D01*
X206107142Y-94121428D01*
X205464285Y-95478571D02*
X205464285Y-93978571D01*
X204821428Y-95478571D02*
X204821428Y-94692857D01*
X204892857Y-94550000D01*
X205035714Y-94478571D01*
X205250000Y-94478571D01*
X205392857Y-94550000D01*
X205464285Y-94621428D01*
X203464285Y-95478571D02*
X203464285Y-94692857D01*
X203535714Y-94550000D01*
X203678571Y-94478571D01*
X203964285Y-94478571D01*
X204107142Y-94550000D01*
X203464285Y-95407142D02*
X203607142Y-95478571D01*
X203964285Y-95478571D01*
X204107142Y-95407142D01*
X204178571Y-95264285D01*
X204178571Y-95121428D01*
X204107142Y-94978571D01*
X203964285Y-94907142D01*
X203607142Y-94907142D01*
X203464285Y-94835714D01*
X202750000Y-95478571D02*
X202750000Y-94478571D01*
X202750000Y-93978571D02*
X202821428Y-94050000D01*
X202750000Y-94121428D01*
X202678571Y-94050000D01*
X202750000Y-93978571D01*
X202750000Y-94121428D01*
X202035714Y-94478571D02*
X202035714Y-95478571D01*
X202035714Y-94621428D02*
X201964285Y-94550000D01*
X201821428Y-94478571D01*
X201607142Y-94478571D01*
X201464285Y-94550000D01*
X201392857Y-94692857D01*
X201392857Y-95478571D01*
X199035714Y-94692857D02*
X198821428Y-94764285D01*
X198750000Y-94835714D01*
X198678571Y-94978571D01*
X198678571Y-95192857D01*
X198750000Y-95335714D01*
X198821428Y-95407142D01*
X198964285Y-95478571D01*
X199535714Y-95478571D01*
X199535714Y-93978571D01*
X199035714Y-93978571D01*
X198892857Y-94050000D01*
X198821428Y-94121428D01*
X198750000Y-94264285D01*
X198750000Y-94407142D01*
X198821428Y-94550000D01*
X198892857Y-94621428D01*
X199035714Y-94692857D01*
X199535714Y-94692857D01*
X197821428Y-95478571D02*
X197964285Y-95407142D01*
X198035714Y-95335714D01*
X198107142Y-95192857D01*
X198107142Y-94764285D01*
X198035714Y-94621428D01*
X197964285Y-94550000D01*
X197821428Y-94478571D01*
X197607142Y-94478571D01*
X197464285Y-94550000D01*
X197392857Y-94621428D01*
X197321428Y-94764285D01*
X197321428Y-95192857D01*
X197392857Y-95335714D01*
X197464285Y-95407142D01*
X197607142Y-95478571D01*
X197821428Y-95478571D01*
X196035714Y-95478571D02*
X196035714Y-94692857D01*
X196107142Y-94550000D01*
X196250000Y-94478571D01*
X196535714Y-94478571D01*
X196678571Y-94550000D01*
X196035714Y-95407142D02*
X196178571Y-95478571D01*
X196535714Y-95478571D01*
X196678571Y-95407142D01*
X196750000Y-95264285D01*
X196750000Y-95121428D01*
X196678571Y-94978571D01*
X196535714Y-94907142D01*
X196178571Y-94907142D01*
X196035714Y-94835714D01*
X195321428Y-95478571D02*
X195321428Y-94478571D01*
X195321428Y-94764285D02*
X195250000Y-94621428D01*
X195178571Y-94550000D01*
X195035714Y-94478571D01*
X194892857Y-94478571D01*
X193750000Y-95478571D02*
X193750000Y-93978571D01*
X193750000Y-95407142D02*
X193892857Y-95478571D01*
X194178571Y-95478571D01*
X194321428Y-95407142D01*
X194392857Y-95335714D01*
X194464285Y-95192857D01*
X194464285Y-94764285D01*
X194392857Y-94621428D01*
X194321428Y-94550000D01*
X194178571Y-94478571D01*
X193892857Y-94478571D01*
X193750000Y-94550000D01*
D11*
X175166500Y-84294500D02*
X176496500Y-84294500D01*
X177766500Y-81694500D02*
X177766500Y-84294500D01*
X175166500Y-82964500D02*
X175166500Y-84294500D01*
X175166500Y-81694500D02*
X177766500Y-81694500D01*
G36*
X238308015Y-88130423D02*
G01*
X238310919Y-88153529D01*
X238313571Y-88170055D01*
X238313749Y-88170811D01*
X238317101Y-88179514D01*
X238323337Y-88192633D01*
X238331267Y-88207637D01*
X238332141Y-88209206D01*
X238339804Y-88221975D01*
X238347645Y-88232335D01*
X238357399Y-88242035D01*
X238370801Y-88252825D01*
X238389584Y-88266454D01*
X238416572Y-88286588D01*
X238474404Y-88336962D01*
X238528781Y-88394574D01*
X238579290Y-88458919D01*
X238625518Y-88529490D01*
X238667050Y-88605783D01*
X238686614Y-88647398D01*
X238711537Y-88709308D01*
X238731225Y-88771591D01*
X238746746Y-88837354D01*
X238748595Y-88846293D01*
X238753210Y-88866669D01*
X238757537Y-88883274D01*
X238761158Y-88894592D01*
X238763659Y-88899102D01*
X238763726Y-88899131D01*
X238765305Y-88904025D01*
X238766593Y-88916034D01*
X238767596Y-88933860D01*
X238768316Y-88956207D01*
X238768759Y-88981779D01*
X238768772Y-88983853D01*
X238768930Y-89009277D01*
X238768831Y-89037406D01*
X238768467Y-89064868D01*
X238767844Y-89090367D01*
X238766964Y-89112605D01*
X238765834Y-89130286D01*
X238764455Y-89142113D01*
X238762834Y-89146789D01*
X238762814Y-89146796D01*
X238759256Y-89152123D01*
X238755661Y-89164408D01*
X238752464Y-89182166D01*
X238750636Y-89193725D01*
X238740480Y-89239603D01*
X238725486Y-89289308D01*
X238706385Y-89340977D01*
X238683912Y-89392745D01*
X238658798Y-89442751D01*
X238631775Y-89489130D01*
X238630999Y-89490354D01*
X238618631Y-89508972D01*
X238602455Y-89532142D01*
X238583854Y-89557965D01*
X238564215Y-89584542D01*
X238544919Y-89609976D01*
X238527353Y-89632366D01*
X238523861Y-89638598D01*
X238518367Y-89653521D01*
X238512213Y-89675063D01*
X238505712Y-89702216D01*
X238503807Y-89710485D01*
X238495801Y-89741492D01*
X238485225Y-89778395D01*
X238472556Y-89819712D01*
X238458268Y-89863960D01*
X238442836Y-89909658D01*
X238440234Y-89917037D01*
X238426734Y-89955323D01*
X238410438Y-89999474D01*
X238405537Y-90012683D01*
X238394290Y-90046134D01*
X238386374Y-90075727D01*
X238381076Y-90104004D01*
X238372129Y-90152413D01*
X238352929Y-90224054D01*
X238326893Y-90296417D01*
X238294652Y-90368139D01*
X238256840Y-90437855D01*
X238214087Y-90504202D01*
X238167026Y-90565816D01*
X238158614Y-90575799D01*
X238100391Y-90639429D01*
X238038945Y-90697615D01*
X237975058Y-90749758D01*
X237909516Y-90795260D01*
X237843102Y-90833521D01*
X237776600Y-90863943D01*
X237773555Y-90865151D01*
X237761606Y-90869967D01*
X237751584Y-90874336D01*
X237742231Y-90879024D01*
X237732287Y-90884799D01*
X237720492Y-90892428D01*
X237705587Y-90902679D01*
X237686312Y-90916318D01*
X237661409Y-90934113D01*
X237649173Y-90942822D01*
X237582335Y-90988259D01*
X237557983Y-91004814D01*
X237468746Y-91060105D01*
X237379978Y-91109526D01*
X237290191Y-91153912D01*
X237197901Y-91194097D01*
X237183235Y-91200111D01*
X237163771Y-91208179D01*
X237147158Y-91215162D01*
X237135893Y-91220015D01*
X237133563Y-91221191D01*
X237122506Y-91228393D01*
X237107497Y-91239727D01*
X237090208Y-91253888D01*
X237072313Y-91269572D01*
X237029459Y-91307355D01*
X236985057Y-91343649D01*
X236941910Y-91375581D01*
X236898153Y-91404523D01*
X236851927Y-91431846D01*
X236814784Y-91452680D01*
X236349049Y-91452690D01*
X235883315Y-91452700D01*
X235840608Y-91428026D01*
X235831709Y-91422830D01*
X235779286Y-91389849D01*
X235727556Y-91353019D01*
X235674926Y-91311149D01*
X235619806Y-91263051D01*
X235611004Y-91255083D01*
X235595081Y-91240991D01*
X235582426Y-91230781D01*
X235570991Y-91223183D01*
X235558729Y-91216928D01*
X235543591Y-91210747D01*
X235523531Y-91203370D01*
X235510627Y-91198491D01*
X235482306Y-91186864D01*
X235449397Y-91172455D01*
X235413716Y-91156120D01*
X235377085Y-91138715D01*
X235341322Y-91121096D01*
X235308245Y-91104119D01*
X235279675Y-91088639D01*
X235251514Y-91072373D01*
X235213468Y-91049383D01*
X235172401Y-91023670D01*
X235130049Y-90996370D01*
X235088151Y-90968622D01*
X235060524Y-90949796D01*
X235658225Y-90949796D01*
X235660312Y-90961388D01*
X235665228Y-90977927D01*
X235675829Y-91004547D01*
X235692004Y-91033092D01*
X235713995Y-91062908D01*
X235742657Y-91095296D01*
X235779293Y-91131450D01*
X235840527Y-91182702D01*
X235907283Y-91228748D01*
X235978459Y-91268988D01*
X236052956Y-91302821D01*
X236129671Y-91329647D01*
X236207505Y-91348865D01*
X236210284Y-91349404D01*
X236231200Y-91353210D01*
X236249773Y-91355929D01*
X236268163Y-91357726D01*
X236288533Y-91358763D01*
X236313042Y-91359207D01*
X236343853Y-91359220D01*
X236369408Y-91358861D01*
X236425035Y-91355898D01*
X236476216Y-91349581D01*
X236525469Y-91339436D01*
X236575312Y-91324989D01*
X236628261Y-91305769D01*
X236628873Y-91305528D01*
X236681240Y-91282731D01*
X236733017Y-91256099D01*
X236783248Y-91226361D01*
X236830978Y-91194245D01*
X236875253Y-91160478D01*
X236915118Y-91125788D01*
X236949618Y-91090902D01*
X236977798Y-91056549D01*
X236998702Y-91023456D01*
X237005552Y-91008747D01*
X237010798Y-90988259D01*
X237009457Y-90968504D01*
X237001632Y-90946816D01*
X236998597Y-90940878D01*
X236981074Y-90916659D01*
X236955762Y-90892803D01*
X236923207Y-90869597D01*
X236883953Y-90847326D01*
X236838546Y-90826276D01*
X236787529Y-90806733D01*
X236731449Y-90788983D01*
X236670850Y-90773311D01*
X236654856Y-90769578D01*
X236633971Y-90764623D01*
X236617066Y-90760517D01*
X236605567Y-90757607D01*
X236600896Y-90756240D01*
X236597240Y-90755390D01*
X236586388Y-90753432D01*
X236569756Y-90750645D01*
X236548730Y-90747264D01*
X236524696Y-90743518D01*
X236516955Y-90742342D01*
X236493533Y-90739021D01*
X236471715Y-90736410D01*
X236449824Y-90734393D01*
X236426181Y-90732854D01*
X236399106Y-90731679D01*
X236366922Y-90730750D01*
X236327950Y-90729953D01*
X236324228Y-90729887D01*
X236263050Y-90729346D01*
X236208626Y-90730054D01*
X236159402Y-90732168D01*
X236113822Y-90735846D01*
X236070332Y-90741242D01*
X236027377Y-90748514D01*
X235983402Y-90757818D01*
X235936854Y-90769311D01*
X235906727Y-90777586D01*
X235849468Y-90795888D01*
X235799169Y-90815682D01*
X235756075Y-90836824D01*
X235720436Y-90859168D01*
X235692497Y-90882567D01*
X235672508Y-90906877D01*
X235660715Y-90931950D01*
X235658681Y-90940225D01*
X235658225Y-90949796D01*
X235060524Y-90949796D01*
X235048444Y-90941564D01*
X235012667Y-90916335D01*
X234982557Y-90894071D01*
X234970271Y-90886311D01*
X234953538Y-90877800D01*
X234935991Y-90870387D01*
X234906932Y-90858430D01*
X234864799Y-90838026D01*
X234820371Y-90813509D01*
X234775641Y-90786056D01*
X234732603Y-90756844D01*
X234693248Y-90727050D01*
X234682614Y-90718234D01*
X234657272Y-90695809D01*
X234629414Y-90669630D01*
X234600860Y-90641511D01*
X234573433Y-90613266D01*
X234548953Y-90586709D01*
X234529241Y-90563655D01*
X234497906Y-90522943D01*
X234446522Y-90445948D01*
X234402808Y-90365794D01*
X234366908Y-90282796D01*
X234338967Y-90197269D01*
X234319132Y-90109525D01*
X234317692Y-90101814D01*
X234311748Y-90075497D01*
X234303519Y-90046093D01*
X234292555Y-90012081D01*
X234278407Y-89971941D01*
X234277177Y-89968554D01*
X234527816Y-89968554D01*
X234531530Y-90032395D01*
X234539488Y-90093584D01*
X234551568Y-90149717D01*
X234564415Y-90193702D01*
X234581919Y-90242585D01*
X234602423Y-90288466D01*
X234626657Y-90332536D01*
X234655354Y-90375985D01*
X234689244Y-90420003D01*
X234729056Y-90465781D01*
X234775524Y-90514509D01*
X234813674Y-90551654D01*
X234863680Y-90595457D01*
X234913304Y-90632804D01*
X234963971Y-90664566D01*
X235017102Y-90691612D01*
X235074122Y-90714811D01*
X235136453Y-90735033D01*
X235153443Y-90739721D01*
X235177682Y-90745736D01*
X235200422Y-90750705D01*
X235218378Y-90753870D01*
X235234560Y-90755578D01*
X235261426Y-90757095D01*
X235291638Y-90757732D01*
X235322295Y-90757481D01*
X235350495Y-90756335D01*
X235373334Y-90754285D01*
X235405723Y-90748052D01*
X235440070Y-90737456D01*
X235472329Y-90723656D01*
X235500377Y-90707568D01*
X235522093Y-90690107D01*
X235528164Y-90683485D01*
X235545109Y-90658071D01*
X235559789Y-90624658D01*
X235572246Y-90583156D01*
X235574401Y-90574244D01*
X235577146Y-90561083D01*
X235579004Y-90548212D01*
X235580090Y-90533880D01*
X235580514Y-90516338D01*
X235580388Y-90493836D01*
X235579824Y-90464623D01*
X235579023Y-90435231D01*
X235577903Y-90410332D01*
X235576291Y-90389811D01*
X235573972Y-90371562D01*
X235570729Y-90353483D01*
X235566346Y-90333468D01*
X235553160Y-90282005D01*
X235526830Y-90199640D01*
X235494848Y-90119474D01*
X235457794Y-90042669D01*
X235416247Y-89970386D01*
X235370787Y-89903787D01*
X235364824Y-89896484D01*
X235640588Y-89896484D01*
X235641982Y-89939561D01*
X235646700Y-89979523D01*
X235655202Y-90019628D01*
X235667945Y-90063132D01*
X235689787Y-90121048D01*
X235722237Y-90185543D01*
X235761684Y-90245302D01*
X235808043Y-90300215D01*
X235861233Y-90350175D01*
X235921170Y-90395072D01*
X235952768Y-90414922D01*
X236011210Y-90445928D01*
X236072760Y-90472066D01*
X236135622Y-90492699D01*
X236198001Y-90507187D01*
X236258100Y-90514892D01*
X236261192Y-90515109D01*
X236278898Y-90516338D01*
X236281332Y-90516507D01*
X236300616Y-90517825D01*
X236315250Y-90518803D01*
X236333722Y-90519281D01*
X236361527Y-90518495D01*
X236393022Y-90516419D01*
X236425687Y-90513267D01*
X236457004Y-90509248D01*
X236484455Y-90504576D01*
X236509644Y-90499027D01*
X237147947Y-90499027D01*
X237149001Y-90516717D01*
X237151396Y-90534485D01*
X237155311Y-90555233D01*
X237162012Y-90582811D01*
X237174613Y-90619493D01*
X237190064Y-90651174D01*
X237207640Y-90676180D01*
X237216438Y-90685010D01*
X237239770Y-90701861D01*
X237269363Y-90716762D01*
X237303764Y-90728917D01*
X237317555Y-90732484D01*
X237333241Y-90735352D01*
X237351421Y-90737325D01*
X237374083Y-90738614D01*
X237403217Y-90739427D01*
X237429890Y-90739900D01*
X237450942Y-90740037D01*
X237467447Y-90739676D01*
X237481393Y-90738673D01*
X237494768Y-90736884D01*
X237509559Y-90734163D01*
X237527755Y-90730366D01*
X237554794Y-90724007D01*
X237626640Y-90701350D01*
X237697960Y-90670531D01*
X237768281Y-90631771D01*
X237837134Y-90585290D01*
X237843113Y-90580716D01*
X237863207Y-90563878D01*
X237886763Y-90542485D01*
X237912330Y-90517978D01*
X237938459Y-90491800D01*
X237963700Y-90465391D01*
X237986603Y-90440194D01*
X238005719Y-90417650D01*
X238008116Y-90414643D01*
X238032710Y-90379467D01*
X238056944Y-90337391D01*
X238080254Y-90289837D01*
X238102077Y-90238229D01*
X238121848Y-90183990D01*
X238139006Y-90128542D01*
X238152987Y-90073310D01*
X238163226Y-90019716D01*
X238165010Y-90008014D01*
X238168110Y-89984750D01*
X238170058Y-89963591D01*
X238170996Y-89941900D01*
X238171066Y-89917037D01*
X238170411Y-89886366D01*
X238170003Y-89873621D01*
X238168079Y-89837829D01*
X238164839Y-89807702D01*
X238159814Y-89781133D01*
X238152534Y-89756011D01*
X238142531Y-89730227D01*
X238129336Y-89701673D01*
X238121154Y-89685783D01*
X238104079Y-89658782D01*
X238085085Y-89637858D01*
X238062547Y-89621711D01*
X238034839Y-89609044D01*
X238000335Y-89598555D01*
X237977017Y-89593710D01*
X237928992Y-89589950D01*
X237878079Y-89593574D01*
X237824714Y-89604382D01*
X237769336Y-89622174D01*
X237712380Y-89646750D01*
X237654286Y-89677909D01*
X237595490Y-89715452D01*
X237536429Y-89759179D01*
X237477542Y-89808888D01*
X237419265Y-89864381D01*
X237400793Y-89884250D01*
X237369454Y-89917961D01*
X237322508Y-89976848D01*
X237281918Y-90038095D01*
X237246607Y-90103343D01*
X237215496Y-90174233D01*
X237212830Y-90181011D01*
X237195764Y-90226841D01*
X237182602Y-90267305D01*
X237172858Y-90304015D01*
X237166048Y-90338583D01*
X237164831Y-90345856D01*
X237161522Y-90363662D01*
X237158350Y-90378327D01*
X237155866Y-90387231D01*
X237155613Y-90387988D01*
X237153870Y-90397240D01*
X237152060Y-90412685D01*
X237150383Y-90432360D01*
X237149038Y-90454304D01*
X237148053Y-90478515D01*
X237147947Y-90499027D01*
X236509644Y-90499027D01*
X236513330Y-90498215D01*
X236584885Y-90477107D01*
X236652808Y-90449375D01*
X236716612Y-90415451D01*
X236775810Y-90375768D01*
X236829916Y-90330756D01*
X236878443Y-90280847D01*
X236920905Y-90226474D01*
X236956815Y-90168067D01*
X236985686Y-90106060D01*
X237007032Y-90040883D01*
X237014447Y-90011599D01*
X237020440Y-89984775D01*
X237024497Y-89961165D01*
X237026965Y-89938233D01*
X237028193Y-89913440D01*
X237028530Y-89884250D01*
X237025417Y-89823691D01*
X237014393Y-89756222D01*
X236995764Y-89691166D01*
X236969908Y-89628943D01*
X236937199Y-89569973D01*
X236898015Y-89514675D01*
X236852731Y-89463468D01*
X236801724Y-89416773D01*
X236745369Y-89375009D01*
X236684043Y-89338596D01*
X236618123Y-89307953D01*
X236547983Y-89283499D01*
X236474000Y-89265655D01*
X236448026Y-89261180D01*
X236370617Y-89253224D01*
X236293716Y-89253184D01*
X236217948Y-89260875D01*
X236143936Y-89276111D01*
X236072306Y-89298708D01*
X236003680Y-89328480D01*
X235938685Y-89365242D01*
X235877943Y-89408809D01*
X235822080Y-89458996D01*
X235792479Y-89490451D01*
X235747608Y-89546760D01*
X235710745Y-89605624D01*
X235681773Y-89667312D01*
X235660573Y-89732093D01*
X235647027Y-89800237D01*
X235641017Y-89872011D01*
X235640588Y-89896484D01*
X235364824Y-89896484D01*
X235321995Y-89844033D01*
X235292629Y-89811929D01*
X235224986Y-89742514D01*
X235158895Y-89681141D01*
X235094425Y-89627868D01*
X235031642Y-89582750D01*
X234970611Y-89545845D01*
X234957018Y-89538793D01*
X234922449Y-89523500D01*
X234886136Y-89510643D01*
X234849842Y-89500666D01*
X234815330Y-89494013D01*
X234784364Y-89491128D01*
X234758706Y-89492456D01*
X234727897Y-89498651D01*
X234692587Y-89510233D01*
X234663142Y-89526156D01*
X234638436Y-89547067D01*
X234617341Y-89573615D01*
X234611767Y-89582275D01*
X234591222Y-89619968D01*
X234573564Y-89662732D01*
X234558538Y-89711365D01*
X234545886Y-89766662D01*
X234535355Y-89829422D01*
X234533607Y-89842542D01*
X234528467Y-89904468D01*
X234527816Y-89968554D01*
X234277177Y-89968554D01*
X234276054Y-89965460D01*
X234265953Y-89937469D01*
X234256286Y-89910428D01*
X234247674Y-89886086D01*
X234240735Y-89866193D01*
X234236090Y-89852500D01*
X234232293Y-89840507D01*
X234226181Y-89820019D01*
X234219358Y-89796133D01*
X234212206Y-89770291D01*
X234205107Y-89743934D01*
X234198443Y-89718504D01*
X234192595Y-89695444D01*
X234187945Y-89676194D01*
X234184875Y-89662197D01*
X234183767Y-89654893D01*
X234183722Y-89654177D01*
X234180317Y-89645483D01*
X234172370Y-89632924D01*
X234161094Y-89618454D01*
X234156447Y-89612934D01*
X234107399Y-89549272D01*
X234063074Y-89481684D01*
X234024650Y-89412107D01*
X233993304Y-89342475D01*
X233987593Y-89327118D01*
X233979699Y-89303591D01*
X233971531Y-89277236D01*
X233963710Y-89250213D01*
X233956858Y-89224684D01*
X233951595Y-89202811D01*
X233948544Y-89186756D01*
X233947445Y-89180189D01*
X233944722Y-89169517D01*
X233941979Y-89164281D01*
X233941116Y-89160494D01*
X233940283Y-89149305D01*
X233939596Y-89131944D01*
X233939054Y-89109626D01*
X233938658Y-89083564D01*
X233938409Y-89054971D01*
X233938308Y-89025062D01*
X233938356Y-88995048D01*
X233938533Y-88969072D01*
X234169594Y-88969072D01*
X234170984Y-89049040D01*
X234175116Y-89092249D01*
X234189184Y-89171039D01*
X234211589Y-89248373D01*
X234242323Y-89324222D01*
X234249722Y-89339183D01*
X234264759Y-89365949D01*
X234282292Y-89393777D01*
X234301392Y-89421448D01*
X234321130Y-89447746D01*
X234340576Y-89471454D01*
X234358802Y-89491355D01*
X234374879Y-89506232D01*
X234387876Y-89514867D01*
X234388262Y-89515043D01*
X234401029Y-89520080D01*
X234412367Y-89523401D01*
X234424590Y-89523974D01*
X234444460Y-89518716D01*
X234465577Y-89506851D01*
X234486752Y-89489099D01*
X234506796Y-89466180D01*
X234518896Y-89448238D01*
X234534289Y-89421134D01*
X234550295Y-89389012D01*
X234566113Y-89353586D01*
X234580940Y-89316573D01*
X234593977Y-89279685D01*
X234598054Y-89267100D01*
X234630138Y-89155869D01*
X234655020Y-89044461D01*
X234672922Y-88931510D01*
X234684064Y-88815651D01*
X234686174Y-88760617D01*
X234876641Y-88760617D01*
X234877282Y-88793031D01*
X234878729Y-88821973D01*
X234880988Y-88844966D01*
X234881849Y-88850516D01*
X234886507Y-88873232D01*
X234893402Y-88900707D01*
X234901873Y-88930765D01*
X234911257Y-88961233D01*
X234920894Y-88989936D01*
X234930123Y-89014699D01*
X234938282Y-89033349D01*
X234946050Y-89048280D01*
X234979601Y-89101896D01*
X235019957Y-89152277D01*
X235065945Y-89198218D01*
X235116395Y-89238513D01*
X235170134Y-89271956D01*
X235178028Y-89276032D01*
X235207979Y-89289387D01*
X235242632Y-89302361D01*
X235279142Y-89314022D01*
X235314669Y-89323441D01*
X235346369Y-89329685D01*
X235398557Y-89334881D01*
X235465278Y-89334462D01*
X235533429Y-89326667D01*
X235601891Y-89311695D01*
X235669548Y-89289742D01*
X235735284Y-89261005D01*
X235760385Y-89247993D01*
X235831822Y-89204753D01*
X235897733Y-89155131D01*
X235957967Y-89099274D01*
X236012377Y-89037329D01*
X236060814Y-88969444D01*
X236103131Y-88895766D01*
X236114988Y-88871799D01*
X236146840Y-88796424D01*
X236170619Y-88720893D01*
X236186288Y-88645517D01*
X236193811Y-88570606D01*
X236193621Y-88549343D01*
X236476027Y-88549343D01*
X236476166Y-88570606D01*
X236476457Y-88615193D01*
X236484065Y-88683188D01*
X236498491Y-88752246D01*
X236519375Y-88821289D01*
X236546357Y-88889234D01*
X236579077Y-88955002D01*
X236617176Y-89017512D01*
X236660294Y-89075683D01*
X236697005Y-89117877D01*
X236756333Y-89176058D01*
X236819756Y-89226956D01*
X236887095Y-89270459D01*
X236958171Y-89306457D01*
X237032807Y-89334839D01*
X237110823Y-89355495D01*
X237114856Y-89356332D01*
X237141472Y-89361160D01*
X237167913Y-89364525D01*
X237197053Y-89366726D01*
X237231767Y-89368059D01*
X237235210Y-89368148D01*
X237261609Y-89368677D01*
X237281956Y-89368629D01*
X237298413Y-89367840D01*
X237313142Y-89366146D01*
X237328306Y-89363383D01*
X237346067Y-89359387D01*
X237392993Y-89347060D01*
X237447497Y-89328639D01*
X237496423Y-89306692D01*
X237541244Y-89280437D01*
X237583431Y-89249096D01*
X237624459Y-89211887D01*
X237643834Y-89191879D01*
X237682575Y-89145033D01*
X237715150Y-89094719D01*
X237742075Y-89039955D01*
X237763865Y-88979753D01*
X237781039Y-88913129D01*
X237782761Y-88904988D01*
X237786471Y-88886004D01*
X237789098Y-88869031D01*
X237790818Y-88851974D01*
X237791808Y-88832738D01*
X237792245Y-88809228D01*
X237792305Y-88779349D01*
X237792211Y-88757375D01*
X237792026Y-88745342D01*
X238007201Y-88745342D01*
X238008274Y-88779349D01*
X238009080Y-88804928D01*
X238013090Y-88863004D01*
X238019181Y-88916933D01*
X238030704Y-88993092D01*
X238046627Y-89080975D01*
X238064693Y-89163171D01*
X238085227Y-89241137D01*
X238108557Y-89316331D01*
X238113333Y-89330238D01*
X238131663Y-89377532D01*
X238151445Y-89419980D01*
X238172279Y-89456990D01*
X238193767Y-89487966D01*
X238215506Y-89512312D01*
X238237099Y-89529435D01*
X238258144Y-89538739D01*
X238263397Y-89540007D01*
X238275181Y-89542446D01*
X238282450Y-89543370D01*
X238292232Y-89541094D01*
X238307765Y-89532102D01*
X238327101Y-89516127D01*
X238350466Y-89493000D01*
X238374568Y-89465965D01*
X238410747Y-89417370D01*
X238442132Y-89363854D01*
X238469072Y-89304710D01*
X238491914Y-89239227D01*
X238511007Y-89166699D01*
X238513185Y-89156983D01*
X238517330Y-89137025D01*
X238520377Y-89119023D01*
X238522548Y-89100892D01*
X238524063Y-89080548D01*
X238525142Y-89055906D01*
X238526006Y-89024883D01*
X238526295Y-89012061D01*
X238526734Y-88983853D01*
X238526639Y-88961397D01*
X238525908Y-88942743D01*
X238524437Y-88925936D01*
X238522122Y-88909026D01*
X238518860Y-88890060D01*
X238503712Y-88823931D01*
X238478056Y-88746611D01*
X238444003Y-88670157D01*
X238427430Y-88639860D01*
X238391768Y-88586465D01*
X238349217Y-88534942D01*
X238300790Y-88486358D01*
X238247495Y-88441780D01*
X238190343Y-88402275D01*
X238188933Y-88401401D01*
X238161150Y-88387008D01*
X238136554Y-88380203D01*
X238114568Y-88381001D01*
X238094617Y-88389418D01*
X238076123Y-88405472D01*
X238073104Y-88408927D01*
X238055978Y-88433736D01*
X238041575Y-88464648D01*
X238029722Y-88502192D01*
X238020248Y-88546897D01*
X238012980Y-88599292D01*
X238010042Y-88632181D01*
X238007504Y-88686881D01*
X238007201Y-88745342D01*
X237792026Y-88745342D01*
X237791833Y-88732791D01*
X237790975Y-88712892D01*
X237789425Y-88695486D01*
X237786973Y-88678379D01*
X237783405Y-88659380D01*
X237778512Y-88636295D01*
X237762027Y-88571695D01*
X237734340Y-88492106D01*
X237699376Y-88416802D01*
X237657033Y-88345596D01*
X237607210Y-88278302D01*
X237549806Y-88214733D01*
X237509132Y-88176235D01*
X237446283Y-88125734D01*
X237380241Y-88082800D01*
X237311304Y-88047579D01*
X237239768Y-88020214D01*
X237165928Y-88000851D01*
X237090080Y-87989635D01*
X237090061Y-87989633D01*
X237070160Y-87987671D01*
X237053420Y-87985790D01*
X237041600Y-87984204D01*
X237036456Y-87983126D01*
X237031578Y-87982532D01*
X237019465Y-87983291D01*
X237001856Y-87985367D01*
X236980246Y-87988502D01*
X236956131Y-87992440D01*
X236931005Y-87996923D01*
X236906365Y-88001694D01*
X236883704Y-88006496D01*
X236864518Y-88011070D01*
X236850303Y-88015160D01*
X236813566Y-88029115D01*
X236755787Y-88058074D01*
X236701604Y-88094000D01*
X236651856Y-88136149D01*
X236607378Y-88183780D01*
X236569008Y-88236150D01*
X236537583Y-88292516D01*
X236519792Y-88333287D01*
X236504741Y-88376514D01*
X236493046Y-88421864D01*
X236484182Y-88471388D01*
X236477626Y-88527139D01*
X236476027Y-88549343D01*
X236193621Y-88549343D01*
X236193150Y-88496470D01*
X236184270Y-88423421D01*
X236167133Y-88351768D01*
X236150267Y-88301818D01*
X236126274Y-88247049D01*
X236097609Y-88197400D01*
X236063369Y-88151341D01*
X236022649Y-88107342D01*
X235997135Y-88083657D01*
X235948423Y-88045753D01*
X235896387Y-88014632D01*
X235839789Y-87989600D01*
X235777388Y-87969962D01*
X235770959Y-87968285D01*
X235751333Y-87963306D01*
X235735249Y-87959692D01*
X235720706Y-87957219D01*
X235705703Y-87955658D01*
X235688239Y-87954784D01*
X235666310Y-87954371D01*
X235637917Y-87954192D01*
X235629816Y-87954155D01*
X235607067Y-87954079D01*
X235588667Y-87954240D01*
X235573043Y-87954856D01*
X235558623Y-87956143D01*
X235543834Y-87958319D01*
X235527103Y-87961603D01*
X235506858Y-87966213D01*
X235481526Y-87972365D01*
X235449534Y-87980278D01*
X235431640Y-87985354D01*
X235397018Y-87997844D01*
X235358954Y-88014317D01*
X235319341Y-88033818D01*
X235280073Y-88055394D01*
X235243042Y-88078091D01*
X235210142Y-88100953D01*
X235205908Y-88104147D01*
X235147238Y-88153213D01*
X235092538Y-88207913D01*
X235043296Y-88266638D01*
X235000997Y-88327774D01*
X234974814Y-88373136D01*
X234942071Y-88440853D01*
X234915132Y-88510824D01*
X234894671Y-88581225D01*
X234881367Y-88650233D01*
X234880550Y-88657741D01*
X234879508Y-88667327D01*
X234877758Y-88695288D01*
X234876801Y-88727210D01*
X234876641Y-88760617D01*
X234686174Y-88760617D01*
X234688669Y-88695519D01*
X234688750Y-88657741D01*
X234687653Y-88615669D01*
X234685034Y-88578806D01*
X234680706Y-88545373D01*
X234674483Y-88513592D01*
X234666177Y-88481684D01*
X234658054Y-88455361D01*
X234647842Y-88428346D01*
X234637002Y-88407447D01*
X234624691Y-88391372D01*
X234610064Y-88378830D01*
X234592280Y-88368529D01*
X234589228Y-88367038D01*
X234577315Y-88361638D01*
X234568833Y-88359607D01*
X234560315Y-88360615D01*
X234548292Y-88364331D01*
X234540773Y-88367154D01*
X234518018Y-88378394D01*
X234491552Y-88394526D01*
X234462781Y-88414539D01*
X234433111Y-88437423D01*
X234403948Y-88462165D01*
X234376697Y-88487756D01*
X234375261Y-88489188D01*
X234323788Y-88546492D01*
X234279444Y-88608187D01*
X234242370Y-88673888D01*
X234212708Y-88743212D01*
X234190597Y-88815773D01*
X234176179Y-88891188D01*
X234169594Y-88969072D01*
X233938533Y-88969072D01*
X233938553Y-88966144D01*
X233938900Y-88939563D01*
X233939398Y-88916519D01*
X233940047Y-88898224D01*
X233940849Y-88885893D01*
X233941804Y-88880738D01*
X233942435Y-88879654D01*
X233944898Y-88871580D01*
X233947769Y-88858083D01*
X233950548Y-88841409D01*
X233955878Y-88811667D01*
X233970095Y-88756611D01*
X233990008Y-88698646D01*
X234014953Y-88639179D01*
X234044266Y-88579618D01*
X234077286Y-88521371D01*
X234113347Y-88465844D01*
X234151787Y-88414447D01*
X234172100Y-88390912D01*
X234198442Y-88363275D01*
X234227650Y-88334863D01*
X234257722Y-88307553D01*
X234286659Y-88283221D01*
X234312459Y-88263743D01*
X234327188Y-88253238D01*
X234340742Y-88242425D01*
X234350894Y-88232113D01*
X234359748Y-88220101D01*
X234369409Y-88204189D01*
X234388684Y-88170895D01*
X234390708Y-88131540D01*
X234622424Y-88131540D01*
X234622773Y-88145535D01*
X234623717Y-88154767D01*
X234625436Y-88160644D01*
X234628108Y-88164577D01*
X234631911Y-88167975D01*
X234636152Y-88170960D01*
X234646989Y-88174944D01*
X234660878Y-88175126D01*
X234679277Y-88171423D01*
X234703648Y-88163747D01*
X234721267Y-88157029D01*
X234759301Y-88139411D01*
X234802472Y-88115821D01*
X234850451Y-88086488D01*
X234902910Y-88051640D01*
X234959521Y-88011506D01*
X235019957Y-87966315D01*
X235083890Y-87916296D01*
X235150991Y-87861678D01*
X235220934Y-87802690D01*
X235273612Y-87756689D01*
X235326060Y-87709116D01*
X235375184Y-87662715D01*
X235420595Y-87617911D01*
X235443601Y-87594086D01*
X235706148Y-87594086D01*
X235708097Y-87632990D01*
X235718172Y-87672152D01*
X235719529Y-87675768D01*
X235735051Y-87705756D01*
X235757764Y-87735936D01*
X235786617Y-87765341D01*
X235820560Y-87793003D01*
X235858542Y-87817954D01*
X235899512Y-87839228D01*
X235905516Y-87841909D01*
X235959969Y-87862938D01*
X236020481Y-87881073D01*
X236085215Y-87895887D01*
X236152334Y-87906952D01*
X236220000Y-87913840D01*
X236250785Y-87915919D01*
X236281822Y-87917814D01*
X236307450Y-87919030D01*
X236329331Y-87919580D01*
X236349127Y-87919478D01*
X236368499Y-87918736D01*
X236389109Y-87917369D01*
X236412617Y-87915389D01*
X236448445Y-87911683D01*
X236527812Y-87899643D01*
X236602296Y-87882871D01*
X236671439Y-87861542D01*
X236734786Y-87835830D01*
X236791878Y-87805911D01*
X236842261Y-87771961D01*
X236885475Y-87734153D01*
X236913174Y-87702973D01*
X236936812Y-87668163D01*
X236953274Y-87633235D01*
X236962326Y-87598835D01*
X236963740Y-87565606D01*
X236957282Y-87534191D01*
X236946730Y-87509413D01*
X236925132Y-87473861D01*
X236895977Y-87437724D01*
X236859725Y-87401496D01*
X236816836Y-87365671D01*
X236793346Y-87348949D01*
X237066662Y-87348949D01*
X237067243Y-87358876D01*
X237071881Y-87371919D01*
X237079867Y-87388682D01*
X237080782Y-87390501D01*
X237091764Y-87410777D01*
X237104264Y-87430813D01*
X237119196Y-87451832D01*
X237137475Y-87475060D01*
X237160016Y-87501720D01*
X237187734Y-87533036D01*
X237195166Y-87541231D01*
X237218244Y-87565606D01*
X237233651Y-87581879D01*
X237277795Y-87626003D01*
X237326459Y-87672599D01*
X237378503Y-87720660D01*
X237432787Y-87769181D01*
X237488174Y-87817156D01*
X237543523Y-87863579D01*
X237597695Y-87907444D01*
X237649552Y-87947746D01*
X237697953Y-87983479D01*
X237744425Y-88016387D01*
X237787911Y-88046364D01*
X237826375Y-88071867D01*
X237860593Y-88093368D01*
X237891340Y-88111336D01*
X237919392Y-88126242D01*
X237945524Y-88138555D01*
X237970512Y-88148747D01*
X237994397Y-88156340D01*
X238014402Y-88159107D01*
X238029374Y-88156334D01*
X238040027Y-88148012D01*
X238043421Y-88143026D01*
X238045834Y-88137069D01*
X238047400Y-88128689D01*
X238048297Y-88116374D01*
X238048705Y-88098615D01*
X238048800Y-88073901D01*
X238048437Y-88047200D01*
X238044679Y-87989638D01*
X238036438Y-87934034D01*
X238023204Y-87876466D01*
X238021193Y-87869013D01*
X237996404Y-87791959D01*
X237965823Y-87720948D01*
X237929213Y-87655649D01*
X237886341Y-87595729D01*
X237836973Y-87540859D01*
X237780872Y-87490705D01*
X237717806Y-87444936D01*
X237687623Y-87426339D01*
X237622427Y-87393120D01*
X237552192Y-87365806D01*
X237477780Y-87344581D01*
X237400051Y-87329629D01*
X237319866Y-87321137D01*
X237238084Y-87319287D01*
X237155567Y-87324265D01*
X237149499Y-87324891D01*
X237119131Y-87328308D01*
X237096374Y-87331818D01*
X237080517Y-87336025D01*
X237070850Y-87341534D01*
X237066662Y-87348949D01*
X236793346Y-87348949D01*
X236767769Y-87330742D01*
X236760132Y-87325745D01*
X236706587Y-87293370D01*
X236654179Y-87266820D01*
X236600566Y-87245132D01*
X236543404Y-87227342D01*
X236480350Y-87212485D01*
X236471643Y-87210715D01*
X236450597Y-87206712D01*
X236432393Y-87203901D01*
X236414768Y-87202089D01*
X236395463Y-87201081D01*
X236372217Y-87200686D01*
X236342767Y-87200708D01*
X236325274Y-87200857D01*
X236289191Y-87201775D01*
X236258363Y-87203733D01*
X236230553Y-87207040D01*
X236203525Y-87212001D01*
X236175040Y-87218924D01*
X236142861Y-87228115D01*
X236100751Y-87241469D01*
X236031290Y-87267302D01*
X235968756Y-87295973D01*
X235912338Y-87327913D01*
X235861229Y-87363554D01*
X235850063Y-87373082D01*
X235814620Y-87403327D01*
X235780694Y-87438029D01*
X235749598Y-87477410D01*
X235726844Y-87516446D01*
X235712379Y-87555288D01*
X235706148Y-87594086D01*
X235443601Y-87594086D01*
X235461903Y-87575132D01*
X235498720Y-87534805D01*
X235530657Y-87497355D01*
X235557325Y-87463209D01*
X235578335Y-87432795D01*
X235593299Y-87406538D01*
X235601826Y-87384866D01*
X235601961Y-87384363D01*
X235604325Y-87373082D01*
X235603959Y-87364470D01*
X235599911Y-87357979D01*
X235591228Y-87353060D01*
X235576959Y-87349164D01*
X235556150Y-87345743D01*
X235527851Y-87342248D01*
X235476155Y-87337949D01*
X235410120Y-87336435D01*
X235342847Y-87338817D01*
X235277312Y-87344977D01*
X235216493Y-87354794D01*
X235211244Y-87355876D01*
X235145662Y-87373086D01*
X235080302Y-87396735D01*
X235016739Y-87426020D01*
X234956554Y-87460141D01*
X234901323Y-87498295D01*
X234852624Y-87539681D01*
X234817727Y-87575059D01*
X234768966Y-87633736D01*
X234727732Y-87696166D01*
X234693880Y-87762577D01*
X234667266Y-87833200D01*
X234664587Y-87841721D01*
X234650643Y-87888868D01*
X234639992Y-87931042D01*
X234632252Y-87970491D01*
X234627040Y-88009460D01*
X234623973Y-88050197D01*
X234622669Y-88094950D01*
X234622493Y-88111372D01*
X234622424Y-88131540D01*
X234390708Y-88131540D01*
X234391979Y-88106822D01*
X234394546Y-88061918D01*
X234397628Y-88019934D01*
X234401229Y-87982979D01*
X234405552Y-87949267D01*
X234410799Y-87917015D01*
X234417171Y-87884438D01*
X234429304Y-87832570D01*
X234454055Y-87751079D01*
X234484822Y-87675021D01*
X234521965Y-87603734D01*
X234565844Y-87536559D01*
X234616822Y-87472836D01*
X234675257Y-87411904D01*
X234685558Y-87402180D01*
X234706657Y-87383280D01*
X234729479Y-87364272D01*
X234755132Y-87344306D01*
X234784723Y-87322532D01*
X234819360Y-87298103D01*
X234860151Y-87270168D01*
X234880346Y-87256222D01*
X234897630Y-87243776D01*
X234910945Y-87233634D01*
X234919257Y-87226584D01*
X234921534Y-87223411D01*
X234921039Y-87223064D01*
X234914292Y-87220156D01*
X234902083Y-87215887D01*
X234886650Y-87211051D01*
X234856298Y-87200369D01*
X234821211Y-87183230D01*
X234791270Y-87162883D01*
X234767302Y-87140018D01*
X234750134Y-87115322D01*
X234740593Y-87089484D01*
X234739485Y-87084727D01*
X234736131Y-87076618D01*
X234730056Y-87070845D01*
X234719412Y-87066017D01*
X234702351Y-87060748D01*
X234693471Y-87058006D01*
X234660835Y-87044568D01*
X234629234Y-87026730D01*
X234600516Y-87005795D01*
X234576530Y-86983063D01*
X234559123Y-86959838D01*
X234554605Y-86951155D01*
X234547300Y-86933984D01*
X234541401Y-86916629D01*
X234537642Y-86904472D01*
X234532083Y-86891565D01*
X234524511Y-86881198D01*
X234513154Y-86871110D01*
X234496242Y-86859041D01*
X234478962Y-86846532D01*
X234447081Y-86819259D01*
X234419149Y-86789743D01*
X234396557Y-86759533D01*
X234380694Y-86730179D01*
X234376842Y-86717648D01*
X234373383Y-86700230D01*
X234371151Y-86681928D01*
X234370217Y-86670769D01*
X234368443Y-86658347D01*
X234365201Y-86649812D01*
X234359241Y-86642375D01*
X234349309Y-86633245D01*
X234346401Y-86630660D01*
X234321874Y-86607221D01*
X234303350Y-86585529D01*
X234289511Y-86563527D01*
X234279040Y-86539158D01*
X234270620Y-86510366D01*
X234267917Y-86498737D01*
X234265711Y-86484524D01*
X234265966Y-86472494D01*
X234268535Y-86459059D01*
X234273755Y-86437302D01*
X234245095Y-86397593D01*
X234244230Y-86396393D01*
X234224158Y-86367091D01*
X234209407Y-86341963D01*
X234199230Y-86319363D01*
X234192884Y-86297648D01*
X234189623Y-86275174D01*
X234189456Y-86273138D01*
X234188647Y-86253786D01*
X234190019Y-86239459D01*
X234193834Y-86227191D01*
X234195305Y-86223557D01*
X234199156Y-86212559D01*
X234200701Y-86205594D01*
X234200500Y-86204539D01*
X234197108Y-86197114D01*
X234190392Y-86185322D01*
X234181481Y-86171186D01*
X234181272Y-86170867D01*
X234170453Y-86152255D01*
X234160475Y-86131541D01*
X234153474Y-86113151D01*
X234147635Y-86089291D01*
X234146963Y-86080673D01*
X234315000Y-86080673D01*
X234315749Y-86083005D01*
X234320335Y-86091410D01*
X234327993Y-86103582D01*
X234337439Y-86117586D01*
X234347388Y-86131484D01*
X234356557Y-86143341D01*
X234357487Y-86144447D01*
X234367295Y-86154741D01*
X234381684Y-86168420D01*
X234398867Y-86183832D01*
X234417060Y-86199324D01*
X234426241Y-86206992D01*
X234450276Y-86228001D01*
X234467449Y-86244747D01*
X234477961Y-86257461D01*
X234482011Y-86266376D01*
X234479803Y-86271723D01*
X234475952Y-86274161D01*
X234454823Y-86282773D01*
X234429015Y-86287498D01*
X234400989Y-86288051D01*
X234373209Y-86284144D01*
X234370004Y-86283443D01*
X234360966Y-86282055D01*
X234357334Y-86282521D01*
X234358181Y-86285328D01*
X234364047Y-86294541D01*
X234374750Y-86308064D01*
X234389415Y-86324933D01*
X234407163Y-86344182D01*
X234427116Y-86364847D01*
X234448399Y-86385963D01*
X234470133Y-86406566D01*
X234476992Y-86412925D01*
X234496124Y-86430880D01*
X234512765Y-86446816D01*
X234525975Y-86459813D01*
X234534812Y-86468949D01*
X234538333Y-86473301D01*
X234536397Y-86478965D01*
X234527449Y-86484261D01*
X234512892Y-86488649D01*
X234494169Y-86491696D01*
X234472723Y-86492970D01*
X234466898Y-86493066D01*
X234452246Y-86493648D01*
X234442266Y-86494564D01*
X234438856Y-86495664D01*
X234439708Y-86497128D01*
X234446632Y-86504980D01*
X234458995Y-86516698D01*
X234475719Y-86531414D01*
X234495728Y-86548259D01*
X234517945Y-86566364D01*
X234541293Y-86584860D01*
X234564695Y-86602879D01*
X234587074Y-86619552D01*
X234607353Y-86634010D01*
X234624454Y-86645384D01*
X234634425Y-86651705D01*
X234643448Y-86657965D01*
X234646986Y-86662070D01*
X234646033Y-86665413D01*
X234641584Y-86669385D01*
X234630609Y-86675407D01*
X234612022Y-86680956D01*
X234588955Y-86684683D01*
X234563500Y-86686138D01*
X234537250Y-86686310D01*
X234552067Y-86699194D01*
X234564702Y-86709398D01*
X234588782Y-86726554D01*
X234618378Y-86745677D01*
X234652149Y-86765943D01*
X234688757Y-86786531D01*
X234726863Y-86806616D01*
X234741577Y-86814181D01*
X234768020Y-86828300D01*
X234786801Y-86839205D01*
X234798015Y-86846954D01*
X234801755Y-86851603D01*
X234801363Y-86853424D01*
X234795324Y-86859742D01*
X234783512Y-86866347D01*
X234767887Y-86872432D01*
X234750410Y-86877192D01*
X234733042Y-86879822D01*
X234722469Y-86880980D01*
X234712536Y-86882968D01*
X234708701Y-86885065D01*
X234709515Y-86886864D01*
X234716761Y-86892470D01*
X234730740Y-86900018D01*
X234750515Y-86909137D01*
X234775147Y-86919455D01*
X234803699Y-86930601D01*
X234835234Y-86942204D01*
X234868814Y-86953891D01*
X234903502Y-86965293D01*
X234938359Y-86976037D01*
X234944269Y-86977850D01*
X234960673Y-86983643D01*
X234971496Y-86988748D01*
X234975401Y-86992568D01*
X234973543Y-86999323D01*
X234965161Y-87010503D01*
X234951383Y-87022179D01*
X234933704Y-87032906D01*
X234909784Y-87045122D01*
X234926315Y-87052142D01*
X234937813Y-87056423D01*
X234965603Y-87063903D01*
X235001173Y-87070613D01*
X235044094Y-87076477D01*
X235093934Y-87081420D01*
X235122156Y-87083920D01*
X235150360Y-87086865D01*
X235171960Y-87089794D01*
X235187985Y-87092879D01*
X235199462Y-87096288D01*
X235207421Y-87100191D01*
X235208996Y-87101503D01*
X235211077Y-87109325D01*
X235207235Y-87120494D01*
X235198254Y-87133780D01*
X235184921Y-87147954D01*
X235168024Y-87161787D01*
X235163016Y-87166316D01*
X235161751Y-87170061D01*
X235162360Y-87170502D01*
X235169318Y-87172612D01*
X235180609Y-87174452D01*
X235193072Y-87175689D01*
X235203545Y-87175991D01*
X235208867Y-87175023D01*
X235210968Y-87174350D01*
X235220335Y-87173008D01*
X235235749Y-87171497D01*
X235255709Y-87169955D01*
X235278717Y-87168523D01*
X235311640Y-87166492D01*
X235362423Y-87162253D01*
X235407750Y-87156764D01*
X235449503Y-87149685D01*
X235489564Y-87140675D01*
X235529814Y-87129394D01*
X235572136Y-87115503D01*
X235574550Y-87114658D01*
X235639843Y-87088136D01*
X235698119Y-87056929D01*
X235749460Y-87020962D01*
X235793952Y-86980157D01*
X235831678Y-86934438D01*
X235862721Y-86883728D01*
X235887168Y-86827950D01*
X235891324Y-86815492D01*
X235894751Y-86800521D01*
X235894183Y-86792078D01*
X235889800Y-86786576D01*
X235880187Y-86776336D01*
X235866491Y-86762512D01*
X235849820Y-86746175D01*
X235831279Y-86728395D01*
X235811973Y-86710245D01*
X235793009Y-86692795D01*
X235775493Y-86677116D01*
X235735709Y-86643194D01*
X235681819Y-86599754D01*
X235622906Y-86554590D01*
X235560413Y-86508736D01*
X235495783Y-86463226D01*
X235430456Y-86419091D01*
X235365876Y-86377364D01*
X235303484Y-86339078D01*
X235301660Y-86337993D01*
X235265868Y-86316967D01*
X235224878Y-86293328D01*
X235179939Y-86267767D01*
X235132302Y-86240974D01*
X235083217Y-86213637D01*
X235033933Y-86186448D01*
X234985702Y-86160095D01*
X234939772Y-86135269D01*
X234897393Y-86112659D01*
X234859817Y-86092956D01*
X234828292Y-86076849D01*
X234821918Y-86073562D01*
X234807008Y-86064981D01*
X234797015Y-86057815D01*
X234793367Y-86053036D01*
X234793292Y-86050150D01*
X234793828Y-86048021D01*
X234796451Y-86047611D01*
X234802650Y-86049152D01*
X234813914Y-86052876D01*
X234831731Y-86059015D01*
X234844833Y-86063534D01*
X234923651Y-86091409D01*
X234997924Y-86118997D01*
X235069312Y-86147004D01*
X235139474Y-86176135D01*
X235210071Y-86207095D01*
X235282762Y-86240591D01*
X235359207Y-86277327D01*
X235441067Y-86318010D01*
X235460632Y-86327938D01*
X235556005Y-86378574D01*
X235646332Y-86430587D01*
X235733973Y-86485442D01*
X235821288Y-86544604D01*
X235910637Y-86609538D01*
X235920640Y-86616999D01*
X235947314Y-86636506D01*
X235969897Y-86652416D01*
X235987758Y-86664305D01*
X236000268Y-86671749D01*
X236006799Y-86674325D01*
X236009811Y-86673984D01*
X236022084Y-86669476D01*
X236038445Y-86660543D01*
X236057364Y-86648224D01*
X236077310Y-86633560D01*
X236096754Y-86617590D01*
X236114167Y-86601354D01*
X236136682Y-86576877D01*
X236157015Y-86549281D01*
X236173190Y-86519376D01*
X236187120Y-86484086D01*
X236188872Y-86478994D01*
X236192915Y-86466756D01*
X236195766Y-86456288D01*
X236197586Y-86445884D01*
X236198536Y-86433838D01*
X236198775Y-86418445D01*
X236198463Y-86398000D01*
X236198086Y-86383379D01*
X236478768Y-86383379D01*
X236480085Y-86411149D01*
X236481130Y-86418445D01*
X236484278Y-86440433D01*
X236485583Y-86447267D01*
X236499335Y-86496202D01*
X236520109Y-86540645D01*
X236548084Y-86580861D01*
X236583438Y-86617113D01*
X236626351Y-86649665D01*
X236637818Y-86657193D01*
X236654539Y-86667657D01*
X236666888Y-86673764D01*
X236676620Y-86675703D01*
X236685491Y-86673664D01*
X236695258Y-86667835D01*
X236707677Y-86658404D01*
X236735149Y-86637222D01*
X236848368Y-86554450D01*
X236965297Y-86475882D01*
X237084381Y-86402488D01*
X237204062Y-86335239D01*
X237322784Y-86275104D01*
X237343921Y-86265177D01*
X237371560Y-86252482D01*
X237403480Y-86238027D01*
X237438186Y-86222475D01*
X237474179Y-86206488D01*
X237509964Y-86190726D01*
X237544043Y-86175854D01*
X237574920Y-86162531D01*
X237601098Y-86151420D01*
X237621080Y-86143184D01*
X237627190Y-86140765D01*
X237644974Y-86133937D01*
X237667298Y-86125572D01*
X237693027Y-86116075D01*
X237721027Y-86105854D01*
X237750162Y-86095315D01*
X237779298Y-86084863D01*
X237807299Y-86074904D01*
X237833032Y-86065846D01*
X237855360Y-86058093D01*
X237873150Y-86052053D01*
X237885266Y-86048130D01*
X237890574Y-86046733D01*
X237894520Y-86047111D01*
X237896168Y-86049234D01*
X237892287Y-86053473D01*
X237882443Y-86060110D01*
X237866201Y-86069426D01*
X237843129Y-86081703D01*
X237812792Y-86097223D01*
X237811244Y-86098006D01*
X237782888Y-86112670D01*
X237748601Y-86130880D01*
X237709662Y-86151924D01*
X237667350Y-86175087D01*
X237622945Y-86199655D01*
X237577725Y-86224913D01*
X237532969Y-86250147D01*
X237489956Y-86274644D01*
X237449966Y-86297689D01*
X237414276Y-86318568D01*
X237384167Y-86336566D01*
X237327415Y-86371611D01*
X237251648Y-86420247D01*
X237177860Y-86469688D01*
X237107513Y-86518928D01*
X237042070Y-86566958D01*
X236982993Y-86612773D01*
X236973369Y-86620602D01*
X236953094Y-86637682D01*
X236930727Y-86657131D01*
X236907213Y-86678072D01*
X236883496Y-86699627D01*
X236860519Y-86720915D01*
X236839227Y-86741059D01*
X236820563Y-86759180D01*
X236805472Y-86774399D01*
X236794898Y-86785837D01*
X236789784Y-86792616D01*
X236789701Y-86792792D01*
X236789395Y-86801488D01*
X236792885Y-86816382D01*
X236799784Y-86836354D01*
X236809708Y-86860283D01*
X236822271Y-86887050D01*
X236842170Y-86922100D01*
X236875583Y-86966337D01*
X236916193Y-87006731D01*
X236963707Y-87043092D01*
X237017831Y-87075229D01*
X237078275Y-87102952D01*
X237144746Y-87126071D01*
X237216951Y-87144394D01*
X237230439Y-87147229D01*
X237262329Y-87153685D01*
X237289103Y-87158584D01*
X237313035Y-87162249D01*
X237336399Y-87165005D01*
X237361469Y-87167173D01*
X237390517Y-87169078D01*
X237399712Y-87169629D01*
X237422846Y-87171068D01*
X237443378Y-87172420D01*
X237459358Y-87173552D01*
X237468834Y-87174335D01*
X237481117Y-87174987D01*
X237496311Y-87174593D01*
X237510060Y-87173183D01*
X237520026Y-87171012D01*
X237523867Y-87168334D01*
X237523795Y-87167539D01*
X237520230Y-87164333D01*
X237517252Y-87163385D01*
X237508835Y-87157565D01*
X237498228Y-87148117D01*
X237487401Y-87136993D01*
X237478323Y-87126144D01*
X237472965Y-87117520D01*
X237470567Y-87111167D01*
X237469828Y-87104551D01*
X237473344Y-87100662D01*
X237476651Y-87099205D01*
X237488574Y-87096023D01*
X237506282Y-87092597D01*
X237528021Y-87089192D01*
X237552036Y-87086069D01*
X237576573Y-87083491D01*
X237599879Y-87081720D01*
X237632419Y-87079067D01*
X237680553Y-87072259D01*
X237724791Y-87062492D01*
X237762985Y-87050183D01*
X237775619Y-87045254D01*
X237748933Y-87032446D01*
X237744250Y-87030114D01*
X237725396Y-87018267D01*
X237714089Y-87006260D01*
X237712879Y-87004248D01*
X237707931Y-86995317D01*
X237705916Y-86990414D01*
X237706812Y-86989718D01*
X237714013Y-86986740D01*
X237727257Y-86982100D01*
X237745131Y-86976284D01*
X237766225Y-86969773D01*
X237780094Y-86965536D01*
X237816248Y-86953936D01*
X237850279Y-86942247D01*
X237881439Y-86930785D01*
X237908980Y-86919870D01*
X237932156Y-86909819D01*
X237950218Y-86900951D01*
X237962419Y-86893583D01*
X237968013Y-86888035D01*
X237966251Y-86884623D01*
X237960588Y-86882855D01*
X237949027Y-86880997D01*
X237946742Y-86880857D01*
X237931136Y-86877929D01*
X237913326Y-86872290D01*
X237896843Y-86865215D01*
X237885222Y-86857978D01*
X237873905Y-86848243D01*
X237965646Y-86800484D01*
X237990974Y-86787022D01*
X238020633Y-86770584D01*
X238048817Y-86754283D01*
X238074669Y-86738665D01*
X238097330Y-86724277D01*
X238115943Y-86711667D01*
X238129650Y-86701381D01*
X238137592Y-86693968D01*
X238138913Y-86689974D01*
X238136430Y-86688980D01*
X238126798Y-86686989D01*
X238111957Y-86684800D01*
X238093901Y-86682732D01*
X238076785Y-86680784D01*
X238060813Y-86678044D01*
X238050424Y-86674696D01*
X238043987Y-86670334D01*
X238041383Y-86667494D01*
X238040170Y-86664440D01*
X238041639Y-86660765D01*
X238046640Y-86655618D01*
X238056018Y-86648147D01*
X238070622Y-86637501D01*
X238091300Y-86622830D01*
X238109605Y-86609676D01*
X238140008Y-86586951D01*
X238169064Y-86564212D01*
X238195339Y-86542618D01*
X238217397Y-86523332D01*
X238233803Y-86507516D01*
X238247355Y-86493350D01*
X238210519Y-86492835D01*
X238192214Y-86491855D01*
X238172671Y-86489129D01*
X238156685Y-86485108D01*
X238145894Y-86480220D01*
X238141934Y-86474893D01*
X238142352Y-86474022D01*
X238147330Y-86468208D01*
X238157044Y-86458234D01*
X238170380Y-86445223D01*
X238186223Y-86430297D01*
X238214398Y-86403982D01*
X238244196Y-86375561D01*
X238268284Y-86351786D01*
X238287093Y-86332217D01*
X238301058Y-86316414D01*
X238310610Y-86303937D01*
X238324334Y-86283858D01*
X238280759Y-86286487D01*
X238280142Y-86286524D01*
X238249255Y-86286952D01*
X238226096Y-86284121D01*
X238210570Y-86278011D01*
X238202584Y-86268599D01*
X238202637Y-86265905D01*
X238207635Y-86257159D01*
X238219155Y-86243707D01*
X238237272Y-86225470D01*
X238262060Y-86202371D01*
X238293595Y-86174334D01*
X238302683Y-86165893D01*
X238317070Y-86150985D01*
X238331559Y-86134495D01*
X238344939Y-86117943D01*
X238355998Y-86102848D01*
X238363524Y-86090730D01*
X238366306Y-86083111D01*
X238363826Y-86081338D01*
X238354120Y-86080012D01*
X238336724Y-86079532D01*
X238311269Y-86079878D01*
X238310028Y-86079909D01*
X238287245Y-86080319D01*
X238271544Y-86080144D01*
X238261613Y-86079272D01*
X238256140Y-86077590D01*
X238253815Y-86074988D01*
X238253000Y-86069110D01*
X238255127Y-86054800D01*
X238260952Y-86035326D01*
X238269960Y-86011898D01*
X238281634Y-85985722D01*
X238295455Y-85958009D01*
X238310909Y-85929965D01*
X238327477Y-85902799D01*
X238353378Y-85862583D01*
X238223314Y-85859969D01*
X238210027Y-85859700D01*
X238178262Y-85859038D01*
X238149456Y-85858414D01*
X238124709Y-85857852D01*
X238105124Y-85857377D01*
X238091801Y-85857016D01*
X238085842Y-85856794D01*
X238082169Y-85856058D01*
X238078744Y-85851409D01*
X238081997Y-85842461D01*
X238092018Y-85829034D01*
X238108897Y-85810948D01*
X238118012Y-85801523D01*
X238128433Y-85789955D01*
X238135059Y-85781549D01*
X238136749Y-85777670D01*
X238135451Y-85776656D01*
X238125572Y-85773023D01*
X238109314Y-85770119D01*
X238088333Y-85768178D01*
X238064282Y-85767434D01*
X238054525Y-85767577D01*
X238030744Y-85769212D01*
X238003561Y-85772827D01*
X237971829Y-85778619D01*
X237934396Y-85786787D01*
X237890114Y-85797531D01*
X237839377Y-85810294D01*
X237829810Y-85798338D01*
X237828862Y-85797122D01*
X237822737Y-85787397D01*
X237820222Y-85779936D01*
X237820999Y-85776505D01*
X237825682Y-85766499D01*
X237833316Y-85753496D01*
X237842406Y-85739816D01*
X237851459Y-85727780D01*
X237858982Y-85719708D01*
X237864479Y-85714706D01*
X237863869Y-85712613D01*
X237855594Y-85712316D01*
X237852677Y-85712490D01*
X237840238Y-85714345D01*
X237821821Y-85717935D01*
X237798994Y-85722890D01*
X237773324Y-85728840D01*
X237746379Y-85735417D01*
X237719724Y-85742250D01*
X237694928Y-85748971D01*
X237673558Y-85755210D01*
X237659669Y-85759240D01*
X237642948Y-85763416D01*
X237630270Y-85765781D01*
X237623631Y-85765909D01*
X237621956Y-85765105D01*
X237614440Y-85756981D01*
X237609934Y-85744939D01*
X237609977Y-85732720D01*
X237610968Y-85730246D01*
X237616858Y-85720836D01*
X237626490Y-85708181D01*
X237638368Y-85694308D01*
X237644539Y-85687302D01*
X237653468Y-85676220D01*
X237658477Y-85668585D01*
X237658612Y-85665744D01*
X237653200Y-85666444D01*
X237640348Y-85669292D01*
X237622918Y-85673809D01*
X237602897Y-85679434D01*
X237582271Y-85685603D01*
X237563027Y-85691754D01*
X237547150Y-85697325D01*
X237533500Y-85702929D01*
X237513428Y-85711995D01*
X237491179Y-85722678D01*
X237469542Y-85733672D01*
X237467683Y-85734644D01*
X237448988Y-85744087D01*
X237432593Y-85751784D01*
X237420209Y-85756967D01*
X237413548Y-85758866D01*
X237406027Y-85755862D01*
X237398504Y-85748145D01*
X237396387Y-85744463D01*
X237391838Y-85726747D01*
X237393862Y-85706327D01*
X237402342Y-85685168D01*
X237407630Y-85674768D01*
X237409166Y-85668328D01*
X237406099Y-85666173D01*
X237397758Y-85668309D01*
X237383470Y-85674742D01*
X237362564Y-85685475D01*
X237350368Y-85692172D01*
X237326360Y-85706887D01*
X237300095Y-85725005D01*
X237270342Y-85747397D01*
X237235866Y-85774935D01*
X237213584Y-85793120D01*
X237201131Y-85781285D01*
X237195946Y-85776114D01*
X237183766Y-85759809D01*
X237178038Y-85742137D01*
X237177603Y-85720087D01*
X237178219Y-85709126D01*
X237178322Y-85699195D01*
X237177696Y-85695366D01*
X237176360Y-85696006D01*
X237169365Y-85700352D01*
X237157907Y-85707902D01*
X237143619Y-85717591D01*
X237129104Y-85728377D01*
X237107807Y-85746026D01*
X237084853Y-85766557D01*
X237062363Y-85787997D01*
X237042459Y-85808375D01*
X237027262Y-85825720D01*
X237023430Y-85830438D01*
X237017505Y-85836232D01*
X237012492Y-85836672D01*
X237005482Y-85832690D01*
X236998514Y-85827456D01*
X236986616Y-85812786D01*
X236979887Y-85793297D01*
X236977767Y-85767681D01*
X236977599Y-85754371D01*
X236976748Y-85744350D01*
X236974894Y-85740249D01*
X236971720Y-85740664D01*
X236967088Y-85743873D01*
X236955624Y-85753727D01*
X236940017Y-85768577D01*
X236921128Y-85787552D01*
X236899819Y-85809780D01*
X236876950Y-85834388D01*
X236853383Y-85860505D01*
X236852342Y-85861675D01*
X236834993Y-85880901D01*
X236819144Y-85897981D01*
X236805812Y-85911855D01*
X236796012Y-85921465D01*
X236790761Y-85925752D01*
X236786561Y-85927122D01*
X236779405Y-85925483D01*
X236772586Y-85917772D01*
X236765539Y-85903227D01*
X236757701Y-85881086D01*
X236746519Y-85846308D01*
X236713372Y-85884079D01*
X236695783Y-85904547D01*
X236643186Y-85971602D01*
X236597299Y-86039617D01*
X236558426Y-86108016D01*
X236526877Y-86176219D01*
X236502957Y-86243650D01*
X236486974Y-86309731D01*
X236484995Y-86320983D01*
X236480385Y-86354274D01*
X236478768Y-86383379D01*
X236198086Y-86383379D01*
X236197762Y-86370797D01*
X236197739Y-86369949D01*
X236196812Y-86341079D01*
X236195675Y-86318766D01*
X236194113Y-86301146D01*
X236191910Y-86286358D01*
X236188851Y-86272538D01*
X236184722Y-86257824D01*
X236180345Y-86243833D01*
X236170262Y-86214482D01*
X236158851Y-86184170D01*
X236147024Y-86155173D01*
X236135689Y-86129769D01*
X236125756Y-86110233D01*
X236122406Y-86104318D01*
X236091125Y-86051705D01*
X236058530Y-86001229D01*
X236025643Y-85954355D01*
X235993489Y-85912549D01*
X235963090Y-85877276D01*
X235951755Y-85865655D01*
X235941527Y-85857571D01*
X235934506Y-85856219D01*
X235929769Y-85861499D01*
X235926390Y-85873313D01*
X235923479Y-85884781D01*
X235917706Y-85900665D01*
X235910888Y-85914579D01*
X235904087Y-85924449D01*
X235898360Y-85928200D01*
X235895841Y-85927726D01*
X235891430Y-85925311D01*
X235885227Y-85920279D01*
X235876609Y-85911996D01*
X235864955Y-85899829D01*
X235849644Y-85883144D01*
X235830053Y-85861308D01*
X235805560Y-85833689D01*
X235788300Y-85814638D01*
X235770011Y-85795326D01*
X235752183Y-85777267D01*
X235735856Y-85761467D01*
X235722073Y-85748935D01*
X235711875Y-85740676D01*
X235706304Y-85737700D01*
X235705388Y-85740167D01*
X235705173Y-85749001D01*
X235706023Y-85762041D01*
X235706119Y-85763056D01*
X235706742Y-85779217D01*
X235704474Y-85791848D01*
X235698549Y-85805393D01*
X235695060Y-85811445D01*
X235686356Y-85823020D01*
X235678119Y-85830229D01*
X235677198Y-85830729D01*
X235672834Y-85832520D01*
X235668454Y-85832293D01*
X235662885Y-85829234D01*
X235654955Y-85822527D01*
X235643490Y-85811357D01*
X235627319Y-85794910D01*
X235612545Y-85780344D01*
X235594803Y-85763828D01*
X235576006Y-85747095D01*
X235557357Y-85731152D01*
X235540056Y-85717003D01*
X235525306Y-85705652D01*
X235514308Y-85698105D01*
X235508264Y-85695366D01*
X235506472Y-85698781D01*
X235505094Y-85708540D01*
X235504567Y-85722421D01*
X235504403Y-85732418D01*
X235502826Y-85745818D01*
X235498607Y-85756953D01*
X235490582Y-85769768D01*
X235484254Y-85778499D01*
X235476890Y-85787451D01*
X235472325Y-85791486D01*
X235470669Y-85791059D01*
X235463132Y-85786628D01*
X235450929Y-85778183D01*
X235435308Y-85766606D01*
X235417518Y-85752778D01*
X235403821Y-85742166D01*
X235381892Y-85726122D01*
X235359815Y-85710955D01*
X235338382Y-85697100D01*
X235318384Y-85684992D01*
X235300614Y-85675066D01*
X235285864Y-85667757D01*
X235274926Y-85663500D01*
X235268592Y-85662729D01*
X235267655Y-85665879D01*
X235272906Y-85673386D01*
X235273323Y-85673868D01*
X235283065Y-85688428D01*
X235290154Y-85704949D01*
X235292885Y-85719498D01*
X235290612Y-85730996D01*
X235284928Y-85743977D01*
X235277580Y-85755157D01*
X235270312Y-85761302D01*
X235269906Y-85761406D01*
X235263012Y-85759993D01*
X235251464Y-85755157D01*
X235237528Y-85747830D01*
X235222251Y-85739050D01*
X235205996Y-85729713D01*
X235193417Y-85722491D01*
X235186600Y-85718846D01*
X235169617Y-85711019D01*
X235148979Y-85702640D01*
X235126124Y-85694172D01*
X235102490Y-85686082D01*
X235079518Y-85678831D01*
X235058644Y-85672885D01*
X235041309Y-85668707D01*
X235028951Y-85666762D01*
X235023008Y-85667514D01*
X235024249Y-85671075D01*
X235030348Y-85678747D01*
X235039998Y-85688694D01*
X235050863Y-85699786D01*
X235064266Y-85717386D01*
X235070741Y-85733354D01*
X235070840Y-85748763D01*
X235070812Y-85748909D01*
X235066478Y-85760337D01*
X235058333Y-85765498D01*
X235055446Y-85765662D01*
X235044102Y-85764076D01*
X235026302Y-85760121D01*
X235003090Y-85754039D01*
X234975510Y-85746077D01*
X234958362Y-85741071D01*
X234930830Y-85733521D01*
X234904332Y-85726779D01*
X234881213Y-85721433D01*
X234863816Y-85718072D01*
X234855421Y-85716721D01*
X234838413Y-85713835D01*
X234825106Y-85711376D01*
X234817837Y-85709766D01*
X234817017Y-85709696D01*
X234817877Y-85712870D01*
X234823618Y-85720353D01*
X234833331Y-85730905D01*
X234844814Y-85743849D01*
X234854318Y-85757202D01*
X234859001Y-85767412D01*
X234859806Y-85774490D01*
X234858030Y-85788475D01*
X234852848Y-85800486D01*
X234845356Y-85807320D01*
X234840240Y-85807207D01*
X234828078Y-85805225D01*
X234810482Y-85801581D01*
X234788890Y-85796574D01*
X234764741Y-85790505D01*
X234737575Y-85783793D01*
X234686813Y-85773641D01*
X234641974Y-85768248D01*
X234602380Y-85767549D01*
X234567352Y-85771478D01*
X234538915Y-85776844D01*
X234571275Y-85810096D01*
X234582101Y-85821647D01*
X234592822Y-85834177D01*
X234599790Y-85843690D01*
X234601857Y-85848732D01*
X234599702Y-85851272D01*
X234593668Y-85853735D01*
X234583199Y-85855716D01*
X234567625Y-85857263D01*
X234546272Y-85858422D01*
X234518471Y-85859241D01*
X234483548Y-85859767D01*
X234440833Y-85860048D01*
X234327482Y-85860466D01*
X234353640Y-85899368D01*
X234366470Y-85919453D01*
X234381991Y-85946450D01*
X234396149Y-85973940D01*
X234408408Y-86000655D01*
X234418232Y-86025325D01*
X234425083Y-86046682D01*
X234428424Y-86063458D01*
X234427718Y-86074384D01*
X234426944Y-86075953D01*
X234424081Y-86078389D01*
X234418349Y-86079867D01*
X234408352Y-86080520D01*
X234392693Y-86080481D01*
X234369975Y-86079884D01*
X234365922Y-86079765D01*
X234346000Y-86079389D01*
X234329825Y-86079430D01*
X234318968Y-86079866D01*
X234315000Y-86080673D01*
X234146963Y-86080673D01*
X234145926Y-86067375D01*
X234148685Y-86045419D01*
X234156188Y-86021233D01*
X234168712Y-85992631D01*
X234189195Y-85949924D01*
X234180448Y-85931316D01*
X234176372Y-85921575D01*
X234168289Y-85892694D01*
X234164117Y-85861296D01*
X234164473Y-85831250D01*
X234166603Y-85817068D01*
X234177209Y-85784679D01*
X234194914Y-85756052D01*
X234218972Y-85732221D01*
X234248642Y-85714219D01*
X234259114Y-85710131D01*
X234280241Y-85704089D01*
X234304517Y-85698982D01*
X234329157Y-85695279D01*
X234351378Y-85693452D01*
X234368398Y-85693972D01*
X234375529Y-85694817D01*
X234383327Y-85694569D01*
X234390392Y-85691642D01*
X234398987Y-85684956D01*
X234411372Y-85673429D01*
X234416567Y-85668581D01*
X234442081Y-85647827D01*
X234468706Y-85631783D01*
X234498240Y-85619681D01*
X234532483Y-85610750D01*
X234573234Y-85604222D01*
X234592179Y-85602061D01*
X234614012Y-85600488D01*
X234631626Y-85600673D01*
X234647407Y-85602563D01*
X234672897Y-85606998D01*
X234691617Y-85589190D01*
X234699519Y-85582371D01*
X234716829Y-85570003D01*
X234733860Y-85560349D01*
X234741329Y-85556996D01*
X234750955Y-85553505D01*
X234761323Y-85551182D01*
X234774363Y-85549747D01*
X234792006Y-85548921D01*
X234816185Y-85548423D01*
X234839156Y-85547986D01*
X234856307Y-85547299D01*
X234868305Y-85546117D01*
X234876840Y-85544178D01*
X234883598Y-85541222D01*
X234890268Y-85536990D01*
X234893103Y-85535079D01*
X234919809Y-85520160D01*
X234949541Y-85507913D01*
X234977965Y-85500158D01*
X234991052Y-85498277D01*
X235011696Y-85497504D01*
X235035333Y-85499262D01*
X235063609Y-85503701D01*
X235098167Y-85510967D01*
X235142617Y-85521112D01*
X235164753Y-85508496D01*
X235174710Y-85502559D01*
X235184569Y-85496006D01*
X235189344Y-85491907D01*
X235189642Y-85491634D01*
X235195876Y-85490187D01*
X235208621Y-85489011D01*
X235226214Y-85488222D01*
X235246990Y-85487933D01*
X235248274Y-85487933D01*
X235270721Y-85488034D01*
X235286947Y-85488567D01*
X235299093Y-85489889D01*
X235309300Y-85492355D01*
X235319711Y-85496321D01*
X235332465Y-85502145D01*
X235335329Y-85503488D01*
X235358478Y-85514219D01*
X235376140Y-85521746D01*
X235390278Y-85526431D01*
X235402858Y-85528638D01*
X235415842Y-85528729D01*
X235431197Y-85527068D01*
X235450885Y-85524016D01*
X235476456Y-85520492D01*
X235498971Y-85519278D01*
X235519231Y-85521030D01*
X235539578Y-85526154D01*
X235562354Y-85535057D01*
X235589901Y-85548146D01*
X235633137Y-85569708D01*
X235696910Y-85570095D01*
X235713702Y-85570213D01*
X235733785Y-85570547D01*
X235748424Y-85571316D01*
X235759455Y-85572805D01*
X235768711Y-85575300D01*
X235778027Y-85579085D01*
X235789237Y-85584447D01*
X235797796Y-85588986D01*
X235816357Y-85601147D01*
X235837325Y-85617974D01*
X235862054Y-85640507D01*
X235906317Y-85682603D01*
X235983279Y-85677141D01*
X236019466Y-85701721D01*
X236021993Y-85703460D01*
X236046434Y-85721967D01*
X236073863Y-85745225D01*
X236102384Y-85771435D01*
X236130100Y-85798799D01*
X236155116Y-85825516D01*
X236175535Y-85849788D01*
X236196579Y-85877885D01*
X236245120Y-85952191D01*
X236288345Y-86032887D01*
X236326112Y-86119718D01*
X236330052Y-86129675D01*
X236337803Y-86148330D01*
X236344376Y-86162920D01*
X236349174Y-86172156D01*
X236351600Y-86174751D01*
X236353467Y-86171297D01*
X236357356Y-86161525D01*
X236361869Y-86148333D01*
X236365480Y-86137856D01*
X236374289Y-86115171D01*
X236385593Y-86088330D01*
X236398451Y-86059426D01*
X236411922Y-86030552D01*
X236425067Y-86003801D01*
X236436943Y-85981266D01*
X236473167Y-85921016D01*
X236518550Y-85857265D01*
X236567638Y-85799551D01*
X236619788Y-85748622D01*
X236674357Y-85705223D01*
X236711217Y-85679097D01*
X236742426Y-85681457D01*
X236743035Y-85681503D01*
X236760061Y-85682273D01*
X236775012Y-85682107D01*
X236784716Y-85681037D01*
X236791378Y-85677611D01*
X236802900Y-85669392D01*
X236817268Y-85657743D01*
X236832807Y-85643954D01*
X236840926Y-85636488D01*
X236867471Y-85613318D01*
X236890658Y-85595802D01*
X236912103Y-85583273D01*
X236933421Y-85575063D01*
X236956229Y-85570507D01*
X236982143Y-85568936D01*
X237012778Y-85569685D01*
X237063179Y-85572219D01*
X237108315Y-85548838D01*
X237119042Y-85543393D01*
X237147409Y-85530572D01*
X237172036Y-85522542D01*
X237195052Y-85518901D01*
X237218586Y-85519250D01*
X237244767Y-85523190D01*
X237249977Y-85524201D01*
X237267544Y-85527295D01*
X237282363Y-85529457D01*
X237291669Y-85530269D01*
X237297498Y-85529371D01*
X237310526Y-85525614D01*
X237327218Y-85519764D01*
X237345267Y-85512732D01*
X237362368Y-85505427D01*
X237376214Y-85498759D01*
X237384501Y-85493638D01*
X237384848Y-85493361D01*
X237391191Y-85490847D01*
X237402953Y-85489167D01*
X237421143Y-85488226D01*
X237446772Y-85487933D01*
X237502360Y-85487933D01*
X237528989Y-85504826D01*
X237530565Y-85505819D01*
X237544233Y-85513857D01*
X237555467Y-85519527D01*
X237561967Y-85521655D01*
X237567293Y-85520780D01*
X237578801Y-85517762D01*
X237592963Y-85513345D01*
X237613374Y-85507378D01*
X237650498Y-85500322D01*
X237686899Y-85497825D01*
X237719590Y-85500197D01*
X237750358Y-85507511D01*
X237782030Y-85519996D01*
X237808497Y-85535972D01*
X237814440Y-85540087D01*
X237820784Y-85543067D01*
X237829030Y-85545071D01*
X237840817Y-85546368D01*
X237857788Y-85547227D01*
X237881584Y-85547915D01*
X237897353Y-85548356D01*
X237917606Y-85549248D01*
X237932487Y-85550598D01*
X237943919Y-85552697D01*
X237953827Y-85555830D01*
X237964134Y-85560288D01*
X237974729Y-85565892D01*
X237992606Y-85577275D01*
X238008295Y-85589268D01*
X238012473Y-85592872D01*
X238022661Y-85601010D01*
X238030432Y-85604894D01*
X238038762Y-85605563D01*
X238050628Y-85604058D01*
X238059414Y-85602774D01*
X238070452Y-85601588D01*
X238081308Y-85601257D01*
X238094128Y-85601826D01*
X238111059Y-85603342D01*
X238134246Y-85605849D01*
X238135987Y-85606048D01*
X238182453Y-85614537D01*
X238223174Y-85628734D01*
X238258946Y-85648995D01*
X238290568Y-85675676D01*
X238296182Y-85681293D01*
X238305395Y-85689719D01*
X238312565Y-85693774D01*
X238320353Y-85694612D01*
X238331422Y-85693389D01*
X238339000Y-85692762D01*
X238360189Y-85693424D01*
X238384998Y-85696491D01*
X238410508Y-85701444D01*
X238433800Y-85707759D01*
X238451954Y-85714916D01*
X238452689Y-85715291D01*
X238480759Y-85733680D01*
X238504464Y-85757133D01*
X238521789Y-85783667D01*
X238526809Y-85794537D01*
X238530361Y-85804955D01*
X238532328Y-85816339D01*
X238533127Y-85831188D01*
X238533175Y-85851999D01*
X238533029Y-85863159D01*
X238532189Y-85882154D01*
X238530241Y-85896926D01*
X238526709Y-85910357D01*
X238521120Y-85925330D01*
X238509408Y-85954211D01*
X238524222Y-85978247D01*
X238525113Y-85979701D01*
X238541638Y-86012148D01*
X238550771Y-86043656D01*
X238552457Y-86075134D01*
X238551023Y-86083111D01*
X238546643Y-86107489D01*
X238533273Y-86141629D01*
X238512295Y-86178462D01*
X238496970Y-86202241D01*
X238504146Y-86226924D01*
X238506184Y-86234904D01*
X238509544Y-86267598D01*
X238505865Y-86300963D01*
X238495381Y-86332171D01*
X238491659Y-86339404D01*
X238482095Y-86355810D01*
X238470154Y-86374565D01*
X238457579Y-86392868D01*
X238430943Y-86429964D01*
X238429058Y-86479197D01*
X238428788Y-86485991D01*
X238427707Y-86506075D01*
X238426084Y-86520815D01*
X238423413Y-86532659D01*
X238419191Y-86544057D01*
X238412912Y-86557457D01*
X238402828Y-86575249D01*
X238387174Y-86596040D01*
X238365861Y-86618619D01*
X238333071Y-86650755D01*
X238328489Y-86684236D01*
X238322130Y-86714418D01*
X238310764Y-86744597D01*
X238304148Y-86756544D01*
X238286390Y-86781438D01*
X238263513Y-86807150D01*
X238237203Y-86831867D01*
X238209149Y-86853775D01*
X238201978Y-86858863D01*
X238188149Y-86869019D01*
X238177604Y-86877223D01*
X238172195Y-86882060D01*
X238168750Y-86888506D01*
X238163941Y-86900591D01*
X238158916Y-86915529D01*
X238156593Y-86922640D01*
X238140319Y-86958452D01*
X238117720Y-86989430D01*
X238088457Y-87015893D01*
X238052192Y-87038158D01*
X238008584Y-87056544D01*
X237992152Y-87062544D01*
X237976609Y-87069389D01*
X237966676Y-87075982D01*
X237960875Y-87083370D01*
X237957733Y-87092599D01*
X237953167Y-87104828D01*
X237944098Y-87121264D01*
X237932479Y-87138510D01*
X237920112Y-87153906D01*
X237908802Y-87164791D01*
X237890541Y-87176896D01*
X237858028Y-87193160D01*
X237818084Y-87208259D01*
X237797877Y-87215258D01*
X237782378Y-87221472D01*
X237774453Y-87226003D01*
X237773756Y-87229012D01*
X237774022Y-87229208D01*
X237779395Y-87232591D01*
X237789796Y-87238874D01*
X237803267Y-87246872D01*
X237817149Y-87255372D01*
X237836002Y-87267391D01*
X237856902Y-87281065D01*
X237877351Y-87294778D01*
X237912608Y-87319576D01*
X237982753Y-87374632D01*
X238045134Y-87432244D01*
X238100092Y-87492895D01*
X238147967Y-87557066D01*
X238189099Y-87625240D01*
X238223830Y-87697899D01*
X238252499Y-87775525D01*
X238275447Y-87858600D01*
X238276641Y-87863701D01*
X238282720Y-87890802D01*
X238287370Y-87914397D01*
X238290927Y-87936878D01*
X238293729Y-87960640D01*
X238296113Y-87988077D01*
X238298416Y-88021583D01*
X238299701Y-88040380D01*
X238302214Y-88071974D01*
X238302393Y-88073901D01*
X238305049Y-88102613D01*
X238308015Y-88130423D01*
G37*
D13*
X238308015Y-88130423D02*
X238310919Y-88153529D01*
X238313571Y-88170055D01*
X238313749Y-88170811D01*
X238317101Y-88179514D01*
X238323337Y-88192633D01*
X238331267Y-88207637D01*
X238332141Y-88209206D01*
X238339804Y-88221975D01*
X238347645Y-88232335D01*
X238357399Y-88242035D01*
X238370801Y-88252825D01*
X238389584Y-88266454D01*
X238416572Y-88286588D01*
X238474404Y-88336962D01*
X238528781Y-88394574D01*
X238579290Y-88458919D01*
X238625518Y-88529490D01*
X238667050Y-88605783D01*
X238686614Y-88647398D01*
X238711537Y-88709308D01*
X238731225Y-88771591D01*
X238746746Y-88837354D01*
X238748595Y-88846293D01*
X238753210Y-88866669D01*
X238757537Y-88883274D01*
X238761158Y-88894592D01*
X238763659Y-88899102D01*
X238763726Y-88899131D01*
X238765305Y-88904025D01*
X238766593Y-88916034D01*
X238767596Y-88933860D01*
X238768316Y-88956207D01*
X238768759Y-88981779D01*
X238768772Y-88983853D01*
X238768930Y-89009277D01*
X238768831Y-89037406D01*
X238768467Y-89064868D01*
X238767844Y-89090367D01*
X238766964Y-89112605D01*
X238765834Y-89130286D01*
X238764455Y-89142113D01*
X238762834Y-89146789D01*
X238762814Y-89146796D01*
X238759256Y-89152123D01*
X238755661Y-89164408D01*
X238752464Y-89182166D01*
X238750636Y-89193725D01*
X238740480Y-89239603D01*
X238725486Y-89289308D01*
X238706385Y-89340977D01*
X238683912Y-89392745D01*
X238658798Y-89442751D01*
X238631775Y-89489130D01*
X238630999Y-89490354D01*
X238618631Y-89508972D01*
X238602455Y-89532142D01*
X238583854Y-89557965D01*
X238564215Y-89584542D01*
X238544919Y-89609976D01*
X238527353Y-89632366D01*
X238523861Y-89638598D01*
X238518367Y-89653521D01*
X238512213Y-89675063D01*
X238505712Y-89702216D01*
X238503807Y-89710485D01*
X238495801Y-89741492D01*
X238485225Y-89778395D01*
X238472556Y-89819712D01*
X238458268Y-89863960D01*
X238442836Y-89909658D01*
X238440234Y-89917037D01*
X238426734Y-89955323D01*
X238410438Y-89999474D01*
X238405537Y-90012683D01*
X238394290Y-90046134D01*
X238386374Y-90075727D01*
X238381076Y-90104004D01*
X238372129Y-90152413D01*
X238352929Y-90224054D01*
X238326893Y-90296417D01*
X238294652Y-90368139D01*
X238256840Y-90437855D01*
X238214087Y-90504202D01*
X238167026Y-90565816D01*
X238158614Y-90575799D01*
X238100391Y-90639429D01*
X238038945Y-90697615D01*
X237975058Y-90749758D01*
X237909516Y-90795260D01*
X237843102Y-90833521D01*
X237776600Y-90863943D01*
X237773555Y-90865151D01*
X237761606Y-90869967D01*
X237751584Y-90874336D01*
X237742231Y-90879024D01*
X237732287Y-90884799D01*
X237720492Y-90892428D01*
X237705587Y-90902679D01*
X237686312Y-90916318D01*
X237661409Y-90934113D01*
X237649173Y-90942822D01*
X237582335Y-90988259D01*
X237557983Y-91004814D01*
X237468746Y-91060105D01*
X237379978Y-91109526D01*
X237290191Y-91153912D01*
X237197901Y-91194097D01*
X237183235Y-91200111D01*
X237163771Y-91208179D01*
X237147158Y-91215162D01*
X237135893Y-91220015D01*
X237133563Y-91221191D01*
X237122506Y-91228393D01*
X237107497Y-91239727D01*
X237090208Y-91253888D01*
X237072313Y-91269572D01*
X237029459Y-91307355D01*
X236985057Y-91343649D01*
X236941910Y-91375581D01*
X236898153Y-91404523D01*
X236851927Y-91431846D01*
X236814784Y-91452680D01*
X236349049Y-91452690D01*
X235883315Y-91452700D01*
X235840608Y-91428026D01*
X235831709Y-91422830D01*
X235779286Y-91389849D01*
X235727556Y-91353019D01*
X235674926Y-91311149D01*
X235619806Y-91263051D01*
X235611004Y-91255083D01*
X235595081Y-91240991D01*
X235582426Y-91230781D01*
X235570991Y-91223183D01*
X235558729Y-91216928D01*
X235543591Y-91210747D01*
X235523531Y-91203370D01*
X235510627Y-91198491D01*
X235482306Y-91186864D01*
X235449397Y-91172455D01*
X235413716Y-91156120D01*
X235377085Y-91138715D01*
X235341322Y-91121096D01*
X235308245Y-91104119D01*
X235279675Y-91088639D01*
X235251514Y-91072373D01*
X235213468Y-91049383D01*
X235172401Y-91023670D01*
X235130049Y-90996370D01*
X235088151Y-90968622D01*
X235060524Y-90949796D01*
X235658225Y-90949796D01*
X235660312Y-90961388D01*
X235665228Y-90977927D01*
X235675829Y-91004547D01*
X235692004Y-91033092D01*
X235713995Y-91062908D01*
X235742657Y-91095296D01*
X235779293Y-91131450D01*
X235840527Y-91182702D01*
X235907283Y-91228748D01*
X235978459Y-91268988D01*
X236052956Y-91302821D01*
X236129671Y-91329647D01*
X236207505Y-91348865D01*
X236210284Y-91349404D01*
X236231200Y-91353210D01*
X236249773Y-91355929D01*
X236268163Y-91357726D01*
X236288533Y-91358763D01*
X236313042Y-91359207D01*
X236343853Y-91359220D01*
X236369408Y-91358861D01*
X236425035Y-91355898D01*
X236476216Y-91349581D01*
X236525469Y-91339436D01*
X236575312Y-91324989D01*
X236628261Y-91305769D01*
X236628873Y-91305528D01*
X236681240Y-91282731D01*
X236733017Y-91256099D01*
X236783248Y-91226361D01*
X236830978Y-91194245D01*
X236875253Y-91160478D01*
X236915118Y-91125788D01*
X236949618Y-91090902D01*
X236977798Y-91056549D01*
X236998702Y-91023456D01*
X237005552Y-91008747D01*
X237010798Y-90988259D01*
X237009457Y-90968504D01*
X237001632Y-90946816D01*
X236998597Y-90940878D01*
X236981074Y-90916659D01*
X236955762Y-90892803D01*
X236923207Y-90869597D01*
X236883953Y-90847326D01*
X236838546Y-90826276D01*
X236787529Y-90806733D01*
X236731449Y-90788983D01*
X236670850Y-90773311D01*
X236654856Y-90769578D01*
X236633971Y-90764623D01*
X236617066Y-90760517D01*
X236605567Y-90757607D01*
X236600896Y-90756240D01*
X236597240Y-90755390D01*
X236586388Y-90753432D01*
X236569756Y-90750645D01*
X236548730Y-90747264D01*
X236524696Y-90743518D01*
X236516955Y-90742342D01*
X236493533Y-90739021D01*
X236471715Y-90736410D01*
X236449824Y-90734393D01*
X236426181Y-90732854D01*
X236399106Y-90731679D01*
X236366922Y-90730750D01*
X236327950Y-90729953D01*
X236324228Y-90729887D01*
X236263050Y-90729346D01*
X236208626Y-90730054D01*
X236159402Y-90732168D01*
X236113822Y-90735846D01*
X236070332Y-90741242D01*
X236027377Y-90748514D01*
X235983402Y-90757818D01*
X235936854Y-90769311D01*
X235906727Y-90777586D01*
X235849468Y-90795888D01*
X235799169Y-90815682D01*
X235756075Y-90836824D01*
X235720436Y-90859168D01*
X235692497Y-90882567D01*
X235672508Y-90906877D01*
X235660715Y-90931950D01*
X235658681Y-90940225D01*
X235658225Y-90949796D01*
X235060524Y-90949796D01*
X235048444Y-90941564D01*
X235012667Y-90916335D01*
X234982557Y-90894071D01*
X234970271Y-90886311D01*
X234953538Y-90877800D01*
X234935991Y-90870387D01*
X234906932Y-90858430D01*
X234864799Y-90838026D01*
X234820371Y-90813509D01*
X234775641Y-90786056D01*
X234732603Y-90756844D01*
X234693248Y-90727050D01*
X234682614Y-90718234D01*
X234657272Y-90695809D01*
X234629414Y-90669630D01*
X234600860Y-90641511D01*
X234573433Y-90613266D01*
X234548953Y-90586709D01*
X234529241Y-90563655D01*
X234497906Y-90522943D01*
X234446522Y-90445948D01*
X234402808Y-90365794D01*
X234366908Y-90282796D01*
X234338967Y-90197269D01*
X234319132Y-90109525D01*
X234317692Y-90101814D01*
X234311748Y-90075497D01*
X234303519Y-90046093D01*
X234292555Y-90012081D01*
X234278407Y-89971941D01*
X234277177Y-89968554D01*
X234527816Y-89968554D01*
X234531530Y-90032395D01*
X234539488Y-90093584D01*
X234551568Y-90149717D01*
X234564415Y-90193702D01*
X234581919Y-90242585D01*
X234602423Y-90288466D01*
X234626657Y-90332536D01*
X234655354Y-90375985D01*
X234689244Y-90420003D01*
X234729056Y-90465781D01*
X234775524Y-90514509D01*
X234813674Y-90551654D01*
X234863680Y-90595457D01*
X234913304Y-90632804D01*
X234963971Y-90664566D01*
X235017102Y-90691612D01*
X235074122Y-90714811D01*
X235136453Y-90735033D01*
X235153443Y-90739721D01*
X235177682Y-90745736D01*
X235200422Y-90750705D01*
X235218378Y-90753870D01*
X235234560Y-90755578D01*
X235261426Y-90757095D01*
X235291638Y-90757732D01*
X235322295Y-90757481D01*
X235350495Y-90756335D01*
X235373334Y-90754285D01*
X235405723Y-90748052D01*
X235440070Y-90737456D01*
X235472329Y-90723656D01*
X235500377Y-90707568D01*
X235522093Y-90690107D01*
X235528164Y-90683485D01*
X235545109Y-90658071D01*
X235559789Y-90624658D01*
X235572246Y-90583156D01*
X235574401Y-90574244D01*
X235577146Y-90561083D01*
X235579004Y-90548212D01*
X235580090Y-90533880D01*
X235580514Y-90516338D01*
X235580388Y-90493836D01*
X235579824Y-90464623D01*
X235579023Y-90435231D01*
X235577903Y-90410332D01*
X235576291Y-90389811D01*
X235573972Y-90371562D01*
X235570729Y-90353483D01*
X235566346Y-90333468D01*
X235553160Y-90282005D01*
X235526830Y-90199640D01*
X235494848Y-90119474D01*
X235457794Y-90042669D01*
X235416247Y-89970386D01*
X235370787Y-89903787D01*
X235364824Y-89896484D01*
X235640588Y-89896484D01*
X235641982Y-89939561D01*
X235646700Y-89979523D01*
X235655202Y-90019628D01*
X235667945Y-90063132D01*
X235689787Y-90121048D01*
X235722237Y-90185543D01*
X235761684Y-90245302D01*
X235808043Y-90300215D01*
X235861233Y-90350175D01*
X235921170Y-90395072D01*
X235952768Y-90414922D01*
X236011210Y-90445928D01*
X236072760Y-90472066D01*
X236135622Y-90492699D01*
X236198001Y-90507187D01*
X236258100Y-90514892D01*
X236261192Y-90515109D01*
X236278898Y-90516338D01*
X236281332Y-90516507D01*
X236300616Y-90517825D01*
X236315250Y-90518803D01*
X236333722Y-90519281D01*
X236361527Y-90518495D01*
X236393022Y-90516419D01*
X236425687Y-90513267D01*
X236457004Y-90509248D01*
X236484455Y-90504576D01*
X236509644Y-90499027D01*
X237147947Y-90499027D01*
X237149001Y-90516717D01*
X237151396Y-90534485D01*
X237155311Y-90555233D01*
X237162012Y-90582811D01*
X237174613Y-90619493D01*
X237190064Y-90651174D01*
X237207640Y-90676180D01*
X237216438Y-90685010D01*
X237239770Y-90701861D01*
X237269363Y-90716762D01*
X237303764Y-90728917D01*
X237317555Y-90732484D01*
X237333241Y-90735352D01*
X237351421Y-90737325D01*
X237374083Y-90738614D01*
X237403217Y-90739427D01*
X237429890Y-90739900D01*
X237450942Y-90740037D01*
X237467447Y-90739676D01*
X237481393Y-90738673D01*
X237494768Y-90736884D01*
X237509559Y-90734163D01*
X237527755Y-90730366D01*
X237554794Y-90724007D01*
X237626640Y-90701350D01*
X237697960Y-90670531D01*
X237768281Y-90631771D01*
X237837134Y-90585290D01*
X237843113Y-90580716D01*
X237863207Y-90563878D01*
X237886763Y-90542485D01*
X237912330Y-90517978D01*
X237938459Y-90491800D01*
X237963700Y-90465391D01*
X237986603Y-90440194D01*
X238005719Y-90417650D01*
X238008116Y-90414643D01*
X238032710Y-90379467D01*
X238056944Y-90337391D01*
X238080254Y-90289837D01*
X238102077Y-90238229D01*
X238121848Y-90183990D01*
X238139006Y-90128542D01*
X238152987Y-90073310D01*
X238163226Y-90019716D01*
X238165010Y-90008014D01*
X238168110Y-89984750D01*
X238170058Y-89963591D01*
X238170996Y-89941900D01*
X238171066Y-89917037D01*
X238170411Y-89886366D01*
X238170003Y-89873621D01*
X238168079Y-89837829D01*
X238164839Y-89807702D01*
X238159814Y-89781133D01*
X238152534Y-89756011D01*
X238142531Y-89730227D01*
X238129336Y-89701673D01*
X238121154Y-89685783D01*
X238104079Y-89658782D01*
X238085085Y-89637858D01*
X238062547Y-89621711D01*
X238034839Y-89609044D01*
X238000335Y-89598555D01*
X237977017Y-89593710D01*
X237928992Y-89589950D01*
X237878079Y-89593574D01*
X237824714Y-89604382D01*
X237769336Y-89622174D01*
X237712380Y-89646750D01*
X237654286Y-89677909D01*
X237595490Y-89715452D01*
X237536429Y-89759179D01*
X237477542Y-89808888D01*
X237419265Y-89864381D01*
X237400793Y-89884250D01*
X237369454Y-89917961D01*
X237322508Y-89976848D01*
X237281918Y-90038095D01*
X237246607Y-90103343D01*
X237215496Y-90174233D01*
X237212830Y-90181011D01*
X237195764Y-90226841D01*
X237182602Y-90267305D01*
X237172858Y-90304015D01*
X237166048Y-90338583D01*
X237164831Y-90345856D01*
X237161522Y-90363662D01*
X237158350Y-90378327D01*
X237155866Y-90387231D01*
X237155613Y-90387988D01*
X237153870Y-90397240D01*
X237152060Y-90412685D01*
X237150383Y-90432360D01*
X237149038Y-90454304D01*
X237148053Y-90478515D01*
X237147947Y-90499027D01*
X236509644Y-90499027D01*
X236513330Y-90498215D01*
X236584885Y-90477107D01*
X236652808Y-90449375D01*
X236716612Y-90415451D01*
X236775810Y-90375768D01*
X236829916Y-90330756D01*
X236878443Y-90280847D01*
X236920905Y-90226474D01*
X236956815Y-90168067D01*
X236985686Y-90106060D01*
X237007032Y-90040883D01*
X237014447Y-90011599D01*
X237020440Y-89984775D01*
X237024497Y-89961165D01*
X237026965Y-89938233D01*
X237028193Y-89913440D01*
X237028530Y-89884250D01*
X237025417Y-89823691D01*
X237014393Y-89756222D01*
X236995764Y-89691166D01*
X236969908Y-89628943D01*
X236937199Y-89569973D01*
X236898015Y-89514675D01*
X236852731Y-89463468D01*
X236801724Y-89416773D01*
X236745369Y-89375009D01*
X236684043Y-89338596D01*
X236618123Y-89307953D01*
X236547983Y-89283499D01*
X236474000Y-89265655D01*
X236448026Y-89261180D01*
X236370617Y-89253224D01*
X236293716Y-89253184D01*
X236217948Y-89260875D01*
X236143936Y-89276111D01*
X236072306Y-89298708D01*
X236003680Y-89328480D01*
X235938685Y-89365242D01*
X235877943Y-89408809D01*
X235822080Y-89458996D01*
X235792479Y-89490451D01*
X235747608Y-89546760D01*
X235710745Y-89605624D01*
X235681773Y-89667312D01*
X235660573Y-89732093D01*
X235647027Y-89800237D01*
X235641017Y-89872011D01*
X235640588Y-89896484D01*
X235364824Y-89896484D01*
X235321995Y-89844033D01*
X235292629Y-89811929D01*
X235224986Y-89742514D01*
X235158895Y-89681141D01*
X235094425Y-89627868D01*
X235031642Y-89582750D01*
X234970611Y-89545845D01*
X234957018Y-89538793D01*
X234922449Y-89523500D01*
X234886136Y-89510643D01*
X234849842Y-89500666D01*
X234815330Y-89494013D01*
X234784364Y-89491128D01*
X234758706Y-89492456D01*
X234727897Y-89498651D01*
X234692587Y-89510233D01*
X234663142Y-89526156D01*
X234638436Y-89547067D01*
X234617341Y-89573615D01*
X234611767Y-89582275D01*
X234591222Y-89619968D01*
X234573564Y-89662732D01*
X234558538Y-89711365D01*
X234545886Y-89766662D01*
X234535355Y-89829422D01*
X234533607Y-89842542D01*
X234528467Y-89904468D01*
X234527816Y-89968554D01*
X234277177Y-89968554D01*
X234276054Y-89965460D01*
X234265953Y-89937469D01*
X234256286Y-89910428D01*
X234247674Y-89886086D01*
X234240735Y-89866193D01*
X234236090Y-89852500D01*
X234232293Y-89840507D01*
X234226181Y-89820019D01*
X234219358Y-89796133D01*
X234212206Y-89770291D01*
X234205107Y-89743934D01*
X234198443Y-89718504D01*
X234192595Y-89695444D01*
X234187945Y-89676194D01*
X234184875Y-89662197D01*
X234183767Y-89654893D01*
X234183722Y-89654177D01*
X234180317Y-89645483D01*
X234172370Y-89632924D01*
X234161094Y-89618454D01*
X234156447Y-89612934D01*
X234107399Y-89549272D01*
X234063074Y-89481684D01*
X234024650Y-89412107D01*
X233993304Y-89342475D01*
X233987593Y-89327118D01*
X233979699Y-89303591D01*
X233971531Y-89277236D01*
X233963710Y-89250213D01*
X233956858Y-89224684D01*
X233951595Y-89202811D01*
X233948544Y-89186756D01*
X233947445Y-89180189D01*
X233944722Y-89169517D01*
X233941979Y-89164281D01*
X233941116Y-89160494D01*
X233940283Y-89149305D01*
X233939596Y-89131944D01*
X233939054Y-89109626D01*
X233938658Y-89083564D01*
X233938409Y-89054971D01*
X233938308Y-89025062D01*
X233938356Y-88995048D01*
X233938533Y-88969072D01*
X234169594Y-88969072D01*
X234170984Y-89049040D01*
X234175116Y-89092249D01*
X234189184Y-89171039D01*
X234211589Y-89248373D01*
X234242323Y-89324222D01*
X234249722Y-89339183D01*
X234264759Y-89365949D01*
X234282292Y-89393777D01*
X234301392Y-89421448D01*
X234321130Y-89447746D01*
X234340576Y-89471454D01*
X234358802Y-89491355D01*
X234374879Y-89506232D01*
X234387876Y-89514867D01*
X234388262Y-89515043D01*
X234401029Y-89520080D01*
X234412367Y-89523401D01*
X234424590Y-89523974D01*
X234444460Y-89518716D01*
X234465577Y-89506851D01*
X234486752Y-89489099D01*
X234506796Y-89466180D01*
X234518896Y-89448238D01*
X234534289Y-89421134D01*
X234550295Y-89389012D01*
X234566113Y-89353586D01*
X234580940Y-89316573D01*
X234593977Y-89279685D01*
X234598054Y-89267100D01*
X234630138Y-89155869D01*
X234655020Y-89044461D01*
X234672922Y-88931510D01*
X234684064Y-88815651D01*
X234686174Y-88760617D01*
X234876641Y-88760617D01*
X234877282Y-88793031D01*
X234878729Y-88821973D01*
X234880988Y-88844966D01*
X234881849Y-88850516D01*
X234886507Y-88873232D01*
X234893402Y-88900707D01*
X234901873Y-88930765D01*
X234911257Y-88961233D01*
X234920894Y-88989936D01*
X234930123Y-89014699D01*
X234938282Y-89033349D01*
X234946050Y-89048280D01*
X234979601Y-89101896D01*
X235019957Y-89152277D01*
X235065945Y-89198218D01*
X235116395Y-89238513D01*
X235170134Y-89271956D01*
X235178028Y-89276032D01*
X235207979Y-89289387D01*
X235242632Y-89302361D01*
X235279142Y-89314022D01*
X235314669Y-89323441D01*
X235346369Y-89329685D01*
X235398557Y-89334881D01*
X235465278Y-89334462D01*
X235533429Y-89326667D01*
X235601891Y-89311695D01*
X235669548Y-89289742D01*
X235735284Y-89261005D01*
X235760385Y-89247993D01*
X235831822Y-89204753D01*
X235897733Y-89155131D01*
X235957967Y-89099274D01*
X236012377Y-89037329D01*
X236060814Y-88969444D01*
X236103131Y-88895766D01*
X236114988Y-88871799D01*
X236146840Y-88796424D01*
X236170619Y-88720893D01*
X236186288Y-88645517D01*
X236193811Y-88570606D01*
X236193621Y-88549343D01*
X236476027Y-88549343D01*
X236476166Y-88570606D01*
X236476457Y-88615193D01*
X236484065Y-88683188D01*
X236498491Y-88752246D01*
X236519375Y-88821289D01*
X236546357Y-88889234D01*
X236579077Y-88955002D01*
X236617176Y-89017512D01*
X236660294Y-89075683D01*
X236697005Y-89117877D01*
X236756333Y-89176058D01*
X236819756Y-89226956D01*
X236887095Y-89270459D01*
X236958171Y-89306457D01*
X237032807Y-89334839D01*
X237110823Y-89355495D01*
X237114856Y-89356332D01*
X237141472Y-89361160D01*
X237167913Y-89364525D01*
X237197053Y-89366726D01*
X237231767Y-89368059D01*
X237235210Y-89368148D01*
X237261609Y-89368677D01*
X237281956Y-89368629D01*
X237298413Y-89367840D01*
X237313142Y-89366146D01*
X237328306Y-89363383D01*
X237346067Y-89359387D01*
X237392993Y-89347060D01*
X237447497Y-89328639D01*
X237496423Y-89306692D01*
X237541244Y-89280437D01*
X237583431Y-89249096D01*
X237624459Y-89211887D01*
X237643834Y-89191879D01*
X237682575Y-89145033D01*
X237715150Y-89094719D01*
X237742075Y-89039955D01*
X237763865Y-88979753D01*
X237781039Y-88913129D01*
X237782761Y-88904988D01*
X237786471Y-88886004D01*
X237789098Y-88869031D01*
X237790818Y-88851974D01*
X237791808Y-88832738D01*
X237792245Y-88809228D01*
X237792305Y-88779349D01*
X237792211Y-88757375D01*
X237792026Y-88745342D01*
X238007201Y-88745342D01*
X238008274Y-88779349D01*
X238009080Y-88804928D01*
X238013090Y-88863004D01*
X238019181Y-88916933D01*
X238030704Y-88993092D01*
X238046627Y-89080975D01*
X238064693Y-89163171D01*
X238085227Y-89241137D01*
X238108557Y-89316331D01*
X238113333Y-89330238D01*
X238131663Y-89377532D01*
X238151445Y-89419980D01*
X238172279Y-89456990D01*
X238193767Y-89487966D01*
X238215506Y-89512312D01*
X238237099Y-89529435D01*
X238258144Y-89538739D01*
X238263397Y-89540007D01*
X238275181Y-89542446D01*
X238282450Y-89543370D01*
X238292232Y-89541094D01*
X238307765Y-89532102D01*
X238327101Y-89516127D01*
X238350466Y-89493000D01*
X238374568Y-89465965D01*
X238410747Y-89417370D01*
X238442132Y-89363854D01*
X238469072Y-89304710D01*
X238491914Y-89239227D01*
X238511007Y-89166699D01*
X238513185Y-89156983D01*
X238517330Y-89137025D01*
X238520377Y-89119023D01*
X238522548Y-89100892D01*
X238524063Y-89080548D01*
X238525142Y-89055906D01*
X238526006Y-89024883D01*
X238526295Y-89012061D01*
X238526734Y-88983853D01*
X238526639Y-88961397D01*
X238525908Y-88942743D01*
X238524437Y-88925936D01*
X238522122Y-88909026D01*
X238518860Y-88890060D01*
X238503712Y-88823931D01*
X238478056Y-88746611D01*
X238444003Y-88670157D01*
X238427430Y-88639860D01*
X238391768Y-88586465D01*
X238349217Y-88534942D01*
X238300790Y-88486358D01*
X238247495Y-88441780D01*
X238190343Y-88402275D01*
X238188933Y-88401401D01*
X238161150Y-88387008D01*
X238136554Y-88380203D01*
X238114568Y-88381001D01*
X238094617Y-88389418D01*
X238076123Y-88405472D01*
X238073104Y-88408927D01*
X238055978Y-88433736D01*
X238041575Y-88464648D01*
X238029722Y-88502192D01*
X238020248Y-88546897D01*
X238012980Y-88599292D01*
X238010042Y-88632181D01*
X238007504Y-88686881D01*
X238007201Y-88745342D01*
X237792026Y-88745342D01*
X237791833Y-88732791D01*
X237790975Y-88712892D01*
X237789425Y-88695486D01*
X237786973Y-88678379D01*
X237783405Y-88659380D01*
X237778512Y-88636295D01*
X237762027Y-88571695D01*
X237734340Y-88492106D01*
X237699376Y-88416802D01*
X237657033Y-88345596D01*
X237607210Y-88278302D01*
X237549806Y-88214733D01*
X237509132Y-88176235D01*
X237446283Y-88125734D01*
X237380241Y-88082800D01*
X237311304Y-88047579D01*
X237239768Y-88020214D01*
X237165928Y-88000851D01*
X237090080Y-87989635D01*
X237090061Y-87989633D01*
X237070160Y-87987671D01*
X237053420Y-87985790D01*
X237041600Y-87984204D01*
X237036456Y-87983126D01*
X237031578Y-87982532D01*
X237019465Y-87983291D01*
X237001856Y-87985367D01*
X236980246Y-87988502D01*
X236956131Y-87992440D01*
X236931005Y-87996923D01*
X236906365Y-88001694D01*
X236883704Y-88006496D01*
X236864518Y-88011070D01*
X236850303Y-88015160D01*
X236813566Y-88029115D01*
X236755787Y-88058074D01*
X236701604Y-88094000D01*
X236651856Y-88136149D01*
X236607378Y-88183780D01*
X236569008Y-88236150D01*
X236537583Y-88292516D01*
X236519792Y-88333287D01*
X236504741Y-88376514D01*
X236493046Y-88421864D01*
X236484182Y-88471388D01*
X236477626Y-88527139D01*
X236476027Y-88549343D01*
X236193621Y-88549343D01*
X236193150Y-88496470D01*
X236184270Y-88423421D01*
X236167133Y-88351768D01*
X236150267Y-88301818D01*
X236126274Y-88247049D01*
X236097609Y-88197400D01*
X236063369Y-88151341D01*
X236022649Y-88107342D01*
X235997135Y-88083657D01*
X235948423Y-88045753D01*
X235896387Y-88014632D01*
X235839789Y-87989600D01*
X235777388Y-87969962D01*
X235770959Y-87968285D01*
X235751333Y-87963306D01*
X235735249Y-87959692D01*
X235720706Y-87957219D01*
X235705703Y-87955658D01*
X235688239Y-87954784D01*
X235666310Y-87954371D01*
X235637917Y-87954192D01*
X235629816Y-87954155D01*
X235607067Y-87954079D01*
X235588667Y-87954240D01*
X235573043Y-87954856D01*
X235558623Y-87956143D01*
X235543834Y-87958319D01*
X235527103Y-87961603D01*
X235506858Y-87966213D01*
X235481526Y-87972365D01*
X235449534Y-87980278D01*
X235431640Y-87985354D01*
X235397018Y-87997844D01*
X235358954Y-88014317D01*
X235319341Y-88033818D01*
X235280073Y-88055394D01*
X235243042Y-88078091D01*
X235210142Y-88100953D01*
X235205908Y-88104147D01*
X235147238Y-88153213D01*
X235092538Y-88207913D01*
X235043296Y-88266638D01*
X235000997Y-88327774D01*
X234974814Y-88373136D01*
X234942071Y-88440853D01*
X234915132Y-88510824D01*
X234894671Y-88581225D01*
X234881367Y-88650233D01*
X234880550Y-88657741D01*
X234879508Y-88667327D01*
X234877758Y-88695288D01*
X234876801Y-88727210D01*
X234876641Y-88760617D01*
X234686174Y-88760617D01*
X234688669Y-88695519D01*
X234688750Y-88657741D01*
X234687653Y-88615669D01*
X234685034Y-88578806D01*
X234680706Y-88545373D01*
X234674483Y-88513592D01*
X234666177Y-88481684D01*
X234658054Y-88455361D01*
X234647842Y-88428346D01*
X234637002Y-88407447D01*
X234624691Y-88391372D01*
X234610064Y-88378830D01*
X234592280Y-88368529D01*
X234589228Y-88367038D01*
X234577315Y-88361638D01*
X234568833Y-88359607D01*
X234560315Y-88360615D01*
X234548292Y-88364331D01*
X234540773Y-88367154D01*
X234518018Y-88378394D01*
X234491552Y-88394526D01*
X234462781Y-88414539D01*
X234433111Y-88437423D01*
X234403948Y-88462165D01*
X234376697Y-88487756D01*
X234375261Y-88489188D01*
X234323788Y-88546492D01*
X234279444Y-88608187D01*
X234242370Y-88673888D01*
X234212708Y-88743212D01*
X234190597Y-88815773D01*
X234176179Y-88891188D01*
X234169594Y-88969072D01*
X233938533Y-88969072D01*
X233938553Y-88966144D01*
X233938900Y-88939563D01*
X233939398Y-88916519D01*
X233940047Y-88898224D01*
X233940849Y-88885893D01*
X233941804Y-88880738D01*
X233942435Y-88879654D01*
X233944898Y-88871580D01*
X233947769Y-88858083D01*
X233950548Y-88841409D01*
X233955878Y-88811667D01*
X233970095Y-88756611D01*
X233990008Y-88698646D01*
X234014953Y-88639179D01*
X234044266Y-88579618D01*
X234077286Y-88521371D01*
X234113347Y-88465844D01*
X234151787Y-88414447D01*
X234172100Y-88390912D01*
X234198442Y-88363275D01*
X234227650Y-88334863D01*
X234257722Y-88307553D01*
X234286659Y-88283221D01*
X234312459Y-88263743D01*
X234327188Y-88253238D01*
X234340742Y-88242425D01*
X234350894Y-88232113D01*
X234359748Y-88220101D01*
X234369409Y-88204189D01*
X234388684Y-88170895D01*
X234390708Y-88131540D01*
X234622424Y-88131540D01*
X234622773Y-88145535D01*
X234623717Y-88154767D01*
X234625436Y-88160644D01*
X234628108Y-88164577D01*
X234631911Y-88167975D01*
X234636152Y-88170960D01*
X234646989Y-88174944D01*
X234660878Y-88175126D01*
X234679277Y-88171423D01*
X234703648Y-88163747D01*
X234721267Y-88157029D01*
X234759301Y-88139411D01*
X234802472Y-88115821D01*
X234850451Y-88086488D01*
X234902910Y-88051640D01*
X234959521Y-88011506D01*
X235019957Y-87966315D01*
X235083890Y-87916296D01*
X235150991Y-87861678D01*
X235220934Y-87802690D01*
X235273612Y-87756689D01*
X235326060Y-87709116D01*
X235375184Y-87662715D01*
X235420595Y-87617911D01*
X235443601Y-87594086D01*
X235706148Y-87594086D01*
X235708097Y-87632990D01*
X235718172Y-87672152D01*
X235719529Y-87675768D01*
X235735051Y-87705756D01*
X235757764Y-87735936D01*
X235786617Y-87765341D01*
X235820560Y-87793003D01*
X235858542Y-87817954D01*
X235899512Y-87839228D01*
X235905516Y-87841909D01*
X235959969Y-87862938D01*
X236020481Y-87881073D01*
X236085215Y-87895887D01*
X236152334Y-87906952D01*
X236220000Y-87913840D01*
X236250785Y-87915919D01*
X236281822Y-87917814D01*
X236307450Y-87919030D01*
X236329331Y-87919580D01*
X236349127Y-87919478D01*
X236368499Y-87918736D01*
X236389109Y-87917369D01*
X236412617Y-87915389D01*
X236448445Y-87911683D01*
X236527812Y-87899643D01*
X236602296Y-87882871D01*
X236671439Y-87861542D01*
X236734786Y-87835830D01*
X236791878Y-87805911D01*
X236842261Y-87771961D01*
X236885475Y-87734153D01*
X236913174Y-87702973D01*
X236936812Y-87668163D01*
X236953274Y-87633235D01*
X236962326Y-87598835D01*
X236963740Y-87565606D01*
X236957282Y-87534191D01*
X236946730Y-87509413D01*
X236925132Y-87473861D01*
X236895977Y-87437724D01*
X236859725Y-87401496D01*
X236816836Y-87365671D01*
X236793346Y-87348949D01*
X237066662Y-87348949D01*
X237067243Y-87358876D01*
X237071881Y-87371919D01*
X237079867Y-87388682D01*
X237080782Y-87390501D01*
X237091764Y-87410777D01*
X237104264Y-87430813D01*
X237119196Y-87451832D01*
X237137475Y-87475060D01*
X237160016Y-87501720D01*
X237187734Y-87533036D01*
X237195166Y-87541231D01*
X237218244Y-87565606D01*
X237233651Y-87581879D01*
X237277795Y-87626003D01*
X237326459Y-87672599D01*
X237378503Y-87720660D01*
X237432787Y-87769181D01*
X237488174Y-87817156D01*
X237543523Y-87863579D01*
X237597695Y-87907444D01*
X237649552Y-87947746D01*
X237697953Y-87983479D01*
X237744425Y-88016387D01*
X237787911Y-88046364D01*
X237826375Y-88071867D01*
X237860593Y-88093368D01*
X237891340Y-88111336D01*
X237919392Y-88126242D01*
X237945524Y-88138555D01*
X237970512Y-88148747D01*
X237994397Y-88156340D01*
X238014402Y-88159107D01*
X238029374Y-88156334D01*
X238040027Y-88148012D01*
X238043421Y-88143026D01*
X238045834Y-88137069D01*
X238047400Y-88128689D01*
X238048297Y-88116374D01*
X238048705Y-88098615D01*
X238048800Y-88073901D01*
X238048437Y-88047200D01*
X238044679Y-87989638D01*
X238036438Y-87934034D01*
X238023204Y-87876466D01*
X238021193Y-87869013D01*
X237996404Y-87791959D01*
X237965823Y-87720948D01*
X237929213Y-87655649D01*
X237886341Y-87595729D01*
X237836973Y-87540859D01*
X237780872Y-87490705D01*
X237717806Y-87444936D01*
X237687623Y-87426339D01*
X237622427Y-87393120D01*
X237552192Y-87365806D01*
X237477780Y-87344581D01*
X237400051Y-87329629D01*
X237319866Y-87321137D01*
X237238084Y-87319287D01*
X237155567Y-87324265D01*
X237149499Y-87324891D01*
X237119131Y-87328308D01*
X237096374Y-87331818D01*
X237080517Y-87336025D01*
X237070850Y-87341534D01*
X237066662Y-87348949D01*
X236793346Y-87348949D01*
X236767769Y-87330742D01*
X236760132Y-87325745D01*
X236706587Y-87293370D01*
X236654179Y-87266820D01*
X236600566Y-87245132D01*
X236543404Y-87227342D01*
X236480350Y-87212485D01*
X236471643Y-87210715D01*
X236450597Y-87206712D01*
X236432393Y-87203901D01*
X236414768Y-87202089D01*
X236395463Y-87201081D01*
X236372217Y-87200686D01*
X236342767Y-87200708D01*
X236325274Y-87200857D01*
X236289191Y-87201775D01*
X236258363Y-87203733D01*
X236230553Y-87207040D01*
X236203525Y-87212001D01*
X236175040Y-87218924D01*
X236142861Y-87228115D01*
X236100751Y-87241469D01*
X236031290Y-87267302D01*
X235968756Y-87295973D01*
X235912338Y-87327913D01*
X235861229Y-87363554D01*
X235850063Y-87373082D01*
X235814620Y-87403327D01*
X235780694Y-87438029D01*
X235749598Y-87477410D01*
X235726844Y-87516446D01*
X235712379Y-87555288D01*
X235706148Y-87594086D01*
X235443601Y-87594086D01*
X235461903Y-87575132D01*
X235498720Y-87534805D01*
X235530657Y-87497355D01*
X235557325Y-87463209D01*
X235578335Y-87432795D01*
X235593299Y-87406538D01*
X235601826Y-87384866D01*
X235601961Y-87384363D01*
X235604325Y-87373082D01*
X235603959Y-87364470D01*
X235599911Y-87357979D01*
X235591228Y-87353060D01*
X235576959Y-87349164D01*
X235556150Y-87345743D01*
X235527851Y-87342248D01*
X235476155Y-87337949D01*
X235410120Y-87336435D01*
X235342847Y-87338817D01*
X235277312Y-87344977D01*
X235216493Y-87354794D01*
X235211244Y-87355876D01*
X235145662Y-87373086D01*
X235080302Y-87396735D01*
X235016739Y-87426020D01*
X234956554Y-87460141D01*
X234901323Y-87498295D01*
X234852624Y-87539681D01*
X234817727Y-87575059D01*
X234768966Y-87633736D01*
X234727732Y-87696166D01*
X234693880Y-87762577D01*
X234667266Y-87833200D01*
X234664587Y-87841721D01*
X234650643Y-87888868D01*
X234639992Y-87931042D01*
X234632252Y-87970491D01*
X234627040Y-88009460D01*
X234623973Y-88050197D01*
X234622669Y-88094950D01*
X234622493Y-88111372D01*
X234622424Y-88131540D01*
X234390708Y-88131540D01*
X234391979Y-88106822D01*
X234394546Y-88061918D01*
X234397628Y-88019934D01*
X234401229Y-87982979D01*
X234405552Y-87949267D01*
X234410799Y-87917015D01*
X234417171Y-87884438D01*
X234429304Y-87832570D01*
X234454055Y-87751079D01*
X234484822Y-87675021D01*
X234521965Y-87603734D01*
X234565844Y-87536559D01*
X234616822Y-87472836D01*
X234675257Y-87411904D01*
X234685558Y-87402180D01*
X234706657Y-87383280D01*
X234729479Y-87364272D01*
X234755132Y-87344306D01*
X234784723Y-87322532D01*
X234819360Y-87298103D01*
X234860151Y-87270168D01*
X234880346Y-87256222D01*
X234897630Y-87243776D01*
X234910945Y-87233634D01*
X234919257Y-87226584D01*
X234921534Y-87223411D01*
X234921039Y-87223064D01*
X234914292Y-87220156D01*
X234902083Y-87215887D01*
X234886650Y-87211051D01*
X234856298Y-87200369D01*
X234821211Y-87183230D01*
X234791270Y-87162883D01*
X234767302Y-87140018D01*
X234750134Y-87115322D01*
X234740593Y-87089484D01*
X234739485Y-87084727D01*
X234736131Y-87076618D01*
X234730056Y-87070845D01*
X234719412Y-87066017D01*
X234702351Y-87060748D01*
X234693471Y-87058006D01*
X234660835Y-87044568D01*
X234629234Y-87026730D01*
X234600516Y-87005795D01*
X234576530Y-86983063D01*
X234559123Y-86959838D01*
X234554605Y-86951155D01*
X234547300Y-86933984D01*
X234541401Y-86916629D01*
X234537642Y-86904472D01*
X234532083Y-86891565D01*
X234524511Y-86881198D01*
X234513154Y-86871110D01*
X234496242Y-86859041D01*
X234478962Y-86846532D01*
X234447081Y-86819259D01*
X234419149Y-86789743D01*
X234396557Y-86759533D01*
X234380694Y-86730179D01*
X234376842Y-86717648D01*
X234373383Y-86700230D01*
X234371151Y-86681928D01*
X234370217Y-86670769D01*
X234368443Y-86658347D01*
X234365201Y-86649812D01*
X234359241Y-86642375D01*
X234349309Y-86633245D01*
X234346401Y-86630660D01*
X234321874Y-86607221D01*
X234303350Y-86585529D01*
X234289511Y-86563527D01*
X234279040Y-86539158D01*
X234270620Y-86510366D01*
X234267917Y-86498737D01*
X234265711Y-86484524D01*
X234265966Y-86472494D01*
X234268535Y-86459059D01*
X234273755Y-86437302D01*
X234245095Y-86397593D01*
X234244230Y-86396393D01*
X234224158Y-86367091D01*
X234209407Y-86341963D01*
X234199230Y-86319363D01*
X234192884Y-86297648D01*
X234189623Y-86275174D01*
X234189456Y-86273138D01*
X234188647Y-86253786D01*
X234190019Y-86239459D01*
X234193834Y-86227191D01*
X234195305Y-86223557D01*
X234199156Y-86212559D01*
X234200701Y-86205594D01*
X234200500Y-86204539D01*
X234197108Y-86197114D01*
X234190392Y-86185322D01*
X234181481Y-86171186D01*
X234181272Y-86170867D01*
X234170453Y-86152255D01*
X234160475Y-86131541D01*
X234153474Y-86113151D01*
X234147635Y-86089291D01*
X234146963Y-86080673D01*
X234315000Y-86080673D01*
X234315749Y-86083005D01*
X234320335Y-86091410D01*
X234327993Y-86103582D01*
X234337439Y-86117586D01*
X234347388Y-86131484D01*
X234356557Y-86143341D01*
X234357487Y-86144447D01*
X234367295Y-86154741D01*
X234381684Y-86168420D01*
X234398867Y-86183832D01*
X234417060Y-86199324D01*
X234426241Y-86206992D01*
X234450276Y-86228001D01*
X234467449Y-86244747D01*
X234477961Y-86257461D01*
X234482011Y-86266376D01*
X234479803Y-86271723D01*
X234475952Y-86274161D01*
X234454823Y-86282773D01*
X234429015Y-86287498D01*
X234400989Y-86288051D01*
X234373209Y-86284144D01*
X234370004Y-86283443D01*
X234360966Y-86282055D01*
X234357334Y-86282521D01*
X234358181Y-86285328D01*
X234364047Y-86294541D01*
X234374750Y-86308064D01*
X234389415Y-86324933D01*
X234407163Y-86344182D01*
X234427116Y-86364847D01*
X234448399Y-86385963D01*
X234470133Y-86406566D01*
X234476992Y-86412925D01*
X234496124Y-86430880D01*
X234512765Y-86446816D01*
X234525975Y-86459813D01*
X234534812Y-86468949D01*
X234538333Y-86473301D01*
X234536397Y-86478965D01*
X234527449Y-86484261D01*
X234512892Y-86488649D01*
X234494169Y-86491696D01*
X234472723Y-86492970D01*
X234466898Y-86493066D01*
X234452246Y-86493648D01*
X234442266Y-86494564D01*
X234438856Y-86495664D01*
X234439708Y-86497128D01*
X234446632Y-86504980D01*
X234458995Y-86516698D01*
X234475719Y-86531414D01*
X234495728Y-86548259D01*
X234517945Y-86566364D01*
X234541293Y-86584860D01*
X234564695Y-86602879D01*
X234587074Y-86619552D01*
X234607353Y-86634010D01*
X234624454Y-86645384D01*
X234634425Y-86651705D01*
X234643448Y-86657965D01*
X234646986Y-86662070D01*
X234646033Y-86665413D01*
X234641584Y-86669385D01*
X234630609Y-86675407D01*
X234612022Y-86680956D01*
X234588955Y-86684683D01*
X234563500Y-86686138D01*
X234537250Y-86686310D01*
X234552067Y-86699194D01*
X234564702Y-86709398D01*
X234588782Y-86726554D01*
X234618378Y-86745677D01*
X234652149Y-86765943D01*
X234688757Y-86786531D01*
X234726863Y-86806616D01*
X234741577Y-86814181D01*
X234768020Y-86828300D01*
X234786801Y-86839205D01*
X234798015Y-86846954D01*
X234801755Y-86851603D01*
X234801363Y-86853424D01*
X234795324Y-86859742D01*
X234783512Y-86866347D01*
X234767887Y-86872432D01*
X234750410Y-86877192D01*
X234733042Y-86879822D01*
X234722469Y-86880980D01*
X234712536Y-86882968D01*
X234708701Y-86885065D01*
X234709515Y-86886864D01*
X234716761Y-86892470D01*
X234730740Y-86900018D01*
X234750515Y-86909137D01*
X234775147Y-86919455D01*
X234803699Y-86930601D01*
X234835234Y-86942204D01*
X234868814Y-86953891D01*
X234903502Y-86965293D01*
X234938359Y-86976037D01*
X234944269Y-86977850D01*
X234960673Y-86983643D01*
X234971496Y-86988748D01*
X234975401Y-86992568D01*
X234973543Y-86999323D01*
X234965161Y-87010503D01*
X234951383Y-87022179D01*
X234933704Y-87032906D01*
X234909784Y-87045122D01*
X234926315Y-87052142D01*
X234937813Y-87056423D01*
X234965603Y-87063903D01*
X235001173Y-87070613D01*
X235044094Y-87076477D01*
X235093934Y-87081420D01*
X235122156Y-87083920D01*
X235150360Y-87086865D01*
X235171960Y-87089794D01*
X235187985Y-87092879D01*
X235199462Y-87096288D01*
X235207421Y-87100191D01*
X235208996Y-87101503D01*
X235211077Y-87109325D01*
X235207235Y-87120494D01*
X235198254Y-87133780D01*
X235184921Y-87147954D01*
X235168024Y-87161787D01*
X235163016Y-87166316D01*
X235161751Y-87170061D01*
X235162360Y-87170502D01*
X235169318Y-87172612D01*
X235180609Y-87174452D01*
X235193072Y-87175689D01*
X235203545Y-87175991D01*
X235208867Y-87175023D01*
X235210968Y-87174350D01*
X235220335Y-87173008D01*
X235235749Y-87171497D01*
X235255709Y-87169955D01*
X235278717Y-87168523D01*
X235311640Y-87166492D01*
X235362423Y-87162253D01*
X235407750Y-87156764D01*
X235449503Y-87149685D01*
X235489564Y-87140675D01*
X235529814Y-87129394D01*
X235572136Y-87115503D01*
X235574550Y-87114658D01*
X235639843Y-87088136D01*
X235698119Y-87056929D01*
X235749460Y-87020962D01*
X235793952Y-86980157D01*
X235831678Y-86934438D01*
X235862721Y-86883728D01*
X235887168Y-86827950D01*
X235891324Y-86815492D01*
X235894751Y-86800521D01*
X235894183Y-86792078D01*
X235889800Y-86786576D01*
X235880187Y-86776336D01*
X235866491Y-86762512D01*
X235849820Y-86746175D01*
X235831279Y-86728395D01*
X235811973Y-86710245D01*
X235793009Y-86692795D01*
X235775493Y-86677116D01*
X235735709Y-86643194D01*
X235681819Y-86599754D01*
X235622906Y-86554590D01*
X235560413Y-86508736D01*
X235495783Y-86463226D01*
X235430456Y-86419091D01*
X235365876Y-86377364D01*
X235303484Y-86339078D01*
X235301660Y-86337993D01*
X235265868Y-86316967D01*
X235224878Y-86293328D01*
X235179939Y-86267767D01*
X235132302Y-86240974D01*
X235083217Y-86213637D01*
X235033933Y-86186448D01*
X234985702Y-86160095D01*
X234939772Y-86135269D01*
X234897393Y-86112659D01*
X234859817Y-86092956D01*
X234828292Y-86076849D01*
X234821918Y-86073562D01*
X234807008Y-86064981D01*
X234797015Y-86057815D01*
X234793367Y-86053036D01*
X234793292Y-86050150D01*
X234793828Y-86048021D01*
X234796451Y-86047611D01*
X234802650Y-86049152D01*
X234813914Y-86052876D01*
X234831731Y-86059015D01*
X234844833Y-86063534D01*
X234923651Y-86091409D01*
X234997924Y-86118997D01*
X235069312Y-86147004D01*
X235139474Y-86176135D01*
X235210071Y-86207095D01*
X235282762Y-86240591D01*
X235359207Y-86277327D01*
X235441067Y-86318010D01*
X235460632Y-86327938D01*
X235556005Y-86378574D01*
X235646332Y-86430587D01*
X235733973Y-86485442D01*
X235821288Y-86544604D01*
X235910637Y-86609538D01*
X235920640Y-86616999D01*
X235947314Y-86636506D01*
X235969897Y-86652416D01*
X235987758Y-86664305D01*
X236000268Y-86671749D01*
X236006799Y-86674325D01*
X236009811Y-86673984D01*
X236022084Y-86669476D01*
X236038445Y-86660543D01*
X236057364Y-86648224D01*
X236077310Y-86633560D01*
X236096754Y-86617590D01*
X236114167Y-86601354D01*
X236136682Y-86576877D01*
X236157015Y-86549281D01*
X236173190Y-86519376D01*
X236187120Y-86484086D01*
X236188872Y-86478994D01*
X236192915Y-86466756D01*
X236195766Y-86456288D01*
X236197586Y-86445884D01*
X236198536Y-86433838D01*
X236198775Y-86418445D01*
X236198463Y-86398000D01*
X236198086Y-86383379D01*
X236478768Y-86383379D01*
X236480085Y-86411149D01*
X236481130Y-86418445D01*
X236484278Y-86440433D01*
X236485583Y-86447267D01*
X236499335Y-86496202D01*
X236520109Y-86540645D01*
X236548084Y-86580861D01*
X236583438Y-86617113D01*
X236626351Y-86649665D01*
X236637818Y-86657193D01*
X236654539Y-86667657D01*
X236666888Y-86673764D01*
X236676620Y-86675703D01*
X236685491Y-86673664D01*
X236695258Y-86667835D01*
X236707677Y-86658404D01*
X236735149Y-86637222D01*
X236848368Y-86554450D01*
X236965297Y-86475882D01*
X237084381Y-86402488D01*
X237204062Y-86335239D01*
X237322784Y-86275104D01*
X237343921Y-86265177D01*
X237371560Y-86252482D01*
X237403480Y-86238027D01*
X237438186Y-86222475D01*
X237474179Y-86206488D01*
X237509964Y-86190726D01*
X237544043Y-86175854D01*
X237574920Y-86162531D01*
X237601098Y-86151420D01*
X237621080Y-86143184D01*
X237627190Y-86140765D01*
X237644974Y-86133937D01*
X237667298Y-86125572D01*
X237693027Y-86116075D01*
X237721027Y-86105854D01*
X237750162Y-86095315D01*
X237779298Y-86084863D01*
X237807299Y-86074904D01*
X237833032Y-86065846D01*
X237855360Y-86058093D01*
X237873150Y-86052053D01*
X237885266Y-86048130D01*
X237890574Y-86046733D01*
X237894520Y-86047111D01*
X237896168Y-86049234D01*
X237892287Y-86053473D01*
X237882443Y-86060110D01*
X237866201Y-86069426D01*
X237843129Y-86081703D01*
X237812792Y-86097223D01*
X237811244Y-86098006D01*
X237782888Y-86112670D01*
X237748601Y-86130880D01*
X237709662Y-86151924D01*
X237667350Y-86175087D01*
X237622945Y-86199655D01*
X237577725Y-86224913D01*
X237532969Y-86250147D01*
X237489956Y-86274644D01*
X237449966Y-86297689D01*
X237414276Y-86318568D01*
X237384167Y-86336566D01*
X237327415Y-86371611D01*
X237251648Y-86420247D01*
X237177860Y-86469688D01*
X237107513Y-86518928D01*
X237042070Y-86566958D01*
X236982993Y-86612773D01*
X236973369Y-86620602D01*
X236953094Y-86637682D01*
X236930727Y-86657131D01*
X236907213Y-86678072D01*
X236883496Y-86699627D01*
X236860519Y-86720915D01*
X236839227Y-86741059D01*
X236820563Y-86759180D01*
X236805472Y-86774399D01*
X236794898Y-86785837D01*
X236789784Y-86792616D01*
X236789701Y-86792792D01*
X236789395Y-86801488D01*
X236792885Y-86816382D01*
X236799784Y-86836354D01*
X236809708Y-86860283D01*
X236822271Y-86887050D01*
X236842170Y-86922100D01*
X236875583Y-86966337D01*
X236916193Y-87006731D01*
X236963707Y-87043092D01*
X237017831Y-87075229D01*
X237078275Y-87102952D01*
X237144746Y-87126071D01*
X237216951Y-87144394D01*
X237230439Y-87147229D01*
X237262329Y-87153685D01*
X237289103Y-87158584D01*
X237313035Y-87162249D01*
X237336399Y-87165005D01*
X237361469Y-87167173D01*
X237390517Y-87169078D01*
X237399712Y-87169629D01*
X237422846Y-87171068D01*
X237443378Y-87172420D01*
X237459358Y-87173552D01*
X237468834Y-87174335D01*
X237481117Y-87174987D01*
X237496311Y-87174593D01*
X237510060Y-87173183D01*
X237520026Y-87171012D01*
X237523867Y-87168334D01*
X237523795Y-87167539D01*
X237520230Y-87164333D01*
X237517252Y-87163385D01*
X237508835Y-87157565D01*
X237498228Y-87148117D01*
X237487401Y-87136993D01*
X237478323Y-87126144D01*
X237472965Y-87117520D01*
X237470567Y-87111167D01*
X237469828Y-87104551D01*
X237473344Y-87100662D01*
X237476651Y-87099205D01*
X237488574Y-87096023D01*
X237506282Y-87092597D01*
X237528021Y-87089192D01*
X237552036Y-87086069D01*
X237576573Y-87083491D01*
X237599879Y-87081720D01*
X237632419Y-87079067D01*
X237680553Y-87072259D01*
X237724791Y-87062492D01*
X237762985Y-87050183D01*
X237775619Y-87045254D01*
X237748933Y-87032446D01*
X237744250Y-87030114D01*
X237725396Y-87018267D01*
X237714089Y-87006260D01*
X237712879Y-87004248D01*
X237707931Y-86995317D01*
X237705916Y-86990414D01*
X237706812Y-86989718D01*
X237714013Y-86986740D01*
X237727257Y-86982100D01*
X237745131Y-86976284D01*
X237766225Y-86969773D01*
X237780094Y-86965536D01*
X237816248Y-86953936D01*
X237850279Y-86942247D01*
X237881439Y-86930785D01*
X237908980Y-86919870D01*
X237932156Y-86909819D01*
X237950218Y-86900951D01*
X237962419Y-86893583D01*
X237968013Y-86888035D01*
X237966251Y-86884623D01*
X237960588Y-86882855D01*
X237949027Y-86880997D01*
X237946742Y-86880857D01*
X237931136Y-86877929D01*
X237913326Y-86872290D01*
X237896843Y-86865215D01*
X237885222Y-86857978D01*
X237873905Y-86848243D01*
X237965646Y-86800484D01*
X237990974Y-86787022D01*
X238020633Y-86770584D01*
X238048817Y-86754283D01*
X238074669Y-86738665D01*
X238097330Y-86724277D01*
X238115943Y-86711667D01*
X238129650Y-86701381D01*
X238137592Y-86693968D01*
X238138913Y-86689974D01*
X238136430Y-86688980D01*
X238126798Y-86686989D01*
X238111957Y-86684800D01*
X238093901Y-86682732D01*
X238076785Y-86680784D01*
X238060813Y-86678044D01*
X238050424Y-86674696D01*
X238043987Y-86670334D01*
X238041383Y-86667494D01*
X238040170Y-86664440D01*
X238041639Y-86660765D01*
X238046640Y-86655618D01*
X238056018Y-86648147D01*
X238070622Y-86637501D01*
X238091300Y-86622830D01*
X238109605Y-86609676D01*
X238140008Y-86586951D01*
X238169064Y-86564212D01*
X238195339Y-86542618D01*
X238217397Y-86523332D01*
X238233803Y-86507516D01*
X238247355Y-86493350D01*
X238210519Y-86492835D01*
X238192214Y-86491855D01*
X238172671Y-86489129D01*
X238156685Y-86485108D01*
X238145894Y-86480220D01*
X238141934Y-86474893D01*
X238142352Y-86474022D01*
X238147330Y-86468208D01*
X238157044Y-86458234D01*
X238170380Y-86445223D01*
X238186223Y-86430297D01*
X238214398Y-86403982D01*
X238244196Y-86375561D01*
X238268284Y-86351786D01*
X238287093Y-86332217D01*
X238301058Y-86316414D01*
X238310610Y-86303937D01*
X238324334Y-86283858D01*
X238280759Y-86286487D01*
X238280142Y-86286524D01*
X238249255Y-86286952D01*
X238226096Y-86284121D01*
X238210570Y-86278011D01*
X238202584Y-86268599D01*
X238202637Y-86265905D01*
X238207635Y-86257159D01*
X238219155Y-86243707D01*
X238237272Y-86225470D01*
X238262060Y-86202371D01*
X238293595Y-86174334D01*
X238302683Y-86165893D01*
X238317070Y-86150985D01*
X238331559Y-86134495D01*
X238344939Y-86117943D01*
X238355998Y-86102848D01*
X238363524Y-86090730D01*
X238366306Y-86083111D01*
X238363826Y-86081338D01*
X238354120Y-86080012D01*
X238336724Y-86079532D01*
X238311269Y-86079878D01*
X238310028Y-86079909D01*
X238287245Y-86080319D01*
X238271544Y-86080144D01*
X238261613Y-86079272D01*
X238256140Y-86077590D01*
X238253815Y-86074988D01*
X238253000Y-86069110D01*
X238255127Y-86054800D01*
X238260952Y-86035326D01*
X238269960Y-86011898D01*
X238281634Y-85985722D01*
X238295455Y-85958009D01*
X238310909Y-85929965D01*
X238327477Y-85902799D01*
X238353378Y-85862583D01*
X238223314Y-85859969D01*
X238210027Y-85859700D01*
X238178262Y-85859038D01*
X238149456Y-85858414D01*
X238124709Y-85857852D01*
X238105124Y-85857377D01*
X238091801Y-85857016D01*
X238085842Y-85856794D01*
X238082169Y-85856058D01*
X238078744Y-85851409D01*
X238081997Y-85842461D01*
X238092018Y-85829034D01*
X238108897Y-85810948D01*
X238118012Y-85801523D01*
X238128433Y-85789955D01*
X238135059Y-85781549D01*
X238136749Y-85777670D01*
X238135451Y-85776656D01*
X238125572Y-85773023D01*
X238109314Y-85770119D01*
X238088333Y-85768178D01*
X238064282Y-85767434D01*
X238054525Y-85767577D01*
X238030744Y-85769212D01*
X238003561Y-85772827D01*
X237971829Y-85778619D01*
X237934396Y-85786787D01*
X237890114Y-85797531D01*
X237839377Y-85810294D01*
X237829810Y-85798338D01*
X237828862Y-85797122D01*
X237822737Y-85787397D01*
X237820222Y-85779936D01*
X237820999Y-85776505D01*
X237825682Y-85766499D01*
X237833316Y-85753496D01*
X237842406Y-85739816D01*
X237851459Y-85727780D01*
X237858982Y-85719708D01*
X237864479Y-85714706D01*
X237863869Y-85712613D01*
X237855594Y-85712316D01*
X237852677Y-85712490D01*
X237840238Y-85714345D01*
X237821821Y-85717935D01*
X237798994Y-85722890D01*
X237773324Y-85728840D01*
X237746379Y-85735417D01*
X237719724Y-85742250D01*
X237694928Y-85748971D01*
X237673558Y-85755210D01*
X237659669Y-85759240D01*
X237642948Y-85763416D01*
X237630270Y-85765781D01*
X237623631Y-85765909D01*
X237621956Y-85765105D01*
X237614440Y-85756981D01*
X237609934Y-85744939D01*
X237609977Y-85732720D01*
X237610968Y-85730246D01*
X237616858Y-85720836D01*
X237626490Y-85708181D01*
X237638368Y-85694308D01*
X237644539Y-85687302D01*
X237653468Y-85676220D01*
X237658477Y-85668585D01*
X237658612Y-85665744D01*
X237653200Y-85666444D01*
X237640348Y-85669292D01*
X237622918Y-85673809D01*
X237602897Y-85679434D01*
X237582271Y-85685603D01*
X237563027Y-85691754D01*
X237547150Y-85697325D01*
X237533500Y-85702929D01*
X237513428Y-85711995D01*
X237491179Y-85722678D01*
X237469542Y-85733672D01*
X237467683Y-85734644D01*
X237448988Y-85744087D01*
X237432593Y-85751784D01*
X237420209Y-85756967D01*
X237413548Y-85758866D01*
X237406027Y-85755862D01*
X237398504Y-85748145D01*
X237396387Y-85744463D01*
X237391838Y-85726747D01*
X237393862Y-85706327D01*
X237402342Y-85685168D01*
X237407630Y-85674768D01*
X237409166Y-85668328D01*
X237406099Y-85666173D01*
X237397758Y-85668309D01*
X237383470Y-85674742D01*
X237362564Y-85685475D01*
X237350368Y-85692172D01*
X237326360Y-85706887D01*
X237300095Y-85725005D01*
X237270342Y-85747397D01*
X237235866Y-85774935D01*
X237213584Y-85793120D01*
X237201131Y-85781285D01*
X237195946Y-85776114D01*
X237183766Y-85759809D01*
X237178038Y-85742137D01*
X237177603Y-85720087D01*
X237178219Y-85709126D01*
X237178322Y-85699195D01*
X237177696Y-85695366D01*
X237176360Y-85696006D01*
X237169365Y-85700352D01*
X237157907Y-85707902D01*
X237143619Y-85717591D01*
X237129104Y-85728377D01*
X237107807Y-85746026D01*
X237084853Y-85766557D01*
X237062363Y-85787997D01*
X237042459Y-85808375D01*
X237027262Y-85825720D01*
X237023430Y-85830438D01*
X237017505Y-85836232D01*
X237012492Y-85836672D01*
X237005482Y-85832690D01*
X236998514Y-85827456D01*
X236986616Y-85812786D01*
X236979887Y-85793297D01*
X236977767Y-85767681D01*
X236977599Y-85754371D01*
X236976748Y-85744350D01*
X236974894Y-85740249D01*
X236971720Y-85740664D01*
X236967088Y-85743873D01*
X236955624Y-85753727D01*
X236940017Y-85768577D01*
X236921128Y-85787552D01*
X236899819Y-85809780D01*
X236876950Y-85834388D01*
X236853383Y-85860505D01*
X236852342Y-85861675D01*
X236834993Y-85880901D01*
X236819144Y-85897981D01*
X236805812Y-85911855D01*
X236796012Y-85921465D01*
X236790761Y-85925752D01*
X236786561Y-85927122D01*
X236779405Y-85925483D01*
X236772586Y-85917772D01*
X236765539Y-85903227D01*
X236757701Y-85881086D01*
X236746519Y-85846308D01*
X236713372Y-85884079D01*
X236695783Y-85904547D01*
X236643186Y-85971602D01*
X236597299Y-86039617D01*
X236558426Y-86108016D01*
X236526877Y-86176219D01*
X236502957Y-86243650D01*
X236486974Y-86309731D01*
X236484995Y-86320983D01*
X236480385Y-86354274D01*
X236478768Y-86383379D01*
X236198086Y-86383379D01*
X236197762Y-86370797D01*
X236197739Y-86369949D01*
X236196812Y-86341079D01*
X236195675Y-86318766D01*
X236194113Y-86301146D01*
X236191910Y-86286358D01*
X236188851Y-86272538D01*
X236184722Y-86257824D01*
X236180345Y-86243833D01*
X236170262Y-86214482D01*
X236158851Y-86184170D01*
X236147024Y-86155173D01*
X236135689Y-86129769D01*
X236125756Y-86110233D01*
X236122406Y-86104318D01*
X236091125Y-86051705D01*
X236058530Y-86001229D01*
X236025643Y-85954355D01*
X235993489Y-85912549D01*
X235963090Y-85877276D01*
X235951755Y-85865655D01*
X235941527Y-85857571D01*
X235934506Y-85856219D01*
X235929769Y-85861499D01*
X235926390Y-85873313D01*
X235923479Y-85884781D01*
X235917706Y-85900665D01*
X235910888Y-85914579D01*
X235904087Y-85924449D01*
X235898360Y-85928200D01*
X235895841Y-85927726D01*
X235891430Y-85925311D01*
X235885227Y-85920279D01*
X235876609Y-85911996D01*
X235864955Y-85899829D01*
X235849644Y-85883144D01*
X235830053Y-85861308D01*
X235805560Y-85833689D01*
X235788300Y-85814638D01*
X235770011Y-85795326D01*
X235752183Y-85777267D01*
X235735856Y-85761467D01*
X235722073Y-85748935D01*
X235711875Y-85740676D01*
X235706304Y-85737700D01*
X235705388Y-85740167D01*
X235705173Y-85749001D01*
X235706023Y-85762041D01*
X235706119Y-85763056D01*
X235706742Y-85779217D01*
X235704474Y-85791848D01*
X235698549Y-85805393D01*
X235695060Y-85811445D01*
X235686356Y-85823020D01*
X235678119Y-85830229D01*
X235677198Y-85830729D01*
X235672834Y-85832520D01*
X235668454Y-85832293D01*
X235662885Y-85829234D01*
X235654955Y-85822527D01*
X235643490Y-85811357D01*
X235627319Y-85794910D01*
X235612545Y-85780344D01*
X235594803Y-85763828D01*
X235576006Y-85747095D01*
X235557357Y-85731152D01*
X235540056Y-85717003D01*
X235525306Y-85705652D01*
X235514308Y-85698105D01*
X235508264Y-85695366D01*
X235506472Y-85698781D01*
X235505094Y-85708540D01*
X235504567Y-85722421D01*
X235504403Y-85732418D01*
X235502826Y-85745818D01*
X235498607Y-85756953D01*
X235490582Y-85769768D01*
X235484254Y-85778499D01*
X235476890Y-85787451D01*
X235472325Y-85791486D01*
X235470669Y-85791059D01*
X235463132Y-85786628D01*
X235450929Y-85778183D01*
X235435308Y-85766606D01*
X235417518Y-85752778D01*
X235403821Y-85742166D01*
X235381892Y-85726122D01*
X235359815Y-85710955D01*
X235338382Y-85697100D01*
X235318384Y-85684992D01*
X235300614Y-85675066D01*
X235285864Y-85667757D01*
X235274926Y-85663500D01*
X235268592Y-85662729D01*
X235267655Y-85665879D01*
X235272906Y-85673386D01*
X235273323Y-85673868D01*
X235283065Y-85688428D01*
X235290154Y-85704949D01*
X235292885Y-85719498D01*
X235290612Y-85730996D01*
X235284928Y-85743977D01*
X235277580Y-85755157D01*
X235270312Y-85761302D01*
X235269906Y-85761406D01*
X235263012Y-85759993D01*
X235251464Y-85755157D01*
X235237528Y-85747830D01*
X235222251Y-85739050D01*
X235205996Y-85729713D01*
X235193417Y-85722491D01*
X235186600Y-85718846D01*
X235169617Y-85711019D01*
X235148979Y-85702640D01*
X235126124Y-85694172D01*
X235102490Y-85686082D01*
X235079518Y-85678831D01*
X235058644Y-85672885D01*
X235041309Y-85668707D01*
X235028951Y-85666762D01*
X235023008Y-85667514D01*
X235024249Y-85671075D01*
X235030348Y-85678747D01*
X235039998Y-85688694D01*
X235050863Y-85699786D01*
X235064266Y-85717386D01*
X235070741Y-85733354D01*
X235070840Y-85748763D01*
X235070812Y-85748909D01*
X235066478Y-85760337D01*
X235058333Y-85765498D01*
X235055446Y-85765662D01*
X235044102Y-85764076D01*
X235026302Y-85760121D01*
X235003090Y-85754039D01*
X234975510Y-85746077D01*
X234958362Y-85741071D01*
X234930830Y-85733521D01*
X234904332Y-85726779D01*
X234881213Y-85721433D01*
X234863816Y-85718072D01*
X234855421Y-85716721D01*
X234838413Y-85713835D01*
X234825106Y-85711376D01*
X234817837Y-85709766D01*
X234817017Y-85709696D01*
X234817877Y-85712870D01*
X234823618Y-85720353D01*
X234833331Y-85730905D01*
X234844814Y-85743849D01*
X234854318Y-85757202D01*
X234859001Y-85767412D01*
X234859806Y-85774490D01*
X234858030Y-85788475D01*
X234852848Y-85800486D01*
X234845356Y-85807320D01*
X234840240Y-85807207D01*
X234828078Y-85805225D01*
X234810482Y-85801581D01*
X234788890Y-85796574D01*
X234764741Y-85790505D01*
X234737575Y-85783793D01*
X234686813Y-85773641D01*
X234641974Y-85768248D01*
X234602380Y-85767549D01*
X234567352Y-85771478D01*
X234538915Y-85776844D01*
X234571275Y-85810096D01*
X234582101Y-85821647D01*
X234592822Y-85834177D01*
X234599790Y-85843690D01*
X234601857Y-85848732D01*
X234599702Y-85851272D01*
X234593668Y-85853735D01*
X234583199Y-85855716D01*
X234567625Y-85857263D01*
X234546272Y-85858422D01*
X234518471Y-85859241D01*
X234483548Y-85859767D01*
X234440833Y-85860048D01*
X234327482Y-85860466D01*
X234353640Y-85899368D01*
X234366470Y-85919453D01*
X234381991Y-85946450D01*
X234396149Y-85973940D01*
X234408408Y-86000655D01*
X234418232Y-86025325D01*
X234425083Y-86046682D01*
X234428424Y-86063458D01*
X234427718Y-86074384D01*
X234426944Y-86075953D01*
X234424081Y-86078389D01*
X234418349Y-86079867D01*
X234408352Y-86080520D01*
X234392693Y-86080481D01*
X234369975Y-86079884D01*
X234365922Y-86079765D01*
X234346000Y-86079389D01*
X234329825Y-86079430D01*
X234318968Y-86079866D01*
X234315000Y-86080673D01*
X234146963Y-86080673D01*
X234145926Y-86067375D01*
X234148685Y-86045419D01*
X234156188Y-86021233D01*
X234168712Y-85992631D01*
X234189195Y-85949924D01*
X234180448Y-85931316D01*
X234176372Y-85921575D01*
X234168289Y-85892694D01*
X234164117Y-85861296D01*
X234164473Y-85831250D01*
X234166603Y-85817068D01*
X234177209Y-85784679D01*
X234194914Y-85756052D01*
X234218972Y-85732221D01*
X234248642Y-85714219D01*
X234259114Y-85710131D01*
X234280241Y-85704089D01*
X234304517Y-85698982D01*
X234329157Y-85695279D01*
X234351378Y-85693452D01*
X234368398Y-85693972D01*
X234375529Y-85694817D01*
X234383327Y-85694569D01*
X234390392Y-85691642D01*
X234398987Y-85684956D01*
X234411372Y-85673429D01*
X234416567Y-85668581D01*
X234442081Y-85647827D01*
X234468706Y-85631783D01*
X234498240Y-85619681D01*
X234532483Y-85610750D01*
X234573234Y-85604222D01*
X234592179Y-85602061D01*
X234614012Y-85600488D01*
X234631626Y-85600673D01*
X234647407Y-85602563D01*
X234672897Y-85606998D01*
X234691617Y-85589190D01*
X234699519Y-85582371D01*
X234716829Y-85570003D01*
X234733860Y-85560349D01*
X234741329Y-85556996D01*
X234750955Y-85553505D01*
X234761323Y-85551182D01*
X234774363Y-85549747D01*
X234792006Y-85548921D01*
X234816185Y-85548423D01*
X234839156Y-85547986D01*
X234856307Y-85547299D01*
X234868305Y-85546117D01*
X234876840Y-85544178D01*
X234883598Y-85541222D01*
X234890268Y-85536990D01*
X234893103Y-85535079D01*
X234919809Y-85520160D01*
X234949541Y-85507913D01*
X234977965Y-85500158D01*
X234991052Y-85498277D01*
X235011696Y-85497504D01*
X235035333Y-85499262D01*
X235063609Y-85503701D01*
X235098167Y-85510967D01*
X235142617Y-85521112D01*
X235164753Y-85508496D01*
X235174710Y-85502559D01*
X235184569Y-85496006D01*
X235189344Y-85491907D01*
X235189642Y-85491634D01*
X235195876Y-85490187D01*
X235208621Y-85489011D01*
X235226214Y-85488222D01*
X235246990Y-85487933D01*
X235248274Y-85487933D01*
X235270721Y-85488034D01*
X235286947Y-85488567D01*
X235299093Y-85489889D01*
X235309300Y-85492355D01*
X235319711Y-85496321D01*
X235332465Y-85502145D01*
X235335329Y-85503488D01*
X235358478Y-85514219D01*
X235376140Y-85521746D01*
X235390278Y-85526431D01*
X235402858Y-85528638D01*
X235415842Y-85528729D01*
X235431197Y-85527068D01*
X235450885Y-85524016D01*
X235476456Y-85520492D01*
X235498971Y-85519278D01*
X235519231Y-85521030D01*
X235539578Y-85526154D01*
X235562354Y-85535057D01*
X235589901Y-85548146D01*
X235633137Y-85569708D01*
X235696910Y-85570095D01*
X235713702Y-85570213D01*
X235733785Y-85570547D01*
X235748424Y-85571316D01*
X235759455Y-85572805D01*
X235768711Y-85575300D01*
X235778027Y-85579085D01*
X235789237Y-85584447D01*
X235797796Y-85588986D01*
X235816357Y-85601147D01*
X235837325Y-85617974D01*
X235862054Y-85640507D01*
X235906317Y-85682603D01*
X235983279Y-85677141D01*
X236019466Y-85701721D01*
X236021993Y-85703460D01*
X236046434Y-85721967D01*
X236073863Y-85745225D01*
X236102384Y-85771435D01*
X236130100Y-85798799D01*
X236155116Y-85825516D01*
X236175535Y-85849788D01*
X236196579Y-85877885D01*
X236245120Y-85952191D01*
X236288345Y-86032887D01*
X236326112Y-86119718D01*
X236330052Y-86129675D01*
X236337803Y-86148330D01*
X236344376Y-86162920D01*
X236349174Y-86172156D01*
X236351600Y-86174751D01*
X236353467Y-86171297D01*
X236357356Y-86161525D01*
X236361869Y-86148333D01*
X236365480Y-86137856D01*
X236374289Y-86115171D01*
X236385593Y-86088330D01*
X236398451Y-86059426D01*
X236411922Y-86030552D01*
X236425067Y-86003801D01*
X236436943Y-85981266D01*
X236473167Y-85921016D01*
X236518550Y-85857265D01*
X236567638Y-85799551D01*
X236619788Y-85748622D01*
X236674357Y-85705223D01*
X236711217Y-85679097D01*
X236742426Y-85681457D01*
X236743035Y-85681503D01*
X236760061Y-85682273D01*
X236775012Y-85682107D01*
X236784716Y-85681037D01*
X236791378Y-85677611D01*
X236802900Y-85669392D01*
X236817268Y-85657743D01*
X236832807Y-85643954D01*
X236840926Y-85636488D01*
X236867471Y-85613318D01*
X236890658Y-85595802D01*
X236912103Y-85583273D01*
X236933421Y-85575063D01*
X236956229Y-85570507D01*
X236982143Y-85568936D01*
X237012778Y-85569685D01*
X237063179Y-85572219D01*
X237108315Y-85548838D01*
X237119042Y-85543393D01*
X237147409Y-85530572D01*
X237172036Y-85522542D01*
X237195052Y-85518901D01*
X237218586Y-85519250D01*
X237244767Y-85523190D01*
X237249977Y-85524201D01*
X237267544Y-85527295D01*
X237282363Y-85529457D01*
X237291669Y-85530269D01*
X237297498Y-85529371D01*
X237310526Y-85525614D01*
X237327218Y-85519764D01*
X237345267Y-85512732D01*
X237362368Y-85505427D01*
X237376214Y-85498759D01*
X237384501Y-85493638D01*
X237384848Y-85493361D01*
X237391191Y-85490847D01*
X237402953Y-85489167D01*
X237421143Y-85488226D01*
X237446772Y-85487933D01*
X237502360Y-85487933D01*
X237528989Y-85504826D01*
X237530565Y-85505819D01*
X237544233Y-85513857D01*
X237555467Y-85519527D01*
X237561967Y-85521655D01*
X237567293Y-85520780D01*
X237578801Y-85517762D01*
X237592963Y-85513345D01*
X237613374Y-85507378D01*
X237650498Y-85500322D01*
X237686899Y-85497825D01*
X237719590Y-85500197D01*
X237750358Y-85507511D01*
X237782030Y-85519996D01*
X237808497Y-85535972D01*
X237814440Y-85540087D01*
X237820784Y-85543067D01*
X237829030Y-85545071D01*
X237840817Y-85546368D01*
X237857788Y-85547227D01*
X237881584Y-85547915D01*
X237897353Y-85548356D01*
X237917606Y-85549248D01*
X237932487Y-85550598D01*
X237943919Y-85552697D01*
X237953827Y-85555830D01*
X237964134Y-85560288D01*
X237974729Y-85565892D01*
X237992606Y-85577275D01*
X238008295Y-85589268D01*
X238012473Y-85592872D01*
X238022661Y-85601010D01*
X238030432Y-85604894D01*
X238038762Y-85605563D01*
X238050628Y-85604058D01*
X238059414Y-85602774D01*
X238070452Y-85601588D01*
X238081308Y-85601257D01*
X238094128Y-85601826D01*
X238111059Y-85603342D01*
X238134246Y-85605849D01*
X238135987Y-85606048D01*
X238182453Y-85614537D01*
X238223174Y-85628734D01*
X238258946Y-85648995D01*
X238290568Y-85675676D01*
X238296182Y-85681293D01*
X238305395Y-85689719D01*
X238312565Y-85693774D01*
X238320353Y-85694612D01*
X238331422Y-85693389D01*
X238339000Y-85692762D01*
X238360189Y-85693424D01*
X238384998Y-85696491D01*
X238410508Y-85701444D01*
X238433800Y-85707759D01*
X238451954Y-85714916D01*
X238452689Y-85715291D01*
X238480759Y-85733680D01*
X238504464Y-85757133D01*
X238521789Y-85783667D01*
X238526809Y-85794537D01*
X238530361Y-85804955D01*
X238532328Y-85816339D01*
X238533127Y-85831188D01*
X238533175Y-85851999D01*
X238533029Y-85863159D01*
X238532189Y-85882154D01*
X238530241Y-85896926D01*
X238526709Y-85910357D01*
X238521120Y-85925330D01*
X238509408Y-85954211D01*
X238524222Y-85978247D01*
X238525113Y-85979701D01*
X238541638Y-86012148D01*
X238550771Y-86043656D01*
X238552457Y-86075134D01*
X238551023Y-86083111D01*
X238546643Y-86107489D01*
X238533273Y-86141629D01*
X238512295Y-86178462D01*
X238496970Y-86202241D01*
X238504146Y-86226924D01*
X238506184Y-86234904D01*
X238509544Y-86267598D01*
X238505865Y-86300963D01*
X238495381Y-86332171D01*
X238491659Y-86339404D01*
X238482095Y-86355810D01*
X238470154Y-86374565D01*
X238457579Y-86392868D01*
X238430943Y-86429964D01*
X238429058Y-86479197D01*
X238428788Y-86485991D01*
X238427707Y-86506075D01*
X238426084Y-86520815D01*
X238423413Y-86532659D01*
X238419191Y-86544057D01*
X238412912Y-86557457D01*
X238402828Y-86575249D01*
X238387174Y-86596040D01*
X238365861Y-86618619D01*
X238333071Y-86650755D01*
X238328489Y-86684236D01*
X238322130Y-86714418D01*
X238310764Y-86744597D01*
X238304148Y-86756544D01*
X238286390Y-86781438D01*
X238263513Y-86807150D01*
X238237203Y-86831867D01*
X238209149Y-86853775D01*
X238201978Y-86858863D01*
X238188149Y-86869019D01*
X238177604Y-86877223D01*
X238172195Y-86882060D01*
X238168750Y-86888506D01*
X238163941Y-86900591D01*
X238158916Y-86915529D01*
X238156593Y-86922640D01*
X238140319Y-86958452D01*
X238117720Y-86989430D01*
X238088457Y-87015893D01*
X238052192Y-87038158D01*
X238008584Y-87056544D01*
X237992152Y-87062544D01*
X237976609Y-87069389D01*
X237966676Y-87075982D01*
X237960875Y-87083370D01*
X237957733Y-87092599D01*
X237953167Y-87104828D01*
X237944098Y-87121264D01*
X237932479Y-87138510D01*
X237920112Y-87153906D01*
X237908802Y-87164791D01*
X237890541Y-87176896D01*
X237858028Y-87193160D01*
X237818084Y-87208259D01*
X237797877Y-87215258D01*
X237782378Y-87221472D01*
X237774453Y-87226003D01*
X237773756Y-87229012D01*
X237774022Y-87229208D01*
X237779395Y-87232591D01*
X237789796Y-87238874D01*
X237803267Y-87246872D01*
X237817149Y-87255372D01*
X237836002Y-87267391D01*
X237856902Y-87281065D01*
X237877351Y-87294778D01*
X237912608Y-87319576D01*
X237982753Y-87374632D01*
X238045134Y-87432244D01*
X238100092Y-87492895D01*
X238147967Y-87557066D01*
X238189099Y-87625240D01*
X238223830Y-87697899D01*
X238252499Y-87775525D01*
X238275447Y-87858600D01*
X238276641Y-87863701D01*
X238282720Y-87890802D01*
X238287370Y-87914397D01*
X238290927Y-87936878D01*
X238293729Y-87960640D01*
X238296113Y-87988077D01*
X238298416Y-88021583D01*
X238299701Y-88040380D01*
X238302214Y-88071974D01*
X238302393Y-88073901D01*
X238305049Y-88102613D01*
X238308015Y-88130423D01*
G36*
X179753909Y-89424545D02*
G01*
X179453728Y-89424545D01*
X179453728Y-89286000D01*
X179753909Y-89286000D01*
X179753909Y-89424545D01*
G37*
X179753909Y-89424545D02*
X179453728Y-89424545D01*
X179453728Y-89286000D01*
X179753909Y-89286000D01*
X179753909Y-89424545D01*
G36*
X176729000Y-90579091D02*
G01*
X176729000Y-90001818D01*
X176867546Y-90001818D01*
X176867546Y-90440545D01*
X179892455Y-90440545D01*
X179892455Y-90001818D01*
X176867546Y-90001818D01*
X176729000Y-90001818D01*
X176729000Y-89863273D01*
X180031000Y-89863273D01*
X180031000Y-86261091D01*
X179961728Y-86261091D01*
X179925166Y-86258969D01*
X179898176Y-86240884D01*
X179892455Y-86191818D01*
X179892455Y-86122545D01*
X176867546Y-86122545D01*
X176867546Y-86191818D01*
X176865424Y-86228380D01*
X176847339Y-86255369D01*
X176798273Y-86261091D01*
X176729000Y-86261091D01*
X176729000Y-89863273D01*
X176567364Y-89863273D01*
X176567364Y-86261091D01*
X176648182Y-86261091D01*
X176701643Y-86257449D01*
X176724495Y-86238360D01*
X176729000Y-86191818D01*
X176731123Y-86155256D01*
X176749207Y-86128267D01*
X176798273Y-86122545D01*
X176844097Y-86118297D01*
X176863684Y-86096026D01*
X176867546Y-86041727D01*
X176867546Y-85960909D01*
X179892455Y-85960909D01*
X179892455Y-86041727D01*
X179896096Y-86095188D01*
X179915186Y-86118040D01*
X179961728Y-86122545D01*
X179998289Y-86124668D01*
X180025279Y-86142752D01*
X180031000Y-86191818D01*
X180035249Y-86237642D01*
X180057520Y-86257229D01*
X180111818Y-86261091D01*
X180192637Y-86261091D01*
X180192637Y-89863273D01*
X180031000Y-89863273D01*
X180031000Y-90579091D01*
X176729000Y-90579091D01*
G37*
X176729000Y-90579091D02*
X176729000Y-90001818D01*
X176867546Y-90001818D01*
X176867546Y-90440545D01*
X179892455Y-90440545D01*
X179892455Y-90001818D01*
X176867546Y-90001818D01*
X176729000Y-90001818D01*
X176729000Y-89863273D01*
X180031000Y-89863273D01*
X180031000Y-86261091D01*
X179961728Y-86261091D01*
X179925166Y-86258969D01*
X179898176Y-86240884D01*
X179892455Y-86191818D01*
X179892455Y-86122545D01*
X176867546Y-86122545D01*
X176867546Y-86191818D01*
X176865424Y-86228380D01*
X176847339Y-86255369D01*
X176798273Y-86261091D01*
X176729000Y-86261091D01*
X176729000Y-89863273D01*
X176567364Y-89863273D01*
X176567364Y-86261091D01*
X176648182Y-86261091D01*
X176701643Y-86257449D01*
X176724495Y-86238360D01*
X176729000Y-86191818D01*
X176731123Y-86155256D01*
X176749207Y-86128267D01*
X176798273Y-86122545D01*
X176844097Y-86118297D01*
X176863684Y-86096026D01*
X176867546Y-86041727D01*
X176867546Y-85960909D01*
X179892455Y-85960909D01*
X179892455Y-86041727D01*
X179896096Y-86095188D01*
X179915186Y-86118040D01*
X179961728Y-86122545D01*
X179998289Y-86124668D01*
X180025279Y-86142752D01*
X180031000Y-86191818D01*
X180035249Y-86237642D01*
X180057520Y-86257229D01*
X180111818Y-86261091D01*
X180192637Y-86261091D01*
X180192637Y-89863273D01*
X180031000Y-89863273D01*
X180031000Y-90579091D01*
X176729000Y-90579091D01*
G36*
X179038091Y-87277091D02*
G01*
X178876455Y-87277091D01*
X178876455Y-86976909D01*
X179038091Y-86976909D01*
X179038091Y-87277091D01*
G37*
X179038091Y-87277091D02*
X178876455Y-87277091D01*
X178876455Y-86976909D01*
X179038091Y-86976909D01*
X179038091Y-87277091D01*
G36*
X178022091Y-87277091D02*
G01*
X177883546Y-87277091D01*
X177883546Y-86976909D01*
X178022091Y-86976909D01*
X178022091Y-87277091D01*
G37*
X178022091Y-87277091D02*
X177883546Y-87277091D01*
X177883546Y-86976909D01*
X178022091Y-86976909D01*
X178022091Y-87277091D01*
G36*
X178460818Y-87554182D02*
G01*
X178530091Y-87554182D01*
X178566653Y-87556304D01*
X178593642Y-87574389D01*
X178599364Y-87623455D01*
X178599364Y-87692727D01*
X178299182Y-87692727D01*
X178299182Y-86976909D01*
X178460818Y-86976909D01*
X178460818Y-87554182D01*
G37*
X178460818Y-87554182D02*
X178530091Y-87554182D01*
X178566653Y-87556304D01*
X178593642Y-87574389D01*
X178599364Y-87623455D01*
X178599364Y-87692727D01*
X178299182Y-87692727D01*
X178299182Y-86976909D01*
X178460818Y-86976909D01*
X178460818Y-87554182D01*
G36*
X178843744Y-87856486D02*
G01*
X178870733Y-87874570D01*
X178876455Y-87923636D01*
X178874333Y-87960198D01*
X178856248Y-87987187D01*
X178807182Y-87992909D01*
X178770620Y-87995031D01*
X178743631Y-88013116D01*
X178737909Y-88062182D01*
X178737909Y-88131455D01*
X178160637Y-88131455D01*
X178160637Y-88062182D01*
X178158514Y-88025620D01*
X178140430Y-87998631D01*
X178091364Y-87992909D01*
X178054802Y-87990787D01*
X178027813Y-87972702D01*
X178022091Y-87923636D01*
X178024213Y-87887074D01*
X178042298Y-87860085D01*
X178091364Y-87854364D01*
X178127926Y-87856486D01*
X178154915Y-87874570D01*
X178160637Y-87923636D01*
X178160637Y-87992909D01*
X178737909Y-87992909D01*
X178737909Y-87923636D01*
X178740032Y-87887074D01*
X178758116Y-87860085D01*
X178807182Y-87854364D01*
X178843744Y-87856486D01*
G37*
X178843744Y-87856486D02*
X178870733Y-87874570D01*
X178876455Y-87923636D01*
X178874333Y-87960198D01*
X178856248Y-87987187D01*
X178807182Y-87992909D01*
X178770620Y-87995031D01*
X178743631Y-88013116D01*
X178737909Y-88062182D01*
X178737909Y-88131455D01*
X178160637Y-88131455D01*
X178160637Y-88062182D01*
X178158514Y-88025620D01*
X178140430Y-87998631D01*
X178091364Y-87992909D01*
X178054802Y-87990787D01*
X178027813Y-87972702D01*
X178022091Y-87923636D01*
X178024213Y-87887074D01*
X178042298Y-87860085D01*
X178091364Y-87854364D01*
X178127926Y-87856486D01*
X178154915Y-87874570D01*
X178160637Y-87923636D01*
X178160637Y-87992909D01*
X178737909Y-87992909D01*
X178737909Y-87923636D01*
X178740032Y-87887074D01*
X178758116Y-87860085D01*
X178807182Y-87854364D01*
X178843744Y-87856486D01*
G36*
X179753909Y-88431636D02*
G01*
X179684637Y-88431636D01*
X179648075Y-88433759D01*
X179621086Y-88451843D01*
X179615364Y-88500909D01*
X179615364Y-88570182D01*
X177144637Y-88570182D01*
X177144637Y-88500909D01*
X177142514Y-88464347D01*
X177124430Y-88437358D01*
X177075364Y-88431636D01*
X177006091Y-88431636D01*
X177006091Y-86538182D01*
X177075364Y-86538182D01*
X177144637Y-86538182D01*
X177144637Y-88431636D01*
X179615364Y-88431636D01*
X179615364Y-86538182D01*
X177144637Y-86538182D01*
X177075364Y-86538182D01*
X177111926Y-86536060D01*
X177138915Y-86517975D01*
X177144637Y-86468909D01*
X177144637Y-86399636D01*
X179615364Y-86399636D01*
X179615364Y-86468909D01*
X179617486Y-86505471D01*
X179635571Y-86532460D01*
X179684637Y-86538182D01*
X179753909Y-86538182D01*
X179753909Y-88431636D01*
G37*
X179753909Y-88431636D02*
X179684637Y-88431636D01*
X179648075Y-88433759D01*
X179621086Y-88451843D01*
X179615364Y-88500909D01*
X179615364Y-88570182D01*
X177144637Y-88570182D01*
X177144637Y-88500909D01*
X177142514Y-88464347D01*
X177124430Y-88437358D01*
X177075364Y-88431636D01*
X177006091Y-88431636D01*
X177006091Y-86538182D01*
X177075364Y-86538182D01*
X177144637Y-86538182D01*
X177144637Y-88431636D01*
X179615364Y-88431636D01*
X179615364Y-86538182D01*
X177144637Y-86538182D01*
X177075364Y-86538182D01*
X177111926Y-86536060D01*
X177138915Y-86517975D01*
X177144637Y-86468909D01*
X177144637Y-86399636D01*
X179615364Y-86399636D01*
X179615364Y-86468909D01*
X179617486Y-86505471D01*
X179635571Y-86532460D01*
X179684637Y-86538182D01*
X179753909Y-86538182D01*
X179753909Y-88431636D01*
G36*
X178022091Y-89286000D02*
G01*
X177144637Y-89286000D01*
X177144637Y-89147455D01*
X178022091Y-89147455D01*
X178022091Y-89286000D01*
G37*
X178022091Y-89286000D02*
X177144637Y-89286000D01*
X177144637Y-89147455D01*
X178022091Y-89147455D01*
X178022091Y-89286000D01*
%LPC*%
D14*
X176466500Y-82994500D03*
D15*
X176466500Y-80454500D03*
X179006500Y-82994500D03*
X179006500Y-80454500D03*
X181546500Y-82994500D03*
X181546500Y-80454500D03*
X184086500Y-82994500D03*
X184086500Y-80454500D03*
X186626500Y-82994500D03*
X186626500Y-80454500D03*
X189166500Y-82994500D03*
X189166500Y-80454500D03*
X191706500Y-82994500D03*
X191706500Y-80454500D03*
X194246500Y-82994500D03*
X194246500Y-80454500D03*
X196786500Y-82994500D03*
X196786500Y-80454500D03*
X199326500Y-82994500D03*
X199326500Y-80454500D03*
X201866500Y-82994500D03*
X201866500Y-80454500D03*
X204406500Y-82994500D03*
X204406500Y-80454500D03*
X206946500Y-82994500D03*
X206946500Y-80454500D03*
X209486500Y-82994500D03*
X209486500Y-80454500D03*
X212026500Y-82994500D03*
X212026500Y-80454500D03*
X214566500Y-82994500D03*
X214566500Y-80454500D03*
X217106500Y-82994500D03*
X217106500Y-80454500D03*
X219646500Y-82994500D03*
X219646500Y-80454500D03*
X222186500Y-82994500D03*
X222186500Y-80454500D03*
X224726500Y-82994500D03*
X224726500Y-80454500D03*
X227266500Y-82994500D03*
X227266500Y-80454500D03*
X229806500Y-82994500D03*
X229806500Y-80454500D03*
X232346500Y-82994500D03*
X232346500Y-80454500D03*
X234886500Y-82994500D03*
X234886500Y-80454500D03*
X237426500Y-82994500D03*
X237426500Y-80454500D03*
D16*
X178000000Y-95000000D03*
X236000000Y-95000000D03*
D17*
X223620000Y-87630000D03*
X220850000Y-87630000D03*
X218080000Y-87630000D03*
X215310000Y-87630000D03*
X212540000Y-87630000D03*
X209770000Y-87630000D03*
X207000000Y-87630000D03*
X204230000Y-87630000D03*
X201460000Y-87630000D03*
X198690000Y-87630000D03*
X195920000Y-87630000D03*
X193150000Y-87630000D03*
X190380000Y-87630000D03*
X222235000Y-90470000D03*
X219465000Y-90470000D03*
X216695000Y-90470000D03*
X213925000Y-90470000D03*
X211155000Y-90470000D03*
X208385000Y-90470000D03*
X205615000Y-90470000D03*
X202845000Y-90470000D03*
X200075000Y-90470000D03*
X197305000Y-90470000D03*
X194535000Y-90470000D03*
X191765000Y-90470000D03*
D18*
X230520000Y-89050000D03*
X183480000Y-89050000D03*
M02*
