G04 #@! TF.GenerationSoftware,KiCad,Pcbnew,(6.0.4)*
G04 #@! TF.CreationDate,2022-12-13T21:39:52-06:00*
G04 #@! TF.ProjectId,daisy_chain_board,64616973-795f-4636-9861-696e5f626f61,rev?*
G04 #@! TF.SameCoordinates,Original*
G04 #@! TF.FileFunction,Legend,Top*
G04 #@! TF.FilePolarity,Positive*
%FSLAX46Y46*%
G04 Gerber Fmt 4.6, Leading zero omitted, Abs format (unit mm)*
G04 Created by KiCad (PCBNEW (6.0.4)) date 2022-12-13 21:39:52*
%MOMM*%
%LPD*%
G01*
G04 APERTURE LIST*
G04 Aperture macros list*
%AMRoundRect*
0 Rectangle with rounded corners*
0 $1 Rounding radius*
0 $2 $3 $4 $5 $6 $7 $8 $9 X,Y pos of 4 corners*
0 Add a 4 corners polygon primitive as box body*
4,1,4,$2,$3,$4,$5,$6,$7,$8,$9,$2,$3,0*
0 Add four circle primitives for the rounded corners*
1,1,$1+$1,$2,$3*
1,1,$1+$1,$4,$5*
1,1,$1+$1,$6,$7*
1,1,$1+$1,$8,$9*
0 Add four rect primitives between the rounded corners*
20,1,$1+$1,$2,$3,$4,$5,0*
20,1,$1+$1,$4,$5,$6,$7,0*
20,1,$1+$1,$6,$7,$8,$9,0*
20,1,$1+$1,$8,$9,$2,$3,0*%
G04 Aperture macros list end*
%ADD10C,0.120000*%
%ADD11C,0.150000*%
%ADD12C,0.200000*%
%ADD13C,0.500000*%
%ADD14C,0.254000*%
%ADD15C,0.010000*%
%ADD16RoundRect,0.050000X0.850000X-0.850000X0.850000X0.850000X-0.850000X0.850000X-0.850000X-0.850000X0*%
%ADD17O,1.800000X1.800000*%
%ADD18C,2.800000*%
%ADD19C,1.645000*%
%ADD20C,4.945000*%
G04 APERTURE END LIST*
D10*
X222377000Y-88900000D02*
X222377000Y-86800000D01*
X225044000Y-86800000D02*
X225044000Y-88900000D01*
X224917000Y-86800000D02*
X224917000Y-88773000D01*
X222504000Y-88773000D02*
X222504000Y-86800000D01*
X224917000Y-88773000D02*
X222504000Y-88773000D01*
X225044000Y-88900000D02*
X222377000Y-88900000D01*
D11*
X192976190Y-96152380D02*
X192976190Y-95152380D01*
X193404761Y-96152380D02*
X193404761Y-95628571D01*
X193357142Y-95533333D01*
X193261904Y-95485714D01*
X193119047Y-95485714D01*
X193023809Y-95533333D01*
X192976190Y-95580952D01*
X193738095Y-95485714D02*
X194119047Y-95485714D01*
X193880952Y-95152380D02*
X193880952Y-96009523D01*
X193928571Y-96104761D01*
X194023809Y-96152380D01*
X194119047Y-96152380D01*
X194309523Y-95485714D02*
X194690476Y-95485714D01*
X194452380Y-95152380D02*
X194452380Y-96009523D01*
X194500000Y-96104761D01*
X194595238Y-96152380D01*
X194690476Y-96152380D01*
X195023809Y-95485714D02*
X195023809Y-96485714D01*
X195023809Y-95533333D02*
X195119047Y-95485714D01*
X195309523Y-95485714D01*
X195404761Y-95533333D01*
X195452380Y-95580952D01*
X195500000Y-95676190D01*
X195500000Y-95961904D01*
X195452380Y-96057142D01*
X195404761Y-96104761D01*
X195309523Y-96152380D01*
X195119047Y-96152380D01*
X195023809Y-96104761D01*
X195880952Y-96104761D02*
X195976190Y-96152380D01*
X196166666Y-96152380D01*
X196261904Y-96104761D01*
X196309523Y-96009523D01*
X196309523Y-95961904D01*
X196261904Y-95866666D01*
X196166666Y-95819047D01*
X196023809Y-95819047D01*
X195928571Y-95771428D01*
X195880952Y-95676190D01*
X195880952Y-95628571D01*
X195928571Y-95533333D01*
X196023809Y-95485714D01*
X196166666Y-95485714D01*
X196261904Y-95533333D01*
X196738095Y-96057142D02*
X196785714Y-96104761D01*
X196738095Y-96152380D01*
X196690476Y-96104761D01*
X196738095Y-96057142D01*
X196738095Y-96152380D01*
X196738095Y-95533333D02*
X196785714Y-95580952D01*
X196738095Y-95628571D01*
X196690476Y-95580952D01*
X196738095Y-95533333D01*
X196738095Y-95628571D01*
X197928571Y-95104761D02*
X197071428Y-96390476D01*
X198976190Y-95104761D02*
X198119047Y-96390476D01*
X199738095Y-95485714D02*
X199738095Y-96295238D01*
X199690476Y-96390476D01*
X199642857Y-96438095D01*
X199547619Y-96485714D01*
X199404761Y-96485714D01*
X199309523Y-96438095D01*
X199738095Y-96104761D02*
X199642857Y-96152380D01*
X199452380Y-96152380D01*
X199357142Y-96104761D01*
X199309523Y-96057142D01*
X199261904Y-95961904D01*
X199261904Y-95676190D01*
X199309523Y-95580952D01*
X199357142Y-95533333D01*
X199452380Y-95485714D01*
X199642857Y-95485714D01*
X199738095Y-95533333D01*
X200214285Y-96152380D02*
X200214285Y-95485714D01*
X200214285Y-95152380D02*
X200166666Y-95200000D01*
X200214285Y-95247619D01*
X200261904Y-95200000D01*
X200214285Y-95152380D01*
X200214285Y-95247619D01*
X200547619Y-95485714D02*
X200928571Y-95485714D01*
X200690476Y-95152380D02*
X200690476Y-96009523D01*
X200738095Y-96104761D01*
X200833333Y-96152380D01*
X200928571Y-96152380D01*
X201261904Y-96152380D02*
X201261904Y-95152380D01*
X201690476Y-96152380D02*
X201690476Y-95628571D01*
X201642857Y-95533333D01*
X201547619Y-95485714D01*
X201404761Y-95485714D01*
X201309523Y-95533333D01*
X201261904Y-95580952D01*
X202595238Y-95485714D02*
X202595238Y-96152380D01*
X202166666Y-95485714D02*
X202166666Y-96009523D01*
X202214285Y-96104761D01*
X202309523Y-96152380D01*
X202452380Y-96152380D01*
X202547619Y-96104761D01*
X202595238Y-96057142D01*
X203071428Y-96152380D02*
X203071428Y-95152380D01*
X203071428Y-95533333D02*
X203166666Y-95485714D01*
X203357142Y-95485714D01*
X203452380Y-95533333D01*
X203500000Y-95580952D01*
X203547619Y-95676190D01*
X203547619Y-95961904D01*
X203500000Y-96057142D01*
X203452380Y-96104761D01*
X203357142Y-96152380D01*
X203166666Y-96152380D01*
X203071428Y-96104761D01*
X203976190Y-96057142D02*
X204023809Y-96104761D01*
X203976190Y-96152380D01*
X203928571Y-96104761D01*
X203976190Y-96057142D01*
X203976190Y-96152380D01*
X204880952Y-96104761D02*
X204785714Y-96152380D01*
X204595238Y-96152380D01*
X204500000Y-96104761D01*
X204452380Y-96057142D01*
X204404761Y-95961904D01*
X204404761Y-95676190D01*
X204452380Y-95580952D01*
X204500000Y-95533333D01*
X204595238Y-95485714D01*
X204785714Y-95485714D01*
X204880952Y-95533333D01*
X205452380Y-96152380D02*
X205357142Y-96104761D01*
X205309523Y-96057142D01*
X205261904Y-95961904D01*
X205261904Y-95676190D01*
X205309523Y-95580952D01*
X205357142Y-95533333D01*
X205452380Y-95485714D01*
X205595238Y-95485714D01*
X205690476Y-95533333D01*
X205738095Y-95580952D01*
X205785714Y-95676190D01*
X205785714Y-95961904D01*
X205738095Y-96057142D01*
X205690476Y-96104761D01*
X205595238Y-96152380D01*
X205452380Y-96152380D01*
X206214285Y-96152380D02*
X206214285Y-95485714D01*
X206214285Y-95580952D02*
X206261904Y-95533333D01*
X206357142Y-95485714D01*
X206500000Y-95485714D01*
X206595238Y-95533333D01*
X206642857Y-95628571D01*
X206642857Y-96152380D01*
X206642857Y-95628571D02*
X206690476Y-95533333D01*
X206785714Y-95485714D01*
X206928571Y-95485714D01*
X207023809Y-95533333D01*
X207071428Y-95628571D01*
X207071428Y-96152380D01*
X208261904Y-95104761D02*
X207404761Y-96390476D01*
X208595238Y-95485714D02*
X208595238Y-96485714D01*
X208595238Y-95533333D02*
X208690476Y-95485714D01*
X208880952Y-95485714D01*
X208976190Y-95533333D01*
X209023809Y-95580952D01*
X209071428Y-95676190D01*
X209071428Y-95961904D01*
X209023809Y-96057142D01*
X208976190Y-96104761D01*
X208880952Y-96152380D01*
X208690476Y-96152380D01*
X208595238Y-96104761D01*
X209500000Y-96152380D02*
X209500000Y-95485714D01*
X209500000Y-95152380D02*
X209452380Y-95200000D01*
X209500000Y-95247619D01*
X209547619Y-95200000D01*
X209500000Y-95152380D01*
X209500000Y-95247619D01*
X209928571Y-96104761D02*
X210023809Y-96152380D01*
X210214285Y-96152380D01*
X210309523Y-96104761D01*
X210357142Y-96009523D01*
X210357142Y-95961904D01*
X210309523Y-95866666D01*
X210214285Y-95819047D01*
X210071428Y-95819047D01*
X209976190Y-95771428D01*
X209928571Y-95676190D01*
X209928571Y-95628571D01*
X209976190Y-95533333D01*
X210071428Y-95485714D01*
X210214285Y-95485714D01*
X210309523Y-95533333D01*
X211214285Y-96104761D02*
X211119047Y-96152380D01*
X210928571Y-96152380D01*
X210833333Y-96104761D01*
X210785714Y-96057142D01*
X210738095Y-95961904D01*
X210738095Y-95676190D01*
X210785714Y-95580952D01*
X210833333Y-95533333D01*
X210928571Y-95485714D01*
X211119047Y-95485714D01*
X211214285Y-95533333D01*
X211595238Y-96104761D02*
X211690476Y-96152380D01*
X211880952Y-96152380D01*
X211976190Y-96104761D01*
X212023809Y-96009523D01*
X212023809Y-95961904D01*
X211976190Y-95866666D01*
X211880952Y-95819047D01*
X211738095Y-95819047D01*
X211642857Y-95771428D01*
X211595238Y-95676190D01*
X211595238Y-95628571D01*
X211642857Y-95533333D01*
X211738095Y-95485714D01*
X211880952Y-95485714D01*
X211976190Y-95533333D01*
X212452380Y-96152380D02*
X212452380Y-95485714D01*
X212452380Y-95152380D02*
X212404761Y-95200000D01*
X212452380Y-95247619D01*
X212500000Y-95200000D01*
X212452380Y-95152380D01*
X212452380Y-95247619D01*
X213642857Y-95104761D02*
X212785714Y-96390476D01*
X213976190Y-95485714D02*
X213976190Y-96485714D01*
X213976190Y-95533333D02*
X214071428Y-95485714D01*
X214261904Y-95485714D01*
X214357142Y-95533333D01*
X214404761Y-95580952D01*
X214452380Y-95676190D01*
X214452380Y-95961904D01*
X214404761Y-96057142D01*
X214357142Y-96104761D01*
X214261904Y-96152380D01*
X214071428Y-96152380D01*
X213976190Y-96104761D01*
X214880952Y-96152380D02*
X214880952Y-95485714D01*
X214880952Y-95152380D02*
X214833333Y-95200000D01*
X214880952Y-95247619D01*
X214928571Y-95200000D01*
X214880952Y-95152380D01*
X214880952Y-95247619D01*
X215309523Y-96104761D02*
X215404761Y-96152380D01*
X215595238Y-96152380D01*
X215690476Y-96104761D01*
X215738095Y-96009523D01*
X215738095Y-95961904D01*
X215690476Y-95866666D01*
X215595238Y-95819047D01*
X215452380Y-95819047D01*
X215357142Y-95771428D01*
X215309523Y-95676190D01*
X215309523Y-95628571D01*
X215357142Y-95533333D01*
X215452380Y-95485714D01*
X215595238Y-95485714D01*
X215690476Y-95533333D01*
X216595238Y-96104761D02*
X216500000Y-96152380D01*
X216309523Y-96152380D01*
X216214285Y-96104761D01*
X216166666Y-96057142D01*
X216119047Y-95961904D01*
X216119047Y-95676190D01*
X216166666Y-95580952D01*
X216214285Y-95533333D01*
X216309523Y-95485714D01*
X216500000Y-95485714D01*
X216595238Y-95533333D01*
X216976190Y-96104761D02*
X217071428Y-96152380D01*
X217261904Y-96152380D01*
X217357142Y-96104761D01*
X217404761Y-96009523D01*
X217404761Y-95961904D01*
X217357142Y-95866666D01*
X217261904Y-95819047D01*
X217119047Y-95819047D01*
X217023809Y-95771428D01*
X216976190Y-95676190D01*
X216976190Y-95628571D01*
X217023809Y-95533333D01*
X217119047Y-95485714D01*
X217261904Y-95485714D01*
X217357142Y-95533333D01*
X217833333Y-96152380D02*
X217833333Y-95485714D01*
X217833333Y-95152380D02*
X217785714Y-95200000D01*
X217833333Y-95247619D01*
X217880952Y-95200000D01*
X217833333Y-95152380D01*
X217833333Y-95247619D01*
X218309523Y-95771428D02*
X219071428Y-95771428D01*
X219547619Y-96152380D02*
X219547619Y-95152380D01*
X219976190Y-96152380D02*
X219976190Y-95628571D01*
X219928571Y-95533333D01*
X219833333Y-95485714D01*
X219690476Y-95485714D01*
X219595238Y-95533333D01*
X219547619Y-95580952D01*
X220357142Y-95485714D02*
X220547619Y-96152380D01*
X220738095Y-95676190D01*
X220928571Y-96152380D01*
X221119047Y-95485714D01*
X188596981Y-79352380D02*
X188596981Y-78352380D01*
X188787458Y-78352380D01*
X188901743Y-78400000D01*
X188977934Y-78495238D01*
X189016029Y-78590476D01*
X189054124Y-78780952D01*
X189054124Y-78923809D01*
X189016029Y-79114285D01*
X188977934Y-79209523D01*
X188901743Y-79304761D01*
X188787458Y-79352380D01*
X188596981Y-79352380D01*
X189777934Y-78352380D02*
X189396981Y-78352380D01*
X189358886Y-78828571D01*
X189396981Y-78780952D01*
X189473172Y-78733333D01*
X189663648Y-78733333D01*
X189739838Y-78780952D01*
X189777934Y-78828571D01*
X189816029Y-78923809D01*
X189816029Y-79161904D01*
X189777934Y-79257142D01*
X189739838Y-79304761D01*
X189663648Y-79352380D01*
X189473172Y-79352380D01*
X189396981Y-79304761D01*
X189358886Y-79257142D01*
X178541757Y-79352380D02*
X178541757Y-78352380D01*
X178732234Y-78352380D01*
X178846519Y-78400000D01*
X178922710Y-78495238D01*
X178960805Y-78590476D01*
X178998900Y-78780952D01*
X178998900Y-78923809D01*
X178960805Y-79114285D01*
X178922710Y-79209523D01*
X178846519Y-79304761D01*
X178732234Y-79352380D01*
X178541757Y-79352380D01*
X179760805Y-79352380D02*
X179303662Y-79352380D01*
X179532234Y-79352380D02*
X179532234Y-78352380D01*
X179456043Y-78495238D01*
X179379853Y-78590476D01*
X179303662Y-78638095D01*
X211584023Y-86256666D02*
X211964976Y-86256666D01*
X211507833Y-86542380D02*
X211774500Y-85542380D01*
X212041166Y-86542380D01*
X212764976Y-86447142D02*
X212726880Y-86494761D01*
X212612595Y-86542380D01*
X212536404Y-86542380D01*
X212422119Y-86494761D01*
X212345928Y-86399523D01*
X212307833Y-86304285D01*
X212269738Y-86113809D01*
X212269738Y-85970952D01*
X212307833Y-85780476D01*
X212345928Y-85685238D01*
X212422119Y-85590000D01*
X212536404Y-85542380D01*
X212612595Y-85542380D01*
X212726880Y-85590000D01*
X212764976Y-85637619D01*
X213107833Y-86542380D02*
X213107833Y-85542380D01*
X213564976Y-86542380D02*
X213222119Y-85970952D01*
X213564976Y-85542380D02*
X213107833Y-86113809D01*
X204852976Y-92511380D02*
X204852976Y-91511380D01*
X205043452Y-91511380D01*
X205157738Y-91559000D01*
X205233928Y-91654238D01*
X205272023Y-91749476D01*
X205310119Y-91939952D01*
X205310119Y-92082809D01*
X205272023Y-92273285D01*
X205233928Y-92368523D01*
X205157738Y-92463761D01*
X205043452Y-92511380D01*
X204852976Y-92511380D01*
X205652976Y-92511380D02*
X205652976Y-91511380D01*
X205957738Y-91511380D01*
X206033928Y-91559000D01*
X206072023Y-91606619D01*
X206110119Y-91701857D01*
X206110119Y-91844714D01*
X206072023Y-91939952D01*
X206033928Y-91987571D01*
X205957738Y-92035190D01*
X205652976Y-92035190D01*
X199474523Y-92511380D02*
X199474523Y-91511380D01*
X199665000Y-91511380D01*
X199779285Y-91559000D01*
X199855476Y-91654238D01*
X199893571Y-91749476D01*
X199931666Y-91939952D01*
X199931666Y-92082809D01*
X199893571Y-92273285D01*
X199855476Y-92368523D01*
X199779285Y-92463761D01*
X199665000Y-92511380D01*
X199474523Y-92511380D01*
X200236428Y-91606619D02*
X200274523Y-91559000D01*
X200350714Y-91511380D01*
X200541190Y-91511380D01*
X200617380Y-91559000D01*
X200655476Y-91606619D01*
X200693571Y-91701857D01*
X200693571Y-91797095D01*
X200655476Y-91939952D01*
X200198333Y-92511380D01*
X200693571Y-92511380D01*
X192489523Y-86542380D02*
X192489523Y-85542380D01*
X192680000Y-85542380D01*
X192794285Y-85590000D01*
X192870476Y-85685238D01*
X192908571Y-85780476D01*
X192946666Y-85970952D01*
X192946666Y-86113809D01*
X192908571Y-86304285D01*
X192870476Y-86399523D01*
X192794285Y-86494761D01*
X192680000Y-86542380D01*
X192489523Y-86542380D01*
X193632380Y-85542380D02*
X193480000Y-85542380D01*
X193403809Y-85590000D01*
X193365714Y-85637619D01*
X193289523Y-85780476D01*
X193251428Y-85970952D01*
X193251428Y-86351904D01*
X193289523Y-86447142D01*
X193327619Y-86494761D01*
X193403809Y-86542380D01*
X193556190Y-86542380D01*
X193632380Y-86494761D01*
X193670476Y-86447142D01*
X193708571Y-86351904D01*
X193708571Y-86113809D01*
X193670476Y-86018571D01*
X193632380Y-85970952D01*
X193556190Y-85923333D01*
X193403809Y-85923333D01*
X193327619Y-85970952D01*
X193289523Y-86018571D01*
X193251428Y-86113809D01*
X219845380Y-86542380D02*
X219845380Y-85542380D01*
X220112047Y-86256666D01*
X220378714Y-85542380D01*
X220378714Y-86542380D01*
X220721571Y-86494761D02*
X220835857Y-86542380D01*
X221026333Y-86542380D01*
X221102523Y-86494761D01*
X221140619Y-86447142D01*
X221178714Y-86351904D01*
X221178714Y-86256666D01*
X221140619Y-86161428D01*
X221102523Y-86113809D01*
X221026333Y-86066190D01*
X220873952Y-86018571D01*
X220797761Y-85970952D01*
X220759666Y-85923333D01*
X220721571Y-85828095D01*
X220721571Y-85732857D01*
X220759666Y-85637619D01*
X220797761Y-85590000D01*
X220873952Y-85542380D01*
X221064428Y-85542380D01*
X221178714Y-85590000D01*
X221940619Y-85590000D02*
X221864428Y-85542380D01*
X221750142Y-85542380D01*
X221635857Y-85590000D01*
X221559666Y-85685238D01*
X221521571Y-85780476D01*
X221483476Y-85970952D01*
X221483476Y-86113809D01*
X221521571Y-86304285D01*
X221559666Y-86399523D01*
X221635857Y-86494761D01*
X221750142Y-86542380D01*
X221826333Y-86542380D01*
X221940619Y-86494761D01*
X221978714Y-86447142D01*
X221978714Y-86113809D01*
X221826333Y-86113809D01*
X223153666Y-86542380D02*
X222887000Y-86066190D01*
X222696523Y-86542380D02*
X222696523Y-85542380D01*
X223001285Y-85542380D01*
X223077476Y-85590000D01*
X223115571Y-85637619D01*
X223153666Y-85732857D01*
X223153666Y-85875714D01*
X223115571Y-85970952D01*
X223077476Y-86018571D01*
X223001285Y-86066190D01*
X222696523Y-86066190D01*
X223496523Y-86018571D02*
X223763190Y-86018571D01*
X223877476Y-86542380D02*
X223496523Y-86542380D01*
X223496523Y-85542380D01*
X223877476Y-85542380D01*
X224753666Y-86637619D02*
X224677476Y-86590000D01*
X224601285Y-86494761D01*
X224487000Y-86351904D01*
X224410809Y-86304285D01*
X224334619Y-86304285D01*
X224372714Y-86542380D02*
X224296523Y-86494761D01*
X224220333Y-86399523D01*
X224182238Y-86209047D01*
X224182238Y-85875714D01*
X224220333Y-85685238D01*
X224296523Y-85590000D01*
X224372714Y-85542380D01*
X224525095Y-85542380D01*
X224601285Y-85590000D01*
X224677476Y-85685238D01*
X224715571Y-85875714D01*
X224715571Y-86209047D01*
X224677476Y-86399523D01*
X224601285Y-86494761D01*
X224525095Y-86542380D01*
X224372714Y-86542380D01*
X202205023Y-92511380D02*
X202205023Y-91511380D01*
X202395500Y-91511380D01*
X202509785Y-91559000D01*
X202585976Y-91654238D01*
X202624071Y-91749476D01*
X202662166Y-91939952D01*
X202662166Y-92082809D01*
X202624071Y-92273285D01*
X202585976Y-92368523D01*
X202509785Y-92463761D01*
X202395500Y-92511380D01*
X202205023Y-92511380D01*
X203424071Y-92511380D02*
X202966928Y-92511380D01*
X203195500Y-92511380D02*
X203195500Y-91511380D01*
X203119309Y-91654238D01*
X203043119Y-91749476D01*
X202966928Y-91797095D01*
D12*
X193678571Y-94507142D02*
X193892857Y-94578571D01*
X194250000Y-94578571D01*
X194392857Y-94507142D01*
X194464285Y-94435714D01*
X194535714Y-94292857D01*
X194535714Y-94150000D01*
X194464285Y-94007142D01*
X194392857Y-93935714D01*
X194250000Y-93864285D01*
X193964285Y-93792857D01*
X193821428Y-93721428D01*
X193750000Y-93650000D01*
X193678571Y-93507142D01*
X193678571Y-93364285D01*
X193750000Y-93221428D01*
X193821428Y-93150000D01*
X193964285Y-93078571D01*
X194321428Y-93078571D01*
X194535714Y-93150000D01*
X196035714Y-94435714D02*
X195964285Y-94507142D01*
X195750000Y-94578571D01*
X195607142Y-94578571D01*
X195392857Y-94507142D01*
X195250000Y-94364285D01*
X195178571Y-94221428D01*
X195107142Y-93935714D01*
X195107142Y-93721428D01*
X195178571Y-93435714D01*
X195250000Y-93292857D01*
X195392857Y-93150000D01*
X195607142Y-93078571D01*
X195750000Y-93078571D01*
X195964285Y-93150000D01*
X196035714Y-93221428D01*
X196607142Y-94507142D02*
X196821428Y-94578571D01*
X197178571Y-94578571D01*
X197321428Y-94507142D01*
X197392857Y-94435714D01*
X197464285Y-94292857D01*
X197464285Y-94150000D01*
X197392857Y-94007142D01*
X197321428Y-93935714D01*
X197178571Y-93864285D01*
X196892857Y-93792857D01*
X196750000Y-93721428D01*
X196678571Y-93650000D01*
X196607142Y-93507142D01*
X196607142Y-93364285D01*
X196678571Y-93221428D01*
X196750000Y-93150000D01*
X196892857Y-93078571D01*
X197250000Y-93078571D01*
X197464285Y-93150000D01*
X198107142Y-94578571D02*
X198107142Y-93078571D01*
X199964285Y-94578571D02*
X199964285Y-93078571D01*
X200321428Y-93078571D01*
X200535714Y-93150000D01*
X200678571Y-93292857D01*
X200750000Y-93435714D01*
X200821428Y-93721428D01*
X200821428Y-93935714D01*
X200750000Y-94221428D01*
X200678571Y-94364285D01*
X200535714Y-94507142D01*
X200321428Y-94578571D01*
X199964285Y-94578571D01*
X202107142Y-94578571D02*
X202107142Y-93792857D01*
X202035714Y-93650000D01*
X201892857Y-93578571D01*
X201607142Y-93578571D01*
X201464285Y-93650000D01*
X202107142Y-94507142D02*
X201964285Y-94578571D01*
X201607142Y-94578571D01*
X201464285Y-94507142D01*
X201392857Y-94364285D01*
X201392857Y-94221428D01*
X201464285Y-94078571D01*
X201607142Y-94007142D01*
X201964285Y-94007142D01*
X202107142Y-93935714D01*
X202821428Y-94578571D02*
X202821428Y-93578571D01*
X202821428Y-93078571D02*
X202750000Y-93150000D01*
X202821428Y-93221428D01*
X202892857Y-93150000D01*
X202821428Y-93078571D01*
X202821428Y-93221428D01*
X203464285Y-94507142D02*
X203607142Y-94578571D01*
X203892857Y-94578571D01*
X204035714Y-94507142D01*
X204107142Y-94364285D01*
X204107142Y-94292857D01*
X204035714Y-94150000D01*
X203892857Y-94078571D01*
X203678571Y-94078571D01*
X203535714Y-94007142D01*
X203464285Y-93864285D01*
X203464285Y-93792857D01*
X203535714Y-93650000D01*
X203678571Y-93578571D01*
X203892857Y-93578571D01*
X204035714Y-93650000D01*
X204607142Y-93578571D02*
X204964285Y-94578571D01*
X205321428Y-93578571D02*
X204964285Y-94578571D01*
X204821428Y-94935714D01*
X204750000Y-95007142D01*
X204607142Y-95078571D01*
X207892857Y-94435714D02*
X207821428Y-94507142D01*
X207607142Y-94578571D01*
X207464285Y-94578571D01*
X207250000Y-94507142D01*
X207107142Y-94364285D01*
X207035714Y-94221428D01*
X206964285Y-93935714D01*
X206964285Y-93721428D01*
X207035714Y-93435714D01*
X207107142Y-93292857D01*
X207250000Y-93150000D01*
X207464285Y-93078571D01*
X207607142Y-93078571D01*
X207821428Y-93150000D01*
X207892857Y-93221428D01*
X208535714Y-94578571D02*
X208535714Y-93078571D01*
X209178571Y-94578571D02*
X209178571Y-93792857D01*
X209107142Y-93650000D01*
X208964285Y-93578571D01*
X208750000Y-93578571D01*
X208607142Y-93650000D01*
X208535714Y-93721428D01*
X210535714Y-94578571D02*
X210535714Y-93792857D01*
X210464285Y-93650000D01*
X210321428Y-93578571D01*
X210035714Y-93578571D01*
X209892857Y-93650000D01*
X210535714Y-94507142D02*
X210392857Y-94578571D01*
X210035714Y-94578571D01*
X209892857Y-94507142D01*
X209821428Y-94364285D01*
X209821428Y-94221428D01*
X209892857Y-94078571D01*
X210035714Y-94007142D01*
X210392857Y-94007142D01*
X210535714Y-93935714D01*
X211250000Y-94578571D02*
X211250000Y-93578571D01*
X211250000Y-93078571D02*
X211178571Y-93150000D01*
X211250000Y-93221428D01*
X211321428Y-93150000D01*
X211250000Y-93078571D01*
X211250000Y-93221428D01*
X211964285Y-93578571D02*
X211964285Y-94578571D01*
X211964285Y-93721428D02*
X212035714Y-93650000D01*
X212178571Y-93578571D01*
X212392857Y-93578571D01*
X212535714Y-93650000D01*
X212607142Y-93792857D01*
X212607142Y-94578571D01*
X214964285Y-93792857D02*
X215178571Y-93864285D01*
X215250000Y-93935714D01*
X215321428Y-94078571D01*
X215321428Y-94292857D01*
X215250000Y-94435714D01*
X215178571Y-94507142D01*
X215035714Y-94578571D01*
X214464285Y-94578571D01*
X214464285Y-93078571D01*
X214964285Y-93078571D01*
X215107142Y-93150000D01*
X215178571Y-93221428D01*
X215250000Y-93364285D01*
X215250000Y-93507142D01*
X215178571Y-93650000D01*
X215107142Y-93721428D01*
X214964285Y-93792857D01*
X214464285Y-93792857D01*
X216178571Y-94578571D02*
X216035714Y-94507142D01*
X215964285Y-94435714D01*
X215892857Y-94292857D01*
X215892857Y-93864285D01*
X215964285Y-93721428D01*
X216035714Y-93650000D01*
X216178571Y-93578571D01*
X216392857Y-93578571D01*
X216535714Y-93650000D01*
X216607142Y-93721428D01*
X216678571Y-93864285D01*
X216678571Y-94292857D01*
X216607142Y-94435714D01*
X216535714Y-94507142D01*
X216392857Y-94578571D01*
X216178571Y-94578571D01*
X217964285Y-94578571D02*
X217964285Y-93792857D01*
X217892857Y-93650000D01*
X217750000Y-93578571D01*
X217464285Y-93578571D01*
X217321428Y-93650000D01*
X217964285Y-94507142D02*
X217821428Y-94578571D01*
X217464285Y-94578571D01*
X217321428Y-94507142D01*
X217250000Y-94364285D01*
X217250000Y-94221428D01*
X217321428Y-94078571D01*
X217464285Y-94007142D01*
X217821428Y-94007142D01*
X217964285Y-93935714D01*
X218678571Y-94578571D02*
X218678571Y-93578571D01*
X218678571Y-93864285D02*
X218750000Y-93721428D01*
X218821428Y-93650000D01*
X218964285Y-93578571D01*
X219107142Y-93578571D01*
X220250000Y-94578571D02*
X220250000Y-93078571D01*
X220250000Y-94507142D02*
X220107142Y-94578571D01*
X219821428Y-94578571D01*
X219678571Y-94507142D01*
X219607142Y-94435714D01*
X219535714Y-94292857D01*
X219535714Y-93864285D01*
X219607142Y-93721428D01*
X219678571Y-93650000D01*
X219821428Y-93578571D01*
X220107142Y-93578571D01*
X220250000Y-93650000D01*
D11*
X236778380Y-79288880D02*
X236778380Y-78288880D01*
X237311713Y-78288880D02*
X237464094Y-78288880D01*
X237540285Y-78336500D01*
X237616475Y-78431738D01*
X237654570Y-78622214D01*
X237654570Y-78955547D01*
X237616475Y-79146023D01*
X237540285Y-79241261D01*
X237464094Y-79288880D01*
X237311713Y-79288880D01*
X237235523Y-79241261D01*
X237159332Y-79146023D01*
X237121237Y-78955547D01*
X237121237Y-78622214D01*
X237159332Y-78431738D01*
X237235523Y-78336500D01*
X237311713Y-78288880D01*
X218877761Y-78765071D02*
X218992047Y-78812690D01*
X219030142Y-78860309D01*
X219068237Y-78955547D01*
X219068237Y-79098404D01*
X219030142Y-79193642D01*
X218992047Y-79241261D01*
X218915856Y-79288880D01*
X218611094Y-79288880D01*
X218611094Y-78288880D01*
X218877761Y-78288880D01*
X218953951Y-78336500D01*
X218992047Y-78384119D01*
X219030142Y-78479357D01*
X219030142Y-78574595D01*
X218992047Y-78669833D01*
X218953951Y-78717452D01*
X218877761Y-78765071D01*
X218611094Y-78765071D01*
X219372999Y-79241261D02*
X219487285Y-79288880D01*
X219677761Y-79288880D01*
X219753951Y-79241261D01*
X219792047Y-79193642D01*
X219830142Y-79098404D01*
X219830142Y-79003166D01*
X219792047Y-78907928D01*
X219753951Y-78860309D01*
X219677761Y-78812690D01*
X219525380Y-78765071D01*
X219449189Y-78717452D01*
X219411094Y-78669833D01*
X219372999Y-78574595D01*
X219372999Y-78479357D01*
X219411094Y-78384119D01*
X219449189Y-78336500D01*
X219525380Y-78288880D01*
X219715856Y-78288880D01*
X219830142Y-78336500D01*
X220325380Y-78812690D02*
X220325380Y-79288880D01*
X220058713Y-78288880D02*
X220325380Y-78812690D01*
X220592047Y-78288880D01*
X214866904Y-86542380D02*
X214600238Y-86066190D01*
X214409761Y-86542380D02*
X214409761Y-85542380D01*
X214714523Y-85542380D01*
X214790714Y-85590000D01*
X214828809Y-85637619D01*
X214866904Y-85732857D01*
X214866904Y-85875714D01*
X214828809Y-85970952D01*
X214790714Y-86018571D01*
X214714523Y-86066190D01*
X214409761Y-86066190D01*
X215171666Y-86494761D02*
X215285952Y-86542380D01*
X215476428Y-86542380D01*
X215552619Y-86494761D01*
X215590714Y-86447142D01*
X215628809Y-86351904D01*
X215628809Y-86256666D01*
X215590714Y-86161428D01*
X215552619Y-86113809D01*
X215476428Y-86066190D01*
X215324047Y-86018571D01*
X215247857Y-85970952D01*
X215209761Y-85923333D01*
X215171666Y-85828095D01*
X215171666Y-85732857D01*
X215209761Y-85637619D01*
X215247857Y-85590000D01*
X215324047Y-85542380D01*
X215514523Y-85542380D01*
X215628809Y-85590000D01*
X215857380Y-85542380D02*
X216314523Y-85542380D01*
X216085952Y-86542380D02*
X216085952Y-85542380D01*
X189759023Y-86542380D02*
X189759023Y-85542380D01*
X189949500Y-85542380D01*
X190063785Y-85590000D01*
X190139976Y-85685238D01*
X190178071Y-85780476D01*
X190216166Y-85970952D01*
X190216166Y-86113809D01*
X190178071Y-86304285D01*
X190139976Y-86399523D01*
X190063785Y-86494761D01*
X189949500Y-86542380D01*
X189759023Y-86542380D01*
X190482833Y-85542380D02*
X191016166Y-85542380D01*
X190673309Y-86542380D01*
X191110787Y-79352380D02*
X191110787Y-78352380D01*
X191301264Y-78352380D01*
X191415549Y-78400000D01*
X191491740Y-78495238D01*
X191529835Y-78590476D01*
X191567930Y-78780952D01*
X191567930Y-78923809D01*
X191529835Y-79114285D01*
X191491740Y-79209523D01*
X191415549Y-79304761D01*
X191301264Y-79352380D01*
X191110787Y-79352380D01*
X192253644Y-78352380D02*
X192101264Y-78352380D01*
X192025073Y-78400000D01*
X191986978Y-78447619D01*
X191910787Y-78590476D01*
X191872692Y-78780952D01*
X191872692Y-79161904D01*
X191910787Y-79257142D01*
X191948883Y-79304761D01*
X192025073Y-79352380D01*
X192177454Y-79352380D01*
X192253644Y-79304761D01*
X192291740Y-79257142D01*
X192329835Y-79161904D01*
X192329835Y-78923809D01*
X192291740Y-78828571D01*
X192253644Y-78780952D01*
X192177454Y-78733333D01*
X192025073Y-78733333D01*
X191948883Y-78780952D01*
X191910787Y-78828571D01*
X191872692Y-78923809D01*
X176027951Y-79352380D02*
X176027951Y-78352380D01*
X176218428Y-78352380D01*
X176332713Y-78400000D01*
X176408904Y-78495238D01*
X176446999Y-78590476D01*
X176485094Y-78780952D01*
X176485094Y-78923809D01*
X176446999Y-79114285D01*
X176408904Y-79209523D01*
X176332713Y-79304761D01*
X176218428Y-79352380D01*
X176027951Y-79352380D01*
X176980332Y-78352380D02*
X177056523Y-78352380D01*
X177132713Y-78400000D01*
X177170808Y-78447619D01*
X177208904Y-78542857D01*
X177246999Y-78733333D01*
X177246999Y-78971428D01*
X177208904Y-79161904D01*
X177170808Y-79257142D01*
X177132713Y-79304761D01*
X177056523Y-79352380D01*
X176980332Y-79352380D01*
X176904142Y-79304761D01*
X176866047Y-79257142D01*
X176827951Y-79161904D01*
X176789856Y-78971428D01*
X176789856Y-78733333D01*
X176827951Y-78542857D01*
X176866047Y-78447619D01*
X176904142Y-78400000D01*
X176980332Y-78352380D01*
X181055563Y-79352380D02*
X181055563Y-78352380D01*
X181246040Y-78352380D01*
X181360325Y-78400000D01*
X181436516Y-78495238D01*
X181474611Y-78590476D01*
X181512706Y-78780952D01*
X181512706Y-78923809D01*
X181474611Y-79114285D01*
X181436516Y-79209523D01*
X181360325Y-79304761D01*
X181246040Y-79352380D01*
X181055563Y-79352380D01*
X181817468Y-78447619D02*
X181855563Y-78400000D01*
X181931754Y-78352380D01*
X182122230Y-78352380D01*
X182198420Y-78400000D01*
X182236516Y-78447619D01*
X182274611Y-78542857D01*
X182274611Y-78638095D01*
X182236516Y-78780952D01*
X181779373Y-79352380D01*
X182274611Y-79352380D01*
X226195711Y-79288880D02*
X226195711Y-78288880D01*
X226462378Y-79003166D01*
X226729045Y-78288880D01*
X226729045Y-79288880D01*
X227071902Y-79241261D02*
X227186188Y-79288880D01*
X227376664Y-79288880D01*
X227452854Y-79241261D01*
X227490950Y-79193642D01*
X227529045Y-79098404D01*
X227529045Y-79003166D01*
X227490950Y-78907928D01*
X227452854Y-78860309D01*
X227376664Y-78812690D01*
X227224283Y-78765071D01*
X227148092Y-78717452D01*
X227109997Y-78669833D01*
X227071902Y-78574595D01*
X227071902Y-78479357D01*
X227109997Y-78384119D01*
X227148092Y-78336500D01*
X227224283Y-78288880D01*
X227414759Y-78288880D01*
X227529045Y-78336500D01*
X228290950Y-78336500D02*
X228214759Y-78288880D01*
X228100473Y-78288880D01*
X227986188Y-78336500D01*
X227909997Y-78431738D01*
X227871902Y-78526976D01*
X227833807Y-78717452D01*
X227833807Y-78860309D01*
X227871902Y-79050785D01*
X227909997Y-79146023D01*
X227986188Y-79241261D01*
X228100473Y-79288880D01*
X228176664Y-79288880D01*
X228290950Y-79241261D01*
X228329045Y-79193642D01*
X228329045Y-78860309D01*
X228176664Y-78860309D01*
X213486642Y-79003166D02*
X213867594Y-79003166D01*
X213410451Y-79288880D02*
X213677118Y-78288880D01*
X213943785Y-79288880D01*
X214096166Y-78288880D02*
X214553308Y-78288880D01*
X214324737Y-79288880D02*
X214324737Y-78288880D01*
X214819975Y-79288880D02*
X214819975Y-78288880D01*
X215277118Y-79288880D01*
X215277118Y-78288880D01*
X195283523Y-86542380D02*
X195283523Y-85542380D01*
X195474000Y-85542380D01*
X195588285Y-85590000D01*
X195664476Y-85685238D01*
X195702571Y-85780476D01*
X195740666Y-85970952D01*
X195740666Y-86113809D01*
X195702571Y-86304285D01*
X195664476Y-86399523D01*
X195588285Y-86494761D01*
X195474000Y-86542380D01*
X195283523Y-86542380D01*
X196464476Y-85542380D02*
X196083523Y-85542380D01*
X196045428Y-86018571D01*
X196083523Y-85970952D01*
X196159714Y-85923333D01*
X196350190Y-85923333D01*
X196426380Y-85970952D01*
X196464476Y-86018571D01*
X196502571Y-86113809D01*
X196502571Y-86351904D01*
X196464476Y-86447142D01*
X196426380Y-86494761D01*
X196350190Y-86542380D01*
X196159714Y-86542380D01*
X196083523Y-86494761D01*
X196045428Y-86447142D01*
X217133904Y-86542380D02*
X217133904Y-85542380D01*
X218086285Y-85494761D02*
X217400571Y-86780476D01*
X218505333Y-85542380D02*
X218657714Y-85542380D01*
X218733904Y-85590000D01*
X218810095Y-85685238D01*
X218848190Y-85875714D01*
X218848190Y-86209047D01*
X218810095Y-86399523D01*
X218733904Y-86494761D01*
X218657714Y-86542380D01*
X218505333Y-86542380D01*
X218429142Y-86494761D01*
X218352952Y-86399523D01*
X218314857Y-86209047D01*
X218314857Y-85875714D01*
X218352952Y-85685238D01*
X218429142Y-85590000D01*
X218505333Y-85542380D01*
X205358713Y-78288880D02*
X205815856Y-78288880D01*
X205587285Y-79288880D02*
X205587285Y-78288880D01*
X206082523Y-79288880D02*
X206082523Y-78288880D01*
X206387285Y-78288880D01*
X206463475Y-78336500D01*
X206501570Y-78384119D01*
X206539666Y-78479357D01*
X206539666Y-78622214D01*
X206501570Y-78717452D01*
X206463475Y-78765071D01*
X206387285Y-78812690D01*
X206082523Y-78812690D01*
X206806332Y-78288880D02*
X206996808Y-79288880D01*
X207149189Y-78574595D01*
X207301570Y-79288880D01*
X207492047Y-78288880D01*
X208253951Y-79288880D02*
X207987285Y-78812690D01*
X207796808Y-79288880D02*
X207796808Y-78288880D01*
X208101570Y-78288880D01*
X208177761Y-78336500D01*
X208215856Y-78384119D01*
X208253951Y-78479357D01*
X208253951Y-78622214D01*
X208215856Y-78717452D01*
X208177761Y-78765071D01*
X208101570Y-78812690D01*
X207796808Y-78812690D01*
X228927091Y-79241261D02*
X229041377Y-79288880D01*
X229231853Y-79288880D01*
X229308043Y-79241261D01*
X229346138Y-79193642D01*
X229384234Y-79098404D01*
X229384234Y-79003166D01*
X229346138Y-78907928D01*
X229308043Y-78860309D01*
X229231853Y-78812690D01*
X229079472Y-78765071D01*
X229003281Y-78717452D01*
X228965186Y-78669833D01*
X228927091Y-78574595D01*
X228927091Y-78479357D01*
X228965186Y-78384119D01*
X229003281Y-78336500D01*
X229079472Y-78288880D01*
X229269948Y-78288880D01*
X229384234Y-78336500D01*
X229727091Y-78765071D02*
X229993757Y-78765071D01*
X230108043Y-79288880D02*
X229727091Y-79288880D01*
X229727091Y-78288880D01*
X230108043Y-78288880D01*
X230831853Y-79288880D02*
X230450900Y-79288880D01*
X230450900Y-78288880D01*
X186083175Y-79352380D02*
X186083175Y-78352380D01*
X186273652Y-78352380D01*
X186387937Y-78400000D01*
X186464128Y-78495238D01*
X186502223Y-78590476D01*
X186540318Y-78780952D01*
X186540318Y-78923809D01*
X186502223Y-79114285D01*
X186464128Y-79209523D01*
X186387937Y-79304761D01*
X186273652Y-79352380D01*
X186083175Y-79352380D01*
X187226032Y-78685714D02*
X187226032Y-79352380D01*
X187035556Y-78304761D02*
X186845080Y-79019047D01*
X187340318Y-79019047D01*
X183569369Y-79352380D02*
X183569369Y-78352380D01*
X183759846Y-78352380D01*
X183874131Y-78400000D01*
X183950322Y-78495238D01*
X183988417Y-78590476D01*
X184026512Y-78780952D01*
X184026512Y-78923809D01*
X183988417Y-79114285D01*
X183950322Y-79209523D01*
X183874131Y-79304761D01*
X183759846Y-79352380D01*
X183569369Y-79352380D01*
X184293179Y-78352380D02*
X184788417Y-78352380D01*
X184521750Y-78733333D01*
X184636036Y-78733333D01*
X184712226Y-78780952D01*
X184750322Y-78828571D01*
X184788417Y-78923809D01*
X184788417Y-79161904D01*
X184750322Y-79257142D01*
X184712226Y-79304761D01*
X184636036Y-79352380D01*
X184407465Y-79352380D01*
X184331274Y-79304761D01*
X184293179Y-79257142D01*
X196553523Y-92511380D02*
X196553523Y-91511380D01*
X196744000Y-91511380D01*
X196858285Y-91559000D01*
X196934476Y-91654238D01*
X196972571Y-91749476D01*
X197010666Y-91939952D01*
X197010666Y-92082809D01*
X196972571Y-92273285D01*
X196934476Y-92368523D01*
X196858285Y-92463761D01*
X196744000Y-92511380D01*
X196553523Y-92511380D01*
X197696380Y-91844714D02*
X197696380Y-92511380D01*
X197505904Y-91463761D02*
X197315428Y-92178047D01*
X197810666Y-92178047D01*
X190387785Y-91511380D02*
X190844928Y-91511380D01*
X190616357Y-92511380D02*
X190616357Y-91511380D01*
X191111595Y-92511380D02*
X191111595Y-91511380D01*
X191416357Y-91511380D01*
X191492547Y-91559000D01*
X191530642Y-91606619D01*
X191568738Y-91701857D01*
X191568738Y-91844714D01*
X191530642Y-91939952D01*
X191492547Y-91987571D01*
X191416357Y-92035190D01*
X191111595Y-92035190D01*
X191835404Y-91511380D02*
X192025880Y-92511380D01*
X192178261Y-91797095D01*
X192330642Y-92511380D01*
X192521119Y-91511380D01*
X193283023Y-92511380D02*
X193016357Y-92035190D01*
X192825880Y-92511380D02*
X192825880Y-91511380D01*
X193130642Y-91511380D01*
X193206833Y-91559000D01*
X193244928Y-91606619D01*
X193283023Y-91701857D01*
X193283023Y-91844714D01*
X193244928Y-91939952D01*
X193206833Y-91987571D01*
X193130642Y-92035190D01*
X192825880Y-92035190D01*
X231848947Y-79193642D02*
X231810852Y-79241261D01*
X231696566Y-79288880D01*
X231620376Y-79288880D01*
X231506090Y-79241261D01*
X231429899Y-79146023D01*
X231391804Y-79050785D01*
X231353709Y-78860309D01*
X231353709Y-78717452D01*
X231391804Y-78526976D01*
X231429899Y-78431738D01*
X231506090Y-78336500D01*
X231620376Y-78288880D01*
X231696566Y-78288880D01*
X231810852Y-78336500D01*
X231848947Y-78384119D01*
X232763233Y-78241261D02*
X232077518Y-79526976D01*
X233029899Y-79288880D02*
X233029899Y-78288880D01*
X233220376Y-78288880D01*
X233334661Y-78336500D01*
X233410852Y-78431738D01*
X233448947Y-78526976D01*
X233487042Y-78717452D01*
X233487042Y-78860309D01*
X233448947Y-79050785D01*
X233410852Y-79146023D01*
X233334661Y-79241261D01*
X233220376Y-79288880D01*
X233029899Y-79288880D01*
D12*
X201226190Y-96715476D02*
X201226190Y-97608333D01*
X201166666Y-97786904D01*
X201047619Y-97905952D01*
X200869047Y-97965476D01*
X200750000Y-97965476D01*
X202416666Y-97965476D02*
X201821428Y-97965476D01*
X201821428Y-96715476D01*
X203547619Y-97846428D02*
X203488095Y-97905952D01*
X203309523Y-97965476D01*
X203190476Y-97965476D01*
X203011904Y-97905952D01*
X202892857Y-97786904D01*
X202833333Y-97667857D01*
X202773809Y-97429761D01*
X202773809Y-97251190D01*
X202833333Y-97013095D01*
X202892857Y-96894047D01*
X203011904Y-96775000D01*
X203190476Y-96715476D01*
X203309523Y-96715476D01*
X203488095Y-96775000D01*
X203547619Y-96834523D01*
X204440476Y-96715476D02*
X204440476Y-97608333D01*
X204380952Y-97786904D01*
X204261904Y-97905952D01*
X204083333Y-97965476D01*
X203964285Y-97965476D01*
X205630952Y-97965476D02*
X205035714Y-97965476D01*
X205035714Y-96715476D01*
X206761904Y-97846428D02*
X206702380Y-97905952D01*
X206523809Y-97965476D01*
X206404761Y-97965476D01*
X206226190Y-97905952D01*
X206107142Y-97786904D01*
X206047619Y-97667857D01*
X205988095Y-97429761D01*
X205988095Y-97251190D01*
X206047619Y-97013095D01*
X206107142Y-96894047D01*
X206226190Y-96775000D01*
X206404761Y-96715476D01*
X206523809Y-96715476D01*
X206702380Y-96775000D01*
X206761904Y-96834523D01*
X207654761Y-96715476D02*
X207654761Y-97608333D01*
X207595238Y-97786904D01*
X207476190Y-97905952D01*
X207297619Y-97965476D01*
X207178571Y-97965476D01*
X208845238Y-97965476D02*
X208250000Y-97965476D01*
X208250000Y-96715476D01*
X209976190Y-97846428D02*
X209916666Y-97905952D01*
X209738095Y-97965476D01*
X209619047Y-97965476D01*
X209440476Y-97905952D01*
X209321428Y-97786904D01*
X209261904Y-97667857D01*
X209202380Y-97429761D01*
X209202380Y-97251190D01*
X209261904Y-97013095D01*
X209321428Y-96894047D01*
X209440476Y-96775000D01*
X209619047Y-96715476D01*
X209738095Y-96715476D01*
X209916666Y-96775000D01*
X209976190Y-96834523D01*
X210869047Y-96715476D02*
X210869047Y-97608333D01*
X210809523Y-97786904D01*
X210690476Y-97905952D01*
X210511904Y-97965476D01*
X210392857Y-97965476D01*
X212059523Y-97965476D02*
X211464285Y-97965476D01*
X211464285Y-96715476D01*
X213190476Y-97846428D02*
X213130952Y-97905952D01*
X212952380Y-97965476D01*
X212833333Y-97965476D01*
X212654761Y-97905952D01*
X212535714Y-97786904D01*
X212476190Y-97667857D01*
X212416666Y-97429761D01*
X212416666Y-97251190D01*
X212476190Y-97013095D01*
X212535714Y-96894047D01*
X212654761Y-96775000D01*
X212833333Y-96715476D01*
X212952380Y-96715476D01*
X213130952Y-96775000D01*
X213190476Y-96834523D01*
D11*
X209177333Y-86018571D02*
X209291619Y-86066190D01*
X209329714Y-86113809D01*
X209367809Y-86209047D01*
X209367809Y-86351904D01*
X209329714Y-86447142D01*
X209291619Y-86494761D01*
X209215428Y-86542380D01*
X208910666Y-86542380D01*
X208910666Y-85542380D01*
X209177333Y-85542380D01*
X209253523Y-85590000D01*
X209291619Y-85637619D01*
X209329714Y-85732857D01*
X209329714Y-85828095D01*
X209291619Y-85923333D01*
X209253523Y-85970952D01*
X209177333Y-86018571D01*
X208910666Y-86018571D01*
X209672571Y-86494761D02*
X209786857Y-86542380D01*
X209977333Y-86542380D01*
X210053523Y-86494761D01*
X210091619Y-86447142D01*
X210129714Y-86351904D01*
X210129714Y-86256666D01*
X210091619Y-86161428D01*
X210053523Y-86113809D01*
X209977333Y-86066190D01*
X209824952Y-86018571D01*
X209748761Y-85970952D01*
X209710666Y-85923333D01*
X209672571Y-85828095D01*
X209672571Y-85732857D01*
X209710666Y-85637619D01*
X209748761Y-85590000D01*
X209824952Y-85542380D01*
X210015428Y-85542380D01*
X210129714Y-85590000D01*
X210624952Y-86066190D02*
X210624952Y-86542380D01*
X210358285Y-85542380D02*
X210624952Y-86066190D01*
X210891619Y-85542380D01*
X218797571Y-92416142D02*
X218759476Y-92463761D01*
X218645190Y-92511380D01*
X218569000Y-92511380D01*
X218454714Y-92463761D01*
X218378523Y-92368523D01*
X218340428Y-92273285D01*
X218302333Y-92082809D01*
X218302333Y-91939952D01*
X218340428Y-91749476D01*
X218378523Y-91654238D01*
X218454714Y-91559000D01*
X218569000Y-91511380D01*
X218645190Y-91511380D01*
X218759476Y-91559000D01*
X218797571Y-91606619D01*
X219711857Y-91463761D02*
X219026142Y-92749476D01*
X219978523Y-92511380D02*
X219978523Y-91511380D01*
X220169000Y-91511380D01*
X220283285Y-91559000D01*
X220359476Y-91654238D01*
X220397571Y-91749476D01*
X220435666Y-91939952D01*
X220435666Y-92082809D01*
X220397571Y-92273285D01*
X220359476Y-92368523D01*
X220283285Y-92463761D01*
X220169000Y-92511380D01*
X219978523Y-92511380D01*
X234580327Y-79288880D02*
X234313661Y-78812690D01*
X234123184Y-79288880D02*
X234123184Y-78288880D01*
X234427946Y-78288880D01*
X234504137Y-78336500D01*
X234542232Y-78384119D01*
X234580327Y-78479357D01*
X234580327Y-78622214D01*
X234542232Y-78717452D01*
X234504137Y-78765071D01*
X234427946Y-78812690D01*
X234123184Y-78812690D01*
X234923184Y-78765071D02*
X235189851Y-78765071D01*
X235304137Y-79288880D02*
X234923184Y-79288880D01*
X234923184Y-78288880D01*
X235304137Y-78288880D01*
X236180327Y-79384119D02*
X236104137Y-79336500D01*
X236027946Y-79241261D01*
X235913661Y-79098404D01*
X235837470Y-79050785D01*
X235761280Y-79050785D01*
X235799375Y-79288880D02*
X235723184Y-79241261D01*
X235646994Y-79146023D01*
X235608899Y-78955547D01*
X235608899Y-78622214D01*
X235646994Y-78431738D01*
X235723184Y-78336500D01*
X235799375Y-78288880D01*
X235951756Y-78288880D01*
X236027946Y-78336500D01*
X236104137Y-78431738D01*
X236142232Y-78622214D01*
X236142232Y-78955547D01*
X236104137Y-79146023D01*
X236027946Y-79241261D01*
X235951756Y-79288880D01*
X235799375Y-79288880D01*
X198077523Y-86542380D02*
X198077523Y-85542380D01*
X198268000Y-85542380D01*
X198382285Y-85590000D01*
X198458476Y-85685238D01*
X198496571Y-85780476D01*
X198534666Y-85970952D01*
X198534666Y-86113809D01*
X198496571Y-86304285D01*
X198458476Y-86399523D01*
X198382285Y-86494761D01*
X198268000Y-86542380D01*
X198077523Y-86542380D01*
X198801333Y-85542380D02*
X199296571Y-85542380D01*
X199029904Y-85923333D01*
X199144190Y-85923333D01*
X199220380Y-85970952D01*
X199258476Y-86018571D01*
X199296571Y-86113809D01*
X199296571Y-86351904D01*
X199258476Y-86447142D01*
X199220380Y-86494761D01*
X199144190Y-86542380D01*
X198915619Y-86542380D01*
X198839428Y-86494761D01*
X198801333Y-86447142D01*
X207532714Y-92463761D02*
X207647000Y-92511380D01*
X207837476Y-92511380D01*
X207913666Y-92463761D01*
X207951761Y-92416142D01*
X207989857Y-92320904D01*
X207989857Y-92225666D01*
X207951761Y-92130428D01*
X207913666Y-92082809D01*
X207837476Y-92035190D01*
X207685095Y-91987571D01*
X207608904Y-91939952D01*
X207570809Y-91892333D01*
X207532714Y-91797095D01*
X207532714Y-91701857D01*
X207570809Y-91606619D01*
X207608904Y-91559000D01*
X207685095Y-91511380D01*
X207875571Y-91511380D01*
X207989857Y-91559000D01*
X208332714Y-91987571D02*
X208599380Y-91987571D01*
X208713666Y-92511380D02*
X208332714Y-92511380D01*
X208332714Y-91511380D01*
X208713666Y-91511380D01*
X209437476Y-92511380D02*
X209056523Y-92511380D01*
X209056523Y-91511380D01*
X203665523Y-86542380D02*
X203665523Y-85542380D01*
X203856000Y-85542380D01*
X203970285Y-85590000D01*
X204046476Y-85685238D01*
X204084571Y-85780476D01*
X204122666Y-85970952D01*
X204122666Y-86113809D01*
X204084571Y-86304285D01*
X204046476Y-86399523D01*
X203970285Y-86494761D01*
X203856000Y-86542380D01*
X203665523Y-86542380D01*
X204617904Y-85542380D02*
X204694095Y-85542380D01*
X204770285Y-85590000D01*
X204808380Y-85637619D01*
X204846476Y-85732857D01*
X204884571Y-85923333D01*
X204884571Y-86161428D01*
X204846476Y-86351904D01*
X204808380Y-86447142D01*
X204770285Y-86494761D01*
X204694095Y-86542380D01*
X204617904Y-86542380D01*
X204541714Y-86494761D01*
X204503619Y-86447142D01*
X204465523Y-86351904D01*
X204427428Y-86161428D01*
X204427428Y-85923333D01*
X204465523Y-85732857D01*
X204503619Y-85637619D01*
X204541714Y-85590000D01*
X204617904Y-85542380D01*
X224188140Y-79288880D02*
X223921474Y-78812690D01*
X223730997Y-79288880D02*
X223730997Y-78288880D01*
X224035759Y-78288880D01*
X224111950Y-78336500D01*
X224150045Y-78384119D01*
X224188140Y-78479357D01*
X224188140Y-78622214D01*
X224150045Y-78717452D01*
X224111950Y-78765071D01*
X224035759Y-78812690D01*
X223730997Y-78812690D01*
X224492902Y-79241261D02*
X224607188Y-79288880D01*
X224797664Y-79288880D01*
X224873855Y-79241261D01*
X224911950Y-79193642D01*
X224950045Y-79098404D01*
X224950045Y-79003166D01*
X224911950Y-78907928D01*
X224873855Y-78860309D01*
X224797664Y-78812690D01*
X224645283Y-78765071D01*
X224569093Y-78717452D01*
X224530997Y-78669833D01*
X224492902Y-78574595D01*
X224492902Y-78479357D01*
X224530997Y-78384119D01*
X224569093Y-78336500D01*
X224645283Y-78288880D01*
X224835759Y-78288880D01*
X224950045Y-78336500D01*
X225178616Y-78288880D02*
X225635759Y-78288880D01*
X225407188Y-79288880D02*
X225407188Y-78288880D01*
X212930214Y-92225666D02*
X213311166Y-92225666D01*
X212854023Y-92511380D02*
X213120690Y-91511380D01*
X213387357Y-92511380D01*
X213539738Y-91511380D02*
X213996880Y-91511380D01*
X213768309Y-92511380D02*
X213768309Y-91511380D01*
X214263547Y-92511380D02*
X214263547Y-91511380D01*
X214720690Y-92511380D01*
X214720690Y-91511380D01*
X193624593Y-79352380D02*
X193624593Y-78352380D01*
X193815070Y-78352380D01*
X193929355Y-78400000D01*
X194005546Y-78495238D01*
X194043641Y-78590476D01*
X194081736Y-78780952D01*
X194081736Y-78923809D01*
X194043641Y-79114285D01*
X194005546Y-79209523D01*
X193929355Y-79304761D01*
X193815070Y-79352380D01*
X193624593Y-79352380D01*
X194348403Y-78352380D02*
X194881736Y-78352380D01*
X194538879Y-79352380D01*
D13*
X224521428Y-93787142D02*
X226235714Y-93787142D01*
X225378571Y-96787142D02*
X225378571Y-93787142D01*
X227807142Y-93787142D02*
X228378571Y-93787142D01*
X228664285Y-93930000D01*
X228950000Y-94215714D01*
X229092857Y-94787142D01*
X229092857Y-95787142D01*
X228950000Y-96358571D01*
X228664285Y-96644285D01*
X228378571Y-96787142D01*
X227807142Y-96787142D01*
X227521428Y-96644285D01*
X227235714Y-96358571D01*
X227092857Y-95787142D01*
X227092857Y-94787142D01*
X227235714Y-94215714D01*
X227521428Y-93930000D01*
X227807142Y-93787142D01*
X230378571Y-96787142D02*
X230378571Y-93787142D01*
X231521428Y-93787142D01*
X231807142Y-93930000D01*
X231950000Y-94072857D01*
X232092857Y-94358571D01*
X232092857Y-94787142D01*
X231950000Y-95072857D01*
X231807142Y-95215714D01*
X231521428Y-95358571D01*
X230378571Y-95358571D01*
D11*
X221113903Y-79003166D02*
X221494856Y-79003166D01*
X221037713Y-79288880D02*
X221304380Y-78288880D01*
X221571046Y-79288880D01*
X222294856Y-79193642D02*
X222256760Y-79241261D01*
X222142475Y-79288880D01*
X222066284Y-79288880D01*
X221951999Y-79241261D01*
X221875808Y-79146023D01*
X221837713Y-79050785D01*
X221799618Y-78860309D01*
X221799618Y-78717452D01*
X221837713Y-78526976D01*
X221875808Y-78431738D01*
X221951999Y-78336500D01*
X222066284Y-78288880D01*
X222142475Y-78288880D01*
X222256760Y-78336500D01*
X222294856Y-78384119D01*
X222637713Y-79288880D02*
X222637713Y-78288880D01*
X223094856Y-79288880D02*
X222751999Y-78717452D01*
X223094856Y-78288880D02*
X222637713Y-78860309D01*
X196138404Y-79352380D02*
X196138404Y-78352380D01*
X196328880Y-78352380D01*
X196443166Y-78400000D01*
X196519356Y-78495238D01*
X196557451Y-78590476D01*
X196595547Y-78780952D01*
X196595547Y-78923809D01*
X196557451Y-79114285D01*
X196519356Y-79209523D01*
X196443166Y-79304761D01*
X196328880Y-79352380D01*
X196138404Y-79352380D01*
X196938404Y-79352380D02*
X196938404Y-78352380D01*
X197243166Y-78352380D01*
X197319356Y-78400000D01*
X197357451Y-78447619D01*
X197395547Y-78542857D01*
X197395547Y-78685714D01*
X197357451Y-78780952D01*
X197319356Y-78828571D01*
X197243166Y-78876190D01*
X196938404Y-78876190D01*
X175956666Y-84612380D02*
X175956666Y-85326666D01*
X175909047Y-85469523D01*
X175813809Y-85564761D01*
X175670952Y-85612380D01*
X175575714Y-85612380D01*
X176337619Y-84612380D02*
X177004285Y-84612380D01*
X176575714Y-85612380D01*
D14*
X225316666Y-90074523D02*
X225316666Y-90981666D01*
X225256190Y-91163095D01*
X225135238Y-91284047D01*
X224953809Y-91344523D01*
X224832857Y-91344523D01*
X226102857Y-90618809D02*
X225981904Y-90558333D01*
X225921428Y-90497857D01*
X225860952Y-90376904D01*
X225860952Y-90316428D01*
X225921428Y-90195476D01*
X225981904Y-90135000D01*
X226102857Y-90074523D01*
X226344761Y-90074523D01*
X226465714Y-90135000D01*
X226526190Y-90195476D01*
X226586666Y-90316428D01*
X226586666Y-90376904D01*
X226526190Y-90497857D01*
X226465714Y-90558333D01*
X226344761Y-90618809D01*
X226102857Y-90618809D01*
X225981904Y-90679285D01*
X225921428Y-90739761D01*
X225860952Y-90860714D01*
X225860952Y-91102619D01*
X225921428Y-91223571D01*
X225981904Y-91284047D01*
X226102857Y-91344523D01*
X226344761Y-91344523D01*
X226465714Y-91284047D01*
X226526190Y-91223571D01*
X226586666Y-91102619D01*
X226586666Y-90860714D01*
X226526190Y-90739761D01*
X226465714Y-90679285D01*
X226344761Y-90618809D01*
D10*
X176466500Y-84324500D02*
X175136500Y-84324500D01*
X177736500Y-81724500D02*
X175136500Y-81724500D01*
X177736500Y-84324500D02*
X177736500Y-81724500D01*
X175136500Y-84324500D02*
X175136500Y-82994500D01*
G36*
X179000727Y-86868000D02*
G01*
X179006449Y-86917066D01*
X179033438Y-86935151D01*
X179070000Y-86937273D01*
X179139273Y-86937273D01*
X179139273Y-88830727D01*
X179070000Y-88830727D01*
X179020934Y-88836449D01*
X179002850Y-88863438D01*
X179000727Y-88900000D01*
X179000727Y-88969273D01*
X176530000Y-88969273D01*
X176530000Y-88900000D01*
X176524278Y-88850934D01*
X176497289Y-88832850D01*
X176460727Y-88830727D01*
X176530000Y-88830727D01*
X179000727Y-88830727D01*
X179000727Y-86937273D01*
X176530000Y-86937273D01*
X176530000Y-88830727D01*
X176460727Y-88830727D01*
X176391455Y-88830727D01*
X176391455Y-86937273D01*
X176460727Y-86937273D01*
X176509793Y-86931551D01*
X176527878Y-86904562D01*
X176530000Y-86868000D01*
X176530000Y-86798727D01*
X179000727Y-86798727D01*
X179000727Y-86868000D01*
G37*
D15*
X179000727Y-86868000D02*
X179006449Y-86917066D01*
X179033438Y-86935151D01*
X179070000Y-86937273D01*
X179139273Y-86937273D01*
X179139273Y-88830727D01*
X179070000Y-88830727D01*
X179020934Y-88836449D01*
X179002850Y-88863438D01*
X179000727Y-88900000D01*
X179000727Y-88969273D01*
X176530000Y-88969273D01*
X176530000Y-88900000D01*
X176524278Y-88850934D01*
X176497289Y-88832850D01*
X176460727Y-88830727D01*
X176530000Y-88830727D01*
X179000727Y-88830727D01*
X179000727Y-86937273D01*
X176530000Y-86937273D01*
X176530000Y-88830727D01*
X176460727Y-88830727D01*
X176391455Y-88830727D01*
X176391455Y-86937273D01*
X176460727Y-86937273D01*
X176509793Y-86931551D01*
X176527878Y-86904562D01*
X176530000Y-86868000D01*
X176530000Y-86798727D01*
X179000727Y-86798727D01*
X179000727Y-86868000D01*
G36*
X177268909Y-87676182D02*
G01*
X177107273Y-87676182D01*
X177107273Y-87376000D01*
X177268909Y-87376000D01*
X177268909Y-87676182D01*
G37*
X177268909Y-87676182D02*
X177107273Y-87676182D01*
X177107273Y-87376000D01*
X177268909Y-87376000D01*
X177268909Y-87676182D01*
G36*
X175952727Y-90262364D02*
G01*
X175952727Y-86660182D01*
X176033546Y-86660182D01*
X176087844Y-86656320D01*
X176110115Y-86636733D01*
X176114364Y-86590909D01*
X176120085Y-86541843D01*
X176147075Y-86523759D01*
X176183636Y-86521636D01*
X176230178Y-86517131D01*
X176249268Y-86494279D01*
X176252909Y-86440818D01*
X176252909Y-86360000D01*
X179277818Y-86360000D01*
X179277818Y-86440818D01*
X179281680Y-86495117D01*
X179301267Y-86517388D01*
X179347091Y-86521636D01*
X179396157Y-86527358D01*
X179414241Y-86554347D01*
X179416364Y-86590909D01*
X179420869Y-86637451D01*
X179443721Y-86656540D01*
X179497182Y-86660182D01*
X179578000Y-86660182D01*
X179578000Y-90262364D01*
X179416364Y-90262364D01*
X179416364Y-90978182D01*
X176114364Y-90978182D01*
X176114364Y-90839636D01*
X176252909Y-90839636D01*
X179277818Y-90839636D01*
X179277818Y-90400909D01*
X176252909Y-90400909D01*
X176252909Y-90839636D01*
X176114364Y-90839636D01*
X176114364Y-90262364D01*
X179416364Y-90262364D01*
X179416364Y-86660182D01*
X179347091Y-86660182D01*
X179298025Y-86654460D01*
X179279940Y-86627471D01*
X179277818Y-86590909D01*
X179277818Y-86521636D01*
X176252909Y-86521636D01*
X176252909Y-86590909D01*
X176247188Y-86639975D01*
X176220198Y-86658060D01*
X176183636Y-86660182D01*
X176114364Y-86660182D01*
X176114364Y-90262364D01*
X175952727Y-90262364D01*
G37*
X175952727Y-90262364D02*
X175952727Y-86660182D01*
X176033546Y-86660182D01*
X176087844Y-86656320D01*
X176110115Y-86636733D01*
X176114364Y-86590909D01*
X176120085Y-86541843D01*
X176147075Y-86523759D01*
X176183636Y-86521636D01*
X176230178Y-86517131D01*
X176249268Y-86494279D01*
X176252909Y-86440818D01*
X176252909Y-86360000D01*
X179277818Y-86360000D01*
X179277818Y-86440818D01*
X179281680Y-86495117D01*
X179301267Y-86517388D01*
X179347091Y-86521636D01*
X179396157Y-86527358D01*
X179414241Y-86554347D01*
X179416364Y-86590909D01*
X179420869Y-86637451D01*
X179443721Y-86656540D01*
X179497182Y-86660182D01*
X179578000Y-86660182D01*
X179578000Y-90262364D01*
X179416364Y-90262364D01*
X179416364Y-90978182D01*
X176114364Y-90978182D01*
X176114364Y-90839636D01*
X176252909Y-90839636D01*
X179277818Y-90839636D01*
X179277818Y-90400909D01*
X176252909Y-90400909D01*
X176252909Y-90839636D01*
X176114364Y-90839636D01*
X176114364Y-90262364D01*
X179416364Y-90262364D01*
X179416364Y-86660182D01*
X179347091Y-86660182D01*
X179298025Y-86654460D01*
X179279940Y-86627471D01*
X179277818Y-86590909D01*
X179277818Y-86521636D01*
X176252909Y-86521636D01*
X176252909Y-86590909D01*
X176247188Y-86639975D01*
X176220198Y-86658060D01*
X176183636Y-86660182D01*
X176114364Y-86660182D01*
X176114364Y-90262364D01*
X175952727Y-90262364D01*
G36*
X179000727Y-89685091D02*
G01*
X178123273Y-89685091D01*
X178123273Y-89546546D01*
X179000727Y-89546546D01*
X179000727Y-89685091D01*
G37*
X179000727Y-89685091D02*
X178123273Y-89685091D01*
X178123273Y-89546546D01*
X179000727Y-89546546D01*
X179000727Y-89685091D01*
G36*
X178103066Y-88259176D02*
G01*
X178121151Y-88286165D01*
X178123273Y-88322727D01*
X178117551Y-88371793D01*
X178090562Y-88389878D01*
X178054000Y-88392000D01*
X178004934Y-88397722D01*
X177986850Y-88424711D01*
X177984727Y-88461273D01*
X177984727Y-88530546D01*
X177407455Y-88530546D01*
X177407455Y-88461273D01*
X177401733Y-88412207D01*
X177374744Y-88394122D01*
X177338182Y-88392000D01*
X177289116Y-88386278D01*
X177271031Y-88359289D01*
X177268909Y-88322727D01*
X177274631Y-88273661D01*
X177301620Y-88255577D01*
X177338182Y-88253455D01*
X177387248Y-88259176D01*
X177405332Y-88286165D01*
X177407455Y-88322727D01*
X177407455Y-88392000D01*
X177984727Y-88392000D01*
X177984727Y-88322727D01*
X177990449Y-88273661D01*
X178017438Y-88255577D01*
X178054000Y-88253455D01*
X178103066Y-88259176D01*
G37*
X178103066Y-88259176D02*
X178121151Y-88286165D01*
X178123273Y-88322727D01*
X178117551Y-88371793D01*
X178090562Y-88389878D01*
X178054000Y-88392000D01*
X178004934Y-88397722D01*
X177986850Y-88424711D01*
X177984727Y-88461273D01*
X177984727Y-88530546D01*
X177407455Y-88530546D01*
X177407455Y-88461273D01*
X177401733Y-88412207D01*
X177374744Y-88394122D01*
X177338182Y-88392000D01*
X177289116Y-88386278D01*
X177271031Y-88359289D01*
X177268909Y-88322727D01*
X177274631Y-88273661D01*
X177301620Y-88255577D01*
X177338182Y-88253455D01*
X177387248Y-88259176D01*
X177405332Y-88286165D01*
X177407455Y-88322727D01*
X177407455Y-88392000D01*
X177984727Y-88392000D01*
X177984727Y-88322727D01*
X177990449Y-88273661D01*
X178017438Y-88255577D01*
X178054000Y-88253455D01*
X178103066Y-88259176D01*
G36*
X178261818Y-87676182D02*
G01*
X178123273Y-87676182D01*
X178123273Y-87376000D01*
X178261818Y-87376000D01*
X178261818Y-87676182D01*
G37*
X178261818Y-87676182D02*
X178123273Y-87676182D01*
X178123273Y-87376000D01*
X178261818Y-87376000D01*
X178261818Y-87676182D01*
G36*
X177846182Y-88091818D02*
G01*
X177546000Y-88091818D01*
X177546000Y-88022546D01*
X177551722Y-87973480D01*
X177578711Y-87955395D01*
X177615273Y-87953273D01*
X177684546Y-87953273D01*
X177684546Y-87376000D01*
X177846182Y-87376000D01*
X177846182Y-88091818D01*
G37*
X177846182Y-88091818D02*
X177546000Y-88091818D01*
X177546000Y-88022546D01*
X177551722Y-87973480D01*
X177578711Y-87955395D01*
X177615273Y-87953273D01*
X177684546Y-87953273D01*
X177684546Y-87376000D01*
X177846182Y-87376000D01*
X177846182Y-88091818D01*
G36*
X176691636Y-89823636D02*
G01*
X176391455Y-89823636D01*
X176391455Y-89685091D01*
X176691636Y-89685091D01*
X176691636Y-89823636D01*
G37*
X176691636Y-89823636D02*
X176391455Y-89823636D01*
X176391455Y-89685091D01*
X176691636Y-89685091D01*
X176691636Y-89823636D01*
G36*
X234778591Y-90807113D02*
G01*
X234753688Y-90789318D01*
X234734413Y-90775679D01*
X234719508Y-90765428D01*
X234707713Y-90757799D01*
X234697769Y-90752024D01*
X234688416Y-90747336D01*
X234678394Y-90742967D01*
X234666445Y-90738151D01*
X234663400Y-90736943D01*
X234596898Y-90706521D01*
X234530484Y-90668260D01*
X234464942Y-90622758D01*
X234401055Y-90570615D01*
X234339609Y-90512429D01*
X234281386Y-90448799D01*
X234272974Y-90438816D01*
X234225913Y-90377202D01*
X234183160Y-90310855D01*
X234145348Y-90241139D01*
X234113107Y-90169417D01*
X234087071Y-90097054D01*
X234067871Y-90025413D01*
X234058924Y-89977004D01*
X234053626Y-89948727D01*
X234045710Y-89919134D01*
X234034463Y-89885683D01*
X234029562Y-89872474D01*
X234013266Y-89828323D01*
X233999766Y-89790037D01*
X234268934Y-89790037D01*
X234269004Y-89814900D01*
X234269942Y-89836591D01*
X234271890Y-89857750D01*
X234274990Y-89881014D01*
X234276774Y-89892716D01*
X234287013Y-89946310D01*
X234300994Y-90001542D01*
X234318152Y-90056990D01*
X234337923Y-90111229D01*
X234359746Y-90162837D01*
X234383056Y-90210391D01*
X234407290Y-90252467D01*
X234431884Y-90287643D01*
X234434281Y-90290650D01*
X234453397Y-90313194D01*
X234476300Y-90338391D01*
X234501541Y-90364800D01*
X234527670Y-90390978D01*
X234553237Y-90415485D01*
X234576793Y-90436878D01*
X234596887Y-90453716D01*
X234602866Y-90458290D01*
X234671719Y-90504771D01*
X234742040Y-90543531D01*
X234813360Y-90574350D01*
X234885206Y-90597007D01*
X234912245Y-90603366D01*
X234930441Y-90607163D01*
X234945232Y-90609884D01*
X234958607Y-90611673D01*
X234972553Y-90612676D01*
X234989058Y-90613037D01*
X235010110Y-90612900D01*
X235036783Y-90612427D01*
X235065917Y-90611614D01*
X235088579Y-90610325D01*
X235106759Y-90608352D01*
X235122445Y-90605484D01*
X235136236Y-90601917D01*
X235170637Y-90589762D01*
X235200230Y-90574861D01*
X235223562Y-90558010D01*
X235232360Y-90549180D01*
X235249936Y-90524174D01*
X235265387Y-90492493D01*
X235277988Y-90455811D01*
X235284689Y-90428233D01*
X235288604Y-90407485D01*
X235290999Y-90389717D01*
X235292053Y-90372027D01*
X235291947Y-90351515D01*
X235290962Y-90327304D01*
X235289617Y-90305360D01*
X235287940Y-90285685D01*
X235286130Y-90270240D01*
X235284387Y-90260988D01*
X235284134Y-90260231D01*
X235281650Y-90251327D01*
X235278478Y-90236662D01*
X235275169Y-90218856D01*
X235273952Y-90211583D01*
X235267142Y-90177015D01*
X235257398Y-90140305D01*
X235244236Y-90099841D01*
X235227170Y-90054011D01*
X235224504Y-90047233D01*
X235193393Y-89976343D01*
X235158082Y-89911095D01*
X235117492Y-89849848D01*
X235070546Y-89790961D01*
X235039207Y-89757250D01*
X235411470Y-89757250D01*
X235411807Y-89786440D01*
X235413035Y-89811233D01*
X235415503Y-89834165D01*
X235419560Y-89857775D01*
X235425553Y-89884599D01*
X235432968Y-89913883D01*
X235454314Y-89979060D01*
X235483185Y-90041067D01*
X235519095Y-90099474D01*
X235561557Y-90153847D01*
X235610084Y-90203756D01*
X235664190Y-90248768D01*
X235723388Y-90288451D01*
X235787192Y-90322375D01*
X235855115Y-90350107D01*
X235926670Y-90371215D01*
X235955545Y-90377576D01*
X235982996Y-90382248D01*
X236014313Y-90386267D01*
X236046978Y-90389419D01*
X236078473Y-90391495D01*
X236106278Y-90392281D01*
X236124750Y-90391803D01*
X236139384Y-90390825D01*
X236158668Y-90389507D01*
X236161102Y-90389338D01*
X236859486Y-90389338D01*
X236859910Y-90406880D01*
X236860996Y-90421212D01*
X236862854Y-90434083D01*
X236865599Y-90447244D01*
X236867754Y-90456156D01*
X236880211Y-90497658D01*
X236894891Y-90531071D01*
X236911836Y-90556485D01*
X236917907Y-90563107D01*
X236939623Y-90580568D01*
X236967671Y-90596656D01*
X236999930Y-90610456D01*
X237034277Y-90621052D01*
X237066666Y-90627285D01*
X237089505Y-90629335D01*
X237117705Y-90630481D01*
X237148362Y-90630732D01*
X237178574Y-90630095D01*
X237205440Y-90628578D01*
X237221622Y-90626870D01*
X237239578Y-90623705D01*
X237262318Y-90618736D01*
X237286557Y-90612721D01*
X237303547Y-90608033D01*
X237365878Y-90587811D01*
X237422898Y-90564612D01*
X237476029Y-90537566D01*
X237526696Y-90505804D01*
X237576320Y-90468457D01*
X237626326Y-90424654D01*
X237664476Y-90387509D01*
X237710944Y-90338781D01*
X237750756Y-90293003D01*
X237784646Y-90248985D01*
X237813343Y-90205536D01*
X237837577Y-90161466D01*
X237858081Y-90115585D01*
X237875585Y-90066702D01*
X237888432Y-90022717D01*
X237900512Y-89966584D01*
X237908470Y-89905395D01*
X237912184Y-89841554D01*
X237911533Y-89777468D01*
X237906393Y-89715542D01*
X237904645Y-89702422D01*
X237894114Y-89639662D01*
X237881462Y-89584365D01*
X237866436Y-89535732D01*
X237848778Y-89492968D01*
X237828233Y-89455275D01*
X237822659Y-89446615D01*
X237801564Y-89420067D01*
X237776858Y-89399156D01*
X237747413Y-89383233D01*
X237712103Y-89371651D01*
X237681294Y-89365456D01*
X237655636Y-89364128D01*
X237624670Y-89367013D01*
X237590158Y-89373666D01*
X237553864Y-89383643D01*
X237517551Y-89396500D01*
X237482982Y-89411793D01*
X237469389Y-89418845D01*
X237408358Y-89455750D01*
X237345575Y-89500868D01*
X237281105Y-89554141D01*
X237215014Y-89615514D01*
X237147371Y-89684929D01*
X237118005Y-89717033D01*
X237069213Y-89776787D01*
X237023753Y-89843386D01*
X236982206Y-89915669D01*
X236945152Y-89992474D01*
X236913170Y-90072640D01*
X236886840Y-90155005D01*
X236873654Y-90206468D01*
X236869271Y-90226483D01*
X236866028Y-90244562D01*
X236863709Y-90262811D01*
X236862097Y-90283332D01*
X236860977Y-90308231D01*
X236860176Y-90337623D01*
X236859612Y-90366836D01*
X236859486Y-90389338D01*
X236161102Y-90389338D01*
X236178808Y-90388109D01*
X236181900Y-90387892D01*
X236241999Y-90380187D01*
X236304378Y-90365699D01*
X236367240Y-90345066D01*
X236428790Y-90318928D01*
X236487232Y-90287922D01*
X236518830Y-90268072D01*
X236578767Y-90223175D01*
X236631957Y-90173215D01*
X236678316Y-90118302D01*
X236717763Y-90058543D01*
X236750213Y-89994048D01*
X236772055Y-89936132D01*
X236784798Y-89892628D01*
X236793300Y-89852523D01*
X236798018Y-89812561D01*
X236799412Y-89769484D01*
X236798983Y-89745011D01*
X236792973Y-89673237D01*
X236779427Y-89605093D01*
X236758227Y-89540312D01*
X236729255Y-89478624D01*
X236692392Y-89419760D01*
X236647521Y-89363451D01*
X236617920Y-89331996D01*
X236562057Y-89281809D01*
X236501315Y-89238242D01*
X236436320Y-89201480D01*
X236367694Y-89171708D01*
X236296064Y-89149111D01*
X236222052Y-89133875D01*
X236146284Y-89126184D01*
X236069383Y-89126224D01*
X235991974Y-89134180D01*
X235966000Y-89138655D01*
X235892017Y-89156499D01*
X235821877Y-89180953D01*
X235755957Y-89211596D01*
X235694631Y-89248009D01*
X235638276Y-89289773D01*
X235587269Y-89336468D01*
X235541985Y-89387675D01*
X235502801Y-89442973D01*
X235470092Y-89501943D01*
X235444236Y-89564166D01*
X235425607Y-89629222D01*
X235414583Y-89696691D01*
X235411470Y-89757250D01*
X235039207Y-89757250D01*
X235020735Y-89737381D01*
X234962458Y-89681888D01*
X234903571Y-89632179D01*
X234844510Y-89588452D01*
X234785714Y-89550909D01*
X234727620Y-89519750D01*
X234670664Y-89495174D01*
X234615286Y-89477382D01*
X234561921Y-89466574D01*
X234511008Y-89462950D01*
X234462983Y-89466710D01*
X234439665Y-89471555D01*
X234405161Y-89482044D01*
X234377453Y-89494711D01*
X234354915Y-89510858D01*
X234335921Y-89531782D01*
X234318846Y-89558783D01*
X234310664Y-89574673D01*
X234297469Y-89603227D01*
X234287466Y-89629011D01*
X234280186Y-89654133D01*
X234275161Y-89680702D01*
X234271921Y-89710829D01*
X234269997Y-89746621D01*
X234269589Y-89759366D01*
X234268934Y-89790037D01*
X233999766Y-89790037D01*
X233997164Y-89782658D01*
X233981732Y-89736960D01*
X233967444Y-89692712D01*
X233954775Y-89651395D01*
X233944199Y-89614492D01*
X233936193Y-89583485D01*
X233934288Y-89575216D01*
X233927787Y-89548063D01*
X233921633Y-89526521D01*
X233916139Y-89511598D01*
X233912647Y-89505366D01*
X233895081Y-89482976D01*
X233875785Y-89457542D01*
X233856146Y-89430965D01*
X233837545Y-89405142D01*
X233821369Y-89381972D01*
X233809001Y-89363354D01*
X233808225Y-89362130D01*
X233781202Y-89315751D01*
X233756088Y-89265745D01*
X233733615Y-89213977D01*
X233714514Y-89162308D01*
X233699520Y-89112603D01*
X233689364Y-89066725D01*
X233687536Y-89055166D01*
X233684339Y-89037408D01*
X233680744Y-89025123D01*
X233677186Y-89019796D01*
X233677166Y-89019789D01*
X233675545Y-89015113D01*
X233674166Y-89003286D01*
X233673036Y-88985605D01*
X233672156Y-88963367D01*
X233671533Y-88937868D01*
X233671169Y-88910406D01*
X233671070Y-88882277D01*
X233671228Y-88856853D01*
X233913266Y-88856853D01*
X233913705Y-88885061D01*
X233913994Y-88897883D01*
X233914858Y-88928906D01*
X233915937Y-88953548D01*
X233917452Y-88973892D01*
X233919623Y-88992023D01*
X233922670Y-89010025D01*
X233926815Y-89029983D01*
X233928993Y-89039699D01*
X233948086Y-89112227D01*
X233970928Y-89177710D01*
X233997868Y-89236854D01*
X234029253Y-89290370D01*
X234065432Y-89338965D01*
X234089534Y-89366000D01*
X234112899Y-89389127D01*
X234132235Y-89405102D01*
X234147768Y-89414094D01*
X234157550Y-89416370D01*
X234164819Y-89415446D01*
X234176603Y-89413007D01*
X234181856Y-89411739D01*
X234202901Y-89402435D01*
X234224494Y-89385312D01*
X234246233Y-89360966D01*
X234267721Y-89329990D01*
X234288555Y-89292980D01*
X234308337Y-89250532D01*
X234326667Y-89203238D01*
X234331443Y-89189331D01*
X234354773Y-89114137D01*
X234375307Y-89036171D01*
X234393373Y-88953975D01*
X234409296Y-88866092D01*
X234420819Y-88789933D01*
X234426910Y-88736004D01*
X234430920Y-88677928D01*
X234431726Y-88652349D01*
X234647695Y-88652349D01*
X234647755Y-88682228D01*
X234648192Y-88705738D01*
X234649182Y-88724974D01*
X234650902Y-88742031D01*
X234653529Y-88759004D01*
X234657239Y-88777988D01*
X234658961Y-88786129D01*
X234676135Y-88852753D01*
X234697925Y-88912955D01*
X234724850Y-88967719D01*
X234757425Y-89018033D01*
X234796166Y-89064879D01*
X234815541Y-89084887D01*
X234856569Y-89122096D01*
X234898756Y-89153437D01*
X234943577Y-89179692D01*
X234992503Y-89201639D01*
X235047007Y-89220060D01*
X235093933Y-89232387D01*
X235111694Y-89236383D01*
X235126858Y-89239146D01*
X235141587Y-89240840D01*
X235158044Y-89241629D01*
X235178391Y-89241677D01*
X235204790Y-89241148D01*
X235208233Y-89241059D01*
X235242947Y-89239726D01*
X235272087Y-89237525D01*
X235298528Y-89234160D01*
X235325144Y-89229332D01*
X235329177Y-89228495D01*
X235407193Y-89207839D01*
X235481829Y-89179457D01*
X235552905Y-89143459D01*
X235620244Y-89099956D01*
X235683667Y-89049058D01*
X235742995Y-88990877D01*
X235779706Y-88948683D01*
X235822824Y-88890512D01*
X235860923Y-88828002D01*
X235893643Y-88762234D01*
X235920625Y-88694289D01*
X235941509Y-88625246D01*
X235955935Y-88556188D01*
X235963543Y-88488193D01*
X235963834Y-88443606D01*
X236246189Y-88443606D01*
X236253712Y-88518517D01*
X236269381Y-88593893D01*
X236293160Y-88669424D01*
X236325012Y-88744799D01*
X236336869Y-88768766D01*
X236379186Y-88842444D01*
X236427623Y-88910329D01*
X236482033Y-88972274D01*
X236542267Y-89028131D01*
X236608178Y-89077753D01*
X236679615Y-89120993D01*
X236704716Y-89134005D01*
X236770452Y-89162742D01*
X236838109Y-89184695D01*
X236906571Y-89199667D01*
X236974722Y-89207462D01*
X237041443Y-89207881D01*
X237093631Y-89202685D01*
X237125331Y-89196441D01*
X237160858Y-89187022D01*
X237197368Y-89175361D01*
X237232021Y-89162387D01*
X237261972Y-89149032D01*
X237269866Y-89144956D01*
X237323605Y-89111513D01*
X237374055Y-89071218D01*
X237420043Y-89025277D01*
X237460399Y-88974896D01*
X237493950Y-88921280D01*
X237501718Y-88906349D01*
X237509877Y-88887699D01*
X237519106Y-88862936D01*
X237528743Y-88834233D01*
X237538127Y-88803765D01*
X237546598Y-88773707D01*
X237553493Y-88746232D01*
X237558151Y-88723516D01*
X237559012Y-88717966D01*
X237561271Y-88694973D01*
X237562718Y-88666031D01*
X237563359Y-88633617D01*
X237563199Y-88600210D01*
X237562242Y-88568288D01*
X237560492Y-88540327D01*
X237559450Y-88530741D01*
X237751250Y-88530741D01*
X237751331Y-88568519D01*
X237755936Y-88688651D01*
X237767078Y-88804510D01*
X237784980Y-88917461D01*
X237809862Y-89028869D01*
X237841946Y-89140100D01*
X237846023Y-89152685D01*
X237859060Y-89189573D01*
X237873887Y-89226586D01*
X237889705Y-89262012D01*
X237905711Y-89294134D01*
X237921104Y-89321238D01*
X237933204Y-89339180D01*
X237953248Y-89362099D01*
X237974423Y-89379851D01*
X237995540Y-89391716D01*
X238015410Y-89396974D01*
X238027633Y-89396401D01*
X238038971Y-89393080D01*
X238051738Y-89388043D01*
X238052124Y-89387867D01*
X238065121Y-89379232D01*
X238081198Y-89364355D01*
X238099424Y-89344454D01*
X238118870Y-89320746D01*
X238138608Y-89294448D01*
X238157708Y-89266777D01*
X238175241Y-89238949D01*
X238190278Y-89212183D01*
X238197677Y-89197222D01*
X238228411Y-89121373D01*
X238250816Y-89044039D01*
X238264884Y-88965249D01*
X238269016Y-88922040D01*
X238270406Y-88842072D01*
X238263821Y-88764188D01*
X238249403Y-88688773D01*
X238227292Y-88616212D01*
X238197630Y-88546888D01*
X238160556Y-88481187D01*
X238116212Y-88419492D01*
X238064739Y-88362188D01*
X238063303Y-88360756D01*
X238036052Y-88335165D01*
X238006889Y-88310423D01*
X237977219Y-88287539D01*
X237948448Y-88267526D01*
X237921982Y-88251394D01*
X237899227Y-88240154D01*
X237891708Y-88237331D01*
X237879685Y-88233615D01*
X237871167Y-88232607D01*
X237862685Y-88234638D01*
X237850772Y-88240038D01*
X237847720Y-88241529D01*
X237829936Y-88251830D01*
X237815309Y-88264372D01*
X237802998Y-88280447D01*
X237792158Y-88301346D01*
X237781946Y-88328361D01*
X237773823Y-88354684D01*
X237765517Y-88386592D01*
X237759294Y-88418373D01*
X237754966Y-88451806D01*
X237752347Y-88488669D01*
X237751250Y-88530741D01*
X237559450Y-88530741D01*
X237558633Y-88523233D01*
X237545329Y-88454225D01*
X237524868Y-88383824D01*
X237497929Y-88313853D01*
X237465186Y-88246136D01*
X237439003Y-88200774D01*
X237396704Y-88139638D01*
X237347462Y-88080913D01*
X237292762Y-88026213D01*
X237234092Y-87977147D01*
X237229858Y-87973953D01*
X237196958Y-87951091D01*
X237159927Y-87928394D01*
X237120659Y-87906818D01*
X237081046Y-87887317D01*
X237042982Y-87870844D01*
X237008360Y-87858354D01*
X236990466Y-87853278D01*
X236958474Y-87845365D01*
X236933142Y-87839213D01*
X236912897Y-87834603D01*
X236896166Y-87831319D01*
X236881377Y-87829143D01*
X236866957Y-87827856D01*
X236851333Y-87827240D01*
X236832933Y-87827079D01*
X236810184Y-87827155D01*
X236802083Y-87827192D01*
X236773690Y-87827371D01*
X236751761Y-87827784D01*
X236734297Y-87828658D01*
X236719294Y-87830219D01*
X236704751Y-87832692D01*
X236688667Y-87836306D01*
X236669041Y-87841285D01*
X236662612Y-87842962D01*
X236600211Y-87862600D01*
X236543613Y-87887632D01*
X236491577Y-87918753D01*
X236442865Y-87956657D01*
X236417351Y-87980342D01*
X236376631Y-88024341D01*
X236342391Y-88070400D01*
X236313726Y-88120049D01*
X236289733Y-88174818D01*
X236272867Y-88224768D01*
X236255730Y-88296421D01*
X236246850Y-88369470D01*
X236246189Y-88443606D01*
X235963834Y-88443606D01*
X235963973Y-88422343D01*
X235962374Y-88400139D01*
X235955818Y-88344388D01*
X235946954Y-88294864D01*
X235935259Y-88249514D01*
X235920208Y-88206287D01*
X235902417Y-88165516D01*
X235870992Y-88109150D01*
X235832622Y-88056780D01*
X235788144Y-88009149D01*
X235738396Y-87967000D01*
X235684213Y-87931074D01*
X235626434Y-87902115D01*
X235589697Y-87888160D01*
X235575482Y-87884070D01*
X235556296Y-87879496D01*
X235533635Y-87874694D01*
X235508995Y-87869923D01*
X235483869Y-87865440D01*
X235459754Y-87861502D01*
X235438144Y-87858367D01*
X235420535Y-87856291D01*
X235408422Y-87855532D01*
X235403544Y-87856126D01*
X235398400Y-87857204D01*
X235386580Y-87858790D01*
X235369840Y-87860671D01*
X235349939Y-87862633D01*
X235349920Y-87862635D01*
X235274072Y-87873851D01*
X235200232Y-87893214D01*
X235128696Y-87920579D01*
X235059759Y-87955800D01*
X234993717Y-87998734D01*
X234930868Y-88049235D01*
X234890194Y-88087733D01*
X234832790Y-88151302D01*
X234782967Y-88218596D01*
X234740624Y-88289802D01*
X234705660Y-88365106D01*
X234677973Y-88444695D01*
X234661488Y-88509295D01*
X234656595Y-88532380D01*
X234653027Y-88551379D01*
X234650575Y-88568486D01*
X234649025Y-88585892D01*
X234648167Y-88605791D01*
X234647789Y-88630375D01*
X234647695Y-88652349D01*
X234431726Y-88652349D01*
X234432799Y-88618342D01*
X234432496Y-88559881D01*
X234429958Y-88505181D01*
X234427020Y-88472292D01*
X234419752Y-88419897D01*
X234410278Y-88375192D01*
X234398425Y-88337648D01*
X234384022Y-88306736D01*
X234366896Y-88281927D01*
X234363877Y-88278472D01*
X234345383Y-88262418D01*
X234325432Y-88254001D01*
X234303446Y-88253203D01*
X234278850Y-88260008D01*
X234251067Y-88274401D01*
X234249657Y-88275275D01*
X234192505Y-88314780D01*
X234139210Y-88359358D01*
X234090783Y-88407942D01*
X234048232Y-88459465D01*
X234012570Y-88512860D01*
X233995997Y-88543157D01*
X233961944Y-88619611D01*
X233936288Y-88696931D01*
X233921140Y-88763060D01*
X233917878Y-88782026D01*
X233915563Y-88798936D01*
X233914092Y-88815743D01*
X233913361Y-88834397D01*
X233913266Y-88856853D01*
X233671228Y-88856853D01*
X233671241Y-88854779D01*
X233671684Y-88829207D01*
X233672404Y-88806860D01*
X233673407Y-88789034D01*
X233674695Y-88777025D01*
X233676274Y-88772131D01*
X233676341Y-88772102D01*
X233678842Y-88767592D01*
X233682463Y-88756274D01*
X233686790Y-88739669D01*
X233691405Y-88719293D01*
X233693254Y-88710354D01*
X233708775Y-88644591D01*
X233728463Y-88582308D01*
X233753386Y-88520398D01*
X233772950Y-88478783D01*
X233814482Y-88402490D01*
X233860710Y-88331919D01*
X233911219Y-88267574D01*
X233965596Y-88209962D01*
X234023428Y-88159588D01*
X234050416Y-88139454D01*
X234069199Y-88125825D01*
X234082601Y-88115035D01*
X234092355Y-88105335D01*
X234100196Y-88094975D01*
X234107859Y-88082206D01*
X234108733Y-88080637D01*
X234116663Y-88065633D01*
X234122899Y-88052514D01*
X234126251Y-88043811D01*
X234126429Y-88043055D01*
X234129081Y-88026529D01*
X234131985Y-88003423D01*
X234134951Y-87975613D01*
X234137607Y-87946901D01*
X234391200Y-87946901D01*
X234391295Y-87971615D01*
X234391703Y-87989374D01*
X234392600Y-88001689D01*
X234394166Y-88010069D01*
X234396579Y-88016026D01*
X234399973Y-88021012D01*
X234410626Y-88029334D01*
X234425598Y-88032107D01*
X234445603Y-88029340D01*
X234469488Y-88021747D01*
X234494476Y-88011555D01*
X234520608Y-87999242D01*
X234548660Y-87984336D01*
X234579407Y-87966368D01*
X234613625Y-87944867D01*
X234652089Y-87919364D01*
X234695575Y-87889387D01*
X234742047Y-87856479D01*
X234790448Y-87820746D01*
X234842305Y-87780444D01*
X234896477Y-87736579D01*
X234951826Y-87690156D01*
X235007213Y-87642181D01*
X235061497Y-87593660D01*
X235113541Y-87545599D01*
X235162205Y-87499003D01*
X235206349Y-87454879D01*
X235221756Y-87438606D01*
X235476260Y-87438606D01*
X235477674Y-87471835D01*
X235486726Y-87506235D01*
X235503188Y-87541163D01*
X235526826Y-87575973D01*
X235554525Y-87607153D01*
X235597739Y-87644961D01*
X235648122Y-87678911D01*
X235705214Y-87708830D01*
X235768561Y-87734542D01*
X235837704Y-87755871D01*
X235912188Y-87772643D01*
X235991555Y-87784683D01*
X236027383Y-87788389D01*
X236050891Y-87790369D01*
X236071501Y-87791736D01*
X236090873Y-87792478D01*
X236110669Y-87792580D01*
X236132550Y-87792030D01*
X236158178Y-87790814D01*
X236189215Y-87788919D01*
X236220000Y-87786840D01*
X236287666Y-87779952D01*
X236354785Y-87768887D01*
X236419519Y-87754073D01*
X236480031Y-87735938D01*
X236534484Y-87714909D01*
X236540488Y-87712228D01*
X236581458Y-87690954D01*
X236619440Y-87666003D01*
X236653383Y-87638341D01*
X236682236Y-87608936D01*
X236704949Y-87578756D01*
X236720471Y-87548768D01*
X236721828Y-87545152D01*
X236731903Y-87505990D01*
X236733852Y-87467086D01*
X236727621Y-87428288D01*
X236713156Y-87389446D01*
X236690402Y-87350410D01*
X236659306Y-87311029D01*
X236625380Y-87276327D01*
X236589937Y-87246082D01*
X236835675Y-87246082D01*
X236838039Y-87257363D01*
X236838174Y-87257866D01*
X236846701Y-87279538D01*
X236861665Y-87305795D01*
X236882675Y-87336209D01*
X236909343Y-87370355D01*
X236941280Y-87407805D01*
X236978097Y-87448132D01*
X237019405Y-87490911D01*
X237064816Y-87535715D01*
X237113940Y-87582116D01*
X237166388Y-87629689D01*
X237219066Y-87675690D01*
X237289009Y-87734678D01*
X237356110Y-87789296D01*
X237420043Y-87839315D01*
X237480479Y-87884506D01*
X237537090Y-87924640D01*
X237589549Y-87959488D01*
X237637528Y-87988821D01*
X237680699Y-88012411D01*
X237718733Y-88030029D01*
X237736352Y-88036747D01*
X237760723Y-88044423D01*
X237779122Y-88048126D01*
X237793011Y-88047944D01*
X237803848Y-88043960D01*
X237808089Y-88040975D01*
X237811892Y-88037577D01*
X237814564Y-88033644D01*
X237816283Y-88027767D01*
X237817227Y-88018535D01*
X237817576Y-88004540D01*
X237817507Y-87984372D01*
X237817331Y-87967950D01*
X237816027Y-87923197D01*
X237812960Y-87882460D01*
X237807748Y-87843491D01*
X237800008Y-87804042D01*
X237789357Y-87761868D01*
X237775413Y-87714721D01*
X237772734Y-87706200D01*
X237746120Y-87635577D01*
X237712268Y-87569166D01*
X237671034Y-87506736D01*
X237622273Y-87448059D01*
X237587376Y-87412681D01*
X237538677Y-87371295D01*
X237483446Y-87333141D01*
X237423261Y-87299020D01*
X237359698Y-87269735D01*
X237294338Y-87246086D01*
X237228756Y-87228876D01*
X237223507Y-87227794D01*
X237162688Y-87217977D01*
X237097153Y-87211817D01*
X237029880Y-87209435D01*
X236963845Y-87210949D01*
X236912149Y-87215248D01*
X236883850Y-87218743D01*
X236863041Y-87222164D01*
X236848772Y-87226060D01*
X236840089Y-87230979D01*
X236836041Y-87237470D01*
X236835675Y-87246082D01*
X236589937Y-87246082D01*
X236578771Y-87236554D01*
X236527662Y-87200913D01*
X236471244Y-87168973D01*
X236408710Y-87140302D01*
X236339249Y-87114469D01*
X236297139Y-87101115D01*
X236264960Y-87091924D01*
X236236475Y-87085001D01*
X236209447Y-87080040D01*
X236181637Y-87076733D01*
X236150809Y-87074775D01*
X236114726Y-87073857D01*
X236097233Y-87073708D01*
X236067783Y-87073686D01*
X236044537Y-87074081D01*
X236025232Y-87075089D01*
X236007607Y-87076901D01*
X235989403Y-87079712D01*
X235968357Y-87083715D01*
X235959650Y-87085485D01*
X235896596Y-87100342D01*
X235839434Y-87118132D01*
X235785821Y-87139820D01*
X235733413Y-87166370D01*
X235679868Y-87198745D01*
X235672231Y-87203742D01*
X235623164Y-87238671D01*
X235580275Y-87274496D01*
X235544023Y-87310724D01*
X235514868Y-87346861D01*
X235493270Y-87382413D01*
X235482718Y-87407191D01*
X235476260Y-87438606D01*
X235221756Y-87438606D01*
X235244834Y-87414231D01*
X235252266Y-87406036D01*
X235279984Y-87374720D01*
X235302525Y-87348060D01*
X235320804Y-87324832D01*
X235335736Y-87303813D01*
X235348236Y-87283777D01*
X235359218Y-87263501D01*
X235360133Y-87261682D01*
X235368119Y-87244919D01*
X235372757Y-87231876D01*
X235373338Y-87221949D01*
X235369150Y-87214534D01*
X235359483Y-87209025D01*
X235343626Y-87204818D01*
X235320869Y-87201308D01*
X235290501Y-87197891D01*
X235284433Y-87197265D01*
X235201916Y-87192287D01*
X235120134Y-87194137D01*
X235039949Y-87202629D01*
X234962220Y-87217581D01*
X234887808Y-87238806D01*
X234817573Y-87266120D01*
X234752377Y-87299339D01*
X234722194Y-87317936D01*
X234659128Y-87363705D01*
X234603027Y-87413859D01*
X234553659Y-87468729D01*
X234510787Y-87528649D01*
X234474177Y-87593948D01*
X234443596Y-87664959D01*
X234418807Y-87742013D01*
X234416796Y-87749466D01*
X234403562Y-87807034D01*
X234395321Y-87862638D01*
X234391563Y-87920200D01*
X234391200Y-87946901D01*
X234137607Y-87946901D01*
X234137786Y-87944974D01*
X234140299Y-87913380D01*
X234141584Y-87894583D01*
X234143887Y-87861077D01*
X234146271Y-87833640D01*
X234149073Y-87809878D01*
X234152630Y-87787397D01*
X234157280Y-87763802D01*
X234163359Y-87736701D01*
X234164553Y-87731600D01*
X234187501Y-87648525D01*
X234216170Y-87570899D01*
X234250901Y-87498240D01*
X234292033Y-87430066D01*
X234339908Y-87365895D01*
X234394866Y-87305244D01*
X234457247Y-87247632D01*
X234527392Y-87192576D01*
X234562649Y-87167778D01*
X234583098Y-87154065D01*
X234603998Y-87140391D01*
X234622851Y-87128372D01*
X234636733Y-87119872D01*
X234650204Y-87111874D01*
X234660605Y-87105591D01*
X234665978Y-87102208D01*
X234666244Y-87102012D01*
X234665547Y-87099003D01*
X234657622Y-87094472D01*
X234642123Y-87088258D01*
X234621916Y-87081259D01*
X234581972Y-87066160D01*
X234549459Y-87049896D01*
X234531198Y-87037791D01*
X234519888Y-87026906D01*
X234507521Y-87011510D01*
X234495902Y-86994264D01*
X234486833Y-86977828D01*
X234482267Y-86965599D01*
X234479125Y-86956370D01*
X234473324Y-86948982D01*
X234463391Y-86942389D01*
X234447848Y-86935544D01*
X234431416Y-86929544D01*
X234387808Y-86911158D01*
X234351543Y-86888893D01*
X234322280Y-86862430D01*
X234299681Y-86831452D01*
X234283407Y-86795640D01*
X234281084Y-86788529D01*
X234276059Y-86773591D01*
X234271250Y-86761506D01*
X234267805Y-86755060D01*
X234262396Y-86750223D01*
X234251851Y-86742019D01*
X234238022Y-86731863D01*
X234230851Y-86726775D01*
X234202797Y-86704867D01*
X234176487Y-86680150D01*
X234153610Y-86654438D01*
X234135852Y-86629544D01*
X234129236Y-86617597D01*
X234117870Y-86587418D01*
X234111511Y-86557236D01*
X234106929Y-86523755D01*
X234074139Y-86491619D01*
X234052826Y-86469040D01*
X234037172Y-86448249D01*
X234027088Y-86430457D01*
X234020809Y-86417057D01*
X234016587Y-86405659D01*
X234013916Y-86393815D01*
X234012293Y-86379075D01*
X234011212Y-86358991D01*
X234010942Y-86352197D01*
X234009057Y-86302964D01*
X233982421Y-86265868D01*
X233969846Y-86247565D01*
X233957905Y-86228810D01*
X233948341Y-86212404D01*
X233944619Y-86205171D01*
X233934135Y-86173963D01*
X233930456Y-86140598D01*
X233933816Y-86107904D01*
X233935854Y-86099924D01*
X233943030Y-86075241D01*
X233927705Y-86051462D01*
X233906727Y-86014629D01*
X233893357Y-85980489D01*
X233888977Y-85956111D01*
X234073694Y-85956111D01*
X234076476Y-85963730D01*
X234084002Y-85975848D01*
X234095061Y-85990943D01*
X234108441Y-86007495D01*
X234122930Y-86023985D01*
X234137317Y-86038893D01*
X234146405Y-86047334D01*
X234177940Y-86075371D01*
X234202728Y-86098470D01*
X234220845Y-86116707D01*
X234232365Y-86130159D01*
X234237363Y-86138905D01*
X234237416Y-86141599D01*
X234229430Y-86151011D01*
X234213904Y-86157121D01*
X234190745Y-86159952D01*
X234159858Y-86159524D01*
X234159241Y-86159487D01*
X234115666Y-86156858D01*
X234129390Y-86176937D01*
X234138942Y-86189414D01*
X234152907Y-86205217D01*
X234171716Y-86224786D01*
X234195804Y-86248561D01*
X234225602Y-86276982D01*
X234253777Y-86303297D01*
X234269620Y-86318223D01*
X234282956Y-86331234D01*
X234292670Y-86341208D01*
X234297648Y-86347022D01*
X234298066Y-86347893D01*
X234294106Y-86353220D01*
X234283315Y-86358108D01*
X234267329Y-86362129D01*
X234247786Y-86364855D01*
X234229481Y-86365835D01*
X234192645Y-86366350D01*
X234206197Y-86380516D01*
X234222603Y-86396332D01*
X234244661Y-86415618D01*
X234270936Y-86437212D01*
X234299992Y-86459951D01*
X234330395Y-86482676D01*
X234348700Y-86495830D01*
X234369378Y-86510501D01*
X234383982Y-86521147D01*
X234393360Y-86528618D01*
X234398361Y-86533765D01*
X234399830Y-86537440D01*
X234398617Y-86540494D01*
X234396013Y-86543334D01*
X234389576Y-86547696D01*
X234379187Y-86551044D01*
X234363215Y-86553784D01*
X234346099Y-86555732D01*
X234328043Y-86557800D01*
X234313202Y-86559989D01*
X234303570Y-86561980D01*
X234301087Y-86562974D01*
X234302408Y-86566968D01*
X234310350Y-86574381D01*
X234324057Y-86584667D01*
X234342670Y-86597277D01*
X234365331Y-86611665D01*
X234391183Y-86627283D01*
X234419367Y-86643584D01*
X234449026Y-86660022D01*
X234474354Y-86673484D01*
X234566095Y-86721243D01*
X234554778Y-86730978D01*
X234543157Y-86738215D01*
X234526674Y-86745290D01*
X234508864Y-86750929D01*
X234493258Y-86753857D01*
X234490973Y-86753997D01*
X234479412Y-86755855D01*
X234473749Y-86757623D01*
X234471987Y-86761035D01*
X234477581Y-86766583D01*
X234489782Y-86773951D01*
X234507844Y-86782819D01*
X234531020Y-86792870D01*
X234558561Y-86803785D01*
X234589721Y-86815247D01*
X234623752Y-86826936D01*
X234659906Y-86838536D01*
X234673775Y-86842773D01*
X234694869Y-86849284D01*
X234712743Y-86855100D01*
X234725987Y-86859740D01*
X234733188Y-86862718D01*
X234734084Y-86863414D01*
X234732069Y-86868317D01*
X234727121Y-86877248D01*
X234725911Y-86879260D01*
X234714604Y-86891267D01*
X234695750Y-86903114D01*
X234691067Y-86905446D01*
X234664381Y-86918254D01*
X234677015Y-86923183D01*
X234715209Y-86935492D01*
X234759447Y-86945259D01*
X234807581Y-86952067D01*
X234840121Y-86954720D01*
X234863427Y-86956491D01*
X234887964Y-86959069D01*
X234911979Y-86962192D01*
X234933718Y-86965597D01*
X234951426Y-86969023D01*
X234963349Y-86972205D01*
X234966656Y-86973662D01*
X234970172Y-86977551D01*
X234969433Y-86984167D01*
X234967035Y-86990520D01*
X234961677Y-86999144D01*
X234952599Y-87009993D01*
X234941772Y-87021117D01*
X234931165Y-87030565D01*
X234922748Y-87036385D01*
X234919770Y-87037333D01*
X234916205Y-87040539D01*
X234916133Y-87041334D01*
X234919974Y-87044012D01*
X234929940Y-87046183D01*
X234943689Y-87047593D01*
X234958883Y-87047987D01*
X234971166Y-87047335D01*
X234980642Y-87046552D01*
X234996622Y-87045420D01*
X235017154Y-87044068D01*
X235040288Y-87042629D01*
X235049483Y-87042078D01*
X235078531Y-87040173D01*
X235103601Y-87038005D01*
X235126965Y-87035249D01*
X235150897Y-87031584D01*
X235177671Y-87026685D01*
X235209561Y-87020229D01*
X235223049Y-87017394D01*
X235295254Y-86999071D01*
X235361725Y-86975952D01*
X235422169Y-86948229D01*
X235476293Y-86916092D01*
X235523807Y-86879731D01*
X235564417Y-86839337D01*
X235597830Y-86795100D01*
X235617729Y-86760050D01*
X235630292Y-86733283D01*
X235640216Y-86709354D01*
X235647115Y-86689382D01*
X235650605Y-86674488D01*
X235650299Y-86665792D01*
X235650216Y-86665616D01*
X235645102Y-86658837D01*
X235634528Y-86647399D01*
X235619437Y-86632180D01*
X235600773Y-86614059D01*
X235579481Y-86593915D01*
X235556504Y-86572627D01*
X235532787Y-86551072D01*
X235509273Y-86530131D01*
X235486906Y-86510682D01*
X235466631Y-86493602D01*
X235457007Y-86485773D01*
X235397930Y-86439958D01*
X235332487Y-86391928D01*
X235262140Y-86342688D01*
X235188352Y-86293247D01*
X235112585Y-86244611D01*
X235055833Y-86209566D01*
X235025724Y-86191568D01*
X234990034Y-86170689D01*
X234950044Y-86147644D01*
X234907031Y-86123147D01*
X234862275Y-86097913D01*
X234817055Y-86072655D01*
X234772650Y-86048087D01*
X234730338Y-86024924D01*
X234691399Y-86003880D01*
X234657112Y-85985670D01*
X234628756Y-85971006D01*
X234627208Y-85970223D01*
X234596871Y-85954703D01*
X234573799Y-85942426D01*
X234557557Y-85933110D01*
X234547713Y-85926473D01*
X234543832Y-85922234D01*
X234545480Y-85920111D01*
X234549426Y-85919733D01*
X234554734Y-85921130D01*
X234566850Y-85925053D01*
X234584640Y-85931093D01*
X234606968Y-85938846D01*
X234632701Y-85947904D01*
X234660702Y-85957863D01*
X234689838Y-85968315D01*
X234718973Y-85978854D01*
X234746973Y-85989075D01*
X234772702Y-85998572D01*
X234795026Y-86006937D01*
X234812810Y-86013765D01*
X234818920Y-86016184D01*
X234838902Y-86024420D01*
X234865080Y-86035531D01*
X234895957Y-86048854D01*
X234930036Y-86063726D01*
X234965821Y-86079488D01*
X235001814Y-86095475D01*
X235036520Y-86111027D01*
X235068440Y-86125482D01*
X235096079Y-86138177D01*
X235117216Y-86148104D01*
X235235938Y-86208239D01*
X235355619Y-86275488D01*
X235474703Y-86348882D01*
X235591632Y-86427450D01*
X235704851Y-86510222D01*
X235732323Y-86531404D01*
X235744742Y-86540835D01*
X235754509Y-86546664D01*
X235763380Y-86548703D01*
X235773112Y-86546764D01*
X235785461Y-86540657D01*
X235802182Y-86530193D01*
X235813649Y-86522665D01*
X235856562Y-86490113D01*
X235891916Y-86453861D01*
X235919891Y-86413645D01*
X235940665Y-86369202D01*
X235954417Y-86320267D01*
X235955722Y-86313433D01*
X235958870Y-86291445D01*
X236241225Y-86291445D01*
X236241464Y-86306838D01*
X236242414Y-86318884D01*
X236244234Y-86329288D01*
X236247085Y-86339756D01*
X236251128Y-86351994D01*
X236252880Y-86357086D01*
X236266810Y-86392376D01*
X236282985Y-86422281D01*
X236303318Y-86449877D01*
X236325833Y-86474354D01*
X236343246Y-86490590D01*
X236362690Y-86506560D01*
X236382636Y-86521224D01*
X236401555Y-86533543D01*
X236417916Y-86542476D01*
X236430189Y-86546984D01*
X236433201Y-86547325D01*
X236439732Y-86544749D01*
X236452242Y-86537305D01*
X236470103Y-86525416D01*
X236492686Y-86509506D01*
X236519360Y-86489999D01*
X236529363Y-86482538D01*
X236618712Y-86417604D01*
X236706027Y-86358442D01*
X236793668Y-86303587D01*
X236883995Y-86251574D01*
X236979368Y-86200938D01*
X236998933Y-86191010D01*
X237080793Y-86150327D01*
X237157238Y-86113591D01*
X237229929Y-86080095D01*
X237300526Y-86049135D01*
X237370688Y-86020004D01*
X237442076Y-85991997D01*
X237516349Y-85964409D01*
X237595167Y-85936534D01*
X237608269Y-85932015D01*
X237626086Y-85925876D01*
X237637350Y-85922152D01*
X237643549Y-85920611D01*
X237646172Y-85921021D01*
X237646708Y-85923150D01*
X237646633Y-85926036D01*
X237642985Y-85930815D01*
X237632992Y-85937981D01*
X237618082Y-85946562D01*
X237611708Y-85949849D01*
X237580183Y-85965956D01*
X237542607Y-85985659D01*
X237500228Y-86008269D01*
X237454298Y-86033095D01*
X237406067Y-86059448D01*
X237356783Y-86086637D01*
X237307698Y-86113974D01*
X237260061Y-86140767D01*
X237215122Y-86166328D01*
X237174132Y-86189967D01*
X237138340Y-86210993D01*
X237136516Y-86212078D01*
X237074124Y-86250364D01*
X237009544Y-86292091D01*
X236944217Y-86336226D01*
X236879587Y-86381736D01*
X236817094Y-86427590D01*
X236758181Y-86472754D01*
X236704291Y-86516194D01*
X236664507Y-86550116D01*
X236646991Y-86565795D01*
X236628027Y-86583245D01*
X236608721Y-86601395D01*
X236590180Y-86619175D01*
X236573509Y-86635512D01*
X236559813Y-86649336D01*
X236550200Y-86659576D01*
X236545817Y-86665078D01*
X236545249Y-86673521D01*
X236548676Y-86688492D01*
X236552832Y-86700950D01*
X236577279Y-86756728D01*
X236608322Y-86807438D01*
X236646048Y-86853157D01*
X236690540Y-86893962D01*
X236741881Y-86929929D01*
X236800157Y-86961136D01*
X236865450Y-86987658D01*
X236867864Y-86988503D01*
X236910186Y-87002394D01*
X236950436Y-87013675D01*
X236990497Y-87022685D01*
X237032250Y-87029764D01*
X237077577Y-87035253D01*
X237128360Y-87039492D01*
X237161283Y-87041523D01*
X237184291Y-87042955D01*
X237204251Y-87044497D01*
X237219665Y-87046008D01*
X237229032Y-87047350D01*
X237231133Y-87048023D01*
X237236455Y-87048991D01*
X237246928Y-87048689D01*
X237259391Y-87047452D01*
X237270682Y-87045612D01*
X237277640Y-87043502D01*
X237278249Y-87043061D01*
X237276984Y-87039316D01*
X237271976Y-87034787D01*
X237255079Y-87020954D01*
X237241746Y-87006780D01*
X237232765Y-86993494D01*
X237228923Y-86982325D01*
X237231004Y-86974503D01*
X237232579Y-86973191D01*
X237240538Y-86969288D01*
X237252015Y-86965879D01*
X237268040Y-86962794D01*
X237289640Y-86959865D01*
X237317844Y-86956920D01*
X237346066Y-86954420D01*
X237395906Y-86949477D01*
X237438827Y-86943613D01*
X237474397Y-86936903D01*
X237502187Y-86929423D01*
X237513685Y-86925142D01*
X237530216Y-86918122D01*
X237506296Y-86905906D01*
X237488617Y-86895179D01*
X237474839Y-86883503D01*
X237466457Y-86872323D01*
X237464599Y-86865568D01*
X237468504Y-86861748D01*
X237479327Y-86856643D01*
X237495731Y-86850850D01*
X237501641Y-86849037D01*
X237536498Y-86838293D01*
X237571186Y-86826891D01*
X237604766Y-86815204D01*
X237636301Y-86803601D01*
X237664853Y-86792455D01*
X237689485Y-86782137D01*
X237709260Y-86773018D01*
X237723239Y-86765470D01*
X237730485Y-86759864D01*
X237731299Y-86758065D01*
X237727464Y-86755968D01*
X237717531Y-86753980D01*
X237706958Y-86752822D01*
X237689590Y-86750192D01*
X237672113Y-86745432D01*
X237656488Y-86739347D01*
X237644676Y-86732742D01*
X237638637Y-86726424D01*
X237638245Y-86724603D01*
X237641985Y-86719954D01*
X237653199Y-86712205D01*
X237671980Y-86701300D01*
X237698423Y-86687181D01*
X237713137Y-86679616D01*
X237751243Y-86659531D01*
X237787851Y-86638943D01*
X237821622Y-86618677D01*
X237851218Y-86599554D01*
X237875298Y-86582398D01*
X237887933Y-86572194D01*
X237902750Y-86559310D01*
X237876500Y-86559138D01*
X237851045Y-86557683D01*
X237827978Y-86553956D01*
X237809391Y-86548407D01*
X237798416Y-86542385D01*
X237793967Y-86538413D01*
X237793014Y-86535070D01*
X237796552Y-86530965D01*
X237805575Y-86524705D01*
X237815546Y-86518384D01*
X237832647Y-86507010D01*
X237852926Y-86492552D01*
X237875305Y-86475879D01*
X237898707Y-86457860D01*
X237922055Y-86439364D01*
X237944272Y-86421259D01*
X237964281Y-86404414D01*
X237981005Y-86389698D01*
X237993368Y-86377980D01*
X238000292Y-86370128D01*
X238001144Y-86368664D01*
X237997734Y-86367564D01*
X237987754Y-86366648D01*
X237973102Y-86366066D01*
X237967277Y-86365970D01*
X237945831Y-86364696D01*
X237927108Y-86361649D01*
X237912551Y-86357261D01*
X237903603Y-86351965D01*
X237901667Y-86346301D01*
X237905188Y-86341949D01*
X237914025Y-86332813D01*
X237927235Y-86319816D01*
X237943876Y-86303880D01*
X237963008Y-86285925D01*
X237969867Y-86279566D01*
X237991601Y-86258963D01*
X238012884Y-86237847D01*
X238032837Y-86217182D01*
X238050585Y-86197933D01*
X238065250Y-86181064D01*
X238075953Y-86167541D01*
X238081819Y-86158328D01*
X238082666Y-86155521D01*
X238079034Y-86155055D01*
X238069996Y-86156443D01*
X238066791Y-86157144D01*
X238039011Y-86161051D01*
X238010985Y-86160498D01*
X237985177Y-86155773D01*
X237964048Y-86147161D01*
X237960197Y-86144723D01*
X237957989Y-86139376D01*
X237962039Y-86130461D01*
X237972551Y-86117747D01*
X237989724Y-86101001D01*
X238013759Y-86079992D01*
X238022940Y-86072324D01*
X238041133Y-86056832D01*
X238058316Y-86041420D01*
X238072705Y-86027741D01*
X238082513Y-86017447D01*
X238083443Y-86016341D01*
X238092612Y-86004484D01*
X238102561Y-85990586D01*
X238112007Y-85976582D01*
X238119665Y-85964410D01*
X238124251Y-85956005D01*
X238125000Y-85953673D01*
X238121032Y-85952866D01*
X238110175Y-85952430D01*
X238094000Y-85952389D01*
X238074078Y-85952765D01*
X238070025Y-85952884D01*
X238047307Y-85953481D01*
X238031648Y-85953520D01*
X238021651Y-85952867D01*
X238015919Y-85951389D01*
X238013056Y-85948953D01*
X238012282Y-85947384D01*
X238011576Y-85936458D01*
X238014917Y-85919682D01*
X238021768Y-85898325D01*
X238031592Y-85873655D01*
X238043851Y-85846940D01*
X238058009Y-85819450D01*
X238073530Y-85792453D01*
X238086360Y-85772368D01*
X238112518Y-85733466D01*
X237999167Y-85733048D01*
X237956452Y-85732767D01*
X237921529Y-85732241D01*
X237893728Y-85731422D01*
X237872375Y-85730263D01*
X237856801Y-85728716D01*
X237846332Y-85726735D01*
X237840298Y-85724272D01*
X237838143Y-85721732D01*
X237840210Y-85716690D01*
X237847178Y-85707177D01*
X237857899Y-85694647D01*
X237868725Y-85683096D01*
X237901085Y-85649844D01*
X237872648Y-85644478D01*
X237837620Y-85640549D01*
X237798026Y-85641248D01*
X237753187Y-85646641D01*
X237702425Y-85656793D01*
X237675259Y-85663505D01*
X237651110Y-85669574D01*
X237629518Y-85674581D01*
X237611922Y-85678225D01*
X237599760Y-85680207D01*
X237594644Y-85680320D01*
X237587152Y-85673486D01*
X237581970Y-85661475D01*
X237580194Y-85647490D01*
X237580999Y-85640412D01*
X237585682Y-85630202D01*
X237595186Y-85616849D01*
X237606669Y-85603905D01*
X237616382Y-85593353D01*
X237622123Y-85585870D01*
X237622983Y-85582696D01*
X237622163Y-85582766D01*
X237614894Y-85584376D01*
X237601587Y-85586835D01*
X237584579Y-85589721D01*
X237576184Y-85591072D01*
X237558787Y-85594433D01*
X237535668Y-85599779D01*
X237509170Y-85606521D01*
X237481638Y-85614071D01*
X237464490Y-85619077D01*
X237436910Y-85627039D01*
X237413698Y-85633121D01*
X237395898Y-85637076D01*
X237384554Y-85638662D01*
X237381667Y-85638498D01*
X237373522Y-85633337D01*
X237369188Y-85621909D01*
X237369160Y-85621763D01*
X237369259Y-85606354D01*
X237375734Y-85590386D01*
X237389137Y-85572786D01*
X237400002Y-85561694D01*
X237409652Y-85551747D01*
X237415751Y-85544075D01*
X237416992Y-85540514D01*
X237411049Y-85539762D01*
X237398691Y-85541707D01*
X237381356Y-85545885D01*
X237360482Y-85551831D01*
X237337510Y-85559082D01*
X237313876Y-85567172D01*
X237291021Y-85575640D01*
X237270383Y-85584019D01*
X237253400Y-85591846D01*
X237246583Y-85595491D01*
X237234004Y-85602713D01*
X237217749Y-85612050D01*
X237202472Y-85620830D01*
X237188536Y-85628157D01*
X237176988Y-85632993D01*
X237170094Y-85634406D01*
X237169688Y-85634302D01*
X237162420Y-85628157D01*
X237155072Y-85616977D01*
X237149388Y-85603996D01*
X237147115Y-85592498D01*
X237149846Y-85577949D01*
X237156935Y-85561428D01*
X237166677Y-85546868D01*
X237167094Y-85546386D01*
X237172345Y-85538879D01*
X237171408Y-85535729D01*
X237165074Y-85536500D01*
X237154136Y-85540757D01*
X237139386Y-85548066D01*
X237121616Y-85557992D01*
X237101618Y-85570100D01*
X237080185Y-85583955D01*
X237058108Y-85599122D01*
X237036179Y-85615166D01*
X237022482Y-85625778D01*
X237004692Y-85639606D01*
X236989071Y-85651183D01*
X236976868Y-85659628D01*
X236969331Y-85664059D01*
X236967675Y-85664486D01*
X236963110Y-85660451D01*
X236955746Y-85651499D01*
X236949418Y-85642768D01*
X236941393Y-85629953D01*
X236937174Y-85618818D01*
X236935597Y-85605418D01*
X236935433Y-85595421D01*
X236934906Y-85581540D01*
X236933528Y-85571781D01*
X236931736Y-85568366D01*
X236925692Y-85571105D01*
X236914694Y-85578652D01*
X236899944Y-85590003D01*
X236882643Y-85604152D01*
X236863994Y-85620095D01*
X236845197Y-85636828D01*
X236827455Y-85653344D01*
X236812681Y-85667910D01*
X236796510Y-85684357D01*
X236785045Y-85695527D01*
X236777115Y-85702234D01*
X236771546Y-85705293D01*
X236767166Y-85705520D01*
X236762802Y-85703729D01*
X236761881Y-85703229D01*
X236753644Y-85696020D01*
X236744940Y-85684445D01*
X236741451Y-85678393D01*
X236735526Y-85664848D01*
X236733258Y-85652217D01*
X236733881Y-85636056D01*
X236733977Y-85635041D01*
X236734827Y-85622001D01*
X236734612Y-85613167D01*
X236733696Y-85610700D01*
X236728125Y-85613676D01*
X236717927Y-85621935D01*
X236704144Y-85634467D01*
X236687817Y-85650267D01*
X236669989Y-85668326D01*
X236651700Y-85687638D01*
X236634440Y-85706689D01*
X236609947Y-85734308D01*
X236590356Y-85756144D01*
X236575045Y-85772829D01*
X236563391Y-85784996D01*
X236554773Y-85793279D01*
X236548570Y-85798311D01*
X236544159Y-85800726D01*
X236541640Y-85801200D01*
X236535913Y-85797449D01*
X236529112Y-85787579D01*
X236522294Y-85773665D01*
X236516521Y-85757781D01*
X236513610Y-85746313D01*
X236510231Y-85734499D01*
X236505494Y-85729219D01*
X236498473Y-85730571D01*
X236488245Y-85738655D01*
X236476910Y-85750276D01*
X236446511Y-85785549D01*
X236414357Y-85827355D01*
X236381470Y-85874229D01*
X236348875Y-85924705D01*
X236317594Y-85977318D01*
X236314244Y-85983233D01*
X236304311Y-86002769D01*
X236292976Y-86028173D01*
X236281149Y-86057170D01*
X236269738Y-86087482D01*
X236259655Y-86116833D01*
X236255278Y-86130824D01*
X236251149Y-86145538D01*
X236248090Y-86159358D01*
X236245887Y-86174146D01*
X236244325Y-86191766D01*
X236243188Y-86214079D01*
X236242261Y-86242949D01*
X236242238Y-86243797D01*
X236241537Y-86271000D01*
X236241225Y-86291445D01*
X235958870Y-86291445D01*
X235959915Y-86284149D01*
X235961232Y-86256379D01*
X235959615Y-86227274D01*
X235955005Y-86193983D01*
X235953026Y-86182731D01*
X235937043Y-86116650D01*
X235913123Y-86049219D01*
X235881574Y-85981016D01*
X235842701Y-85912617D01*
X235796814Y-85844602D01*
X235744217Y-85777547D01*
X235726628Y-85757079D01*
X235693481Y-85719308D01*
X235682299Y-85754086D01*
X235674461Y-85776227D01*
X235667414Y-85790772D01*
X235660595Y-85798483D01*
X235653439Y-85800122D01*
X235649239Y-85798752D01*
X235643988Y-85794465D01*
X235634188Y-85784855D01*
X235620856Y-85770981D01*
X235605007Y-85753901D01*
X235587658Y-85734675D01*
X235586617Y-85733505D01*
X235563050Y-85707388D01*
X235540181Y-85682780D01*
X235518872Y-85660552D01*
X235499983Y-85641577D01*
X235484376Y-85626727D01*
X235472912Y-85616873D01*
X235468280Y-85613664D01*
X235465106Y-85613249D01*
X235463252Y-85617350D01*
X235462401Y-85627371D01*
X235462233Y-85640681D01*
X235460113Y-85666297D01*
X235453384Y-85685786D01*
X235441486Y-85700456D01*
X235434518Y-85705690D01*
X235427508Y-85709672D01*
X235422495Y-85709232D01*
X235416570Y-85703438D01*
X235412738Y-85698720D01*
X235397541Y-85681375D01*
X235377637Y-85660997D01*
X235355147Y-85639557D01*
X235332193Y-85619026D01*
X235310896Y-85601377D01*
X235296381Y-85590591D01*
X235282093Y-85580902D01*
X235270635Y-85573352D01*
X235263640Y-85569006D01*
X235262304Y-85568366D01*
X235261678Y-85572195D01*
X235261781Y-85582126D01*
X235262397Y-85593087D01*
X235261962Y-85615137D01*
X235256234Y-85632809D01*
X235244054Y-85649114D01*
X235238869Y-85654285D01*
X235226416Y-85666120D01*
X235204134Y-85647935D01*
X235169658Y-85620397D01*
X235139905Y-85598005D01*
X235113640Y-85579887D01*
X235089632Y-85565172D01*
X235077436Y-85558475D01*
X235056530Y-85547742D01*
X235042242Y-85541309D01*
X235033901Y-85539173D01*
X235030834Y-85541328D01*
X235032370Y-85547768D01*
X235037658Y-85558168D01*
X235046138Y-85579327D01*
X235048162Y-85599747D01*
X235043613Y-85617463D01*
X235041496Y-85621145D01*
X235033973Y-85628862D01*
X235026452Y-85631866D01*
X235019791Y-85629967D01*
X235007407Y-85624784D01*
X234991012Y-85617087D01*
X234972317Y-85607644D01*
X234970458Y-85606672D01*
X234948821Y-85595678D01*
X234926572Y-85584995D01*
X234906500Y-85575929D01*
X234892850Y-85570325D01*
X234876973Y-85564754D01*
X234857729Y-85558603D01*
X234837103Y-85552434D01*
X234817082Y-85546809D01*
X234799652Y-85542292D01*
X234786800Y-85539444D01*
X234781388Y-85538744D01*
X234781523Y-85541585D01*
X234786532Y-85549220D01*
X234795461Y-85560302D01*
X234801632Y-85567308D01*
X234813510Y-85581181D01*
X234823142Y-85593836D01*
X234829032Y-85603246D01*
X234830023Y-85605720D01*
X234830066Y-85617939D01*
X234825560Y-85629981D01*
X234818044Y-85638105D01*
X234816369Y-85638909D01*
X234809730Y-85638781D01*
X234797052Y-85636416D01*
X234780331Y-85632240D01*
X234766442Y-85628210D01*
X234745072Y-85621971D01*
X234720276Y-85615250D01*
X234693621Y-85608417D01*
X234666676Y-85601840D01*
X234641006Y-85595890D01*
X234618179Y-85590935D01*
X234599762Y-85587345D01*
X234587323Y-85585490D01*
X234584406Y-85585316D01*
X234576131Y-85585613D01*
X234575521Y-85587706D01*
X234581018Y-85592708D01*
X234588541Y-85600780D01*
X234597594Y-85612816D01*
X234606684Y-85626496D01*
X234614318Y-85639499D01*
X234619001Y-85649505D01*
X234619778Y-85652936D01*
X234617263Y-85660397D01*
X234611138Y-85670122D01*
X234610190Y-85671338D01*
X234600623Y-85683294D01*
X234549886Y-85670531D01*
X234505604Y-85659787D01*
X234468171Y-85651619D01*
X234436439Y-85645827D01*
X234409256Y-85642212D01*
X234385475Y-85640577D01*
X234375718Y-85640434D01*
X234351667Y-85641178D01*
X234330686Y-85643119D01*
X234314428Y-85646023D01*
X234304549Y-85649656D01*
X234303251Y-85650670D01*
X234304941Y-85654549D01*
X234311567Y-85662955D01*
X234321988Y-85674523D01*
X234331103Y-85683948D01*
X234347982Y-85702034D01*
X234358003Y-85715461D01*
X234361256Y-85724409D01*
X234357831Y-85729058D01*
X234354158Y-85729794D01*
X234348199Y-85730016D01*
X234334876Y-85730377D01*
X234315291Y-85730852D01*
X234290544Y-85731414D01*
X234261738Y-85732038D01*
X234229973Y-85732700D01*
X234216686Y-85732969D01*
X234086622Y-85735583D01*
X234112523Y-85775799D01*
X234129091Y-85802965D01*
X234144545Y-85831009D01*
X234158366Y-85858722D01*
X234170040Y-85884898D01*
X234179048Y-85908326D01*
X234184873Y-85927800D01*
X234187000Y-85942110D01*
X234186185Y-85947988D01*
X234183860Y-85950590D01*
X234178387Y-85952272D01*
X234168456Y-85953144D01*
X234152755Y-85953319D01*
X234129972Y-85952909D01*
X234128731Y-85952878D01*
X234103276Y-85952532D01*
X234085880Y-85953012D01*
X234076174Y-85954338D01*
X234073694Y-85956111D01*
X233888977Y-85956111D01*
X233887543Y-85948134D01*
X233889229Y-85916656D01*
X233898362Y-85885148D01*
X233914887Y-85852701D01*
X233915778Y-85851247D01*
X233930592Y-85827211D01*
X233918880Y-85798330D01*
X233913291Y-85783357D01*
X233909759Y-85769926D01*
X233907811Y-85755154D01*
X233906971Y-85736159D01*
X233906825Y-85724999D01*
X233906873Y-85704188D01*
X233907672Y-85689339D01*
X233909639Y-85677955D01*
X233913191Y-85667537D01*
X233918211Y-85656667D01*
X233935536Y-85630133D01*
X233959241Y-85606680D01*
X233987311Y-85588291D01*
X233988046Y-85587916D01*
X234006200Y-85580759D01*
X234029492Y-85574444D01*
X234055002Y-85569491D01*
X234079811Y-85566424D01*
X234101000Y-85565762D01*
X234108578Y-85566389D01*
X234119647Y-85567612D01*
X234127435Y-85566774D01*
X234134605Y-85562719D01*
X234143818Y-85554293D01*
X234149432Y-85548676D01*
X234181054Y-85521995D01*
X234216826Y-85501734D01*
X234257547Y-85487537D01*
X234304013Y-85479048D01*
X234305754Y-85478849D01*
X234328941Y-85476342D01*
X234345872Y-85474826D01*
X234358692Y-85474257D01*
X234369548Y-85474588D01*
X234380586Y-85475774D01*
X234389372Y-85477058D01*
X234401238Y-85478563D01*
X234409568Y-85477894D01*
X234417339Y-85474010D01*
X234427527Y-85465872D01*
X234431705Y-85462268D01*
X234447394Y-85450275D01*
X234465271Y-85438892D01*
X234475866Y-85433288D01*
X234486173Y-85428830D01*
X234496081Y-85425697D01*
X234507513Y-85423598D01*
X234522394Y-85422248D01*
X234542647Y-85421356D01*
X234558416Y-85420915D01*
X234582212Y-85420227D01*
X234599183Y-85419368D01*
X234610970Y-85418071D01*
X234619216Y-85416067D01*
X234625560Y-85413087D01*
X234631503Y-85408972D01*
X234657970Y-85392996D01*
X234689642Y-85380511D01*
X234720410Y-85373197D01*
X234753101Y-85370825D01*
X234789502Y-85373322D01*
X234826626Y-85380378D01*
X234847037Y-85386345D01*
X234861199Y-85390762D01*
X234872707Y-85393780D01*
X234878033Y-85394655D01*
X234884533Y-85392527D01*
X234895767Y-85386857D01*
X234909435Y-85378819D01*
X234911011Y-85377826D01*
X234937640Y-85360933D01*
X234993228Y-85360933D01*
X235018857Y-85361226D01*
X235037047Y-85362167D01*
X235048809Y-85363847D01*
X235055152Y-85366361D01*
X235055499Y-85366638D01*
X235063786Y-85371759D01*
X235077632Y-85378427D01*
X235094733Y-85385732D01*
X235112782Y-85392764D01*
X235129474Y-85398614D01*
X235142502Y-85402371D01*
X235148331Y-85403269D01*
X235157637Y-85402457D01*
X235172456Y-85400295D01*
X235190023Y-85397201D01*
X235195233Y-85396190D01*
X235221414Y-85392250D01*
X235244948Y-85391901D01*
X235267964Y-85395542D01*
X235292591Y-85403572D01*
X235320958Y-85416393D01*
X235331685Y-85421838D01*
X235376821Y-85445219D01*
X235427222Y-85442685D01*
X235457857Y-85441936D01*
X235483771Y-85443507D01*
X235506579Y-85448063D01*
X235527897Y-85456273D01*
X235549342Y-85468802D01*
X235572529Y-85486318D01*
X235599074Y-85509488D01*
X235607193Y-85516954D01*
X235622732Y-85530743D01*
X235637100Y-85542392D01*
X235648622Y-85550611D01*
X235655284Y-85554037D01*
X235664988Y-85555107D01*
X235679939Y-85555273D01*
X235696965Y-85554503D01*
X235697574Y-85554457D01*
X235728783Y-85552097D01*
X235765643Y-85578223D01*
X235820212Y-85621622D01*
X235872362Y-85672551D01*
X235921450Y-85730265D01*
X235966833Y-85794016D01*
X236003057Y-85854266D01*
X236014933Y-85876801D01*
X236028078Y-85903552D01*
X236041549Y-85932426D01*
X236054407Y-85961330D01*
X236065711Y-85988171D01*
X236074520Y-86010856D01*
X236078131Y-86021333D01*
X236082644Y-86034525D01*
X236086533Y-86044297D01*
X236088400Y-86047751D01*
X236090826Y-86045156D01*
X236095624Y-86035920D01*
X236102197Y-86021330D01*
X236109948Y-86002675D01*
X236113888Y-85992718D01*
X236151655Y-85905887D01*
X236194880Y-85825191D01*
X236243421Y-85750885D01*
X236264465Y-85722788D01*
X236284884Y-85698516D01*
X236309900Y-85671799D01*
X236337616Y-85644435D01*
X236366137Y-85618225D01*
X236393566Y-85594967D01*
X236418007Y-85576460D01*
X236420534Y-85574721D01*
X236456721Y-85550141D01*
X236533683Y-85555603D01*
X236577946Y-85513507D01*
X236602675Y-85490974D01*
X236623643Y-85474147D01*
X236642204Y-85461986D01*
X236650763Y-85457447D01*
X236661973Y-85452085D01*
X236671289Y-85448300D01*
X236680545Y-85445805D01*
X236691576Y-85444316D01*
X236706215Y-85443547D01*
X236726298Y-85443213D01*
X236743090Y-85443095D01*
X236806863Y-85442708D01*
X236850099Y-85421146D01*
X236877646Y-85408057D01*
X236900422Y-85399154D01*
X236920769Y-85394030D01*
X236941029Y-85392278D01*
X236963544Y-85393492D01*
X236989115Y-85397016D01*
X237008803Y-85400068D01*
X237024158Y-85401729D01*
X237037142Y-85401638D01*
X237049722Y-85399431D01*
X237063860Y-85394746D01*
X237081522Y-85387219D01*
X237104671Y-85376488D01*
X237107535Y-85375145D01*
X237120289Y-85369321D01*
X237130700Y-85365355D01*
X237140907Y-85362889D01*
X237153053Y-85361567D01*
X237169279Y-85361034D01*
X237191726Y-85360933D01*
X237193010Y-85360933D01*
X237213786Y-85361222D01*
X237231379Y-85362011D01*
X237244124Y-85363187D01*
X237250358Y-85364634D01*
X237250656Y-85364907D01*
X237255431Y-85369006D01*
X237265290Y-85375559D01*
X237275247Y-85381496D01*
X237297383Y-85394112D01*
X237341833Y-85383967D01*
X237376391Y-85376701D01*
X237404667Y-85372262D01*
X237428304Y-85370504D01*
X237448948Y-85371277D01*
X237462035Y-85373158D01*
X237490459Y-85380913D01*
X237520191Y-85393160D01*
X237546897Y-85408079D01*
X237549732Y-85409990D01*
X237556402Y-85414222D01*
X237563160Y-85417178D01*
X237571695Y-85419117D01*
X237583693Y-85420299D01*
X237600844Y-85420986D01*
X237623815Y-85421423D01*
X237647994Y-85421921D01*
X237665637Y-85422747D01*
X237678677Y-85424182D01*
X237689045Y-85426505D01*
X237698671Y-85429996D01*
X237706140Y-85433349D01*
X237723171Y-85443003D01*
X237740481Y-85455371D01*
X237748383Y-85462190D01*
X237767103Y-85479998D01*
X237792593Y-85475563D01*
X237808374Y-85473673D01*
X237825988Y-85473488D01*
X237847821Y-85475061D01*
X237866766Y-85477222D01*
X237907517Y-85483750D01*
X237941760Y-85492681D01*
X237971294Y-85504783D01*
X237997919Y-85520827D01*
X238023433Y-85541581D01*
X238028628Y-85546429D01*
X238041013Y-85557956D01*
X238049608Y-85564642D01*
X238056673Y-85567569D01*
X238064471Y-85567817D01*
X238071602Y-85566972D01*
X238088622Y-85566452D01*
X238110843Y-85568279D01*
X238135483Y-85571982D01*
X238159759Y-85577089D01*
X238180886Y-85583131D01*
X238191358Y-85587219D01*
X238221028Y-85605221D01*
X238245086Y-85629052D01*
X238262791Y-85657679D01*
X238273397Y-85690068D01*
X238275527Y-85704250D01*
X238275883Y-85734296D01*
X238271711Y-85765694D01*
X238263628Y-85794575D01*
X238259552Y-85804316D01*
X238250805Y-85822924D01*
X238271288Y-85865631D01*
X238283812Y-85894233D01*
X238291315Y-85918419D01*
X238294074Y-85940375D01*
X238292365Y-85962291D01*
X238286526Y-85986151D01*
X238279525Y-86004541D01*
X238269547Y-86025255D01*
X238258728Y-86043867D01*
X238258519Y-86044186D01*
X238249608Y-86058322D01*
X238242892Y-86070114D01*
X238239500Y-86077539D01*
X238239299Y-86078594D01*
X238240844Y-86085559D01*
X238244695Y-86096557D01*
X238246166Y-86100191D01*
X238249981Y-86112459D01*
X238251353Y-86126786D01*
X238250544Y-86146138D01*
X238250377Y-86148174D01*
X238247116Y-86170648D01*
X238240770Y-86192363D01*
X238230593Y-86214963D01*
X238215842Y-86240091D01*
X238195770Y-86269393D01*
X238194905Y-86270593D01*
X238166245Y-86310302D01*
X238171465Y-86332059D01*
X238174034Y-86345494D01*
X238174289Y-86357524D01*
X238172083Y-86371737D01*
X238169380Y-86383366D01*
X238160960Y-86412158D01*
X238150489Y-86436527D01*
X238136650Y-86458529D01*
X238118126Y-86480221D01*
X238093599Y-86503660D01*
X238090691Y-86506245D01*
X238080759Y-86515375D01*
X238074799Y-86522812D01*
X238071557Y-86531347D01*
X238069783Y-86543769D01*
X238068849Y-86554928D01*
X238066617Y-86573230D01*
X238063158Y-86590648D01*
X238059306Y-86603179D01*
X238043443Y-86632533D01*
X238020851Y-86662743D01*
X237992919Y-86692259D01*
X237961038Y-86719532D01*
X237943758Y-86732041D01*
X237926846Y-86744110D01*
X237915489Y-86754198D01*
X237907917Y-86764565D01*
X237902358Y-86777472D01*
X237898599Y-86789629D01*
X237892700Y-86806984D01*
X237885395Y-86824155D01*
X237880877Y-86832838D01*
X237863470Y-86856063D01*
X237839484Y-86878795D01*
X237810766Y-86899730D01*
X237779165Y-86917568D01*
X237746529Y-86931006D01*
X237737649Y-86933748D01*
X237720588Y-86939017D01*
X237709944Y-86943845D01*
X237703869Y-86949618D01*
X237700515Y-86957727D01*
X237699407Y-86962484D01*
X237689866Y-86988322D01*
X237672698Y-87013018D01*
X237648730Y-87035883D01*
X237618789Y-87056230D01*
X237583702Y-87073369D01*
X237553350Y-87084051D01*
X237537917Y-87088887D01*
X237525708Y-87093156D01*
X237518961Y-87096064D01*
X237518466Y-87096411D01*
X237520743Y-87099584D01*
X237529055Y-87106634D01*
X237542370Y-87116776D01*
X237559654Y-87129222D01*
X237579849Y-87143168D01*
X237620640Y-87171103D01*
X237655277Y-87195532D01*
X237684868Y-87217306D01*
X237710521Y-87237272D01*
X237733343Y-87256280D01*
X237754442Y-87275180D01*
X237764743Y-87284904D01*
X237823178Y-87345836D01*
X237874156Y-87409559D01*
X237918035Y-87476734D01*
X237955178Y-87548021D01*
X237985945Y-87624079D01*
X238010696Y-87705570D01*
X238022829Y-87757438D01*
X238029201Y-87790015D01*
X238034448Y-87822267D01*
X238038771Y-87855979D01*
X238042372Y-87892934D01*
X238045454Y-87934918D01*
X238048021Y-87979822D01*
X238051316Y-88043895D01*
X238070591Y-88077189D01*
X238080252Y-88093101D01*
X238089106Y-88105113D01*
X238099258Y-88115425D01*
X238112812Y-88126238D01*
X238127541Y-88136743D01*
X238153341Y-88156221D01*
X238182278Y-88180553D01*
X238212350Y-88207863D01*
X238241558Y-88236275D01*
X238267900Y-88263912D01*
X238288213Y-88287447D01*
X238326653Y-88338844D01*
X238362714Y-88394371D01*
X238395734Y-88452618D01*
X238425047Y-88512179D01*
X238449992Y-88571646D01*
X238469905Y-88629611D01*
X238484122Y-88684667D01*
X238489452Y-88714409D01*
X238492231Y-88731083D01*
X238495102Y-88744580D01*
X238497565Y-88752654D01*
X238498196Y-88753738D01*
X238499151Y-88758893D01*
X238499953Y-88771224D01*
X238500602Y-88789519D01*
X238501100Y-88812563D01*
X238501447Y-88839144D01*
X238501644Y-88868048D01*
X238501692Y-88898062D01*
X238501591Y-88927971D01*
X238501342Y-88956564D01*
X238500946Y-88982626D01*
X238500404Y-89004944D01*
X238499717Y-89022305D01*
X238498884Y-89033494D01*
X238498021Y-89037281D01*
X238495278Y-89042517D01*
X238492555Y-89053189D01*
X238491456Y-89059756D01*
X238488405Y-89075811D01*
X238483142Y-89097684D01*
X238476290Y-89123213D01*
X238468469Y-89150236D01*
X238460301Y-89176591D01*
X238452407Y-89200118D01*
X238446696Y-89215475D01*
X238415350Y-89285107D01*
X238376926Y-89354684D01*
X238332601Y-89422272D01*
X238283553Y-89485934D01*
X238278906Y-89491454D01*
X238267630Y-89505924D01*
X238259683Y-89518483D01*
X238256278Y-89527177D01*
X238256233Y-89527893D01*
X238255125Y-89535197D01*
X238252055Y-89549194D01*
X238247405Y-89568444D01*
X238241557Y-89591504D01*
X238234893Y-89616934D01*
X238227794Y-89643291D01*
X238220642Y-89669133D01*
X238213819Y-89693019D01*
X238207707Y-89713507D01*
X238203910Y-89725500D01*
X238199265Y-89739193D01*
X238192326Y-89759086D01*
X238183714Y-89783428D01*
X238174047Y-89810469D01*
X238163946Y-89838460D01*
X238161593Y-89844941D01*
X238147445Y-89885081D01*
X238136481Y-89919093D01*
X238128252Y-89948497D01*
X238122308Y-89974814D01*
X238120868Y-89982525D01*
X238101033Y-90070269D01*
X238073092Y-90155796D01*
X238037192Y-90238794D01*
X237993478Y-90318948D01*
X237942094Y-90395943D01*
X237910759Y-90436655D01*
X237891047Y-90459709D01*
X237866567Y-90486266D01*
X237839140Y-90514511D01*
X237810586Y-90542630D01*
X237782728Y-90568809D01*
X237757386Y-90591234D01*
X237746752Y-90600050D01*
X237707397Y-90629844D01*
X237664359Y-90659056D01*
X237619629Y-90686509D01*
X237575201Y-90711026D01*
X237533068Y-90731430D01*
X237504009Y-90743387D01*
X237486462Y-90750800D01*
X237469729Y-90759311D01*
X237457443Y-90767071D01*
X237427333Y-90789335D01*
X237391556Y-90814564D01*
X237351849Y-90841622D01*
X237309951Y-90869370D01*
X237267599Y-90896670D01*
X237226532Y-90922383D01*
X237188486Y-90945373D01*
X237160325Y-90961639D01*
X237131755Y-90977119D01*
X237098678Y-90994096D01*
X237062915Y-91011715D01*
X237026284Y-91029120D01*
X236990603Y-91045455D01*
X236957694Y-91059864D01*
X236929373Y-91071491D01*
X236916469Y-91076370D01*
X236896409Y-91083747D01*
X236881271Y-91089928D01*
X236869009Y-91096183D01*
X236857574Y-91103781D01*
X236844919Y-91113991D01*
X236828996Y-91128083D01*
X236820194Y-91136051D01*
X236765074Y-91184149D01*
X236712444Y-91226019D01*
X236660714Y-91262849D01*
X236608291Y-91295830D01*
X236599392Y-91301026D01*
X236556685Y-91325700D01*
X236090951Y-91325690D01*
X235625216Y-91325680D01*
X235588073Y-91304846D01*
X235541847Y-91277523D01*
X235498090Y-91248581D01*
X235454943Y-91216649D01*
X235410541Y-91180355D01*
X235367687Y-91142572D01*
X235349792Y-91126888D01*
X235332503Y-91112727D01*
X235317494Y-91101393D01*
X235306437Y-91094191D01*
X235304107Y-91093015D01*
X235292842Y-91088162D01*
X235276229Y-91081179D01*
X235256765Y-91073111D01*
X235242099Y-91067097D01*
X235149809Y-91026912D01*
X235060022Y-90982526D01*
X234971254Y-90933105D01*
X234882017Y-90877814D01*
X234857665Y-90861259D01*
X235429202Y-90861259D01*
X235434448Y-90881747D01*
X235441298Y-90896456D01*
X235462202Y-90929549D01*
X235490382Y-90963902D01*
X235524882Y-90998788D01*
X235564747Y-91033478D01*
X235609022Y-91067245D01*
X235656752Y-91099361D01*
X235706983Y-91129099D01*
X235758760Y-91155731D01*
X235811127Y-91178528D01*
X235811739Y-91178769D01*
X235864688Y-91197989D01*
X235914531Y-91212436D01*
X235963784Y-91222581D01*
X236014965Y-91228898D01*
X236070592Y-91231861D01*
X236096147Y-91232220D01*
X236126958Y-91232207D01*
X236151467Y-91231763D01*
X236171837Y-91230726D01*
X236190227Y-91228929D01*
X236208800Y-91226210D01*
X236229716Y-91222404D01*
X236232495Y-91221865D01*
X236310329Y-91202647D01*
X236387044Y-91175821D01*
X236461541Y-91141988D01*
X236532717Y-91101748D01*
X236599473Y-91055702D01*
X236660707Y-91004450D01*
X236697343Y-90968296D01*
X236726005Y-90935908D01*
X236747996Y-90906092D01*
X236764171Y-90877547D01*
X236774772Y-90850927D01*
X236779688Y-90834388D01*
X236781775Y-90822796D01*
X236781319Y-90813225D01*
X236779285Y-90804950D01*
X236767492Y-90779877D01*
X236747503Y-90755567D01*
X236719564Y-90732168D01*
X236683925Y-90709824D01*
X236640831Y-90688682D01*
X236590532Y-90668888D01*
X236533273Y-90650586D01*
X236503146Y-90642311D01*
X236456598Y-90630818D01*
X236412623Y-90621514D01*
X236369668Y-90614242D01*
X236326178Y-90608846D01*
X236280598Y-90605168D01*
X236231374Y-90603054D01*
X236176950Y-90602346D01*
X236115772Y-90602887D01*
X236112050Y-90602953D01*
X236073078Y-90603750D01*
X236040894Y-90604679D01*
X236013819Y-90605854D01*
X235990176Y-90607393D01*
X235968285Y-90609410D01*
X235946467Y-90612021D01*
X235923045Y-90615342D01*
X235915304Y-90616518D01*
X235891270Y-90620264D01*
X235870244Y-90623645D01*
X235853612Y-90626432D01*
X235842760Y-90628390D01*
X235839104Y-90629240D01*
X235834433Y-90630607D01*
X235822934Y-90633517D01*
X235806029Y-90637623D01*
X235785144Y-90642578D01*
X235769150Y-90646311D01*
X235708551Y-90661983D01*
X235652471Y-90679733D01*
X235601454Y-90699276D01*
X235556047Y-90720326D01*
X235516793Y-90742597D01*
X235484238Y-90765803D01*
X235458926Y-90789659D01*
X235441403Y-90813878D01*
X235438368Y-90819816D01*
X235430543Y-90841504D01*
X235429202Y-90861259D01*
X234857665Y-90861259D01*
X234790827Y-90815822D01*
X234778591Y-90807113D01*
G37*
X234778591Y-90807113D02*
X234753688Y-90789318D01*
X234734413Y-90775679D01*
X234719508Y-90765428D01*
X234707713Y-90757799D01*
X234697769Y-90752024D01*
X234688416Y-90747336D01*
X234678394Y-90742967D01*
X234666445Y-90738151D01*
X234663400Y-90736943D01*
X234596898Y-90706521D01*
X234530484Y-90668260D01*
X234464942Y-90622758D01*
X234401055Y-90570615D01*
X234339609Y-90512429D01*
X234281386Y-90448799D01*
X234272974Y-90438816D01*
X234225913Y-90377202D01*
X234183160Y-90310855D01*
X234145348Y-90241139D01*
X234113107Y-90169417D01*
X234087071Y-90097054D01*
X234067871Y-90025413D01*
X234058924Y-89977004D01*
X234053626Y-89948727D01*
X234045710Y-89919134D01*
X234034463Y-89885683D01*
X234029562Y-89872474D01*
X234013266Y-89828323D01*
X233999766Y-89790037D01*
X234268934Y-89790037D01*
X234269004Y-89814900D01*
X234269942Y-89836591D01*
X234271890Y-89857750D01*
X234274990Y-89881014D01*
X234276774Y-89892716D01*
X234287013Y-89946310D01*
X234300994Y-90001542D01*
X234318152Y-90056990D01*
X234337923Y-90111229D01*
X234359746Y-90162837D01*
X234383056Y-90210391D01*
X234407290Y-90252467D01*
X234431884Y-90287643D01*
X234434281Y-90290650D01*
X234453397Y-90313194D01*
X234476300Y-90338391D01*
X234501541Y-90364800D01*
X234527670Y-90390978D01*
X234553237Y-90415485D01*
X234576793Y-90436878D01*
X234596887Y-90453716D01*
X234602866Y-90458290D01*
X234671719Y-90504771D01*
X234742040Y-90543531D01*
X234813360Y-90574350D01*
X234885206Y-90597007D01*
X234912245Y-90603366D01*
X234930441Y-90607163D01*
X234945232Y-90609884D01*
X234958607Y-90611673D01*
X234972553Y-90612676D01*
X234989058Y-90613037D01*
X235010110Y-90612900D01*
X235036783Y-90612427D01*
X235065917Y-90611614D01*
X235088579Y-90610325D01*
X235106759Y-90608352D01*
X235122445Y-90605484D01*
X235136236Y-90601917D01*
X235170637Y-90589762D01*
X235200230Y-90574861D01*
X235223562Y-90558010D01*
X235232360Y-90549180D01*
X235249936Y-90524174D01*
X235265387Y-90492493D01*
X235277988Y-90455811D01*
X235284689Y-90428233D01*
X235288604Y-90407485D01*
X235290999Y-90389717D01*
X235292053Y-90372027D01*
X235291947Y-90351515D01*
X235290962Y-90327304D01*
X235289617Y-90305360D01*
X235287940Y-90285685D01*
X235286130Y-90270240D01*
X235284387Y-90260988D01*
X235284134Y-90260231D01*
X235281650Y-90251327D01*
X235278478Y-90236662D01*
X235275169Y-90218856D01*
X235273952Y-90211583D01*
X235267142Y-90177015D01*
X235257398Y-90140305D01*
X235244236Y-90099841D01*
X235227170Y-90054011D01*
X235224504Y-90047233D01*
X235193393Y-89976343D01*
X235158082Y-89911095D01*
X235117492Y-89849848D01*
X235070546Y-89790961D01*
X235039207Y-89757250D01*
X235411470Y-89757250D01*
X235411807Y-89786440D01*
X235413035Y-89811233D01*
X235415503Y-89834165D01*
X235419560Y-89857775D01*
X235425553Y-89884599D01*
X235432968Y-89913883D01*
X235454314Y-89979060D01*
X235483185Y-90041067D01*
X235519095Y-90099474D01*
X235561557Y-90153847D01*
X235610084Y-90203756D01*
X235664190Y-90248768D01*
X235723388Y-90288451D01*
X235787192Y-90322375D01*
X235855115Y-90350107D01*
X235926670Y-90371215D01*
X235955545Y-90377576D01*
X235982996Y-90382248D01*
X236014313Y-90386267D01*
X236046978Y-90389419D01*
X236078473Y-90391495D01*
X236106278Y-90392281D01*
X236124750Y-90391803D01*
X236139384Y-90390825D01*
X236158668Y-90389507D01*
X236161102Y-90389338D01*
X236859486Y-90389338D01*
X236859910Y-90406880D01*
X236860996Y-90421212D01*
X236862854Y-90434083D01*
X236865599Y-90447244D01*
X236867754Y-90456156D01*
X236880211Y-90497658D01*
X236894891Y-90531071D01*
X236911836Y-90556485D01*
X236917907Y-90563107D01*
X236939623Y-90580568D01*
X236967671Y-90596656D01*
X236999930Y-90610456D01*
X237034277Y-90621052D01*
X237066666Y-90627285D01*
X237089505Y-90629335D01*
X237117705Y-90630481D01*
X237148362Y-90630732D01*
X237178574Y-90630095D01*
X237205440Y-90628578D01*
X237221622Y-90626870D01*
X237239578Y-90623705D01*
X237262318Y-90618736D01*
X237286557Y-90612721D01*
X237303547Y-90608033D01*
X237365878Y-90587811D01*
X237422898Y-90564612D01*
X237476029Y-90537566D01*
X237526696Y-90505804D01*
X237576320Y-90468457D01*
X237626326Y-90424654D01*
X237664476Y-90387509D01*
X237710944Y-90338781D01*
X237750756Y-90293003D01*
X237784646Y-90248985D01*
X237813343Y-90205536D01*
X237837577Y-90161466D01*
X237858081Y-90115585D01*
X237875585Y-90066702D01*
X237888432Y-90022717D01*
X237900512Y-89966584D01*
X237908470Y-89905395D01*
X237912184Y-89841554D01*
X237911533Y-89777468D01*
X237906393Y-89715542D01*
X237904645Y-89702422D01*
X237894114Y-89639662D01*
X237881462Y-89584365D01*
X237866436Y-89535732D01*
X237848778Y-89492968D01*
X237828233Y-89455275D01*
X237822659Y-89446615D01*
X237801564Y-89420067D01*
X237776858Y-89399156D01*
X237747413Y-89383233D01*
X237712103Y-89371651D01*
X237681294Y-89365456D01*
X237655636Y-89364128D01*
X237624670Y-89367013D01*
X237590158Y-89373666D01*
X237553864Y-89383643D01*
X237517551Y-89396500D01*
X237482982Y-89411793D01*
X237469389Y-89418845D01*
X237408358Y-89455750D01*
X237345575Y-89500868D01*
X237281105Y-89554141D01*
X237215014Y-89615514D01*
X237147371Y-89684929D01*
X237118005Y-89717033D01*
X237069213Y-89776787D01*
X237023753Y-89843386D01*
X236982206Y-89915669D01*
X236945152Y-89992474D01*
X236913170Y-90072640D01*
X236886840Y-90155005D01*
X236873654Y-90206468D01*
X236869271Y-90226483D01*
X236866028Y-90244562D01*
X236863709Y-90262811D01*
X236862097Y-90283332D01*
X236860977Y-90308231D01*
X236860176Y-90337623D01*
X236859612Y-90366836D01*
X236859486Y-90389338D01*
X236161102Y-90389338D01*
X236178808Y-90388109D01*
X236181900Y-90387892D01*
X236241999Y-90380187D01*
X236304378Y-90365699D01*
X236367240Y-90345066D01*
X236428790Y-90318928D01*
X236487232Y-90287922D01*
X236518830Y-90268072D01*
X236578767Y-90223175D01*
X236631957Y-90173215D01*
X236678316Y-90118302D01*
X236717763Y-90058543D01*
X236750213Y-89994048D01*
X236772055Y-89936132D01*
X236784798Y-89892628D01*
X236793300Y-89852523D01*
X236798018Y-89812561D01*
X236799412Y-89769484D01*
X236798983Y-89745011D01*
X236792973Y-89673237D01*
X236779427Y-89605093D01*
X236758227Y-89540312D01*
X236729255Y-89478624D01*
X236692392Y-89419760D01*
X236647521Y-89363451D01*
X236617920Y-89331996D01*
X236562057Y-89281809D01*
X236501315Y-89238242D01*
X236436320Y-89201480D01*
X236367694Y-89171708D01*
X236296064Y-89149111D01*
X236222052Y-89133875D01*
X236146284Y-89126184D01*
X236069383Y-89126224D01*
X235991974Y-89134180D01*
X235966000Y-89138655D01*
X235892017Y-89156499D01*
X235821877Y-89180953D01*
X235755957Y-89211596D01*
X235694631Y-89248009D01*
X235638276Y-89289773D01*
X235587269Y-89336468D01*
X235541985Y-89387675D01*
X235502801Y-89442973D01*
X235470092Y-89501943D01*
X235444236Y-89564166D01*
X235425607Y-89629222D01*
X235414583Y-89696691D01*
X235411470Y-89757250D01*
X235039207Y-89757250D01*
X235020735Y-89737381D01*
X234962458Y-89681888D01*
X234903571Y-89632179D01*
X234844510Y-89588452D01*
X234785714Y-89550909D01*
X234727620Y-89519750D01*
X234670664Y-89495174D01*
X234615286Y-89477382D01*
X234561921Y-89466574D01*
X234511008Y-89462950D01*
X234462983Y-89466710D01*
X234439665Y-89471555D01*
X234405161Y-89482044D01*
X234377453Y-89494711D01*
X234354915Y-89510858D01*
X234335921Y-89531782D01*
X234318846Y-89558783D01*
X234310664Y-89574673D01*
X234297469Y-89603227D01*
X234287466Y-89629011D01*
X234280186Y-89654133D01*
X234275161Y-89680702D01*
X234271921Y-89710829D01*
X234269997Y-89746621D01*
X234269589Y-89759366D01*
X234268934Y-89790037D01*
X233999766Y-89790037D01*
X233997164Y-89782658D01*
X233981732Y-89736960D01*
X233967444Y-89692712D01*
X233954775Y-89651395D01*
X233944199Y-89614492D01*
X233936193Y-89583485D01*
X233934288Y-89575216D01*
X233927787Y-89548063D01*
X233921633Y-89526521D01*
X233916139Y-89511598D01*
X233912647Y-89505366D01*
X233895081Y-89482976D01*
X233875785Y-89457542D01*
X233856146Y-89430965D01*
X233837545Y-89405142D01*
X233821369Y-89381972D01*
X233809001Y-89363354D01*
X233808225Y-89362130D01*
X233781202Y-89315751D01*
X233756088Y-89265745D01*
X233733615Y-89213977D01*
X233714514Y-89162308D01*
X233699520Y-89112603D01*
X233689364Y-89066725D01*
X233687536Y-89055166D01*
X233684339Y-89037408D01*
X233680744Y-89025123D01*
X233677186Y-89019796D01*
X233677166Y-89019789D01*
X233675545Y-89015113D01*
X233674166Y-89003286D01*
X233673036Y-88985605D01*
X233672156Y-88963367D01*
X233671533Y-88937868D01*
X233671169Y-88910406D01*
X233671070Y-88882277D01*
X233671228Y-88856853D01*
X233913266Y-88856853D01*
X233913705Y-88885061D01*
X233913994Y-88897883D01*
X233914858Y-88928906D01*
X233915937Y-88953548D01*
X233917452Y-88973892D01*
X233919623Y-88992023D01*
X233922670Y-89010025D01*
X233926815Y-89029983D01*
X233928993Y-89039699D01*
X233948086Y-89112227D01*
X233970928Y-89177710D01*
X233997868Y-89236854D01*
X234029253Y-89290370D01*
X234065432Y-89338965D01*
X234089534Y-89366000D01*
X234112899Y-89389127D01*
X234132235Y-89405102D01*
X234147768Y-89414094D01*
X234157550Y-89416370D01*
X234164819Y-89415446D01*
X234176603Y-89413007D01*
X234181856Y-89411739D01*
X234202901Y-89402435D01*
X234224494Y-89385312D01*
X234246233Y-89360966D01*
X234267721Y-89329990D01*
X234288555Y-89292980D01*
X234308337Y-89250532D01*
X234326667Y-89203238D01*
X234331443Y-89189331D01*
X234354773Y-89114137D01*
X234375307Y-89036171D01*
X234393373Y-88953975D01*
X234409296Y-88866092D01*
X234420819Y-88789933D01*
X234426910Y-88736004D01*
X234430920Y-88677928D01*
X234431726Y-88652349D01*
X234647695Y-88652349D01*
X234647755Y-88682228D01*
X234648192Y-88705738D01*
X234649182Y-88724974D01*
X234650902Y-88742031D01*
X234653529Y-88759004D01*
X234657239Y-88777988D01*
X234658961Y-88786129D01*
X234676135Y-88852753D01*
X234697925Y-88912955D01*
X234724850Y-88967719D01*
X234757425Y-89018033D01*
X234796166Y-89064879D01*
X234815541Y-89084887D01*
X234856569Y-89122096D01*
X234898756Y-89153437D01*
X234943577Y-89179692D01*
X234992503Y-89201639D01*
X235047007Y-89220060D01*
X235093933Y-89232387D01*
X235111694Y-89236383D01*
X235126858Y-89239146D01*
X235141587Y-89240840D01*
X235158044Y-89241629D01*
X235178391Y-89241677D01*
X235204790Y-89241148D01*
X235208233Y-89241059D01*
X235242947Y-89239726D01*
X235272087Y-89237525D01*
X235298528Y-89234160D01*
X235325144Y-89229332D01*
X235329177Y-89228495D01*
X235407193Y-89207839D01*
X235481829Y-89179457D01*
X235552905Y-89143459D01*
X235620244Y-89099956D01*
X235683667Y-89049058D01*
X235742995Y-88990877D01*
X235779706Y-88948683D01*
X235822824Y-88890512D01*
X235860923Y-88828002D01*
X235893643Y-88762234D01*
X235920625Y-88694289D01*
X235941509Y-88625246D01*
X235955935Y-88556188D01*
X235963543Y-88488193D01*
X235963834Y-88443606D01*
X236246189Y-88443606D01*
X236253712Y-88518517D01*
X236269381Y-88593893D01*
X236293160Y-88669424D01*
X236325012Y-88744799D01*
X236336869Y-88768766D01*
X236379186Y-88842444D01*
X236427623Y-88910329D01*
X236482033Y-88972274D01*
X236542267Y-89028131D01*
X236608178Y-89077753D01*
X236679615Y-89120993D01*
X236704716Y-89134005D01*
X236770452Y-89162742D01*
X236838109Y-89184695D01*
X236906571Y-89199667D01*
X236974722Y-89207462D01*
X237041443Y-89207881D01*
X237093631Y-89202685D01*
X237125331Y-89196441D01*
X237160858Y-89187022D01*
X237197368Y-89175361D01*
X237232021Y-89162387D01*
X237261972Y-89149032D01*
X237269866Y-89144956D01*
X237323605Y-89111513D01*
X237374055Y-89071218D01*
X237420043Y-89025277D01*
X237460399Y-88974896D01*
X237493950Y-88921280D01*
X237501718Y-88906349D01*
X237509877Y-88887699D01*
X237519106Y-88862936D01*
X237528743Y-88834233D01*
X237538127Y-88803765D01*
X237546598Y-88773707D01*
X237553493Y-88746232D01*
X237558151Y-88723516D01*
X237559012Y-88717966D01*
X237561271Y-88694973D01*
X237562718Y-88666031D01*
X237563359Y-88633617D01*
X237563199Y-88600210D01*
X237562242Y-88568288D01*
X237560492Y-88540327D01*
X237559450Y-88530741D01*
X237751250Y-88530741D01*
X237751331Y-88568519D01*
X237755936Y-88688651D01*
X237767078Y-88804510D01*
X237784980Y-88917461D01*
X237809862Y-89028869D01*
X237841946Y-89140100D01*
X237846023Y-89152685D01*
X237859060Y-89189573D01*
X237873887Y-89226586D01*
X237889705Y-89262012D01*
X237905711Y-89294134D01*
X237921104Y-89321238D01*
X237933204Y-89339180D01*
X237953248Y-89362099D01*
X237974423Y-89379851D01*
X237995540Y-89391716D01*
X238015410Y-89396974D01*
X238027633Y-89396401D01*
X238038971Y-89393080D01*
X238051738Y-89388043D01*
X238052124Y-89387867D01*
X238065121Y-89379232D01*
X238081198Y-89364355D01*
X238099424Y-89344454D01*
X238118870Y-89320746D01*
X238138608Y-89294448D01*
X238157708Y-89266777D01*
X238175241Y-89238949D01*
X238190278Y-89212183D01*
X238197677Y-89197222D01*
X238228411Y-89121373D01*
X238250816Y-89044039D01*
X238264884Y-88965249D01*
X238269016Y-88922040D01*
X238270406Y-88842072D01*
X238263821Y-88764188D01*
X238249403Y-88688773D01*
X238227292Y-88616212D01*
X238197630Y-88546888D01*
X238160556Y-88481187D01*
X238116212Y-88419492D01*
X238064739Y-88362188D01*
X238063303Y-88360756D01*
X238036052Y-88335165D01*
X238006889Y-88310423D01*
X237977219Y-88287539D01*
X237948448Y-88267526D01*
X237921982Y-88251394D01*
X237899227Y-88240154D01*
X237891708Y-88237331D01*
X237879685Y-88233615D01*
X237871167Y-88232607D01*
X237862685Y-88234638D01*
X237850772Y-88240038D01*
X237847720Y-88241529D01*
X237829936Y-88251830D01*
X237815309Y-88264372D01*
X237802998Y-88280447D01*
X237792158Y-88301346D01*
X237781946Y-88328361D01*
X237773823Y-88354684D01*
X237765517Y-88386592D01*
X237759294Y-88418373D01*
X237754966Y-88451806D01*
X237752347Y-88488669D01*
X237751250Y-88530741D01*
X237559450Y-88530741D01*
X237558633Y-88523233D01*
X237545329Y-88454225D01*
X237524868Y-88383824D01*
X237497929Y-88313853D01*
X237465186Y-88246136D01*
X237439003Y-88200774D01*
X237396704Y-88139638D01*
X237347462Y-88080913D01*
X237292762Y-88026213D01*
X237234092Y-87977147D01*
X237229858Y-87973953D01*
X237196958Y-87951091D01*
X237159927Y-87928394D01*
X237120659Y-87906818D01*
X237081046Y-87887317D01*
X237042982Y-87870844D01*
X237008360Y-87858354D01*
X236990466Y-87853278D01*
X236958474Y-87845365D01*
X236933142Y-87839213D01*
X236912897Y-87834603D01*
X236896166Y-87831319D01*
X236881377Y-87829143D01*
X236866957Y-87827856D01*
X236851333Y-87827240D01*
X236832933Y-87827079D01*
X236810184Y-87827155D01*
X236802083Y-87827192D01*
X236773690Y-87827371D01*
X236751761Y-87827784D01*
X236734297Y-87828658D01*
X236719294Y-87830219D01*
X236704751Y-87832692D01*
X236688667Y-87836306D01*
X236669041Y-87841285D01*
X236662612Y-87842962D01*
X236600211Y-87862600D01*
X236543613Y-87887632D01*
X236491577Y-87918753D01*
X236442865Y-87956657D01*
X236417351Y-87980342D01*
X236376631Y-88024341D01*
X236342391Y-88070400D01*
X236313726Y-88120049D01*
X236289733Y-88174818D01*
X236272867Y-88224768D01*
X236255730Y-88296421D01*
X236246850Y-88369470D01*
X236246189Y-88443606D01*
X235963834Y-88443606D01*
X235963973Y-88422343D01*
X235962374Y-88400139D01*
X235955818Y-88344388D01*
X235946954Y-88294864D01*
X235935259Y-88249514D01*
X235920208Y-88206287D01*
X235902417Y-88165516D01*
X235870992Y-88109150D01*
X235832622Y-88056780D01*
X235788144Y-88009149D01*
X235738396Y-87967000D01*
X235684213Y-87931074D01*
X235626434Y-87902115D01*
X235589697Y-87888160D01*
X235575482Y-87884070D01*
X235556296Y-87879496D01*
X235533635Y-87874694D01*
X235508995Y-87869923D01*
X235483869Y-87865440D01*
X235459754Y-87861502D01*
X235438144Y-87858367D01*
X235420535Y-87856291D01*
X235408422Y-87855532D01*
X235403544Y-87856126D01*
X235398400Y-87857204D01*
X235386580Y-87858790D01*
X235369840Y-87860671D01*
X235349939Y-87862633D01*
X235349920Y-87862635D01*
X235274072Y-87873851D01*
X235200232Y-87893214D01*
X235128696Y-87920579D01*
X235059759Y-87955800D01*
X234993717Y-87998734D01*
X234930868Y-88049235D01*
X234890194Y-88087733D01*
X234832790Y-88151302D01*
X234782967Y-88218596D01*
X234740624Y-88289802D01*
X234705660Y-88365106D01*
X234677973Y-88444695D01*
X234661488Y-88509295D01*
X234656595Y-88532380D01*
X234653027Y-88551379D01*
X234650575Y-88568486D01*
X234649025Y-88585892D01*
X234648167Y-88605791D01*
X234647789Y-88630375D01*
X234647695Y-88652349D01*
X234431726Y-88652349D01*
X234432799Y-88618342D01*
X234432496Y-88559881D01*
X234429958Y-88505181D01*
X234427020Y-88472292D01*
X234419752Y-88419897D01*
X234410278Y-88375192D01*
X234398425Y-88337648D01*
X234384022Y-88306736D01*
X234366896Y-88281927D01*
X234363877Y-88278472D01*
X234345383Y-88262418D01*
X234325432Y-88254001D01*
X234303446Y-88253203D01*
X234278850Y-88260008D01*
X234251067Y-88274401D01*
X234249657Y-88275275D01*
X234192505Y-88314780D01*
X234139210Y-88359358D01*
X234090783Y-88407942D01*
X234048232Y-88459465D01*
X234012570Y-88512860D01*
X233995997Y-88543157D01*
X233961944Y-88619611D01*
X233936288Y-88696931D01*
X233921140Y-88763060D01*
X233917878Y-88782026D01*
X233915563Y-88798936D01*
X233914092Y-88815743D01*
X233913361Y-88834397D01*
X233913266Y-88856853D01*
X233671228Y-88856853D01*
X233671241Y-88854779D01*
X233671684Y-88829207D01*
X233672404Y-88806860D01*
X233673407Y-88789034D01*
X233674695Y-88777025D01*
X233676274Y-88772131D01*
X233676341Y-88772102D01*
X233678842Y-88767592D01*
X233682463Y-88756274D01*
X233686790Y-88739669D01*
X233691405Y-88719293D01*
X233693254Y-88710354D01*
X233708775Y-88644591D01*
X233728463Y-88582308D01*
X233753386Y-88520398D01*
X233772950Y-88478783D01*
X233814482Y-88402490D01*
X233860710Y-88331919D01*
X233911219Y-88267574D01*
X233965596Y-88209962D01*
X234023428Y-88159588D01*
X234050416Y-88139454D01*
X234069199Y-88125825D01*
X234082601Y-88115035D01*
X234092355Y-88105335D01*
X234100196Y-88094975D01*
X234107859Y-88082206D01*
X234108733Y-88080637D01*
X234116663Y-88065633D01*
X234122899Y-88052514D01*
X234126251Y-88043811D01*
X234126429Y-88043055D01*
X234129081Y-88026529D01*
X234131985Y-88003423D01*
X234134951Y-87975613D01*
X234137607Y-87946901D01*
X234391200Y-87946901D01*
X234391295Y-87971615D01*
X234391703Y-87989374D01*
X234392600Y-88001689D01*
X234394166Y-88010069D01*
X234396579Y-88016026D01*
X234399973Y-88021012D01*
X234410626Y-88029334D01*
X234425598Y-88032107D01*
X234445603Y-88029340D01*
X234469488Y-88021747D01*
X234494476Y-88011555D01*
X234520608Y-87999242D01*
X234548660Y-87984336D01*
X234579407Y-87966368D01*
X234613625Y-87944867D01*
X234652089Y-87919364D01*
X234695575Y-87889387D01*
X234742047Y-87856479D01*
X234790448Y-87820746D01*
X234842305Y-87780444D01*
X234896477Y-87736579D01*
X234951826Y-87690156D01*
X235007213Y-87642181D01*
X235061497Y-87593660D01*
X235113541Y-87545599D01*
X235162205Y-87499003D01*
X235206349Y-87454879D01*
X235221756Y-87438606D01*
X235476260Y-87438606D01*
X235477674Y-87471835D01*
X235486726Y-87506235D01*
X235503188Y-87541163D01*
X235526826Y-87575973D01*
X235554525Y-87607153D01*
X235597739Y-87644961D01*
X235648122Y-87678911D01*
X235705214Y-87708830D01*
X235768561Y-87734542D01*
X235837704Y-87755871D01*
X235912188Y-87772643D01*
X235991555Y-87784683D01*
X236027383Y-87788389D01*
X236050891Y-87790369D01*
X236071501Y-87791736D01*
X236090873Y-87792478D01*
X236110669Y-87792580D01*
X236132550Y-87792030D01*
X236158178Y-87790814D01*
X236189215Y-87788919D01*
X236220000Y-87786840D01*
X236287666Y-87779952D01*
X236354785Y-87768887D01*
X236419519Y-87754073D01*
X236480031Y-87735938D01*
X236534484Y-87714909D01*
X236540488Y-87712228D01*
X236581458Y-87690954D01*
X236619440Y-87666003D01*
X236653383Y-87638341D01*
X236682236Y-87608936D01*
X236704949Y-87578756D01*
X236720471Y-87548768D01*
X236721828Y-87545152D01*
X236731903Y-87505990D01*
X236733852Y-87467086D01*
X236727621Y-87428288D01*
X236713156Y-87389446D01*
X236690402Y-87350410D01*
X236659306Y-87311029D01*
X236625380Y-87276327D01*
X236589937Y-87246082D01*
X236835675Y-87246082D01*
X236838039Y-87257363D01*
X236838174Y-87257866D01*
X236846701Y-87279538D01*
X236861665Y-87305795D01*
X236882675Y-87336209D01*
X236909343Y-87370355D01*
X236941280Y-87407805D01*
X236978097Y-87448132D01*
X237019405Y-87490911D01*
X237064816Y-87535715D01*
X237113940Y-87582116D01*
X237166388Y-87629689D01*
X237219066Y-87675690D01*
X237289009Y-87734678D01*
X237356110Y-87789296D01*
X237420043Y-87839315D01*
X237480479Y-87884506D01*
X237537090Y-87924640D01*
X237589549Y-87959488D01*
X237637528Y-87988821D01*
X237680699Y-88012411D01*
X237718733Y-88030029D01*
X237736352Y-88036747D01*
X237760723Y-88044423D01*
X237779122Y-88048126D01*
X237793011Y-88047944D01*
X237803848Y-88043960D01*
X237808089Y-88040975D01*
X237811892Y-88037577D01*
X237814564Y-88033644D01*
X237816283Y-88027767D01*
X237817227Y-88018535D01*
X237817576Y-88004540D01*
X237817507Y-87984372D01*
X237817331Y-87967950D01*
X237816027Y-87923197D01*
X237812960Y-87882460D01*
X237807748Y-87843491D01*
X237800008Y-87804042D01*
X237789357Y-87761868D01*
X237775413Y-87714721D01*
X237772734Y-87706200D01*
X237746120Y-87635577D01*
X237712268Y-87569166D01*
X237671034Y-87506736D01*
X237622273Y-87448059D01*
X237587376Y-87412681D01*
X237538677Y-87371295D01*
X237483446Y-87333141D01*
X237423261Y-87299020D01*
X237359698Y-87269735D01*
X237294338Y-87246086D01*
X237228756Y-87228876D01*
X237223507Y-87227794D01*
X237162688Y-87217977D01*
X237097153Y-87211817D01*
X237029880Y-87209435D01*
X236963845Y-87210949D01*
X236912149Y-87215248D01*
X236883850Y-87218743D01*
X236863041Y-87222164D01*
X236848772Y-87226060D01*
X236840089Y-87230979D01*
X236836041Y-87237470D01*
X236835675Y-87246082D01*
X236589937Y-87246082D01*
X236578771Y-87236554D01*
X236527662Y-87200913D01*
X236471244Y-87168973D01*
X236408710Y-87140302D01*
X236339249Y-87114469D01*
X236297139Y-87101115D01*
X236264960Y-87091924D01*
X236236475Y-87085001D01*
X236209447Y-87080040D01*
X236181637Y-87076733D01*
X236150809Y-87074775D01*
X236114726Y-87073857D01*
X236097233Y-87073708D01*
X236067783Y-87073686D01*
X236044537Y-87074081D01*
X236025232Y-87075089D01*
X236007607Y-87076901D01*
X235989403Y-87079712D01*
X235968357Y-87083715D01*
X235959650Y-87085485D01*
X235896596Y-87100342D01*
X235839434Y-87118132D01*
X235785821Y-87139820D01*
X235733413Y-87166370D01*
X235679868Y-87198745D01*
X235672231Y-87203742D01*
X235623164Y-87238671D01*
X235580275Y-87274496D01*
X235544023Y-87310724D01*
X235514868Y-87346861D01*
X235493270Y-87382413D01*
X235482718Y-87407191D01*
X235476260Y-87438606D01*
X235221756Y-87438606D01*
X235244834Y-87414231D01*
X235252266Y-87406036D01*
X235279984Y-87374720D01*
X235302525Y-87348060D01*
X235320804Y-87324832D01*
X235335736Y-87303813D01*
X235348236Y-87283777D01*
X235359218Y-87263501D01*
X235360133Y-87261682D01*
X235368119Y-87244919D01*
X235372757Y-87231876D01*
X235373338Y-87221949D01*
X235369150Y-87214534D01*
X235359483Y-87209025D01*
X235343626Y-87204818D01*
X235320869Y-87201308D01*
X235290501Y-87197891D01*
X235284433Y-87197265D01*
X235201916Y-87192287D01*
X235120134Y-87194137D01*
X235039949Y-87202629D01*
X234962220Y-87217581D01*
X234887808Y-87238806D01*
X234817573Y-87266120D01*
X234752377Y-87299339D01*
X234722194Y-87317936D01*
X234659128Y-87363705D01*
X234603027Y-87413859D01*
X234553659Y-87468729D01*
X234510787Y-87528649D01*
X234474177Y-87593948D01*
X234443596Y-87664959D01*
X234418807Y-87742013D01*
X234416796Y-87749466D01*
X234403562Y-87807034D01*
X234395321Y-87862638D01*
X234391563Y-87920200D01*
X234391200Y-87946901D01*
X234137607Y-87946901D01*
X234137786Y-87944974D01*
X234140299Y-87913380D01*
X234141584Y-87894583D01*
X234143887Y-87861077D01*
X234146271Y-87833640D01*
X234149073Y-87809878D01*
X234152630Y-87787397D01*
X234157280Y-87763802D01*
X234163359Y-87736701D01*
X234164553Y-87731600D01*
X234187501Y-87648525D01*
X234216170Y-87570899D01*
X234250901Y-87498240D01*
X234292033Y-87430066D01*
X234339908Y-87365895D01*
X234394866Y-87305244D01*
X234457247Y-87247632D01*
X234527392Y-87192576D01*
X234562649Y-87167778D01*
X234583098Y-87154065D01*
X234603998Y-87140391D01*
X234622851Y-87128372D01*
X234636733Y-87119872D01*
X234650204Y-87111874D01*
X234660605Y-87105591D01*
X234665978Y-87102208D01*
X234666244Y-87102012D01*
X234665547Y-87099003D01*
X234657622Y-87094472D01*
X234642123Y-87088258D01*
X234621916Y-87081259D01*
X234581972Y-87066160D01*
X234549459Y-87049896D01*
X234531198Y-87037791D01*
X234519888Y-87026906D01*
X234507521Y-87011510D01*
X234495902Y-86994264D01*
X234486833Y-86977828D01*
X234482267Y-86965599D01*
X234479125Y-86956370D01*
X234473324Y-86948982D01*
X234463391Y-86942389D01*
X234447848Y-86935544D01*
X234431416Y-86929544D01*
X234387808Y-86911158D01*
X234351543Y-86888893D01*
X234322280Y-86862430D01*
X234299681Y-86831452D01*
X234283407Y-86795640D01*
X234281084Y-86788529D01*
X234276059Y-86773591D01*
X234271250Y-86761506D01*
X234267805Y-86755060D01*
X234262396Y-86750223D01*
X234251851Y-86742019D01*
X234238022Y-86731863D01*
X234230851Y-86726775D01*
X234202797Y-86704867D01*
X234176487Y-86680150D01*
X234153610Y-86654438D01*
X234135852Y-86629544D01*
X234129236Y-86617597D01*
X234117870Y-86587418D01*
X234111511Y-86557236D01*
X234106929Y-86523755D01*
X234074139Y-86491619D01*
X234052826Y-86469040D01*
X234037172Y-86448249D01*
X234027088Y-86430457D01*
X234020809Y-86417057D01*
X234016587Y-86405659D01*
X234013916Y-86393815D01*
X234012293Y-86379075D01*
X234011212Y-86358991D01*
X234010942Y-86352197D01*
X234009057Y-86302964D01*
X233982421Y-86265868D01*
X233969846Y-86247565D01*
X233957905Y-86228810D01*
X233948341Y-86212404D01*
X233944619Y-86205171D01*
X233934135Y-86173963D01*
X233930456Y-86140598D01*
X233933816Y-86107904D01*
X233935854Y-86099924D01*
X233943030Y-86075241D01*
X233927705Y-86051462D01*
X233906727Y-86014629D01*
X233893357Y-85980489D01*
X233888977Y-85956111D01*
X234073694Y-85956111D01*
X234076476Y-85963730D01*
X234084002Y-85975848D01*
X234095061Y-85990943D01*
X234108441Y-86007495D01*
X234122930Y-86023985D01*
X234137317Y-86038893D01*
X234146405Y-86047334D01*
X234177940Y-86075371D01*
X234202728Y-86098470D01*
X234220845Y-86116707D01*
X234232365Y-86130159D01*
X234237363Y-86138905D01*
X234237416Y-86141599D01*
X234229430Y-86151011D01*
X234213904Y-86157121D01*
X234190745Y-86159952D01*
X234159858Y-86159524D01*
X234159241Y-86159487D01*
X234115666Y-86156858D01*
X234129390Y-86176937D01*
X234138942Y-86189414D01*
X234152907Y-86205217D01*
X234171716Y-86224786D01*
X234195804Y-86248561D01*
X234225602Y-86276982D01*
X234253777Y-86303297D01*
X234269620Y-86318223D01*
X234282956Y-86331234D01*
X234292670Y-86341208D01*
X234297648Y-86347022D01*
X234298066Y-86347893D01*
X234294106Y-86353220D01*
X234283315Y-86358108D01*
X234267329Y-86362129D01*
X234247786Y-86364855D01*
X234229481Y-86365835D01*
X234192645Y-86366350D01*
X234206197Y-86380516D01*
X234222603Y-86396332D01*
X234244661Y-86415618D01*
X234270936Y-86437212D01*
X234299992Y-86459951D01*
X234330395Y-86482676D01*
X234348700Y-86495830D01*
X234369378Y-86510501D01*
X234383982Y-86521147D01*
X234393360Y-86528618D01*
X234398361Y-86533765D01*
X234399830Y-86537440D01*
X234398617Y-86540494D01*
X234396013Y-86543334D01*
X234389576Y-86547696D01*
X234379187Y-86551044D01*
X234363215Y-86553784D01*
X234346099Y-86555732D01*
X234328043Y-86557800D01*
X234313202Y-86559989D01*
X234303570Y-86561980D01*
X234301087Y-86562974D01*
X234302408Y-86566968D01*
X234310350Y-86574381D01*
X234324057Y-86584667D01*
X234342670Y-86597277D01*
X234365331Y-86611665D01*
X234391183Y-86627283D01*
X234419367Y-86643584D01*
X234449026Y-86660022D01*
X234474354Y-86673484D01*
X234566095Y-86721243D01*
X234554778Y-86730978D01*
X234543157Y-86738215D01*
X234526674Y-86745290D01*
X234508864Y-86750929D01*
X234493258Y-86753857D01*
X234490973Y-86753997D01*
X234479412Y-86755855D01*
X234473749Y-86757623D01*
X234471987Y-86761035D01*
X234477581Y-86766583D01*
X234489782Y-86773951D01*
X234507844Y-86782819D01*
X234531020Y-86792870D01*
X234558561Y-86803785D01*
X234589721Y-86815247D01*
X234623752Y-86826936D01*
X234659906Y-86838536D01*
X234673775Y-86842773D01*
X234694869Y-86849284D01*
X234712743Y-86855100D01*
X234725987Y-86859740D01*
X234733188Y-86862718D01*
X234734084Y-86863414D01*
X234732069Y-86868317D01*
X234727121Y-86877248D01*
X234725911Y-86879260D01*
X234714604Y-86891267D01*
X234695750Y-86903114D01*
X234691067Y-86905446D01*
X234664381Y-86918254D01*
X234677015Y-86923183D01*
X234715209Y-86935492D01*
X234759447Y-86945259D01*
X234807581Y-86952067D01*
X234840121Y-86954720D01*
X234863427Y-86956491D01*
X234887964Y-86959069D01*
X234911979Y-86962192D01*
X234933718Y-86965597D01*
X234951426Y-86969023D01*
X234963349Y-86972205D01*
X234966656Y-86973662D01*
X234970172Y-86977551D01*
X234969433Y-86984167D01*
X234967035Y-86990520D01*
X234961677Y-86999144D01*
X234952599Y-87009993D01*
X234941772Y-87021117D01*
X234931165Y-87030565D01*
X234922748Y-87036385D01*
X234919770Y-87037333D01*
X234916205Y-87040539D01*
X234916133Y-87041334D01*
X234919974Y-87044012D01*
X234929940Y-87046183D01*
X234943689Y-87047593D01*
X234958883Y-87047987D01*
X234971166Y-87047335D01*
X234980642Y-87046552D01*
X234996622Y-87045420D01*
X235017154Y-87044068D01*
X235040288Y-87042629D01*
X235049483Y-87042078D01*
X235078531Y-87040173D01*
X235103601Y-87038005D01*
X235126965Y-87035249D01*
X235150897Y-87031584D01*
X235177671Y-87026685D01*
X235209561Y-87020229D01*
X235223049Y-87017394D01*
X235295254Y-86999071D01*
X235361725Y-86975952D01*
X235422169Y-86948229D01*
X235476293Y-86916092D01*
X235523807Y-86879731D01*
X235564417Y-86839337D01*
X235597830Y-86795100D01*
X235617729Y-86760050D01*
X235630292Y-86733283D01*
X235640216Y-86709354D01*
X235647115Y-86689382D01*
X235650605Y-86674488D01*
X235650299Y-86665792D01*
X235650216Y-86665616D01*
X235645102Y-86658837D01*
X235634528Y-86647399D01*
X235619437Y-86632180D01*
X235600773Y-86614059D01*
X235579481Y-86593915D01*
X235556504Y-86572627D01*
X235532787Y-86551072D01*
X235509273Y-86530131D01*
X235486906Y-86510682D01*
X235466631Y-86493602D01*
X235457007Y-86485773D01*
X235397930Y-86439958D01*
X235332487Y-86391928D01*
X235262140Y-86342688D01*
X235188352Y-86293247D01*
X235112585Y-86244611D01*
X235055833Y-86209566D01*
X235025724Y-86191568D01*
X234990034Y-86170689D01*
X234950044Y-86147644D01*
X234907031Y-86123147D01*
X234862275Y-86097913D01*
X234817055Y-86072655D01*
X234772650Y-86048087D01*
X234730338Y-86024924D01*
X234691399Y-86003880D01*
X234657112Y-85985670D01*
X234628756Y-85971006D01*
X234627208Y-85970223D01*
X234596871Y-85954703D01*
X234573799Y-85942426D01*
X234557557Y-85933110D01*
X234547713Y-85926473D01*
X234543832Y-85922234D01*
X234545480Y-85920111D01*
X234549426Y-85919733D01*
X234554734Y-85921130D01*
X234566850Y-85925053D01*
X234584640Y-85931093D01*
X234606968Y-85938846D01*
X234632701Y-85947904D01*
X234660702Y-85957863D01*
X234689838Y-85968315D01*
X234718973Y-85978854D01*
X234746973Y-85989075D01*
X234772702Y-85998572D01*
X234795026Y-86006937D01*
X234812810Y-86013765D01*
X234818920Y-86016184D01*
X234838902Y-86024420D01*
X234865080Y-86035531D01*
X234895957Y-86048854D01*
X234930036Y-86063726D01*
X234965821Y-86079488D01*
X235001814Y-86095475D01*
X235036520Y-86111027D01*
X235068440Y-86125482D01*
X235096079Y-86138177D01*
X235117216Y-86148104D01*
X235235938Y-86208239D01*
X235355619Y-86275488D01*
X235474703Y-86348882D01*
X235591632Y-86427450D01*
X235704851Y-86510222D01*
X235732323Y-86531404D01*
X235744742Y-86540835D01*
X235754509Y-86546664D01*
X235763380Y-86548703D01*
X235773112Y-86546764D01*
X235785461Y-86540657D01*
X235802182Y-86530193D01*
X235813649Y-86522665D01*
X235856562Y-86490113D01*
X235891916Y-86453861D01*
X235919891Y-86413645D01*
X235940665Y-86369202D01*
X235954417Y-86320267D01*
X235955722Y-86313433D01*
X235958870Y-86291445D01*
X236241225Y-86291445D01*
X236241464Y-86306838D01*
X236242414Y-86318884D01*
X236244234Y-86329288D01*
X236247085Y-86339756D01*
X236251128Y-86351994D01*
X236252880Y-86357086D01*
X236266810Y-86392376D01*
X236282985Y-86422281D01*
X236303318Y-86449877D01*
X236325833Y-86474354D01*
X236343246Y-86490590D01*
X236362690Y-86506560D01*
X236382636Y-86521224D01*
X236401555Y-86533543D01*
X236417916Y-86542476D01*
X236430189Y-86546984D01*
X236433201Y-86547325D01*
X236439732Y-86544749D01*
X236452242Y-86537305D01*
X236470103Y-86525416D01*
X236492686Y-86509506D01*
X236519360Y-86489999D01*
X236529363Y-86482538D01*
X236618712Y-86417604D01*
X236706027Y-86358442D01*
X236793668Y-86303587D01*
X236883995Y-86251574D01*
X236979368Y-86200938D01*
X236998933Y-86191010D01*
X237080793Y-86150327D01*
X237157238Y-86113591D01*
X237229929Y-86080095D01*
X237300526Y-86049135D01*
X237370688Y-86020004D01*
X237442076Y-85991997D01*
X237516349Y-85964409D01*
X237595167Y-85936534D01*
X237608269Y-85932015D01*
X237626086Y-85925876D01*
X237637350Y-85922152D01*
X237643549Y-85920611D01*
X237646172Y-85921021D01*
X237646708Y-85923150D01*
X237646633Y-85926036D01*
X237642985Y-85930815D01*
X237632992Y-85937981D01*
X237618082Y-85946562D01*
X237611708Y-85949849D01*
X237580183Y-85965956D01*
X237542607Y-85985659D01*
X237500228Y-86008269D01*
X237454298Y-86033095D01*
X237406067Y-86059448D01*
X237356783Y-86086637D01*
X237307698Y-86113974D01*
X237260061Y-86140767D01*
X237215122Y-86166328D01*
X237174132Y-86189967D01*
X237138340Y-86210993D01*
X237136516Y-86212078D01*
X237074124Y-86250364D01*
X237009544Y-86292091D01*
X236944217Y-86336226D01*
X236879587Y-86381736D01*
X236817094Y-86427590D01*
X236758181Y-86472754D01*
X236704291Y-86516194D01*
X236664507Y-86550116D01*
X236646991Y-86565795D01*
X236628027Y-86583245D01*
X236608721Y-86601395D01*
X236590180Y-86619175D01*
X236573509Y-86635512D01*
X236559813Y-86649336D01*
X236550200Y-86659576D01*
X236545817Y-86665078D01*
X236545249Y-86673521D01*
X236548676Y-86688492D01*
X236552832Y-86700950D01*
X236577279Y-86756728D01*
X236608322Y-86807438D01*
X236646048Y-86853157D01*
X236690540Y-86893962D01*
X236741881Y-86929929D01*
X236800157Y-86961136D01*
X236865450Y-86987658D01*
X236867864Y-86988503D01*
X236910186Y-87002394D01*
X236950436Y-87013675D01*
X236990497Y-87022685D01*
X237032250Y-87029764D01*
X237077577Y-87035253D01*
X237128360Y-87039492D01*
X237161283Y-87041523D01*
X237184291Y-87042955D01*
X237204251Y-87044497D01*
X237219665Y-87046008D01*
X237229032Y-87047350D01*
X237231133Y-87048023D01*
X237236455Y-87048991D01*
X237246928Y-87048689D01*
X237259391Y-87047452D01*
X237270682Y-87045612D01*
X237277640Y-87043502D01*
X237278249Y-87043061D01*
X237276984Y-87039316D01*
X237271976Y-87034787D01*
X237255079Y-87020954D01*
X237241746Y-87006780D01*
X237232765Y-86993494D01*
X237228923Y-86982325D01*
X237231004Y-86974503D01*
X237232579Y-86973191D01*
X237240538Y-86969288D01*
X237252015Y-86965879D01*
X237268040Y-86962794D01*
X237289640Y-86959865D01*
X237317844Y-86956920D01*
X237346066Y-86954420D01*
X237395906Y-86949477D01*
X237438827Y-86943613D01*
X237474397Y-86936903D01*
X237502187Y-86929423D01*
X237513685Y-86925142D01*
X237530216Y-86918122D01*
X237506296Y-86905906D01*
X237488617Y-86895179D01*
X237474839Y-86883503D01*
X237466457Y-86872323D01*
X237464599Y-86865568D01*
X237468504Y-86861748D01*
X237479327Y-86856643D01*
X237495731Y-86850850D01*
X237501641Y-86849037D01*
X237536498Y-86838293D01*
X237571186Y-86826891D01*
X237604766Y-86815204D01*
X237636301Y-86803601D01*
X237664853Y-86792455D01*
X237689485Y-86782137D01*
X237709260Y-86773018D01*
X237723239Y-86765470D01*
X237730485Y-86759864D01*
X237731299Y-86758065D01*
X237727464Y-86755968D01*
X237717531Y-86753980D01*
X237706958Y-86752822D01*
X237689590Y-86750192D01*
X237672113Y-86745432D01*
X237656488Y-86739347D01*
X237644676Y-86732742D01*
X237638637Y-86726424D01*
X237638245Y-86724603D01*
X237641985Y-86719954D01*
X237653199Y-86712205D01*
X237671980Y-86701300D01*
X237698423Y-86687181D01*
X237713137Y-86679616D01*
X237751243Y-86659531D01*
X237787851Y-86638943D01*
X237821622Y-86618677D01*
X237851218Y-86599554D01*
X237875298Y-86582398D01*
X237887933Y-86572194D01*
X237902750Y-86559310D01*
X237876500Y-86559138D01*
X237851045Y-86557683D01*
X237827978Y-86553956D01*
X237809391Y-86548407D01*
X237798416Y-86542385D01*
X237793967Y-86538413D01*
X237793014Y-86535070D01*
X237796552Y-86530965D01*
X237805575Y-86524705D01*
X237815546Y-86518384D01*
X237832647Y-86507010D01*
X237852926Y-86492552D01*
X237875305Y-86475879D01*
X237898707Y-86457860D01*
X237922055Y-86439364D01*
X237944272Y-86421259D01*
X237964281Y-86404414D01*
X237981005Y-86389698D01*
X237993368Y-86377980D01*
X238000292Y-86370128D01*
X238001144Y-86368664D01*
X237997734Y-86367564D01*
X237987754Y-86366648D01*
X237973102Y-86366066D01*
X237967277Y-86365970D01*
X237945831Y-86364696D01*
X237927108Y-86361649D01*
X237912551Y-86357261D01*
X237903603Y-86351965D01*
X237901667Y-86346301D01*
X237905188Y-86341949D01*
X237914025Y-86332813D01*
X237927235Y-86319816D01*
X237943876Y-86303880D01*
X237963008Y-86285925D01*
X237969867Y-86279566D01*
X237991601Y-86258963D01*
X238012884Y-86237847D01*
X238032837Y-86217182D01*
X238050585Y-86197933D01*
X238065250Y-86181064D01*
X238075953Y-86167541D01*
X238081819Y-86158328D01*
X238082666Y-86155521D01*
X238079034Y-86155055D01*
X238069996Y-86156443D01*
X238066791Y-86157144D01*
X238039011Y-86161051D01*
X238010985Y-86160498D01*
X237985177Y-86155773D01*
X237964048Y-86147161D01*
X237960197Y-86144723D01*
X237957989Y-86139376D01*
X237962039Y-86130461D01*
X237972551Y-86117747D01*
X237989724Y-86101001D01*
X238013759Y-86079992D01*
X238022940Y-86072324D01*
X238041133Y-86056832D01*
X238058316Y-86041420D01*
X238072705Y-86027741D01*
X238082513Y-86017447D01*
X238083443Y-86016341D01*
X238092612Y-86004484D01*
X238102561Y-85990586D01*
X238112007Y-85976582D01*
X238119665Y-85964410D01*
X238124251Y-85956005D01*
X238125000Y-85953673D01*
X238121032Y-85952866D01*
X238110175Y-85952430D01*
X238094000Y-85952389D01*
X238074078Y-85952765D01*
X238070025Y-85952884D01*
X238047307Y-85953481D01*
X238031648Y-85953520D01*
X238021651Y-85952867D01*
X238015919Y-85951389D01*
X238013056Y-85948953D01*
X238012282Y-85947384D01*
X238011576Y-85936458D01*
X238014917Y-85919682D01*
X238021768Y-85898325D01*
X238031592Y-85873655D01*
X238043851Y-85846940D01*
X238058009Y-85819450D01*
X238073530Y-85792453D01*
X238086360Y-85772368D01*
X238112518Y-85733466D01*
X237999167Y-85733048D01*
X237956452Y-85732767D01*
X237921529Y-85732241D01*
X237893728Y-85731422D01*
X237872375Y-85730263D01*
X237856801Y-85728716D01*
X237846332Y-85726735D01*
X237840298Y-85724272D01*
X237838143Y-85721732D01*
X237840210Y-85716690D01*
X237847178Y-85707177D01*
X237857899Y-85694647D01*
X237868725Y-85683096D01*
X237901085Y-85649844D01*
X237872648Y-85644478D01*
X237837620Y-85640549D01*
X237798026Y-85641248D01*
X237753187Y-85646641D01*
X237702425Y-85656793D01*
X237675259Y-85663505D01*
X237651110Y-85669574D01*
X237629518Y-85674581D01*
X237611922Y-85678225D01*
X237599760Y-85680207D01*
X237594644Y-85680320D01*
X237587152Y-85673486D01*
X237581970Y-85661475D01*
X237580194Y-85647490D01*
X237580999Y-85640412D01*
X237585682Y-85630202D01*
X237595186Y-85616849D01*
X237606669Y-85603905D01*
X237616382Y-85593353D01*
X237622123Y-85585870D01*
X237622983Y-85582696D01*
X237622163Y-85582766D01*
X237614894Y-85584376D01*
X237601587Y-85586835D01*
X237584579Y-85589721D01*
X237576184Y-85591072D01*
X237558787Y-85594433D01*
X237535668Y-85599779D01*
X237509170Y-85606521D01*
X237481638Y-85614071D01*
X237464490Y-85619077D01*
X237436910Y-85627039D01*
X237413698Y-85633121D01*
X237395898Y-85637076D01*
X237384554Y-85638662D01*
X237381667Y-85638498D01*
X237373522Y-85633337D01*
X237369188Y-85621909D01*
X237369160Y-85621763D01*
X237369259Y-85606354D01*
X237375734Y-85590386D01*
X237389137Y-85572786D01*
X237400002Y-85561694D01*
X237409652Y-85551747D01*
X237415751Y-85544075D01*
X237416992Y-85540514D01*
X237411049Y-85539762D01*
X237398691Y-85541707D01*
X237381356Y-85545885D01*
X237360482Y-85551831D01*
X237337510Y-85559082D01*
X237313876Y-85567172D01*
X237291021Y-85575640D01*
X237270383Y-85584019D01*
X237253400Y-85591846D01*
X237246583Y-85595491D01*
X237234004Y-85602713D01*
X237217749Y-85612050D01*
X237202472Y-85620830D01*
X237188536Y-85628157D01*
X237176988Y-85632993D01*
X237170094Y-85634406D01*
X237169688Y-85634302D01*
X237162420Y-85628157D01*
X237155072Y-85616977D01*
X237149388Y-85603996D01*
X237147115Y-85592498D01*
X237149846Y-85577949D01*
X237156935Y-85561428D01*
X237166677Y-85546868D01*
X237167094Y-85546386D01*
X237172345Y-85538879D01*
X237171408Y-85535729D01*
X237165074Y-85536500D01*
X237154136Y-85540757D01*
X237139386Y-85548066D01*
X237121616Y-85557992D01*
X237101618Y-85570100D01*
X237080185Y-85583955D01*
X237058108Y-85599122D01*
X237036179Y-85615166D01*
X237022482Y-85625778D01*
X237004692Y-85639606D01*
X236989071Y-85651183D01*
X236976868Y-85659628D01*
X236969331Y-85664059D01*
X236967675Y-85664486D01*
X236963110Y-85660451D01*
X236955746Y-85651499D01*
X236949418Y-85642768D01*
X236941393Y-85629953D01*
X236937174Y-85618818D01*
X236935597Y-85605418D01*
X236935433Y-85595421D01*
X236934906Y-85581540D01*
X236933528Y-85571781D01*
X236931736Y-85568366D01*
X236925692Y-85571105D01*
X236914694Y-85578652D01*
X236899944Y-85590003D01*
X236882643Y-85604152D01*
X236863994Y-85620095D01*
X236845197Y-85636828D01*
X236827455Y-85653344D01*
X236812681Y-85667910D01*
X236796510Y-85684357D01*
X236785045Y-85695527D01*
X236777115Y-85702234D01*
X236771546Y-85705293D01*
X236767166Y-85705520D01*
X236762802Y-85703729D01*
X236761881Y-85703229D01*
X236753644Y-85696020D01*
X236744940Y-85684445D01*
X236741451Y-85678393D01*
X236735526Y-85664848D01*
X236733258Y-85652217D01*
X236733881Y-85636056D01*
X236733977Y-85635041D01*
X236734827Y-85622001D01*
X236734612Y-85613167D01*
X236733696Y-85610700D01*
X236728125Y-85613676D01*
X236717927Y-85621935D01*
X236704144Y-85634467D01*
X236687817Y-85650267D01*
X236669989Y-85668326D01*
X236651700Y-85687638D01*
X236634440Y-85706689D01*
X236609947Y-85734308D01*
X236590356Y-85756144D01*
X236575045Y-85772829D01*
X236563391Y-85784996D01*
X236554773Y-85793279D01*
X236548570Y-85798311D01*
X236544159Y-85800726D01*
X236541640Y-85801200D01*
X236535913Y-85797449D01*
X236529112Y-85787579D01*
X236522294Y-85773665D01*
X236516521Y-85757781D01*
X236513610Y-85746313D01*
X236510231Y-85734499D01*
X236505494Y-85729219D01*
X236498473Y-85730571D01*
X236488245Y-85738655D01*
X236476910Y-85750276D01*
X236446511Y-85785549D01*
X236414357Y-85827355D01*
X236381470Y-85874229D01*
X236348875Y-85924705D01*
X236317594Y-85977318D01*
X236314244Y-85983233D01*
X236304311Y-86002769D01*
X236292976Y-86028173D01*
X236281149Y-86057170D01*
X236269738Y-86087482D01*
X236259655Y-86116833D01*
X236255278Y-86130824D01*
X236251149Y-86145538D01*
X236248090Y-86159358D01*
X236245887Y-86174146D01*
X236244325Y-86191766D01*
X236243188Y-86214079D01*
X236242261Y-86242949D01*
X236242238Y-86243797D01*
X236241537Y-86271000D01*
X236241225Y-86291445D01*
X235958870Y-86291445D01*
X235959915Y-86284149D01*
X235961232Y-86256379D01*
X235959615Y-86227274D01*
X235955005Y-86193983D01*
X235953026Y-86182731D01*
X235937043Y-86116650D01*
X235913123Y-86049219D01*
X235881574Y-85981016D01*
X235842701Y-85912617D01*
X235796814Y-85844602D01*
X235744217Y-85777547D01*
X235726628Y-85757079D01*
X235693481Y-85719308D01*
X235682299Y-85754086D01*
X235674461Y-85776227D01*
X235667414Y-85790772D01*
X235660595Y-85798483D01*
X235653439Y-85800122D01*
X235649239Y-85798752D01*
X235643988Y-85794465D01*
X235634188Y-85784855D01*
X235620856Y-85770981D01*
X235605007Y-85753901D01*
X235587658Y-85734675D01*
X235586617Y-85733505D01*
X235563050Y-85707388D01*
X235540181Y-85682780D01*
X235518872Y-85660552D01*
X235499983Y-85641577D01*
X235484376Y-85626727D01*
X235472912Y-85616873D01*
X235468280Y-85613664D01*
X235465106Y-85613249D01*
X235463252Y-85617350D01*
X235462401Y-85627371D01*
X235462233Y-85640681D01*
X235460113Y-85666297D01*
X235453384Y-85685786D01*
X235441486Y-85700456D01*
X235434518Y-85705690D01*
X235427508Y-85709672D01*
X235422495Y-85709232D01*
X235416570Y-85703438D01*
X235412738Y-85698720D01*
X235397541Y-85681375D01*
X235377637Y-85660997D01*
X235355147Y-85639557D01*
X235332193Y-85619026D01*
X235310896Y-85601377D01*
X235296381Y-85590591D01*
X235282093Y-85580902D01*
X235270635Y-85573352D01*
X235263640Y-85569006D01*
X235262304Y-85568366D01*
X235261678Y-85572195D01*
X235261781Y-85582126D01*
X235262397Y-85593087D01*
X235261962Y-85615137D01*
X235256234Y-85632809D01*
X235244054Y-85649114D01*
X235238869Y-85654285D01*
X235226416Y-85666120D01*
X235204134Y-85647935D01*
X235169658Y-85620397D01*
X235139905Y-85598005D01*
X235113640Y-85579887D01*
X235089632Y-85565172D01*
X235077436Y-85558475D01*
X235056530Y-85547742D01*
X235042242Y-85541309D01*
X235033901Y-85539173D01*
X235030834Y-85541328D01*
X235032370Y-85547768D01*
X235037658Y-85558168D01*
X235046138Y-85579327D01*
X235048162Y-85599747D01*
X235043613Y-85617463D01*
X235041496Y-85621145D01*
X235033973Y-85628862D01*
X235026452Y-85631866D01*
X235019791Y-85629967D01*
X235007407Y-85624784D01*
X234991012Y-85617087D01*
X234972317Y-85607644D01*
X234970458Y-85606672D01*
X234948821Y-85595678D01*
X234926572Y-85584995D01*
X234906500Y-85575929D01*
X234892850Y-85570325D01*
X234876973Y-85564754D01*
X234857729Y-85558603D01*
X234837103Y-85552434D01*
X234817082Y-85546809D01*
X234799652Y-85542292D01*
X234786800Y-85539444D01*
X234781388Y-85538744D01*
X234781523Y-85541585D01*
X234786532Y-85549220D01*
X234795461Y-85560302D01*
X234801632Y-85567308D01*
X234813510Y-85581181D01*
X234823142Y-85593836D01*
X234829032Y-85603246D01*
X234830023Y-85605720D01*
X234830066Y-85617939D01*
X234825560Y-85629981D01*
X234818044Y-85638105D01*
X234816369Y-85638909D01*
X234809730Y-85638781D01*
X234797052Y-85636416D01*
X234780331Y-85632240D01*
X234766442Y-85628210D01*
X234745072Y-85621971D01*
X234720276Y-85615250D01*
X234693621Y-85608417D01*
X234666676Y-85601840D01*
X234641006Y-85595890D01*
X234618179Y-85590935D01*
X234599762Y-85587345D01*
X234587323Y-85585490D01*
X234584406Y-85585316D01*
X234576131Y-85585613D01*
X234575521Y-85587706D01*
X234581018Y-85592708D01*
X234588541Y-85600780D01*
X234597594Y-85612816D01*
X234606684Y-85626496D01*
X234614318Y-85639499D01*
X234619001Y-85649505D01*
X234619778Y-85652936D01*
X234617263Y-85660397D01*
X234611138Y-85670122D01*
X234610190Y-85671338D01*
X234600623Y-85683294D01*
X234549886Y-85670531D01*
X234505604Y-85659787D01*
X234468171Y-85651619D01*
X234436439Y-85645827D01*
X234409256Y-85642212D01*
X234385475Y-85640577D01*
X234375718Y-85640434D01*
X234351667Y-85641178D01*
X234330686Y-85643119D01*
X234314428Y-85646023D01*
X234304549Y-85649656D01*
X234303251Y-85650670D01*
X234304941Y-85654549D01*
X234311567Y-85662955D01*
X234321988Y-85674523D01*
X234331103Y-85683948D01*
X234347982Y-85702034D01*
X234358003Y-85715461D01*
X234361256Y-85724409D01*
X234357831Y-85729058D01*
X234354158Y-85729794D01*
X234348199Y-85730016D01*
X234334876Y-85730377D01*
X234315291Y-85730852D01*
X234290544Y-85731414D01*
X234261738Y-85732038D01*
X234229973Y-85732700D01*
X234216686Y-85732969D01*
X234086622Y-85735583D01*
X234112523Y-85775799D01*
X234129091Y-85802965D01*
X234144545Y-85831009D01*
X234158366Y-85858722D01*
X234170040Y-85884898D01*
X234179048Y-85908326D01*
X234184873Y-85927800D01*
X234187000Y-85942110D01*
X234186185Y-85947988D01*
X234183860Y-85950590D01*
X234178387Y-85952272D01*
X234168456Y-85953144D01*
X234152755Y-85953319D01*
X234129972Y-85952909D01*
X234128731Y-85952878D01*
X234103276Y-85952532D01*
X234085880Y-85953012D01*
X234076174Y-85954338D01*
X234073694Y-85956111D01*
X233888977Y-85956111D01*
X233887543Y-85948134D01*
X233889229Y-85916656D01*
X233898362Y-85885148D01*
X233914887Y-85852701D01*
X233915778Y-85851247D01*
X233930592Y-85827211D01*
X233918880Y-85798330D01*
X233913291Y-85783357D01*
X233909759Y-85769926D01*
X233907811Y-85755154D01*
X233906971Y-85736159D01*
X233906825Y-85724999D01*
X233906873Y-85704188D01*
X233907672Y-85689339D01*
X233909639Y-85677955D01*
X233913191Y-85667537D01*
X233918211Y-85656667D01*
X233935536Y-85630133D01*
X233959241Y-85606680D01*
X233987311Y-85588291D01*
X233988046Y-85587916D01*
X234006200Y-85580759D01*
X234029492Y-85574444D01*
X234055002Y-85569491D01*
X234079811Y-85566424D01*
X234101000Y-85565762D01*
X234108578Y-85566389D01*
X234119647Y-85567612D01*
X234127435Y-85566774D01*
X234134605Y-85562719D01*
X234143818Y-85554293D01*
X234149432Y-85548676D01*
X234181054Y-85521995D01*
X234216826Y-85501734D01*
X234257547Y-85487537D01*
X234304013Y-85479048D01*
X234305754Y-85478849D01*
X234328941Y-85476342D01*
X234345872Y-85474826D01*
X234358692Y-85474257D01*
X234369548Y-85474588D01*
X234380586Y-85475774D01*
X234389372Y-85477058D01*
X234401238Y-85478563D01*
X234409568Y-85477894D01*
X234417339Y-85474010D01*
X234427527Y-85465872D01*
X234431705Y-85462268D01*
X234447394Y-85450275D01*
X234465271Y-85438892D01*
X234475866Y-85433288D01*
X234486173Y-85428830D01*
X234496081Y-85425697D01*
X234507513Y-85423598D01*
X234522394Y-85422248D01*
X234542647Y-85421356D01*
X234558416Y-85420915D01*
X234582212Y-85420227D01*
X234599183Y-85419368D01*
X234610970Y-85418071D01*
X234619216Y-85416067D01*
X234625560Y-85413087D01*
X234631503Y-85408972D01*
X234657970Y-85392996D01*
X234689642Y-85380511D01*
X234720410Y-85373197D01*
X234753101Y-85370825D01*
X234789502Y-85373322D01*
X234826626Y-85380378D01*
X234847037Y-85386345D01*
X234861199Y-85390762D01*
X234872707Y-85393780D01*
X234878033Y-85394655D01*
X234884533Y-85392527D01*
X234895767Y-85386857D01*
X234909435Y-85378819D01*
X234911011Y-85377826D01*
X234937640Y-85360933D01*
X234993228Y-85360933D01*
X235018857Y-85361226D01*
X235037047Y-85362167D01*
X235048809Y-85363847D01*
X235055152Y-85366361D01*
X235055499Y-85366638D01*
X235063786Y-85371759D01*
X235077632Y-85378427D01*
X235094733Y-85385732D01*
X235112782Y-85392764D01*
X235129474Y-85398614D01*
X235142502Y-85402371D01*
X235148331Y-85403269D01*
X235157637Y-85402457D01*
X235172456Y-85400295D01*
X235190023Y-85397201D01*
X235195233Y-85396190D01*
X235221414Y-85392250D01*
X235244948Y-85391901D01*
X235267964Y-85395542D01*
X235292591Y-85403572D01*
X235320958Y-85416393D01*
X235331685Y-85421838D01*
X235376821Y-85445219D01*
X235427222Y-85442685D01*
X235457857Y-85441936D01*
X235483771Y-85443507D01*
X235506579Y-85448063D01*
X235527897Y-85456273D01*
X235549342Y-85468802D01*
X235572529Y-85486318D01*
X235599074Y-85509488D01*
X235607193Y-85516954D01*
X235622732Y-85530743D01*
X235637100Y-85542392D01*
X235648622Y-85550611D01*
X235655284Y-85554037D01*
X235664988Y-85555107D01*
X235679939Y-85555273D01*
X235696965Y-85554503D01*
X235697574Y-85554457D01*
X235728783Y-85552097D01*
X235765643Y-85578223D01*
X235820212Y-85621622D01*
X235872362Y-85672551D01*
X235921450Y-85730265D01*
X235966833Y-85794016D01*
X236003057Y-85854266D01*
X236014933Y-85876801D01*
X236028078Y-85903552D01*
X236041549Y-85932426D01*
X236054407Y-85961330D01*
X236065711Y-85988171D01*
X236074520Y-86010856D01*
X236078131Y-86021333D01*
X236082644Y-86034525D01*
X236086533Y-86044297D01*
X236088400Y-86047751D01*
X236090826Y-86045156D01*
X236095624Y-86035920D01*
X236102197Y-86021330D01*
X236109948Y-86002675D01*
X236113888Y-85992718D01*
X236151655Y-85905887D01*
X236194880Y-85825191D01*
X236243421Y-85750885D01*
X236264465Y-85722788D01*
X236284884Y-85698516D01*
X236309900Y-85671799D01*
X236337616Y-85644435D01*
X236366137Y-85618225D01*
X236393566Y-85594967D01*
X236418007Y-85576460D01*
X236420534Y-85574721D01*
X236456721Y-85550141D01*
X236533683Y-85555603D01*
X236577946Y-85513507D01*
X236602675Y-85490974D01*
X236623643Y-85474147D01*
X236642204Y-85461986D01*
X236650763Y-85457447D01*
X236661973Y-85452085D01*
X236671289Y-85448300D01*
X236680545Y-85445805D01*
X236691576Y-85444316D01*
X236706215Y-85443547D01*
X236726298Y-85443213D01*
X236743090Y-85443095D01*
X236806863Y-85442708D01*
X236850099Y-85421146D01*
X236877646Y-85408057D01*
X236900422Y-85399154D01*
X236920769Y-85394030D01*
X236941029Y-85392278D01*
X236963544Y-85393492D01*
X236989115Y-85397016D01*
X237008803Y-85400068D01*
X237024158Y-85401729D01*
X237037142Y-85401638D01*
X237049722Y-85399431D01*
X237063860Y-85394746D01*
X237081522Y-85387219D01*
X237104671Y-85376488D01*
X237107535Y-85375145D01*
X237120289Y-85369321D01*
X237130700Y-85365355D01*
X237140907Y-85362889D01*
X237153053Y-85361567D01*
X237169279Y-85361034D01*
X237191726Y-85360933D01*
X237193010Y-85360933D01*
X237213786Y-85361222D01*
X237231379Y-85362011D01*
X237244124Y-85363187D01*
X237250358Y-85364634D01*
X237250656Y-85364907D01*
X237255431Y-85369006D01*
X237265290Y-85375559D01*
X237275247Y-85381496D01*
X237297383Y-85394112D01*
X237341833Y-85383967D01*
X237376391Y-85376701D01*
X237404667Y-85372262D01*
X237428304Y-85370504D01*
X237448948Y-85371277D01*
X237462035Y-85373158D01*
X237490459Y-85380913D01*
X237520191Y-85393160D01*
X237546897Y-85408079D01*
X237549732Y-85409990D01*
X237556402Y-85414222D01*
X237563160Y-85417178D01*
X237571695Y-85419117D01*
X237583693Y-85420299D01*
X237600844Y-85420986D01*
X237623815Y-85421423D01*
X237647994Y-85421921D01*
X237665637Y-85422747D01*
X237678677Y-85424182D01*
X237689045Y-85426505D01*
X237698671Y-85429996D01*
X237706140Y-85433349D01*
X237723171Y-85443003D01*
X237740481Y-85455371D01*
X237748383Y-85462190D01*
X237767103Y-85479998D01*
X237792593Y-85475563D01*
X237808374Y-85473673D01*
X237825988Y-85473488D01*
X237847821Y-85475061D01*
X237866766Y-85477222D01*
X237907517Y-85483750D01*
X237941760Y-85492681D01*
X237971294Y-85504783D01*
X237997919Y-85520827D01*
X238023433Y-85541581D01*
X238028628Y-85546429D01*
X238041013Y-85557956D01*
X238049608Y-85564642D01*
X238056673Y-85567569D01*
X238064471Y-85567817D01*
X238071602Y-85566972D01*
X238088622Y-85566452D01*
X238110843Y-85568279D01*
X238135483Y-85571982D01*
X238159759Y-85577089D01*
X238180886Y-85583131D01*
X238191358Y-85587219D01*
X238221028Y-85605221D01*
X238245086Y-85629052D01*
X238262791Y-85657679D01*
X238273397Y-85690068D01*
X238275527Y-85704250D01*
X238275883Y-85734296D01*
X238271711Y-85765694D01*
X238263628Y-85794575D01*
X238259552Y-85804316D01*
X238250805Y-85822924D01*
X238271288Y-85865631D01*
X238283812Y-85894233D01*
X238291315Y-85918419D01*
X238294074Y-85940375D01*
X238292365Y-85962291D01*
X238286526Y-85986151D01*
X238279525Y-86004541D01*
X238269547Y-86025255D01*
X238258728Y-86043867D01*
X238258519Y-86044186D01*
X238249608Y-86058322D01*
X238242892Y-86070114D01*
X238239500Y-86077539D01*
X238239299Y-86078594D01*
X238240844Y-86085559D01*
X238244695Y-86096557D01*
X238246166Y-86100191D01*
X238249981Y-86112459D01*
X238251353Y-86126786D01*
X238250544Y-86146138D01*
X238250377Y-86148174D01*
X238247116Y-86170648D01*
X238240770Y-86192363D01*
X238230593Y-86214963D01*
X238215842Y-86240091D01*
X238195770Y-86269393D01*
X238194905Y-86270593D01*
X238166245Y-86310302D01*
X238171465Y-86332059D01*
X238174034Y-86345494D01*
X238174289Y-86357524D01*
X238172083Y-86371737D01*
X238169380Y-86383366D01*
X238160960Y-86412158D01*
X238150489Y-86436527D01*
X238136650Y-86458529D01*
X238118126Y-86480221D01*
X238093599Y-86503660D01*
X238090691Y-86506245D01*
X238080759Y-86515375D01*
X238074799Y-86522812D01*
X238071557Y-86531347D01*
X238069783Y-86543769D01*
X238068849Y-86554928D01*
X238066617Y-86573230D01*
X238063158Y-86590648D01*
X238059306Y-86603179D01*
X238043443Y-86632533D01*
X238020851Y-86662743D01*
X237992919Y-86692259D01*
X237961038Y-86719532D01*
X237943758Y-86732041D01*
X237926846Y-86744110D01*
X237915489Y-86754198D01*
X237907917Y-86764565D01*
X237902358Y-86777472D01*
X237898599Y-86789629D01*
X237892700Y-86806984D01*
X237885395Y-86824155D01*
X237880877Y-86832838D01*
X237863470Y-86856063D01*
X237839484Y-86878795D01*
X237810766Y-86899730D01*
X237779165Y-86917568D01*
X237746529Y-86931006D01*
X237737649Y-86933748D01*
X237720588Y-86939017D01*
X237709944Y-86943845D01*
X237703869Y-86949618D01*
X237700515Y-86957727D01*
X237699407Y-86962484D01*
X237689866Y-86988322D01*
X237672698Y-87013018D01*
X237648730Y-87035883D01*
X237618789Y-87056230D01*
X237583702Y-87073369D01*
X237553350Y-87084051D01*
X237537917Y-87088887D01*
X237525708Y-87093156D01*
X237518961Y-87096064D01*
X237518466Y-87096411D01*
X237520743Y-87099584D01*
X237529055Y-87106634D01*
X237542370Y-87116776D01*
X237559654Y-87129222D01*
X237579849Y-87143168D01*
X237620640Y-87171103D01*
X237655277Y-87195532D01*
X237684868Y-87217306D01*
X237710521Y-87237272D01*
X237733343Y-87256280D01*
X237754442Y-87275180D01*
X237764743Y-87284904D01*
X237823178Y-87345836D01*
X237874156Y-87409559D01*
X237918035Y-87476734D01*
X237955178Y-87548021D01*
X237985945Y-87624079D01*
X238010696Y-87705570D01*
X238022829Y-87757438D01*
X238029201Y-87790015D01*
X238034448Y-87822267D01*
X238038771Y-87855979D01*
X238042372Y-87892934D01*
X238045454Y-87934918D01*
X238048021Y-87979822D01*
X238051316Y-88043895D01*
X238070591Y-88077189D01*
X238080252Y-88093101D01*
X238089106Y-88105113D01*
X238099258Y-88115425D01*
X238112812Y-88126238D01*
X238127541Y-88136743D01*
X238153341Y-88156221D01*
X238182278Y-88180553D01*
X238212350Y-88207863D01*
X238241558Y-88236275D01*
X238267900Y-88263912D01*
X238288213Y-88287447D01*
X238326653Y-88338844D01*
X238362714Y-88394371D01*
X238395734Y-88452618D01*
X238425047Y-88512179D01*
X238449992Y-88571646D01*
X238469905Y-88629611D01*
X238484122Y-88684667D01*
X238489452Y-88714409D01*
X238492231Y-88731083D01*
X238495102Y-88744580D01*
X238497565Y-88752654D01*
X238498196Y-88753738D01*
X238499151Y-88758893D01*
X238499953Y-88771224D01*
X238500602Y-88789519D01*
X238501100Y-88812563D01*
X238501447Y-88839144D01*
X238501644Y-88868048D01*
X238501692Y-88898062D01*
X238501591Y-88927971D01*
X238501342Y-88956564D01*
X238500946Y-88982626D01*
X238500404Y-89004944D01*
X238499717Y-89022305D01*
X238498884Y-89033494D01*
X238498021Y-89037281D01*
X238495278Y-89042517D01*
X238492555Y-89053189D01*
X238491456Y-89059756D01*
X238488405Y-89075811D01*
X238483142Y-89097684D01*
X238476290Y-89123213D01*
X238468469Y-89150236D01*
X238460301Y-89176591D01*
X238452407Y-89200118D01*
X238446696Y-89215475D01*
X238415350Y-89285107D01*
X238376926Y-89354684D01*
X238332601Y-89422272D01*
X238283553Y-89485934D01*
X238278906Y-89491454D01*
X238267630Y-89505924D01*
X238259683Y-89518483D01*
X238256278Y-89527177D01*
X238256233Y-89527893D01*
X238255125Y-89535197D01*
X238252055Y-89549194D01*
X238247405Y-89568444D01*
X238241557Y-89591504D01*
X238234893Y-89616934D01*
X238227794Y-89643291D01*
X238220642Y-89669133D01*
X238213819Y-89693019D01*
X238207707Y-89713507D01*
X238203910Y-89725500D01*
X238199265Y-89739193D01*
X238192326Y-89759086D01*
X238183714Y-89783428D01*
X238174047Y-89810469D01*
X238163946Y-89838460D01*
X238161593Y-89844941D01*
X238147445Y-89885081D01*
X238136481Y-89919093D01*
X238128252Y-89948497D01*
X238122308Y-89974814D01*
X238120868Y-89982525D01*
X238101033Y-90070269D01*
X238073092Y-90155796D01*
X238037192Y-90238794D01*
X237993478Y-90318948D01*
X237942094Y-90395943D01*
X237910759Y-90436655D01*
X237891047Y-90459709D01*
X237866567Y-90486266D01*
X237839140Y-90514511D01*
X237810586Y-90542630D01*
X237782728Y-90568809D01*
X237757386Y-90591234D01*
X237746752Y-90600050D01*
X237707397Y-90629844D01*
X237664359Y-90659056D01*
X237619629Y-90686509D01*
X237575201Y-90711026D01*
X237533068Y-90731430D01*
X237504009Y-90743387D01*
X237486462Y-90750800D01*
X237469729Y-90759311D01*
X237457443Y-90767071D01*
X237427333Y-90789335D01*
X237391556Y-90814564D01*
X237351849Y-90841622D01*
X237309951Y-90869370D01*
X237267599Y-90896670D01*
X237226532Y-90922383D01*
X237188486Y-90945373D01*
X237160325Y-90961639D01*
X237131755Y-90977119D01*
X237098678Y-90994096D01*
X237062915Y-91011715D01*
X237026284Y-91029120D01*
X236990603Y-91045455D01*
X236957694Y-91059864D01*
X236929373Y-91071491D01*
X236916469Y-91076370D01*
X236896409Y-91083747D01*
X236881271Y-91089928D01*
X236869009Y-91096183D01*
X236857574Y-91103781D01*
X236844919Y-91113991D01*
X236828996Y-91128083D01*
X236820194Y-91136051D01*
X236765074Y-91184149D01*
X236712444Y-91226019D01*
X236660714Y-91262849D01*
X236608291Y-91295830D01*
X236599392Y-91301026D01*
X236556685Y-91325700D01*
X236090951Y-91325690D01*
X235625216Y-91325680D01*
X235588073Y-91304846D01*
X235541847Y-91277523D01*
X235498090Y-91248581D01*
X235454943Y-91216649D01*
X235410541Y-91180355D01*
X235367687Y-91142572D01*
X235349792Y-91126888D01*
X235332503Y-91112727D01*
X235317494Y-91101393D01*
X235306437Y-91094191D01*
X235304107Y-91093015D01*
X235292842Y-91088162D01*
X235276229Y-91081179D01*
X235256765Y-91073111D01*
X235242099Y-91067097D01*
X235149809Y-91026912D01*
X235060022Y-90982526D01*
X234971254Y-90933105D01*
X234882017Y-90877814D01*
X234857665Y-90861259D01*
X235429202Y-90861259D01*
X235434448Y-90881747D01*
X235441298Y-90896456D01*
X235462202Y-90929549D01*
X235490382Y-90963902D01*
X235524882Y-90998788D01*
X235564747Y-91033478D01*
X235609022Y-91067245D01*
X235656752Y-91099361D01*
X235706983Y-91129099D01*
X235758760Y-91155731D01*
X235811127Y-91178528D01*
X235811739Y-91178769D01*
X235864688Y-91197989D01*
X235914531Y-91212436D01*
X235963784Y-91222581D01*
X236014965Y-91228898D01*
X236070592Y-91231861D01*
X236096147Y-91232220D01*
X236126958Y-91232207D01*
X236151467Y-91231763D01*
X236171837Y-91230726D01*
X236190227Y-91228929D01*
X236208800Y-91226210D01*
X236229716Y-91222404D01*
X236232495Y-91221865D01*
X236310329Y-91202647D01*
X236387044Y-91175821D01*
X236461541Y-91141988D01*
X236532717Y-91101748D01*
X236599473Y-91055702D01*
X236660707Y-91004450D01*
X236697343Y-90968296D01*
X236726005Y-90935908D01*
X236747996Y-90906092D01*
X236764171Y-90877547D01*
X236774772Y-90850927D01*
X236779688Y-90834388D01*
X236781775Y-90822796D01*
X236781319Y-90813225D01*
X236779285Y-90804950D01*
X236767492Y-90779877D01*
X236747503Y-90755567D01*
X236719564Y-90732168D01*
X236683925Y-90709824D01*
X236640831Y-90688682D01*
X236590532Y-90668888D01*
X236533273Y-90650586D01*
X236503146Y-90642311D01*
X236456598Y-90630818D01*
X236412623Y-90621514D01*
X236369668Y-90614242D01*
X236326178Y-90608846D01*
X236280598Y-90605168D01*
X236231374Y-90603054D01*
X236176950Y-90602346D01*
X236115772Y-90602887D01*
X236112050Y-90602953D01*
X236073078Y-90603750D01*
X236040894Y-90604679D01*
X236013819Y-90605854D01*
X235990176Y-90607393D01*
X235968285Y-90609410D01*
X235946467Y-90612021D01*
X235923045Y-90615342D01*
X235915304Y-90616518D01*
X235891270Y-90620264D01*
X235870244Y-90623645D01*
X235853612Y-90626432D01*
X235842760Y-90628390D01*
X235839104Y-90629240D01*
X235834433Y-90630607D01*
X235822934Y-90633517D01*
X235806029Y-90637623D01*
X235785144Y-90642578D01*
X235769150Y-90646311D01*
X235708551Y-90661983D01*
X235652471Y-90679733D01*
X235601454Y-90699276D01*
X235556047Y-90720326D01*
X235516793Y-90742597D01*
X235484238Y-90765803D01*
X235458926Y-90789659D01*
X235441403Y-90813878D01*
X235438368Y-90819816D01*
X235430543Y-90841504D01*
X235429202Y-90861259D01*
X234857665Y-90861259D01*
X234790827Y-90815822D01*
X234778591Y-90807113D01*
%LPC*%
D16*
X176466500Y-82994500D03*
D17*
X176466500Y-80454500D03*
X179006500Y-82994500D03*
X179006500Y-80454500D03*
X181546500Y-82994500D03*
X181546500Y-80454500D03*
X184086500Y-82994500D03*
X184086500Y-80454500D03*
X186626500Y-82994500D03*
X186626500Y-80454500D03*
X189166500Y-82994500D03*
X189166500Y-80454500D03*
X191706500Y-82994500D03*
X191706500Y-80454500D03*
X194246500Y-82994500D03*
X194246500Y-80454500D03*
X196786500Y-82994500D03*
X196786500Y-80454500D03*
X199326500Y-82994500D03*
X199326500Y-80454500D03*
X201866500Y-82994500D03*
X201866500Y-80454500D03*
X204406500Y-82994500D03*
X204406500Y-80454500D03*
X206946500Y-82994500D03*
X206946500Y-80454500D03*
X209486500Y-82994500D03*
X209486500Y-80454500D03*
X212026500Y-82994500D03*
X212026500Y-80454500D03*
X214566500Y-82994500D03*
X214566500Y-80454500D03*
X217106500Y-82994500D03*
X217106500Y-80454500D03*
X219646500Y-82994500D03*
X219646500Y-80454500D03*
X222186500Y-82994500D03*
X222186500Y-80454500D03*
X224726500Y-82994500D03*
X224726500Y-80454500D03*
X227266500Y-82994500D03*
X227266500Y-80454500D03*
X229806500Y-82994500D03*
X229806500Y-80454500D03*
X232346500Y-82994500D03*
X232346500Y-80454500D03*
X234886500Y-82994500D03*
X234886500Y-80454500D03*
X237426500Y-82994500D03*
X237426500Y-80454500D03*
D18*
X178000000Y-95000000D03*
X236000000Y-95000000D03*
D19*
X223620000Y-87630000D03*
X220850000Y-87630000D03*
X218080000Y-87630000D03*
X215310000Y-87630000D03*
X212540000Y-87630000D03*
X209770000Y-87630000D03*
X207000000Y-87630000D03*
X204230000Y-87630000D03*
X201460000Y-87630000D03*
X198690000Y-87630000D03*
X195920000Y-87630000D03*
X193150000Y-87630000D03*
X190380000Y-87630000D03*
X222235000Y-90470000D03*
X219465000Y-90470000D03*
X216695000Y-90470000D03*
X213925000Y-90470000D03*
X211155000Y-90470000D03*
X208385000Y-90470000D03*
X205615000Y-90470000D03*
X202845000Y-90470000D03*
X200075000Y-90470000D03*
X197305000Y-90470000D03*
X194535000Y-90470000D03*
X191765000Y-90470000D03*
D20*
X230520000Y-89050000D03*
X183480000Y-89050000D03*
M02*
