%TF.GenerationSoftware,KiCad,Pcbnew,(7.0.0-0)*%
%TF.CreationDate,2024-04-04T12:15:59-05:00*%
%TF.ProjectId,rascsi_zero,72617363-7369-45f7-9a65-726f2e6b6963,rev?*%
%TF.SameCoordinates,PX59d60c0PY325aa00*%
%TF.FileFunction,Paste,Bot*%
%TF.FilePolarity,Positive*%
%FSLAX46Y46*%
G04 Gerber Fmt 4.6, Leading zero omitted, Abs format (unit mm)*
G04 Created by KiCad (PCBNEW (7.0.0-0)) date 2024-04-04 12:15:59*
%MOMM*%
%LPD*%
G01*
G04 APERTURE LIST*
%ADD10R,0.650000X1.950000*%
G04 APERTURE END LIST*
D10*
%TO.C,IC1*%
X124340879Y-9638879D03*
X123070879Y-9638879D03*
X121800879Y-9638879D03*
X120530879Y-9638879D03*
X119260879Y-9638879D03*
X117990879Y-9638879D03*
X116720879Y-9638879D03*
X115450879Y-9638879D03*
X114180879Y-9638879D03*
X112910879Y-9638879D03*
X112910879Y-188879D03*
X114180879Y-188879D03*
X115450879Y-188879D03*
X116720879Y-188879D03*
X117990879Y-188879D03*
X119260879Y-188879D03*
X120530879Y-188879D03*
X121800879Y-188879D03*
X123070879Y-188879D03*
X124340879Y-188879D03*
%TD*%
%TO.C,IC3*%
X99956879Y-188879D03*
X101226879Y-188879D03*
X102496879Y-188879D03*
X103766879Y-188879D03*
X105036879Y-188879D03*
X106306879Y-188879D03*
X107576879Y-188879D03*
X108846879Y-188879D03*
X110116879Y-188879D03*
X111386879Y-188879D03*
X111386879Y-9638879D03*
X110116879Y-9638879D03*
X108846879Y-9638879D03*
X107576879Y-9638879D03*
X106306879Y-9638879D03*
X105036879Y-9638879D03*
X103766879Y-9638879D03*
X102496879Y-9638879D03*
X101226879Y-9638879D03*
X99956879Y-9638879D03*
%TD*%
%TO.C,IC4*%
X87002879Y-188879D03*
X88272879Y-188879D03*
X89542879Y-188879D03*
X90812879Y-188879D03*
X92082879Y-188879D03*
X93352879Y-188879D03*
X94622879Y-188879D03*
X95892879Y-188879D03*
X97162879Y-188879D03*
X98432879Y-188879D03*
X98432879Y-9638879D03*
X97162879Y-9638879D03*
X95892879Y-9638879D03*
X94622879Y-9638879D03*
X93352879Y-9638879D03*
X92082879Y-9638879D03*
X90812879Y-9638879D03*
X89542879Y-9638879D03*
X88272879Y-9638879D03*
X87002879Y-9638879D03*
%TD*%
%TO.C,IC2*%
X137294879Y-9638879D03*
X136024879Y-9638879D03*
X134754879Y-9638879D03*
X133484879Y-9638879D03*
X132214879Y-9638879D03*
X130944879Y-9638879D03*
X129674879Y-9638879D03*
X128404879Y-9638879D03*
X127134879Y-9638879D03*
X125864879Y-9638879D03*
X125864879Y-188879D03*
X127134879Y-188879D03*
X128404879Y-188879D03*
X129674879Y-188879D03*
X130944879Y-188879D03*
X132214879Y-188879D03*
X133484879Y-188879D03*
X134754879Y-188879D03*
X136024879Y-188879D03*
X137294879Y-188879D03*
%TD*%
M02*
