%TF.GenerationSoftware,KiCad,Pcbnew,(7.0.0-0)*%
%TF.CreationDate,2023-02-26T21:06:09-06:00*%
%TF.ProjectId,rascsi_zero,72617363-7369-45f7-9a65-726f2e6b6963,rev?*%
%TF.SameCoordinates,PX59d60c0PY325aa00*%
%TF.FileFunction,Soldermask,Bot*%
%TF.FilePolarity,Negative*%
%FSLAX46Y46*%
G04 Gerber Fmt 4.6, Leading zero omitted, Abs format (unit mm)*
G04 Created by KiCad (PCBNEW (7.0.0-0)) date 2023-02-26 21:06:09*
%MOMM*%
%LPD*%
G01*
G04 APERTURE LIST*
%ADD10R,1.700000X1.700000*%
%ADD11O,1.700000X1.700000*%
%ADD12C,2.700000*%
%ADD13C,0.650000*%
%ADD14C,2.000000*%
%ADD15R,0.650000X1.950000*%
%ADD16C,1.545000*%
%ADD17C,4.845000*%
%ADD18C,1.000000*%
G04 APERTURE END LIST*
D10*
%TO.C,J1*%
X88669999Y5529999D03*
D11*
X88669999Y8069999D03*
X91209999Y5529999D03*
X91209999Y8069999D03*
X93749999Y5529999D03*
X93749999Y8069999D03*
X96289999Y5529999D03*
X96289999Y8069999D03*
X98829999Y5529999D03*
X98829999Y8069999D03*
X101369999Y5529999D03*
X101369999Y8069999D03*
X103909999Y5529999D03*
X103909999Y8069999D03*
X106449999Y5529999D03*
X106449999Y8069999D03*
X108989999Y5529999D03*
X108989999Y8069999D03*
X111529999Y5529999D03*
X111529999Y8069999D03*
X114069999Y5529999D03*
X114069999Y8069999D03*
X116609999Y5529999D03*
X116609999Y8069999D03*
X119149999Y5529999D03*
X119149999Y8069999D03*
X121689999Y5529999D03*
X121689999Y8069999D03*
X124229999Y5529999D03*
X124229999Y8069999D03*
X126769999Y5529999D03*
X126769999Y8069999D03*
X129309999Y5529999D03*
X129309999Y8069999D03*
X131849999Y5529999D03*
X131849999Y8069999D03*
X134389999Y5529999D03*
X134389999Y8069999D03*
X136929999Y5529999D03*
X136929999Y8069999D03*
%TD*%
D12*
%TO.C,H1*%
X83800000Y6800000D03*
%TD*%
%TO.C,H3*%
X83800000Y-16200000D03*
%TD*%
%TO.C,H4*%
X141800000Y-16200000D03*
%TD*%
%TO.C,H2*%
X141800000Y6800000D03*
%TD*%
D10*
%TO.C,J4*%
X83809999Y-10979999D03*
D11*
X83809999Y-8439999D03*
X83809999Y-5899999D03*
X83809999Y-3359999D03*
X83809999Y-819999D03*
X83809999Y1719999D03*
%TD*%
D13*
%TO.C,J3*%
X141270000Y-200000D03*
X141270000Y-4200000D03*
D14*
X143400000Y-5775000D03*
X143400000Y1375000D03*
X139950000Y1375000D03*
X139950000Y-5775000D03*
%TD*%
D15*
%TO.C,IC1*%
X124340879Y-9638879D03*
X123070879Y-9638879D03*
X121800879Y-9638879D03*
X120530879Y-9638879D03*
X119260879Y-9638879D03*
X117990879Y-9638879D03*
X116720879Y-9638879D03*
X115450879Y-9638879D03*
X114180879Y-9638879D03*
X112910879Y-9638879D03*
X112910879Y-188879D03*
X114180879Y-188879D03*
X115450879Y-188879D03*
X116720879Y-188879D03*
X117990879Y-188879D03*
X119260879Y-188879D03*
X120530879Y-188879D03*
X121800879Y-188879D03*
X123070879Y-188879D03*
X124340879Y-188879D03*
%TD*%
%TO.C,IC3*%
X99956879Y-188879D03*
X101226879Y-188879D03*
X102496879Y-188879D03*
X103766879Y-188879D03*
X105036879Y-188879D03*
X106306879Y-188879D03*
X107576879Y-188879D03*
X108846879Y-188879D03*
X110116879Y-188879D03*
X111386879Y-188879D03*
X111386879Y-9638879D03*
X110116879Y-9638879D03*
X108846879Y-9638879D03*
X107576879Y-9638879D03*
X106306879Y-9638879D03*
X105036879Y-9638879D03*
X103766879Y-9638879D03*
X102496879Y-9638879D03*
X101226879Y-9638879D03*
X99956879Y-9638879D03*
%TD*%
%TO.C,IC4*%
X87002879Y-188879D03*
X88272879Y-188879D03*
X89542879Y-188879D03*
X90812879Y-188879D03*
X92082879Y-188879D03*
X93352879Y-188879D03*
X94622879Y-188879D03*
X95892879Y-188879D03*
X97162879Y-188879D03*
X98432879Y-188879D03*
X98432879Y-9638879D03*
X97162879Y-9638879D03*
X95892879Y-9638879D03*
X94622879Y-9638879D03*
X93352879Y-9638879D03*
X92082879Y-9638879D03*
X90812879Y-9638879D03*
X89542879Y-9638879D03*
X88272879Y-9638879D03*
X87002879Y-9638879D03*
%TD*%
%TO.C,IC2*%
X137294879Y-9638879D03*
X136024879Y-9638879D03*
X134754879Y-9638879D03*
X133484879Y-9638879D03*
X132214879Y-9638879D03*
X130944879Y-9638879D03*
X129674879Y-9638879D03*
X128404879Y-9638879D03*
X127134879Y-9638879D03*
X125864879Y-9638879D03*
X125864879Y-188879D03*
X127134879Y-188879D03*
X128404879Y-188879D03*
X129674879Y-188879D03*
X130944879Y-188879D03*
X132214879Y-188879D03*
X133484879Y-188879D03*
X134754879Y-188879D03*
X136024879Y-188879D03*
X137294879Y-188879D03*
%TD*%
D16*
%TO.C,J6*%
X129420000Y-13002000D03*
X126650000Y-13002000D03*
X123880000Y-13002000D03*
X121110000Y-13002000D03*
X118340000Y-13002000D03*
X115570000Y-13002000D03*
X112800000Y-13002000D03*
X110030000Y-13002000D03*
X107260000Y-13002000D03*
X104490000Y-13002000D03*
X101720000Y-13002000D03*
X98950000Y-13002000D03*
X96180000Y-13002000D03*
X128035000Y-15842000D03*
X125265000Y-15842000D03*
X122495000Y-15842000D03*
X119725000Y-15842000D03*
X116955000Y-15842000D03*
X114185000Y-15842000D03*
X111415000Y-15842000D03*
X108645000Y-15842000D03*
X105875000Y-15842000D03*
X103105000Y-15842000D03*
X100335000Y-15842000D03*
X97565000Y-15842000D03*
D17*
X136320000Y-14422000D03*
X89280000Y-14422000D03*
%TD*%
D10*
%TO.C,J2*%
X140835999Y-11731999D03*
D11*
X140835999Y-9191999D03*
%TD*%
D18*
%TO.C,TP1*%
X143510000Y-3225000D03*
%TD*%
%TO.C,TP2*%
X141660000Y-2200000D03*
%TD*%
%TO.C,TP3*%
X143510000Y-1125000D03*
%TD*%
M02*
