%TF.GenerationSoftware,KiCad,Pcbnew,(7.0.0-0)*%
%TF.CreationDate,2023-02-26T21:06:09-06:00*%
%TF.ProjectId,rascsi_zero,72617363-7369-45f7-9a65-726f2e6b6963,rev?*%
%TF.SameCoordinates,PX59d60c0PY325aa00*%
%TF.FileFunction,Legend,Bot*%
%TF.FilePolarity,Positive*%
%FSLAX46Y46*%
G04 Gerber Fmt 4.6, Leading zero omitted, Abs format (unit mm)*
G04 Created by KiCad (PCBNEW (7.0.0-0)) date 2023-02-26 21:06:09*
%MOMM*%
%LPD*%
G01*
G04 APERTURE LIST*
%ADD10C,0.120000*%
%ADD11C,0.150000*%
%ADD12C,0.375000*%
%ADD13C,0.254000*%
%ADD14C,0.200000*%
%ADD15C,0.010000*%
%ADD16R,1.700000X1.700000*%
%ADD17O,1.700000X1.700000*%
%ADD18C,2.700000*%
%ADD19C,0.650000*%
%ADD20C,2.000000*%
%ADD21R,0.650000X1.950000*%
%ADD22C,1.545000*%
%ADD23C,4.845000*%
%ADD24C,1.000000*%
G04 APERTURE END LIST*
D10*
X130910000Y-11566000D02*
X128370000Y-11566000D01*
X130910000Y-14233000D02*
X130910000Y-11566000D01*
X130783000Y-11693000D02*
X128497000Y-11693000D01*
X130783000Y-14106000D02*
X130783000Y-11693000D01*
X94879500Y-55963000D02*
X94879500Y-56217000D01*
X94943000Y-55963000D02*
X94879500Y-55963000D01*
X87618953Y-2231500D02*
G75*
G03*
X87618953Y-2231500I-511953J0D01*
G01*
X124575953Y-7502000D02*
G75*
G03*
X124575953Y-7502000I-511953J0D01*
G01*
X137593453Y-7502000D02*
G75*
G03*
X137593453Y-7502000I-511953J0D01*
G01*
X82457000Y-10954000D02*
X82457000Y-12478000D01*
X100572953Y-2168000D02*
G75*
G03*
X100572953Y-2168000I-511953J0D01*
G01*
X85187500Y3000000D02*
X82584000Y3000000D01*
X82584000Y3000000D02*
X82584000Y-9684000D01*
X82457000Y-12478000D02*
X83854000Y-12478000D01*
X141556000Y-10927000D02*
X141556000Y-11054000D01*
X85187500Y-9684000D02*
X85187500Y3000000D01*
X82584000Y-9684000D02*
X85187500Y-9684000D01*
D11*
X81440000Y2555429D02*
X81401904Y2631619D01*
X81401904Y2631619D02*
X81401904Y2745905D01*
X81401904Y2745905D02*
X81440000Y2860191D01*
X81440000Y2860191D02*
X81516190Y2936381D01*
X81516190Y2936381D02*
X81592380Y2974476D01*
X81592380Y2974476D02*
X81744761Y3012572D01*
X81744761Y3012572D02*
X81859047Y3012572D01*
X81859047Y3012572D02*
X82011428Y2974476D01*
X82011428Y2974476D02*
X82087619Y2936381D01*
X82087619Y2936381D02*
X82163809Y2860191D01*
X82163809Y2860191D02*
X82201904Y2745905D01*
X82201904Y2745905D02*
X82201904Y2669714D01*
X82201904Y2669714D02*
X82163809Y2555429D01*
X82163809Y2555429D02*
X82125714Y2517333D01*
X82125714Y2517333D02*
X81859047Y2517333D01*
X81859047Y2517333D02*
X81859047Y2669714D01*
X82201904Y2174476D02*
X81401904Y2174476D01*
X81401904Y2174476D02*
X81401904Y1869714D01*
X81401904Y1869714D02*
X81440000Y1793524D01*
X81440000Y1793524D02*
X81478095Y1755429D01*
X81478095Y1755429D02*
X81554285Y1717333D01*
X81554285Y1717333D02*
X81668571Y1717333D01*
X81668571Y1717333D02*
X81744761Y1755429D01*
X81744761Y1755429D02*
X81782857Y1793524D01*
X81782857Y1793524D02*
X81820952Y1869714D01*
X81820952Y1869714D02*
X81820952Y2174476D01*
X82201904Y1336381D02*
X82201904Y1184000D01*
X82201904Y1184000D02*
X82163809Y1107810D01*
X82163809Y1107810D02*
X82125714Y1069714D01*
X82125714Y1069714D02*
X82011428Y993524D01*
X82011428Y993524D02*
X81859047Y955429D01*
X81859047Y955429D02*
X81554285Y955429D01*
X81554285Y955429D02*
X81478095Y993524D01*
X81478095Y993524D02*
X81440000Y1031619D01*
X81440000Y1031619D02*
X81401904Y1107810D01*
X81401904Y1107810D02*
X81401904Y1260191D01*
X81401904Y1260191D02*
X81440000Y1336381D01*
X81440000Y1336381D02*
X81478095Y1374476D01*
X81478095Y1374476D02*
X81554285Y1412572D01*
X81554285Y1412572D02*
X81744761Y1412572D01*
X81744761Y1412572D02*
X81820952Y1374476D01*
X81820952Y1374476D02*
X81859047Y1336381D01*
X81859047Y1336381D02*
X81897142Y1260191D01*
X81897142Y1260191D02*
X81897142Y1107810D01*
X81897142Y1107810D02*
X81859047Y1031619D01*
X81859047Y1031619D02*
X81820952Y993524D01*
X81820952Y993524D02*
X81744761Y955429D01*
X82328095Y-6966095D02*
X82328095Y-6470857D01*
X82328095Y-6470857D02*
X82023333Y-6737523D01*
X82023333Y-6737523D02*
X82023333Y-6623238D01*
X82023333Y-6623238D02*
X81985238Y-6547047D01*
X81985238Y-6547047D02*
X81947142Y-6508952D01*
X81947142Y-6508952D02*
X81870952Y-6470857D01*
X81870952Y-6470857D02*
X81680476Y-6470857D01*
X81680476Y-6470857D02*
X81604285Y-6508952D01*
X81604285Y-6508952D02*
X81566190Y-6547047D01*
X81566190Y-6547047D02*
X81528095Y-6623238D01*
X81528095Y-6623238D02*
X81528095Y-6851809D01*
X81528095Y-6851809D02*
X81566190Y-6928000D01*
X81566190Y-6928000D02*
X81604285Y-6966095D01*
X81604285Y-6127999D02*
X81566190Y-6089904D01*
X81566190Y-6089904D02*
X81528095Y-6127999D01*
X81528095Y-6127999D02*
X81566190Y-6166095D01*
X81566190Y-6166095D02*
X81604285Y-6127999D01*
X81604285Y-6127999D02*
X81528095Y-6127999D01*
X82328095Y-5823238D02*
X82328095Y-5328000D01*
X82328095Y-5328000D02*
X82023333Y-5594666D01*
X82023333Y-5594666D02*
X82023333Y-5480381D01*
X82023333Y-5480381D02*
X81985238Y-5404190D01*
X81985238Y-5404190D02*
X81947142Y-5366095D01*
X81947142Y-5366095D02*
X81870952Y-5328000D01*
X81870952Y-5328000D02*
X81680476Y-5328000D01*
X81680476Y-5328000D02*
X81604285Y-5366095D01*
X81604285Y-5366095D02*
X81566190Y-5404190D01*
X81566190Y-5404190D02*
X81528095Y-5480381D01*
X81528095Y-5480381D02*
X81528095Y-5708952D01*
X81528095Y-5708952D02*
X81566190Y-5785143D01*
X81566190Y-5785143D02*
X81604285Y-5823238D01*
X82290000Y-9277523D02*
X82328095Y-9353713D01*
X82328095Y-9353713D02*
X82328095Y-9467999D01*
X82328095Y-9467999D02*
X82290000Y-9582285D01*
X82290000Y-9582285D02*
X82213809Y-9658475D01*
X82213809Y-9658475D02*
X82137619Y-9696570D01*
X82137619Y-9696570D02*
X81985238Y-9734666D01*
X81985238Y-9734666D02*
X81870952Y-9734666D01*
X81870952Y-9734666D02*
X81718571Y-9696570D01*
X81718571Y-9696570D02*
X81642380Y-9658475D01*
X81642380Y-9658475D02*
X81566190Y-9582285D01*
X81566190Y-9582285D02*
X81528095Y-9467999D01*
X81528095Y-9467999D02*
X81528095Y-9391808D01*
X81528095Y-9391808D02*
X81566190Y-9277523D01*
X81566190Y-9277523D02*
X81604285Y-9239427D01*
X81604285Y-9239427D02*
X81870952Y-9239427D01*
X81870952Y-9239427D02*
X81870952Y-9391808D01*
X81528095Y-8896570D02*
X82328095Y-8896570D01*
X82328095Y-8896570D02*
X81528095Y-8439427D01*
X81528095Y-8439427D02*
X82328095Y-8439427D01*
X81528095Y-8058475D02*
X82328095Y-8058475D01*
X82328095Y-8058475D02*
X82328095Y-7867999D01*
X82328095Y-7867999D02*
X82290000Y-7753713D01*
X82290000Y-7753713D02*
X82213809Y-7677523D01*
X82213809Y-7677523D02*
X82137619Y-7639428D01*
X82137619Y-7639428D02*
X81985238Y-7601332D01*
X81985238Y-7601332D02*
X81870952Y-7601332D01*
X81870952Y-7601332D02*
X81718571Y-7639428D01*
X81718571Y-7639428D02*
X81642380Y-7677523D01*
X81642380Y-7677523D02*
X81566190Y-7753713D01*
X81566190Y-7753713D02*
X81528095Y-7867999D01*
X81528095Y-7867999D02*
X81528095Y-8058475D01*
X82328095Y-11322285D02*
X82328095Y-11703237D01*
X82328095Y-11703237D02*
X81947142Y-11741333D01*
X81947142Y-11741333D02*
X81985238Y-11703237D01*
X81985238Y-11703237D02*
X82023333Y-11627047D01*
X82023333Y-11627047D02*
X82023333Y-11436571D01*
X82023333Y-11436571D02*
X81985238Y-11360380D01*
X81985238Y-11360380D02*
X81947142Y-11322285D01*
X81947142Y-11322285D02*
X81870952Y-11284190D01*
X81870952Y-11284190D02*
X81680476Y-11284190D01*
X81680476Y-11284190D02*
X81604285Y-11322285D01*
X81604285Y-11322285D02*
X81566190Y-11360380D01*
X81566190Y-11360380D02*
X81528095Y-11436571D01*
X81528095Y-11436571D02*
X81528095Y-11627047D01*
X81528095Y-11627047D02*
X81566190Y-11703237D01*
X81566190Y-11703237D02*
X81604285Y-11741333D01*
X82061428Y-11017523D02*
X81528095Y-10827047D01*
X81528095Y-10827047D02*
X82061428Y-10636570D01*
D12*
X135899571Y-18997285D02*
X136124571Y-17197285D01*
X136124571Y-17197285D02*
X135438857Y-17197285D01*
X135438857Y-17197285D02*
X135256714Y-17283000D01*
X135256714Y-17283000D02*
X135160286Y-17368714D01*
X135160286Y-17368714D02*
X135053143Y-17540142D01*
X135053143Y-17540142D02*
X135021000Y-17797285D01*
X135021000Y-17797285D02*
X135085286Y-17968714D01*
X135085286Y-17968714D02*
X135160286Y-18054428D01*
X135160286Y-18054428D02*
X135321000Y-18140142D01*
X135321000Y-18140142D02*
X136006714Y-18140142D01*
X134099571Y-18997285D02*
X134249571Y-17797285D01*
X134324571Y-17197285D02*
X134399571Y-17283000D01*
X134399571Y-17283000D02*
X134303143Y-17368714D01*
X134303143Y-17368714D02*
X134228143Y-17283000D01*
X134228143Y-17283000D02*
X134324571Y-17197285D01*
X134324571Y-17197285D02*
X134303143Y-17368714D01*
X133338857Y-18911571D02*
X133071000Y-18997285D01*
X133071000Y-18997285D02*
X132642428Y-18997285D01*
X132642428Y-18997285D02*
X132481714Y-18911571D01*
X132481714Y-18911571D02*
X132406714Y-18825857D01*
X132406714Y-18825857D02*
X132342428Y-18654428D01*
X132342428Y-18654428D02*
X132363857Y-18483000D01*
X132363857Y-18483000D02*
X132471000Y-18311571D01*
X132471000Y-18311571D02*
X132567428Y-18225857D01*
X132567428Y-18225857D02*
X132749571Y-18140142D01*
X132749571Y-18140142D02*
X133103143Y-18054428D01*
X133103143Y-18054428D02*
X133285286Y-17968714D01*
X133285286Y-17968714D02*
X133381714Y-17883000D01*
X133381714Y-17883000D02*
X133488857Y-17711571D01*
X133488857Y-17711571D02*
X133510286Y-17540142D01*
X133510286Y-17540142D02*
X133446000Y-17368714D01*
X133446000Y-17368714D02*
X133371000Y-17283000D01*
X133371000Y-17283000D02*
X133210286Y-17197285D01*
X133210286Y-17197285D02*
X132781714Y-17197285D01*
X132781714Y-17197285D02*
X132513857Y-17283000D01*
X130521000Y-18825857D02*
X130596000Y-18911571D01*
X130596000Y-18911571D02*
X130842428Y-18997285D01*
X130842428Y-18997285D02*
X131013857Y-18997285D01*
X131013857Y-18997285D02*
X131281714Y-18911571D01*
X131281714Y-18911571D02*
X131474571Y-18740142D01*
X131474571Y-18740142D02*
X131581714Y-18568714D01*
X131581714Y-18568714D02*
X131710285Y-18225857D01*
X131710285Y-18225857D02*
X131742428Y-17968714D01*
X131742428Y-17968714D02*
X131699571Y-17625857D01*
X131699571Y-17625857D02*
X131635285Y-17454428D01*
X131635285Y-17454428D02*
X131485285Y-17283000D01*
X131485285Y-17283000D02*
X131238857Y-17197285D01*
X131238857Y-17197285D02*
X131067428Y-17197285D01*
X131067428Y-17197285D02*
X130799571Y-17283000D01*
X130799571Y-17283000D02*
X130703142Y-17368714D01*
X129824571Y-18911571D02*
X129556714Y-18997285D01*
X129556714Y-18997285D02*
X129128142Y-18997285D01*
X129128142Y-18997285D02*
X128967428Y-18911571D01*
X128967428Y-18911571D02*
X128892428Y-18825857D01*
X128892428Y-18825857D02*
X128828142Y-18654428D01*
X128828142Y-18654428D02*
X128849571Y-18483000D01*
X128849571Y-18483000D02*
X128956714Y-18311571D01*
X128956714Y-18311571D02*
X129053142Y-18225857D01*
X129053142Y-18225857D02*
X129235285Y-18140142D01*
X129235285Y-18140142D02*
X129588857Y-18054428D01*
X129588857Y-18054428D02*
X129771000Y-17968714D01*
X129771000Y-17968714D02*
X129867428Y-17883000D01*
X129867428Y-17883000D02*
X129974571Y-17711571D01*
X129974571Y-17711571D02*
X129996000Y-17540142D01*
X129996000Y-17540142D02*
X129931714Y-17368714D01*
X129931714Y-17368714D02*
X129856714Y-17283000D01*
X129856714Y-17283000D02*
X129696000Y-17197285D01*
X129696000Y-17197285D02*
X129267428Y-17197285D01*
X129267428Y-17197285D02*
X128999571Y-17283000D01*
X128013856Y-18997285D02*
X128238856Y-17197285D01*
D11*
X139263333Y7122620D02*
X139263333Y6408334D01*
X139263333Y6408334D02*
X139310952Y6265477D01*
X139310952Y6265477D02*
X139406190Y6170239D01*
X139406190Y6170239D02*
X139549047Y6122620D01*
X139549047Y6122620D02*
X139644285Y6122620D01*
X138263333Y6122620D02*
X138834761Y6122620D01*
X138549047Y6122620D02*
X138549047Y7122620D01*
X138549047Y7122620D02*
X138644285Y6979762D01*
X138644285Y6979762D02*
X138739523Y6884524D01*
X138739523Y6884524D02*
X138834761Y6836905D01*
X130093332Y-14730904D02*
X130359999Y-14349952D01*
X130550475Y-14730904D02*
X130550475Y-13930904D01*
X130550475Y-13930904D02*
X130245713Y-13930904D01*
X130245713Y-13930904D02*
X130169523Y-13969000D01*
X130169523Y-13969000D02*
X130131428Y-14007095D01*
X130131428Y-14007095D02*
X130093332Y-14083285D01*
X130093332Y-14083285D02*
X130093332Y-14197571D01*
X130093332Y-14197571D02*
X130131428Y-14273761D01*
X130131428Y-14273761D02*
X130169523Y-14311857D01*
X130169523Y-14311857D02*
X130245713Y-14349952D01*
X130245713Y-14349952D02*
X130550475Y-14349952D01*
X129750475Y-14311857D02*
X129483809Y-14311857D01*
X129369523Y-14730904D02*
X129750475Y-14730904D01*
X129750475Y-14730904D02*
X129750475Y-13930904D01*
X129750475Y-13930904D02*
X129369523Y-13930904D01*
X128493332Y-14807095D02*
X128569522Y-14769000D01*
X128569522Y-14769000D02*
X128645713Y-14692809D01*
X128645713Y-14692809D02*
X128759999Y-14578523D01*
X128759999Y-14578523D02*
X128836189Y-14540428D01*
X128836189Y-14540428D02*
X128912380Y-14540428D01*
X128874284Y-14730904D02*
X128950475Y-14692809D01*
X128950475Y-14692809D02*
X129026665Y-14616619D01*
X129026665Y-14616619D02*
X129064761Y-14464238D01*
X129064761Y-14464238D02*
X129064761Y-14197571D01*
X129064761Y-14197571D02*
X129026665Y-14045190D01*
X129026665Y-14045190D02*
X128950475Y-13969000D01*
X128950475Y-13969000D02*
X128874284Y-13930904D01*
X128874284Y-13930904D02*
X128721903Y-13930904D01*
X128721903Y-13930904D02*
X128645713Y-13969000D01*
X128645713Y-13969000D02*
X128569522Y-14045190D01*
X128569522Y-14045190D02*
X128531427Y-14197571D01*
X128531427Y-14197571D02*
X128531427Y-14464238D01*
X128531427Y-14464238D02*
X128569522Y-14616619D01*
X128569522Y-14616619D02*
X128645713Y-14692809D01*
X128645713Y-14692809D02*
X128721903Y-14730904D01*
X128721903Y-14730904D02*
X128874284Y-14730904D01*
X96622475Y-14765904D02*
X96622475Y-13965904D01*
X96622475Y-13965904D02*
X96431999Y-13965904D01*
X96431999Y-13965904D02*
X96317713Y-14004000D01*
X96317713Y-14004000D02*
X96241523Y-14080190D01*
X96241523Y-14080190D02*
X96203428Y-14156380D01*
X96203428Y-14156380D02*
X96165332Y-14308761D01*
X96165332Y-14308761D02*
X96165332Y-14423047D01*
X96165332Y-14423047D02*
X96203428Y-14575428D01*
X96203428Y-14575428D02*
X96241523Y-14651619D01*
X96241523Y-14651619D02*
X96317713Y-14727809D01*
X96317713Y-14727809D02*
X96431999Y-14765904D01*
X96431999Y-14765904D02*
X96622475Y-14765904D01*
X95898666Y-13965904D02*
X95365332Y-13965904D01*
X95365332Y-13965904D02*
X95708190Y-14765904D01*
X111881523Y-17559904D02*
X111881523Y-16759904D01*
X111881523Y-16759904D02*
X111691047Y-16759904D01*
X111691047Y-16759904D02*
X111576761Y-16798000D01*
X111576761Y-16798000D02*
X111500571Y-16874190D01*
X111500571Y-16874190D02*
X111462476Y-16950380D01*
X111462476Y-16950380D02*
X111424380Y-17102761D01*
X111424380Y-17102761D02*
X111424380Y-17217047D01*
X111424380Y-17217047D02*
X111462476Y-17369428D01*
X111462476Y-17369428D02*
X111500571Y-17445619D01*
X111500571Y-17445619D02*
X111576761Y-17521809D01*
X111576761Y-17521809D02*
X111691047Y-17559904D01*
X111691047Y-17559904D02*
X111881523Y-17559904D01*
X111081523Y-17559904D02*
X111081523Y-16759904D01*
X111081523Y-16759904D02*
X110776761Y-16759904D01*
X110776761Y-16759904D02*
X110700571Y-16798000D01*
X110700571Y-16798000D02*
X110662476Y-16836095D01*
X110662476Y-16836095D02*
X110624380Y-16912285D01*
X110624380Y-16912285D02*
X110624380Y-17026571D01*
X110624380Y-17026571D02*
X110662476Y-17102761D01*
X110662476Y-17102761D02*
X110700571Y-17140857D01*
X110700571Y-17140857D02*
X110776761Y-17178952D01*
X110776761Y-17178952D02*
X111081523Y-17178952D01*
X120568285Y-17331333D02*
X120187332Y-17331333D01*
X120644475Y-17559904D02*
X120377808Y-16759904D01*
X120377808Y-16759904D02*
X120111142Y-17559904D01*
X119958761Y-16759904D02*
X119501618Y-16759904D01*
X119730190Y-17559904D02*
X119730190Y-16759904D01*
X119234951Y-17559904D02*
X119234951Y-16759904D01*
X119234951Y-16759904D02*
X118777808Y-17559904D01*
X118777808Y-17559904D02*
X118777808Y-16759904D01*
X119288476Y-14540429D02*
X118907523Y-14540429D01*
X119364666Y-14769000D02*
X119097999Y-13969000D01*
X119097999Y-13969000D02*
X118831333Y-14769000D01*
X118107523Y-14692810D02*
X118145619Y-14730905D01*
X118145619Y-14730905D02*
X118259904Y-14769000D01*
X118259904Y-14769000D02*
X118336095Y-14769000D01*
X118336095Y-14769000D02*
X118450381Y-14730905D01*
X118450381Y-14730905D02*
X118526571Y-14654715D01*
X118526571Y-14654715D02*
X118564666Y-14578524D01*
X118564666Y-14578524D02*
X118602762Y-14426143D01*
X118602762Y-14426143D02*
X118602762Y-14311857D01*
X118602762Y-14311857D02*
X118564666Y-14159476D01*
X118564666Y-14159476D02*
X118526571Y-14083286D01*
X118526571Y-14083286D02*
X118450381Y-14007096D01*
X118450381Y-14007096D02*
X118336095Y-13969000D01*
X118336095Y-13969000D02*
X118259904Y-13969000D01*
X118259904Y-13969000D02*
X118145619Y-14007096D01*
X118145619Y-14007096D02*
X118107523Y-14045191D01*
X117764666Y-14769000D02*
X117764666Y-13969000D01*
X117307523Y-14769000D02*
X117650381Y-14311857D01*
X117307523Y-13969000D02*
X117764666Y-14426143D01*
X125813427Y-17483714D02*
X125851523Y-17521809D01*
X125851523Y-17521809D02*
X125965808Y-17559904D01*
X125965808Y-17559904D02*
X126041999Y-17559904D01*
X126041999Y-17559904D02*
X126156285Y-17521809D01*
X126156285Y-17521809D02*
X126232475Y-17445619D01*
X126232475Y-17445619D02*
X126270570Y-17369428D01*
X126270570Y-17369428D02*
X126308666Y-17217047D01*
X126308666Y-17217047D02*
X126308666Y-17102761D01*
X126308666Y-17102761D02*
X126270570Y-16950380D01*
X126270570Y-16950380D02*
X126232475Y-16874190D01*
X126232475Y-16874190D02*
X126156285Y-16798000D01*
X126156285Y-16798000D02*
X126041999Y-16759904D01*
X126041999Y-16759904D02*
X125965808Y-16759904D01*
X125965808Y-16759904D02*
X125851523Y-16798000D01*
X125851523Y-16798000D02*
X125813427Y-16836095D01*
X124899142Y-16721809D02*
X125584856Y-17750380D01*
X124632475Y-17559904D02*
X124632475Y-16759904D01*
X124632475Y-16759904D02*
X124441999Y-16759904D01*
X124441999Y-16759904D02*
X124327713Y-16798000D01*
X124327713Y-16798000D02*
X124251523Y-16874190D01*
X124251523Y-16874190D02*
X124213428Y-16950380D01*
X124213428Y-16950380D02*
X124175332Y-17102761D01*
X124175332Y-17102761D02*
X124175332Y-17217047D01*
X124175332Y-17217047D02*
X124213428Y-17369428D01*
X124213428Y-17369428D02*
X124251523Y-17445619D01*
X124251523Y-17445619D02*
X124327713Y-17521809D01*
X124327713Y-17521809D02*
X124441999Y-17559904D01*
X124441999Y-17559904D02*
X124632475Y-17559904D01*
X105004475Y-14765904D02*
X105004475Y-13965904D01*
X105004475Y-13965904D02*
X104813999Y-13965904D01*
X104813999Y-13965904D02*
X104699713Y-14004000D01*
X104699713Y-14004000D02*
X104623523Y-14080190D01*
X104623523Y-14080190D02*
X104585428Y-14156380D01*
X104585428Y-14156380D02*
X104547332Y-14308761D01*
X104547332Y-14308761D02*
X104547332Y-14423047D01*
X104547332Y-14423047D02*
X104585428Y-14575428D01*
X104585428Y-14575428D02*
X104623523Y-14651619D01*
X104623523Y-14651619D02*
X104699713Y-14727809D01*
X104699713Y-14727809D02*
X104813999Y-14765904D01*
X104813999Y-14765904D02*
X105004475Y-14765904D01*
X104280666Y-13965904D02*
X103785428Y-13965904D01*
X103785428Y-13965904D02*
X104052094Y-14270666D01*
X104052094Y-14270666D02*
X103937809Y-14270666D01*
X103937809Y-14270666D02*
X103861618Y-14308761D01*
X103861618Y-14308761D02*
X103823523Y-14346857D01*
X103823523Y-14346857D02*
X103785428Y-14423047D01*
X103785428Y-14423047D02*
X103785428Y-14613523D01*
X103785428Y-14613523D02*
X103823523Y-14689714D01*
X103823523Y-14689714D02*
X103861618Y-14727809D01*
X103861618Y-14727809D02*
X103937809Y-14765904D01*
X103937809Y-14765904D02*
X104166380Y-14765904D01*
X104166380Y-14765904D02*
X104242571Y-14727809D01*
X104242571Y-14727809D02*
X104280666Y-14689714D01*
X99041714Y-16759904D02*
X98584571Y-16759904D01*
X98813143Y-17559904D02*
X98813143Y-16759904D01*
X98317904Y-17559904D02*
X98317904Y-16759904D01*
X98317904Y-16759904D02*
X98013142Y-16759904D01*
X98013142Y-16759904D02*
X97936952Y-16798000D01*
X97936952Y-16798000D02*
X97898857Y-16836095D01*
X97898857Y-16836095D02*
X97860761Y-16912285D01*
X97860761Y-16912285D02*
X97860761Y-17026571D01*
X97860761Y-17026571D02*
X97898857Y-17102761D01*
X97898857Y-17102761D02*
X97936952Y-17140857D01*
X97936952Y-17140857D02*
X98013142Y-17178952D01*
X98013142Y-17178952D02*
X98317904Y-17178952D01*
X97594095Y-16759904D02*
X97403619Y-17559904D01*
X97403619Y-17559904D02*
X97251238Y-16988476D01*
X97251238Y-16988476D02*
X97098857Y-17559904D01*
X97098857Y-17559904D02*
X96908381Y-16759904D01*
X96146475Y-17559904D02*
X96413142Y-17178952D01*
X96603618Y-17559904D02*
X96603618Y-16759904D01*
X96603618Y-16759904D02*
X96298856Y-16759904D01*
X96298856Y-16759904D02*
X96222666Y-16798000D01*
X96222666Y-16798000D02*
X96184571Y-16836095D01*
X96184571Y-16836095D02*
X96146475Y-16912285D01*
X96146475Y-16912285D02*
X96146475Y-17026571D01*
X96146475Y-17026571D02*
X96184571Y-17102761D01*
X96184571Y-17102761D02*
X96222666Y-17140857D01*
X96222666Y-17140857D02*
X96298856Y-17178952D01*
X96298856Y-17178952D02*
X96603618Y-17178952D01*
X127559618Y-14765904D02*
X127559618Y-13965904D01*
X127559618Y-13965904D02*
X127292952Y-14537333D01*
X127292952Y-14537333D02*
X127026285Y-13965904D01*
X127026285Y-13965904D02*
X127026285Y-14765904D01*
X126683428Y-14727809D02*
X126569142Y-14765904D01*
X126569142Y-14765904D02*
X126378666Y-14765904D01*
X126378666Y-14765904D02*
X126302475Y-14727809D01*
X126302475Y-14727809D02*
X126264380Y-14689714D01*
X126264380Y-14689714D02*
X126226285Y-14613523D01*
X126226285Y-14613523D02*
X126226285Y-14537333D01*
X126226285Y-14537333D02*
X126264380Y-14461142D01*
X126264380Y-14461142D02*
X126302475Y-14423047D01*
X126302475Y-14423047D02*
X126378666Y-14384952D01*
X126378666Y-14384952D02*
X126531047Y-14346857D01*
X126531047Y-14346857D02*
X126607237Y-14308761D01*
X126607237Y-14308761D02*
X126645332Y-14270666D01*
X126645332Y-14270666D02*
X126683428Y-14194476D01*
X126683428Y-14194476D02*
X126683428Y-14118285D01*
X126683428Y-14118285D02*
X126645332Y-14042095D01*
X126645332Y-14042095D02*
X126607237Y-14004000D01*
X126607237Y-14004000D02*
X126531047Y-13965904D01*
X126531047Y-13965904D02*
X126340570Y-13965904D01*
X126340570Y-13965904D02*
X126226285Y-14004000D01*
X125464380Y-14004000D02*
X125540570Y-13965904D01*
X125540570Y-13965904D02*
X125654856Y-13965904D01*
X125654856Y-13965904D02*
X125769142Y-14004000D01*
X125769142Y-14004000D02*
X125845332Y-14080190D01*
X125845332Y-14080190D02*
X125883427Y-14156380D01*
X125883427Y-14156380D02*
X125921523Y-14308761D01*
X125921523Y-14308761D02*
X125921523Y-14423047D01*
X125921523Y-14423047D02*
X125883427Y-14575428D01*
X125883427Y-14575428D02*
X125845332Y-14651619D01*
X125845332Y-14651619D02*
X125769142Y-14727809D01*
X125769142Y-14727809D02*
X125654856Y-14765904D01*
X125654856Y-14765904D02*
X125578665Y-14765904D01*
X125578665Y-14765904D02*
X125464380Y-14727809D01*
X125464380Y-14727809D02*
X125426284Y-14689714D01*
X125426284Y-14689714D02*
X125426284Y-14423047D01*
X125426284Y-14423047D02*
X125578665Y-14423047D01*
X106274475Y-17559904D02*
X106274475Y-16759904D01*
X106274475Y-16759904D02*
X106083999Y-16759904D01*
X106083999Y-16759904D02*
X105969713Y-16798000D01*
X105969713Y-16798000D02*
X105893523Y-16874190D01*
X105893523Y-16874190D02*
X105855428Y-16950380D01*
X105855428Y-16950380D02*
X105817332Y-17102761D01*
X105817332Y-17102761D02*
X105817332Y-17217047D01*
X105817332Y-17217047D02*
X105855428Y-17369428D01*
X105855428Y-17369428D02*
X105893523Y-17445619D01*
X105893523Y-17445619D02*
X105969713Y-17521809D01*
X105969713Y-17521809D02*
X106083999Y-17559904D01*
X106083999Y-17559904D02*
X106274475Y-17559904D01*
X105512571Y-16836095D02*
X105474475Y-16798000D01*
X105474475Y-16798000D02*
X105398285Y-16759904D01*
X105398285Y-16759904D02*
X105207809Y-16759904D01*
X105207809Y-16759904D02*
X105131618Y-16798000D01*
X105131618Y-16798000D02*
X105093523Y-16836095D01*
X105093523Y-16836095D02*
X105055428Y-16912285D01*
X105055428Y-16912285D02*
X105055428Y-16988476D01*
X105055428Y-16988476D02*
X105093523Y-17102761D01*
X105093523Y-17102761D02*
X105550666Y-17559904D01*
X105550666Y-17559904D02*
X105055428Y-17559904D01*
X103734475Y-17559904D02*
X103734475Y-16759904D01*
X103734475Y-16759904D02*
X103543999Y-16759904D01*
X103543999Y-16759904D02*
X103429713Y-16798000D01*
X103429713Y-16798000D02*
X103353523Y-16874190D01*
X103353523Y-16874190D02*
X103315428Y-16950380D01*
X103315428Y-16950380D02*
X103277332Y-17102761D01*
X103277332Y-17102761D02*
X103277332Y-17217047D01*
X103277332Y-17217047D02*
X103315428Y-17369428D01*
X103315428Y-17369428D02*
X103353523Y-17445619D01*
X103353523Y-17445619D02*
X103429713Y-17521809D01*
X103429713Y-17521809D02*
X103543999Y-17559904D01*
X103543999Y-17559904D02*
X103734475Y-17559904D01*
X102591618Y-17026571D02*
X102591618Y-17559904D01*
X102782094Y-16721809D02*
X102972571Y-17293238D01*
X102972571Y-17293238D02*
X102477332Y-17293238D01*
X109068475Y-17559904D02*
X109068475Y-16759904D01*
X109068475Y-16759904D02*
X108877999Y-16759904D01*
X108877999Y-16759904D02*
X108763713Y-16798000D01*
X108763713Y-16798000D02*
X108687523Y-16874190D01*
X108687523Y-16874190D02*
X108649428Y-16950380D01*
X108649428Y-16950380D02*
X108611332Y-17102761D01*
X108611332Y-17102761D02*
X108611332Y-17217047D01*
X108611332Y-17217047D02*
X108649428Y-17369428D01*
X108649428Y-17369428D02*
X108687523Y-17445619D01*
X108687523Y-17445619D02*
X108763713Y-17521809D01*
X108763713Y-17521809D02*
X108877999Y-17559904D01*
X108877999Y-17559904D02*
X109068475Y-17559904D01*
X107849428Y-17559904D02*
X108306571Y-17559904D01*
X108077999Y-17559904D02*
X108077999Y-16759904D01*
X108077999Y-16759904D02*
X108154190Y-16874190D01*
X108154190Y-16874190D02*
X108230380Y-16950380D01*
X108230380Y-16950380D02*
X108306571Y-16988476D01*
X99330475Y-14765904D02*
X99330475Y-13965904D01*
X99330475Y-13965904D02*
X99139999Y-13965904D01*
X99139999Y-13965904D02*
X99025713Y-14004000D01*
X99025713Y-14004000D02*
X98949523Y-14080190D01*
X98949523Y-14080190D02*
X98911428Y-14156380D01*
X98911428Y-14156380D02*
X98873332Y-14308761D01*
X98873332Y-14308761D02*
X98873332Y-14423047D01*
X98873332Y-14423047D02*
X98911428Y-14575428D01*
X98911428Y-14575428D02*
X98949523Y-14651619D01*
X98949523Y-14651619D02*
X99025713Y-14727809D01*
X99025713Y-14727809D02*
X99139999Y-14765904D01*
X99139999Y-14765904D02*
X99330475Y-14765904D01*
X98187618Y-13965904D02*
X98339999Y-13965904D01*
X98339999Y-13965904D02*
X98416190Y-14004000D01*
X98416190Y-14004000D02*
X98454285Y-14042095D01*
X98454285Y-14042095D02*
X98530475Y-14156380D01*
X98530475Y-14156380D02*
X98568571Y-14308761D01*
X98568571Y-14308761D02*
X98568571Y-14613523D01*
X98568571Y-14613523D02*
X98530475Y-14689714D01*
X98530475Y-14689714D02*
X98492380Y-14727809D01*
X98492380Y-14727809D02*
X98416190Y-14765904D01*
X98416190Y-14765904D02*
X98263809Y-14765904D01*
X98263809Y-14765904D02*
X98187618Y-14727809D01*
X98187618Y-14727809D02*
X98149523Y-14689714D01*
X98149523Y-14689714D02*
X98111428Y-14613523D01*
X98111428Y-14613523D02*
X98111428Y-14423047D01*
X98111428Y-14423047D02*
X98149523Y-14346857D01*
X98149523Y-14346857D02*
X98187618Y-14308761D01*
X98187618Y-14308761D02*
X98263809Y-14270666D01*
X98263809Y-14270666D02*
X98416190Y-14270666D01*
X98416190Y-14270666D02*
X98492380Y-14308761D01*
X98492380Y-14308761D02*
X98530475Y-14346857D01*
X98530475Y-14346857D02*
X98568571Y-14423047D01*
X116002666Y-14346857D02*
X115888380Y-14384952D01*
X115888380Y-14384952D02*
X115850285Y-14423047D01*
X115850285Y-14423047D02*
X115812189Y-14499238D01*
X115812189Y-14499238D02*
X115812189Y-14613523D01*
X115812189Y-14613523D02*
X115850285Y-14689714D01*
X115850285Y-14689714D02*
X115888380Y-14727809D01*
X115888380Y-14727809D02*
X115964570Y-14765904D01*
X115964570Y-14765904D02*
X116269332Y-14765904D01*
X116269332Y-14765904D02*
X116269332Y-13965904D01*
X116269332Y-13965904D02*
X116002666Y-13965904D01*
X116002666Y-13965904D02*
X115926475Y-14004000D01*
X115926475Y-14004000D02*
X115888380Y-14042095D01*
X115888380Y-14042095D02*
X115850285Y-14118285D01*
X115850285Y-14118285D02*
X115850285Y-14194476D01*
X115850285Y-14194476D02*
X115888380Y-14270666D01*
X115888380Y-14270666D02*
X115926475Y-14308761D01*
X115926475Y-14308761D02*
X116002666Y-14346857D01*
X116002666Y-14346857D02*
X116269332Y-14346857D01*
X115507428Y-14727809D02*
X115393142Y-14765904D01*
X115393142Y-14765904D02*
X115202666Y-14765904D01*
X115202666Y-14765904D02*
X115126475Y-14727809D01*
X115126475Y-14727809D02*
X115088380Y-14689714D01*
X115088380Y-14689714D02*
X115050285Y-14613523D01*
X115050285Y-14613523D02*
X115050285Y-14537333D01*
X115050285Y-14537333D02*
X115088380Y-14461142D01*
X115088380Y-14461142D02*
X115126475Y-14423047D01*
X115126475Y-14423047D02*
X115202666Y-14384952D01*
X115202666Y-14384952D02*
X115355047Y-14346857D01*
X115355047Y-14346857D02*
X115431237Y-14308761D01*
X115431237Y-14308761D02*
X115469332Y-14270666D01*
X115469332Y-14270666D02*
X115507428Y-14194476D01*
X115507428Y-14194476D02*
X115507428Y-14118285D01*
X115507428Y-14118285D02*
X115469332Y-14042095D01*
X115469332Y-14042095D02*
X115431237Y-14004000D01*
X115431237Y-14004000D02*
X115355047Y-13965904D01*
X115355047Y-13965904D02*
X115164570Y-13965904D01*
X115164570Y-13965904D02*
X115050285Y-14004000D01*
X114555046Y-14384952D02*
X114555046Y-14765904D01*
X114821713Y-13965904D02*
X114555046Y-14384952D01*
X114555046Y-14384952D02*
X114288380Y-13965904D01*
X102210475Y-14765904D02*
X102210475Y-13965904D01*
X102210475Y-13965904D02*
X102019999Y-13965904D01*
X102019999Y-13965904D02*
X101905713Y-14004000D01*
X101905713Y-14004000D02*
X101829523Y-14080190D01*
X101829523Y-14080190D02*
X101791428Y-14156380D01*
X101791428Y-14156380D02*
X101753332Y-14308761D01*
X101753332Y-14308761D02*
X101753332Y-14423047D01*
X101753332Y-14423047D02*
X101791428Y-14575428D01*
X101791428Y-14575428D02*
X101829523Y-14651619D01*
X101829523Y-14651619D02*
X101905713Y-14727809D01*
X101905713Y-14727809D02*
X102019999Y-14765904D01*
X102019999Y-14765904D02*
X102210475Y-14765904D01*
X101029523Y-13965904D02*
X101410475Y-13965904D01*
X101410475Y-13965904D02*
X101448571Y-14346857D01*
X101448571Y-14346857D02*
X101410475Y-14308761D01*
X101410475Y-14308761D02*
X101334285Y-14270666D01*
X101334285Y-14270666D02*
X101143809Y-14270666D01*
X101143809Y-14270666D02*
X101067618Y-14308761D01*
X101067618Y-14308761D02*
X101029523Y-14346857D01*
X101029523Y-14346857D02*
X100991428Y-14423047D01*
X100991428Y-14423047D02*
X100991428Y-14613523D01*
X100991428Y-14613523D02*
X101029523Y-14689714D01*
X101029523Y-14689714D02*
X101067618Y-14727809D01*
X101067618Y-14727809D02*
X101143809Y-14765904D01*
X101143809Y-14765904D02*
X101334285Y-14765904D01*
X101334285Y-14765904D02*
X101410475Y-14727809D01*
X101410475Y-14727809D02*
X101448571Y-14689714D01*
X110506475Y-14765904D02*
X110506475Y-13965904D01*
X110506475Y-13965904D02*
X110315999Y-13965904D01*
X110315999Y-13965904D02*
X110201713Y-14004000D01*
X110201713Y-14004000D02*
X110125523Y-14080190D01*
X110125523Y-14080190D02*
X110087428Y-14156380D01*
X110087428Y-14156380D02*
X110049332Y-14308761D01*
X110049332Y-14308761D02*
X110049332Y-14423047D01*
X110049332Y-14423047D02*
X110087428Y-14575428D01*
X110087428Y-14575428D02*
X110125523Y-14651619D01*
X110125523Y-14651619D02*
X110201713Y-14727809D01*
X110201713Y-14727809D02*
X110315999Y-14765904D01*
X110315999Y-14765904D02*
X110506475Y-14765904D01*
X109554094Y-13965904D02*
X109477904Y-13965904D01*
X109477904Y-13965904D02*
X109401713Y-14004000D01*
X109401713Y-14004000D02*
X109363618Y-14042095D01*
X109363618Y-14042095D02*
X109325523Y-14118285D01*
X109325523Y-14118285D02*
X109287428Y-14270666D01*
X109287428Y-14270666D02*
X109287428Y-14461142D01*
X109287428Y-14461142D02*
X109325523Y-14613523D01*
X109325523Y-14613523D02*
X109363618Y-14689714D01*
X109363618Y-14689714D02*
X109401713Y-14727809D01*
X109401713Y-14727809D02*
X109477904Y-14765904D01*
X109477904Y-14765904D02*
X109554094Y-14765904D01*
X109554094Y-14765904D02*
X109630285Y-14727809D01*
X109630285Y-14727809D02*
X109668380Y-14689714D01*
X109668380Y-14689714D02*
X109706475Y-14613523D01*
X109706475Y-14613523D02*
X109744571Y-14461142D01*
X109744571Y-14461142D02*
X109744571Y-14270666D01*
X109744571Y-14270666D02*
X109706475Y-14118285D01*
X109706475Y-14118285D02*
X109668380Y-14042095D01*
X109668380Y-14042095D02*
X109630285Y-14004000D01*
X109630285Y-14004000D02*
X109554094Y-13965904D01*
X114980286Y-17521809D02*
X114866000Y-17559904D01*
X114866000Y-17559904D02*
X114675524Y-17559904D01*
X114675524Y-17559904D02*
X114599333Y-17521809D01*
X114599333Y-17521809D02*
X114561238Y-17483714D01*
X114561238Y-17483714D02*
X114523143Y-17407523D01*
X114523143Y-17407523D02*
X114523143Y-17331333D01*
X114523143Y-17331333D02*
X114561238Y-17255142D01*
X114561238Y-17255142D02*
X114599333Y-17217047D01*
X114599333Y-17217047D02*
X114675524Y-17178952D01*
X114675524Y-17178952D02*
X114827905Y-17140857D01*
X114827905Y-17140857D02*
X114904095Y-17102761D01*
X114904095Y-17102761D02*
X114942190Y-17064666D01*
X114942190Y-17064666D02*
X114980286Y-16988476D01*
X114980286Y-16988476D02*
X114980286Y-16912285D01*
X114980286Y-16912285D02*
X114942190Y-16836095D01*
X114942190Y-16836095D02*
X114904095Y-16798000D01*
X114904095Y-16798000D02*
X114827905Y-16759904D01*
X114827905Y-16759904D02*
X114637428Y-16759904D01*
X114637428Y-16759904D02*
X114523143Y-16798000D01*
X114180285Y-17140857D02*
X113913619Y-17140857D01*
X113799333Y-17559904D02*
X114180285Y-17559904D01*
X114180285Y-17559904D02*
X114180285Y-16759904D01*
X114180285Y-16759904D02*
X113799333Y-16759904D01*
X113075523Y-17559904D02*
X113456475Y-17559904D01*
X113456475Y-17559904D02*
X113456475Y-16759904D01*
X121403094Y-14765904D02*
X121669761Y-14384952D01*
X121860237Y-14765904D02*
X121860237Y-13965904D01*
X121860237Y-13965904D02*
X121555475Y-13965904D01*
X121555475Y-13965904D02*
X121479285Y-14004000D01*
X121479285Y-14004000D02*
X121441190Y-14042095D01*
X121441190Y-14042095D02*
X121403094Y-14118285D01*
X121403094Y-14118285D02*
X121403094Y-14232571D01*
X121403094Y-14232571D02*
X121441190Y-14308761D01*
X121441190Y-14308761D02*
X121479285Y-14346857D01*
X121479285Y-14346857D02*
X121555475Y-14384952D01*
X121555475Y-14384952D02*
X121860237Y-14384952D01*
X121098333Y-14727809D02*
X120984047Y-14765904D01*
X120984047Y-14765904D02*
X120793571Y-14765904D01*
X120793571Y-14765904D02*
X120717380Y-14727809D01*
X120717380Y-14727809D02*
X120679285Y-14689714D01*
X120679285Y-14689714D02*
X120641190Y-14613523D01*
X120641190Y-14613523D02*
X120641190Y-14537333D01*
X120641190Y-14537333D02*
X120679285Y-14461142D01*
X120679285Y-14461142D02*
X120717380Y-14423047D01*
X120717380Y-14423047D02*
X120793571Y-14384952D01*
X120793571Y-14384952D02*
X120945952Y-14346857D01*
X120945952Y-14346857D02*
X121022142Y-14308761D01*
X121022142Y-14308761D02*
X121060237Y-14270666D01*
X121060237Y-14270666D02*
X121098333Y-14194476D01*
X121098333Y-14194476D02*
X121098333Y-14118285D01*
X121098333Y-14118285D02*
X121060237Y-14042095D01*
X121060237Y-14042095D02*
X121022142Y-14004000D01*
X121022142Y-14004000D02*
X120945952Y-13965904D01*
X120945952Y-13965904D02*
X120755475Y-13965904D01*
X120755475Y-13965904D02*
X120641190Y-14004000D01*
X120412618Y-13965904D02*
X119955475Y-13965904D01*
X120184047Y-14765904D02*
X120184047Y-13965904D01*
X124302094Y-14765904D02*
X124302094Y-13965904D01*
X123349714Y-13927809D02*
X124035428Y-14956380D01*
X122930666Y-13965904D02*
X122778285Y-13965904D01*
X122778285Y-13965904D02*
X122702095Y-14004000D01*
X122702095Y-14004000D02*
X122625904Y-14080190D01*
X122625904Y-14080190D02*
X122587809Y-14232571D01*
X122587809Y-14232571D02*
X122587809Y-14499238D01*
X122587809Y-14499238D02*
X122625904Y-14651619D01*
X122625904Y-14651619D02*
X122702095Y-14727809D01*
X122702095Y-14727809D02*
X122778285Y-14765904D01*
X122778285Y-14765904D02*
X122930666Y-14765904D01*
X122930666Y-14765904D02*
X123006857Y-14727809D01*
X123006857Y-14727809D02*
X123083047Y-14651619D01*
X123083047Y-14651619D02*
X123121143Y-14499238D01*
X123121143Y-14499238D02*
X123121143Y-14232571D01*
X123121143Y-14232571D02*
X123083047Y-14080190D01*
X123083047Y-14080190D02*
X123006857Y-14004000D01*
X123006857Y-14004000D02*
X122930666Y-13965904D01*
X132279333Y-12369380D02*
X132279333Y-13083666D01*
X132279333Y-13083666D02*
X132326952Y-13226523D01*
X132326952Y-13226523D02*
X132422190Y-13321761D01*
X132422190Y-13321761D02*
X132565047Y-13369380D01*
X132565047Y-13369380D02*
X132660285Y-13369380D01*
X131374571Y-12369380D02*
X131565047Y-12369380D01*
X131565047Y-12369380D02*
X131660285Y-12417000D01*
X131660285Y-12417000D02*
X131707904Y-12464619D01*
X131707904Y-12464619D02*
X131803142Y-12607476D01*
X131803142Y-12607476D02*
X131850761Y-12797952D01*
X131850761Y-12797952D02*
X131850761Y-13178904D01*
X131850761Y-13178904D02*
X131803142Y-13274142D01*
X131803142Y-13274142D02*
X131755523Y-13321761D01*
X131755523Y-13321761D02*
X131660285Y-13369380D01*
X131660285Y-13369380D02*
X131469809Y-13369380D01*
X131469809Y-13369380D02*
X131374571Y-13321761D01*
X131374571Y-13321761D02*
X131326952Y-13274142D01*
X131326952Y-13274142D02*
X131279333Y-13178904D01*
X131279333Y-13178904D02*
X131279333Y-12940809D01*
X131279333Y-12940809D02*
X131326952Y-12845571D01*
X131326952Y-12845571D02*
X131374571Y-12797952D01*
X131374571Y-12797952D02*
X131469809Y-12750333D01*
X131469809Y-12750333D02*
X131660285Y-12750333D01*
X131660285Y-12750333D02*
X131755523Y-12797952D01*
X131755523Y-12797952D02*
X131803142Y-12845571D01*
X131803142Y-12845571D02*
X131850761Y-12940809D01*
X81566190Y-4286381D02*
X81528095Y-4172095D01*
X81528095Y-4172095D02*
X81528095Y-3981619D01*
X81528095Y-3981619D02*
X81566190Y-3905428D01*
X81566190Y-3905428D02*
X81604285Y-3867333D01*
X81604285Y-3867333D02*
X81680476Y-3829238D01*
X81680476Y-3829238D02*
X81756666Y-3829238D01*
X81756666Y-3829238D02*
X81832857Y-3867333D01*
X81832857Y-3867333D02*
X81870952Y-3905428D01*
X81870952Y-3905428D02*
X81909047Y-3981619D01*
X81909047Y-3981619D02*
X81947142Y-4134000D01*
X81947142Y-4134000D02*
X81985238Y-4210190D01*
X81985238Y-4210190D02*
X82023333Y-4248285D01*
X82023333Y-4248285D02*
X82099523Y-4286381D01*
X82099523Y-4286381D02*
X82175714Y-4286381D01*
X82175714Y-4286381D02*
X82251904Y-4248285D01*
X82251904Y-4248285D02*
X82290000Y-4210190D01*
X82290000Y-4210190D02*
X82328095Y-4134000D01*
X82328095Y-4134000D02*
X82328095Y-3943523D01*
X82328095Y-3943523D02*
X82290000Y-3829238D01*
X81604285Y-3029237D02*
X81566190Y-3067333D01*
X81566190Y-3067333D02*
X81528095Y-3181618D01*
X81528095Y-3181618D02*
X81528095Y-3257809D01*
X81528095Y-3257809D02*
X81566190Y-3372095D01*
X81566190Y-3372095D02*
X81642380Y-3448285D01*
X81642380Y-3448285D02*
X81718571Y-3486380D01*
X81718571Y-3486380D02*
X81870952Y-3524476D01*
X81870952Y-3524476D02*
X81985238Y-3524476D01*
X81985238Y-3524476D02*
X82137619Y-3486380D01*
X82137619Y-3486380D02*
X82213809Y-3448285D01*
X82213809Y-3448285D02*
X82290000Y-3372095D01*
X82290000Y-3372095D02*
X82328095Y-3257809D01*
X82328095Y-3257809D02*
X82328095Y-3181618D01*
X82328095Y-3181618D02*
X82290000Y-3067333D01*
X82290000Y-3067333D02*
X82251904Y-3029237D01*
X81528095Y-2305428D02*
X81528095Y-2686380D01*
X81528095Y-2686380D02*
X82328095Y-2686380D01*
X81566190Y-1765428D02*
X81528095Y-1651142D01*
X81528095Y-1651142D02*
X81528095Y-1460666D01*
X81528095Y-1460666D02*
X81566190Y-1384475D01*
X81566190Y-1384475D02*
X81604285Y-1346380D01*
X81604285Y-1346380D02*
X81680476Y-1308285D01*
X81680476Y-1308285D02*
X81756666Y-1308285D01*
X81756666Y-1308285D02*
X81832857Y-1346380D01*
X81832857Y-1346380D02*
X81870952Y-1384475D01*
X81870952Y-1384475D02*
X81909047Y-1460666D01*
X81909047Y-1460666D02*
X81947142Y-1613047D01*
X81947142Y-1613047D02*
X81985238Y-1689237D01*
X81985238Y-1689237D02*
X82023333Y-1727332D01*
X82023333Y-1727332D02*
X82099523Y-1765428D01*
X82099523Y-1765428D02*
X82175714Y-1765428D01*
X82175714Y-1765428D02*
X82251904Y-1727332D01*
X82251904Y-1727332D02*
X82290000Y-1689237D01*
X82290000Y-1689237D02*
X82328095Y-1613047D01*
X82328095Y-1613047D02*
X82328095Y-1422570D01*
X82328095Y-1422570D02*
X82290000Y-1308285D01*
X81528095Y-965427D02*
X82328095Y-965427D01*
X82328095Y-965427D02*
X82328095Y-774951D01*
X82328095Y-774951D02*
X82290000Y-660665D01*
X82290000Y-660665D02*
X82213809Y-584475D01*
X82213809Y-584475D02*
X82137619Y-546380D01*
X82137619Y-546380D02*
X81985238Y-508284D01*
X81985238Y-508284D02*
X81870952Y-508284D01*
X81870952Y-508284D02*
X81718571Y-546380D01*
X81718571Y-546380D02*
X81642380Y-584475D01*
X81642380Y-584475D02*
X81566190Y-660665D01*
X81566190Y-660665D02*
X81528095Y-774951D01*
X81528095Y-774951D02*
X81528095Y-965427D01*
X81756666Y-203523D02*
X81756666Y177430D01*
X81528095Y-279713D02*
X82328095Y-13046D01*
X82328095Y-13046D02*
X81528095Y253620D01*
X136988570Y3262620D02*
X136988570Y4262620D01*
X136988570Y4262620D02*
X136607618Y4262620D01*
X136607618Y4262620D02*
X136512380Y4215000D01*
X136512380Y4215000D02*
X136464761Y4167381D01*
X136464761Y4167381D02*
X136417142Y4072143D01*
X136417142Y4072143D02*
X136417142Y3929286D01*
X136417142Y3929286D02*
X136464761Y3834048D01*
X136464761Y3834048D02*
X136512380Y3786429D01*
X136512380Y3786429D02*
X136607618Y3738810D01*
X136607618Y3738810D02*
X136988570Y3738810D01*
X135988570Y3262620D02*
X135988570Y3929286D01*
X135988570Y4262620D02*
X136036189Y4215000D01*
X136036189Y4215000D02*
X135988570Y4167381D01*
X135988570Y4167381D02*
X135940951Y4215000D01*
X135940951Y4215000D02*
X135988570Y4262620D01*
X135988570Y4262620D02*
X135988570Y4167381D01*
X135559999Y3310239D02*
X135417142Y3262620D01*
X135417142Y3262620D02*
X135179047Y3262620D01*
X135179047Y3262620D02*
X135083809Y3310239D01*
X135083809Y3310239D02*
X135036190Y3357858D01*
X135036190Y3357858D02*
X134988571Y3453096D01*
X134988571Y3453096D02*
X134988571Y3548334D01*
X134988571Y3548334D02*
X135036190Y3643572D01*
X135036190Y3643572D02*
X135083809Y3691191D01*
X135083809Y3691191D02*
X135179047Y3738810D01*
X135179047Y3738810D02*
X135369523Y3786429D01*
X135369523Y3786429D02*
X135464761Y3834048D01*
X135464761Y3834048D02*
X135512380Y3881667D01*
X135512380Y3881667D02*
X135559999Y3976905D01*
X135559999Y3976905D02*
X135559999Y4072143D01*
X135559999Y4072143D02*
X135512380Y4167381D01*
X135512380Y4167381D02*
X135464761Y4215000D01*
X135464761Y4215000D02*
X135369523Y4262620D01*
X135369523Y4262620D02*
X135131428Y4262620D01*
X135131428Y4262620D02*
X134988571Y4215000D01*
X133988571Y3357858D02*
X134036190Y3310239D01*
X134036190Y3310239D02*
X134179047Y3262620D01*
X134179047Y3262620D02*
X134274285Y3262620D01*
X134274285Y3262620D02*
X134417142Y3310239D01*
X134417142Y3310239D02*
X134512380Y3405477D01*
X134512380Y3405477D02*
X134559999Y3500715D01*
X134559999Y3500715D02*
X134607618Y3691191D01*
X134607618Y3691191D02*
X134607618Y3834048D01*
X134607618Y3834048D02*
X134559999Y4024524D01*
X134559999Y4024524D02*
X134512380Y4119762D01*
X134512380Y4119762D02*
X134417142Y4215000D01*
X134417142Y4215000D02*
X134274285Y4262620D01*
X134274285Y4262620D02*
X134179047Y4262620D01*
X134179047Y4262620D02*
X134036190Y4215000D01*
X134036190Y4215000D02*
X133988571Y4167381D01*
X133607618Y3310239D02*
X133464761Y3262620D01*
X133464761Y3262620D02*
X133226666Y3262620D01*
X133226666Y3262620D02*
X133131428Y3310239D01*
X133131428Y3310239D02*
X133083809Y3357858D01*
X133083809Y3357858D02*
X133036190Y3453096D01*
X133036190Y3453096D02*
X133036190Y3548334D01*
X133036190Y3548334D02*
X133083809Y3643572D01*
X133083809Y3643572D02*
X133131428Y3691191D01*
X133131428Y3691191D02*
X133226666Y3738810D01*
X133226666Y3738810D02*
X133417142Y3786429D01*
X133417142Y3786429D02*
X133512380Y3834048D01*
X133512380Y3834048D02*
X133559999Y3881667D01*
X133559999Y3881667D02*
X133607618Y3976905D01*
X133607618Y3976905D02*
X133607618Y4072143D01*
X133607618Y4072143D02*
X133559999Y4167381D01*
X133559999Y4167381D02*
X133512380Y4215000D01*
X133512380Y4215000D02*
X133417142Y4262620D01*
X133417142Y4262620D02*
X133179047Y4262620D01*
X133179047Y4262620D02*
X133036190Y4215000D01*
X132607618Y3262620D02*
X132607618Y4262620D01*
X131626666Y4262620D02*
X130960000Y4262620D01*
X130960000Y4262620D02*
X131626666Y3262620D01*
X131626666Y3262620D02*
X130960000Y3262620D01*
X130198095Y3310239D02*
X130293333Y3262620D01*
X130293333Y3262620D02*
X130483809Y3262620D01*
X130483809Y3262620D02*
X130579047Y3310239D01*
X130579047Y3310239D02*
X130626666Y3405477D01*
X130626666Y3405477D02*
X130626666Y3786429D01*
X130626666Y3786429D02*
X130579047Y3881667D01*
X130579047Y3881667D02*
X130483809Y3929286D01*
X130483809Y3929286D02*
X130293333Y3929286D01*
X130293333Y3929286D02*
X130198095Y3881667D01*
X130198095Y3881667D02*
X130150476Y3786429D01*
X130150476Y3786429D02*
X130150476Y3691191D01*
X130150476Y3691191D02*
X130626666Y3595953D01*
X129721904Y3262620D02*
X129721904Y3929286D01*
X129721904Y3738810D02*
X129674285Y3834048D01*
X129674285Y3834048D02*
X129626666Y3881667D01*
X129626666Y3881667D02*
X129531428Y3929286D01*
X129531428Y3929286D02*
X129436190Y3929286D01*
X128959999Y3262620D02*
X129055237Y3310239D01*
X129055237Y3310239D02*
X129102856Y3357858D01*
X129102856Y3357858D02*
X129150475Y3453096D01*
X129150475Y3453096D02*
X129150475Y3738810D01*
X129150475Y3738810D02*
X129102856Y3834048D01*
X129102856Y3834048D02*
X129055237Y3881667D01*
X129055237Y3881667D02*
X128959999Y3929286D01*
X128959999Y3929286D02*
X128817142Y3929286D01*
X128817142Y3929286D02*
X128721904Y3881667D01*
X128721904Y3881667D02*
X128674285Y3834048D01*
X128674285Y3834048D02*
X128626666Y3738810D01*
X128626666Y3738810D02*
X128626666Y3453096D01*
X128626666Y3453096D02*
X128674285Y3357858D01*
X128674285Y3357858D02*
X128721904Y3310239D01*
X128721904Y3310239D02*
X128817142Y3262620D01*
X128817142Y3262620D02*
X128959999Y3262620D01*
X127693332Y3929286D02*
X127455237Y3262620D01*
X127455237Y3262620D02*
X127217142Y3929286D01*
X126312380Y3262620D02*
X126883808Y3262620D01*
X126598094Y3262620D02*
X126598094Y4262620D01*
X126598094Y4262620D02*
X126693332Y4119762D01*
X126693332Y4119762D02*
X126788570Y4024524D01*
X126788570Y4024524D02*
X126883808Y3976905D01*
X125883808Y3357858D02*
X125836189Y3310239D01*
X125836189Y3310239D02*
X125883808Y3262620D01*
X125883808Y3262620D02*
X125931427Y3310239D01*
X125931427Y3310239D02*
X125883808Y3357858D01*
X125883808Y3357858D02*
X125883808Y3262620D01*
X124883809Y3262620D02*
X125455237Y3262620D01*
X125169523Y3262620D02*
X125169523Y4262620D01*
X125169523Y4262620D02*
X125264761Y4119762D01*
X125264761Y4119762D02*
X125359999Y4024524D01*
X125359999Y4024524D02*
X125455237Y3976905D01*
X137093333Y2166429D02*
X137426666Y2166429D01*
X137426666Y1642620D02*
X137426666Y2642620D01*
X137426666Y2642620D02*
X136950476Y2642620D01*
X136569523Y2642620D02*
X136569523Y1833096D01*
X136569523Y1833096D02*
X136521904Y1737858D01*
X136521904Y1737858D02*
X136474285Y1690239D01*
X136474285Y1690239D02*
X136379047Y1642620D01*
X136379047Y1642620D02*
X136188571Y1642620D01*
X136188571Y1642620D02*
X136093333Y1690239D01*
X136093333Y1690239D02*
X136045714Y1737858D01*
X136045714Y1737858D02*
X135998095Y1833096D01*
X135998095Y1833096D02*
X135998095Y2642620D01*
X135045714Y1642620D02*
X135521904Y1642620D01*
X135521904Y1642620D02*
X135521904Y2642620D01*
X134236190Y1642620D02*
X134712380Y1642620D01*
X134712380Y1642620D02*
X134712380Y2642620D01*
X133950475Y1690239D02*
X133807618Y1642620D01*
X133807618Y1642620D02*
X133569523Y1642620D01*
X133569523Y1642620D02*
X133474285Y1690239D01*
X133474285Y1690239D02*
X133426666Y1737858D01*
X133426666Y1737858D02*
X133379047Y1833096D01*
X133379047Y1833096D02*
X133379047Y1928334D01*
X133379047Y1928334D02*
X133426666Y2023572D01*
X133426666Y2023572D02*
X133474285Y2071191D01*
X133474285Y2071191D02*
X133569523Y2118810D01*
X133569523Y2118810D02*
X133759999Y2166429D01*
X133759999Y2166429D02*
X133855237Y2214048D01*
X133855237Y2214048D02*
X133902856Y2261667D01*
X133902856Y2261667D02*
X133950475Y2356905D01*
X133950475Y2356905D02*
X133950475Y2452143D01*
X133950475Y2452143D02*
X133902856Y2547381D01*
X133902856Y2547381D02*
X133855237Y2595000D01*
X133855237Y2595000D02*
X133759999Y2642620D01*
X133759999Y2642620D02*
X133521904Y2642620D01*
X133521904Y2642620D02*
X133379047Y2595000D01*
X132950475Y1642620D02*
X132950475Y2642620D01*
X132950475Y2642620D02*
X132569523Y2642620D01*
X132569523Y2642620D02*
X132474285Y2595000D01*
X132474285Y2595000D02*
X132426666Y2547381D01*
X132426666Y2547381D02*
X132379047Y2452143D01*
X132379047Y2452143D02*
X132379047Y2309286D01*
X132379047Y2309286D02*
X132426666Y2214048D01*
X132426666Y2214048D02*
X132474285Y2166429D01*
X132474285Y2166429D02*
X132569523Y2118810D01*
X132569523Y2118810D02*
X132950475Y2118810D01*
X131950475Y2166429D02*
X131617142Y2166429D01*
X131474285Y1642620D02*
X131950475Y1642620D01*
X131950475Y1642620D02*
X131950475Y2642620D01*
X131950475Y2642620D02*
X131474285Y2642620D01*
X130474285Y1737858D02*
X130521904Y1690239D01*
X130521904Y1690239D02*
X130664761Y1642620D01*
X130664761Y1642620D02*
X130759999Y1642620D01*
X130759999Y1642620D02*
X130902856Y1690239D01*
X130902856Y1690239D02*
X130998094Y1785477D01*
X130998094Y1785477D02*
X131045713Y1880715D01*
X131045713Y1880715D02*
X131093332Y2071191D01*
X131093332Y2071191D02*
X131093332Y2214048D01*
X131093332Y2214048D02*
X131045713Y2404524D01*
X131045713Y2404524D02*
X130998094Y2499762D01*
X130998094Y2499762D02*
X130902856Y2595000D01*
X130902856Y2595000D02*
X130759999Y2642620D01*
X130759999Y2642620D02*
X130664761Y2642620D01*
X130664761Y2642620D02*
X130521904Y2595000D01*
X130521904Y2595000D02*
X130474285Y2547381D01*
X129588570Y2642620D02*
X129255237Y1642620D01*
X129255237Y1642620D02*
X128921904Y2642620D01*
X128207618Y1690239D02*
X128302856Y1642620D01*
X128302856Y1642620D02*
X128493332Y1642620D01*
X128493332Y1642620D02*
X128588570Y1690239D01*
X128588570Y1690239D02*
X128636189Y1785477D01*
X128636189Y1785477D02*
X128636189Y2166429D01*
X128636189Y2166429D02*
X128588570Y2261667D01*
X128588570Y2261667D02*
X128493332Y2309286D01*
X128493332Y2309286D02*
X128302856Y2309286D01*
X128302856Y2309286D02*
X128207618Y2261667D01*
X128207618Y2261667D02*
X128159999Y2166429D01*
X128159999Y2166429D02*
X128159999Y2071191D01*
X128159999Y2071191D02*
X128636189Y1975953D01*
X127731427Y1642620D02*
X127731427Y2309286D01*
X127731427Y2118810D02*
X127683808Y2214048D01*
X127683808Y2214048D02*
X127636189Y2261667D01*
X127636189Y2261667D02*
X127540951Y2309286D01*
X127540951Y2309286D02*
X127445713Y2309286D01*
X127159998Y1690239D02*
X127064760Y1642620D01*
X127064760Y1642620D02*
X126874284Y1642620D01*
X126874284Y1642620D02*
X126779046Y1690239D01*
X126779046Y1690239D02*
X126731427Y1785477D01*
X126731427Y1785477D02*
X126731427Y1833096D01*
X126731427Y1833096D02*
X126779046Y1928334D01*
X126779046Y1928334D02*
X126874284Y1975953D01*
X126874284Y1975953D02*
X127017141Y1975953D01*
X127017141Y1975953D02*
X127112379Y2023572D01*
X127112379Y2023572D02*
X127159998Y2118810D01*
X127159998Y2118810D02*
X127159998Y2166429D01*
X127159998Y2166429D02*
X127112379Y2261667D01*
X127112379Y2261667D02*
X127017141Y2309286D01*
X127017141Y2309286D02*
X126874284Y2309286D01*
X126874284Y2309286D02*
X126779046Y2261667D01*
X126302855Y1642620D02*
X126302855Y2309286D01*
X126302855Y2642620D02*
X126350474Y2595000D01*
X126350474Y2595000D02*
X126302855Y2547381D01*
X126302855Y2547381D02*
X126255236Y2595000D01*
X126255236Y2595000D02*
X126302855Y2642620D01*
X126302855Y2642620D02*
X126302855Y2547381D01*
X125683808Y1642620D02*
X125779046Y1690239D01*
X125779046Y1690239D02*
X125826665Y1737858D01*
X125826665Y1737858D02*
X125874284Y1833096D01*
X125874284Y1833096D02*
X125874284Y2118810D01*
X125874284Y2118810D02*
X125826665Y2214048D01*
X125826665Y2214048D02*
X125779046Y2261667D01*
X125779046Y2261667D02*
X125683808Y2309286D01*
X125683808Y2309286D02*
X125540951Y2309286D01*
X125540951Y2309286D02*
X125445713Y2261667D01*
X125445713Y2261667D02*
X125398094Y2214048D01*
X125398094Y2214048D02*
X125350475Y2118810D01*
X125350475Y2118810D02*
X125350475Y1833096D01*
X125350475Y1833096D02*
X125398094Y1737858D01*
X125398094Y1737858D02*
X125445713Y1690239D01*
X125445713Y1690239D02*
X125540951Y1642620D01*
X125540951Y1642620D02*
X125683808Y1642620D01*
X124921903Y2309286D02*
X124921903Y1642620D01*
X124921903Y2214048D02*
X124874284Y2261667D01*
X124874284Y2261667D02*
X124779046Y2309286D01*
X124779046Y2309286D02*
X124636189Y2309286D01*
X124636189Y2309286D02*
X124540951Y2261667D01*
X124540951Y2261667D02*
X124493332Y2166429D01*
X124493332Y2166429D02*
X124493332Y1642620D01*
X86305333Y-11734380D02*
X86305333Y-12448666D01*
X86305333Y-12448666D02*
X86352952Y-12591523D01*
X86352952Y-12591523D02*
X86448190Y-12686761D01*
X86448190Y-12686761D02*
X86591047Y-12734380D01*
X86591047Y-12734380D02*
X86686285Y-12734380D01*
X85400571Y-12067714D02*
X85400571Y-12734380D01*
X85638666Y-11686761D02*
X85876761Y-12401047D01*
X85876761Y-12401047D02*
X85257714Y-12401047D01*
X83307380Y4453334D02*
X84021666Y4453334D01*
X84021666Y4453334D02*
X84164523Y4500953D01*
X84164523Y4500953D02*
X84259761Y4596191D01*
X84259761Y4596191D02*
X84307380Y4739048D01*
X84307380Y4739048D02*
X84307380Y4834286D01*
X83307380Y4072381D02*
X83307380Y3405715D01*
X83307380Y3405715D02*
X84307380Y3834286D01*
X107121429Y3357858D02*
X107169048Y3310239D01*
X107169048Y3310239D02*
X107311905Y3262620D01*
X107311905Y3262620D02*
X107407143Y3262620D01*
X107407143Y3262620D02*
X107550000Y3310239D01*
X107550000Y3310239D02*
X107645238Y3405477D01*
X107645238Y3405477D02*
X107692857Y3500715D01*
X107692857Y3500715D02*
X107740476Y3691191D01*
X107740476Y3691191D02*
X107740476Y3834048D01*
X107740476Y3834048D02*
X107692857Y4024524D01*
X107692857Y4024524D02*
X107645238Y4119762D01*
X107645238Y4119762D02*
X107550000Y4215000D01*
X107550000Y4215000D02*
X107407143Y4262620D01*
X107407143Y4262620D02*
X107311905Y4262620D01*
X107311905Y4262620D02*
X107169048Y4215000D01*
X107169048Y4215000D02*
X107121429Y4167381D01*
X106550000Y3262620D02*
X106645238Y3310239D01*
X106645238Y3310239D02*
X106692857Y3357858D01*
X106692857Y3357858D02*
X106740476Y3453096D01*
X106740476Y3453096D02*
X106740476Y3738810D01*
X106740476Y3738810D02*
X106692857Y3834048D01*
X106692857Y3834048D02*
X106645238Y3881667D01*
X106645238Y3881667D02*
X106550000Y3929286D01*
X106550000Y3929286D02*
X106407143Y3929286D01*
X106407143Y3929286D02*
X106311905Y3881667D01*
X106311905Y3881667D02*
X106264286Y3834048D01*
X106264286Y3834048D02*
X106216667Y3738810D01*
X106216667Y3738810D02*
X106216667Y3453096D01*
X106216667Y3453096D02*
X106264286Y3357858D01*
X106264286Y3357858D02*
X106311905Y3310239D01*
X106311905Y3310239D02*
X106407143Y3262620D01*
X106407143Y3262620D02*
X106550000Y3262620D01*
X105788095Y3929286D02*
X105788095Y2929286D01*
X105788095Y3881667D02*
X105692857Y3929286D01*
X105692857Y3929286D02*
X105502381Y3929286D01*
X105502381Y3929286D02*
X105407143Y3881667D01*
X105407143Y3881667D02*
X105359524Y3834048D01*
X105359524Y3834048D02*
X105311905Y3738810D01*
X105311905Y3738810D02*
X105311905Y3453096D01*
X105311905Y3453096D02*
X105359524Y3357858D01*
X105359524Y3357858D02*
X105407143Y3310239D01*
X105407143Y3310239D02*
X105502381Y3262620D01*
X105502381Y3262620D02*
X105692857Y3262620D01*
X105692857Y3262620D02*
X105788095Y3310239D01*
X104978571Y3929286D02*
X104740476Y3262620D01*
X104502381Y3929286D02*
X104740476Y3262620D01*
X104740476Y3262620D02*
X104835714Y3024524D01*
X104835714Y3024524D02*
X104883333Y2976905D01*
X104883333Y2976905D02*
X104978571Y2929286D01*
X104121428Y3262620D02*
X104121428Y3929286D01*
X104121428Y3738810D02*
X104073809Y3834048D01*
X104073809Y3834048D02*
X104026190Y3881667D01*
X104026190Y3881667D02*
X103930952Y3929286D01*
X103930952Y3929286D02*
X103835714Y3929286D01*
X103502380Y3262620D02*
X103502380Y3929286D01*
X103502380Y4262620D02*
X103549999Y4215000D01*
X103549999Y4215000D02*
X103502380Y4167381D01*
X103502380Y4167381D02*
X103454761Y4215000D01*
X103454761Y4215000D02*
X103502380Y4262620D01*
X103502380Y4262620D02*
X103502380Y4167381D01*
X102597619Y3929286D02*
X102597619Y3119762D01*
X102597619Y3119762D02*
X102645238Y3024524D01*
X102645238Y3024524D02*
X102692857Y2976905D01*
X102692857Y2976905D02*
X102788095Y2929286D01*
X102788095Y2929286D02*
X102930952Y2929286D01*
X102930952Y2929286D02*
X103026190Y2976905D01*
X102597619Y3310239D02*
X102692857Y3262620D01*
X102692857Y3262620D02*
X102883333Y3262620D01*
X102883333Y3262620D02*
X102978571Y3310239D01*
X102978571Y3310239D02*
X103026190Y3357858D01*
X103026190Y3357858D02*
X103073809Y3453096D01*
X103073809Y3453096D02*
X103073809Y3738810D01*
X103073809Y3738810D02*
X103026190Y3834048D01*
X103026190Y3834048D02*
X102978571Y3881667D01*
X102978571Y3881667D02*
X102883333Y3929286D01*
X102883333Y3929286D02*
X102692857Y3929286D01*
X102692857Y3929286D02*
X102597619Y3881667D01*
X102121428Y3262620D02*
X102121428Y4262620D01*
X101692857Y3262620D02*
X101692857Y3786429D01*
X101692857Y3786429D02*
X101740476Y3881667D01*
X101740476Y3881667D02*
X101835714Y3929286D01*
X101835714Y3929286D02*
X101978571Y3929286D01*
X101978571Y3929286D02*
X102073809Y3881667D01*
X102073809Y3881667D02*
X102121428Y3834048D01*
X101359523Y3929286D02*
X100978571Y3929286D01*
X101216666Y4262620D02*
X101216666Y3405477D01*
X101216666Y3405477D02*
X101169047Y3310239D01*
X101169047Y3310239D02*
X101073809Y3262620D01*
X101073809Y3262620D02*
X100978571Y3262620D01*
X100092856Y4167381D02*
X100045237Y4215000D01*
X100045237Y4215000D02*
X99949999Y4262620D01*
X99949999Y4262620D02*
X99711904Y4262620D01*
X99711904Y4262620D02*
X99616666Y4215000D01*
X99616666Y4215000D02*
X99569047Y4167381D01*
X99569047Y4167381D02*
X99521428Y4072143D01*
X99521428Y4072143D02*
X99521428Y3976905D01*
X99521428Y3976905D02*
X99569047Y3834048D01*
X99569047Y3834048D02*
X100140475Y3262620D01*
X100140475Y3262620D02*
X99521428Y3262620D01*
X98902380Y4262620D02*
X98807142Y4262620D01*
X98807142Y4262620D02*
X98711904Y4215000D01*
X98711904Y4215000D02*
X98664285Y4167381D01*
X98664285Y4167381D02*
X98616666Y4072143D01*
X98616666Y4072143D02*
X98569047Y3881667D01*
X98569047Y3881667D02*
X98569047Y3643572D01*
X98569047Y3643572D02*
X98616666Y3453096D01*
X98616666Y3453096D02*
X98664285Y3357858D01*
X98664285Y3357858D02*
X98711904Y3310239D01*
X98711904Y3310239D02*
X98807142Y3262620D01*
X98807142Y3262620D02*
X98902380Y3262620D01*
X98902380Y3262620D02*
X98997618Y3310239D01*
X98997618Y3310239D02*
X99045237Y3357858D01*
X99045237Y3357858D02*
X99092856Y3453096D01*
X99092856Y3453096D02*
X99140475Y3643572D01*
X99140475Y3643572D02*
X99140475Y3881667D01*
X99140475Y3881667D02*
X99092856Y4072143D01*
X99092856Y4072143D02*
X99045237Y4167381D01*
X99045237Y4167381D02*
X98997618Y4215000D01*
X98997618Y4215000D02*
X98902380Y4262620D01*
X98188094Y4167381D02*
X98140475Y4215000D01*
X98140475Y4215000D02*
X98045237Y4262620D01*
X98045237Y4262620D02*
X97807142Y4262620D01*
X97807142Y4262620D02*
X97711904Y4215000D01*
X97711904Y4215000D02*
X97664285Y4167381D01*
X97664285Y4167381D02*
X97616666Y4072143D01*
X97616666Y4072143D02*
X97616666Y3976905D01*
X97616666Y3976905D02*
X97664285Y3834048D01*
X97664285Y3834048D02*
X98235713Y3262620D01*
X98235713Y3262620D02*
X97616666Y3262620D01*
X97235713Y4167381D02*
X97188094Y4215000D01*
X97188094Y4215000D02*
X97092856Y4262620D01*
X97092856Y4262620D02*
X96854761Y4262620D01*
X96854761Y4262620D02*
X96759523Y4215000D01*
X96759523Y4215000D02*
X96711904Y4167381D01*
X96711904Y4167381D02*
X96664285Y4072143D01*
X96664285Y4072143D02*
X96664285Y3976905D01*
X96664285Y3976905D02*
X96711904Y3834048D01*
X96711904Y3834048D02*
X97283332Y3262620D01*
X97283332Y3262620D02*
X96664285Y3262620D01*
X95207142Y3262620D02*
X95207142Y3786429D01*
X95207142Y3786429D02*
X95254761Y3881667D01*
X95254761Y3881667D02*
X95349999Y3929286D01*
X95349999Y3929286D02*
X95540475Y3929286D01*
X95540475Y3929286D02*
X95635713Y3881667D01*
X95207142Y3310239D02*
X95302380Y3262620D01*
X95302380Y3262620D02*
X95540475Y3262620D01*
X95540475Y3262620D02*
X95635713Y3310239D01*
X95635713Y3310239D02*
X95683332Y3405477D01*
X95683332Y3405477D02*
X95683332Y3500715D01*
X95683332Y3500715D02*
X95635713Y3595953D01*
X95635713Y3595953D02*
X95540475Y3643572D01*
X95540475Y3643572D02*
X95302380Y3643572D01*
X95302380Y3643572D02*
X95207142Y3691191D01*
X94730951Y3262620D02*
X94730951Y4262620D01*
X94635713Y3643572D02*
X94349999Y3262620D01*
X94349999Y3929286D02*
X94730951Y3548334D01*
X93492856Y3929286D02*
X93492856Y3262620D01*
X93921427Y3929286D02*
X93921427Y3405477D01*
X93921427Y3405477D02*
X93873808Y3310239D01*
X93873808Y3310239D02*
X93778570Y3262620D01*
X93778570Y3262620D02*
X93635713Y3262620D01*
X93635713Y3262620D02*
X93540475Y3310239D01*
X93540475Y3310239D02*
X93492856Y3357858D01*
X93016665Y3262620D02*
X93016665Y4262620D01*
X92921427Y3643572D02*
X92635713Y3262620D01*
X92635713Y3929286D02*
X93016665Y3548334D01*
X91826189Y3310239D02*
X91921427Y3262620D01*
X91921427Y3262620D02*
X92111903Y3262620D01*
X92111903Y3262620D02*
X92207141Y3310239D01*
X92207141Y3310239D02*
X92254760Y3405477D01*
X92254760Y3405477D02*
X92254760Y3786429D01*
X92254760Y3786429D02*
X92207141Y3881667D01*
X92207141Y3881667D02*
X92111903Y3929286D01*
X92111903Y3929286D02*
X91921427Y3929286D01*
X91921427Y3929286D02*
X91826189Y3881667D01*
X91826189Y3881667D02*
X91778570Y3786429D01*
X91778570Y3786429D02*
X91778570Y3691191D01*
X91778570Y3691191D02*
X92254760Y3595953D01*
X91349998Y3262620D02*
X91349998Y3929286D01*
X91349998Y3738810D02*
X91302379Y3834048D01*
X91302379Y3834048D02*
X91254760Y3881667D01*
X91254760Y3881667D02*
X91159522Y3929286D01*
X91159522Y3929286D02*
X91064284Y3929286D01*
X109188094Y1642620D02*
X109188094Y2642620D01*
X108759523Y1642620D02*
X108759523Y2166429D01*
X108759523Y2166429D02*
X108807142Y2261667D01*
X108807142Y2261667D02*
X108902380Y2309286D01*
X108902380Y2309286D02*
X109045237Y2309286D01*
X109045237Y2309286D02*
X109140475Y2261667D01*
X109140475Y2261667D02*
X109188094Y2214048D01*
X108426189Y2309286D02*
X108045237Y2309286D01*
X108283332Y2642620D02*
X108283332Y1785477D01*
X108283332Y1785477D02*
X108235713Y1690239D01*
X108235713Y1690239D02*
X108140475Y1642620D01*
X108140475Y1642620D02*
X108045237Y1642620D01*
X107854760Y2309286D02*
X107473808Y2309286D01*
X107711903Y2642620D02*
X107711903Y1785477D01*
X107711903Y1785477D02*
X107664284Y1690239D01*
X107664284Y1690239D02*
X107569046Y1642620D01*
X107569046Y1642620D02*
X107473808Y1642620D01*
X107140474Y2309286D02*
X107140474Y1309286D01*
X107140474Y2261667D02*
X107045236Y2309286D01*
X107045236Y2309286D02*
X106854760Y2309286D01*
X106854760Y2309286D02*
X106759522Y2261667D01*
X106759522Y2261667D02*
X106711903Y2214048D01*
X106711903Y2214048D02*
X106664284Y2118810D01*
X106664284Y2118810D02*
X106664284Y1833096D01*
X106664284Y1833096D02*
X106711903Y1737858D01*
X106711903Y1737858D02*
X106759522Y1690239D01*
X106759522Y1690239D02*
X106854760Y1642620D01*
X106854760Y1642620D02*
X107045236Y1642620D01*
X107045236Y1642620D02*
X107140474Y1690239D01*
X106283331Y1690239D02*
X106188093Y1642620D01*
X106188093Y1642620D02*
X105997617Y1642620D01*
X105997617Y1642620D02*
X105902379Y1690239D01*
X105902379Y1690239D02*
X105854760Y1785477D01*
X105854760Y1785477D02*
X105854760Y1833096D01*
X105854760Y1833096D02*
X105902379Y1928334D01*
X105902379Y1928334D02*
X105997617Y1975953D01*
X105997617Y1975953D02*
X106140474Y1975953D01*
X106140474Y1975953D02*
X106235712Y2023572D01*
X106235712Y2023572D02*
X106283331Y2118810D01*
X106283331Y2118810D02*
X106283331Y2166429D01*
X106283331Y2166429D02*
X106235712Y2261667D01*
X106235712Y2261667D02*
X106140474Y2309286D01*
X106140474Y2309286D02*
X105997617Y2309286D01*
X105997617Y2309286D02*
X105902379Y2261667D01*
X105426188Y1737858D02*
X105378569Y1690239D01*
X105378569Y1690239D02*
X105426188Y1642620D01*
X105426188Y1642620D02*
X105473807Y1690239D01*
X105473807Y1690239D02*
X105426188Y1737858D01*
X105426188Y1737858D02*
X105426188Y1642620D01*
X105426188Y2261667D02*
X105378569Y2214048D01*
X105378569Y2214048D02*
X105426188Y2166429D01*
X105426188Y2166429D02*
X105473807Y2214048D01*
X105473807Y2214048D02*
X105426188Y2261667D01*
X105426188Y2261667D02*
X105426188Y2166429D01*
X104235713Y2690239D02*
X105092855Y1404524D01*
X103188094Y2690239D02*
X104045236Y1404524D01*
X102426189Y2309286D02*
X102426189Y1499762D01*
X102426189Y1499762D02*
X102473808Y1404524D01*
X102473808Y1404524D02*
X102521427Y1356905D01*
X102521427Y1356905D02*
X102616665Y1309286D01*
X102616665Y1309286D02*
X102759522Y1309286D01*
X102759522Y1309286D02*
X102854760Y1356905D01*
X102426189Y1690239D02*
X102521427Y1642620D01*
X102521427Y1642620D02*
X102711903Y1642620D01*
X102711903Y1642620D02*
X102807141Y1690239D01*
X102807141Y1690239D02*
X102854760Y1737858D01*
X102854760Y1737858D02*
X102902379Y1833096D01*
X102902379Y1833096D02*
X102902379Y2118810D01*
X102902379Y2118810D02*
X102854760Y2214048D01*
X102854760Y2214048D02*
X102807141Y2261667D01*
X102807141Y2261667D02*
X102711903Y2309286D01*
X102711903Y2309286D02*
X102521427Y2309286D01*
X102521427Y2309286D02*
X102426189Y2261667D01*
X101949998Y1642620D02*
X101949998Y2309286D01*
X101949998Y2642620D02*
X101997617Y2595000D01*
X101997617Y2595000D02*
X101949998Y2547381D01*
X101949998Y2547381D02*
X101902379Y2595000D01*
X101902379Y2595000D02*
X101949998Y2642620D01*
X101949998Y2642620D02*
X101949998Y2547381D01*
X101616665Y2309286D02*
X101235713Y2309286D01*
X101473808Y2642620D02*
X101473808Y1785477D01*
X101473808Y1785477D02*
X101426189Y1690239D01*
X101426189Y1690239D02*
X101330951Y1642620D01*
X101330951Y1642620D02*
X101235713Y1642620D01*
X100902379Y1642620D02*
X100902379Y2642620D01*
X100473808Y1642620D02*
X100473808Y2166429D01*
X100473808Y2166429D02*
X100521427Y2261667D01*
X100521427Y2261667D02*
X100616665Y2309286D01*
X100616665Y2309286D02*
X100759522Y2309286D01*
X100759522Y2309286D02*
X100854760Y2261667D01*
X100854760Y2261667D02*
X100902379Y2214048D01*
X99569046Y2309286D02*
X99569046Y1642620D01*
X99997617Y2309286D02*
X99997617Y1785477D01*
X99997617Y1785477D02*
X99949998Y1690239D01*
X99949998Y1690239D02*
X99854760Y1642620D01*
X99854760Y1642620D02*
X99711903Y1642620D01*
X99711903Y1642620D02*
X99616665Y1690239D01*
X99616665Y1690239D02*
X99569046Y1737858D01*
X99092855Y1642620D02*
X99092855Y2642620D01*
X99092855Y2261667D02*
X98997617Y2309286D01*
X98997617Y2309286D02*
X98807141Y2309286D01*
X98807141Y2309286D02*
X98711903Y2261667D01*
X98711903Y2261667D02*
X98664284Y2214048D01*
X98664284Y2214048D02*
X98616665Y2118810D01*
X98616665Y2118810D02*
X98616665Y1833096D01*
X98616665Y1833096D02*
X98664284Y1737858D01*
X98664284Y1737858D02*
X98711903Y1690239D01*
X98711903Y1690239D02*
X98807141Y1642620D01*
X98807141Y1642620D02*
X98997617Y1642620D01*
X98997617Y1642620D02*
X99092855Y1690239D01*
X98188093Y1737858D02*
X98140474Y1690239D01*
X98140474Y1690239D02*
X98188093Y1642620D01*
X98188093Y1642620D02*
X98235712Y1690239D01*
X98235712Y1690239D02*
X98188093Y1737858D01*
X98188093Y1737858D02*
X98188093Y1642620D01*
X97283332Y1690239D02*
X97378570Y1642620D01*
X97378570Y1642620D02*
X97569046Y1642620D01*
X97569046Y1642620D02*
X97664284Y1690239D01*
X97664284Y1690239D02*
X97711903Y1737858D01*
X97711903Y1737858D02*
X97759522Y1833096D01*
X97759522Y1833096D02*
X97759522Y2118810D01*
X97759522Y2118810D02*
X97711903Y2214048D01*
X97711903Y2214048D02*
X97664284Y2261667D01*
X97664284Y2261667D02*
X97569046Y2309286D01*
X97569046Y2309286D02*
X97378570Y2309286D01*
X97378570Y2309286D02*
X97283332Y2261667D01*
X96711903Y1642620D02*
X96807141Y1690239D01*
X96807141Y1690239D02*
X96854760Y1737858D01*
X96854760Y1737858D02*
X96902379Y1833096D01*
X96902379Y1833096D02*
X96902379Y2118810D01*
X96902379Y2118810D02*
X96854760Y2214048D01*
X96854760Y2214048D02*
X96807141Y2261667D01*
X96807141Y2261667D02*
X96711903Y2309286D01*
X96711903Y2309286D02*
X96569046Y2309286D01*
X96569046Y2309286D02*
X96473808Y2261667D01*
X96473808Y2261667D02*
X96426189Y2214048D01*
X96426189Y2214048D02*
X96378570Y2118810D01*
X96378570Y2118810D02*
X96378570Y1833096D01*
X96378570Y1833096D02*
X96426189Y1737858D01*
X96426189Y1737858D02*
X96473808Y1690239D01*
X96473808Y1690239D02*
X96569046Y1642620D01*
X96569046Y1642620D02*
X96711903Y1642620D01*
X95949998Y1642620D02*
X95949998Y2309286D01*
X95949998Y2214048D02*
X95902379Y2261667D01*
X95902379Y2261667D02*
X95807141Y2309286D01*
X95807141Y2309286D02*
X95664284Y2309286D01*
X95664284Y2309286D02*
X95569046Y2261667D01*
X95569046Y2261667D02*
X95521427Y2166429D01*
X95521427Y2166429D02*
X95521427Y1642620D01*
X95521427Y2166429D02*
X95473808Y2261667D01*
X95473808Y2261667D02*
X95378570Y2309286D01*
X95378570Y2309286D02*
X95235713Y2309286D01*
X95235713Y2309286D02*
X95140474Y2261667D01*
X95140474Y2261667D02*
X95092855Y2166429D01*
X95092855Y2166429D02*
X95092855Y1642620D01*
X93902380Y2690239D02*
X94759522Y1404524D01*
X93569046Y2309286D02*
X93569046Y1309286D01*
X93569046Y2261667D02*
X93473808Y2309286D01*
X93473808Y2309286D02*
X93283332Y2309286D01*
X93283332Y2309286D02*
X93188094Y2261667D01*
X93188094Y2261667D02*
X93140475Y2214048D01*
X93140475Y2214048D02*
X93092856Y2118810D01*
X93092856Y2118810D02*
X93092856Y1833096D01*
X93092856Y1833096D02*
X93140475Y1737858D01*
X93140475Y1737858D02*
X93188094Y1690239D01*
X93188094Y1690239D02*
X93283332Y1642620D01*
X93283332Y1642620D02*
X93473808Y1642620D01*
X93473808Y1642620D02*
X93569046Y1690239D01*
X92664284Y1642620D02*
X92664284Y2309286D01*
X92664284Y2642620D02*
X92711903Y2595000D01*
X92711903Y2595000D02*
X92664284Y2547381D01*
X92664284Y2547381D02*
X92616665Y2595000D01*
X92616665Y2595000D02*
X92664284Y2642620D01*
X92664284Y2642620D02*
X92664284Y2547381D01*
X92235713Y1690239D02*
X92140475Y1642620D01*
X92140475Y1642620D02*
X91949999Y1642620D01*
X91949999Y1642620D02*
X91854761Y1690239D01*
X91854761Y1690239D02*
X91807142Y1785477D01*
X91807142Y1785477D02*
X91807142Y1833096D01*
X91807142Y1833096D02*
X91854761Y1928334D01*
X91854761Y1928334D02*
X91949999Y1975953D01*
X91949999Y1975953D02*
X92092856Y1975953D01*
X92092856Y1975953D02*
X92188094Y2023572D01*
X92188094Y2023572D02*
X92235713Y2118810D01*
X92235713Y2118810D02*
X92235713Y2166429D01*
X92235713Y2166429D02*
X92188094Y2261667D01*
X92188094Y2261667D02*
X92092856Y2309286D01*
X92092856Y2309286D02*
X91949999Y2309286D01*
X91949999Y2309286D02*
X91854761Y2261667D01*
X90949999Y1690239D02*
X91045237Y1642620D01*
X91045237Y1642620D02*
X91235713Y1642620D01*
X91235713Y1642620D02*
X91330951Y1690239D01*
X91330951Y1690239D02*
X91378570Y1737858D01*
X91378570Y1737858D02*
X91426189Y1833096D01*
X91426189Y1833096D02*
X91426189Y2118810D01*
X91426189Y2118810D02*
X91378570Y2214048D01*
X91378570Y2214048D02*
X91330951Y2261667D01*
X91330951Y2261667D02*
X91235713Y2309286D01*
X91235713Y2309286D02*
X91045237Y2309286D01*
X91045237Y2309286D02*
X90949999Y2261667D01*
X90569046Y1690239D02*
X90473808Y1642620D01*
X90473808Y1642620D02*
X90283332Y1642620D01*
X90283332Y1642620D02*
X90188094Y1690239D01*
X90188094Y1690239D02*
X90140475Y1785477D01*
X90140475Y1785477D02*
X90140475Y1833096D01*
X90140475Y1833096D02*
X90188094Y1928334D01*
X90188094Y1928334D02*
X90283332Y1975953D01*
X90283332Y1975953D02*
X90426189Y1975953D01*
X90426189Y1975953D02*
X90521427Y2023572D01*
X90521427Y2023572D02*
X90569046Y2118810D01*
X90569046Y2118810D02*
X90569046Y2166429D01*
X90569046Y2166429D02*
X90521427Y2261667D01*
X90521427Y2261667D02*
X90426189Y2309286D01*
X90426189Y2309286D02*
X90283332Y2309286D01*
X90283332Y2309286D02*
X90188094Y2261667D01*
X89711903Y1642620D02*
X89711903Y2309286D01*
X89711903Y2642620D02*
X89759522Y2595000D01*
X89759522Y2595000D02*
X89711903Y2547381D01*
X89711903Y2547381D02*
X89664284Y2595000D01*
X89664284Y2595000D02*
X89711903Y2642620D01*
X89711903Y2642620D02*
X89711903Y2547381D01*
D13*
%TO.C,IC1*%
X124346453Y-3339117D02*
X123076453Y-3339117D01*
X124225501Y-4669594D02*
X124285977Y-4609118D01*
X124285977Y-4609118D02*
X124346453Y-4427689D01*
X124346453Y-4427689D02*
X124346453Y-4306737D01*
X124346453Y-4306737D02*
X124285977Y-4125308D01*
X124285977Y-4125308D02*
X124165025Y-4004356D01*
X124165025Y-4004356D02*
X124044072Y-3943879D01*
X124044072Y-3943879D02*
X123802168Y-3883403D01*
X123802168Y-3883403D02*
X123620739Y-3883403D01*
X123620739Y-3883403D02*
X123378834Y-3943879D01*
X123378834Y-3943879D02*
X123257882Y-4004356D01*
X123257882Y-4004356D02*
X123136930Y-4125308D01*
X123136930Y-4125308D02*
X123076453Y-4306737D01*
X123076453Y-4306737D02*
X123076453Y-4427689D01*
X123076453Y-4427689D02*
X123136930Y-4609118D01*
X123136930Y-4609118D02*
X123197406Y-4669594D01*
X124346453Y-5879118D02*
X124346453Y-5153403D01*
X124346453Y-5516260D02*
X123076453Y-5516260D01*
X123076453Y-5516260D02*
X123257882Y-5395308D01*
X123257882Y-5395308D02*
X123378834Y-5274356D01*
X123378834Y-5274356D02*
X123439310Y-5153403D01*
%TO.C,IC3*%
X100676453Y-3659117D02*
X99406453Y-3659117D01*
X100555501Y-4989594D02*
X100615977Y-4929118D01*
X100615977Y-4929118D02*
X100676453Y-4747689D01*
X100676453Y-4747689D02*
X100676453Y-4626737D01*
X100676453Y-4626737D02*
X100615977Y-4445308D01*
X100615977Y-4445308D02*
X100495025Y-4324356D01*
X100495025Y-4324356D02*
X100374072Y-4263879D01*
X100374072Y-4263879D02*
X100132168Y-4203403D01*
X100132168Y-4203403D02*
X99950739Y-4203403D01*
X99950739Y-4203403D02*
X99708834Y-4263879D01*
X99708834Y-4263879D02*
X99587882Y-4324356D01*
X99587882Y-4324356D02*
X99466930Y-4445308D01*
X99466930Y-4445308D02*
X99406453Y-4626737D01*
X99406453Y-4626737D02*
X99406453Y-4747689D01*
X99406453Y-4747689D02*
X99466930Y-4929118D01*
X99466930Y-4929118D02*
X99527406Y-4989594D01*
X99406453Y-5412927D02*
X99406453Y-6199118D01*
X99406453Y-6199118D02*
X99890263Y-5775784D01*
X99890263Y-5775784D02*
X99890263Y-5957213D01*
X99890263Y-5957213D02*
X99950739Y-6078165D01*
X99950739Y-6078165D02*
X100011215Y-6138641D01*
X100011215Y-6138641D02*
X100132168Y-6199118D01*
X100132168Y-6199118D02*
X100434549Y-6199118D01*
X100434549Y-6199118D02*
X100555501Y-6138641D01*
X100555501Y-6138641D02*
X100615977Y-6078165D01*
X100615977Y-6078165D02*
X100676453Y-5957213D01*
X100676453Y-5957213D02*
X100676453Y-5594356D01*
X100676453Y-5594356D02*
X100615977Y-5473403D01*
X100615977Y-5473403D02*
X100555501Y-5412927D01*
%TO.C,IC4*%
X87636453Y-3489117D02*
X86366453Y-3489117D01*
X87515501Y-4819594D02*
X87575977Y-4759118D01*
X87575977Y-4759118D02*
X87636453Y-4577689D01*
X87636453Y-4577689D02*
X87636453Y-4456737D01*
X87636453Y-4456737D02*
X87575977Y-4275308D01*
X87575977Y-4275308D02*
X87455025Y-4154356D01*
X87455025Y-4154356D02*
X87334072Y-4093879D01*
X87334072Y-4093879D02*
X87092168Y-4033403D01*
X87092168Y-4033403D02*
X86910739Y-4033403D01*
X86910739Y-4033403D02*
X86668834Y-4093879D01*
X86668834Y-4093879D02*
X86547882Y-4154356D01*
X86547882Y-4154356D02*
X86426930Y-4275308D01*
X86426930Y-4275308D02*
X86366453Y-4456737D01*
X86366453Y-4456737D02*
X86366453Y-4577689D01*
X86366453Y-4577689D02*
X86426930Y-4759118D01*
X86426930Y-4759118D02*
X86487406Y-4819594D01*
X86789787Y-5908165D02*
X87636453Y-5908165D01*
X86305977Y-5605784D02*
X87213120Y-5303403D01*
X87213120Y-5303403D02*
X87213120Y-6089594D01*
%TO.C,IC2*%
X137456453Y-3789117D02*
X136186453Y-3789117D01*
X137335501Y-5119594D02*
X137395977Y-5059118D01*
X137395977Y-5059118D02*
X137456453Y-4877689D01*
X137456453Y-4877689D02*
X137456453Y-4756737D01*
X137456453Y-4756737D02*
X137395977Y-4575308D01*
X137395977Y-4575308D02*
X137275025Y-4454356D01*
X137275025Y-4454356D02*
X137154072Y-4393879D01*
X137154072Y-4393879D02*
X136912168Y-4333403D01*
X136912168Y-4333403D02*
X136730739Y-4333403D01*
X136730739Y-4333403D02*
X136488834Y-4393879D01*
X136488834Y-4393879D02*
X136367882Y-4454356D01*
X136367882Y-4454356D02*
X136246930Y-4575308D01*
X136246930Y-4575308D02*
X136186453Y-4756737D01*
X136186453Y-4756737D02*
X136186453Y-4877689D01*
X136186453Y-4877689D02*
X136246930Y-5059118D01*
X136246930Y-5059118D02*
X136307406Y-5119594D01*
X136307406Y-5603403D02*
X136246930Y-5663879D01*
X136246930Y-5663879D02*
X136186453Y-5784832D01*
X136186453Y-5784832D02*
X136186453Y-6087213D01*
X136186453Y-6087213D02*
X136246930Y-6208165D01*
X136246930Y-6208165D02*
X136307406Y-6268641D01*
X136307406Y-6268641D02*
X136428358Y-6329118D01*
X136428358Y-6329118D02*
X136549310Y-6329118D01*
X136549310Y-6329118D02*
X136730739Y-6268641D01*
X136730739Y-6268641D02*
X137456453Y-5542927D01*
X137456453Y-5542927D02*
X137456453Y-6329118D01*
D11*
%TO.C,J2*%
X144053333Y-13247380D02*
X144053333Y-13961666D01*
X144053333Y-13961666D02*
X144100952Y-14104523D01*
X144100952Y-14104523D02*
X144196190Y-14199761D01*
X144196190Y-14199761D02*
X144339047Y-14247380D01*
X144339047Y-14247380D02*
X144434285Y-14247380D01*
X143624761Y-13342619D02*
X143577142Y-13295000D01*
X143577142Y-13295000D02*
X143481904Y-13247380D01*
X143481904Y-13247380D02*
X143243809Y-13247380D01*
X143243809Y-13247380D02*
X143148571Y-13295000D01*
X143148571Y-13295000D02*
X143100952Y-13342619D01*
X143100952Y-13342619D02*
X143053333Y-13437857D01*
X143053333Y-13437857D02*
X143053333Y-13533095D01*
X143053333Y-13533095D02*
X143100952Y-13675952D01*
X143100952Y-13675952D02*
X143672380Y-14247380D01*
X143672380Y-14247380D02*
X143053333Y-14247380D01*
D14*
%TO.C,IC1*%
X112225880Y-8313880D02*
X125025880Y-8313880D01*
X125015880Y-10613880D02*
X125015880Y-8663880D01*
X125025880Y-8313880D02*
X125025880Y-1513880D01*
X125025880Y-1513880D02*
X112225880Y-1513880D01*
X112225880Y-1513880D02*
X112225880Y-8313880D01*
%TO.C,IC3*%
X99281880Y786120D02*
X99281880Y-1163880D01*
X99271880Y-1513880D02*
X99271880Y-8313880D01*
X99271880Y-8313880D02*
X112071880Y-8313880D01*
X112071880Y-1513880D02*
X99271880Y-1513880D01*
X112071880Y-8313880D02*
X112071880Y-1513880D01*
%TO.C,X2*%
G36*
X91664967Y-6710733D02*
G01*
X91461767Y-6710733D01*
X91461767Y-7557399D01*
X91037842Y-7557399D01*
X91042371Y-7138300D01*
X91046900Y-6719199D01*
X91254333Y-6714445D01*
X91461767Y-6709690D01*
X91461767Y-6524466D01*
X91664967Y-6524466D01*
X91664967Y-6710733D01*
G37*
D15*
X91664967Y-6710733D02*
X91461767Y-6710733D01*
X91461767Y-7557399D01*
X91037842Y-7557399D01*
X91042371Y-7138300D01*
X91046900Y-6719199D01*
X91254333Y-6714445D01*
X91461767Y-6709690D01*
X91461767Y-6524466D01*
X91664967Y-6524466D01*
X91664967Y-6710733D01*
G36*
X90428833Y-7134066D02*
G01*
X90225633Y-7134066D01*
X90225633Y-6930866D01*
X90428833Y-6930866D01*
X90428833Y-7134066D01*
G37*
X90428833Y-7134066D02*
X90225633Y-7134066D01*
X90225633Y-6930866D01*
X90428833Y-6930866D01*
X90428833Y-7134066D01*
G36*
X96406300Y-2392733D02*
G01*
X96203100Y-2392733D01*
X96203100Y-2003266D01*
X96406300Y-2003266D01*
X96406300Y-2392733D01*
G37*
X96406300Y-2392733D02*
X96203100Y-2392733D01*
X96203100Y-2003266D01*
X96406300Y-2003266D01*
X96406300Y-2392733D01*
G36*
X91664967Y-2392733D02*
G01*
X91461767Y-2392733D01*
X91461767Y-2003266D01*
X91664967Y-2003266D01*
X91664967Y-2392733D01*
G37*
X91664967Y-2392733D02*
X91461767Y-2392733D01*
X91461767Y-2003266D01*
X91664967Y-2003266D01*
X91664967Y-2392733D01*
G36*
X90826767Y-7565866D02*
G01*
X90831808Y-7671700D01*
X90836849Y-7777533D01*
X91038433Y-7777533D01*
X91038433Y-7963799D01*
X90835233Y-7963799D01*
X90835233Y-7777533D01*
X90428833Y-7777533D01*
X90428833Y-7963799D01*
X90225633Y-7963799D01*
X90225633Y-7556618D01*
X90826767Y-7565866D01*
G37*
X90826767Y-7565866D02*
X90831808Y-7671700D01*
X90836849Y-7777533D01*
X91038433Y-7777533D01*
X91038433Y-7963799D01*
X90835233Y-7963799D01*
X90835233Y-7777533D01*
X90428833Y-7777533D01*
X90428833Y-7963799D01*
X90225633Y-7963799D01*
X90225633Y-7556618D01*
X90826767Y-7565866D01*
G36*
X96795766Y-6118066D02*
G01*
X96592566Y-6118066D01*
X96592566Y-5897933D01*
X96795766Y-5897933D01*
X96795766Y-6118066D01*
G37*
X96795766Y-6118066D02*
X96592566Y-6118066D01*
X96592566Y-5897933D01*
X96795766Y-5897933D01*
X96795766Y-6118066D01*
G36*
X96406300Y-5508466D02*
G01*
X96203100Y-5508466D01*
X96203100Y-4052200D01*
X96406300Y-4052200D01*
X96406300Y-5508466D01*
G37*
X96406300Y-5508466D02*
X96203100Y-5508466D01*
X96203100Y-4052200D01*
X96406300Y-4052200D01*
X96406300Y-5508466D01*
G36*
X96592566Y-5897933D02*
G01*
X96406300Y-5897933D01*
X96406300Y-5508466D01*
X96592566Y-5508466D01*
X96592566Y-5897933D01*
G37*
X96592566Y-5897933D02*
X96406300Y-5897933D01*
X96406300Y-5508466D01*
X96592566Y-5508466D01*
X96592566Y-5897933D01*
G36*
X89404366Y-6922399D02*
G01*
X89510200Y-6927441D01*
X89616033Y-6932482D01*
X89616033Y-7132296D01*
X89704933Y-7137415D01*
X89793833Y-7142533D01*
X89798368Y-7553166D01*
X89802902Y-7963799D01*
X90225633Y-7963799D01*
X90225633Y-8166999D01*
X89802300Y-8166999D01*
X89802300Y-7963799D01*
X89616033Y-7963799D01*
X89616033Y-7134066D01*
X89392892Y-7134066D01*
X89404366Y-6930804D01*
X89192700Y-6930866D01*
X89192700Y-6710733D01*
X89394284Y-6710733D01*
X89404366Y-6922399D01*
G37*
X89404366Y-6922399D02*
X89510200Y-6927441D01*
X89616033Y-6932482D01*
X89616033Y-7132296D01*
X89704933Y-7137415D01*
X89793833Y-7142533D01*
X89798368Y-7553166D01*
X89802902Y-7963799D01*
X90225633Y-7963799D01*
X90225633Y-8166999D01*
X89802300Y-8166999D01*
X89802300Y-7963799D01*
X89616033Y-7963799D01*
X89616033Y-7134066D01*
X89392892Y-7134066D01*
X89404366Y-6930804D01*
X89192700Y-6930866D01*
X89192700Y-6710733D01*
X89394284Y-6710733D01*
X89404366Y-6922399D01*
G36*
X95776341Y-1694233D02*
G01*
X95781383Y-1800066D01*
X96203100Y-1800066D01*
X96203100Y-2003266D01*
X95779766Y-2003266D01*
X95779766Y-1800066D01*
X95170166Y-1800066D01*
X95170166Y-2003266D01*
X94746833Y-2003266D01*
X94746833Y-1800066D01*
X95168550Y-1800066D01*
X95173592Y-1694233D01*
X95178633Y-1588400D01*
X95771300Y-1588400D01*
X95776341Y-1694233D01*
G37*
X95776341Y-1694233D02*
X95781383Y-1800066D01*
X96203100Y-1800066D01*
X96203100Y-2003266D01*
X95779766Y-2003266D01*
X95779766Y-1800066D01*
X95170166Y-1800066D01*
X95170166Y-2003266D01*
X94746833Y-2003266D01*
X94746833Y-1800066D01*
X95168550Y-1800066D01*
X95173592Y-1694233D01*
X95178633Y-1588400D01*
X95771300Y-1588400D01*
X95776341Y-1694233D01*
G36*
X95356433Y-2391117D02*
G01*
X95462266Y-2396158D01*
X95568100Y-2401199D01*
X95572736Y-2704751D01*
X95573211Y-2738439D01*
X95573909Y-2845782D01*
X95572718Y-2924050D01*
X95569437Y-2977001D01*
X95563865Y-3008396D01*
X95555803Y-3021992D01*
X95542256Y-3026886D01*
X95500104Y-3033313D01*
X95445333Y-3035940D01*
X95356433Y-3036199D01*
X95356433Y-2392733D01*
X95170166Y-2392733D01*
X95170166Y-2003266D01*
X95356433Y-2003266D01*
X95356433Y-2391117D01*
G37*
X95356433Y-2391117D02*
X95462266Y-2396158D01*
X95568100Y-2401199D01*
X95572736Y-2704751D01*
X95573211Y-2738439D01*
X95573909Y-2845782D01*
X95572718Y-2924050D01*
X95569437Y-2977001D01*
X95563865Y-3008396D01*
X95555803Y-3021992D01*
X95542256Y-3026886D01*
X95500104Y-3033313D01*
X95445333Y-3035940D01*
X95356433Y-3036199D01*
X95356433Y-2392733D01*
X95170166Y-2392733D01*
X95170166Y-2003266D01*
X95356433Y-2003266D01*
X95356433Y-2391117D01*
G36*
X96592566Y-4052200D02*
G01*
X96406300Y-4052200D01*
X96406300Y-2392733D01*
X96592566Y-2392733D01*
X96592566Y-4052200D01*
G37*
X96592566Y-4052200D02*
X96406300Y-4052200D01*
X96406300Y-2392733D01*
X96592566Y-2392733D01*
X96592566Y-4052200D01*
G36*
X88769367Y-6524466D02*
G01*
X88566167Y-6524466D01*
X88566167Y-5897933D01*
X88769367Y-5897933D01*
X88769367Y-6524466D01*
G37*
X88769367Y-6524466D02*
X88566167Y-6524466D01*
X88566167Y-5897933D01*
X88769367Y-5897933D01*
X88769367Y-6524466D01*
G36*
X90648966Y-2390963D02*
G01*
X90737867Y-2396081D01*
X90826767Y-2401199D01*
X90835597Y-3848999D01*
X91038433Y-3848999D01*
X91038433Y-4052200D01*
X91461767Y-4052200D01*
X91461767Y-4863957D01*
X91254333Y-4868712D01*
X91046900Y-4873466D01*
X91041858Y-4979299D01*
X91036817Y-5085133D01*
X90649748Y-5085133D01*
X90645124Y-5385699D01*
X90640500Y-5686266D01*
X90534666Y-5691308D01*
X90428833Y-5696349D01*
X90428833Y-5897933D01*
X88769367Y-5897933D01*
X88769367Y-5694733D01*
X90428052Y-5694733D01*
X90437300Y-5093599D01*
X90648966Y-5083517D01*
X90648966Y-2392733D01*
X90428833Y-2392733D01*
X90428833Y-2003266D01*
X90648966Y-2003266D01*
X90648966Y-2390963D01*
G37*
X90648966Y-2390963D02*
X90737867Y-2396081D01*
X90826767Y-2401199D01*
X90835597Y-3848999D01*
X91038433Y-3848999D01*
X91038433Y-4052200D01*
X91461767Y-4052200D01*
X91461767Y-4863957D01*
X91254333Y-4868712D01*
X91046900Y-4873466D01*
X91041858Y-4979299D01*
X91036817Y-5085133D01*
X90649748Y-5085133D01*
X90645124Y-5385699D01*
X90640500Y-5686266D01*
X90534666Y-5691308D01*
X90428833Y-5696349D01*
X90428833Y-5897933D01*
X88769367Y-5897933D01*
X88769367Y-5694733D01*
X90428052Y-5694733D01*
X90437300Y-5093599D01*
X90648966Y-5083517D01*
X90648966Y-2392733D01*
X90428833Y-2392733D01*
X90428833Y-2003266D01*
X90648966Y-2003266D01*
X90648966Y-2390963D01*
G36*
X91664967Y-8166999D02*
G01*
X91038433Y-8166999D01*
X91038433Y-7963799D01*
X91461767Y-7963799D01*
X91461767Y-7557399D01*
X91664967Y-7557399D01*
X91664967Y-8166999D01*
G37*
X91664967Y-8166999D02*
X91038433Y-8166999D01*
X91038433Y-7963799D01*
X91461767Y-7963799D01*
X91461767Y-7557399D01*
X91664967Y-7557399D01*
X91664967Y-8166999D01*
G36*
X89192700Y-6710733D02*
G01*
X88769367Y-6710733D01*
X88769367Y-6524466D01*
X89192700Y-6524466D01*
X89192700Y-6710733D01*
G37*
X89192700Y-6710733D02*
X88769367Y-6710733D01*
X88769367Y-6524466D01*
X89192700Y-6524466D01*
X89192700Y-6710733D01*
G36*
X90428833Y-2003266D02*
G01*
X90225633Y-2003266D01*
X90225633Y-1800066D01*
X90428833Y-1800066D01*
X90428833Y-2003266D01*
G37*
X90428833Y-2003266D02*
X90225633Y-2003266D01*
X90225633Y-1800066D01*
X90428833Y-1800066D01*
X90428833Y-2003266D01*
G36*
X91868166Y-3645799D02*
G01*
X94746833Y-3645799D01*
X94746833Y-3425666D01*
X95170166Y-3425666D01*
X95170166Y-3036199D01*
X95356433Y-3036199D01*
X95356433Y-3425666D01*
X95171783Y-3425666D01*
X95166741Y-3531499D01*
X95161700Y-3637333D01*
X94954267Y-3642087D01*
X94746833Y-3646842D01*
X94746833Y-3849191D01*
X91876633Y-3840533D01*
X91871555Y-3743166D01*
X91866476Y-3645799D01*
X91664967Y-3645799D01*
X91664967Y-2392733D01*
X91868166Y-2392733D01*
X91868166Y-3645799D01*
G37*
X91868166Y-3645799D02*
X94746833Y-3645799D01*
X94746833Y-3425666D01*
X95170166Y-3425666D01*
X95170166Y-3036199D01*
X95356433Y-3036199D01*
X95356433Y-3425666D01*
X95171783Y-3425666D01*
X95166741Y-3531499D01*
X95161700Y-3637333D01*
X94954267Y-3642087D01*
X94746833Y-3646842D01*
X94746833Y-3849191D01*
X91876633Y-3840533D01*
X91871555Y-3743166D01*
X91866476Y-3645799D01*
X91664967Y-3645799D01*
X91664967Y-2392733D01*
X91868166Y-2392733D01*
X91868166Y-3645799D01*
G36*
X92071366Y-6524466D02*
G01*
X91664967Y-6524466D01*
X91664967Y-6118066D01*
X92071366Y-6118066D01*
X92071366Y-6524466D01*
G37*
X92071366Y-6524466D02*
X91664967Y-6524466D01*
X91664967Y-6118066D01*
X92071366Y-6118066D01*
X92071366Y-6524466D01*
G36*
X94750545Y-5292566D02*
G01*
X94755300Y-5499999D01*
X95170166Y-5509509D01*
X95170166Y-5896858D01*
X95369133Y-5901629D01*
X95568100Y-5906399D01*
X95568100Y-6118128D01*
X95779766Y-6118066D01*
X95779766Y-6523424D01*
X95987200Y-6528178D01*
X96194633Y-6532933D01*
X96199723Y-6621013D01*
X96204813Y-6709094D01*
X96301323Y-6714147D01*
X96397833Y-6719199D01*
X96402875Y-6825033D01*
X96407916Y-6930866D01*
X96592566Y-6930866D01*
X96592566Y-7134066D01*
X96795766Y-7134066D01*
X96795766Y-6118066D01*
X97016267Y-6118066D01*
X97011850Y-6833499D01*
X97007433Y-7548933D01*
X96905833Y-7557399D01*
X96804233Y-7565866D01*
X96799171Y-7672520D01*
X96794108Y-7779173D01*
X96697571Y-7774120D01*
X96601033Y-7769066D01*
X96591819Y-7134066D01*
X96406300Y-7134066D01*
X96406300Y-6930866D01*
X96203100Y-6930866D01*
X96203100Y-6710733D01*
X95779766Y-6710733D01*
X95779766Y-6524466D01*
X95577641Y-6524466D01*
X95572871Y-6325500D01*
X95568100Y-6126533D01*
X93819733Y-6122220D01*
X92071366Y-6117908D01*
X92071366Y-5897933D01*
X92901100Y-5897933D01*
X92901100Y-5694733D01*
X93087367Y-5694733D01*
X93087367Y-5508466D01*
X93510700Y-5508466D01*
X93510700Y-5085133D01*
X94745791Y-5085133D01*
X94750545Y-5292566D01*
G37*
X94750545Y-5292566D02*
X94755300Y-5499999D01*
X95170166Y-5509509D01*
X95170166Y-5896858D01*
X95369133Y-5901629D01*
X95568100Y-5906399D01*
X95568100Y-6118128D01*
X95779766Y-6118066D01*
X95779766Y-6523424D01*
X95987200Y-6528178D01*
X96194633Y-6532933D01*
X96199723Y-6621013D01*
X96204813Y-6709094D01*
X96301323Y-6714147D01*
X96397833Y-6719199D01*
X96402875Y-6825033D01*
X96407916Y-6930866D01*
X96592566Y-6930866D01*
X96592566Y-7134066D01*
X96795766Y-7134066D01*
X96795766Y-6118066D01*
X97016267Y-6118066D01*
X97011850Y-6833499D01*
X97007433Y-7548933D01*
X96905833Y-7557399D01*
X96804233Y-7565866D01*
X96799171Y-7672520D01*
X96794108Y-7779173D01*
X96697571Y-7774120D01*
X96601033Y-7769066D01*
X96591819Y-7134066D01*
X96406300Y-7134066D01*
X96406300Y-6930866D01*
X96203100Y-6930866D01*
X96203100Y-6710733D01*
X95779766Y-6710733D01*
X95779766Y-6524466D01*
X95577641Y-6524466D01*
X95572871Y-6325500D01*
X95568100Y-6126533D01*
X93819733Y-6122220D01*
X92071366Y-6117908D01*
X92071366Y-5897933D01*
X92901100Y-5897933D01*
X92901100Y-5694733D01*
X93087367Y-5694733D01*
X93087367Y-5508466D01*
X93510700Y-5508466D01*
X93510700Y-5085133D01*
X94745791Y-5085133D01*
X94750545Y-5292566D01*
G36*
X90741075Y-1583780D02*
G01*
X91029967Y-1588400D01*
X91040049Y-1800066D01*
X91461767Y-1800066D01*
X91461767Y-2003266D01*
X91038433Y-2003266D01*
X91038433Y-1800066D01*
X90428833Y-1800066D01*
X90428833Y-1701288D01*
X90429963Y-1657898D01*
X90434202Y-1612899D01*
X90440508Y-1590836D01*
X90453445Y-1587967D01*
X90495787Y-1585143D01*
X90561696Y-1583413D01*
X90645387Y-1582913D01*
X90741075Y-1583780D01*
G37*
X90741075Y-1583780D02*
X91029967Y-1588400D01*
X91040049Y-1800066D01*
X91461767Y-1800066D01*
X91461767Y-2003266D01*
X91038433Y-2003266D01*
X91038433Y-1800066D01*
X90428833Y-1800066D01*
X90428833Y-1701288D01*
X90429963Y-1657898D01*
X90434202Y-1612899D01*
X90440508Y-1590836D01*
X90453445Y-1587967D01*
X90495787Y-1585143D01*
X90561696Y-1583413D01*
X90645387Y-1582913D01*
X90741075Y-1583780D01*
%TO.C,X4*%
G36*
X128321400Y-5677800D02*
G01*
X128118200Y-5677800D01*
X128118200Y-4221534D01*
X128321400Y-4221534D01*
X128321400Y-5677800D01*
G37*
X128321400Y-5677800D02*
X128118200Y-5677800D01*
X128118200Y-4221534D01*
X128321400Y-4221534D01*
X128321400Y-5677800D01*
G36*
X135958333Y-3832067D02*
G01*
X135755133Y-3832067D01*
X135755133Y-3205534D01*
X135958333Y-3205534D01*
X135958333Y-3832067D01*
G37*
X135958333Y-3832067D02*
X135755133Y-3832067D01*
X135755133Y-3205534D01*
X135958333Y-3205534D01*
X135958333Y-3832067D01*
G36*
X128118200Y-7337267D02*
G01*
X127931934Y-7337267D01*
X127931934Y-5677800D01*
X128118200Y-5677800D01*
X128118200Y-7337267D01*
G37*
X128118200Y-7337267D02*
X127931934Y-7337267D01*
X127931934Y-5677800D01*
X128118200Y-5677800D01*
X128118200Y-7337267D01*
G36*
X133482129Y-2591700D02*
G01*
X133477600Y-3010801D01*
X133270167Y-3015555D01*
X133062733Y-3020310D01*
X133062733Y-3205534D01*
X132859533Y-3205534D01*
X132859533Y-3019267D01*
X133062733Y-3019267D01*
X133062733Y-2172601D01*
X133486658Y-2172601D01*
X133482129Y-2591700D01*
G37*
X133482129Y-2591700D02*
X133477600Y-3010801D01*
X133270167Y-3015555D01*
X133062733Y-3020310D01*
X133062733Y-3205534D01*
X132859533Y-3205534D01*
X132859533Y-3019267D01*
X133062733Y-3019267D01*
X133062733Y-2172601D01*
X133486658Y-2172601D01*
X133482129Y-2591700D01*
G36*
X128744734Y-7929934D02*
G01*
X129354334Y-7929934D01*
X129354334Y-7726734D01*
X129777667Y-7726734D01*
X129777667Y-7929934D01*
X129355950Y-7929934D01*
X129350908Y-8035767D01*
X129345867Y-8141600D01*
X128753200Y-8141600D01*
X128748159Y-8035767D01*
X128743117Y-7929934D01*
X128321400Y-7929934D01*
X128321400Y-7726734D01*
X128744734Y-7726734D01*
X128744734Y-7929934D01*
G37*
X128744734Y-7929934D02*
X129354334Y-7929934D01*
X129354334Y-7726734D01*
X129777667Y-7726734D01*
X129777667Y-7929934D01*
X129355950Y-7929934D01*
X129350908Y-8035767D01*
X129345867Y-8141600D01*
X128753200Y-8141600D01*
X128748159Y-8035767D01*
X128743117Y-7929934D01*
X128321400Y-7929934D01*
X128321400Y-7726734D01*
X128744734Y-7726734D01*
X128744734Y-7929934D01*
G36*
X132859533Y-3611934D02*
G01*
X132453134Y-3611934D01*
X132453134Y-3205534D01*
X132859533Y-3205534D01*
X132859533Y-3611934D01*
G37*
X132859533Y-3611934D02*
X132453134Y-3611934D01*
X132453134Y-3205534D01*
X132859533Y-3205534D01*
X132859533Y-3611934D01*
G36*
X134298867Y-2799134D02*
G01*
X134095667Y-2799134D01*
X134095667Y-2595934D01*
X134298867Y-2595934D01*
X134298867Y-2799134D01*
G37*
X134298867Y-2799134D02*
X134095667Y-2799134D01*
X134095667Y-2595934D01*
X134298867Y-2595934D01*
X134298867Y-2799134D01*
G36*
X134298867Y-7929934D02*
G01*
X134095667Y-7929934D01*
X134095667Y-7726734D01*
X134298867Y-7726734D01*
X134298867Y-7929934D01*
G37*
X134298867Y-7929934D02*
X134095667Y-7929934D01*
X134095667Y-7726734D01*
X134298867Y-7726734D01*
X134298867Y-7929934D01*
G36*
X127826929Y-1955880D02*
G01*
X127923467Y-1960934D01*
X127932681Y-2595934D01*
X128118200Y-2595934D01*
X128118200Y-2799134D01*
X128321400Y-2799134D01*
X128321400Y-3019267D01*
X128744734Y-3019267D01*
X128744734Y-3205534D01*
X128946859Y-3205534D01*
X128951629Y-3404500D01*
X128956400Y-3603467D01*
X130704767Y-3607780D01*
X132453134Y-3612092D01*
X132453134Y-3832067D01*
X131623400Y-3832067D01*
X131623400Y-4035267D01*
X131437133Y-4035267D01*
X131437133Y-4221534D01*
X131013800Y-4221534D01*
X131013800Y-4644867D01*
X129778709Y-4644867D01*
X129773955Y-4437434D01*
X129769200Y-4230001D01*
X129354334Y-4220491D01*
X129354334Y-3833142D01*
X129155367Y-3828371D01*
X128956400Y-3823601D01*
X128956400Y-3611872D01*
X128744734Y-3611934D01*
X128744734Y-3206576D01*
X128537300Y-3201822D01*
X128329867Y-3197067D01*
X128324777Y-3108987D01*
X128319687Y-3020906D01*
X128223177Y-3015853D01*
X128126667Y-3010801D01*
X128121625Y-2904967D01*
X128116584Y-2799134D01*
X127931934Y-2799134D01*
X127931934Y-2595934D01*
X127728734Y-2595934D01*
X127728734Y-3611934D01*
X127508233Y-3611934D01*
X127512650Y-2896501D01*
X127517067Y-2181067D01*
X127618667Y-2172601D01*
X127720267Y-2164134D01*
X127725329Y-2057480D01*
X127730392Y-1950827D01*
X127826929Y-1955880D01*
G37*
X127826929Y-1955880D02*
X127923467Y-1960934D01*
X127932681Y-2595934D01*
X128118200Y-2595934D01*
X128118200Y-2799134D01*
X128321400Y-2799134D01*
X128321400Y-3019267D01*
X128744734Y-3019267D01*
X128744734Y-3205534D01*
X128946859Y-3205534D01*
X128951629Y-3404500D01*
X128956400Y-3603467D01*
X130704767Y-3607780D01*
X132453134Y-3612092D01*
X132453134Y-3832067D01*
X131623400Y-3832067D01*
X131623400Y-4035267D01*
X131437133Y-4035267D01*
X131437133Y-4221534D01*
X131013800Y-4221534D01*
X131013800Y-4644867D01*
X129778709Y-4644867D01*
X129773955Y-4437434D01*
X129769200Y-4230001D01*
X129354334Y-4220491D01*
X129354334Y-3833142D01*
X129155367Y-3828371D01*
X128956400Y-3823601D01*
X128956400Y-3611872D01*
X128744734Y-3611934D01*
X128744734Y-3206576D01*
X128537300Y-3201822D01*
X128329867Y-3197067D01*
X128324777Y-3108987D01*
X128319687Y-3020906D01*
X128223177Y-3015853D01*
X128126667Y-3010801D01*
X128121625Y-2904967D01*
X128116584Y-2799134D01*
X127931934Y-2799134D01*
X127931934Y-2595934D01*
X127728734Y-2595934D01*
X127728734Y-3611934D01*
X127508233Y-3611934D01*
X127512650Y-2896501D01*
X127517067Y-2181067D01*
X127618667Y-2172601D01*
X127720267Y-2164134D01*
X127725329Y-2057480D01*
X127730392Y-1950827D01*
X127826929Y-1955880D01*
G36*
X133062733Y-7726734D02*
G01*
X132859533Y-7726734D01*
X132859533Y-7337267D01*
X133062733Y-7337267D01*
X133062733Y-7726734D01*
G37*
X133062733Y-7726734D02*
X132859533Y-7726734D01*
X132859533Y-7337267D01*
X133062733Y-7337267D01*
X133062733Y-7726734D01*
G36*
X133486067Y-7929934D02*
G01*
X134095667Y-7929934D01*
X134095667Y-8028712D01*
X134094537Y-8072102D01*
X134090298Y-8117101D01*
X134083992Y-8139164D01*
X134071055Y-8142033D01*
X134028713Y-8144857D01*
X133962804Y-8146587D01*
X133879113Y-8147087D01*
X133783425Y-8146220D01*
X133494533Y-8141600D01*
X133484451Y-7929934D01*
X133062733Y-7929934D01*
X133062733Y-7726734D01*
X133486067Y-7726734D01*
X133486067Y-7929934D01*
G37*
X133486067Y-7929934D02*
X134095667Y-7929934D01*
X134095667Y-8028712D01*
X134094537Y-8072102D01*
X134090298Y-8117101D01*
X134083992Y-8139164D01*
X134071055Y-8142033D01*
X134028713Y-8144857D01*
X133962804Y-8146587D01*
X133879113Y-8147087D01*
X133783425Y-8146220D01*
X133494533Y-8141600D01*
X133484451Y-7929934D01*
X133062733Y-7929934D01*
X133062733Y-7726734D01*
X133486067Y-7726734D01*
X133486067Y-7929934D01*
G36*
X135755133Y-4035267D02*
G01*
X134096448Y-4035267D01*
X134087200Y-4636401D01*
X133875534Y-4646483D01*
X133875534Y-7337267D01*
X134095667Y-7337267D01*
X134095667Y-7726734D01*
X133875534Y-7726734D01*
X133875534Y-7339037D01*
X133786633Y-7333919D01*
X133697733Y-7328801D01*
X133688903Y-5881001D01*
X133486067Y-5881001D01*
X133486067Y-5677800D01*
X133062733Y-5677800D01*
X133062733Y-4866043D01*
X133270167Y-4861288D01*
X133477600Y-4856534D01*
X133482642Y-4750701D01*
X133487683Y-4644867D01*
X133874752Y-4644867D01*
X133879376Y-4344301D01*
X133884000Y-4043734D01*
X133989834Y-4038692D01*
X134095667Y-4033651D01*
X134095667Y-3832067D01*
X135755133Y-3832067D01*
X135755133Y-4035267D01*
G37*
X135755133Y-4035267D02*
X134096448Y-4035267D01*
X134087200Y-4636401D01*
X133875534Y-4646483D01*
X133875534Y-7337267D01*
X134095667Y-7337267D01*
X134095667Y-7726734D01*
X133875534Y-7726734D01*
X133875534Y-7339037D01*
X133786633Y-7333919D01*
X133697733Y-7328801D01*
X133688903Y-5881001D01*
X133486067Y-5881001D01*
X133486067Y-5677800D01*
X133062733Y-5677800D01*
X133062733Y-4866043D01*
X133270167Y-4861288D01*
X133477600Y-4856534D01*
X133482642Y-4750701D01*
X133487683Y-4644867D01*
X133874752Y-4644867D01*
X133879376Y-4344301D01*
X133884000Y-4043734D01*
X133989834Y-4038692D01*
X134095667Y-4033651D01*
X134095667Y-3832067D01*
X135755133Y-3832067D01*
X135755133Y-4035267D01*
G36*
X129168067Y-7337267D02*
G01*
X129354334Y-7337267D01*
X129354334Y-7726734D01*
X129168067Y-7726734D01*
X129168067Y-7338883D01*
X129062234Y-7333842D01*
X128956400Y-7328801D01*
X128951764Y-7025249D01*
X128951289Y-6991561D01*
X128950591Y-6884218D01*
X128951782Y-6805950D01*
X128955063Y-6752999D01*
X128960635Y-6721604D01*
X128968697Y-6708008D01*
X128982244Y-6703114D01*
X129024396Y-6696687D01*
X129079167Y-6694060D01*
X129168067Y-6693801D01*
X129168067Y-7337267D01*
G37*
X129168067Y-7337267D02*
X129354334Y-7337267D01*
X129354334Y-7726734D01*
X129168067Y-7726734D01*
X129168067Y-7338883D01*
X129062234Y-7333842D01*
X128956400Y-7328801D01*
X128951764Y-7025249D01*
X128951289Y-6991561D01*
X128950591Y-6884218D01*
X128951782Y-6805950D01*
X128955063Y-6752999D01*
X128960635Y-6721604D01*
X128968697Y-6708008D01*
X128982244Y-6703114D01*
X129024396Y-6696687D01*
X129079167Y-6694060D01*
X129168067Y-6693801D01*
X129168067Y-7337267D01*
G36*
X127931934Y-3832067D02*
G01*
X127728734Y-3832067D01*
X127728734Y-3611934D01*
X127931934Y-3611934D01*
X127931934Y-3832067D01*
G37*
X127931934Y-3832067D02*
X127728734Y-3832067D01*
X127728734Y-3611934D01*
X127931934Y-3611934D01*
X127931934Y-3832067D01*
G36*
X134722200Y-1766201D02*
G01*
X134908467Y-1766201D01*
X134908467Y-2595934D01*
X135131608Y-2595934D01*
X135120134Y-2799196D01*
X135331800Y-2799134D01*
X135331800Y-3019267D01*
X135130216Y-3019267D01*
X135120134Y-2807601D01*
X135014300Y-2802559D01*
X134908467Y-2797518D01*
X134908467Y-2597704D01*
X134819567Y-2592585D01*
X134730667Y-2587467D01*
X134726132Y-2176834D01*
X134721598Y-1766201D01*
X134298867Y-1766201D01*
X134298867Y-1563001D01*
X134722200Y-1563001D01*
X134722200Y-1766201D01*
G37*
X134722200Y-1766201D02*
X134908467Y-1766201D01*
X134908467Y-2595934D01*
X135131608Y-2595934D01*
X135120134Y-2799196D01*
X135331800Y-2799134D01*
X135331800Y-3019267D01*
X135130216Y-3019267D01*
X135120134Y-2807601D01*
X135014300Y-2802559D01*
X134908467Y-2797518D01*
X134908467Y-2597704D01*
X134819567Y-2592585D01*
X134730667Y-2587467D01*
X134726132Y-2176834D01*
X134721598Y-1766201D01*
X134298867Y-1766201D01*
X134298867Y-1563001D01*
X134722200Y-1563001D01*
X134722200Y-1766201D01*
G36*
X133689267Y-1952467D02*
G01*
X134095667Y-1952467D01*
X134095667Y-1766201D01*
X134298867Y-1766201D01*
X134298867Y-2173382D01*
X133697733Y-2164134D01*
X133692692Y-2058300D01*
X133687651Y-1952467D01*
X133486067Y-1952467D01*
X133486067Y-1766201D01*
X133689267Y-1766201D01*
X133689267Y-1952467D01*
G37*
X133689267Y-1952467D02*
X134095667Y-1952467D01*
X134095667Y-1766201D01*
X134298867Y-1766201D01*
X134298867Y-2173382D01*
X133697733Y-2164134D01*
X133692692Y-2058300D01*
X133687651Y-1952467D01*
X133486067Y-1952467D01*
X133486067Y-1766201D01*
X133689267Y-1766201D01*
X133689267Y-1952467D01*
G36*
X133486067Y-1766201D02*
G01*
X133062733Y-1766201D01*
X133062733Y-2172601D01*
X132859533Y-2172601D01*
X132859533Y-1563001D01*
X133486067Y-1563001D01*
X133486067Y-1766201D01*
G37*
X133486067Y-1766201D02*
X133062733Y-1766201D01*
X133062733Y-2172601D01*
X132859533Y-2172601D01*
X132859533Y-1563001D01*
X133486067Y-1563001D01*
X133486067Y-1766201D01*
G36*
X128321400Y-7726734D02*
G01*
X128118200Y-7726734D01*
X128118200Y-7337267D01*
X128321400Y-7337267D01*
X128321400Y-7726734D01*
G37*
X128321400Y-7726734D02*
X128118200Y-7726734D01*
X128118200Y-7337267D01*
X128321400Y-7337267D01*
X128321400Y-7726734D01*
G36*
X128118200Y-4221534D02*
G01*
X127931934Y-4221534D01*
X127931934Y-3832067D01*
X128118200Y-3832067D01*
X128118200Y-4221534D01*
G37*
X128118200Y-4221534D02*
X127931934Y-4221534D01*
X127931934Y-3832067D01*
X128118200Y-3832067D01*
X128118200Y-4221534D01*
G36*
X135755133Y-3205534D02*
G01*
X135331800Y-3205534D01*
X135331800Y-3019267D01*
X135755133Y-3019267D01*
X135755133Y-3205534D01*
G37*
X135755133Y-3205534D02*
X135331800Y-3205534D01*
X135331800Y-3019267D01*
X135755133Y-3019267D01*
X135755133Y-3205534D01*
G36*
X132647867Y-5889467D02*
G01*
X132652945Y-5986834D01*
X132658024Y-6084201D01*
X132859533Y-6084201D01*
X132859533Y-7337267D01*
X132656334Y-7337267D01*
X132656334Y-6084201D01*
X129777667Y-6084201D01*
X129777667Y-6304334D01*
X129354334Y-6304334D01*
X129354334Y-6693801D01*
X129168067Y-6693801D01*
X129168067Y-6304334D01*
X129352717Y-6304334D01*
X129357759Y-6198501D01*
X129362800Y-6092667D01*
X129570233Y-6087913D01*
X129777667Y-6083158D01*
X129777667Y-5880809D01*
X132647867Y-5889467D01*
G37*
X132647867Y-5889467D02*
X132652945Y-5986834D01*
X132658024Y-6084201D01*
X132859533Y-6084201D01*
X132859533Y-7337267D01*
X132656334Y-7337267D01*
X132656334Y-6084201D01*
X129777667Y-6084201D01*
X129777667Y-6304334D01*
X129354334Y-6304334D01*
X129354334Y-6693801D01*
X129168067Y-6693801D01*
X129168067Y-6304334D01*
X129352717Y-6304334D01*
X129357759Y-6198501D01*
X129362800Y-6092667D01*
X129570233Y-6087913D01*
X129777667Y-6083158D01*
X129777667Y-5880809D01*
X132647867Y-5889467D01*
%TO.C,X5*%
G36*
X120963867Y-7929934D02*
G01*
X120760667Y-7929934D01*
X120760667Y-7726734D01*
X120963867Y-7726734D01*
X120963867Y-7929934D01*
G37*
X120963867Y-7929934D02*
X120760667Y-7929934D01*
X120760667Y-7726734D01*
X120963867Y-7726734D01*
X120963867Y-7929934D01*
G36*
X120147129Y-2591700D02*
G01*
X120142600Y-3010801D01*
X119935167Y-3015555D01*
X119727733Y-3020310D01*
X119727733Y-3205534D01*
X119524533Y-3205534D01*
X119524533Y-3019267D01*
X119727733Y-3019267D01*
X119727733Y-2172601D01*
X120151658Y-2172601D01*
X120147129Y-2591700D01*
G37*
X120147129Y-2591700D02*
X120142600Y-3010801D01*
X119935167Y-3015555D01*
X119727733Y-3020310D01*
X119727733Y-3205534D01*
X119524533Y-3205534D01*
X119524533Y-3019267D01*
X119727733Y-3019267D01*
X119727733Y-2172601D01*
X120151658Y-2172601D01*
X120147129Y-2591700D01*
G36*
X122420133Y-3205534D02*
G01*
X121996800Y-3205534D01*
X121996800Y-3019267D01*
X122420133Y-3019267D01*
X122420133Y-3205534D01*
G37*
X122420133Y-3205534D02*
X121996800Y-3205534D01*
X121996800Y-3019267D01*
X122420133Y-3019267D01*
X122420133Y-3205534D01*
G36*
X114986400Y-7726734D02*
G01*
X114783200Y-7726734D01*
X114783200Y-7337267D01*
X114986400Y-7337267D01*
X114986400Y-7726734D01*
G37*
X114986400Y-7726734D02*
X114783200Y-7726734D01*
X114783200Y-7337267D01*
X114986400Y-7337267D01*
X114986400Y-7726734D01*
G36*
X120151067Y-7929934D02*
G01*
X120760667Y-7929934D01*
X120760667Y-8028712D01*
X120759537Y-8072102D01*
X120755298Y-8117101D01*
X120748992Y-8139164D01*
X120736055Y-8142033D01*
X120693713Y-8144857D01*
X120627804Y-8146587D01*
X120544113Y-8147087D01*
X120448425Y-8146220D01*
X120159533Y-8141600D01*
X120149451Y-7929934D01*
X119727733Y-7929934D01*
X119727733Y-7726734D01*
X120151067Y-7726734D01*
X120151067Y-7929934D01*
G37*
X120151067Y-7929934D02*
X120760667Y-7929934D01*
X120760667Y-8028712D01*
X120759537Y-8072102D01*
X120755298Y-8117101D01*
X120748992Y-8139164D01*
X120736055Y-8142033D01*
X120693713Y-8144857D01*
X120627804Y-8146587D01*
X120544113Y-8147087D01*
X120448425Y-8146220D01*
X120159533Y-8141600D01*
X120149451Y-7929934D01*
X119727733Y-7929934D01*
X119727733Y-7726734D01*
X120151067Y-7726734D01*
X120151067Y-7929934D01*
G36*
X114783200Y-7337267D02*
G01*
X114596934Y-7337267D01*
X114596934Y-5677800D01*
X114783200Y-5677800D01*
X114783200Y-7337267D01*
G37*
X114783200Y-7337267D02*
X114596934Y-7337267D01*
X114596934Y-5677800D01*
X114783200Y-5677800D01*
X114783200Y-7337267D01*
G36*
X120151067Y-1766201D02*
G01*
X119727733Y-1766201D01*
X119727733Y-2172601D01*
X119524533Y-2172601D01*
X119524533Y-1563001D01*
X120151067Y-1563001D01*
X120151067Y-1766201D01*
G37*
X120151067Y-1766201D02*
X119727733Y-1766201D01*
X119727733Y-2172601D01*
X119524533Y-2172601D01*
X119524533Y-1563001D01*
X120151067Y-1563001D01*
X120151067Y-1766201D01*
G36*
X115833067Y-7337267D02*
G01*
X116019334Y-7337267D01*
X116019334Y-7726734D01*
X115833067Y-7726734D01*
X115833067Y-7338883D01*
X115727234Y-7333842D01*
X115621400Y-7328801D01*
X115616764Y-7025249D01*
X115616289Y-6991561D01*
X115615591Y-6884218D01*
X115616782Y-6805950D01*
X115620063Y-6752999D01*
X115625635Y-6721604D01*
X115633697Y-6708008D01*
X115647244Y-6703114D01*
X115689396Y-6696687D01*
X115744167Y-6694060D01*
X115833067Y-6693801D01*
X115833067Y-7337267D01*
G37*
X115833067Y-7337267D02*
X116019334Y-7337267D01*
X116019334Y-7726734D01*
X115833067Y-7726734D01*
X115833067Y-7338883D01*
X115727234Y-7333842D01*
X115621400Y-7328801D01*
X115616764Y-7025249D01*
X115616289Y-6991561D01*
X115615591Y-6884218D01*
X115616782Y-6805950D01*
X115620063Y-6752999D01*
X115625635Y-6721604D01*
X115633697Y-6708008D01*
X115647244Y-6703114D01*
X115689396Y-6696687D01*
X115744167Y-6694060D01*
X115833067Y-6693801D01*
X115833067Y-7337267D01*
G36*
X114783200Y-4221534D02*
G01*
X114596934Y-4221534D01*
X114596934Y-3832067D01*
X114783200Y-3832067D01*
X114783200Y-4221534D01*
G37*
X114783200Y-4221534D02*
X114596934Y-4221534D01*
X114596934Y-3832067D01*
X114783200Y-3832067D01*
X114783200Y-4221534D01*
G36*
X119524533Y-3611934D02*
G01*
X119118134Y-3611934D01*
X119118134Y-3205534D01*
X119524533Y-3205534D01*
X119524533Y-3611934D01*
G37*
X119524533Y-3611934D02*
X119118134Y-3611934D01*
X119118134Y-3205534D01*
X119524533Y-3205534D01*
X119524533Y-3611934D01*
G36*
X120963867Y-2799134D02*
G01*
X120760667Y-2799134D01*
X120760667Y-2595934D01*
X120963867Y-2595934D01*
X120963867Y-2799134D01*
G37*
X120963867Y-2799134D02*
X120760667Y-2799134D01*
X120760667Y-2595934D01*
X120963867Y-2595934D01*
X120963867Y-2799134D01*
G36*
X120354267Y-1952467D02*
G01*
X120760667Y-1952467D01*
X120760667Y-1766201D01*
X120963867Y-1766201D01*
X120963867Y-2173382D01*
X120362733Y-2164134D01*
X120357692Y-2058300D01*
X120352651Y-1952467D01*
X120151067Y-1952467D01*
X120151067Y-1766201D01*
X120354267Y-1766201D01*
X120354267Y-1952467D01*
G37*
X120354267Y-1952467D02*
X120760667Y-1952467D01*
X120760667Y-1766201D01*
X120963867Y-1766201D01*
X120963867Y-2173382D01*
X120362733Y-2164134D01*
X120357692Y-2058300D01*
X120352651Y-1952467D01*
X120151067Y-1952467D01*
X120151067Y-1766201D01*
X120354267Y-1766201D01*
X120354267Y-1952467D01*
G36*
X114491929Y-1955880D02*
G01*
X114588467Y-1960934D01*
X114597681Y-2595934D01*
X114783200Y-2595934D01*
X114783200Y-2799134D01*
X114986400Y-2799134D01*
X114986400Y-3019267D01*
X115409734Y-3019267D01*
X115409734Y-3205534D01*
X115611859Y-3205534D01*
X115616629Y-3404500D01*
X115621400Y-3603467D01*
X117369767Y-3607780D01*
X119118134Y-3612092D01*
X119118134Y-3832067D01*
X118288400Y-3832067D01*
X118288400Y-4035267D01*
X118102133Y-4035267D01*
X118102133Y-4221534D01*
X117678800Y-4221534D01*
X117678800Y-4644867D01*
X116443709Y-4644867D01*
X116438955Y-4437434D01*
X116434200Y-4230001D01*
X116019334Y-4220491D01*
X116019334Y-3833142D01*
X115820367Y-3828371D01*
X115621400Y-3823601D01*
X115621400Y-3611872D01*
X115409734Y-3611934D01*
X115409734Y-3206576D01*
X115202300Y-3201822D01*
X114994867Y-3197067D01*
X114989777Y-3108987D01*
X114984687Y-3020906D01*
X114888177Y-3015853D01*
X114791667Y-3010801D01*
X114786625Y-2904967D01*
X114781584Y-2799134D01*
X114596934Y-2799134D01*
X114596934Y-2595934D01*
X114393734Y-2595934D01*
X114393734Y-3611934D01*
X114173233Y-3611934D01*
X114177650Y-2896501D01*
X114182067Y-2181067D01*
X114283667Y-2172601D01*
X114385267Y-2164134D01*
X114390329Y-2057480D01*
X114395392Y-1950827D01*
X114491929Y-1955880D01*
G37*
X114491929Y-1955880D02*
X114588467Y-1960934D01*
X114597681Y-2595934D01*
X114783200Y-2595934D01*
X114783200Y-2799134D01*
X114986400Y-2799134D01*
X114986400Y-3019267D01*
X115409734Y-3019267D01*
X115409734Y-3205534D01*
X115611859Y-3205534D01*
X115616629Y-3404500D01*
X115621400Y-3603467D01*
X117369767Y-3607780D01*
X119118134Y-3612092D01*
X119118134Y-3832067D01*
X118288400Y-3832067D01*
X118288400Y-4035267D01*
X118102133Y-4035267D01*
X118102133Y-4221534D01*
X117678800Y-4221534D01*
X117678800Y-4644867D01*
X116443709Y-4644867D01*
X116438955Y-4437434D01*
X116434200Y-4230001D01*
X116019334Y-4220491D01*
X116019334Y-3833142D01*
X115820367Y-3828371D01*
X115621400Y-3823601D01*
X115621400Y-3611872D01*
X115409734Y-3611934D01*
X115409734Y-3206576D01*
X115202300Y-3201822D01*
X114994867Y-3197067D01*
X114989777Y-3108987D01*
X114984687Y-3020906D01*
X114888177Y-3015853D01*
X114791667Y-3010801D01*
X114786625Y-2904967D01*
X114781584Y-2799134D01*
X114596934Y-2799134D01*
X114596934Y-2595934D01*
X114393734Y-2595934D01*
X114393734Y-3611934D01*
X114173233Y-3611934D01*
X114177650Y-2896501D01*
X114182067Y-2181067D01*
X114283667Y-2172601D01*
X114385267Y-2164134D01*
X114390329Y-2057480D01*
X114395392Y-1950827D01*
X114491929Y-1955880D01*
G36*
X115409734Y-7929934D02*
G01*
X116019334Y-7929934D01*
X116019334Y-7726734D01*
X116442667Y-7726734D01*
X116442667Y-7929934D01*
X116020950Y-7929934D01*
X116015908Y-8035767D01*
X116010867Y-8141600D01*
X115418200Y-8141600D01*
X115413159Y-8035767D01*
X115408117Y-7929934D01*
X114986400Y-7929934D01*
X114986400Y-7726734D01*
X115409734Y-7726734D01*
X115409734Y-7929934D01*
G37*
X115409734Y-7929934D02*
X116019334Y-7929934D01*
X116019334Y-7726734D01*
X116442667Y-7726734D01*
X116442667Y-7929934D01*
X116020950Y-7929934D01*
X116015908Y-8035767D01*
X116010867Y-8141600D01*
X115418200Y-8141600D01*
X115413159Y-8035767D01*
X115408117Y-7929934D01*
X114986400Y-7929934D01*
X114986400Y-7726734D01*
X115409734Y-7726734D01*
X115409734Y-7929934D01*
G36*
X121387200Y-1766201D02*
G01*
X121573467Y-1766201D01*
X121573467Y-2595934D01*
X121796608Y-2595934D01*
X121785134Y-2799196D01*
X121996800Y-2799134D01*
X121996800Y-3019267D01*
X121795216Y-3019267D01*
X121785134Y-2807601D01*
X121679300Y-2802559D01*
X121573467Y-2797518D01*
X121573467Y-2597704D01*
X121484567Y-2592585D01*
X121395667Y-2587467D01*
X121391132Y-2176834D01*
X121386598Y-1766201D01*
X120963867Y-1766201D01*
X120963867Y-1563001D01*
X121387200Y-1563001D01*
X121387200Y-1766201D01*
G37*
X121387200Y-1766201D02*
X121573467Y-1766201D01*
X121573467Y-2595934D01*
X121796608Y-2595934D01*
X121785134Y-2799196D01*
X121996800Y-2799134D01*
X121996800Y-3019267D01*
X121795216Y-3019267D01*
X121785134Y-2807601D01*
X121679300Y-2802559D01*
X121573467Y-2797518D01*
X121573467Y-2597704D01*
X121484567Y-2592585D01*
X121395667Y-2587467D01*
X121391132Y-2176834D01*
X121386598Y-1766201D01*
X120963867Y-1766201D01*
X120963867Y-1563001D01*
X121387200Y-1563001D01*
X121387200Y-1766201D01*
G36*
X122623333Y-3832067D02*
G01*
X122420133Y-3832067D01*
X122420133Y-3205534D01*
X122623333Y-3205534D01*
X122623333Y-3832067D01*
G37*
X122623333Y-3832067D02*
X122420133Y-3832067D01*
X122420133Y-3205534D01*
X122623333Y-3205534D01*
X122623333Y-3832067D01*
G36*
X114596934Y-3832067D02*
G01*
X114393734Y-3832067D01*
X114393734Y-3611934D01*
X114596934Y-3611934D01*
X114596934Y-3832067D01*
G37*
X114596934Y-3832067D02*
X114393734Y-3832067D01*
X114393734Y-3611934D01*
X114596934Y-3611934D01*
X114596934Y-3832067D01*
G36*
X119312867Y-5889467D02*
G01*
X119317945Y-5986834D01*
X119323024Y-6084201D01*
X119524533Y-6084201D01*
X119524533Y-7337267D01*
X119321334Y-7337267D01*
X119321334Y-6084201D01*
X116442667Y-6084201D01*
X116442667Y-6304334D01*
X116019334Y-6304334D01*
X116019334Y-6693801D01*
X115833067Y-6693801D01*
X115833067Y-6304334D01*
X116017717Y-6304334D01*
X116022759Y-6198501D01*
X116027800Y-6092667D01*
X116235233Y-6087913D01*
X116442667Y-6083158D01*
X116442667Y-5880809D01*
X119312867Y-5889467D01*
G37*
X119312867Y-5889467D02*
X119317945Y-5986834D01*
X119323024Y-6084201D01*
X119524533Y-6084201D01*
X119524533Y-7337267D01*
X119321334Y-7337267D01*
X119321334Y-6084201D01*
X116442667Y-6084201D01*
X116442667Y-6304334D01*
X116019334Y-6304334D01*
X116019334Y-6693801D01*
X115833067Y-6693801D01*
X115833067Y-6304334D01*
X116017717Y-6304334D01*
X116022759Y-6198501D01*
X116027800Y-6092667D01*
X116235233Y-6087913D01*
X116442667Y-6083158D01*
X116442667Y-5880809D01*
X119312867Y-5889467D01*
G36*
X114986400Y-5677800D02*
G01*
X114783200Y-5677800D01*
X114783200Y-4221534D01*
X114986400Y-4221534D01*
X114986400Y-5677800D01*
G37*
X114986400Y-5677800D02*
X114783200Y-5677800D01*
X114783200Y-4221534D01*
X114986400Y-4221534D01*
X114986400Y-5677800D01*
G36*
X122420133Y-4035267D02*
G01*
X120761448Y-4035267D01*
X120752200Y-4636401D01*
X120540534Y-4646483D01*
X120540534Y-7337267D01*
X120760667Y-7337267D01*
X120760667Y-7726734D01*
X120540534Y-7726734D01*
X120540534Y-7339037D01*
X120451633Y-7333919D01*
X120362733Y-7328801D01*
X120353903Y-5881001D01*
X120151067Y-5881001D01*
X120151067Y-5677800D01*
X119727733Y-5677800D01*
X119727733Y-4866043D01*
X119935167Y-4861288D01*
X120142600Y-4856534D01*
X120147642Y-4750701D01*
X120152683Y-4644867D01*
X120539752Y-4644867D01*
X120544376Y-4344301D01*
X120549000Y-4043734D01*
X120654834Y-4038692D01*
X120760667Y-4033651D01*
X120760667Y-3832067D01*
X122420133Y-3832067D01*
X122420133Y-4035267D01*
G37*
X122420133Y-4035267D02*
X120761448Y-4035267D01*
X120752200Y-4636401D01*
X120540534Y-4646483D01*
X120540534Y-7337267D01*
X120760667Y-7337267D01*
X120760667Y-7726734D01*
X120540534Y-7726734D01*
X120540534Y-7339037D01*
X120451633Y-7333919D01*
X120362733Y-7328801D01*
X120353903Y-5881001D01*
X120151067Y-5881001D01*
X120151067Y-5677800D01*
X119727733Y-5677800D01*
X119727733Y-4866043D01*
X119935167Y-4861288D01*
X120142600Y-4856534D01*
X120147642Y-4750701D01*
X120152683Y-4644867D01*
X120539752Y-4644867D01*
X120544376Y-4344301D01*
X120549000Y-4043734D01*
X120654834Y-4038692D01*
X120760667Y-4033651D01*
X120760667Y-3832067D01*
X122420133Y-3832067D01*
X122420133Y-4035267D01*
G36*
X119727733Y-7726734D02*
G01*
X119524533Y-7726734D01*
X119524533Y-7337267D01*
X119727733Y-7337267D01*
X119727733Y-7726734D01*
G37*
X119727733Y-7726734D02*
X119524533Y-7726734D01*
X119524533Y-7337267D01*
X119727733Y-7337267D01*
X119727733Y-7726734D01*
%TO.C,X6*%
G36*
X109931800Y-2456233D02*
G01*
X109728600Y-2456233D01*
X109728600Y-2066766D01*
X109931800Y-2066766D01*
X109931800Y-2456233D01*
G37*
X109931800Y-2456233D02*
X109728600Y-2456233D01*
X109728600Y-2066766D01*
X109931800Y-2066766D01*
X109931800Y-2456233D01*
G36*
X105596866Y-6587966D02*
G01*
X105190467Y-6587966D01*
X105190467Y-6181566D01*
X105596866Y-6181566D01*
X105596866Y-6587966D01*
G37*
X105596866Y-6587966D02*
X105190467Y-6587966D01*
X105190467Y-6181566D01*
X105596866Y-6181566D01*
X105596866Y-6587966D01*
G36*
X108881933Y-2454617D02*
G01*
X108987766Y-2459658D01*
X109093600Y-2464699D01*
X109098236Y-2768251D01*
X109098711Y-2801939D01*
X109099409Y-2909282D01*
X109098218Y-2987550D01*
X109094937Y-3040501D01*
X109089365Y-3071896D01*
X109081303Y-3085492D01*
X109067756Y-3090386D01*
X109025604Y-3096813D01*
X108970833Y-3099440D01*
X108881933Y-3099699D01*
X108881933Y-2456233D01*
X108695666Y-2456233D01*
X108695666Y-2066766D01*
X108881933Y-2066766D01*
X108881933Y-2454617D01*
G37*
X108881933Y-2454617D02*
X108987766Y-2459658D01*
X109093600Y-2464699D01*
X109098236Y-2768251D01*
X109098711Y-2801939D01*
X109099409Y-2909282D01*
X109098218Y-2987550D01*
X109094937Y-3040501D01*
X109089365Y-3071896D01*
X109081303Y-3085492D01*
X109067756Y-3090386D01*
X109025604Y-3096813D01*
X108970833Y-3099440D01*
X108881933Y-3099699D01*
X108881933Y-2456233D01*
X108695666Y-2456233D01*
X108695666Y-2066766D01*
X108881933Y-2066766D01*
X108881933Y-2454617D01*
G36*
X104266575Y-1647280D02*
G01*
X104555467Y-1651900D01*
X104565549Y-1863566D01*
X104987267Y-1863566D01*
X104987267Y-2066766D01*
X104563933Y-2066766D01*
X104563933Y-1863566D01*
X103954333Y-1863566D01*
X103954333Y-1764788D01*
X103955463Y-1721398D01*
X103959702Y-1676399D01*
X103966008Y-1654336D01*
X103978945Y-1651467D01*
X104021287Y-1648643D01*
X104087196Y-1646913D01*
X104170887Y-1646413D01*
X104266575Y-1647280D01*
G37*
X104266575Y-1647280D02*
X104555467Y-1651900D01*
X104565549Y-1863566D01*
X104987267Y-1863566D01*
X104987267Y-2066766D01*
X104563933Y-2066766D01*
X104563933Y-1863566D01*
X103954333Y-1863566D01*
X103954333Y-1764788D01*
X103955463Y-1721398D01*
X103959702Y-1676399D01*
X103966008Y-1654336D01*
X103978945Y-1651467D01*
X104021287Y-1648643D01*
X104087196Y-1646913D01*
X104170887Y-1646413D01*
X104266575Y-1647280D01*
G36*
X110321266Y-6181566D02*
G01*
X110118066Y-6181566D01*
X110118066Y-5961433D01*
X110321266Y-5961433D01*
X110321266Y-6181566D01*
G37*
X110321266Y-6181566D02*
X110118066Y-6181566D01*
X110118066Y-5961433D01*
X110321266Y-5961433D01*
X110321266Y-6181566D01*
G36*
X110118066Y-5961433D02*
G01*
X109931800Y-5961433D01*
X109931800Y-5571966D01*
X110118066Y-5571966D01*
X110118066Y-5961433D01*
G37*
X110118066Y-5961433D02*
X109931800Y-5961433D01*
X109931800Y-5571966D01*
X110118066Y-5571966D01*
X110118066Y-5961433D01*
G36*
X103954333Y-2066766D02*
G01*
X103751133Y-2066766D01*
X103751133Y-1863566D01*
X103954333Y-1863566D01*
X103954333Y-2066766D01*
G37*
X103954333Y-2066766D02*
X103751133Y-2066766D01*
X103751133Y-1863566D01*
X103954333Y-1863566D01*
X103954333Y-2066766D01*
G36*
X104352267Y-7629366D02*
G01*
X104357308Y-7735200D01*
X104362349Y-7841033D01*
X104563933Y-7841033D01*
X104563933Y-8027299D01*
X104360733Y-8027299D01*
X104360733Y-7841033D01*
X103954333Y-7841033D01*
X103954333Y-8027299D01*
X103751133Y-8027299D01*
X103751133Y-7620118D01*
X104352267Y-7629366D01*
G37*
X104352267Y-7629366D02*
X104357308Y-7735200D01*
X104362349Y-7841033D01*
X104563933Y-7841033D01*
X104563933Y-8027299D01*
X104360733Y-8027299D01*
X104360733Y-7841033D01*
X103954333Y-7841033D01*
X103954333Y-8027299D01*
X103751133Y-8027299D01*
X103751133Y-7620118D01*
X104352267Y-7629366D01*
G36*
X102929866Y-6985899D02*
G01*
X103035700Y-6990941D01*
X103141533Y-6995982D01*
X103141533Y-7195796D01*
X103230433Y-7200915D01*
X103319333Y-7206033D01*
X103323868Y-7616666D01*
X103328402Y-8027299D01*
X103751133Y-8027299D01*
X103751133Y-8230499D01*
X103327800Y-8230499D01*
X103327800Y-8027299D01*
X103141533Y-8027299D01*
X103141533Y-7197566D01*
X102918392Y-7197566D01*
X102929866Y-6994304D01*
X102718200Y-6994366D01*
X102718200Y-6774233D01*
X102919784Y-6774233D01*
X102929866Y-6985899D01*
G37*
X102929866Y-6985899D02*
X103035700Y-6990941D01*
X103141533Y-6995982D01*
X103141533Y-7195796D01*
X103230433Y-7200915D01*
X103319333Y-7206033D01*
X103323868Y-7616666D01*
X103328402Y-8027299D01*
X103751133Y-8027299D01*
X103751133Y-8230499D01*
X103327800Y-8230499D01*
X103327800Y-8027299D01*
X103141533Y-8027299D01*
X103141533Y-7197566D01*
X102918392Y-7197566D01*
X102929866Y-6994304D01*
X102718200Y-6994366D01*
X102718200Y-6774233D01*
X102919784Y-6774233D01*
X102929866Y-6985899D01*
G36*
X110118066Y-4115700D02*
G01*
X109931800Y-4115700D01*
X109931800Y-2456233D01*
X110118066Y-2456233D01*
X110118066Y-4115700D01*
G37*
X110118066Y-4115700D02*
X109931800Y-4115700D01*
X109931800Y-2456233D01*
X110118066Y-2456233D01*
X110118066Y-4115700D01*
G36*
X108276045Y-5356066D02*
G01*
X108280800Y-5563499D01*
X108695666Y-5573009D01*
X108695666Y-5960358D01*
X108894633Y-5965129D01*
X109093600Y-5969899D01*
X109093600Y-6181628D01*
X109305266Y-6181566D01*
X109305266Y-6586924D01*
X109512700Y-6591678D01*
X109720133Y-6596433D01*
X109725223Y-6684513D01*
X109730313Y-6772594D01*
X109826823Y-6777647D01*
X109923333Y-6782699D01*
X109928375Y-6888533D01*
X109933416Y-6994366D01*
X110118066Y-6994366D01*
X110118066Y-7197566D01*
X110321266Y-7197566D01*
X110321266Y-6181566D01*
X110541767Y-6181566D01*
X110537350Y-6896999D01*
X110532933Y-7612433D01*
X110431333Y-7620899D01*
X110329733Y-7629366D01*
X110324671Y-7736020D01*
X110319608Y-7842673D01*
X110223071Y-7837620D01*
X110126533Y-7832566D01*
X110117319Y-7197566D01*
X109931800Y-7197566D01*
X109931800Y-6994366D01*
X109728600Y-6994366D01*
X109728600Y-6774233D01*
X109305266Y-6774233D01*
X109305266Y-6587966D01*
X109103141Y-6587966D01*
X109098371Y-6389000D01*
X109093600Y-6190033D01*
X107345233Y-6185720D01*
X105596866Y-6181408D01*
X105596866Y-5961433D01*
X106426600Y-5961433D01*
X106426600Y-5758233D01*
X106612867Y-5758233D01*
X106612867Y-5571966D01*
X107036200Y-5571966D01*
X107036200Y-5148633D01*
X108271291Y-5148633D01*
X108276045Y-5356066D01*
G37*
X108276045Y-5356066D02*
X108280800Y-5563499D01*
X108695666Y-5573009D01*
X108695666Y-5960358D01*
X108894633Y-5965129D01*
X109093600Y-5969899D01*
X109093600Y-6181628D01*
X109305266Y-6181566D01*
X109305266Y-6586924D01*
X109512700Y-6591678D01*
X109720133Y-6596433D01*
X109725223Y-6684513D01*
X109730313Y-6772594D01*
X109826823Y-6777647D01*
X109923333Y-6782699D01*
X109928375Y-6888533D01*
X109933416Y-6994366D01*
X110118066Y-6994366D01*
X110118066Y-7197566D01*
X110321266Y-7197566D01*
X110321266Y-6181566D01*
X110541767Y-6181566D01*
X110537350Y-6896999D01*
X110532933Y-7612433D01*
X110431333Y-7620899D01*
X110329733Y-7629366D01*
X110324671Y-7736020D01*
X110319608Y-7842673D01*
X110223071Y-7837620D01*
X110126533Y-7832566D01*
X110117319Y-7197566D01*
X109931800Y-7197566D01*
X109931800Y-6994366D01*
X109728600Y-6994366D01*
X109728600Y-6774233D01*
X109305266Y-6774233D01*
X109305266Y-6587966D01*
X109103141Y-6587966D01*
X109098371Y-6389000D01*
X109093600Y-6190033D01*
X107345233Y-6185720D01*
X105596866Y-6181408D01*
X105596866Y-5961433D01*
X106426600Y-5961433D01*
X106426600Y-5758233D01*
X106612867Y-5758233D01*
X106612867Y-5571966D01*
X107036200Y-5571966D01*
X107036200Y-5148633D01*
X108271291Y-5148633D01*
X108276045Y-5356066D01*
G36*
X109931800Y-5571966D02*
G01*
X109728600Y-5571966D01*
X109728600Y-4115700D01*
X109931800Y-4115700D01*
X109931800Y-5571966D01*
G37*
X109931800Y-5571966D02*
X109728600Y-5571966D01*
X109728600Y-4115700D01*
X109931800Y-4115700D01*
X109931800Y-5571966D01*
G36*
X105190467Y-8230499D02*
G01*
X104563933Y-8230499D01*
X104563933Y-8027299D01*
X104987267Y-8027299D01*
X104987267Y-7620899D01*
X105190467Y-7620899D01*
X105190467Y-8230499D01*
G37*
X105190467Y-8230499D02*
X104563933Y-8230499D01*
X104563933Y-8027299D01*
X104987267Y-8027299D01*
X104987267Y-7620899D01*
X105190467Y-7620899D01*
X105190467Y-8230499D01*
G36*
X104174466Y-2454463D02*
G01*
X104263367Y-2459581D01*
X104352267Y-2464699D01*
X104361097Y-3912499D01*
X104563933Y-3912499D01*
X104563933Y-4115700D01*
X104987267Y-4115700D01*
X104987267Y-4927457D01*
X104779833Y-4932212D01*
X104572400Y-4936966D01*
X104567358Y-5042799D01*
X104562317Y-5148633D01*
X104175248Y-5148633D01*
X104170624Y-5449199D01*
X104166000Y-5749766D01*
X104060166Y-5754808D01*
X103954333Y-5759849D01*
X103954333Y-5961433D01*
X102294867Y-5961433D01*
X102294867Y-5758233D01*
X103953552Y-5758233D01*
X103962800Y-5157099D01*
X104174466Y-5147017D01*
X104174466Y-2456233D01*
X103954333Y-2456233D01*
X103954333Y-2066766D01*
X104174466Y-2066766D01*
X104174466Y-2454463D01*
G37*
X104174466Y-2454463D02*
X104263367Y-2459581D01*
X104352267Y-2464699D01*
X104361097Y-3912499D01*
X104563933Y-3912499D01*
X104563933Y-4115700D01*
X104987267Y-4115700D01*
X104987267Y-4927457D01*
X104779833Y-4932212D01*
X104572400Y-4936966D01*
X104567358Y-5042799D01*
X104562317Y-5148633D01*
X104175248Y-5148633D01*
X104170624Y-5449199D01*
X104166000Y-5749766D01*
X104060166Y-5754808D01*
X103954333Y-5759849D01*
X103954333Y-5961433D01*
X102294867Y-5961433D01*
X102294867Y-5758233D01*
X103953552Y-5758233D01*
X103962800Y-5157099D01*
X104174466Y-5147017D01*
X104174466Y-2456233D01*
X103954333Y-2456233D01*
X103954333Y-2066766D01*
X104174466Y-2066766D01*
X104174466Y-2454463D01*
G36*
X109301841Y-1757733D02*
G01*
X109306883Y-1863566D01*
X109728600Y-1863566D01*
X109728600Y-2066766D01*
X109305266Y-2066766D01*
X109305266Y-1863566D01*
X108695666Y-1863566D01*
X108695666Y-2066766D01*
X108272333Y-2066766D01*
X108272333Y-1863566D01*
X108694050Y-1863566D01*
X108699092Y-1757733D01*
X108704133Y-1651900D01*
X109296800Y-1651900D01*
X109301841Y-1757733D01*
G37*
X109301841Y-1757733D02*
X109306883Y-1863566D01*
X109728600Y-1863566D01*
X109728600Y-2066766D01*
X109305266Y-2066766D01*
X109305266Y-1863566D01*
X108695666Y-1863566D01*
X108695666Y-2066766D01*
X108272333Y-2066766D01*
X108272333Y-1863566D01*
X108694050Y-1863566D01*
X108699092Y-1757733D01*
X108704133Y-1651900D01*
X109296800Y-1651900D01*
X109301841Y-1757733D01*
G36*
X105393666Y-3709299D02*
G01*
X108272333Y-3709299D01*
X108272333Y-3489166D01*
X108695666Y-3489166D01*
X108695666Y-3099699D01*
X108881933Y-3099699D01*
X108881933Y-3489166D01*
X108697283Y-3489166D01*
X108692241Y-3594999D01*
X108687200Y-3700833D01*
X108479767Y-3705587D01*
X108272333Y-3710342D01*
X108272333Y-3912691D01*
X105402133Y-3904033D01*
X105397055Y-3806666D01*
X105391976Y-3709299D01*
X105190467Y-3709299D01*
X105190467Y-2456233D01*
X105393666Y-2456233D01*
X105393666Y-3709299D01*
G37*
X105393666Y-3709299D02*
X108272333Y-3709299D01*
X108272333Y-3489166D01*
X108695666Y-3489166D01*
X108695666Y-3099699D01*
X108881933Y-3099699D01*
X108881933Y-3489166D01*
X108697283Y-3489166D01*
X108692241Y-3594999D01*
X108687200Y-3700833D01*
X108479767Y-3705587D01*
X108272333Y-3710342D01*
X108272333Y-3912691D01*
X105402133Y-3904033D01*
X105397055Y-3806666D01*
X105391976Y-3709299D01*
X105190467Y-3709299D01*
X105190467Y-2456233D01*
X105393666Y-2456233D01*
X105393666Y-3709299D01*
G36*
X102294867Y-6587966D02*
G01*
X102091667Y-6587966D01*
X102091667Y-5961433D01*
X102294867Y-5961433D01*
X102294867Y-6587966D01*
G37*
X102294867Y-6587966D02*
X102091667Y-6587966D01*
X102091667Y-5961433D01*
X102294867Y-5961433D01*
X102294867Y-6587966D01*
G36*
X105190467Y-2456233D02*
G01*
X104987267Y-2456233D01*
X104987267Y-2066766D01*
X105190467Y-2066766D01*
X105190467Y-2456233D01*
G37*
X105190467Y-2456233D02*
X104987267Y-2456233D01*
X104987267Y-2066766D01*
X105190467Y-2066766D01*
X105190467Y-2456233D01*
G36*
X103954333Y-7197566D02*
G01*
X103751133Y-7197566D01*
X103751133Y-6994366D01*
X103954333Y-6994366D01*
X103954333Y-7197566D01*
G37*
X103954333Y-7197566D02*
X103751133Y-7197566D01*
X103751133Y-6994366D01*
X103954333Y-6994366D01*
X103954333Y-7197566D01*
G36*
X105190467Y-6774233D02*
G01*
X104987267Y-6774233D01*
X104987267Y-7620899D01*
X104563342Y-7620899D01*
X104567871Y-7201800D01*
X104572400Y-6782699D01*
X104779833Y-6777945D01*
X104987267Y-6773190D01*
X104987267Y-6587966D01*
X105190467Y-6587966D01*
X105190467Y-6774233D01*
G37*
X105190467Y-6774233D02*
X104987267Y-6774233D01*
X104987267Y-7620899D01*
X104563342Y-7620899D01*
X104567871Y-7201800D01*
X104572400Y-6782699D01*
X104779833Y-6777945D01*
X104987267Y-6773190D01*
X104987267Y-6587966D01*
X105190467Y-6587966D01*
X105190467Y-6774233D01*
G36*
X102718200Y-6774233D02*
G01*
X102294867Y-6774233D01*
X102294867Y-6587966D01*
X102718200Y-6587966D01*
X102718200Y-6774233D01*
G37*
X102718200Y-6774233D02*
X102294867Y-6774233D01*
X102294867Y-6587966D01*
X102718200Y-6587966D01*
X102718200Y-6774233D01*
D14*
%TO.C,IC4*%
X99117880Y-1513880D02*
X86317880Y-1513880D01*
X86317880Y-1513880D02*
X86317880Y-8313880D01*
X99117880Y-8313880D02*
X99117880Y-1513880D01*
X86327880Y786120D02*
X86327880Y-1163880D01*
X86317880Y-8313880D02*
X99117880Y-8313880D01*
%TO.C,IC2*%
X125179880Y-1513880D02*
X125179880Y-8313880D01*
X137969880Y-10613880D02*
X137969880Y-8663880D01*
X137979880Y-1513880D02*
X125179880Y-1513880D01*
X125179880Y-8313880D02*
X137979880Y-8313880D01*
X137979880Y-8313880D02*
X137979880Y-1513880D01*
D10*
%TO.C,J2*%
X141878929Y-8812000D02*
X142276000Y-8812000D01*
X144936000Y-9572000D02*
X150936000Y-9572000D01*
X142276000Y-13062000D02*
X142276000Y-7862000D01*
X141946000Y-12112000D02*
X142276000Y-12112000D01*
X144936000Y-13062000D02*
X142276000Y-13062000D01*
X141946000Y-11352000D02*
X142276000Y-11352000D01*
X144936000Y-11692000D02*
X150936000Y-11692000D01*
X150936000Y-8812000D02*
X144936000Y-8812000D01*
X144936000Y-12112000D02*
X150936000Y-12112000D01*
X150936000Y-9572000D02*
X150936000Y-8812000D01*
X139566000Y-13002000D02*
X140836000Y-13002000D01*
X139566000Y-11732000D02*
X139566000Y-13002000D01*
X144936000Y-11572000D02*
X150936000Y-11572000D01*
X144936000Y-12052000D02*
X150936000Y-12052000D01*
X144936000Y-11812000D02*
X150936000Y-11812000D01*
X150936000Y-11352000D02*
X144936000Y-11352000D01*
X142276000Y-10462000D02*
X144936000Y-10462000D01*
X150936000Y-12112000D02*
X150936000Y-11352000D01*
X144936000Y-11452000D02*
X150936000Y-11452000D01*
X144936000Y-7862000D02*
X144936000Y-13062000D01*
X141878929Y-9572000D02*
X142276000Y-9572000D01*
X142276000Y-7862000D02*
X144936000Y-7862000D01*
X144936000Y-11932000D02*
X150936000Y-11932000D01*
%TO.C,TP1*%
X144210000Y-3225000D02*
G75*
G03*
X144210000Y-3225000I-700000J0D01*
G01*
%TO.C,TP2*%
X142360000Y-2200000D02*
G75*
G03*
X142360000Y-2200000I-700000J0D01*
G01*
%TO.C,TP3*%
X144210000Y-1125000D02*
G75*
G03*
X144210000Y-1125000I-700000J0D01*
G01*
%TD*%
%LPC*%
D16*
%TO.C,J1*%
X88669999Y5529999D03*
D17*
X88669999Y8069999D03*
X91209999Y5529999D03*
X91209999Y8069999D03*
X93749999Y5529999D03*
X93749999Y8069999D03*
X96289999Y5529999D03*
X96289999Y8069999D03*
X98829999Y5529999D03*
X98829999Y8069999D03*
X101369999Y5529999D03*
X101369999Y8069999D03*
X103909999Y5529999D03*
X103909999Y8069999D03*
X106449999Y5529999D03*
X106449999Y8069999D03*
X108989999Y5529999D03*
X108989999Y8069999D03*
X111529999Y5529999D03*
X111529999Y8069999D03*
X114069999Y5529999D03*
X114069999Y8069999D03*
X116609999Y5529999D03*
X116609999Y8069999D03*
X119149999Y5529999D03*
X119149999Y8069999D03*
X121689999Y5529999D03*
X121689999Y8069999D03*
X124229999Y5529999D03*
X124229999Y8069999D03*
X126769999Y5529999D03*
X126769999Y8069999D03*
X129309999Y5529999D03*
X129309999Y8069999D03*
X131849999Y5529999D03*
X131849999Y8069999D03*
X134389999Y5529999D03*
X134389999Y8069999D03*
X136929999Y5529999D03*
X136929999Y8069999D03*
%TD*%
D18*
%TO.C,H1*%
X83800000Y6800000D03*
%TD*%
%TO.C,H3*%
X83800000Y-16200000D03*
%TD*%
%TO.C,H4*%
X141800000Y-16200000D03*
%TD*%
%TO.C,H2*%
X141800000Y6800000D03*
%TD*%
D16*
%TO.C,J4*%
X83809999Y-10979999D03*
D17*
X83809999Y-8439999D03*
X83809999Y-5899999D03*
X83809999Y-3359999D03*
X83809999Y-819999D03*
X83809999Y1719999D03*
%TD*%
D19*
%TO.C,J3*%
X141270000Y-200000D03*
X141270000Y-4200000D03*
D20*
X143400000Y-5775000D03*
X143400000Y1375000D03*
X139950000Y1375000D03*
X139950000Y-5775000D03*
%TD*%
D21*
%TO.C,IC1*%
X124340879Y-9638879D03*
X123070879Y-9638879D03*
X121800879Y-9638879D03*
X120530879Y-9638879D03*
X119260879Y-9638879D03*
X117990879Y-9638879D03*
X116720879Y-9638879D03*
X115450879Y-9638879D03*
X114180879Y-9638879D03*
X112910879Y-9638879D03*
X112910879Y-188879D03*
X114180879Y-188879D03*
X115450879Y-188879D03*
X116720879Y-188879D03*
X117990879Y-188879D03*
X119260879Y-188879D03*
X120530879Y-188879D03*
X121800879Y-188879D03*
X123070879Y-188879D03*
X124340879Y-188879D03*
%TD*%
%TO.C,IC3*%
X99956879Y-188879D03*
X101226879Y-188879D03*
X102496879Y-188879D03*
X103766879Y-188879D03*
X105036879Y-188879D03*
X106306879Y-188879D03*
X107576879Y-188879D03*
X108846879Y-188879D03*
X110116879Y-188879D03*
X111386879Y-188879D03*
X111386879Y-9638879D03*
X110116879Y-9638879D03*
X108846879Y-9638879D03*
X107576879Y-9638879D03*
X106306879Y-9638879D03*
X105036879Y-9638879D03*
X103766879Y-9638879D03*
X102496879Y-9638879D03*
X101226879Y-9638879D03*
X99956879Y-9638879D03*
%TD*%
%TO.C,IC4*%
X87002879Y-188879D03*
X88272879Y-188879D03*
X89542879Y-188879D03*
X90812879Y-188879D03*
X92082879Y-188879D03*
X93352879Y-188879D03*
X94622879Y-188879D03*
X95892879Y-188879D03*
X97162879Y-188879D03*
X98432879Y-188879D03*
X98432879Y-9638879D03*
X97162879Y-9638879D03*
X95892879Y-9638879D03*
X94622879Y-9638879D03*
X93352879Y-9638879D03*
X92082879Y-9638879D03*
X90812879Y-9638879D03*
X89542879Y-9638879D03*
X88272879Y-9638879D03*
X87002879Y-9638879D03*
%TD*%
%TO.C,IC2*%
X137294879Y-9638879D03*
X136024879Y-9638879D03*
X134754879Y-9638879D03*
X133484879Y-9638879D03*
X132214879Y-9638879D03*
X130944879Y-9638879D03*
X129674879Y-9638879D03*
X128404879Y-9638879D03*
X127134879Y-9638879D03*
X125864879Y-9638879D03*
X125864879Y-188879D03*
X127134879Y-188879D03*
X128404879Y-188879D03*
X129674879Y-188879D03*
X130944879Y-188879D03*
X132214879Y-188879D03*
X133484879Y-188879D03*
X134754879Y-188879D03*
X136024879Y-188879D03*
X137294879Y-188879D03*
%TD*%
D22*
%TO.C,J6*%
X129420000Y-13002000D03*
X126650000Y-13002000D03*
X123880000Y-13002000D03*
X121110000Y-13002000D03*
X118340000Y-13002000D03*
X115570000Y-13002000D03*
X112800000Y-13002000D03*
X110030000Y-13002000D03*
X107260000Y-13002000D03*
X104490000Y-13002000D03*
X101720000Y-13002000D03*
X98950000Y-13002000D03*
X96180000Y-13002000D03*
X128035000Y-15842000D03*
X125265000Y-15842000D03*
X122495000Y-15842000D03*
X119725000Y-15842000D03*
X116955000Y-15842000D03*
X114185000Y-15842000D03*
X111415000Y-15842000D03*
X108645000Y-15842000D03*
X105875000Y-15842000D03*
X103105000Y-15842000D03*
X100335000Y-15842000D03*
X97565000Y-15842000D03*
D23*
X136320000Y-14422000D03*
X89280000Y-14422000D03*
%TD*%
D16*
%TO.C,J2*%
X140835999Y-11731999D03*
D17*
X140835999Y-9191999D03*
%TD*%
D24*
%TO.C,TP1*%
X143510000Y-3225000D03*
%TD*%
%TO.C,TP2*%
X141660000Y-2200000D03*
%TD*%
%TO.C,TP3*%
X143510000Y-1125000D03*
%TD*%
M02*
