M48
; DRILL file {KiCad (7.0.0-0)} date Thursday, April 04, 2024 at 12:15:59 PM
; FORMAT={-:-/ absolute / inch / decimal}
; #@! TF.CreationDate,2024-04-04T12:15:59-05:00
; #@! TF.GenerationSoftware,Kicad,Pcbnew,(7.0.0-0)
; #@! TF.FileFunction,Plated,1,2,PTH
FMAT,2
INCH
; #@! TA.AperFunction,Plated,PTH,ViaDrill
T1C0.0098
; #@! TA.AperFunction,Plated,PTH,ViaDrill
T2C0.0157
; #@! TA.AperFunction,Plated,PTH,ComponentDrill
T3C0.0394
; #@! TA.AperFunction,Plated,PTH,ComponentDrill
T4C0.0406
; #@! TA.AperFunction,Plated,PTH,ComponentDrill
T5C0.0523
; #@! TA.AperFunction,Plated,PTH,ComponentDrill
T6C0.1272
%
G90
G05
T1
X3.1801Y-0.3469
X3.1972Y-0.5194
X3.2247Y0.1581
X3.2394Y-0.0269
X3.2394Y-0.1769
X3.2394Y-0.3469
X3.3747Y0.3781
X3.3797Y-0.2069
X3.3797Y-0.2919
X3.38Y-0.06
X3.3841Y-0.1165
X3.4295Y0.1165
X3.4541Y0.1077
X3.4755Y-0.1939
X3.5221Y0.1057
X3.5587Y-0.1889
X3.6037Y0.1107
X3.6297Y-0.1219
X3.6407Y-0.1917
X3.6424Y-0.06
X3.6497Y-0.5741
X3.6503Y-0.3327
X3.6717Y-0.5629
X3.6847Y0.3881
X3.691Y0.0986
X3.6916Y-0.5466
X3.7113Y-0.1998
X3.7153Y-0.5534
X3.7226Y-0.1778
X3.7296Y-0.2604
X3.7298Y-0.1168
X3.7639Y0.1111
X3.7961Y0.104
X3.8075Y-0.1925
X3.8221Y-0.4579
X3.8801Y0.0931
X3.8865Y-0.1919
X3.9439Y-0.4662
X3.9447Y0.3381
X3.9447Y0.2881
X3.9599Y-0.4323
X3.9601Y0.0822
X3.9625Y-0.1945
X4.0171Y-0.7141
X4.0245Y-0.4739
X4.0391Y0.0822
X4.0421Y-0.1925
X4.078Y-0.4474
X4.1086Y-0.7436
X4.1087Y-0.189
X4.128Y0.1799
X4.1328Y-0.7387
X4.1379Y0.0603
X4.1385Y0.2705
X4.1469Y-0.4327
X4.1565Y-0.7319
X4.1695Y0.078
X4.2047Y-0.6819
X4.2125Y-0.4319
X4.2211Y-0.7161
X4.2334Y0.105
X4.2712Y0.0691
X4.3068Y-0.4319
X4.3415Y0.1032
X4.3869Y-0.4401
X4.3947Y-0.0919
X4.3987Y0.0861
X4.4647Y-0.1619
X4.4683Y-0.4318
X4.5406Y0.1193
X4.5421Y-0.7097
X4.5597Y-0.0719
X4.5873Y0.104
X4.6004Y-0.5287
X4.6047Y-0.0819
X4.6165Y-0.2836
X4.6712Y-0.4319
X4.7147Y-0.0519
X4.7147Y-0.1919
X4.7372Y0.1312
X4.7469Y0.3435
X4.7833Y-0.1899
X4.7947Y0.0931
X4.868Y-0.421
X4.8708Y0.104
X4.8715Y-0.3263
X4.8718Y-0.261
X4.8741Y-0.1113
X4.8781Y-0.7097
X4.8825Y-0.196
X4.8947Y0.0981
X4.9037Y-0.4319
X4.9113Y-0.7371
X4.9247Y-0.5569
X4.9395Y-0.1903
X4.9407Y0.1075
X4.9547Y-0.1119
X4.9847Y0.1081
X4.9879Y-0.7219
X4.9989Y-0.1897
X5.0284Y-0.424
X5.0371Y-0.2572
X5.0379Y-0.7457
X5.0495Y0.1025
X5.0629Y-0.1903
X5.0761Y-0.421
X5.1049Y0.1039
X5.1175Y-0.4207
X5.126Y0.2819
X5.1275Y0.2553
X5.1296Y0.1039
X5.1327Y-0.1917
X5.1777Y-0.4179
X5.2101Y-0.4463
X5.2119Y-0.1923
X5.2172Y0.1083
X5.2387Y0.1648
X5.2561Y-0.4657
X5.2669Y0.1081
X5.2751Y0.1476
X5.2931Y-0.1897
X5.3071Y-0.4505
X5.3263Y0.1647
X5.3562Y-0.2572
X5.3573Y0.1695
X5.3743Y-0.1897
X5.3763Y-0.4305
X5.4061Y0.1037
X5.4083Y-0.4327
X5.432Y0.3547
X5.4647Y0.3281
X5.465Y0.128
X5.5969Y-0.1467
X5.5988Y-0.0305
X5.6205Y-0.0856
T2
X3.3896Y0.006
X4.3108Y0.0481
X4.3114Y-0.315
X4.3217Y-0.0956
X5.4728Y-0.1437
T3
X3.2996Y0.0677
X3.2996Y-0.0323
X3.2996Y-0.1323
X3.2996Y-0.2323
X3.2996Y-0.3323
X3.2996Y-0.4323
X3.4909Y0.3177
X3.4909Y0.2177
X3.5909Y0.3177
X3.5909Y0.2177
X3.6909Y0.3177
X3.6909Y0.2177
X3.7909Y0.3177
X3.7909Y0.2177
X3.8909Y0.3177
X3.8909Y0.2177
X3.9909Y0.3177
X3.9909Y0.2177
X4.0909Y0.3177
X4.0909Y0.2177
X4.1909Y0.3177
X4.1909Y0.2177
X4.2909Y0.3177
X4.2909Y0.2177
X4.3909Y0.3177
X4.3909Y0.2177
X4.4909Y0.3177
X4.4909Y0.2177
X4.5909Y0.3177
X4.5909Y0.2177
X4.6909Y0.3177
X4.6909Y0.2177
X4.7909Y0.3177
X4.7909Y0.2177
X4.8909Y0.3177
X4.8909Y0.2177
X4.9909Y0.3177
X4.9909Y0.2177
X5.0909Y0.3177
X5.0909Y0.2177
X5.1909Y0.3177
X5.1909Y0.2177
X5.2909Y0.3177
X5.2909Y0.2177
X5.3909Y0.3177
X5.3909Y0.2177
X5.5447Y-0.3619
X5.5447Y-0.4619
T4
X3.7866Y-0.5119
X3.8411Y-0.6237
X3.8957Y-0.5119
X3.9502Y-0.6237
X4.0047Y-0.5119
X4.0593Y-0.6237
X4.1138Y-0.5119
X4.1683Y-0.6237
X4.2228Y-0.5119
X4.2774Y-0.6237
X4.3319Y-0.5119
X4.3864Y-0.6237
X4.4409Y-0.5119
X4.4955Y-0.6237
X4.55Y-0.5119
X4.6045Y-0.6237
X4.6591Y-0.5119
X4.7136Y-0.6237
X4.7681Y-0.5119
X4.8226Y-0.6237
X4.8772Y-0.5119
X4.9317Y-0.6237
X4.9862Y-0.5119
X5.0407Y-0.6237
X5.0953Y-0.5119
T5
X5.5098Y0.0541
X5.5098Y-0.2274
X5.6457Y0.0541
X5.6457Y-0.2274
T6
X3.515Y-0.5678
X5.3669Y-0.5678
T0
M30
