%TF.GenerationSoftware,KiCad,Pcbnew,(7.0.0-0)*%
%TF.CreationDate,2024-04-04T12:15:59-05:00*%
%TF.ProjectId,rascsi_zero,72617363-7369-45f7-9a65-726f2e6b6963,rev?*%
%TF.SameCoordinates,PX59d60c0PY325aa00*%
%TF.FileFunction,Paste,Top*%
%TF.FilePolarity,Positive*%
%FSLAX46Y46*%
G04 Gerber Fmt 4.6, Leading zero omitted, Abs format (unit mm)*
G04 Created by KiCad (PCBNEW (7.0.0-0)) date 2024-04-04 12:15:59*
%MOMM*%
%LPD*%
G01*
G04 APERTURE LIST*
G04 Aperture macros list*
%AMRoundRect*
0 Rectangle with rounded corners*
0 $1 Rounding radius*
0 $2 $3 $4 $5 $6 $7 $8 $9 X,Y pos of 4 corners*
0 Add a 4 corners polygon primitive as box body*
4,1,4,$2,$3,$4,$5,$6,$7,$8,$9,$2,$3,0*
0 Add four circle primitives for the rounded corners*
1,1,$1+$1,$2,$3*
1,1,$1+$1,$4,$5*
1,1,$1+$1,$6,$7*
1,1,$1+$1,$8,$9*
0 Add four rect primitives between the rounded corners*
20,1,$1+$1,$2,$3,$4,$5,0*
20,1,$1+$1,$4,$5,$6,$7,0*
20,1,$1+$1,$6,$7,$8,$9,0*
20,1,$1+$1,$8,$9,$2,$3,0*%
G04 Aperture macros list end*
%ADD10RoundRect,0.243750X-0.456250X0.243750X-0.456250X-0.243750X0.456250X-0.243750X0.456250X0.243750X0*%
%ADD11RoundRect,0.243750X0.243750X0.456250X-0.243750X0.456250X-0.243750X-0.456250X0.243750X-0.456250X0*%
%ADD12RoundRect,0.250000X-0.625000X0.375000X-0.625000X-0.375000X0.625000X-0.375000X0.625000X0.375000X0*%
%ADD13RoundRect,0.250000X-0.450000X0.262500X-0.450000X-0.262500X0.450000X-0.262500X0.450000X0.262500X0*%
%ADD14RoundRect,0.250000X0.262500X0.450000X-0.262500X0.450000X-0.262500X-0.450000X0.262500X-0.450000X0*%
%ADD15R,1.100000X1.100000*%
%ADD16RoundRect,0.250000X0.450000X-0.262500X0.450000X0.262500X-0.450000X0.262500X-0.450000X-0.262500X0*%
%ADD17R,1.400000X0.400000*%
G04 APERTURE END LIST*
D10*
%TO.C,D3*%
X81273000Y-9651500D03*
X81273000Y-11526500D03*
%TD*%
D11*
%TO.C,D1*%
X144313500Y-11478000D03*
X142438500Y-11478000D03*
%TD*%
%TO.C,D2*%
X144313500Y-9192000D03*
X142438500Y-9192000D03*
%TD*%
D12*
%TO.C,FUSE1*%
X105794160Y-4510320D03*
X105794160Y-7310320D03*
%TD*%
D13*
%TO.C,R2*%
X118672224Y1587780D03*
X118672224Y-237220D03*
%TD*%
D14*
%TO.C,R3*%
X88512000Y-9700000D03*
X86687000Y-9700000D03*
%TD*%
%TO.C,R4*%
X92091500Y-9700000D03*
X90266500Y-9700000D03*
%TD*%
D15*
%TO.C,D5*%
X105859999Y-2749999D03*
X105859999Y49999D03*
%TD*%
D10*
%TO.C,D4*%
X81273000Y-6017000D03*
X81273000Y-7892000D03*
%TD*%
D13*
%TO.C,R1*%
X118672224Y-2101640D03*
X118672224Y-3926640D03*
%TD*%
%TO.C,R49*%
X95549390Y-2101640D03*
X95549390Y-3926640D03*
%TD*%
%TO.C,R48*%
X97586320Y-2101640D03*
X97586320Y-3926640D03*
%TD*%
%TO.C,R47*%
X99623250Y-2101640D03*
X99623250Y-3926640D03*
%TD*%
%TO.C,R46*%
X101660180Y-2101640D03*
X101660180Y-3926640D03*
%TD*%
%TO.C,R45*%
X103697110Y-2101640D03*
X103697110Y-3926640D03*
%TD*%
%TO.C,R44*%
X87401660Y-2101640D03*
X87401660Y-3926640D03*
%TD*%
%TO.C,R43*%
X89438600Y-2101640D03*
X89438600Y-3926640D03*
%TD*%
%TO.C,R42*%
X91475530Y-2101640D03*
X91475530Y-3926640D03*
%TD*%
%TO.C,R41*%
X93512460Y-2101640D03*
X93512460Y-3926640D03*
%TD*%
D16*
%TO.C,R31*%
X95536328Y-7616060D03*
X95536328Y-5791060D03*
%TD*%
%TO.C,R30*%
X97569992Y-7616060D03*
X97569992Y-5791060D03*
%TD*%
%TO.C,R29*%
X99603656Y-7616060D03*
X99603656Y-5791060D03*
%TD*%
%TO.C,R28*%
X101637320Y-7616060D03*
X101637320Y-5791060D03*
%TD*%
%TO.C,R27*%
X103670984Y-7616060D03*
X103670984Y-5791060D03*
%TD*%
%TO.C,R26*%
X87401660Y-7616060D03*
X87401660Y-5791060D03*
%TD*%
%TO.C,R25*%
X89435336Y-7616060D03*
X89435336Y-5791060D03*
%TD*%
%TO.C,R24*%
X91469000Y-7616060D03*
X91469000Y-5791060D03*
%TD*%
%TO.C,R23*%
X93502664Y-7616060D03*
X93502664Y-5791060D03*
%TD*%
%TO.C,R13*%
X95567398Y-237220D03*
X95567398Y1587780D03*
%TD*%
%TO.C,R12*%
X97598672Y-237220D03*
X97598672Y1587780D03*
%TD*%
%TO.C,R11*%
X99629946Y-237220D03*
X99629946Y1587780D03*
%TD*%
%TO.C,R10*%
X101661220Y-237220D03*
X101661220Y1587780D03*
%TD*%
%TO.C,R9*%
X103692494Y-237220D03*
X103692494Y1587780D03*
%TD*%
%TO.C,R8*%
X87401660Y-237220D03*
X87401660Y1587780D03*
%TD*%
%TO.C,R7*%
X89473576Y-237220D03*
X89473576Y1587780D03*
%TD*%
%TO.C,R6*%
X91504850Y-237220D03*
X91504850Y1587780D03*
%TD*%
%TO.C,R5*%
X93536124Y-237220D03*
X93536124Y1587780D03*
%TD*%
D13*
%TO.C,R58*%
X120735280Y-2101640D03*
X120735280Y-3926640D03*
%TD*%
%TO.C,R57*%
X122772210Y-2101640D03*
X122772210Y-3926640D03*
%TD*%
%TO.C,R56*%
X124809140Y-2101640D03*
X124809140Y-3926640D03*
%TD*%
%TO.C,R55*%
X126846070Y-2101640D03*
X126846070Y-3926640D03*
%TD*%
%TO.C,R54*%
X128883000Y-2101640D03*
X128883000Y-3926640D03*
%TD*%
%TO.C,R53*%
X130919930Y-2101640D03*
X130919930Y-3926640D03*
%TD*%
%TO.C,R52*%
X132956860Y-2101640D03*
X132956860Y-3926640D03*
%TD*%
%TO.C,R51*%
X134993790Y-2101640D03*
X134993790Y-3926640D03*
%TD*%
%TO.C,R50*%
X136975200Y-2101640D03*
X136975200Y-3926640D03*
%TD*%
D16*
%TO.C,R40*%
X120705888Y-7616060D03*
X120705888Y-5791060D03*
%TD*%
%TO.C,R39*%
X122739552Y-7616060D03*
X122739552Y-5791060D03*
%TD*%
%TO.C,R38*%
X124773216Y-7616060D03*
X124773216Y-5791060D03*
%TD*%
%TO.C,R37*%
X126806880Y-7616060D03*
X126806880Y-5791060D03*
%TD*%
%TO.C,R36*%
X128840544Y-7616060D03*
X128840544Y-5791060D03*
%TD*%
%TO.C,R35*%
X130874208Y-7616060D03*
X130874208Y-5791060D03*
%TD*%
%TO.C,R34*%
X132907872Y-7616060D03*
X132907872Y-5791060D03*
%TD*%
%TO.C,R33*%
X134941536Y-7616060D03*
X134941536Y-5791060D03*
%TD*%
%TO.C,R32*%
X136975200Y-7616060D03*
X136975200Y-5791060D03*
%TD*%
%TO.C,R22*%
X120725008Y-237220D03*
X120725008Y1587780D03*
%TD*%
%TO.C,R21*%
X122756282Y-237220D03*
X122756282Y1587780D03*
%TD*%
%TO.C,R20*%
X124787556Y-237220D03*
X124787556Y1587780D03*
%TD*%
%TO.C,R19*%
X126818830Y-237220D03*
X126818830Y1587780D03*
%TD*%
%TO.C,R18*%
X128850104Y-237220D03*
X128850104Y1587780D03*
%TD*%
%TO.C,R17*%
X130881378Y-237220D03*
X130881378Y1587780D03*
%TD*%
%TO.C,R16*%
X132912652Y-237220D03*
X132912652Y1587780D03*
%TD*%
%TO.C,R15*%
X134943926Y-237220D03*
X134943926Y1587780D03*
%TD*%
%TO.C,R14*%
X136975200Y-237220D03*
X136975200Y1587780D03*
%TD*%
D13*
%TO.C,R59*%
X118672224Y-5791060D03*
X118672224Y-7616060D03*
%TD*%
D17*
%TO.C,J3*%
X140449999Y-3499999D03*
X140449999Y-2849999D03*
X140449999Y-2199999D03*
X140449999Y-1549999D03*
X140449999Y-899999D03*
%TD*%
M02*
