G04 #@! TF.GenerationSoftware,KiCad,Pcbnew,(6.0.5-0)*
G04 #@! TF.CreationDate,2022-12-19T20:05:14-06:00*
G04 #@! TF.ProjectId,rascsi_zero,72617363-7369-45f7-9a65-726f2e6b6963,rev?*
G04 #@! TF.SameCoordinates,PX59d60c0PY325aa00*
G04 #@! TF.FileFunction,Soldermask,Top*
G04 #@! TF.FilePolarity,Negative*
%FSLAX46Y46*%
G04 Gerber Fmt 4.6, Leading zero omitted, Abs format (unit mm)*
G04 Created by KiCad (PCBNEW (6.0.5-0)) date 2022-12-19 20:05:14*
%MOMM*%
%LPD*%
G01*
G04 APERTURE LIST*
G04 Aperture macros list*
%AMRoundRect*
0 Rectangle with rounded corners*
0 $1 Rounding radius*
0 $2 $3 $4 $5 $6 $7 $8 $9 X,Y pos of 4 corners*
0 Add a 4 corners polygon primitive as box body*
4,1,4,$2,$3,$4,$5,$6,$7,$8,$9,$2,$3,0*
0 Add four circle primitives for the rounded corners*
1,1,$1+$1,$2,$3*
1,1,$1+$1,$4,$5*
1,1,$1+$1,$6,$7*
1,1,$1+$1,$8,$9*
0 Add four rect primitives between the rounded corners*
20,1,$1+$1,$2,$3,$4,$5,0*
20,1,$1+$1,$4,$5,$6,$7,0*
20,1,$1+$1,$6,$7,$8,$9,0*
20,1,$1+$1,$8,$9,$2,$3,0*%
%AMFreePoly0*
4,1,22,0.500000,-0.750000,0.000000,-0.750000,0.000000,-0.745033,-0.079941,-0.743568,-0.215256,-0.701293,-0.333266,-0.622738,-0.424486,-0.514219,-0.481581,-0.384460,-0.499164,-0.250000,-0.500000,-0.250000,-0.500000,0.250000,-0.499164,0.250000,-0.499963,0.256109,-0.478152,0.396186,-0.417904,0.524511,-0.324060,0.630769,-0.204165,0.706417,-0.067858,0.745374,0.000000,0.744959,0.000000,0.750000,
0.500000,0.750000,0.500000,-0.750000,0.500000,-0.750000,$1*%
%AMFreePoly1*
4,1,20,0.000000,0.744959,0.073905,0.744508,0.209726,0.703889,0.328688,0.626782,0.421226,0.519385,0.479903,0.390333,0.500000,0.250000,0.500000,-0.250000,0.499851,-0.262216,0.476331,-0.402017,0.414519,-0.529596,0.319384,-0.634700,0.198574,-0.708877,0.061801,-0.746166,0.000000,-0.745033,0.000000,-0.750000,-0.500000,-0.750000,-0.500000,0.750000,0.000000,0.750000,0.000000,0.744959,
0.000000,0.744959,$1*%
G04 Aperture macros list end*
%ADD10RoundRect,0.243750X-0.456250X0.243750X-0.456250X-0.243750X0.456250X-0.243750X0.456250X0.243750X0*%
%ADD11RoundRect,0.243750X0.243750X0.456250X-0.243750X0.456250X-0.243750X-0.456250X0.243750X-0.456250X0*%
%ADD12R,1.700000X1.700000*%
%ADD13O,1.700000X1.700000*%
%ADD14C,2.700000*%
%ADD15RoundRect,0.250000X-0.625000X0.375000X-0.625000X-0.375000X0.625000X-0.375000X0.625000X0.375000X0*%
%ADD16RoundRect,0.250000X-0.450000X0.262500X-0.450000X-0.262500X0.450000X-0.262500X0.450000X0.262500X0*%
%ADD17RoundRect,0.250000X0.262500X0.450000X-0.262500X0.450000X-0.262500X-0.450000X0.262500X-0.450000X0*%
%ADD18R,1.100000X1.100000*%
%ADD19RoundRect,0.250000X0.450000X-0.262500X0.450000X0.262500X-0.450000X0.262500X-0.450000X-0.262500X0*%
%ADD20FreePoly0,270.000000*%
%ADD21FreePoly1,270.000000*%
%ADD22C,0.650000*%
%ADD23R,1.400000X0.400000*%
%ADD24C,2.000000*%
%ADD25C,1.545000*%
%ADD26C,4.845000*%
G04 APERTURE END LIST*
D10*
X81273000Y-9651500D03*
X81273000Y-11526500D03*
D11*
X144313500Y-11478000D03*
X142438500Y-11478000D03*
X144313500Y-9192000D03*
X142438500Y-9192000D03*
D12*
X88670000Y5530000D03*
D13*
X88670000Y8070000D03*
X91210000Y5530000D03*
X91210000Y8070000D03*
X93750000Y5530000D03*
X93750000Y8070000D03*
X96290000Y5530000D03*
X96290000Y8070000D03*
X98830000Y5530000D03*
X98830000Y8070000D03*
X101370000Y5530000D03*
X101370000Y8070000D03*
X103910000Y5530000D03*
X103910000Y8070000D03*
X106450000Y5530000D03*
X106450000Y8070000D03*
X108990000Y5530000D03*
X108990000Y8070000D03*
X111530000Y5530000D03*
X111530000Y8070000D03*
X114070000Y5530000D03*
X114070000Y8070000D03*
X116610000Y5530000D03*
X116610000Y8070000D03*
X119150000Y5530000D03*
X119150000Y8070000D03*
X121690000Y5530000D03*
X121690000Y8070000D03*
X124230000Y5530000D03*
X124230000Y8070000D03*
X126770000Y5530000D03*
X126770000Y8070000D03*
X129310000Y5530000D03*
X129310000Y8070000D03*
X131850000Y5530000D03*
X131850000Y8070000D03*
X134390000Y5530000D03*
X134390000Y8070000D03*
X136930000Y5530000D03*
X136930000Y8070000D03*
D14*
X83800000Y6800000D03*
X83800000Y-16200000D03*
X141800000Y-16200000D03*
X141800000Y6800000D03*
D15*
X105794160Y-4510320D03*
X105794160Y-7310320D03*
D16*
X118672224Y1587780D03*
X118672224Y-237220D03*
D17*
X88512000Y-9700000D03*
X86687000Y-9700000D03*
X92091500Y-9700000D03*
X90266500Y-9700000D03*
D18*
X105860000Y-2750000D03*
X105860000Y50000D03*
D10*
X81273000Y-6017000D03*
X81273000Y-7892000D03*
D16*
X118672224Y-2101640D03*
X118672224Y-3926640D03*
X95549390Y-2101640D03*
X95549390Y-3926640D03*
X97586320Y-2101640D03*
X97586320Y-3926640D03*
X99623250Y-2101640D03*
X99623250Y-3926640D03*
X101660180Y-2101640D03*
X101660180Y-3926640D03*
X103697110Y-2101640D03*
X103697110Y-3926640D03*
X87401660Y-2101640D03*
X87401660Y-3926640D03*
X89438600Y-2101640D03*
X89438600Y-3926640D03*
X91475530Y-2101640D03*
X91475530Y-3926640D03*
X93512460Y-2101640D03*
X93512460Y-3926640D03*
D19*
X95536328Y-7616060D03*
X95536328Y-5791060D03*
X97569992Y-7616060D03*
X97569992Y-5791060D03*
X99603656Y-7616060D03*
X99603656Y-5791060D03*
X101637320Y-7616060D03*
X101637320Y-5791060D03*
X103670984Y-7616060D03*
X103670984Y-5791060D03*
X87401660Y-7616060D03*
X87401660Y-5791060D03*
X89435336Y-7616060D03*
X89435336Y-5791060D03*
X91469000Y-7616060D03*
X91469000Y-5791060D03*
X93502664Y-7616060D03*
X93502664Y-5791060D03*
X95567398Y-237220D03*
X95567398Y1587780D03*
X97598672Y-237220D03*
X97598672Y1587780D03*
X99629946Y-237220D03*
X99629946Y1587780D03*
X101661220Y-237220D03*
X101661220Y1587780D03*
X103692494Y-237220D03*
X103692494Y1587780D03*
X87401660Y-237220D03*
X87401660Y1587780D03*
X89473576Y-237220D03*
X89473576Y1587780D03*
X91504850Y-237220D03*
X91504850Y1587780D03*
X93536124Y-237220D03*
X93536124Y1587780D03*
D16*
X120735280Y-2101640D03*
X120735280Y-3926640D03*
X122772210Y-2101640D03*
X122772210Y-3926640D03*
X124809140Y-2101640D03*
X124809140Y-3926640D03*
X126846070Y-2101640D03*
X126846070Y-3926640D03*
X128883000Y-2101640D03*
X128883000Y-3926640D03*
X130919930Y-2101640D03*
X130919930Y-3926640D03*
X132956860Y-2101640D03*
X132956860Y-3926640D03*
X134993790Y-2101640D03*
X134993790Y-3926640D03*
X136975200Y-2101640D03*
X136975200Y-3926640D03*
D19*
X120705888Y-7616060D03*
X120705888Y-5791060D03*
X122739552Y-7616060D03*
X122739552Y-5791060D03*
X124773216Y-7616060D03*
X124773216Y-5791060D03*
X126806880Y-7616060D03*
X126806880Y-5791060D03*
X128840544Y-7616060D03*
X128840544Y-5791060D03*
X130874208Y-7616060D03*
X130874208Y-5791060D03*
X132907872Y-7616060D03*
X132907872Y-5791060D03*
X134941536Y-7616060D03*
X134941536Y-5791060D03*
X136975200Y-7616060D03*
X136975200Y-5791060D03*
X120725008Y-237220D03*
X120725008Y1587780D03*
X122756282Y-237220D03*
X122756282Y1587780D03*
X124787556Y-237220D03*
X124787556Y1587780D03*
X126818830Y-237220D03*
X126818830Y1587780D03*
X128850104Y-237220D03*
X128850104Y1587780D03*
X130881378Y-237220D03*
X130881378Y1587780D03*
X132912652Y-237220D03*
X132912652Y1587780D03*
X134943926Y-237220D03*
X134943926Y1587780D03*
X136975200Y-237220D03*
X136975200Y1587780D03*
D20*
X108310000Y-5900400D03*
D21*
X108310000Y-7200400D03*
D20*
X108310000Y-2500000D03*
D21*
X108310000Y-3800000D03*
D16*
X118672224Y-5791060D03*
X118672224Y-7616060D03*
D12*
X83810000Y-10980000D03*
D13*
X83810000Y-8440000D03*
X83810000Y-5900000D03*
X83810000Y-3360000D03*
X83810000Y-820000D03*
X83810000Y1720000D03*
D22*
X141270000Y-200000D03*
X141270000Y-4200000D03*
D23*
X140450000Y-3500000D03*
X140450000Y-2850000D03*
X140450000Y-2200000D03*
X140450000Y-1550000D03*
X140450000Y-900000D03*
D24*
X143400000Y-5775000D03*
X143400000Y1375000D03*
X139950000Y1375000D03*
X139950000Y-5775000D03*
D25*
X129420000Y-13002000D03*
X126650000Y-13002000D03*
X123880000Y-13002000D03*
X121110000Y-13002000D03*
X118340000Y-13002000D03*
X115570000Y-13002000D03*
X112800000Y-13002000D03*
X110030000Y-13002000D03*
X107260000Y-13002000D03*
X104490000Y-13002000D03*
X101720000Y-13002000D03*
X98950000Y-13002000D03*
X96180000Y-13002000D03*
X128035000Y-15842000D03*
X125265000Y-15842000D03*
X122495000Y-15842000D03*
X119725000Y-15842000D03*
X116955000Y-15842000D03*
X114185000Y-15842000D03*
X111415000Y-15842000D03*
X108645000Y-15842000D03*
X105875000Y-15842000D03*
X103105000Y-15842000D03*
X100335000Y-15842000D03*
X97565000Y-15842000D03*
D26*
X136320000Y-14422000D03*
X89280000Y-14422000D03*
D12*
X140836000Y-11732000D03*
D13*
X140836000Y-9192000D03*
M02*
