G04 #@! TF.GenerationSoftware,KiCad,Pcbnew,(6.0.5-0)*
G04 #@! TF.CreationDate,2022-12-19T20:05:14-06:00*
G04 #@! TF.ProjectId,rascsi_zero,72617363-7369-45f7-9a65-726f2e6b6963,rev?*
G04 #@! TF.SameCoordinates,PX59d60c0PY325aa00*
G04 #@! TF.FileFunction,Legend,Bot*
G04 #@! TF.FilePolarity,Positive*
%FSLAX46Y46*%
G04 Gerber Fmt 4.6, Leading zero omitted, Abs format (unit mm)*
G04 Created by KiCad (PCBNEW (6.0.5-0)) date 2022-12-19 20:05:14*
%MOMM*%
%LPD*%
G01*
G04 APERTURE LIST*
%ADD10C,0.120000*%
%ADD11C,0.150000*%
%ADD12C,0.375000*%
%ADD13C,0.254000*%
%ADD14C,0.200000*%
%ADD15C,0.010000*%
%ADD16R,1.700000X1.700000*%
%ADD17O,1.700000X1.700000*%
%ADD18C,2.700000*%
%ADD19C,0.650000*%
%ADD20C,2.000000*%
%ADD21R,0.650000X1.950000*%
%ADD22C,1.545000*%
%ADD23C,4.845000*%
%ADD24C,1.000000*%
G04 APERTURE END LIST*
D10*
X130910000Y-11566000D02*
X128370000Y-11566000D01*
X130910000Y-14233000D02*
X130910000Y-11566000D01*
X130783000Y-11693000D02*
X128497000Y-11693000D01*
X130783000Y-14106000D02*
X130783000Y-11693000D01*
X94879500Y-55963000D02*
X94879500Y-56217000D01*
X94943000Y-55963000D02*
X94879500Y-55963000D01*
X87618953Y-2231500D02*
G75*
G03*
X87618953Y-2231500I-511953J0D01*
G01*
X124575953Y-7502000D02*
G75*
G03*
X124575953Y-7502000I-511953J0D01*
G01*
X137593453Y-7502000D02*
G75*
G03*
X137593453Y-7502000I-511953J0D01*
G01*
X82457000Y-10954000D02*
X82457000Y-12478000D01*
X100572953Y-2168000D02*
G75*
G03*
X100572953Y-2168000I-511953J0D01*
G01*
X85187500Y3000000D02*
X82584000Y3000000D01*
X82584000Y3000000D02*
X82584000Y-9684000D01*
X82457000Y-12478000D02*
X83854000Y-12478000D01*
X141556000Y-10927000D02*
X141556000Y-11054000D01*
X85187500Y-9684000D02*
X85187500Y3000000D01*
X82584000Y-9684000D02*
X85187500Y-9684000D01*
D11*
X81508000Y2555429D02*
X81469904Y2631620D01*
X81469904Y2745905D01*
X81508000Y2860191D01*
X81584190Y2936381D01*
X81660380Y2974477D01*
X81812761Y3012572D01*
X81927047Y3012572D01*
X82079428Y2974477D01*
X82155619Y2936381D01*
X82231809Y2860191D01*
X82269904Y2745905D01*
X82269904Y2669715D01*
X82231809Y2555429D01*
X82193714Y2517334D01*
X81927047Y2517334D01*
X81927047Y2669715D01*
X82269904Y2174477D02*
X81469904Y2174477D01*
X81469904Y1869715D01*
X81508000Y1793524D01*
X81546095Y1755429D01*
X81622285Y1717334D01*
X81736571Y1717334D01*
X81812761Y1755429D01*
X81850857Y1793524D01*
X81888952Y1869715D01*
X81888952Y2174477D01*
X82269904Y1336381D02*
X82269904Y1184000D01*
X82231809Y1107810D01*
X82193714Y1069715D01*
X82079428Y993524D01*
X81927047Y955429D01*
X81622285Y955429D01*
X81546095Y993524D01*
X81508000Y1031620D01*
X81469904Y1107810D01*
X81469904Y1260191D01*
X81508000Y1336381D01*
X81546095Y1374477D01*
X81622285Y1412572D01*
X81812761Y1412572D01*
X81888952Y1374477D01*
X81927047Y1336381D01*
X81965142Y1260191D01*
X81965142Y1107810D01*
X81927047Y1031620D01*
X81888952Y993524D01*
X81812761Y955429D01*
X82260095Y-6966095D02*
X82260095Y-6470857D01*
X81955333Y-6737523D01*
X81955333Y-6623238D01*
X81917238Y-6547047D01*
X81879142Y-6508952D01*
X81802952Y-6470857D01*
X81612476Y-6470857D01*
X81536285Y-6508952D01*
X81498190Y-6547047D01*
X81460095Y-6623238D01*
X81460095Y-6851809D01*
X81498190Y-6928000D01*
X81536285Y-6966095D01*
X81536285Y-6128000D02*
X81498190Y-6089904D01*
X81460095Y-6128000D01*
X81498190Y-6166095D01*
X81536285Y-6128000D01*
X81460095Y-6128000D01*
X82260095Y-5823238D02*
X82260095Y-5328000D01*
X81955333Y-5594666D01*
X81955333Y-5480380D01*
X81917238Y-5404190D01*
X81879142Y-5366095D01*
X81802952Y-5328000D01*
X81612476Y-5328000D01*
X81536285Y-5366095D01*
X81498190Y-5404190D01*
X81460095Y-5480380D01*
X81460095Y-5708952D01*
X81498190Y-5785142D01*
X81536285Y-5823238D01*
X82222000Y-9277523D02*
X82260095Y-9353714D01*
X82260095Y-9468000D01*
X82222000Y-9582285D01*
X82145809Y-9658476D01*
X82069619Y-9696571D01*
X81917238Y-9734666D01*
X81802952Y-9734666D01*
X81650571Y-9696571D01*
X81574380Y-9658476D01*
X81498190Y-9582285D01*
X81460095Y-9468000D01*
X81460095Y-9391809D01*
X81498190Y-9277523D01*
X81536285Y-9239428D01*
X81802952Y-9239428D01*
X81802952Y-9391809D01*
X81460095Y-8896571D02*
X82260095Y-8896571D01*
X81460095Y-8439428D01*
X82260095Y-8439428D01*
X81460095Y-8058476D02*
X82260095Y-8058476D01*
X82260095Y-7868000D01*
X82222000Y-7753714D01*
X82145809Y-7677523D01*
X82069619Y-7639428D01*
X81917238Y-7601333D01*
X81802952Y-7601333D01*
X81650571Y-7639428D01*
X81574380Y-7677523D01*
X81498190Y-7753714D01*
X81460095Y-7868000D01*
X81460095Y-8058476D01*
X82260095Y-11322285D02*
X82260095Y-11703238D01*
X81879142Y-11741333D01*
X81917238Y-11703238D01*
X81955333Y-11627047D01*
X81955333Y-11436571D01*
X81917238Y-11360380D01*
X81879142Y-11322285D01*
X81802952Y-11284190D01*
X81612476Y-11284190D01*
X81536285Y-11322285D01*
X81498190Y-11360380D01*
X81460095Y-11436571D01*
X81460095Y-11627047D01*
X81498190Y-11703238D01*
X81536285Y-11741333D01*
X81993428Y-11017523D02*
X81460095Y-10827047D01*
X81993428Y-10636571D01*
D12*
X136059267Y-19150285D02*
X135834267Y-17350285D01*
X135148553Y-17350285D01*
X134987839Y-17436000D01*
X134912839Y-17521714D01*
X134848553Y-17693142D01*
X134880696Y-17950285D01*
X134987839Y-18121714D01*
X135084267Y-18207428D01*
X135266410Y-18293142D01*
X135952125Y-18293142D01*
X134259267Y-19150285D02*
X134109267Y-17950285D01*
X134034267Y-17350285D02*
X134130696Y-17436000D01*
X134055696Y-17521714D01*
X133959267Y-17436000D01*
X134034267Y-17350285D01*
X134055696Y-17521714D01*
X133477125Y-19064571D02*
X133230696Y-19150285D01*
X132802125Y-19150285D01*
X132619982Y-19064571D01*
X132523553Y-18978857D01*
X132416410Y-18807428D01*
X132394982Y-18636000D01*
X132459267Y-18464571D01*
X132534267Y-18378857D01*
X132694982Y-18293142D01*
X133027125Y-18207428D01*
X133187839Y-18121714D01*
X133262839Y-18036000D01*
X133327125Y-17864571D01*
X133305696Y-17693142D01*
X133198553Y-17521714D01*
X133102125Y-17436000D01*
X132919982Y-17350285D01*
X132491410Y-17350285D01*
X132244982Y-17436000D01*
X130637839Y-18978857D02*
X130734267Y-19064571D01*
X131002125Y-19150285D01*
X131173553Y-19150285D01*
X131419982Y-19064571D01*
X131569982Y-18893142D01*
X131634267Y-18721714D01*
X131677125Y-18378857D01*
X131644982Y-18121714D01*
X131516410Y-17778857D01*
X131409267Y-17607428D01*
X131216410Y-17436000D01*
X130948553Y-17350285D01*
X130777125Y-17350285D01*
X130530696Y-17436000D01*
X130455696Y-17521714D01*
X129962839Y-19064571D02*
X129716410Y-19150285D01*
X129287839Y-19150285D01*
X129105696Y-19064571D01*
X129009267Y-18978857D01*
X128902125Y-18807428D01*
X128880696Y-18636000D01*
X128944982Y-18464571D01*
X129019982Y-18378857D01*
X129180696Y-18293142D01*
X129512839Y-18207428D01*
X129673553Y-18121714D01*
X129748553Y-18036000D01*
X129812839Y-17864571D01*
X129791410Y-17693142D01*
X129684267Y-17521714D01*
X129587839Y-17436000D01*
X129405696Y-17350285D01*
X128977125Y-17350285D01*
X128730696Y-17436000D01*
X128173553Y-19150285D02*
X127948553Y-17350285D01*
D11*
X139263333Y7037620D02*
X139263333Y6323334D01*
X139310952Y6180477D01*
X139406190Y6085239D01*
X139549047Y6037620D01*
X139644285Y6037620D01*
X138263333Y6037620D02*
X138834761Y6037620D01*
X138549047Y6037620D02*
X138549047Y7037620D01*
X138644285Y6894762D01*
X138739523Y6799524D01*
X138834761Y6751905D01*
X130093333Y-14798904D02*
X130360000Y-14417952D01*
X130550476Y-14798904D02*
X130550476Y-13998904D01*
X130245714Y-13998904D01*
X130169523Y-14037000D01*
X130131428Y-14075095D01*
X130093333Y-14151285D01*
X130093333Y-14265571D01*
X130131428Y-14341761D01*
X130169523Y-14379857D01*
X130245714Y-14417952D01*
X130550476Y-14417952D01*
X129750476Y-14379857D02*
X129483809Y-14379857D01*
X129369523Y-14798904D02*
X129750476Y-14798904D01*
X129750476Y-13998904D01*
X129369523Y-13998904D01*
X128493333Y-14875095D02*
X128569523Y-14837000D01*
X128645714Y-14760809D01*
X128760000Y-14646523D01*
X128836190Y-14608428D01*
X128912380Y-14608428D01*
X128874285Y-14798904D02*
X128950476Y-14760809D01*
X129026666Y-14684619D01*
X129064761Y-14532238D01*
X129064761Y-14265571D01*
X129026666Y-14113190D01*
X128950476Y-14037000D01*
X128874285Y-13998904D01*
X128721904Y-13998904D01*
X128645714Y-14037000D01*
X128569523Y-14113190D01*
X128531428Y-14265571D01*
X128531428Y-14532238D01*
X128569523Y-14684619D01*
X128645714Y-14760809D01*
X128721904Y-14798904D01*
X128874285Y-14798904D01*
X96622476Y-14833904D02*
X96622476Y-14033904D01*
X96432000Y-14033904D01*
X96317714Y-14072000D01*
X96241523Y-14148190D01*
X96203428Y-14224380D01*
X96165333Y-14376761D01*
X96165333Y-14491047D01*
X96203428Y-14643428D01*
X96241523Y-14719619D01*
X96317714Y-14795809D01*
X96432000Y-14833904D01*
X96622476Y-14833904D01*
X95898666Y-14033904D02*
X95365333Y-14033904D01*
X95708190Y-14833904D01*
X111881523Y-17627904D02*
X111881523Y-16827904D01*
X111691047Y-16827904D01*
X111576761Y-16866000D01*
X111500571Y-16942190D01*
X111462476Y-17018380D01*
X111424380Y-17170761D01*
X111424380Y-17285047D01*
X111462476Y-17437428D01*
X111500571Y-17513619D01*
X111576761Y-17589809D01*
X111691047Y-17627904D01*
X111881523Y-17627904D01*
X111081523Y-17627904D02*
X111081523Y-16827904D01*
X110776761Y-16827904D01*
X110700571Y-16866000D01*
X110662476Y-16904095D01*
X110624380Y-16980285D01*
X110624380Y-17094571D01*
X110662476Y-17170761D01*
X110700571Y-17208857D01*
X110776761Y-17246952D01*
X111081523Y-17246952D01*
X120568285Y-17399333D02*
X120187333Y-17399333D01*
X120644476Y-17627904D02*
X120377809Y-16827904D01*
X120111142Y-17627904D01*
X119958761Y-16827904D02*
X119501619Y-16827904D01*
X119730190Y-17627904D02*
X119730190Y-16827904D01*
X119234952Y-17627904D02*
X119234952Y-16827904D01*
X118777809Y-17627904D01*
X118777809Y-16827904D01*
X119288476Y-14608429D02*
X118907523Y-14608429D01*
X119364666Y-14837000D02*
X119098000Y-14037000D01*
X118831333Y-14837000D01*
X118107523Y-14760810D02*
X118145619Y-14798905D01*
X118259904Y-14837000D01*
X118336095Y-14837000D01*
X118450380Y-14798905D01*
X118526571Y-14722715D01*
X118564666Y-14646524D01*
X118602761Y-14494143D01*
X118602761Y-14379857D01*
X118564666Y-14227476D01*
X118526571Y-14151286D01*
X118450380Y-14075096D01*
X118336095Y-14037000D01*
X118259904Y-14037000D01*
X118145619Y-14075096D01*
X118107523Y-14113191D01*
X117764666Y-14837000D02*
X117764666Y-14037000D01*
X117307523Y-14837000D02*
X117650380Y-14379857D01*
X117307523Y-14037000D02*
X117764666Y-14494143D01*
X125813428Y-17551714D02*
X125851523Y-17589809D01*
X125965809Y-17627904D01*
X126042000Y-17627904D01*
X126156285Y-17589809D01*
X126232476Y-17513619D01*
X126270571Y-17437428D01*
X126308666Y-17285047D01*
X126308666Y-17170761D01*
X126270571Y-17018380D01*
X126232476Y-16942190D01*
X126156285Y-16866000D01*
X126042000Y-16827904D01*
X125965809Y-16827904D01*
X125851523Y-16866000D01*
X125813428Y-16904095D01*
X124899142Y-16789809D02*
X125584857Y-17818380D01*
X124632476Y-17627904D02*
X124632476Y-16827904D01*
X124442000Y-16827904D01*
X124327714Y-16866000D01*
X124251523Y-16942190D01*
X124213428Y-17018380D01*
X124175333Y-17170761D01*
X124175333Y-17285047D01*
X124213428Y-17437428D01*
X124251523Y-17513619D01*
X124327714Y-17589809D01*
X124442000Y-17627904D01*
X124632476Y-17627904D01*
X105004476Y-14833904D02*
X105004476Y-14033904D01*
X104814000Y-14033904D01*
X104699714Y-14072000D01*
X104623523Y-14148190D01*
X104585428Y-14224380D01*
X104547333Y-14376761D01*
X104547333Y-14491047D01*
X104585428Y-14643428D01*
X104623523Y-14719619D01*
X104699714Y-14795809D01*
X104814000Y-14833904D01*
X105004476Y-14833904D01*
X104280666Y-14033904D02*
X103785428Y-14033904D01*
X104052095Y-14338666D01*
X103937809Y-14338666D01*
X103861619Y-14376761D01*
X103823523Y-14414857D01*
X103785428Y-14491047D01*
X103785428Y-14681523D01*
X103823523Y-14757714D01*
X103861619Y-14795809D01*
X103937809Y-14833904D01*
X104166380Y-14833904D01*
X104242571Y-14795809D01*
X104280666Y-14757714D01*
X99041714Y-16827904D02*
X98584571Y-16827904D01*
X98813142Y-17627904D02*
X98813142Y-16827904D01*
X98317904Y-17627904D02*
X98317904Y-16827904D01*
X98013142Y-16827904D01*
X97936952Y-16866000D01*
X97898857Y-16904095D01*
X97860761Y-16980285D01*
X97860761Y-17094571D01*
X97898857Y-17170761D01*
X97936952Y-17208857D01*
X98013142Y-17246952D01*
X98317904Y-17246952D01*
X97594095Y-16827904D02*
X97403619Y-17627904D01*
X97251238Y-17056476D01*
X97098857Y-17627904D01*
X96908380Y-16827904D01*
X96146476Y-17627904D02*
X96413142Y-17246952D01*
X96603619Y-17627904D02*
X96603619Y-16827904D01*
X96298857Y-16827904D01*
X96222666Y-16866000D01*
X96184571Y-16904095D01*
X96146476Y-16980285D01*
X96146476Y-17094571D01*
X96184571Y-17170761D01*
X96222666Y-17208857D01*
X96298857Y-17246952D01*
X96603619Y-17246952D01*
X127559619Y-14833904D02*
X127559619Y-14033904D01*
X127292952Y-14605333D01*
X127026285Y-14033904D01*
X127026285Y-14833904D01*
X126683428Y-14795809D02*
X126569142Y-14833904D01*
X126378666Y-14833904D01*
X126302476Y-14795809D01*
X126264380Y-14757714D01*
X126226285Y-14681523D01*
X126226285Y-14605333D01*
X126264380Y-14529142D01*
X126302476Y-14491047D01*
X126378666Y-14452952D01*
X126531047Y-14414857D01*
X126607238Y-14376761D01*
X126645333Y-14338666D01*
X126683428Y-14262476D01*
X126683428Y-14186285D01*
X126645333Y-14110095D01*
X126607238Y-14072000D01*
X126531047Y-14033904D01*
X126340571Y-14033904D01*
X126226285Y-14072000D01*
X125464380Y-14072000D02*
X125540571Y-14033904D01*
X125654857Y-14033904D01*
X125769142Y-14072000D01*
X125845333Y-14148190D01*
X125883428Y-14224380D01*
X125921523Y-14376761D01*
X125921523Y-14491047D01*
X125883428Y-14643428D01*
X125845333Y-14719619D01*
X125769142Y-14795809D01*
X125654857Y-14833904D01*
X125578666Y-14833904D01*
X125464380Y-14795809D01*
X125426285Y-14757714D01*
X125426285Y-14491047D01*
X125578666Y-14491047D01*
X106274476Y-17627904D02*
X106274476Y-16827904D01*
X106084000Y-16827904D01*
X105969714Y-16866000D01*
X105893523Y-16942190D01*
X105855428Y-17018380D01*
X105817333Y-17170761D01*
X105817333Y-17285047D01*
X105855428Y-17437428D01*
X105893523Y-17513619D01*
X105969714Y-17589809D01*
X106084000Y-17627904D01*
X106274476Y-17627904D01*
X105512571Y-16904095D02*
X105474476Y-16866000D01*
X105398285Y-16827904D01*
X105207809Y-16827904D01*
X105131619Y-16866000D01*
X105093523Y-16904095D01*
X105055428Y-16980285D01*
X105055428Y-17056476D01*
X105093523Y-17170761D01*
X105550666Y-17627904D01*
X105055428Y-17627904D01*
X103734476Y-17627904D02*
X103734476Y-16827904D01*
X103544000Y-16827904D01*
X103429714Y-16866000D01*
X103353523Y-16942190D01*
X103315428Y-17018380D01*
X103277333Y-17170761D01*
X103277333Y-17285047D01*
X103315428Y-17437428D01*
X103353523Y-17513619D01*
X103429714Y-17589809D01*
X103544000Y-17627904D01*
X103734476Y-17627904D01*
X102591619Y-17094571D02*
X102591619Y-17627904D01*
X102782095Y-16789809D02*
X102972571Y-17361238D01*
X102477333Y-17361238D01*
X109068476Y-17627904D02*
X109068476Y-16827904D01*
X108878000Y-16827904D01*
X108763714Y-16866000D01*
X108687523Y-16942190D01*
X108649428Y-17018380D01*
X108611333Y-17170761D01*
X108611333Y-17285047D01*
X108649428Y-17437428D01*
X108687523Y-17513619D01*
X108763714Y-17589809D01*
X108878000Y-17627904D01*
X109068476Y-17627904D01*
X107849428Y-17627904D02*
X108306571Y-17627904D01*
X108078000Y-17627904D02*
X108078000Y-16827904D01*
X108154190Y-16942190D01*
X108230380Y-17018380D01*
X108306571Y-17056476D01*
X99330476Y-14833904D02*
X99330476Y-14033904D01*
X99140000Y-14033904D01*
X99025714Y-14072000D01*
X98949523Y-14148190D01*
X98911428Y-14224380D01*
X98873333Y-14376761D01*
X98873333Y-14491047D01*
X98911428Y-14643428D01*
X98949523Y-14719619D01*
X99025714Y-14795809D01*
X99140000Y-14833904D01*
X99330476Y-14833904D01*
X98187619Y-14033904D02*
X98340000Y-14033904D01*
X98416190Y-14072000D01*
X98454285Y-14110095D01*
X98530476Y-14224380D01*
X98568571Y-14376761D01*
X98568571Y-14681523D01*
X98530476Y-14757714D01*
X98492380Y-14795809D01*
X98416190Y-14833904D01*
X98263809Y-14833904D01*
X98187619Y-14795809D01*
X98149523Y-14757714D01*
X98111428Y-14681523D01*
X98111428Y-14491047D01*
X98149523Y-14414857D01*
X98187619Y-14376761D01*
X98263809Y-14338666D01*
X98416190Y-14338666D01*
X98492380Y-14376761D01*
X98530476Y-14414857D01*
X98568571Y-14491047D01*
X116002666Y-14414857D02*
X115888380Y-14452952D01*
X115850285Y-14491047D01*
X115812190Y-14567238D01*
X115812190Y-14681523D01*
X115850285Y-14757714D01*
X115888380Y-14795809D01*
X115964571Y-14833904D01*
X116269333Y-14833904D01*
X116269333Y-14033904D01*
X116002666Y-14033904D01*
X115926476Y-14072000D01*
X115888380Y-14110095D01*
X115850285Y-14186285D01*
X115850285Y-14262476D01*
X115888380Y-14338666D01*
X115926476Y-14376761D01*
X116002666Y-14414857D01*
X116269333Y-14414857D01*
X115507428Y-14795809D02*
X115393142Y-14833904D01*
X115202666Y-14833904D01*
X115126476Y-14795809D01*
X115088380Y-14757714D01*
X115050285Y-14681523D01*
X115050285Y-14605333D01*
X115088380Y-14529142D01*
X115126476Y-14491047D01*
X115202666Y-14452952D01*
X115355047Y-14414857D01*
X115431238Y-14376761D01*
X115469333Y-14338666D01*
X115507428Y-14262476D01*
X115507428Y-14186285D01*
X115469333Y-14110095D01*
X115431238Y-14072000D01*
X115355047Y-14033904D01*
X115164571Y-14033904D01*
X115050285Y-14072000D01*
X114555047Y-14452952D02*
X114555047Y-14833904D01*
X114821714Y-14033904D02*
X114555047Y-14452952D01*
X114288380Y-14033904D01*
X102210476Y-14833904D02*
X102210476Y-14033904D01*
X102020000Y-14033904D01*
X101905714Y-14072000D01*
X101829523Y-14148190D01*
X101791428Y-14224380D01*
X101753333Y-14376761D01*
X101753333Y-14491047D01*
X101791428Y-14643428D01*
X101829523Y-14719619D01*
X101905714Y-14795809D01*
X102020000Y-14833904D01*
X102210476Y-14833904D01*
X101029523Y-14033904D02*
X101410476Y-14033904D01*
X101448571Y-14414857D01*
X101410476Y-14376761D01*
X101334285Y-14338666D01*
X101143809Y-14338666D01*
X101067619Y-14376761D01*
X101029523Y-14414857D01*
X100991428Y-14491047D01*
X100991428Y-14681523D01*
X101029523Y-14757714D01*
X101067619Y-14795809D01*
X101143809Y-14833904D01*
X101334285Y-14833904D01*
X101410476Y-14795809D01*
X101448571Y-14757714D01*
X110506476Y-14833904D02*
X110506476Y-14033904D01*
X110316000Y-14033904D01*
X110201714Y-14072000D01*
X110125523Y-14148190D01*
X110087428Y-14224380D01*
X110049333Y-14376761D01*
X110049333Y-14491047D01*
X110087428Y-14643428D01*
X110125523Y-14719619D01*
X110201714Y-14795809D01*
X110316000Y-14833904D01*
X110506476Y-14833904D01*
X109554095Y-14033904D02*
X109477904Y-14033904D01*
X109401714Y-14072000D01*
X109363619Y-14110095D01*
X109325523Y-14186285D01*
X109287428Y-14338666D01*
X109287428Y-14529142D01*
X109325523Y-14681523D01*
X109363619Y-14757714D01*
X109401714Y-14795809D01*
X109477904Y-14833904D01*
X109554095Y-14833904D01*
X109630285Y-14795809D01*
X109668380Y-14757714D01*
X109706476Y-14681523D01*
X109744571Y-14529142D01*
X109744571Y-14338666D01*
X109706476Y-14186285D01*
X109668380Y-14110095D01*
X109630285Y-14072000D01*
X109554095Y-14033904D01*
X114980285Y-17589809D02*
X114866000Y-17627904D01*
X114675523Y-17627904D01*
X114599333Y-17589809D01*
X114561238Y-17551714D01*
X114523142Y-17475523D01*
X114523142Y-17399333D01*
X114561238Y-17323142D01*
X114599333Y-17285047D01*
X114675523Y-17246952D01*
X114827904Y-17208857D01*
X114904095Y-17170761D01*
X114942190Y-17132666D01*
X114980285Y-17056476D01*
X114980285Y-16980285D01*
X114942190Y-16904095D01*
X114904095Y-16866000D01*
X114827904Y-16827904D01*
X114637428Y-16827904D01*
X114523142Y-16866000D01*
X114180285Y-17208857D02*
X113913619Y-17208857D01*
X113799333Y-17627904D02*
X114180285Y-17627904D01*
X114180285Y-16827904D01*
X113799333Y-16827904D01*
X113075523Y-17627904D02*
X113456476Y-17627904D01*
X113456476Y-16827904D01*
X121403095Y-14833904D02*
X121669761Y-14452952D01*
X121860238Y-14833904D02*
X121860238Y-14033904D01*
X121555476Y-14033904D01*
X121479285Y-14072000D01*
X121441190Y-14110095D01*
X121403095Y-14186285D01*
X121403095Y-14300571D01*
X121441190Y-14376761D01*
X121479285Y-14414857D01*
X121555476Y-14452952D01*
X121860238Y-14452952D01*
X121098333Y-14795809D02*
X120984047Y-14833904D01*
X120793571Y-14833904D01*
X120717380Y-14795809D01*
X120679285Y-14757714D01*
X120641190Y-14681523D01*
X120641190Y-14605333D01*
X120679285Y-14529142D01*
X120717380Y-14491047D01*
X120793571Y-14452952D01*
X120945952Y-14414857D01*
X121022142Y-14376761D01*
X121060238Y-14338666D01*
X121098333Y-14262476D01*
X121098333Y-14186285D01*
X121060238Y-14110095D01*
X121022142Y-14072000D01*
X120945952Y-14033904D01*
X120755476Y-14033904D01*
X120641190Y-14072000D01*
X120412619Y-14033904D02*
X119955476Y-14033904D01*
X120184047Y-14833904D02*
X120184047Y-14033904D01*
X124302095Y-14833904D02*
X124302095Y-14033904D01*
X123349714Y-13995809D02*
X124035428Y-15024380D01*
X122930666Y-14033904D02*
X122778285Y-14033904D01*
X122702095Y-14072000D01*
X122625904Y-14148190D01*
X122587809Y-14300571D01*
X122587809Y-14567238D01*
X122625904Y-14719619D01*
X122702095Y-14795809D01*
X122778285Y-14833904D01*
X122930666Y-14833904D01*
X123006857Y-14795809D01*
X123083047Y-14719619D01*
X123121142Y-14567238D01*
X123121142Y-14300571D01*
X123083047Y-14148190D01*
X123006857Y-14072000D01*
X122930666Y-14033904D01*
X132279333Y-12454380D02*
X132279333Y-13168666D01*
X132326952Y-13311523D01*
X132422190Y-13406761D01*
X132565047Y-13454380D01*
X132660285Y-13454380D01*
X131374571Y-12454380D02*
X131565047Y-12454380D01*
X131660285Y-12502000D01*
X131707904Y-12549619D01*
X131803142Y-12692476D01*
X131850761Y-12882952D01*
X131850761Y-13263904D01*
X131803142Y-13359142D01*
X131755523Y-13406761D01*
X131660285Y-13454380D01*
X131469809Y-13454380D01*
X131374571Y-13406761D01*
X131326952Y-13359142D01*
X131279333Y-13263904D01*
X131279333Y-13025809D01*
X131326952Y-12930571D01*
X131374571Y-12882952D01*
X131469809Y-12835333D01*
X131660285Y-12835333D01*
X131755523Y-12882952D01*
X131803142Y-12930571D01*
X131850761Y-13025809D01*
X81498190Y-4286380D02*
X81460095Y-4172095D01*
X81460095Y-3981619D01*
X81498190Y-3905428D01*
X81536285Y-3867333D01*
X81612476Y-3829238D01*
X81688666Y-3829238D01*
X81764857Y-3867333D01*
X81802952Y-3905428D01*
X81841047Y-3981619D01*
X81879142Y-4134000D01*
X81917238Y-4210190D01*
X81955333Y-4248285D01*
X82031523Y-4286380D01*
X82107714Y-4286380D01*
X82183904Y-4248285D01*
X82222000Y-4210190D01*
X82260095Y-4134000D01*
X82260095Y-3943523D01*
X82222000Y-3829238D01*
X81536285Y-3029238D02*
X81498190Y-3067333D01*
X81460095Y-3181619D01*
X81460095Y-3257809D01*
X81498190Y-3372095D01*
X81574380Y-3448285D01*
X81650571Y-3486380D01*
X81802952Y-3524476D01*
X81917238Y-3524476D01*
X82069619Y-3486380D01*
X82145809Y-3448285D01*
X82222000Y-3372095D01*
X82260095Y-3257809D01*
X82260095Y-3181619D01*
X82222000Y-3067333D01*
X82183904Y-3029238D01*
X81460095Y-2305428D02*
X81460095Y-2686380D01*
X82260095Y-2686380D01*
X81498190Y-1765428D02*
X81460095Y-1651142D01*
X81460095Y-1460666D01*
X81498190Y-1384476D01*
X81536285Y-1346380D01*
X81612476Y-1308285D01*
X81688666Y-1308285D01*
X81764857Y-1346380D01*
X81802952Y-1384476D01*
X81841047Y-1460666D01*
X81879142Y-1613047D01*
X81917238Y-1689238D01*
X81955333Y-1727333D01*
X82031523Y-1765428D01*
X82107714Y-1765428D01*
X82183904Y-1727333D01*
X82222000Y-1689238D01*
X82260095Y-1613047D01*
X82260095Y-1422571D01*
X82222000Y-1308285D01*
X81460095Y-965428D02*
X82260095Y-965428D01*
X82260095Y-774952D01*
X82222000Y-660666D01*
X82145809Y-584476D01*
X82069619Y-546380D01*
X81917238Y-508285D01*
X81802952Y-508285D01*
X81650571Y-546380D01*
X81574380Y-584476D01*
X81498190Y-660666D01*
X81460095Y-774952D01*
X81460095Y-965428D01*
X81688666Y-203523D02*
X81688666Y177429D01*
X81460095Y-279714D02*
X82260095Y-13047D01*
X81460095Y253620D01*
X137150476Y3172620D02*
X137150476Y4172620D01*
X136769523Y4172620D01*
X136674285Y4125000D01*
X136626666Y4077381D01*
X136579047Y3982143D01*
X136579047Y3839286D01*
X136626666Y3744048D01*
X136674285Y3696429D01*
X136769523Y3648810D01*
X137150476Y3648810D01*
X136150476Y3172620D02*
X136150476Y3839286D01*
X136150476Y4172620D02*
X136198095Y4125000D01*
X136150476Y4077381D01*
X136102857Y4125000D01*
X136150476Y4172620D01*
X136150476Y4077381D01*
X135721904Y3220239D02*
X135579047Y3172620D01*
X135340952Y3172620D01*
X135245714Y3220239D01*
X135198095Y3267858D01*
X135150476Y3363096D01*
X135150476Y3458334D01*
X135198095Y3553572D01*
X135245714Y3601191D01*
X135340952Y3648810D01*
X135531428Y3696429D01*
X135626666Y3744048D01*
X135674285Y3791667D01*
X135721904Y3886905D01*
X135721904Y3982143D01*
X135674285Y4077381D01*
X135626666Y4125000D01*
X135531428Y4172620D01*
X135293333Y4172620D01*
X135150476Y4125000D01*
X134150476Y3267858D02*
X134198095Y3220239D01*
X134340952Y3172620D01*
X134436190Y3172620D01*
X134579047Y3220239D01*
X134674285Y3315477D01*
X134721904Y3410715D01*
X134769523Y3601191D01*
X134769523Y3744048D01*
X134721904Y3934524D01*
X134674285Y4029762D01*
X134579047Y4125000D01*
X134436190Y4172620D01*
X134340952Y4172620D01*
X134198095Y4125000D01*
X134150476Y4077381D01*
X133769523Y3220239D02*
X133626666Y3172620D01*
X133388571Y3172620D01*
X133293333Y3220239D01*
X133245714Y3267858D01*
X133198095Y3363096D01*
X133198095Y3458334D01*
X133245714Y3553572D01*
X133293333Y3601191D01*
X133388571Y3648810D01*
X133579047Y3696429D01*
X133674285Y3744048D01*
X133721904Y3791667D01*
X133769523Y3886905D01*
X133769523Y3982143D01*
X133721904Y4077381D01*
X133674285Y4125000D01*
X133579047Y4172620D01*
X133340952Y4172620D01*
X133198095Y4125000D01*
X132769523Y3172620D02*
X132769523Y4172620D01*
X131626666Y4172620D02*
X130960000Y4172620D01*
X131626666Y3172620D01*
X130960000Y3172620D01*
X130198095Y3220239D02*
X130293333Y3172620D01*
X130483809Y3172620D01*
X130579047Y3220239D01*
X130626666Y3315477D01*
X130626666Y3696429D01*
X130579047Y3791667D01*
X130483809Y3839286D01*
X130293333Y3839286D01*
X130198095Y3791667D01*
X130150476Y3696429D01*
X130150476Y3601191D01*
X130626666Y3505953D01*
X129721904Y3172620D02*
X129721904Y3839286D01*
X129721904Y3648810D02*
X129674285Y3744048D01*
X129626666Y3791667D01*
X129531428Y3839286D01*
X129436190Y3839286D01*
X128960000Y3172620D02*
X129055238Y3220239D01*
X129102857Y3267858D01*
X129150476Y3363096D01*
X129150476Y3648810D01*
X129102857Y3744048D01*
X129055238Y3791667D01*
X128960000Y3839286D01*
X128817142Y3839286D01*
X128721904Y3791667D01*
X128674285Y3744048D01*
X128626666Y3648810D01*
X128626666Y3363096D01*
X128674285Y3267858D01*
X128721904Y3220239D01*
X128817142Y3172620D01*
X128960000Y3172620D01*
X127531428Y3839286D02*
X127293333Y3172620D01*
X127055238Y3839286D01*
X126150476Y3172620D02*
X126721904Y3172620D01*
X126436190Y3172620D02*
X126436190Y4172620D01*
X126531428Y4029762D01*
X126626666Y3934524D01*
X126721904Y3886905D01*
X125721904Y3267858D02*
X125674285Y3220239D01*
X125721904Y3172620D01*
X125769523Y3220239D01*
X125721904Y3267858D01*
X125721904Y3172620D01*
X124721904Y3172620D02*
X125293333Y3172620D01*
X125007619Y3172620D02*
X125007619Y4172620D01*
X125102857Y4029762D01*
X125198095Y3934524D01*
X125293333Y3886905D01*
X137174285Y2086429D02*
X137507619Y2086429D01*
X137507619Y1562620D02*
X137507619Y2562620D01*
X137031428Y2562620D01*
X136650476Y2562620D02*
X136650476Y1753096D01*
X136602857Y1657858D01*
X136555238Y1610239D01*
X136460000Y1562620D01*
X136269523Y1562620D01*
X136174285Y1610239D01*
X136126666Y1657858D01*
X136079047Y1753096D01*
X136079047Y2562620D01*
X135126666Y1562620D02*
X135602857Y1562620D01*
X135602857Y2562620D01*
X134317142Y1562620D02*
X134793333Y1562620D01*
X134793333Y2562620D01*
X134031428Y1610239D02*
X133888571Y1562620D01*
X133650476Y1562620D01*
X133555238Y1610239D01*
X133507619Y1657858D01*
X133460000Y1753096D01*
X133460000Y1848334D01*
X133507619Y1943572D01*
X133555238Y1991191D01*
X133650476Y2038810D01*
X133840952Y2086429D01*
X133936190Y2134048D01*
X133983809Y2181667D01*
X134031428Y2276905D01*
X134031428Y2372143D01*
X133983809Y2467381D01*
X133936190Y2515000D01*
X133840952Y2562620D01*
X133602857Y2562620D01*
X133460000Y2515000D01*
X133031428Y1562620D02*
X133031428Y2562620D01*
X132650476Y2562620D01*
X132555238Y2515000D01*
X132507619Y2467381D01*
X132460000Y2372143D01*
X132460000Y2229286D01*
X132507619Y2134048D01*
X132555238Y2086429D01*
X132650476Y2038810D01*
X133031428Y2038810D01*
X132031428Y2086429D02*
X131698095Y2086429D01*
X131555238Y1562620D02*
X132031428Y1562620D01*
X132031428Y2562620D01*
X131555238Y2562620D01*
X130555238Y1657858D02*
X130602857Y1610239D01*
X130745714Y1562620D01*
X130840952Y1562620D01*
X130983809Y1610239D01*
X131079047Y1705477D01*
X131126666Y1800715D01*
X131174285Y1991191D01*
X131174285Y2134048D01*
X131126666Y2324524D01*
X131079047Y2419762D01*
X130983809Y2515000D01*
X130840952Y2562620D01*
X130745714Y2562620D01*
X130602857Y2515000D01*
X130555238Y2467381D01*
X129507619Y2562620D02*
X129174285Y1562620D01*
X128840952Y2562620D01*
X128126666Y1610239D02*
X128221904Y1562620D01*
X128412380Y1562620D01*
X128507619Y1610239D01*
X128555238Y1705477D01*
X128555238Y2086429D01*
X128507619Y2181667D01*
X128412380Y2229286D01*
X128221904Y2229286D01*
X128126666Y2181667D01*
X128079047Y2086429D01*
X128079047Y1991191D01*
X128555238Y1895953D01*
X127650476Y1562620D02*
X127650476Y2229286D01*
X127650476Y2038810D02*
X127602857Y2134048D01*
X127555238Y2181667D01*
X127460000Y2229286D01*
X127364761Y2229286D01*
X127079047Y1610239D02*
X126983809Y1562620D01*
X126793333Y1562620D01*
X126698095Y1610239D01*
X126650476Y1705477D01*
X126650476Y1753096D01*
X126698095Y1848334D01*
X126793333Y1895953D01*
X126936190Y1895953D01*
X127031428Y1943572D01*
X127079047Y2038810D01*
X127079047Y2086429D01*
X127031428Y2181667D01*
X126936190Y2229286D01*
X126793333Y2229286D01*
X126698095Y2181667D01*
X126221904Y1562620D02*
X126221904Y2229286D01*
X126221904Y2562620D02*
X126269523Y2515000D01*
X126221904Y2467381D01*
X126174285Y2515000D01*
X126221904Y2562620D01*
X126221904Y2467381D01*
X125602857Y1562620D02*
X125698095Y1610239D01*
X125745714Y1657858D01*
X125793333Y1753096D01*
X125793333Y2038810D01*
X125745714Y2134048D01*
X125698095Y2181667D01*
X125602857Y2229286D01*
X125460000Y2229286D01*
X125364761Y2181667D01*
X125317142Y2134048D01*
X125269523Y2038810D01*
X125269523Y1753096D01*
X125317142Y1657858D01*
X125364761Y1610239D01*
X125460000Y1562620D01*
X125602857Y1562620D01*
X124840952Y2229286D02*
X124840952Y1562620D01*
X124840952Y2134048D02*
X124793333Y2181667D01*
X124698095Y2229286D01*
X124555238Y2229286D01*
X124460000Y2181667D01*
X124412380Y2086429D01*
X124412380Y1562620D01*
X86305333Y-11819380D02*
X86305333Y-12533666D01*
X86352952Y-12676523D01*
X86448190Y-12771761D01*
X86591047Y-12819380D01*
X86686285Y-12819380D01*
X85400571Y-12152714D02*
X85400571Y-12819380D01*
X85638666Y-11771761D02*
X85876761Y-12486047D01*
X85257714Y-12486047D01*
X83392380Y4453334D02*
X84106666Y4453334D01*
X84249523Y4500953D01*
X84344761Y4596191D01*
X84392380Y4739048D01*
X84392380Y4834286D01*
X83392380Y4072381D02*
X83392380Y3405715D01*
X84392380Y3834286D01*
X107283333Y3267858D02*
X107330952Y3220239D01*
X107473809Y3172620D01*
X107569047Y3172620D01*
X107711904Y3220239D01*
X107807142Y3315477D01*
X107854761Y3410715D01*
X107902380Y3601191D01*
X107902380Y3744048D01*
X107854761Y3934524D01*
X107807142Y4029762D01*
X107711904Y4125000D01*
X107569047Y4172620D01*
X107473809Y4172620D01*
X107330952Y4125000D01*
X107283333Y4077381D01*
X106711904Y3172620D02*
X106807142Y3220239D01*
X106854761Y3267858D01*
X106902380Y3363096D01*
X106902380Y3648810D01*
X106854761Y3744048D01*
X106807142Y3791667D01*
X106711904Y3839286D01*
X106569047Y3839286D01*
X106473809Y3791667D01*
X106426190Y3744048D01*
X106378571Y3648810D01*
X106378571Y3363096D01*
X106426190Y3267858D01*
X106473809Y3220239D01*
X106569047Y3172620D01*
X106711904Y3172620D01*
X105950000Y3839286D02*
X105950000Y2839286D01*
X105950000Y3791667D02*
X105854761Y3839286D01*
X105664285Y3839286D01*
X105569047Y3791667D01*
X105521428Y3744048D01*
X105473809Y3648810D01*
X105473809Y3363096D01*
X105521428Y3267858D01*
X105569047Y3220239D01*
X105664285Y3172620D01*
X105854761Y3172620D01*
X105950000Y3220239D01*
X105140476Y3839286D02*
X104902380Y3172620D01*
X104664285Y3839286D02*
X104902380Y3172620D01*
X104997619Y2934524D01*
X105045238Y2886905D01*
X105140476Y2839286D01*
X104283333Y3172620D02*
X104283333Y3839286D01*
X104283333Y3648810D02*
X104235714Y3744048D01*
X104188095Y3791667D01*
X104092857Y3839286D01*
X103997619Y3839286D01*
X103664285Y3172620D02*
X103664285Y3839286D01*
X103664285Y4172620D02*
X103711904Y4125000D01*
X103664285Y4077381D01*
X103616666Y4125000D01*
X103664285Y4172620D01*
X103664285Y4077381D01*
X102759523Y3839286D02*
X102759523Y3029762D01*
X102807142Y2934524D01*
X102854761Y2886905D01*
X102950000Y2839286D01*
X103092857Y2839286D01*
X103188095Y2886905D01*
X102759523Y3220239D02*
X102854761Y3172620D01*
X103045238Y3172620D01*
X103140476Y3220239D01*
X103188095Y3267858D01*
X103235714Y3363096D01*
X103235714Y3648810D01*
X103188095Y3744048D01*
X103140476Y3791667D01*
X103045238Y3839286D01*
X102854761Y3839286D01*
X102759523Y3791667D01*
X102283333Y3172620D02*
X102283333Y4172620D01*
X101854761Y3172620D02*
X101854761Y3696429D01*
X101902380Y3791667D01*
X101997619Y3839286D01*
X102140476Y3839286D01*
X102235714Y3791667D01*
X102283333Y3744048D01*
X101521428Y3839286D02*
X101140476Y3839286D01*
X101378571Y4172620D02*
X101378571Y3315477D01*
X101330952Y3220239D01*
X101235714Y3172620D01*
X101140476Y3172620D01*
X100092857Y4077381D02*
X100045238Y4125000D01*
X99950000Y4172620D01*
X99711904Y4172620D01*
X99616666Y4125000D01*
X99569047Y4077381D01*
X99521428Y3982143D01*
X99521428Y3886905D01*
X99569047Y3744048D01*
X100140476Y3172620D01*
X99521428Y3172620D01*
X98902380Y4172620D02*
X98807142Y4172620D01*
X98711904Y4125000D01*
X98664285Y4077381D01*
X98616666Y3982143D01*
X98569047Y3791667D01*
X98569047Y3553572D01*
X98616666Y3363096D01*
X98664285Y3267858D01*
X98711904Y3220239D01*
X98807142Y3172620D01*
X98902380Y3172620D01*
X98997619Y3220239D01*
X99045238Y3267858D01*
X99092857Y3363096D01*
X99140476Y3553572D01*
X99140476Y3791667D01*
X99092857Y3982143D01*
X99045238Y4077381D01*
X98997619Y4125000D01*
X98902380Y4172620D01*
X98188095Y4077381D02*
X98140476Y4125000D01*
X98045238Y4172620D01*
X97807142Y4172620D01*
X97711904Y4125000D01*
X97664285Y4077381D01*
X97616666Y3982143D01*
X97616666Y3886905D01*
X97664285Y3744048D01*
X98235714Y3172620D01*
X97616666Y3172620D01*
X97235714Y4077381D02*
X97188095Y4125000D01*
X97092857Y4172620D01*
X96854761Y4172620D01*
X96759523Y4125000D01*
X96711904Y4077381D01*
X96664285Y3982143D01*
X96664285Y3886905D01*
X96711904Y3744048D01*
X97283333Y3172620D01*
X96664285Y3172620D01*
X95045238Y3172620D02*
X95045238Y3696429D01*
X95092857Y3791667D01*
X95188095Y3839286D01*
X95378571Y3839286D01*
X95473809Y3791667D01*
X95045238Y3220239D02*
X95140476Y3172620D01*
X95378571Y3172620D01*
X95473809Y3220239D01*
X95521428Y3315477D01*
X95521428Y3410715D01*
X95473809Y3505953D01*
X95378571Y3553572D01*
X95140476Y3553572D01*
X95045238Y3601191D01*
X94569047Y3172620D02*
X94569047Y4172620D01*
X94473809Y3553572D02*
X94188095Y3172620D01*
X94188095Y3839286D02*
X94569047Y3458334D01*
X93330952Y3839286D02*
X93330952Y3172620D01*
X93759523Y3839286D02*
X93759523Y3315477D01*
X93711904Y3220239D01*
X93616666Y3172620D01*
X93473809Y3172620D01*
X93378571Y3220239D01*
X93330952Y3267858D01*
X92854761Y3172620D02*
X92854761Y4172620D01*
X92759523Y3553572D02*
X92473809Y3172620D01*
X92473809Y3839286D02*
X92854761Y3458334D01*
X91664285Y3220239D02*
X91759523Y3172620D01*
X91950000Y3172620D01*
X92045238Y3220239D01*
X92092857Y3315477D01*
X92092857Y3696429D01*
X92045238Y3791667D01*
X91950000Y3839286D01*
X91759523Y3839286D01*
X91664285Y3791667D01*
X91616666Y3696429D01*
X91616666Y3601191D01*
X92092857Y3505953D01*
X91188095Y3172620D02*
X91188095Y3839286D01*
X91188095Y3648810D02*
X91140476Y3744048D01*
X91092857Y3791667D01*
X90997619Y3839286D01*
X90902380Y3839286D01*
X109188095Y1562620D02*
X109188095Y2562620D01*
X108759523Y1562620D02*
X108759523Y2086429D01*
X108807142Y2181667D01*
X108902380Y2229286D01*
X109045238Y2229286D01*
X109140476Y2181667D01*
X109188095Y2134048D01*
X108426190Y2229286D02*
X108045238Y2229286D01*
X108283333Y2562620D02*
X108283333Y1705477D01*
X108235714Y1610239D01*
X108140476Y1562620D01*
X108045238Y1562620D01*
X107854761Y2229286D02*
X107473809Y2229286D01*
X107711904Y2562620D02*
X107711904Y1705477D01*
X107664285Y1610239D01*
X107569047Y1562620D01*
X107473809Y1562620D01*
X107140476Y2229286D02*
X107140476Y1229286D01*
X107140476Y2181667D02*
X107045238Y2229286D01*
X106854761Y2229286D01*
X106759523Y2181667D01*
X106711904Y2134048D01*
X106664285Y2038810D01*
X106664285Y1753096D01*
X106711904Y1657858D01*
X106759523Y1610239D01*
X106854761Y1562620D01*
X107045238Y1562620D01*
X107140476Y1610239D01*
X106283333Y1610239D02*
X106188095Y1562620D01*
X105997619Y1562620D01*
X105902380Y1610239D01*
X105854761Y1705477D01*
X105854761Y1753096D01*
X105902380Y1848334D01*
X105997619Y1895953D01*
X106140476Y1895953D01*
X106235714Y1943572D01*
X106283333Y2038810D01*
X106283333Y2086429D01*
X106235714Y2181667D01*
X106140476Y2229286D01*
X105997619Y2229286D01*
X105902380Y2181667D01*
X105426190Y1657858D02*
X105378571Y1610239D01*
X105426190Y1562620D01*
X105473809Y1610239D01*
X105426190Y1657858D01*
X105426190Y1562620D01*
X105426190Y2181667D02*
X105378571Y2134048D01*
X105426190Y2086429D01*
X105473809Y2134048D01*
X105426190Y2181667D01*
X105426190Y2086429D01*
X104235714Y2610239D02*
X105092857Y1324524D01*
X103188095Y2610239D02*
X104045238Y1324524D01*
X102426190Y2229286D02*
X102426190Y1419762D01*
X102473809Y1324524D01*
X102521428Y1276905D01*
X102616666Y1229286D01*
X102759523Y1229286D01*
X102854761Y1276905D01*
X102426190Y1610239D02*
X102521428Y1562620D01*
X102711904Y1562620D01*
X102807142Y1610239D01*
X102854761Y1657858D01*
X102902380Y1753096D01*
X102902380Y2038810D01*
X102854761Y2134048D01*
X102807142Y2181667D01*
X102711904Y2229286D01*
X102521428Y2229286D01*
X102426190Y2181667D01*
X101950000Y1562620D02*
X101950000Y2229286D01*
X101950000Y2562620D02*
X101997619Y2515000D01*
X101950000Y2467381D01*
X101902380Y2515000D01*
X101950000Y2562620D01*
X101950000Y2467381D01*
X101616666Y2229286D02*
X101235714Y2229286D01*
X101473809Y2562620D02*
X101473809Y1705477D01*
X101426190Y1610239D01*
X101330952Y1562620D01*
X101235714Y1562620D01*
X100902380Y1562620D02*
X100902380Y2562620D01*
X100473809Y1562620D02*
X100473809Y2086429D01*
X100521428Y2181667D01*
X100616666Y2229286D01*
X100759523Y2229286D01*
X100854761Y2181667D01*
X100902380Y2134048D01*
X99569047Y2229286D02*
X99569047Y1562620D01*
X99997619Y2229286D02*
X99997619Y1705477D01*
X99950000Y1610239D01*
X99854761Y1562620D01*
X99711904Y1562620D01*
X99616666Y1610239D01*
X99569047Y1657858D01*
X99092857Y1562620D02*
X99092857Y2562620D01*
X99092857Y2181667D02*
X98997619Y2229286D01*
X98807142Y2229286D01*
X98711904Y2181667D01*
X98664285Y2134048D01*
X98616666Y2038810D01*
X98616666Y1753096D01*
X98664285Y1657858D01*
X98711904Y1610239D01*
X98807142Y1562620D01*
X98997619Y1562620D01*
X99092857Y1610239D01*
X98188095Y1657858D02*
X98140476Y1610239D01*
X98188095Y1562620D01*
X98235714Y1610239D01*
X98188095Y1657858D01*
X98188095Y1562620D01*
X97283333Y1610239D02*
X97378571Y1562620D01*
X97569047Y1562620D01*
X97664285Y1610239D01*
X97711904Y1657858D01*
X97759523Y1753096D01*
X97759523Y2038810D01*
X97711904Y2134048D01*
X97664285Y2181667D01*
X97569047Y2229286D01*
X97378571Y2229286D01*
X97283333Y2181667D01*
X96711904Y1562620D02*
X96807142Y1610239D01*
X96854761Y1657858D01*
X96902380Y1753096D01*
X96902380Y2038810D01*
X96854761Y2134048D01*
X96807142Y2181667D01*
X96711904Y2229286D01*
X96569047Y2229286D01*
X96473809Y2181667D01*
X96426190Y2134048D01*
X96378571Y2038810D01*
X96378571Y1753096D01*
X96426190Y1657858D01*
X96473809Y1610239D01*
X96569047Y1562620D01*
X96711904Y1562620D01*
X95950000Y1562620D02*
X95950000Y2229286D01*
X95950000Y2134048D02*
X95902380Y2181667D01*
X95807142Y2229286D01*
X95664285Y2229286D01*
X95569047Y2181667D01*
X95521428Y2086429D01*
X95521428Y1562620D01*
X95521428Y2086429D02*
X95473809Y2181667D01*
X95378571Y2229286D01*
X95235714Y2229286D01*
X95140476Y2181667D01*
X95092857Y2086429D01*
X95092857Y1562620D01*
X93902380Y2610239D02*
X94759523Y1324524D01*
X93569047Y2229286D02*
X93569047Y1229286D01*
X93569047Y2181667D02*
X93473809Y2229286D01*
X93283333Y2229286D01*
X93188095Y2181667D01*
X93140476Y2134048D01*
X93092857Y2038810D01*
X93092857Y1753096D01*
X93140476Y1657858D01*
X93188095Y1610239D01*
X93283333Y1562620D01*
X93473809Y1562620D01*
X93569047Y1610239D01*
X92664285Y1562620D02*
X92664285Y2229286D01*
X92664285Y2562620D02*
X92711904Y2515000D01*
X92664285Y2467381D01*
X92616666Y2515000D01*
X92664285Y2562620D01*
X92664285Y2467381D01*
X92235714Y1610239D02*
X92140476Y1562620D01*
X91950000Y1562620D01*
X91854761Y1610239D01*
X91807142Y1705477D01*
X91807142Y1753096D01*
X91854761Y1848334D01*
X91950000Y1895953D01*
X92092857Y1895953D01*
X92188095Y1943572D01*
X92235714Y2038810D01*
X92235714Y2086429D01*
X92188095Y2181667D01*
X92092857Y2229286D01*
X91950000Y2229286D01*
X91854761Y2181667D01*
X90950000Y1610239D02*
X91045238Y1562620D01*
X91235714Y1562620D01*
X91330952Y1610239D01*
X91378571Y1657858D01*
X91426190Y1753096D01*
X91426190Y2038810D01*
X91378571Y2134048D01*
X91330952Y2181667D01*
X91235714Y2229286D01*
X91045238Y2229286D01*
X90950000Y2181667D01*
X90569047Y1610239D02*
X90473809Y1562620D01*
X90283333Y1562620D01*
X90188095Y1610239D01*
X90140476Y1705477D01*
X90140476Y1753096D01*
X90188095Y1848334D01*
X90283333Y1895953D01*
X90426190Y1895953D01*
X90521428Y1943572D01*
X90569047Y2038810D01*
X90569047Y2086429D01*
X90521428Y2181667D01*
X90426190Y2229286D01*
X90283333Y2229286D01*
X90188095Y2181667D01*
X89711904Y1562620D02*
X89711904Y2229286D01*
X89711904Y2562620D02*
X89759523Y2515000D01*
X89711904Y2467381D01*
X89664285Y2515000D01*
X89711904Y2562620D01*
X89711904Y2467381D01*
D13*
X124454403Y-3339118D02*
X123184403Y-3339118D01*
X124333451Y-4669594D02*
X124393927Y-4609118D01*
X124454403Y-4427689D01*
X124454403Y-4306737D01*
X124393927Y-4125308D01*
X124272975Y-4004356D01*
X124152022Y-3943880D01*
X123910118Y-3883403D01*
X123728689Y-3883403D01*
X123486784Y-3943880D01*
X123365832Y-4004356D01*
X123244880Y-4125308D01*
X123184403Y-4306737D01*
X123184403Y-4427689D01*
X123244880Y-4609118D01*
X123305356Y-4669594D01*
X124454403Y-5879118D02*
X124454403Y-5153403D01*
X124454403Y-5516260D02*
X123184403Y-5516260D01*
X123365832Y-5395308D01*
X123486784Y-5274356D01*
X123547260Y-5153403D01*
X100784403Y-3659118D02*
X99514403Y-3659118D01*
X100663451Y-4989594D02*
X100723927Y-4929118D01*
X100784403Y-4747689D01*
X100784403Y-4626737D01*
X100723927Y-4445308D01*
X100602975Y-4324356D01*
X100482022Y-4263880D01*
X100240118Y-4203403D01*
X100058689Y-4203403D01*
X99816784Y-4263880D01*
X99695832Y-4324356D01*
X99574880Y-4445308D01*
X99514403Y-4626737D01*
X99514403Y-4747689D01*
X99574880Y-4929118D01*
X99635356Y-4989594D01*
X99514403Y-5412927D02*
X99514403Y-6199118D01*
X99998213Y-5775784D01*
X99998213Y-5957213D01*
X100058689Y-6078165D01*
X100119165Y-6138641D01*
X100240118Y-6199118D01*
X100542499Y-6199118D01*
X100663451Y-6138641D01*
X100723927Y-6078165D01*
X100784403Y-5957213D01*
X100784403Y-5594356D01*
X100723927Y-5473403D01*
X100663451Y-5412927D01*
X87744403Y-3489118D02*
X86474403Y-3489118D01*
X87623451Y-4819594D02*
X87683927Y-4759118D01*
X87744403Y-4577689D01*
X87744403Y-4456737D01*
X87683927Y-4275308D01*
X87562975Y-4154356D01*
X87442022Y-4093880D01*
X87200118Y-4033403D01*
X87018689Y-4033403D01*
X86776784Y-4093880D01*
X86655832Y-4154356D01*
X86534880Y-4275308D01*
X86474403Y-4456737D01*
X86474403Y-4577689D01*
X86534880Y-4759118D01*
X86595356Y-4819594D01*
X86897737Y-5908165D02*
X87744403Y-5908165D01*
X86413927Y-5605784D02*
X87321070Y-5303403D01*
X87321070Y-6089594D01*
X137564403Y-3789118D02*
X136294403Y-3789118D01*
X137443451Y-5119594D02*
X137503927Y-5059118D01*
X137564403Y-4877689D01*
X137564403Y-4756737D01*
X137503927Y-4575308D01*
X137382975Y-4454356D01*
X137262022Y-4393880D01*
X137020118Y-4333403D01*
X136838689Y-4333403D01*
X136596784Y-4393880D01*
X136475832Y-4454356D01*
X136354880Y-4575308D01*
X136294403Y-4756737D01*
X136294403Y-4877689D01*
X136354880Y-5059118D01*
X136415356Y-5119594D01*
X136415356Y-5603403D02*
X136354880Y-5663880D01*
X136294403Y-5784832D01*
X136294403Y-6087213D01*
X136354880Y-6208165D01*
X136415356Y-6268641D01*
X136536308Y-6329118D01*
X136657260Y-6329118D01*
X136838689Y-6268641D01*
X137564403Y-5542927D01*
X137564403Y-6329118D01*
D11*
X144053333Y-13332380D02*
X144053333Y-14046666D01*
X144100952Y-14189523D01*
X144196190Y-14284761D01*
X144339047Y-14332380D01*
X144434285Y-14332380D01*
X143624761Y-13427619D02*
X143577142Y-13380000D01*
X143481904Y-13332380D01*
X143243809Y-13332380D01*
X143148571Y-13380000D01*
X143100952Y-13427619D01*
X143053333Y-13522857D01*
X143053333Y-13618095D01*
X143100952Y-13760952D01*
X143672380Y-14332380D01*
X143053333Y-14332380D01*
D14*
X112225880Y-8313880D02*
X125025880Y-8313880D01*
X125015880Y-10613880D02*
X125015880Y-8663880D01*
X125025880Y-8313880D02*
X125025880Y-1513880D01*
X125025880Y-1513880D02*
X112225880Y-1513880D01*
X112225880Y-1513880D02*
X112225880Y-8313880D01*
X99281880Y786120D02*
X99281880Y-1163880D01*
X99271880Y-1513880D02*
X99271880Y-8313880D01*
X99271880Y-8313880D02*
X112071880Y-8313880D01*
X112071880Y-1513880D02*
X99271880Y-1513880D01*
X112071880Y-8313880D02*
X112071880Y-1513880D01*
G36*
X91664967Y-6710733D02*
G01*
X91461767Y-6710733D01*
X91461767Y-7557399D01*
X91037842Y-7557399D01*
X91042371Y-7138300D01*
X91046900Y-6719199D01*
X91254333Y-6714445D01*
X91461767Y-6709690D01*
X91461767Y-6524466D01*
X91664967Y-6524466D01*
X91664967Y-6710733D01*
G37*
D15*
X91664967Y-6710733D02*
X91461767Y-6710733D01*
X91461767Y-7557399D01*
X91037842Y-7557399D01*
X91042371Y-7138300D01*
X91046900Y-6719199D01*
X91254333Y-6714445D01*
X91461767Y-6709690D01*
X91461767Y-6524466D01*
X91664967Y-6524466D01*
X91664967Y-6710733D01*
G36*
X90428833Y-7134066D02*
G01*
X90225633Y-7134066D01*
X90225633Y-6930866D01*
X90428833Y-6930866D01*
X90428833Y-7134066D01*
G37*
X90428833Y-7134066D02*
X90225633Y-7134066D01*
X90225633Y-6930866D01*
X90428833Y-6930866D01*
X90428833Y-7134066D01*
G36*
X96406300Y-2392733D02*
G01*
X96203100Y-2392733D01*
X96203100Y-2003266D01*
X96406300Y-2003266D01*
X96406300Y-2392733D01*
G37*
X96406300Y-2392733D02*
X96203100Y-2392733D01*
X96203100Y-2003266D01*
X96406300Y-2003266D01*
X96406300Y-2392733D01*
G36*
X91664967Y-2392733D02*
G01*
X91461767Y-2392733D01*
X91461767Y-2003266D01*
X91664967Y-2003266D01*
X91664967Y-2392733D01*
G37*
X91664967Y-2392733D02*
X91461767Y-2392733D01*
X91461767Y-2003266D01*
X91664967Y-2003266D01*
X91664967Y-2392733D01*
G36*
X90826767Y-7565866D02*
G01*
X90831808Y-7671700D01*
X90836849Y-7777533D01*
X91038433Y-7777533D01*
X91038433Y-7963799D01*
X90835233Y-7963799D01*
X90835233Y-7777533D01*
X90428833Y-7777533D01*
X90428833Y-7963799D01*
X90225633Y-7963799D01*
X90225633Y-7556618D01*
X90826767Y-7565866D01*
G37*
X90826767Y-7565866D02*
X90831808Y-7671700D01*
X90836849Y-7777533D01*
X91038433Y-7777533D01*
X91038433Y-7963799D01*
X90835233Y-7963799D01*
X90835233Y-7777533D01*
X90428833Y-7777533D01*
X90428833Y-7963799D01*
X90225633Y-7963799D01*
X90225633Y-7556618D01*
X90826767Y-7565866D01*
G36*
X96795766Y-6118066D02*
G01*
X96592566Y-6118066D01*
X96592566Y-5897933D01*
X96795766Y-5897933D01*
X96795766Y-6118066D01*
G37*
X96795766Y-6118066D02*
X96592566Y-6118066D01*
X96592566Y-5897933D01*
X96795766Y-5897933D01*
X96795766Y-6118066D01*
G36*
X96406300Y-5508466D02*
G01*
X96203100Y-5508466D01*
X96203100Y-4052200D01*
X96406300Y-4052200D01*
X96406300Y-5508466D01*
G37*
X96406300Y-5508466D02*
X96203100Y-5508466D01*
X96203100Y-4052200D01*
X96406300Y-4052200D01*
X96406300Y-5508466D01*
G36*
X96592566Y-5897933D02*
G01*
X96406300Y-5897933D01*
X96406300Y-5508466D01*
X96592566Y-5508466D01*
X96592566Y-5897933D01*
G37*
X96592566Y-5897933D02*
X96406300Y-5897933D01*
X96406300Y-5508466D01*
X96592566Y-5508466D01*
X96592566Y-5897933D01*
G36*
X89404366Y-6922399D02*
G01*
X89510200Y-6927441D01*
X89616033Y-6932482D01*
X89616033Y-7132296D01*
X89704933Y-7137415D01*
X89793833Y-7142533D01*
X89798368Y-7553166D01*
X89802902Y-7963799D01*
X90225633Y-7963799D01*
X90225633Y-8166999D01*
X89802300Y-8166999D01*
X89802300Y-7963799D01*
X89616033Y-7963799D01*
X89616033Y-7134066D01*
X89392892Y-7134066D01*
X89404366Y-6930804D01*
X89192700Y-6930866D01*
X89192700Y-6710733D01*
X89394284Y-6710733D01*
X89404366Y-6922399D01*
G37*
X89404366Y-6922399D02*
X89510200Y-6927441D01*
X89616033Y-6932482D01*
X89616033Y-7132296D01*
X89704933Y-7137415D01*
X89793833Y-7142533D01*
X89798368Y-7553166D01*
X89802902Y-7963799D01*
X90225633Y-7963799D01*
X90225633Y-8166999D01*
X89802300Y-8166999D01*
X89802300Y-7963799D01*
X89616033Y-7963799D01*
X89616033Y-7134066D01*
X89392892Y-7134066D01*
X89404366Y-6930804D01*
X89192700Y-6930866D01*
X89192700Y-6710733D01*
X89394284Y-6710733D01*
X89404366Y-6922399D01*
G36*
X95776341Y-1694233D02*
G01*
X95781383Y-1800066D01*
X96203100Y-1800066D01*
X96203100Y-2003266D01*
X95779766Y-2003266D01*
X95779766Y-1800066D01*
X95170166Y-1800066D01*
X95170166Y-2003266D01*
X94746833Y-2003266D01*
X94746833Y-1800066D01*
X95168550Y-1800066D01*
X95173592Y-1694233D01*
X95178633Y-1588400D01*
X95771300Y-1588400D01*
X95776341Y-1694233D01*
G37*
X95776341Y-1694233D02*
X95781383Y-1800066D01*
X96203100Y-1800066D01*
X96203100Y-2003266D01*
X95779766Y-2003266D01*
X95779766Y-1800066D01*
X95170166Y-1800066D01*
X95170166Y-2003266D01*
X94746833Y-2003266D01*
X94746833Y-1800066D01*
X95168550Y-1800066D01*
X95173592Y-1694233D01*
X95178633Y-1588400D01*
X95771300Y-1588400D01*
X95776341Y-1694233D01*
G36*
X95356433Y-2391117D02*
G01*
X95462266Y-2396158D01*
X95568100Y-2401199D01*
X95572736Y-2704751D01*
X95573211Y-2738439D01*
X95573909Y-2845782D01*
X95572718Y-2924050D01*
X95569437Y-2977001D01*
X95563865Y-3008396D01*
X95555803Y-3021992D01*
X95542256Y-3026886D01*
X95500104Y-3033313D01*
X95445333Y-3035940D01*
X95356433Y-3036199D01*
X95356433Y-2392733D01*
X95170166Y-2392733D01*
X95170166Y-2003266D01*
X95356433Y-2003266D01*
X95356433Y-2391117D01*
G37*
X95356433Y-2391117D02*
X95462266Y-2396158D01*
X95568100Y-2401199D01*
X95572736Y-2704751D01*
X95573211Y-2738439D01*
X95573909Y-2845782D01*
X95572718Y-2924050D01*
X95569437Y-2977001D01*
X95563865Y-3008396D01*
X95555803Y-3021992D01*
X95542256Y-3026886D01*
X95500104Y-3033313D01*
X95445333Y-3035940D01*
X95356433Y-3036199D01*
X95356433Y-2392733D01*
X95170166Y-2392733D01*
X95170166Y-2003266D01*
X95356433Y-2003266D01*
X95356433Y-2391117D01*
G36*
X96592566Y-4052200D02*
G01*
X96406300Y-4052200D01*
X96406300Y-2392733D01*
X96592566Y-2392733D01*
X96592566Y-4052200D01*
G37*
X96592566Y-4052200D02*
X96406300Y-4052200D01*
X96406300Y-2392733D01*
X96592566Y-2392733D01*
X96592566Y-4052200D01*
G36*
X88769367Y-6524466D02*
G01*
X88566167Y-6524466D01*
X88566167Y-5897933D01*
X88769367Y-5897933D01*
X88769367Y-6524466D01*
G37*
X88769367Y-6524466D02*
X88566167Y-6524466D01*
X88566167Y-5897933D01*
X88769367Y-5897933D01*
X88769367Y-6524466D01*
G36*
X90648966Y-2390963D02*
G01*
X90737867Y-2396081D01*
X90826767Y-2401199D01*
X90835597Y-3848999D01*
X91038433Y-3848999D01*
X91038433Y-4052200D01*
X91461767Y-4052200D01*
X91461767Y-4863957D01*
X91254333Y-4868712D01*
X91046900Y-4873466D01*
X91041858Y-4979299D01*
X91036817Y-5085133D01*
X90649748Y-5085133D01*
X90645124Y-5385699D01*
X90640500Y-5686266D01*
X90534666Y-5691308D01*
X90428833Y-5696349D01*
X90428833Y-5897933D01*
X88769367Y-5897933D01*
X88769367Y-5694733D01*
X90428052Y-5694733D01*
X90437300Y-5093599D01*
X90648966Y-5083517D01*
X90648966Y-2392733D01*
X90428833Y-2392733D01*
X90428833Y-2003266D01*
X90648966Y-2003266D01*
X90648966Y-2390963D01*
G37*
X90648966Y-2390963D02*
X90737867Y-2396081D01*
X90826767Y-2401199D01*
X90835597Y-3848999D01*
X91038433Y-3848999D01*
X91038433Y-4052200D01*
X91461767Y-4052200D01*
X91461767Y-4863957D01*
X91254333Y-4868712D01*
X91046900Y-4873466D01*
X91041858Y-4979299D01*
X91036817Y-5085133D01*
X90649748Y-5085133D01*
X90645124Y-5385699D01*
X90640500Y-5686266D01*
X90534666Y-5691308D01*
X90428833Y-5696349D01*
X90428833Y-5897933D01*
X88769367Y-5897933D01*
X88769367Y-5694733D01*
X90428052Y-5694733D01*
X90437300Y-5093599D01*
X90648966Y-5083517D01*
X90648966Y-2392733D01*
X90428833Y-2392733D01*
X90428833Y-2003266D01*
X90648966Y-2003266D01*
X90648966Y-2390963D01*
G36*
X91664967Y-8166999D02*
G01*
X91038433Y-8166999D01*
X91038433Y-7963799D01*
X91461767Y-7963799D01*
X91461767Y-7557399D01*
X91664967Y-7557399D01*
X91664967Y-8166999D01*
G37*
X91664967Y-8166999D02*
X91038433Y-8166999D01*
X91038433Y-7963799D01*
X91461767Y-7963799D01*
X91461767Y-7557399D01*
X91664967Y-7557399D01*
X91664967Y-8166999D01*
G36*
X89192700Y-6710733D02*
G01*
X88769367Y-6710733D01*
X88769367Y-6524466D01*
X89192700Y-6524466D01*
X89192700Y-6710733D01*
G37*
X89192700Y-6710733D02*
X88769367Y-6710733D01*
X88769367Y-6524466D01*
X89192700Y-6524466D01*
X89192700Y-6710733D01*
G36*
X90428833Y-2003266D02*
G01*
X90225633Y-2003266D01*
X90225633Y-1800066D01*
X90428833Y-1800066D01*
X90428833Y-2003266D01*
G37*
X90428833Y-2003266D02*
X90225633Y-2003266D01*
X90225633Y-1800066D01*
X90428833Y-1800066D01*
X90428833Y-2003266D01*
G36*
X91868166Y-3645799D02*
G01*
X94746833Y-3645799D01*
X94746833Y-3425666D01*
X95170166Y-3425666D01*
X95170166Y-3036199D01*
X95356433Y-3036199D01*
X95356433Y-3425666D01*
X95171783Y-3425666D01*
X95166741Y-3531499D01*
X95161700Y-3637333D01*
X94954267Y-3642087D01*
X94746833Y-3646842D01*
X94746833Y-3849191D01*
X91876633Y-3840533D01*
X91871555Y-3743166D01*
X91866476Y-3645799D01*
X91664967Y-3645799D01*
X91664967Y-2392733D01*
X91868166Y-2392733D01*
X91868166Y-3645799D01*
G37*
X91868166Y-3645799D02*
X94746833Y-3645799D01*
X94746833Y-3425666D01*
X95170166Y-3425666D01*
X95170166Y-3036199D01*
X95356433Y-3036199D01*
X95356433Y-3425666D01*
X95171783Y-3425666D01*
X95166741Y-3531499D01*
X95161700Y-3637333D01*
X94954267Y-3642087D01*
X94746833Y-3646842D01*
X94746833Y-3849191D01*
X91876633Y-3840533D01*
X91871555Y-3743166D01*
X91866476Y-3645799D01*
X91664967Y-3645799D01*
X91664967Y-2392733D01*
X91868166Y-2392733D01*
X91868166Y-3645799D01*
G36*
X92071366Y-6524466D02*
G01*
X91664967Y-6524466D01*
X91664967Y-6118066D01*
X92071366Y-6118066D01*
X92071366Y-6524466D01*
G37*
X92071366Y-6524466D02*
X91664967Y-6524466D01*
X91664967Y-6118066D01*
X92071366Y-6118066D01*
X92071366Y-6524466D01*
G36*
X94750545Y-5292566D02*
G01*
X94755300Y-5499999D01*
X95170166Y-5509509D01*
X95170166Y-5896858D01*
X95369133Y-5901629D01*
X95568100Y-5906399D01*
X95568100Y-6118128D01*
X95779766Y-6118066D01*
X95779766Y-6523424D01*
X95987200Y-6528178D01*
X96194633Y-6532933D01*
X96199723Y-6621013D01*
X96204813Y-6709094D01*
X96301323Y-6714147D01*
X96397833Y-6719199D01*
X96402875Y-6825033D01*
X96407916Y-6930866D01*
X96592566Y-6930866D01*
X96592566Y-7134066D01*
X96795766Y-7134066D01*
X96795766Y-6118066D01*
X97016267Y-6118066D01*
X97011850Y-6833499D01*
X97007433Y-7548933D01*
X96905833Y-7557399D01*
X96804233Y-7565866D01*
X96799171Y-7672520D01*
X96794108Y-7779173D01*
X96697571Y-7774120D01*
X96601033Y-7769066D01*
X96591819Y-7134066D01*
X96406300Y-7134066D01*
X96406300Y-6930866D01*
X96203100Y-6930866D01*
X96203100Y-6710733D01*
X95779766Y-6710733D01*
X95779766Y-6524466D01*
X95577641Y-6524466D01*
X95572871Y-6325500D01*
X95568100Y-6126533D01*
X93819733Y-6122220D01*
X92071366Y-6117908D01*
X92071366Y-5897933D01*
X92901100Y-5897933D01*
X92901100Y-5694733D01*
X93087367Y-5694733D01*
X93087367Y-5508466D01*
X93510700Y-5508466D01*
X93510700Y-5085133D01*
X94745791Y-5085133D01*
X94750545Y-5292566D01*
G37*
X94750545Y-5292566D02*
X94755300Y-5499999D01*
X95170166Y-5509509D01*
X95170166Y-5896858D01*
X95369133Y-5901629D01*
X95568100Y-5906399D01*
X95568100Y-6118128D01*
X95779766Y-6118066D01*
X95779766Y-6523424D01*
X95987200Y-6528178D01*
X96194633Y-6532933D01*
X96199723Y-6621013D01*
X96204813Y-6709094D01*
X96301323Y-6714147D01*
X96397833Y-6719199D01*
X96402875Y-6825033D01*
X96407916Y-6930866D01*
X96592566Y-6930866D01*
X96592566Y-7134066D01*
X96795766Y-7134066D01*
X96795766Y-6118066D01*
X97016267Y-6118066D01*
X97011850Y-6833499D01*
X97007433Y-7548933D01*
X96905833Y-7557399D01*
X96804233Y-7565866D01*
X96799171Y-7672520D01*
X96794108Y-7779173D01*
X96697571Y-7774120D01*
X96601033Y-7769066D01*
X96591819Y-7134066D01*
X96406300Y-7134066D01*
X96406300Y-6930866D01*
X96203100Y-6930866D01*
X96203100Y-6710733D01*
X95779766Y-6710733D01*
X95779766Y-6524466D01*
X95577641Y-6524466D01*
X95572871Y-6325500D01*
X95568100Y-6126533D01*
X93819733Y-6122220D01*
X92071366Y-6117908D01*
X92071366Y-5897933D01*
X92901100Y-5897933D01*
X92901100Y-5694733D01*
X93087367Y-5694733D01*
X93087367Y-5508466D01*
X93510700Y-5508466D01*
X93510700Y-5085133D01*
X94745791Y-5085133D01*
X94750545Y-5292566D01*
G36*
X90741075Y-1583780D02*
G01*
X91029967Y-1588400D01*
X91040049Y-1800066D01*
X91461767Y-1800066D01*
X91461767Y-2003266D01*
X91038433Y-2003266D01*
X91038433Y-1800066D01*
X90428833Y-1800066D01*
X90428833Y-1701288D01*
X90429963Y-1657898D01*
X90434202Y-1612899D01*
X90440508Y-1590836D01*
X90453445Y-1587967D01*
X90495787Y-1585143D01*
X90561696Y-1583413D01*
X90645387Y-1582913D01*
X90741075Y-1583780D01*
G37*
X90741075Y-1583780D02*
X91029967Y-1588400D01*
X91040049Y-1800066D01*
X91461767Y-1800066D01*
X91461767Y-2003266D01*
X91038433Y-2003266D01*
X91038433Y-1800066D01*
X90428833Y-1800066D01*
X90428833Y-1701288D01*
X90429963Y-1657898D01*
X90434202Y-1612899D01*
X90440508Y-1590836D01*
X90453445Y-1587967D01*
X90495787Y-1585143D01*
X90561696Y-1583413D01*
X90645387Y-1582913D01*
X90741075Y-1583780D01*
G36*
X128321400Y-5677800D02*
G01*
X128118200Y-5677800D01*
X128118200Y-4221534D01*
X128321400Y-4221534D01*
X128321400Y-5677800D01*
G37*
X128321400Y-5677800D02*
X128118200Y-5677800D01*
X128118200Y-4221534D01*
X128321400Y-4221534D01*
X128321400Y-5677800D01*
G36*
X135958333Y-3832067D02*
G01*
X135755133Y-3832067D01*
X135755133Y-3205534D01*
X135958333Y-3205534D01*
X135958333Y-3832067D01*
G37*
X135958333Y-3832067D02*
X135755133Y-3832067D01*
X135755133Y-3205534D01*
X135958333Y-3205534D01*
X135958333Y-3832067D01*
G36*
X128118200Y-7337267D02*
G01*
X127931934Y-7337267D01*
X127931934Y-5677800D01*
X128118200Y-5677800D01*
X128118200Y-7337267D01*
G37*
X128118200Y-7337267D02*
X127931934Y-7337267D01*
X127931934Y-5677800D01*
X128118200Y-5677800D01*
X128118200Y-7337267D01*
G36*
X133482129Y-2591700D02*
G01*
X133477600Y-3010801D01*
X133270167Y-3015555D01*
X133062733Y-3020310D01*
X133062733Y-3205534D01*
X132859533Y-3205534D01*
X132859533Y-3019267D01*
X133062733Y-3019267D01*
X133062733Y-2172601D01*
X133486658Y-2172601D01*
X133482129Y-2591700D01*
G37*
X133482129Y-2591700D02*
X133477600Y-3010801D01*
X133270167Y-3015555D01*
X133062733Y-3020310D01*
X133062733Y-3205534D01*
X132859533Y-3205534D01*
X132859533Y-3019267D01*
X133062733Y-3019267D01*
X133062733Y-2172601D01*
X133486658Y-2172601D01*
X133482129Y-2591700D01*
G36*
X128744734Y-7929934D02*
G01*
X129354334Y-7929934D01*
X129354334Y-7726734D01*
X129777667Y-7726734D01*
X129777667Y-7929934D01*
X129355950Y-7929934D01*
X129350908Y-8035767D01*
X129345867Y-8141600D01*
X128753200Y-8141600D01*
X128748159Y-8035767D01*
X128743117Y-7929934D01*
X128321400Y-7929934D01*
X128321400Y-7726734D01*
X128744734Y-7726734D01*
X128744734Y-7929934D01*
G37*
X128744734Y-7929934D02*
X129354334Y-7929934D01*
X129354334Y-7726734D01*
X129777667Y-7726734D01*
X129777667Y-7929934D01*
X129355950Y-7929934D01*
X129350908Y-8035767D01*
X129345867Y-8141600D01*
X128753200Y-8141600D01*
X128748159Y-8035767D01*
X128743117Y-7929934D01*
X128321400Y-7929934D01*
X128321400Y-7726734D01*
X128744734Y-7726734D01*
X128744734Y-7929934D01*
G36*
X132859533Y-3611934D02*
G01*
X132453134Y-3611934D01*
X132453134Y-3205534D01*
X132859533Y-3205534D01*
X132859533Y-3611934D01*
G37*
X132859533Y-3611934D02*
X132453134Y-3611934D01*
X132453134Y-3205534D01*
X132859533Y-3205534D01*
X132859533Y-3611934D01*
G36*
X134298867Y-2799134D02*
G01*
X134095667Y-2799134D01*
X134095667Y-2595934D01*
X134298867Y-2595934D01*
X134298867Y-2799134D01*
G37*
X134298867Y-2799134D02*
X134095667Y-2799134D01*
X134095667Y-2595934D01*
X134298867Y-2595934D01*
X134298867Y-2799134D01*
G36*
X134298867Y-7929934D02*
G01*
X134095667Y-7929934D01*
X134095667Y-7726734D01*
X134298867Y-7726734D01*
X134298867Y-7929934D01*
G37*
X134298867Y-7929934D02*
X134095667Y-7929934D01*
X134095667Y-7726734D01*
X134298867Y-7726734D01*
X134298867Y-7929934D01*
G36*
X127826929Y-1955880D02*
G01*
X127923467Y-1960934D01*
X127932681Y-2595934D01*
X128118200Y-2595934D01*
X128118200Y-2799134D01*
X128321400Y-2799134D01*
X128321400Y-3019267D01*
X128744734Y-3019267D01*
X128744734Y-3205534D01*
X128946859Y-3205534D01*
X128951629Y-3404500D01*
X128956400Y-3603467D01*
X130704767Y-3607780D01*
X132453134Y-3612092D01*
X132453134Y-3832067D01*
X131623400Y-3832067D01*
X131623400Y-4035267D01*
X131437133Y-4035267D01*
X131437133Y-4221534D01*
X131013800Y-4221534D01*
X131013800Y-4644867D01*
X129778709Y-4644867D01*
X129773955Y-4437434D01*
X129769200Y-4230001D01*
X129354334Y-4220491D01*
X129354334Y-3833142D01*
X129155367Y-3828371D01*
X128956400Y-3823601D01*
X128956400Y-3611872D01*
X128744734Y-3611934D01*
X128744734Y-3206576D01*
X128537300Y-3201822D01*
X128329867Y-3197067D01*
X128324777Y-3108987D01*
X128319687Y-3020906D01*
X128223177Y-3015853D01*
X128126667Y-3010801D01*
X128121625Y-2904967D01*
X128116584Y-2799134D01*
X127931934Y-2799134D01*
X127931934Y-2595934D01*
X127728734Y-2595934D01*
X127728734Y-3611934D01*
X127508233Y-3611934D01*
X127512650Y-2896501D01*
X127517067Y-2181067D01*
X127618667Y-2172601D01*
X127720267Y-2164134D01*
X127725329Y-2057480D01*
X127730392Y-1950827D01*
X127826929Y-1955880D01*
G37*
X127826929Y-1955880D02*
X127923467Y-1960934D01*
X127932681Y-2595934D01*
X128118200Y-2595934D01*
X128118200Y-2799134D01*
X128321400Y-2799134D01*
X128321400Y-3019267D01*
X128744734Y-3019267D01*
X128744734Y-3205534D01*
X128946859Y-3205534D01*
X128951629Y-3404500D01*
X128956400Y-3603467D01*
X130704767Y-3607780D01*
X132453134Y-3612092D01*
X132453134Y-3832067D01*
X131623400Y-3832067D01*
X131623400Y-4035267D01*
X131437133Y-4035267D01*
X131437133Y-4221534D01*
X131013800Y-4221534D01*
X131013800Y-4644867D01*
X129778709Y-4644867D01*
X129773955Y-4437434D01*
X129769200Y-4230001D01*
X129354334Y-4220491D01*
X129354334Y-3833142D01*
X129155367Y-3828371D01*
X128956400Y-3823601D01*
X128956400Y-3611872D01*
X128744734Y-3611934D01*
X128744734Y-3206576D01*
X128537300Y-3201822D01*
X128329867Y-3197067D01*
X128324777Y-3108987D01*
X128319687Y-3020906D01*
X128223177Y-3015853D01*
X128126667Y-3010801D01*
X128121625Y-2904967D01*
X128116584Y-2799134D01*
X127931934Y-2799134D01*
X127931934Y-2595934D01*
X127728734Y-2595934D01*
X127728734Y-3611934D01*
X127508233Y-3611934D01*
X127512650Y-2896501D01*
X127517067Y-2181067D01*
X127618667Y-2172601D01*
X127720267Y-2164134D01*
X127725329Y-2057480D01*
X127730392Y-1950827D01*
X127826929Y-1955880D01*
G36*
X133062733Y-7726734D02*
G01*
X132859533Y-7726734D01*
X132859533Y-7337267D01*
X133062733Y-7337267D01*
X133062733Y-7726734D01*
G37*
X133062733Y-7726734D02*
X132859533Y-7726734D01*
X132859533Y-7337267D01*
X133062733Y-7337267D01*
X133062733Y-7726734D01*
G36*
X133486067Y-7929934D02*
G01*
X134095667Y-7929934D01*
X134095667Y-8028712D01*
X134094537Y-8072102D01*
X134090298Y-8117101D01*
X134083992Y-8139164D01*
X134071055Y-8142033D01*
X134028713Y-8144857D01*
X133962804Y-8146587D01*
X133879113Y-8147087D01*
X133783425Y-8146220D01*
X133494533Y-8141600D01*
X133484451Y-7929934D01*
X133062733Y-7929934D01*
X133062733Y-7726734D01*
X133486067Y-7726734D01*
X133486067Y-7929934D01*
G37*
X133486067Y-7929934D02*
X134095667Y-7929934D01*
X134095667Y-8028712D01*
X134094537Y-8072102D01*
X134090298Y-8117101D01*
X134083992Y-8139164D01*
X134071055Y-8142033D01*
X134028713Y-8144857D01*
X133962804Y-8146587D01*
X133879113Y-8147087D01*
X133783425Y-8146220D01*
X133494533Y-8141600D01*
X133484451Y-7929934D01*
X133062733Y-7929934D01*
X133062733Y-7726734D01*
X133486067Y-7726734D01*
X133486067Y-7929934D01*
G36*
X135755133Y-4035267D02*
G01*
X134096448Y-4035267D01*
X134087200Y-4636401D01*
X133875534Y-4646483D01*
X133875534Y-7337267D01*
X134095667Y-7337267D01*
X134095667Y-7726734D01*
X133875534Y-7726734D01*
X133875534Y-7339037D01*
X133786633Y-7333919D01*
X133697733Y-7328801D01*
X133688903Y-5881001D01*
X133486067Y-5881001D01*
X133486067Y-5677800D01*
X133062733Y-5677800D01*
X133062733Y-4866043D01*
X133270167Y-4861288D01*
X133477600Y-4856534D01*
X133482642Y-4750701D01*
X133487683Y-4644867D01*
X133874752Y-4644867D01*
X133879376Y-4344301D01*
X133884000Y-4043734D01*
X133989834Y-4038692D01*
X134095667Y-4033651D01*
X134095667Y-3832067D01*
X135755133Y-3832067D01*
X135755133Y-4035267D01*
G37*
X135755133Y-4035267D02*
X134096448Y-4035267D01*
X134087200Y-4636401D01*
X133875534Y-4646483D01*
X133875534Y-7337267D01*
X134095667Y-7337267D01*
X134095667Y-7726734D01*
X133875534Y-7726734D01*
X133875534Y-7339037D01*
X133786633Y-7333919D01*
X133697733Y-7328801D01*
X133688903Y-5881001D01*
X133486067Y-5881001D01*
X133486067Y-5677800D01*
X133062733Y-5677800D01*
X133062733Y-4866043D01*
X133270167Y-4861288D01*
X133477600Y-4856534D01*
X133482642Y-4750701D01*
X133487683Y-4644867D01*
X133874752Y-4644867D01*
X133879376Y-4344301D01*
X133884000Y-4043734D01*
X133989834Y-4038692D01*
X134095667Y-4033651D01*
X134095667Y-3832067D01*
X135755133Y-3832067D01*
X135755133Y-4035267D01*
G36*
X129168067Y-7337267D02*
G01*
X129354334Y-7337267D01*
X129354334Y-7726734D01*
X129168067Y-7726734D01*
X129168067Y-7338883D01*
X129062234Y-7333842D01*
X128956400Y-7328801D01*
X128951764Y-7025249D01*
X128951289Y-6991561D01*
X128950591Y-6884218D01*
X128951782Y-6805950D01*
X128955063Y-6752999D01*
X128960635Y-6721604D01*
X128968697Y-6708008D01*
X128982244Y-6703114D01*
X129024396Y-6696687D01*
X129079167Y-6694060D01*
X129168067Y-6693801D01*
X129168067Y-7337267D01*
G37*
X129168067Y-7337267D02*
X129354334Y-7337267D01*
X129354334Y-7726734D01*
X129168067Y-7726734D01*
X129168067Y-7338883D01*
X129062234Y-7333842D01*
X128956400Y-7328801D01*
X128951764Y-7025249D01*
X128951289Y-6991561D01*
X128950591Y-6884218D01*
X128951782Y-6805950D01*
X128955063Y-6752999D01*
X128960635Y-6721604D01*
X128968697Y-6708008D01*
X128982244Y-6703114D01*
X129024396Y-6696687D01*
X129079167Y-6694060D01*
X129168067Y-6693801D01*
X129168067Y-7337267D01*
G36*
X127931934Y-3832067D02*
G01*
X127728734Y-3832067D01*
X127728734Y-3611934D01*
X127931934Y-3611934D01*
X127931934Y-3832067D01*
G37*
X127931934Y-3832067D02*
X127728734Y-3832067D01*
X127728734Y-3611934D01*
X127931934Y-3611934D01*
X127931934Y-3832067D01*
G36*
X134722200Y-1766201D02*
G01*
X134908467Y-1766201D01*
X134908467Y-2595934D01*
X135131608Y-2595934D01*
X135120134Y-2799196D01*
X135331800Y-2799134D01*
X135331800Y-3019267D01*
X135130216Y-3019267D01*
X135120134Y-2807601D01*
X135014300Y-2802559D01*
X134908467Y-2797518D01*
X134908467Y-2597704D01*
X134819567Y-2592585D01*
X134730667Y-2587467D01*
X134726132Y-2176834D01*
X134721598Y-1766201D01*
X134298867Y-1766201D01*
X134298867Y-1563001D01*
X134722200Y-1563001D01*
X134722200Y-1766201D01*
G37*
X134722200Y-1766201D02*
X134908467Y-1766201D01*
X134908467Y-2595934D01*
X135131608Y-2595934D01*
X135120134Y-2799196D01*
X135331800Y-2799134D01*
X135331800Y-3019267D01*
X135130216Y-3019267D01*
X135120134Y-2807601D01*
X135014300Y-2802559D01*
X134908467Y-2797518D01*
X134908467Y-2597704D01*
X134819567Y-2592585D01*
X134730667Y-2587467D01*
X134726132Y-2176834D01*
X134721598Y-1766201D01*
X134298867Y-1766201D01*
X134298867Y-1563001D01*
X134722200Y-1563001D01*
X134722200Y-1766201D01*
G36*
X133689267Y-1952467D02*
G01*
X134095667Y-1952467D01*
X134095667Y-1766201D01*
X134298867Y-1766201D01*
X134298867Y-2173382D01*
X133697733Y-2164134D01*
X133692692Y-2058300D01*
X133687651Y-1952467D01*
X133486067Y-1952467D01*
X133486067Y-1766201D01*
X133689267Y-1766201D01*
X133689267Y-1952467D01*
G37*
X133689267Y-1952467D02*
X134095667Y-1952467D01*
X134095667Y-1766201D01*
X134298867Y-1766201D01*
X134298867Y-2173382D01*
X133697733Y-2164134D01*
X133692692Y-2058300D01*
X133687651Y-1952467D01*
X133486067Y-1952467D01*
X133486067Y-1766201D01*
X133689267Y-1766201D01*
X133689267Y-1952467D01*
G36*
X133486067Y-1766201D02*
G01*
X133062733Y-1766201D01*
X133062733Y-2172601D01*
X132859533Y-2172601D01*
X132859533Y-1563001D01*
X133486067Y-1563001D01*
X133486067Y-1766201D01*
G37*
X133486067Y-1766201D02*
X133062733Y-1766201D01*
X133062733Y-2172601D01*
X132859533Y-2172601D01*
X132859533Y-1563001D01*
X133486067Y-1563001D01*
X133486067Y-1766201D01*
G36*
X128321400Y-7726734D02*
G01*
X128118200Y-7726734D01*
X128118200Y-7337267D01*
X128321400Y-7337267D01*
X128321400Y-7726734D01*
G37*
X128321400Y-7726734D02*
X128118200Y-7726734D01*
X128118200Y-7337267D01*
X128321400Y-7337267D01*
X128321400Y-7726734D01*
G36*
X128118200Y-4221534D02*
G01*
X127931934Y-4221534D01*
X127931934Y-3832067D01*
X128118200Y-3832067D01*
X128118200Y-4221534D01*
G37*
X128118200Y-4221534D02*
X127931934Y-4221534D01*
X127931934Y-3832067D01*
X128118200Y-3832067D01*
X128118200Y-4221534D01*
G36*
X135755133Y-3205534D02*
G01*
X135331800Y-3205534D01*
X135331800Y-3019267D01*
X135755133Y-3019267D01*
X135755133Y-3205534D01*
G37*
X135755133Y-3205534D02*
X135331800Y-3205534D01*
X135331800Y-3019267D01*
X135755133Y-3019267D01*
X135755133Y-3205534D01*
G36*
X132647867Y-5889467D02*
G01*
X132652945Y-5986834D01*
X132658024Y-6084201D01*
X132859533Y-6084201D01*
X132859533Y-7337267D01*
X132656334Y-7337267D01*
X132656334Y-6084201D01*
X129777667Y-6084201D01*
X129777667Y-6304334D01*
X129354334Y-6304334D01*
X129354334Y-6693801D01*
X129168067Y-6693801D01*
X129168067Y-6304334D01*
X129352717Y-6304334D01*
X129357759Y-6198501D01*
X129362800Y-6092667D01*
X129570233Y-6087913D01*
X129777667Y-6083158D01*
X129777667Y-5880809D01*
X132647867Y-5889467D01*
G37*
X132647867Y-5889467D02*
X132652945Y-5986834D01*
X132658024Y-6084201D01*
X132859533Y-6084201D01*
X132859533Y-7337267D01*
X132656334Y-7337267D01*
X132656334Y-6084201D01*
X129777667Y-6084201D01*
X129777667Y-6304334D01*
X129354334Y-6304334D01*
X129354334Y-6693801D01*
X129168067Y-6693801D01*
X129168067Y-6304334D01*
X129352717Y-6304334D01*
X129357759Y-6198501D01*
X129362800Y-6092667D01*
X129570233Y-6087913D01*
X129777667Y-6083158D01*
X129777667Y-5880809D01*
X132647867Y-5889467D01*
G36*
X120963867Y-7929934D02*
G01*
X120760667Y-7929934D01*
X120760667Y-7726734D01*
X120963867Y-7726734D01*
X120963867Y-7929934D01*
G37*
X120963867Y-7929934D02*
X120760667Y-7929934D01*
X120760667Y-7726734D01*
X120963867Y-7726734D01*
X120963867Y-7929934D01*
G36*
X120147129Y-2591700D02*
G01*
X120142600Y-3010801D01*
X119935167Y-3015555D01*
X119727733Y-3020310D01*
X119727733Y-3205534D01*
X119524533Y-3205534D01*
X119524533Y-3019267D01*
X119727733Y-3019267D01*
X119727733Y-2172601D01*
X120151658Y-2172601D01*
X120147129Y-2591700D01*
G37*
X120147129Y-2591700D02*
X120142600Y-3010801D01*
X119935167Y-3015555D01*
X119727733Y-3020310D01*
X119727733Y-3205534D01*
X119524533Y-3205534D01*
X119524533Y-3019267D01*
X119727733Y-3019267D01*
X119727733Y-2172601D01*
X120151658Y-2172601D01*
X120147129Y-2591700D01*
G36*
X122420133Y-3205534D02*
G01*
X121996800Y-3205534D01*
X121996800Y-3019267D01*
X122420133Y-3019267D01*
X122420133Y-3205534D01*
G37*
X122420133Y-3205534D02*
X121996800Y-3205534D01*
X121996800Y-3019267D01*
X122420133Y-3019267D01*
X122420133Y-3205534D01*
G36*
X114986400Y-7726734D02*
G01*
X114783200Y-7726734D01*
X114783200Y-7337267D01*
X114986400Y-7337267D01*
X114986400Y-7726734D01*
G37*
X114986400Y-7726734D02*
X114783200Y-7726734D01*
X114783200Y-7337267D01*
X114986400Y-7337267D01*
X114986400Y-7726734D01*
G36*
X120151067Y-7929934D02*
G01*
X120760667Y-7929934D01*
X120760667Y-8028712D01*
X120759537Y-8072102D01*
X120755298Y-8117101D01*
X120748992Y-8139164D01*
X120736055Y-8142033D01*
X120693713Y-8144857D01*
X120627804Y-8146587D01*
X120544113Y-8147087D01*
X120448425Y-8146220D01*
X120159533Y-8141600D01*
X120149451Y-7929934D01*
X119727733Y-7929934D01*
X119727733Y-7726734D01*
X120151067Y-7726734D01*
X120151067Y-7929934D01*
G37*
X120151067Y-7929934D02*
X120760667Y-7929934D01*
X120760667Y-8028712D01*
X120759537Y-8072102D01*
X120755298Y-8117101D01*
X120748992Y-8139164D01*
X120736055Y-8142033D01*
X120693713Y-8144857D01*
X120627804Y-8146587D01*
X120544113Y-8147087D01*
X120448425Y-8146220D01*
X120159533Y-8141600D01*
X120149451Y-7929934D01*
X119727733Y-7929934D01*
X119727733Y-7726734D01*
X120151067Y-7726734D01*
X120151067Y-7929934D01*
G36*
X114783200Y-7337267D02*
G01*
X114596934Y-7337267D01*
X114596934Y-5677800D01*
X114783200Y-5677800D01*
X114783200Y-7337267D01*
G37*
X114783200Y-7337267D02*
X114596934Y-7337267D01*
X114596934Y-5677800D01*
X114783200Y-5677800D01*
X114783200Y-7337267D01*
G36*
X120151067Y-1766201D02*
G01*
X119727733Y-1766201D01*
X119727733Y-2172601D01*
X119524533Y-2172601D01*
X119524533Y-1563001D01*
X120151067Y-1563001D01*
X120151067Y-1766201D01*
G37*
X120151067Y-1766201D02*
X119727733Y-1766201D01*
X119727733Y-2172601D01*
X119524533Y-2172601D01*
X119524533Y-1563001D01*
X120151067Y-1563001D01*
X120151067Y-1766201D01*
G36*
X115833067Y-7337267D02*
G01*
X116019334Y-7337267D01*
X116019334Y-7726734D01*
X115833067Y-7726734D01*
X115833067Y-7338883D01*
X115727234Y-7333842D01*
X115621400Y-7328801D01*
X115616764Y-7025249D01*
X115616289Y-6991561D01*
X115615591Y-6884218D01*
X115616782Y-6805950D01*
X115620063Y-6752999D01*
X115625635Y-6721604D01*
X115633697Y-6708008D01*
X115647244Y-6703114D01*
X115689396Y-6696687D01*
X115744167Y-6694060D01*
X115833067Y-6693801D01*
X115833067Y-7337267D01*
G37*
X115833067Y-7337267D02*
X116019334Y-7337267D01*
X116019334Y-7726734D01*
X115833067Y-7726734D01*
X115833067Y-7338883D01*
X115727234Y-7333842D01*
X115621400Y-7328801D01*
X115616764Y-7025249D01*
X115616289Y-6991561D01*
X115615591Y-6884218D01*
X115616782Y-6805950D01*
X115620063Y-6752999D01*
X115625635Y-6721604D01*
X115633697Y-6708008D01*
X115647244Y-6703114D01*
X115689396Y-6696687D01*
X115744167Y-6694060D01*
X115833067Y-6693801D01*
X115833067Y-7337267D01*
G36*
X114783200Y-4221534D02*
G01*
X114596934Y-4221534D01*
X114596934Y-3832067D01*
X114783200Y-3832067D01*
X114783200Y-4221534D01*
G37*
X114783200Y-4221534D02*
X114596934Y-4221534D01*
X114596934Y-3832067D01*
X114783200Y-3832067D01*
X114783200Y-4221534D01*
G36*
X119524533Y-3611934D02*
G01*
X119118134Y-3611934D01*
X119118134Y-3205534D01*
X119524533Y-3205534D01*
X119524533Y-3611934D01*
G37*
X119524533Y-3611934D02*
X119118134Y-3611934D01*
X119118134Y-3205534D01*
X119524533Y-3205534D01*
X119524533Y-3611934D01*
G36*
X120963867Y-2799134D02*
G01*
X120760667Y-2799134D01*
X120760667Y-2595934D01*
X120963867Y-2595934D01*
X120963867Y-2799134D01*
G37*
X120963867Y-2799134D02*
X120760667Y-2799134D01*
X120760667Y-2595934D01*
X120963867Y-2595934D01*
X120963867Y-2799134D01*
G36*
X120354267Y-1952467D02*
G01*
X120760667Y-1952467D01*
X120760667Y-1766201D01*
X120963867Y-1766201D01*
X120963867Y-2173382D01*
X120362733Y-2164134D01*
X120357692Y-2058300D01*
X120352651Y-1952467D01*
X120151067Y-1952467D01*
X120151067Y-1766201D01*
X120354267Y-1766201D01*
X120354267Y-1952467D01*
G37*
X120354267Y-1952467D02*
X120760667Y-1952467D01*
X120760667Y-1766201D01*
X120963867Y-1766201D01*
X120963867Y-2173382D01*
X120362733Y-2164134D01*
X120357692Y-2058300D01*
X120352651Y-1952467D01*
X120151067Y-1952467D01*
X120151067Y-1766201D01*
X120354267Y-1766201D01*
X120354267Y-1952467D01*
G36*
X114491929Y-1955880D02*
G01*
X114588467Y-1960934D01*
X114597681Y-2595934D01*
X114783200Y-2595934D01*
X114783200Y-2799134D01*
X114986400Y-2799134D01*
X114986400Y-3019267D01*
X115409734Y-3019267D01*
X115409734Y-3205534D01*
X115611859Y-3205534D01*
X115616629Y-3404500D01*
X115621400Y-3603467D01*
X117369767Y-3607780D01*
X119118134Y-3612092D01*
X119118134Y-3832067D01*
X118288400Y-3832067D01*
X118288400Y-4035267D01*
X118102133Y-4035267D01*
X118102133Y-4221534D01*
X117678800Y-4221534D01*
X117678800Y-4644867D01*
X116443709Y-4644867D01*
X116438955Y-4437434D01*
X116434200Y-4230001D01*
X116019334Y-4220491D01*
X116019334Y-3833142D01*
X115820367Y-3828371D01*
X115621400Y-3823601D01*
X115621400Y-3611872D01*
X115409734Y-3611934D01*
X115409734Y-3206576D01*
X115202300Y-3201822D01*
X114994867Y-3197067D01*
X114989777Y-3108987D01*
X114984687Y-3020906D01*
X114888177Y-3015853D01*
X114791667Y-3010801D01*
X114786625Y-2904967D01*
X114781584Y-2799134D01*
X114596934Y-2799134D01*
X114596934Y-2595934D01*
X114393734Y-2595934D01*
X114393734Y-3611934D01*
X114173233Y-3611934D01*
X114177650Y-2896501D01*
X114182067Y-2181067D01*
X114283667Y-2172601D01*
X114385267Y-2164134D01*
X114390329Y-2057480D01*
X114395392Y-1950827D01*
X114491929Y-1955880D01*
G37*
X114491929Y-1955880D02*
X114588467Y-1960934D01*
X114597681Y-2595934D01*
X114783200Y-2595934D01*
X114783200Y-2799134D01*
X114986400Y-2799134D01*
X114986400Y-3019267D01*
X115409734Y-3019267D01*
X115409734Y-3205534D01*
X115611859Y-3205534D01*
X115616629Y-3404500D01*
X115621400Y-3603467D01*
X117369767Y-3607780D01*
X119118134Y-3612092D01*
X119118134Y-3832067D01*
X118288400Y-3832067D01*
X118288400Y-4035267D01*
X118102133Y-4035267D01*
X118102133Y-4221534D01*
X117678800Y-4221534D01*
X117678800Y-4644867D01*
X116443709Y-4644867D01*
X116438955Y-4437434D01*
X116434200Y-4230001D01*
X116019334Y-4220491D01*
X116019334Y-3833142D01*
X115820367Y-3828371D01*
X115621400Y-3823601D01*
X115621400Y-3611872D01*
X115409734Y-3611934D01*
X115409734Y-3206576D01*
X115202300Y-3201822D01*
X114994867Y-3197067D01*
X114989777Y-3108987D01*
X114984687Y-3020906D01*
X114888177Y-3015853D01*
X114791667Y-3010801D01*
X114786625Y-2904967D01*
X114781584Y-2799134D01*
X114596934Y-2799134D01*
X114596934Y-2595934D01*
X114393734Y-2595934D01*
X114393734Y-3611934D01*
X114173233Y-3611934D01*
X114177650Y-2896501D01*
X114182067Y-2181067D01*
X114283667Y-2172601D01*
X114385267Y-2164134D01*
X114390329Y-2057480D01*
X114395392Y-1950827D01*
X114491929Y-1955880D01*
G36*
X115409734Y-7929934D02*
G01*
X116019334Y-7929934D01*
X116019334Y-7726734D01*
X116442667Y-7726734D01*
X116442667Y-7929934D01*
X116020950Y-7929934D01*
X116015908Y-8035767D01*
X116010867Y-8141600D01*
X115418200Y-8141600D01*
X115413159Y-8035767D01*
X115408117Y-7929934D01*
X114986400Y-7929934D01*
X114986400Y-7726734D01*
X115409734Y-7726734D01*
X115409734Y-7929934D01*
G37*
X115409734Y-7929934D02*
X116019334Y-7929934D01*
X116019334Y-7726734D01*
X116442667Y-7726734D01*
X116442667Y-7929934D01*
X116020950Y-7929934D01*
X116015908Y-8035767D01*
X116010867Y-8141600D01*
X115418200Y-8141600D01*
X115413159Y-8035767D01*
X115408117Y-7929934D01*
X114986400Y-7929934D01*
X114986400Y-7726734D01*
X115409734Y-7726734D01*
X115409734Y-7929934D01*
G36*
X121387200Y-1766201D02*
G01*
X121573467Y-1766201D01*
X121573467Y-2595934D01*
X121796608Y-2595934D01*
X121785134Y-2799196D01*
X121996800Y-2799134D01*
X121996800Y-3019267D01*
X121795216Y-3019267D01*
X121785134Y-2807601D01*
X121679300Y-2802559D01*
X121573467Y-2797518D01*
X121573467Y-2597704D01*
X121484567Y-2592585D01*
X121395667Y-2587467D01*
X121391132Y-2176834D01*
X121386598Y-1766201D01*
X120963867Y-1766201D01*
X120963867Y-1563001D01*
X121387200Y-1563001D01*
X121387200Y-1766201D01*
G37*
X121387200Y-1766201D02*
X121573467Y-1766201D01*
X121573467Y-2595934D01*
X121796608Y-2595934D01*
X121785134Y-2799196D01*
X121996800Y-2799134D01*
X121996800Y-3019267D01*
X121795216Y-3019267D01*
X121785134Y-2807601D01*
X121679300Y-2802559D01*
X121573467Y-2797518D01*
X121573467Y-2597704D01*
X121484567Y-2592585D01*
X121395667Y-2587467D01*
X121391132Y-2176834D01*
X121386598Y-1766201D01*
X120963867Y-1766201D01*
X120963867Y-1563001D01*
X121387200Y-1563001D01*
X121387200Y-1766201D01*
G36*
X122623333Y-3832067D02*
G01*
X122420133Y-3832067D01*
X122420133Y-3205534D01*
X122623333Y-3205534D01*
X122623333Y-3832067D01*
G37*
X122623333Y-3832067D02*
X122420133Y-3832067D01*
X122420133Y-3205534D01*
X122623333Y-3205534D01*
X122623333Y-3832067D01*
G36*
X114596934Y-3832067D02*
G01*
X114393734Y-3832067D01*
X114393734Y-3611934D01*
X114596934Y-3611934D01*
X114596934Y-3832067D01*
G37*
X114596934Y-3832067D02*
X114393734Y-3832067D01*
X114393734Y-3611934D01*
X114596934Y-3611934D01*
X114596934Y-3832067D01*
G36*
X119312867Y-5889467D02*
G01*
X119317945Y-5986834D01*
X119323024Y-6084201D01*
X119524533Y-6084201D01*
X119524533Y-7337267D01*
X119321334Y-7337267D01*
X119321334Y-6084201D01*
X116442667Y-6084201D01*
X116442667Y-6304334D01*
X116019334Y-6304334D01*
X116019334Y-6693801D01*
X115833067Y-6693801D01*
X115833067Y-6304334D01*
X116017717Y-6304334D01*
X116022759Y-6198501D01*
X116027800Y-6092667D01*
X116235233Y-6087913D01*
X116442667Y-6083158D01*
X116442667Y-5880809D01*
X119312867Y-5889467D01*
G37*
X119312867Y-5889467D02*
X119317945Y-5986834D01*
X119323024Y-6084201D01*
X119524533Y-6084201D01*
X119524533Y-7337267D01*
X119321334Y-7337267D01*
X119321334Y-6084201D01*
X116442667Y-6084201D01*
X116442667Y-6304334D01*
X116019334Y-6304334D01*
X116019334Y-6693801D01*
X115833067Y-6693801D01*
X115833067Y-6304334D01*
X116017717Y-6304334D01*
X116022759Y-6198501D01*
X116027800Y-6092667D01*
X116235233Y-6087913D01*
X116442667Y-6083158D01*
X116442667Y-5880809D01*
X119312867Y-5889467D01*
G36*
X114986400Y-5677800D02*
G01*
X114783200Y-5677800D01*
X114783200Y-4221534D01*
X114986400Y-4221534D01*
X114986400Y-5677800D01*
G37*
X114986400Y-5677800D02*
X114783200Y-5677800D01*
X114783200Y-4221534D01*
X114986400Y-4221534D01*
X114986400Y-5677800D01*
G36*
X122420133Y-4035267D02*
G01*
X120761448Y-4035267D01*
X120752200Y-4636401D01*
X120540534Y-4646483D01*
X120540534Y-7337267D01*
X120760667Y-7337267D01*
X120760667Y-7726734D01*
X120540534Y-7726734D01*
X120540534Y-7339037D01*
X120451633Y-7333919D01*
X120362733Y-7328801D01*
X120353903Y-5881001D01*
X120151067Y-5881001D01*
X120151067Y-5677800D01*
X119727733Y-5677800D01*
X119727733Y-4866043D01*
X119935167Y-4861288D01*
X120142600Y-4856534D01*
X120147642Y-4750701D01*
X120152683Y-4644867D01*
X120539752Y-4644867D01*
X120544376Y-4344301D01*
X120549000Y-4043734D01*
X120654834Y-4038692D01*
X120760667Y-4033651D01*
X120760667Y-3832067D01*
X122420133Y-3832067D01*
X122420133Y-4035267D01*
G37*
X122420133Y-4035267D02*
X120761448Y-4035267D01*
X120752200Y-4636401D01*
X120540534Y-4646483D01*
X120540534Y-7337267D01*
X120760667Y-7337267D01*
X120760667Y-7726734D01*
X120540534Y-7726734D01*
X120540534Y-7339037D01*
X120451633Y-7333919D01*
X120362733Y-7328801D01*
X120353903Y-5881001D01*
X120151067Y-5881001D01*
X120151067Y-5677800D01*
X119727733Y-5677800D01*
X119727733Y-4866043D01*
X119935167Y-4861288D01*
X120142600Y-4856534D01*
X120147642Y-4750701D01*
X120152683Y-4644867D01*
X120539752Y-4644867D01*
X120544376Y-4344301D01*
X120549000Y-4043734D01*
X120654834Y-4038692D01*
X120760667Y-4033651D01*
X120760667Y-3832067D01*
X122420133Y-3832067D01*
X122420133Y-4035267D01*
G36*
X119727733Y-7726734D02*
G01*
X119524533Y-7726734D01*
X119524533Y-7337267D01*
X119727733Y-7337267D01*
X119727733Y-7726734D01*
G37*
X119727733Y-7726734D02*
X119524533Y-7726734D01*
X119524533Y-7337267D01*
X119727733Y-7337267D01*
X119727733Y-7726734D01*
G36*
X109931800Y-2456233D02*
G01*
X109728600Y-2456233D01*
X109728600Y-2066766D01*
X109931800Y-2066766D01*
X109931800Y-2456233D01*
G37*
X109931800Y-2456233D02*
X109728600Y-2456233D01*
X109728600Y-2066766D01*
X109931800Y-2066766D01*
X109931800Y-2456233D01*
G36*
X105596866Y-6587966D02*
G01*
X105190467Y-6587966D01*
X105190467Y-6181566D01*
X105596866Y-6181566D01*
X105596866Y-6587966D01*
G37*
X105596866Y-6587966D02*
X105190467Y-6587966D01*
X105190467Y-6181566D01*
X105596866Y-6181566D01*
X105596866Y-6587966D01*
G36*
X108881933Y-2454617D02*
G01*
X108987766Y-2459658D01*
X109093600Y-2464699D01*
X109098236Y-2768251D01*
X109098711Y-2801939D01*
X109099409Y-2909282D01*
X109098218Y-2987550D01*
X109094937Y-3040501D01*
X109089365Y-3071896D01*
X109081303Y-3085492D01*
X109067756Y-3090386D01*
X109025604Y-3096813D01*
X108970833Y-3099440D01*
X108881933Y-3099699D01*
X108881933Y-2456233D01*
X108695666Y-2456233D01*
X108695666Y-2066766D01*
X108881933Y-2066766D01*
X108881933Y-2454617D01*
G37*
X108881933Y-2454617D02*
X108987766Y-2459658D01*
X109093600Y-2464699D01*
X109098236Y-2768251D01*
X109098711Y-2801939D01*
X109099409Y-2909282D01*
X109098218Y-2987550D01*
X109094937Y-3040501D01*
X109089365Y-3071896D01*
X109081303Y-3085492D01*
X109067756Y-3090386D01*
X109025604Y-3096813D01*
X108970833Y-3099440D01*
X108881933Y-3099699D01*
X108881933Y-2456233D01*
X108695666Y-2456233D01*
X108695666Y-2066766D01*
X108881933Y-2066766D01*
X108881933Y-2454617D01*
G36*
X104266575Y-1647280D02*
G01*
X104555467Y-1651900D01*
X104565549Y-1863566D01*
X104987267Y-1863566D01*
X104987267Y-2066766D01*
X104563933Y-2066766D01*
X104563933Y-1863566D01*
X103954333Y-1863566D01*
X103954333Y-1764788D01*
X103955463Y-1721398D01*
X103959702Y-1676399D01*
X103966008Y-1654336D01*
X103978945Y-1651467D01*
X104021287Y-1648643D01*
X104087196Y-1646913D01*
X104170887Y-1646413D01*
X104266575Y-1647280D01*
G37*
X104266575Y-1647280D02*
X104555467Y-1651900D01*
X104565549Y-1863566D01*
X104987267Y-1863566D01*
X104987267Y-2066766D01*
X104563933Y-2066766D01*
X104563933Y-1863566D01*
X103954333Y-1863566D01*
X103954333Y-1764788D01*
X103955463Y-1721398D01*
X103959702Y-1676399D01*
X103966008Y-1654336D01*
X103978945Y-1651467D01*
X104021287Y-1648643D01*
X104087196Y-1646913D01*
X104170887Y-1646413D01*
X104266575Y-1647280D01*
G36*
X110321266Y-6181566D02*
G01*
X110118066Y-6181566D01*
X110118066Y-5961433D01*
X110321266Y-5961433D01*
X110321266Y-6181566D01*
G37*
X110321266Y-6181566D02*
X110118066Y-6181566D01*
X110118066Y-5961433D01*
X110321266Y-5961433D01*
X110321266Y-6181566D01*
G36*
X110118066Y-5961433D02*
G01*
X109931800Y-5961433D01*
X109931800Y-5571966D01*
X110118066Y-5571966D01*
X110118066Y-5961433D01*
G37*
X110118066Y-5961433D02*
X109931800Y-5961433D01*
X109931800Y-5571966D01*
X110118066Y-5571966D01*
X110118066Y-5961433D01*
G36*
X103954333Y-2066766D02*
G01*
X103751133Y-2066766D01*
X103751133Y-1863566D01*
X103954333Y-1863566D01*
X103954333Y-2066766D01*
G37*
X103954333Y-2066766D02*
X103751133Y-2066766D01*
X103751133Y-1863566D01*
X103954333Y-1863566D01*
X103954333Y-2066766D01*
G36*
X104352267Y-7629366D02*
G01*
X104357308Y-7735200D01*
X104362349Y-7841033D01*
X104563933Y-7841033D01*
X104563933Y-8027299D01*
X104360733Y-8027299D01*
X104360733Y-7841033D01*
X103954333Y-7841033D01*
X103954333Y-8027299D01*
X103751133Y-8027299D01*
X103751133Y-7620118D01*
X104352267Y-7629366D01*
G37*
X104352267Y-7629366D02*
X104357308Y-7735200D01*
X104362349Y-7841033D01*
X104563933Y-7841033D01*
X104563933Y-8027299D01*
X104360733Y-8027299D01*
X104360733Y-7841033D01*
X103954333Y-7841033D01*
X103954333Y-8027299D01*
X103751133Y-8027299D01*
X103751133Y-7620118D01*
X104352267Y-7629366D01*
G36*
X102929866Y-6985899D02*
G01*
X103035700Y-6990941D01*
X103141533Y-6995982D01*
X103141533Y-7195796D01*
X103230433Y-7200915D01*
X103319333Y-7206033D01*
X103323868Y-7616666D01*
X103328402Y-8027299D01*
X103751133Y-8027299D01*
X103751133Y-8230499D01*
X103327800Y-8230499D01*
X103327800Y-8027299D01*
X103141533Y-8027299D01*
X103141533Y-7197566D01*
X102918392Y-7197566D01*
X102929866Y-6994304D01*
X102718200Y-6994366D01*
X102718200Y-6774233D01*
X102919784Y-6774233D01*
X102929866Y-6985899D01*
G37*
X102929866Y-6985899D02*
X103035700Y-6990941D01*
X103141533Y-6995982D01*
X103141533Y-7195796D01*
X103230433Y-7200915D01*
X103319333Y-7206033D01*
X103323868Y-7616666D01*
X103328402Y-8027299D01*
X103751133Y-8027299D01*
X103751133Y-8230499D01*
X103327800Y-8230499D01*
X103327800Y-8027299D01*
X103141533Y-8027299D01*
X103141533Y-7197566D01*
X102918392Y-7197566D01*
X102929866Y-6994304D01*
X102718200Y-6994366D01*
X102718200Y-6774233D01*
X102919784Y-6774233D01*
X102929866Y-6985899D01*
G36*
X110118066Y-4115700D02*
G01*
X109931800Y-4115700D01*
X109931800Y-2456233D01*
X110118066Y-2456233D01*
X110118066Y-4115700D01*
G37*
X110118066Y-4115700D02*
X109931800Y-4115700D01*
X109931800Y-2456233D01*
X110118066Y-2456233D01*
X110118066Y-4115700D01*
G36*
X108276045Y-5356066D02*
G01*
X108280800Y-5563499D01*
X108695666Y-5573009D01*
X108695666Y-5960358D01*
X108894633Y-5965129D01*
X109093600Y-5969899D01*
X109093600Y-6181628D01*
X109305266Y-6181566D01*
X109305266Y-6586924D01*
X109512700Y-6591678D01*
X109720133Y-6596433D01*
X109725223Y-6684513D01*
X109730313Y-6772594D01*
X109826823Y-6777647D01*
X109923333Y-6782699D01*
X109928375Y-6888533D01*
X109933416Y-6994366D01*
X110118066Y-6994366D01*
X110118066Y-7197566D01*
X110321266Y-7197566D01*
X110321266Y-6181566D01*
X110541767Y-6181566D01*
X110537350Y-6896999D01*
X110532933Y-7612433D01*
X110431333Y-7620899D01*
X110329733Y-7629366D01*
X110324671Y-7736020D01*
X110319608Y-7842673D01*
X110223071Y-7837620D01*
X110126533Y-7832566D01*
X110117319Y-7197566D01*
X109931800Y-7197566D01*
X109931800Y-6994366D01*
X109728600Y-6994366D01*
X109728600Y-6774233D01*
X109305266Y-6774233D01*
X109305266Y-6587966D01*
X109103141Y-6587966D01*
X109098371Y-6389000D01*
X109093600Y-6190033D01*
X107345233Y-6185720D01*
X105596866Y-6181408D01*
X105596866Y-5961433D01*
X106426600Y-5961433D01*
X106426600Y-5758233D01*
X106612867Y-5758233D01*
X106612867Y-5571966D01*
X107036200Y-5571966D01*
X107036200Y-5148633D01*
X108271291Y-5148633D01*
X108276045Y-5356066D01*
G37*
X108276045Y-5356066D02*
X108280800Y-5563499D01*
X108695666Y-5573009D01*
X108695666Y-5960358D01*
X108894633Y-5965129D01*
X109093600Y-5969899D01*
X109093600Y-6181628D01*
X109305266Y-6181566D01*
X109305266Y-6586924D01*
X109512700Y-6591678D01*
X109720133Y-6596433D01*
X109725223Y-6684513D01*
X109730313Y-6772594D01*
X109826823Y-6777647D01*
X109923333Y-6782699D01*
X109928375Y-6888533D01*
X109933416Y-6994366D01*
X110118066Y-6994366D01*
X110118066Y-7197566D01*
X110321266Y-7197566D01*
X110321266Y-6181566D01*
X110541767Y-6181566D01*
X110537350Y-6896999D01*
X110532933Y-7612433D01*
X110431333Y-7620899D01*
X110329733Y-7629366D01*
X110324671Y-7736020D01*
X110319608Y-7842673D01*
X110223071Y-7837620D01*
X110126533Y-7832566D01*
X110117319Y-7197566D01*
X109931800Y-7197566D01*
X109931800Y-6994366D01*
X109728600Y-6994366D01*
X109728600Y-6774233D01*
X109305266Y-6774233D01*
X109305266Y-6587966D01*
X109103141Y-6587966D01*
X109098371Y-6389000D01*
X109093600Y-6190033D01*
X107345233Y-6185720D01*
X105596866Y-6181408D01*
X105596866Y-5961433D01*
X106426600Y-5961433D01*
X106426600Y-5758233D01*
X106612867Y-5758233D01*
X106612867Y-5571966D01*
X107036200Y-5571966D01*
X107036200Y-5148633D01*
X108271291Y-5148633D01*
X108276045Y-5356066D01*
G36*
X109931800Y-5571966D02*
G01*
X109728600Y-5571966D01*
X109728600Y-4115700D01*
X109931800Y-4115700D01*
X109931800Y-5571966D01*
G37*
X109931800Y-5571966D02*
X109728600Y-5571966D01*
X109728600Y-4115700D01*
X109931800Y-4115700D01*
X109931800Y-5571966D01*
G36*
X105190467Y-8230499D02*
G01*
X104563933Y-8230499D01*
X104563933Y-8027299D01*
X104987267Y-8027299D01*
X104987267Y-7620899D01*
X105190467Y-7620899D01*
X105190467Y-8230499D01*
G37*
X105190467Y-8230499D02*
X104563933Y-8230499D01*
X104563933Y-8027299D01*
X104987267Y-8027299D01*
X104987267Y-7620899D01*
X105190467Y-7620899D01*
X105190467Y-8230499D01*
G36*
X104174466Y-2454463D02*
G01*
X104263367Y-2459581D01*
X104352267Y-2464699D01*
X104361097Y-3912499D01*
X104563933Y-3912499D01*
X104563933Y-4115700D01*
X104987267Y-4115700D01*
X104987267Y-4927457D01*
X104779833Y-4932212D01*
X104572400Y-4936966D01*
X104567358Y-5042799D01*
X104562317Y-5148633D01*
X104175248Y-5148633D01*
X104170624Y-5449199D01*
X104166000Y-5749766D01*
X104060166Y-5754808D01*
X103954333Y-5759849D01*
X103954333Y-5961433D01*
X102294867Y-5961433D01*
X102294867Y-5758233D01*
X103953552Y-5758233D01*
X103962800Y-5157099D01*
X104174466Y-5147017D01*
X104174466Y-2456233D01*
X103954333Y-2456233D01*
X103954333Y-2066766D01*
X104174466Y-2066766D01*
X104174466Y-2454463D01*
G37*
X104174466Y-2454463D02*
X104263367Y-2459581D01*
X104352267Y-2464699D01*
X104361097Y-3912499D01*
X104563933Y-3912499D01*
X104563933Y-4115700D01*
X104987267Y-4115700D01*
X104987267Y-4927457D01*
X104779833Y-4932212D01*
X104572400Y-4936966D01*
X104567358Y-5042799D01*
X104562317Y-5148633D01*
X104175248Y-5148633D01*
X104170624Y-5449199D01*
X104166000Y-5749766D01*
X104060166Y-5754808D01*
X103954333Y-5759849D01*
X103954333Y-5961433D01*
X102294867Y-5961433D01*
X102294867Y-5758233D01*
X103953552Y-5758233D01*
X103962800Y-5157099D01*
X104174466Y-5147017D01*
X104174466Y-2456233D01*
X103954333Y-2456233D01*
X103954333Y-2066766D01*
X104174466Y-2066766D01*
X104174466Y-2454463D01*
G36*
X109301841Y-1757733D02*
G01*
X109306883Y-1863566D01*
X109728600Y-1863566D01*
X109728600Y-2066766D01*
X109305266Y-2066766D01*
X109305266Y-1863566D01*
X108695666Y-1863566D01*
X108695666Y-2066766D01*
X108272333Y-2066766D01*
X108272333Y-1863566D01*
X108694050Y-1863566D01*
X108699092Y-1757733D01*
X108704133Y-1651900D01*
X109296800Y-1651900D01*
X109301841Y-1757733D01*
G37*
X109301841Y-1757733D02*
X109306883Y-1863566D01*
X109728600Y-1863566D01*
X109728600Y-2066766D01*
X109305266Y-2066766D01*
X109305266Y-1863566D01*
X108695666Y-1863566D01*
X108695666Y-2066766D01*
X108272333Y-2066766D01*
X108272333Y-1863566D01*
X108694050Y-1863566D01*
X108699092Y-1757733D01*
X108704133Y-1651900D01*
X109296800Y-1651900D01*
X109301841Y-1757733D01*
G36*
X105393666Y-3709299D02*
G01*
X108272333Y-3709299D01*
X108272333Y-3489166D01*
X108695666Y-3489166D01*
X108695666Y-3099699D01*
X108881933Y-3099699D01*
X108881933Y-3489166D01*
X108697283Y-3489166D01*
X108692241Y-3594999D01*
X108687200Y-3700833D01*
X108479767Y-3705587D01*
X108272333Y-3710342D01*
X108272333Y-3912691D01*
X105402133Y-3904033D01*
X105397055Y-3806666D01*
X105391976Y-3709299D01*
X105190467Y-3709299D01*
X105190467Y-2456233D01*
X105393666Y-2456233D01*
X105393666Y-3709299D01*
G37*
X105393666Y-3709299D02*
X108272333Y-3709299D01*
X108272333Y-3489166D01*
X108695666Y-3489166D01*
X108695666Y-3099699D01*
X108881933Y-3099699D01*
X108881933Y-3489166D01*
X108697283Y-3489166D01*
X108692241Y-3594999D01*
X108687200Y-3700833D01*
X108479767Y-3705587D01*
X108272333Y-3710342D01*
X108272333Y-3912691D01*
X105402133Y-3904033D01*
X105397055Y-3806666D01*
X105391976Y-3709299D01*
X105190467Y-3709299D01*
X105190467Y-2456233D01*
X105393666Y-2456233D01*
X105393666Y-3709299D01*
G36*
X102294867Y-6587966D02*
G01*
X102091667Y-6587966D01*
X102091667Y-5961433D01*
X102294867Y-5961433D01*
X102294867Y-6587966D01*
G37*
X102294867Y-6587966D02*
X102091667Y-6587966D01*
X102091667Y-5961433D01*
X102294867Y-5961433D01*
X102294867Y-6587966D01*
G36*
X105190467Y-2456233D02*
G01*
X104987267Y-2456233D01*
X104987267Y-2066766D01*
X105190467Y-2066766D01*
X105190467Y-2456233D01*
G37*
X105190467Y-2456233D02*
X104987267Y-2456233D01*
X104987267Y-2066766D01*
X105190467Y-2066766D01*
X105190467Y-2456233D01*
G36*
X103954333Y-7197566D02*
G01*
X103751133Y-7197566D01*
X103751133Y-6994366D01*
X103954333Y-6994366D01*
X103954333Y-7197566D01*
G37*
X103954333Y-7197566D02*
X103751133Y-7197566D01*
X103751133Y-6994366D01*
X103954333Y-6994366D01*
X103954333Y-7197566D01*
G36*
X105190467Y-6774233D02*
G01*
X104987267Y-6774233D01*
X104987267Y-7620899D01*
X104563342Y-7620899D01*
X104567871Y-7201800D01*
X104572400Y-6782699D01*
X104779833Y-6777945D01*
X104987267Y-6773190D01*
X104987267Y-6587966D01*
X105190467Y-6587966D01*
X105190467Y-6774233D01*
G37*
X105190467Y-6774233D02*
X104987267Y-6774233D01*
X104987267Y-7620899D01*
X104563342Y-7620899D01*
X104567871Y-7201800D01*
X104572400Y-6782699D01*
X104779833Y-6777945D01*
X104987267Y-6773190D01*
X104987267Y-6587966D01*
X105190467Y-6587966D01*
X105190467Y-6774233D01*
G36*
X102718200Y-6774233D02*
G01*
X102294867Y-6774233D01*
X102294867Y-6587966D01*
X102718200Y-6587966D01*
X102718200Y-6774233D01*
G37*
X102718200Y-6774233D02*
X102294867Y-6774233D01*
X102294867Y-6587966D01*
X102718200Y-6587966D01*
X102718200Y-6774233D01*
D14*
X99117880Y-1513880D02*
X86317880Y-1513880D01*
X86317880Y-1513880D02*
X86317880Y-8313880D01*
X99117880Y-8313880D02*
X99117880Y-1513880D01*
X86327880Y786120D02*
X86327880Y-1163880D01*
X86317880Y-8313880D02*
X99117880Y-8313880D01*
X125179880Y-1513880D02*
X125179880Y-8313880D01*
X137969880Y-10613880D02*
X137969880Y-8663880D01*
X137979880Y-1513880D02*
X125179880Y-1513880D01*
X125179880Y-8313880D02*
X137979880Y-8313880D01*
X137979880Y-8313880D02*
X137979880Y-1513880D01*
D10*
X141878929Y-8812000D02*
X142276000Y-8812000D01*
X144936000Y-9572000D02*
X150936000Y-9572000D01*
X142276000Y-13062000D02*
X142276000Y-7862000D01*
X141946000Y-12112000D02*
X142276000Y-12112000D01*
X144936000Y-13062000D02*
X142276000Y-13062000D01*
X141946000Y-11352000D02*
X142276000Y-11352000D01*
X144936000Y-11692000D02*
X150936000Y-11692000D01*
X150936000Y-8812000D02*
X144936000Y-8812000D01*
X144936000Y-12112000D02*
X150936000Y-12112000D01*
X150936000Y-9572000D02*
X150936000Y-8812000D01*
X139566000Y-13002000D02*
X140836000Y-13002000D01*
X139566000Y-11732000D02*
X139566000Y-13002000D01*
X144936000Y-11572000D02*
X150936000Y-11572000D01*
X144936000Y-12052000D02*
X150936000Y-12052000D01*
X144936000Y-11812000D02*
X150936000Y-11812000D01*
X150936000Y-11352000D02*
X144936000Y-11352000D01*
X142276000Y-10462000D02*
X144936000Y-10462000D01*
X150936000Y-12112000D02*
X150936000Y-11352000D01*
X144936000Y-11452000D02*
X150936000Y-11452000D01*
X144936000Y-7862000D02*
X144936000Y-13062000D01*
X141878929Y-9572000D02*
X142276000Y-9572000D01*
X142276000Y-7862000D02*
X144936000Y-7862000D01*
X144936000Y-11932000D02*
X150936000Y-11932000D01*
X144210000Y-3225000D02*
G75*
G03*
X144210000Y-3225000I-700000J0D01*
G01*
X142360000Y-2200000D02*
G75*
G03*
X142360000Y-2200000I-700000J0D01*
G01*
X144210000Y-1125000D02*
G75*
G03*
X144210000Y-1125000I-700000J0D01*
G01*
%LPC*%
D16*
X88670000Y5530000D03*
D17*
X88670000Y8070000D03*
X91210000Y5530000D03*
X91210000Y8070000D03*
X93750000Y5530000D03*
X93750000Y8070000D03*
X96290000Y5530000D03*
X96290000Y8070000D03*
X98830000Y5530000D03*
X98830000Y8070000D03*
X101370000Y5530000D03*
X101370000Y8070000D03*
X103910000Y5530000D03*
X103910000Y8070000D03*
X106450000Y5530000D03*
X106450000Y8070000D03*
X108990000Y5530000D03*
X108990000Y8070000D03*
X111530000Y5530000D03*
X111530000Y8070000D03*
X114070000Y5530000D03*
X114070000Y8070000D03*
X116610000Y5530000D03*
X116610000Y8070000D03*
X119150000Y5530000D03*
X119150000Y8070000D03*
X121690000Y5530000D03*
X121690000Y8070000D03*
X124230000Y5530000D03*
X124230000Y8070000D03*
X126770000Y5530000D03*
X126770000Y8070000D03*
X129310000Y5530000D03*
X129310000Y8070000D03*
X131850000Y5530000D03*
X131850000Y8070000D03*
X134390000Y5530000D03*
X134390000Y8070000D03*
X136930000Y5530000D03*
X136930000Y8070000D03*
D18*
X83800000Y6800000D03*
X83800000Y-16200000D03*
X141800000Y-16200000D03*
X141800000Y6800000D03*
D16*
X83810000Y-10980000D03*
D17*
X83810000Y-8440000D03*
X83810000Y-5900000D03*
X83810000Y-3360000D03*
X83810000Y-820000D03*
X83810000Y1720000D03*
D19*
X141270000Y-200000D03*
X141270000Y-4200000D03*
D20*
X143400000Y-5775000D03*
X143400000Y1375000D03*
X139950000Y1375000D03*
X139950000Y-5775000D03*
D21*
X124340880Y-9638880D03*
X123070880Y-9638880D03*
X121800880Y-9638880D03*
X120530880Y-9638880D03*
X119260880Y-9638880D03*
X117990880Y-9638880D03*
X116720880Y-9638880D03*
X115450880Y-9638880D03*
X114180880Y-9638880D03*
X112910880Y-9638880D03*
X112910880Y-188880D03*
X114180880Y-188880D03*
X115450880Y-188880D03*
X116720880Y-188880D03*
X117990880Y-188880D03*
X119260880Y-188880D03*
X120530880Y-188880D03*
X121800880Y-188880D03*
X123070880Y-188880D03*
X124340880Y-188880D03*
X99956880Y-188880D03*
X101226880Y-188880D03*
X102496880Y-188880D03*
X103766880Y-188880D03*
X105036880Y-188880D03*
X106306880Y-188880D03*
X107576880Y-188880D03*
X108846880Y-188880D03*
X110116880Y-188880D03*
X111386880Y-188880D03*
X111386880Y-9638880D03*
X110116880Y-9638880D03*
X108846880Y-9638880D03*
X107576880Y-9638880D03*
X106306880Y-9638880D03*
X105036880Y-9638880D03*
X103766880Y-9638880D03*
X102496880Y-9638880D03*
X101226880Y-9638880D03*
X99956880Y-9638880D03*
X87002880Y-188880D03*
X88272880Y-188880D03*
X89542880Y-188880D03*
X90812880Y-188880D03*
X92082880Y-188880D03*
X93352880Y-188880D03*
X94622880Y-188880D03*
X95892880Y-188880D03*
X97162880Y-188880D03*
X98432880Y-188880D03*
X98432880Y-9638880D03*
X97162880Y-9638880D03*
X95892880Y-9638880D03*
X94622880Y-9638880D03*
X93352880Y-9638880D03*
X92082880Y-9638880D03*
X90812880Y-9638880D03*
X89542880Y-9638880D03*
X88272880Y-9638880D03*
X87002880Y-9638880D03*
X137294880Y-9638880D03*
X136024880Y-9638880D03*
X134754880Y-9638880D03*
X133484880Y-9638880D03*
X132214880Y-9638880D03*
X130944880Y-9638880D03*
X129674880Y-9638880D03*
X128404880Y-9638880D03*
X127134880Y-9638880D03*
X125864880Y-9638880D03*
X125864880Y-188880D03*
X127134880Y-188880D03*
X128404880Y-188880D03*
X129674880Y-188880D03*
X130944880Y-188880D03*
X132214880Y-188880D03*
X133484880Y-188880D03*
X134754880Y-188880D03*
X136024880Y-188880D03*
X137294880Y-188880D03*
D22*
X129420000Y-13002000D03*
X126650000Y-13002000D03*
X123880000Y-13002000D03*
X121110000Y-13002000D03*
X118340000Y-13002000D03*
X115570000Y-13002000D03*
X112800000Y-13002000D03*
X110030000Y-13002000D03*
X107260000Y-13002000D03*
X104490000Y-13002000D03*
X101720000Y-13002000D03*
X98950000Y-13002000D03*
X96180000Y-13002000D03*
X128035000Y-15842000D03*
X125265000Y-15842000D03*
X122495000Y-15842000D03*
X119725000Y-15842000D03*
X116955000Y-15842000D03*
X114185000Y-15842000D03*
X111415000Y-15842000D03*
X108645000Y-15842000D03*
X105875000Y-15842000D03*
X103105000Y-15842000D03*
X100335000Y-15842000D03*
X97565000Y-15842000D03*
D23*
X136320000Y-14422000D03*
X89280000Y-14422000D03*
D16*
X140836000Y-11732000D03*
D17*
X140836000Y-9192000D03*
D24*
X143510000Y-3225000D03*
X141660000Y-2200000D03*
X143510000Y-1125000D03*
M02*
