G04 #@! TF.GenerationSoftware,KiCad,Pcbnew,(6.0.5-0)*
G04 #@! TF.CreationDate,2022-12-19T20:05:14-06:00*
G04 #@! TF.ProjectId,rascsi_zero,72617363-7369-45f7-9a65-726f2e6b6963,rev?*
G04 #@! TF.SameCoordinates,PX59d60c0PY325aa00*
G04 #@! TF.FileFunction,Paste,Top*
G04 #@! TF.FilePolarity,Positive*
%FSLAX46Y46*%
G04 Gerber Fmt 4.6, Leading zero omitted, Abs format (unit mm)*
G04 Created by KiCad (PCBNEW (6.0.5-0)) date 2022-12-19 20:05:14*
%MOMM*%
%LPD*%
G01*
G04 APERTURE LIST*
G04 Aperture macros list*
%AMRoundRect*
0 Rectangle with rounded corners*
0 $1 Rounding radius*
0 $2 $3 $4 $5 $6 $7 $8 $9 X,Y pos of 4 corners*
0 Add a 4 corners polygon primitive as box body*
4,1,4,$2,$3,$4,$5,$6,$7,$8,$9,$2,$3,0*
0 Add four circle primitives for the rounded corners*
1,1,$1+$1,$2,$3*
1,1,$1+$1,$4,$5*
1,1,$1+$1,$6,$7*
1,1,$1+$1,$8,$9*
0 Add four rect primitives between the rounded corners*
20,1,$1+$1,$2,$3,$4,$5,0*
20,1,$1+$1,$4,$5,$6,$7,0*
20,1,$1+$1,$6,$7,$8,$9,0*
20,1,$1+$1,$8,$9,$2,$3,0*%
G04 Aperture macros list end*
%ADD10RoundRect,0.243750X-0.456250X0.243750X-0.456250X-0.243750X0.456250X-0.243750X0.456250X0.243750X0*%
%ADD11RoundRect,0.243750X0.243750X0.456250X-0.243750X0.456250X-0.243750X-0.456250X0.243750X-0.456250X0*%
%ADD12RoundRect,0.250000X-0.625000X0.375000X-0.625000X-0.375000X0.625000X-0.375000X0.625000X0.375000X0*%
%ADD13RoundRect,0.250000X-0.450000X0.262500X-0.450000X-0.262500X0.450000X-0.262500X0.450000X0.262500X0*%
%ADD14RoundRect,0.250000X0.262500X0.450000X-0.262500X0.450000X-0.262500X-0.450000X0.262500X-0.450000X0*%
%ADD15R,1.100000X1.100000*%
%ADD16RoundRect,0.250000X0.450000X-0.262500X0.450000X0.262500X-0.450000X0.262500X-0.450000X-0.262500X0*%
%ADD17R,1.400000X0.400000*%
G04 APERTURE END LIST*
D10*
X81273000Y-9651500D03*
X81273000Y-11526500D03*
D11*
X144313500Y-11478000D03*
X142438500Y-11478000D03*
X144313500Y-9192000D03*
X142438500Y-9192000D03*
D12*
X105794160Y-4510320D03*
X105794160Y-7310320D03*
D13*
X118672224Y1587780D03*
X118672224Y-237220D03*
D14*
X88512000Y-9700000D03*
X86687000Y-9700000D03*
X92091500Y-9700000D03*
X90266500Y-9700000D03*
D15*
X105860000Y-2750000D03*
X105860000Y50000D03*
D10*
X81273000Y-6017000D03*
X81273000Y-7892000D03*
D13*
X118672224Y-2101640D03*
X118672224Y-3926640D03*
X95549390Y-2101640D03*
X95549390Y-3926640D03*
X97586320Y-2101640D03*
X97586320Y-3926640D03*
X99623250Y-2101640D03*
X99623250Y-3926640D03*
X101660180Y-2101640D03*
X101660180Y-3926640D03*
X103697110Y-2101640D03*
X103697110Y-3926640D03*
X87401660Y-2101640D03*
X87401660Y-3926640D03*
X89438600Y-2101640D03*
X89438600Y-3926640D03*
X91475530Y-2101640D03*
X91475530Y-3926640D03*
X93512460Y-2101640D03*
X93512460Y-3926640D03*
D16*
X95536328Y-7616060D03*
X95536328Y-5791060D03*
X97569992Y-7616060D03*
X97569992Y-5791060D03*
X99603656Y-7616060D03*
X99603656Y-5791060D03*
X101637320Y-7616060D03*
X101637320Y-5791060D03*
X103670984Y-7616060D03*
X103670984Y-5791060D03*
X87401660Y-7616060D03*
X87401660Y-5791060D03*
X89435336Y-7616060D03*
X89435336Y-5791060D03*
X91469000Y-7616060D03*
X91469000Y-5791060D03*
X93502664Y-7616060D03*
X93502664Y-5791060D03*
X95567398Y-237220D03*
X95567398Y1587780D03*
X97598672Y-237220D03*
X97598672Y1587780D03*
X99629946Y-237220D03*
X99629946Y1587780D03*
X101661220Y-237220D03*
X101661220Y1587780D03*
X103692494Y-237220D03*
X103692494Y1587780D03*
X87401660Y-237220D03*
X87401660Y1587780D03*
X89473576Y-237220D03*
X89473576Y1587780D03*
X91504850Y-237220D03*
X91504850Y1587780D03*
X93536124Y-237220D03*
X93536124Y1587780D03*
D13*
X120735280Y-2101640D03*
X120735280Y-3926640D03*
X122772210Y-2101640D03*
X122772210Y-3926640D03*
X124809140Y-2101640D03*
X124809140Y-3926640D03*
X126846070Y-2101640D03*
X126846070Y-3926640D03*
X128883000Y-2101640D03*
X128883000Y-3926640D03*
X130919930Y-2101640D03*
X130919930Y-3926640D03*
X132956860Y-2101640D03*
X132956860Y-3926640D03*
X134993790Y-2101640D03*
X134993790Y-3926640D03*
X136975200Y-2101640D03*
X136975200Y-3926640D03*
D16*
X120705888Y-7616060D03*
X120705888Y-5791060D03*
X122739552Y-7616060D03*
X122739552Y-5791060D03*
X124773216Y-7616060D03*
X124773216Y-5791060D03*
X126806880Y-7616060D03*
X126806880Y-5791060D03*
X128840544Y-7616060D03*
X128840544Y-5791060D03*
X130874208Y-7616060D03*
X130874208Y-5791060D03*
X132907872Y-7616060D03*
X132907872Y-5791060D03*
X134941536Y-7616060D03*
X134941536Y-5791060D03*
X136975200Y-7616060D03*
X136975200Y-5791060D03*
X120725008Y-237220D03*
X120725008Y1587780D03*
X122756282Y-237220D03*
X122756282Y1587780D03*
X124787556Y-237220D03*
X124787556Y1587780D03*
X126818830Y-237220D03*
X126818830Y1587780D03*
X128850104Y-237220D03*
X128850104Y1587780D03*
X130881378Y-237220D03*
X130881378Y1587780D03*
X132912652Y-237220D03*
X132912652Y1587780D03*
X134943926Y-237220D03*
X134943926Y1587780D03*
X136975200Y-237220D03*
X136975200Y1587780D03*
D13*
X118672224Y-5791060D03*
X118672224Y-7616060D03*
D17*
X140450000Y-3500000D03*
X140450000Y-2850000D03*
X140450000Y-2200000D03*
X140450000Y-1550000D03*
X140450000Y-900000D03*
M02*
