M48
; DRILL file {KiCad (6.0.5-0)} date Monday, December 19, 2022 at 08:05:16 PM
; FORMAT={-:-/ absolute / metric / decimal}
; #@! TF.CreationDate,2022-12-19T20:05:16-06:00
; #@! TF.GenerationSoftware,Kicad,Pcbnew,(6.0.5-0)
; #@! TF.FileFunction,Plated,1,2,PTH
FMAT,2
METRIC
; #@! TA.AperFunction,Plated,PTH,ViaDrill
T1C0.250
; #@! TA.AperFunction,Plated,PTH,ViaDrill
T2C0.400
; #@! TA.AperFunction,Plated,PTH,ComponentDrill
T3C1.000
; #@! TA.AperFunction,Plated,PTH,ComponentDrill
T4C1.030
; #@! TA.AperFunction,Plated,PTH,ComponentDrill
T5C1.329
; #@! TA.AperFunction,Plated,PTH,ComponentDrill
T6C3.230
%
G90
G05
T1
X80.773Y-8.811
X81.209Y-13.192
X81.908Y4.016
X82.28Y-0.683
X82.28Y-4.493
X82.28Y-8.811
X85.718Y9.604
X85.845Y-5.255
X85.845Y-7.414
X85.852Y-1.525
X85.957Y-2.959
X87.11Y2.959
X87.735Y2.736
X88.278Y-4.925
X89.462Y2.685
X90.392Y-4.798
X91.535Y2.812
X92.195Y-3.096
X92.474Y-4.869
X92.517Y-1.525
X92.704Y-14.583
X92.718Y-8.449
X93.262Y-14.297
X93.592Y9.858
X93.752Y2.505
X93.767Y-13.883
X94.268Y-5.075
X94.37Y-14.057
X94.555Y-4.516
X94.732Y-6.613
X94.737Y-2.967
X95.602Y2.821
X96.421Y2.641
X96.711Y-4.889
X97.082Y-11.63
X98.555Y2.364
X98.718Y-4.874
X100.174Y-11.842
X100.196Y8.588
X100.196Y7.318
X100.582Y-10.98
X100.587Y2.087
X100.648Y-4.94
X102.035Y-18.138
X102.222Y-12.036
X102.594Y2.087
X102.67Y-4.889
X103.582Y-11.363
X104.358Y-18.888
X104.36Y-4.8
X104.851Y4.57
X104.973Y-18.762
X105.104Y1.53
X105.117Y6.871
X105.332Y-10.991
X105.575Y-18.59
X105.904Y1.982
X106.8Y-17.32
X106.998Y-10.971
X107.217Y-18.19
X107.53Y2.667
X108.488Y1.756
X109.392Y-10.971
X110.275Y2.62
X111.428Y-11.178
X111.626Y-2.334
X111.728Y2.187
X113.404Y-4.112
X113.495Y-10.967
X115.332Y3.03
X115.37Y-18.026
X115.817Y-1.826
X116.517Y2.641
X116.85Y-13.43
X116.96Y-2.08
X117.259Y-7.205
X118.649Y-10.971
X119.754Y-1.318
X119.754Y-4.874
X120.325Y3.333
X120.572Y8.725
X121.496Y-4.823
X121.786Y2.364
X123.647Y-10.694
X123.717Y2.641
X123.737Y-8.288
X123.745Y-6.63
X123.803Y-2.827
X123.904Y-18.026
X124.016Y-4.978
X124.327Y2.492
X124.553Y-10.971
X124.748Y-18.722
X125.088Y-14.145
X125.464Y-4.833
X125.494Y2.731
X125.85Y-2.842
X126.612Y2.746
X126.693Y-18.336
X126.973Y-4.818
X127.721Y-10.771
X127.941Y-6.533
X127.963Y-18.941
X128.258Y2.604
X128.598Y-4.833
X128.934Y-10.694
X129.664Y2.639
X129.985Y-10.686
X130.201Y7.161
X130.238Y6.485
X130.291Y2.639
X130.371Y-4.869
X131.513Y-10.615
X132.337Y-11.336
X132.383Y-4.884
X132.517Y2.752
X133.064Y4.186
X133.506Y-11.829
X133.779Y2.745
X133.987Y3.749
X134.445Y-4.818
X134.801Y-11.442
X135.289Y4.184
X136.046Y-6.532
X136.076Y4.306
X136.508Y-4.818
X136.559Y-10.934
X137.316Y2.634
X137.37Y-10.99
X137.973Y9.01
X138.804Y8.334
X138.81Y3.25
X142.16Y-3.725
X142.21Y-0.775
X142.76Y-2.175
T2
X86.097Y0.153
X109.495Y1.222
X109.51Y-8.0
X109.771Y-2.428
X139.01Y-3.65
T3
X83.81Y1.72
X83.81Y-0.82
X83.81Y-3.36
X83.81Y-5.9
X83.81Y-8.44
X83.81Y-10.98
X88.67Y8.07
X88.67Y5.53
X91.21Y8.07
X91.21Y5.53
X93.75Y8.07
X93.75Y5.53
X96.29Y8.07
X96.29Y5.53
X98.83Y8.07
X98.83Y5.53
X101.37Y8.07
X101.37Y5.53
X103.91Y8.07
X103.91Y5.53
X106.45Y8.07
X106.45Y5.53
X108.99Y8.07
X108.99Y5.53
X111.53Y8.07
X111.53Y5.53
X114.07Y8.07
X114.07Y5.53
X116.61Y8.07
X116.61Y5.53
X119.15Y8.07
X119.15Y5.53
X121.69Y8.07
X121.69Y5.53
X124.23Y8.07
X124.23Y5.53
X126.77Y8.07
X126.77Y5.53
X129.31Y8.07
X129.31Y5.53
X131.85Y8.07
X131.85Y5.53
X134.39Y8.07
X134.39Y5.53
X136.93Y8.07
X136.93Y5.53
X140.836Y-9.192
X140.836Y-11.732
T4
X96.18Y-13.002
X97.565Y-15.842
X98.95Y-13.002
X100.335Y-15.842
X101.72Y-13.002
X103.105Y-15.842
X104.49Y-13.002
X105.875Y-15.842
X107.26Y-13.002
X108.645Y-15.842
X110.03Y-13.002
X111.415Y-15.842
X112.8Y-13.002
X114.185Y-15.842
X115.57Y-13.002
X116.955Y-15.842
X118.34Y-13.002
X119.725Y-15.842
X121.11Y-13.002
X122.495Y-15.842
X123.88Y-13.002
X125.265Y-15.842
X126.65Y-13.002
X128.035Y-15.842
X129.42Y-13.002
T5
X139.95Y1.375
X139.95Y-5.775
X143.4Y1.375
X143.4Y-5.775
T6
X89.28Y-14.422
X136.32Y-14.422
T0
M30
