G04 #@! TF.GenerationSoftware,KiCad,Pcbnew,(6.0.5-0)*
G04 #@! TF.CreationDate,2022-12-19T20:05:13-06:00*
G04 #@! TF.ProjectId,rascsi_zero,72617363-7369-45f7-9a65-726f2e6b6963,rev?*
G04 #@! TF.SameCoordinates,PX59d60c0PY325aa00*
G04 #@! TF.FileFunction,Copper,L1,Top*
G04 #@! TF.FilePolarity,Positive*
%FSLAX46Y46*%
G04 Gerber Fmt 4.6, Leading zero omitted, Abs format (unit mm)*
G04 Created by KiCad (PCBNEW (6.0.5-0)) date 2022-12-19 20:05:13*
%MOMM*%
%LPD*%
G01*
G04 APERTURE LIST*
G04 Aperture macros list*
%AMRoundRect*
0 Rectangle with rounded corners*
0 $1 Rounding radius*
0 $2 $3 $4 $5 $6 $7 $8 $9 X,Y pos of 4 corners*
0 Add a 4 corners polygon primitive as box body*
4,1,4,$2,$3,$4,$5,$6,$7,$8,$9,$2,$3,0*
0 Add four circle primitives for the rounded corners*
1,1,$1+$1,$2,$3*
1,1,$1+$1,$4,$5*
1,1,$1+$1,$6,$7*
1,1,$1+$1,$8,$9*
0 Add four rect primitives between the rounded corners*
20,1,$1+$1,$2,$3,$4,$5,0*
20,1,$1+$1,$4,$5,$6,$7,0*
20,1,$1+$1,$6,$7,$8,$9,0*
20,1,$1+$1,$8,$9,$2,$3,0*%
%AMFreePoly0*
4,1,22,0.500000,-0.750000,0.000000,-0.750000,0.000000,-0.745033,-0.079941,-0.743568,-0.215256,-0.701293,-0.333266,-0.622738,-0.424486,-0.514219,-0.481581,-0.384460,-0.499164,-0.250000,-0.500000,-0.250000,-0.500000,0.250000,-0.499164,0.250000,-0.499963,0.256109,-0.478152,0.396186,-0.417904,0.524511,-0.324060,0.630769,-0.204165,0.706417,-0.067858,0.745374,0.000000,0.744959,0.000000,0.750000,
0.500000,0.750000,0.500000,-0.750000,0.500000,-0.750000,$1*%
%AMFreePoly1*
4,1,20,0.000000,0.744959,0.073905,0.744508,0.209726,0.703889,0.328688,0.626782,0.421226,0.519385,0.479903,0.390333,0.500000,0.250000,0.500000,-0.250000,0.499851,-0.262216,0.476331,-0.402017,0.414519,-0.529596,0.319384,-0.634700,0.198574,-0.708877,0.061801,-0.746166,0.000000,-0.745033,0.000000,-0.750000,-0.500000,-0.750000,-0.500000,0.750000,0.000000,0.750000,0.000000,0.744959,
0.000000,0.744959,$1*%
G04 Aperture macros list end*
G04 #@! TA.AperFunction,SMDPad,CuDef*
%ADD10RoundRect,0.243750X-0.456250X0.243750X-0.456250X-0.243750X0.456250X-0.243750X0.456250X0.243750X0*%
G04 #@! TD*
G04 #@! TA.AperFunction,SMDPad,CuDef*
%ADD11RoundRect,0.243750X0.243750X0.456250X-0.243750X0.456250X-0.243750X-0.456250X0.243750X-0.456250X0*%
G04 #@! TD*
G04 #@! TA.AperFunction,ComponentPad*
%ADD12R,1.700000X1.700000*%
G04 #@! TD*
G04 #@! TA.AperFunction,ComponentPad*
%ADD13O,1.700000X1.700000*%
G04 #@! TD*
G04 #@! TA.AperFunction,SMDPad,CuDef*
%ADD14RoundRect,0.250000X-0.625000X0.375000X-0.625000X-0.375000X0.625000X-0.375000X0.625000X0.375000X0*%
G04 #@! TD*
G04 #@! TA.AperFunction,SMDPad,CuDef*
%ADD15RoundRect,0.250000X-0.450000X0.262500X-0.450000X-0.262500X0.450000X-0.262500X0.450000X0.262500X0*%
G04 #@! TD*
G04 #@! TA.AperFunction,SMDPad,CuDef*
%ADD16RoundRect,0.250000X0.262500X0.450000X-0.262500X0.450000X-0.262500X-0.450000X0.262500X-0.450000X0*%
G04 #@! TD*
G04 #@! TA.AperFunction,SMDPad,CuDef*
%ADD17R,1.100000X1.100000*%
G04 #@! TD*
G04 #@! TA.AperFunction,SMDPad,CuDef*
%ADD18RoundRect,0.250000X0.450000X-0.262500X0.450000X0.262500X-0.450000X0.262500X-0.450000X-0.262500X0*%
G04 #@! TD*
G04 #@! TA.AperFunction,SMDPad,CuDef*
%ADD19FreePoly0,270.000000*%
G04 #@! TD*
G04 #@! TA.AperFunction,SMDPad,CuDef*
%ADD20FreePoly1,270.000000*%
G04 #@! TD*
G04 #@! TA.AperFunction,SMDPad,CuDef*
%ADD21R,1.400000X0.400000*%
G04 #@! TD*
G04 #@! TA.AperFunction,ComponentPad*
%ADD22C,2.000000*%
G04 #@! TD*
G04 #@! TA.AperFunction,ComponentPad*
%ADD23C,1.545000*%
G04 #@! TD*
G04 #@! TA.AperFunction,ComponentPad*
%ADD24C,4.845000*%
G04 #@! TD*
G04 #@! TA.AperFunction,ViaPad*
%ADD25C,0.500000*%
G04 #@! TD*
G04 #@! TA.AperFunction,ViaPad*
%ADD26C,0.800000*%
G04 #@! TD*
G04 #@! TA.AperFunction,Conductor*
%ADD27C,0.150000*%
G04 #@! TD*
G04 #@! TA.AperFunction,Conductor*
%ADD28C,0.400000*%
G04 #@! TD*
G04 #@! TA.AperFunction,Conductor*
%ADD29C,0.250000*%
G04 #@! TD*
G04 #@! TA.AperFunction,Conductor*
%ADD30C,0.200000*%
G04 #@! TD*
G04 #@! TA.AperFunction,Conductor*
%ADD31C,0.500000*%
G04 #@! TD*
G04 APERTURE END LIST*
G36*
X108610000Y-6800400D02*
G01*
X108010000Y-6800400D01*
X108010000Y-6300400D01*
X108610000Y-6300400D01*
X108610000Y-6800400D01*
G37*
G36*
X108610000Y-3400000D02*
G01*
X108010000Y-3400000D01*
X108010000Y-2900000D01*
X108610000Y-2900000D01*
X108610000Y-3400000D01*
G37*
D10*
X81273000Y-9651500D03*
X81273000Y-11526500D03*
D11*
X144313500Y-11478000D03*
X142438500Y-11478000D03*
X144313500Y-9192000D03*
X142438500Y-9192000D03*
D12*
X88670000Y5530000D03*
D13*
X88670000Y8070000D03*
X91210000Y5530000D03*
X91210000Y8070000D03*
X93750000Y5530000D03*
X93750000Y8070000D03*
X96290000Y5530000D03*
X96290000Y8070000D03*
X98830000Y5530000D03*
X98830000Y8070000D03*
X101370000Y5530000D03*
X101370000Y8070000D03*
X103910000Y5530000D03*
X103910000Y8070000D03*
X106450000Y5530000D03*
X106450000Y8070000D03*
X108990000Y5530000D03*
X108990000Y8070000D03*
X111530000Y5530000D03*
X111530000Y8070000D03*
X114070000Y5530000D03*
X114070000Y8070000D03*
X116610000Y5530000D03*
X116610000Y8070000D03*
X119150000Y5530000D03*
X119150000Y8070000D03*
X121690000Y5530000D03*
X121690000Y8070000D03*
X124230000Y5530000D03*
X124230000Y8070000D03*
X126770000Y5530000D03*
X126770000Y8070000D03*
X129310000Y5530000D03*
X129310000Y8070000D03*
X131850000Y5530000D03*
X131850000Y8070000D03*
X134390000Y5530000D03*
X134390000Y8070000D03*
X136930000Y5530000D03*
X136930000Y8070000D03*
D14*
X105794160Y-4510320D03*
X105794160Y-7310320D03*
D15*
X118672224Y1587780D03*
X118672224Y-237220D03*
D16*
X88512000Y-9700000D03*
X86687000Y-9700000D03*
X92091500Y-9700000D03*
X90266500Y-9700000D03*
D17*
X105860000Y-2750000D03*
X105860000Y50000D03*
D10*
X81273000Y-6017000D03*
X81273000Y-7892000D03*
D15*
X118672224Y-2101640D03*
X118672224Y-3926640D03*
X95549390Y-2101640D03*
X95549390Y-3926640D03*
X97586320Y-2101640D03*
X97586320Y-3926640D03*
X99623250Y-2101640D03*
X99623250Y-3926640D03*
X101660180Y-2101640D03*
X101660180Y-3926640D03*
X103697110Y-2101640D03*
X103697110Y-3926640D03*
X87401660Y-2101640D03*
X87401660Y-3926640D03*
X89438600Y-2101640D03*
X89438600Y-3926640D03*
X91475530Y-2101640D03*
X91475530Y-3926640D03*
X93512460Y-2101640D03*
X93512460Y-3926640D03*
D18*
X95536328Y-7616060D03*
X95536328Y-5791060D03*
X97569992Y-7616060D03*
X97569992Y-5791060D03*
X99603656Y-7616060D03*
X99603656Y-5791060D03*
X101637320Y-7616060D03*
X101637320Y-5791060D03*
X103670984Y-7616060D03*
X103670984Y-5791060D03*
X87401660Y-7616060D03*
X87401660Y-5791060D03*
X89435336Y-7616060D03*
X89435336Y-5791060D03*
X91469000Y-7616060D03*
X91469000Y-5791060D03*
X93502664Y-7616060D03*
X93502664Y-5791060D03*
X95567398Y-237220D03*
X95567398Y1587780D03*
X97598672Y-237220D03*
X97598672Y1587780D03*
X99629946Y-237220D03*
X99629946Y1587780D03*
X101661220Y-237220D03*
X101661220Y1587780D03*
X103692494Y-237220D03*
X103692494Y1587780D03*
X87401660Y-237220D03*
X87401660Y1587780D03*
X89473576Y-237220D03*
X89473576Y1587780D03*
X91504850Y-237220D03*
X91504850Y1587780D03*
X93536124Y-237220D03*
X93536124Y1587780D03*
D15*
X120735280Y-2101640D03*
X120735280Y-3926640D03*
X122772210Y-2101640D03*
X122772210Y-3926640D03*
X124809140Y-2101640D03*
X124809140Y-3926640D03*
X126846070Y-2101640D03*
X126846070Y-3926640D03*
X128883000Y-2101640D03*
X128883000Y-3926640D03*
X130919930Y-2101640D03*
X130919930Y-3926640D03*
X132956860Y-2101640D03*
X132956860Y-3926640D03*
X134993790Y-2101640D03*
X134993790Y-3926640D03*
X136975200Y-2101640D03*
X136975200Y-3926640D03*
D18*
X120705888Y-7616060D03*
X120705888Y-5791060D03*
X122739552Y-7616060D03*
X122739552Y-5791060D03*
X124773216Y-7616060D03*
X124773216Y-5791060D03*
X126806880Y-7616060D03*
X126806880Y-5791060D03*
X128840544Y-7616060D03*
X128840544Y-5791060D03*
X130874208Y-7616060D03*
X130874208Y-5791060D03*
X132907872Y-7616060D03*
X132907872Y-5791060D03*
X134941536Y-7616060D03*
X134941536Y-5791060D03*
X136975200Y-7616060D03*
X136975200Y-5791060D03*
X120725008Y-237220D03*
X120725008Y1587780D03*
X122756282Y-237220D03*
X122756282Y1587780D03*
X124787556Y-237220D03*
X124787556Y1587780D03*
X126818830Y-237220D03*
X126818830Y1587780D03*
X128850104Y-237220D03*
X128850104Y1587780D03*
X130881378Y-237220D03*
X130881378Y1587780D03*
X132912652Y-237220D03*
X132912652Y1587780D03*
X134943926Y-237220D03*
X134943926Y1587780D03*
X136975200Y-237220D03*
X136975200Y1587780D03*
D19*
X108310000Y-5900400D03*
D20*
X108310000Y-7200400D03*
D19*
X108310000Y-2500000D03*
D20*
X108310000Y-3800000D03*
D15*
X118672224Y-5791060D03*
X118672224Y-7616060D03*
D12*
X83810000Y-10980000D03*
D13*
X83810000Y-8440000D03*
X83810000Y-5900000D03*
X83810000Y-3360000D03*
X83810000Y-820000D03*
X83810000Y1720000D03*
D21*
X140450000Y-3500000D03*
X140450000Y-2850000D03*
X140450000Y-2200000D03*
X140450000Y-1550000D03*
X140450000Y-900000D03*
D22*
X143400000Y-5775000D03*
X143400000Y1375000D03*
X139950000Y1375000D03*
X139950000Y-5775000D03*
D23*
X129420000Y-13002000D03*
X126650000Y-13002000D03*
X123880000Y-13002000D03*
X121110000Y-13002000D03*
X118340000Y-13002000D03*
X115570000Y-13002000D03*
X112800000Y-13002000D03*
X110030000Y-13002000D03*
X107260000Y-13002000D03*
X104490000Y-13002000D03*
X101720000Y-13002000D03*
X98950000Y-13002000D03*
X96180000Y-13002000D03*
X128035000Y-15842000D03*
X125265000Y-15842000D03*
X122495000Y-15842000D03*
X119725000Y-15842000D03*
X116955000Y-15842000D03*
X114185000Y-15842000D03*
X111415000Y-15842000D03*
X108645000Y-15842000D03*
X105875000Y-15842000D03*
X103105000Y-15842000D03*
X100335000Y-15842000D03*
X97565000Y-15842000D03*
D24*
X136320000Y-14422000D03*
X89280000Y-14422000D03*
D12*
X140836000Y-11732000D03*
D13*
X140836000Y-9192000D03*
D25*
X111626000Y-2334000D03*
X85845000Y-5255000D03*
X113404000Y-4112000D03*
X94555241Y-4516434D03*
X92195000Y-3096000D03*
X138810000Y3250000D03*
X115817000Y-1826000D03*
X81209500Y-13192500D03*
X81908000Y4016000D03*
X123803294Y-2827294D03*
X82280500Y-683000D03*
X136046493Y-6532376D03*
X126612000Y2746000D03*
X106800000Y-17320000D03*
X119754000Y-1318000D03*
X125850000Y-2842000D03*
X82280500Y-8811000D03*
X125088000Y-14145000D03*
X80773500Y-8811000D03*
X119754000Y-4874000D03*
X82280500Y-4493000D03*
X85845000Y-7414000D03*
X85718000Y9604000D03*
X127941147Y-6533336D03*
X123744642Y-6630168D03*
X92717879Y-8449334D03*
D26*
X109495195Y1221677D03*
X86097001Y153201D03*
D25*
X92517395Y-1524625D03*
D26*
X109510000Y-8000000D03*
D25*
X138804000Y8334000D03*
X100582240Y-10980000D03*
X123736720Y-8287760D03*
D26*
X139010000Y-3650000D03*
X109771058Y-2428010D03*
D25*
X127963280Y-18940520D03*
X98717720Y-4874000D03*
X104358245Y-18887630D03*
X126693280Y-18336000D03*
X105575463Y-18589890D03*
X102669960Y-4889240D03*
X115369960Y-18026120D03*
X107216560Y-18189947D03*
X104360000Y-4800000D03*
X88278320Y-4924800D03*
X92703648Y-14583074D03*
X90391600Y-4797800D03*
X93261800Y-14297400D03*
X93767303Y-13883031D03*
X92474400Y-4868920D03*
X94268206Y-5074896D03*
X116850000Y-13430000D03*
X94369673Y-14057085D03*
X113495440Y-10967303D03*
X121496440Y-4823200D03*
X123647416Y-10693658D03*
X124016010Y-4978244D03*
X127720812Y-10770763D03*
X111427880Y-11178280D03*
X125463920Y-4833360D03*
X128933560Y-10693658D03*
X109391812Y-10970668D03*
X106998120Y-10970668D03*
X129985120Y-10685520D03*
X126972680Y-4818120D03*
X105331567Y-10990881D03*
X128598280Y-4833360D03*
X131512879Y-10614545D03*
X103581848Y-11362845D03*
X130371200Y-4868920D03*
X132337160Y-11335760D03*
X133505560Y-11828520D03*
X102222086Y-12036032D03*
X132382880Y-4884160D03*
X134445360Y-4818120D03*
X134800960Y-11442440D03*
X100174106Y-11841594D03*
X136507840Y-4818120D03*
X136558640Y-10934440D03*
X97081960Y-11630400D03*
X96711120Y-4889240D03*
X123904360Y-18026120D03*
X102034960Y-18137880D03*
X124747640Y-18721970D03*
X104972560Y-18762086D03*
X100648120Y-4940040D03*
X94731573Y-6612928D03*
X137972990Y9009640D03*
X100196000Y8588000D03*
X137315560Y2634240D03*
X133779308Y2744966D03*
X130200922Y7161099D03*
X132516793Y2751990D03*
X105117343Y6871241D03*
X100196000Y7318000D03*
X130291496Y2639430D03*
X130237743Y6485038D03*
X129664483Y2639430D03*
X128257999Y2603839D03*
X116517103Y2640935D03*
X125494400Y2730760D03*
X111727600Y2187200D03*
X123717488Y2640938D03*
X120571880Y8725160D03*
X121786000Y2363927D03*
X133986634Y3748986D03*
X105904438Y1982405D03*
X102593760Y2086912D03*
X108487990Y1755510D03*
X105103847Y1530395D03*
X110275179Y2620495D03*
X100587160Y2086912D03*
X107529513Y2666605D03*
X98555160Y2363921D03*
X115331730Y3029917D03*
X96421291Y2640931D03*
X93752059Y2504661D03*
X133063618Y4186430D03*
X136076040Y4305560D03*
X91534600Y2812040D03*
X89461960Y2685040D03*
X135288640Y4183640D03*
X87734760Y2735840D03*
X104851390Y4569786D03*
X124326555Y2492002D03*
X85956760Y-2958840D03*
X85852089Y-1524630D03*
X94737120Y-2966880D03*
X117258642Y-7204642D03*
X116960000Y-2080000D03*
X87109920Y2959360D03*
X120324668Y3333211D03*
X95601891Y2821105D03*
X124552793Y-10970669D03*
X137369871Y-10990320D03*
X118648884Y-10970670D03*
X142210000Y-775000D03*
X142760000Y-2175000D03*
X142160000Y-3725000D03*
X93592000Y9858000D03*
D27*
X113092000Y-3800000D02*
X113404000Y-4112000D01*
D28*
X98830000Y5530000D02*
X98031962Y5530000D01*
D29*
X127374000Y2746000D02*
X127882001Y3254000D01*
D30*
X119754000Y-1318000D02*
X119500000Y-1064000D01*
D28*
X94927001Y6892999D02*
X93750000Y8070000D01*
X96668963Y6892999D02*
X94927001Y6892999D01*
D27*
X125850000Y-2842000D02*
X123818000Y-2842000D01*
X123952376Y-6532376D02*
X136046493Y-6532376D01*
D29*
X113404000Y-4112000D02*
X114166000Y-4874000D01*
D27*
X119754000Y-6190912D02*
X120095464Y-6532376D01*
X123842434Y-6532376D02*
X123952376Y-6532376D01*
D28*
X131471037Y6707001D02*
X130330560Y7847478D01*
D27*
X94555241Y-4516434D02*
X94555241Y-3617681D01*
X119754000Y-4874000D02*
X119754000Y-6190912D01*
D30*
X112896000Y-1064000D02*
X111626000Y-2334000D01*
D27*
X83810000Y-8440000D02*
X81387000Y-6017000D01*
D28*
X143976999Y-12909001D02*
X137788519Y-12909001D01*
X135752999Y6707001D02*
X131471037Y6707001D01*
D27*
X123744642Y-6630168D02*
X123842434Y-6532376D01*
X93906560Y-2969000D02*
X92322000Y-2969000D01*
D29*
X133738648Y3254000D02*
X133745672Y3246976D01*
D27*
X120095464Y-6532376D02*
X123952376Y-6532376D01*
X108310000Y-3800000D02*
X113092000Y-3800000D01*
D30*
X119500000Y-1064000D02*
X112896000Y-1064000D01*
D29*
X136256976Y3246976D02*
X136930000Y3920000D01*
X133745672Y3246976D02*
X136256976Y3246976D01*
D27*
X92322000Y-2969000D02*
X92195000Y-3096000D01*
D28*
X144313500Y-12572500D02*
X143976999Y-12909001D01*
D29*
X136930000Y3920000D02*
X136930000Y5530000D01*
D28*
X98031962Y5530000D02*
X96668963Y6892999D01*
X130330560Y7847478D02*
X129532522Y7847478D01*
D29*
X126612000Y2746000D02*
X127374000Y2746000D01*
X138810000Y-900000D02*
X138760000Y-850000D01*
D27*
X81321500Y-9651500D02*
X82162000Y-8811000D01*
D29*
X140450000Y-900000D02*
X138810000Y-900000D01*
D27*
X82162000Y-8811000D02*
X82280500Y-8811000D01*
D28*
X144313500Y-11478000D02*
X144313500Y-12572500D01*
D29*
X127882001Y3254000D02*
X133738648Y3254000D01*
D27*
X123818000Y-2842000D02*
X123803294Y-2827294D01*
D29*
X114166000Y-4874000D02*
X119754000Y-4874000D01*
X138760000Y-850000D02*
X138760000Y185000D01*
X138760000Y185000D02*
X139950000Y1375000D01*
D27*
X94555241Y-3617681D02*
X93906560Y-2969000D01*
D28*
X136930000Y5530000D02*
X135752999Y6707001D01*
D27*
X81273000Y-9310500D02*
X80773500Y-8811000D01*
D28*
X119644250Y748270D02*
X120629740Y-237220D01*
D27*
X92717879Y-8449334D02*
X92717879Y-9073621D01*
D28*
X86487422Y-237220D02*
X86097001Y153201D01*
X103692494Y-237220D02*
X104856715Y927001D01*
X89473576Y-237220D02*
X87401660Y-237220D01*
D27*
X92717879Y-9073621D02*
X92091500Y-9700000D01*
X91504850Y-500850D02*
X92576000Y-1572000D01*
D28*
X109495195Y1221677D02*
X109968602Y748270D01*
X109968602Y748270D02*
X119644250Y748270D01*
X136975200Y-237220D02*
X120725008Y-237220D01*
X104856715Y927001D02*
X109200519Y927001D01*
X89473576Y-237220D02*
X103692494Y-237220D01*
X109200519Y927001D02*
X109495195Y1221677D01*
X87401660Y-237220D02*
X86487422Y-237220D01*
D29*
X108310000Y-8360482D02*
X107590241Y-9080241D01*
X117390169Y-9080241D02*
X117663807Y-8806603D01*
X88121000Y-10980000D02*
X100582240Y-10980000D01*
D31*
X88670000Y8070000D02*
X91210000Y8070000D01*
D28*
X139010000Y-3650000D02*
X140300000Y-3650000D01*
X98917321Y9281499D02*
X92421499Y9281499D01*
X138804000Y8334000D02*
X138804000Y9748000D01*
D29*
X105860000Y50000D02*
X107293048Y50000D01*
X117663807Y-8806603D02*
X123681523Y-8806603D01*
X108310000Y-7200400D02*
X108310000Y-8360482D01*
X123736720Y-8751406D02*
X123681523Y-8806603D01*
X109109600Y-8000000D02*
X108310000Y-7200400D01*
X100582240Y-10980000D02*
X102862990Y-10980000D01*
X107590241Y-9080241D02*
X117390169Y-9080241D01*
D28*
X92421499Y9281499D02*
X91210000Y8070000D01*
X138694000Y9858000D02*
X99493822Y9858000D01*
D29*
X104762751Y-9080241D02*
X107590241Y-9080241D01*
X107293048Y50000D02*
X109771058Y-2428010D01*
X83810000Y-10980000D02*
X88121000Y-10980000D01*
D28*
X138804000Y9748000D02*
X138694000Y9858000D01*
D29*
X109510000Y-8000000D02*
X109109600Y-8000000D01*
D30*
X88512000Y-9700000D02*
X88512000Y-10589000D01*
D28*
X140300000Y-3650000D02*
X140450000Y-3500000D01*
D29*
X123736720Y-8287760D02*
X123736720Y-8751406D01*
D30*
X88512000Y-10589000D02*
X88121000Y-10980000D01*
D28*
X99493822Y9858000D02*
X98917321Y9281499D01*
D29*
X102862990Y-10980000D02*
X104762751Y-9080241D01*
D27*
X98717720Y-4874000D02*
X97800660Y-5791060D01*
X127430810Y-19472990D02*
X104943605Y-19472990D01*
X104943605Y-19472990D02*
X104358245Y-18887630D01*
X98717720Y-4874000D02*
X97770360Y-3926640D01*
X127963280Y-18940520D02*
X127430810Y-19472990D01*
X102669960Y-4889240D02*
X102539140Y-4889240D01*
X105904541Y-18918968D02*
X105575463Y-18589890D01*
X124009552Y-18589890D02*
X115866904Y-18589890D01*
X102669960Y-4889240D02*
X102622780Y-4889240D01*
X102622780Y-4889240D02*
X101660180Y-3926640D01*
X115866904Y-18589890D02*
X115537826Y-18918968D01*
X102539140Y-4889240D02*
X101637320Y-5791060D01*
X126443281Y-18086001D02*
X124513441Y-18086001D01*
X124513441Y-18086001D02*
X124009552Y-18589890D01*
X115537826Y-18918968D02*
X105904541Y-18918968D01*
X126693280Y-18336000D02*
X126443281Y-18086001D01*
X103670984Y-5489016D02*
X104360000Y-4800000D01*
X115080400Y-18315680D02*
X107342293Y-18315680D01*
X104360000Y-4589530D02*
X103697110Y-3926640D01*
X107342293Y-18315680D02*
X107216560Y-18189947D01*
X104360000Y-4800000D02*
X104360000Y-4589530D01*
X115369960Y-18026120D02*
X115080400Y-18315680D01*
X94816116Y-15063108D02*
X93183682Y-15063108D01*
X114191320Y-15791200D02*
X112741661Y-15791200D01*
X112741661Y-15791200D02*
X111818450Y-14867989D01*
X95011235Y-14867989D02*
X94816116Y-15063108D01*
X88278320Y-4924800D02*
X88278320Y-4803300D01*
X93183682Y-15063108D02*
X92703648Y-14583074D01*
X88278320Y-4803300D02*
X87401660Y-3926640D01*
X88278320Y-4924800D02*
X88267920Y-4924800D01*
X88267920Y-4924800D02*
X87401660Y-5791060D01*
X111818450Y-14867989D02*
X95011235Y-14867989D01*
X90391600Y-4797800D02*
X90309760Y-4797800D01*
X93750497Y-14786097D02*
X94701375Y-14786097D01*
X90309760Y-4797800D02*
X89438600Y-3926640D01*
X112280000Y-14790000D02*
X119277520Y-14790000D01*
X94947784Y-14539688D02*
X112029688Y-14539688D01*
X119277520Y-14790000D02*
X121116320Y-12951200D01*
X90391600Y-4834796D02*
X89435336Y-5791060D01*
X93261800Y-14297400D02*
X93750497Y-14786097D01*
X90391600Y-4797800D02*
X90391600Y-4834796D01*
X94701375Y-14786097D02*
X94947784Y-14539688D01*
X112029688Y-14539688D02*
X112280000Y-14790000D01*
X92417810Y-4868920D02*
X91475530Y-3926640D01*
X117034843Y-14262677D02*
X118346320Y-12951200D01*
X94586634Y-14509086D02*
X94833043Y-14262677D01*
X92474400Y-4868920D02*
X92391140Y-4868920D01*
X93767303Y-14236584D02*
X94039805Y-14509086D01*
X92474400Y-4868920D02*
X92417810Y-4868920D01*
X94833043Y-14262677D02*
X117034843Y-14262677D01*
X94039805Y-14509086D02*
X94586634Y-14509086D01*
X93767303Y-13883031D02*
X93767303Y-14236584D01*
X92391140Y-4868920D02*
X91469000Y-5791060D01*
X93502664Y-5791060D02*
X94218828Y-5074896D01*
X94441092Y-13985666D02*
X94369673Y-14057085D01*
X116594334Y-13985666D02*
X116850000Y-13730000D01*
X93512460Y-4319150D02*
X94268206Y-5074896D01*
X94218828Y-5074896D02*
X94268206Y-5074896D01*
X116850000Y-13730000D02*
X116850000Y-13430000D01*
X116594334Y-13985666D02*
X94441092Y-13985666D01*
X117997080Y-10967303D02*
X113495440Y-10967303D01*
X121496440Y-5000508D02*
X120705888Y-5791060D01*
X121496440Y-4823200D02*
X121496440Y-5000508D01*
X119337358Y-10693658D02*
X119162366Y-10518666D01*
X121496440Y-4687800D02*
X120735280Y-3926640D01*
X121496440Y-4823200D02*
X121496440Y-4687800D01*
X119162366Y-10518666D02*
X118445717Y-10518666D01*
X118445717Y-10518666D02*
X117997080Y-10967303D01*
X123647416Y-10693658D02*
X119337358Y-10693658D01*
X118057338Y-10515293D02*
X118330973Y-10241658D01*
X123823814Y-4978244D02*
X124016010Y-4978244D01*
X122739552Y-5791060D02*
X123552368Y-4978244D01*
X127191707Y-10241658D02*
X127720812Y-10770763D01*
X111427880Y-11178280D02*
X112090867Y-10515293D01*
X118330973Y-10241658D02*
X127191707Y-10241658D01*
X122772210Y-3926640D02*
X123823814Y-4978244D01*
X112090867Y-10515293D02*
X118057338Y-10515293D01*
X123552368Y-4978244D02*
X124016010Y-4978244D01*
X125463920Y-4833360D02*
X125463920Y-5100356D01*
X125463920Y-4833360D02*
X125463920Y-4581420D01*
X109391812Y-10970668D02*
X110124196Y-10238284D01*
X117942596Y-10238283D02*
X118216232Y-9964647D01*
X125463920Y-5100356D02*
X124773216Y-5791060D01*
X118216232Y-9964647D02*
X128204549Y-9964647D01*
X128204549Y-9964647D02*
X128933560Y-10693658D01*
X110124196Y-10238284D02*
X117942596Y-10238283D01*
X125463920Y-4581420D02*
X124809140Y-3926640D01*
X126846070Y-3926640D02*
X126846070Y-4691510D01*
X126972680Y-4818120D02*
X126972680Y-5625260D01*
X128987236Y-9687636D02*
X129985120Y-10685520D01*
X126846070Y-4691510D02*
X126972680Y-4818120D01*
X118101491Y-9687636D02*
X128987236Y-9687636D01*
X108007515Y-9961273D02*
X117827854Y-9961273D01*
X117827854Y-9961273D02*
X118101491Y-9687636D01*
X106998120Y-10970668D02*
X108007515Y-9961273D01*
X106638186Y-9684262D02*
X105331567Y-10990881D01*
X128598280Y-4833360D02*
X128598280Y-5548796D01*
X131512879Y-10614545D02*
X130308959Y-9410625D01*
X117986750Y-9410625D02*
X117713113Y-9684262D01*
X117713113Y-9684262D02*
X106638186Y-9684262D01*
X130308959Y-9410625D02*
X117986750Y-9410625D01*
X128598280Y-4833360D02*
X128598280Y-4211360D01*
X127353565Y-11422679D02*
X112109075Y-11422679D01*
X105060379Y-11362845D02*
X103581848Y-11362845D01*
X130371200Y-4868920D02*
X130371200Y-4475370D01*
X127990185Y-11592331D02*
X127523217Y-11592331D01*
X132250241Y-11422679D02*
X128159837Y-11422679D01*
X130371200Y-4868920D02*
X130371200Y-5288052D01*
X106569071Y-11422683D02*
X106548860Y-11442894D01*
X111210918Y-11630280D02*
X111003321Y-11422683D01*
X111003321Y-11422683D02*
X106569071Y-11422683D01*
X111901474Y-11630280D02*
X111210918Y-11630280D01*
X106548860Y-11442894D02*
X105140428Y-11442894D01*
X130371200Y-4475370D02*
X130919930Y-3926640D01*
X128159837Y-11422679D02*
X127990185Y-11592331D01*
X105140428Y-11442894D02*
X105060379Y-11362845D01*
X127523217Y-11592331D02*
X127353565Y-11422679D01*
X132337160Y-11335760D02*
X132250241Y-11422679D01*
X130371200Y-5288052D02*
X130874208Y-5791060D01*
X112109075Y-11422679D02*
X111901474Y-11630280D01*
X132382880Y-4500620D02*
X132956860Y-3926640D01*
X129894081Y-11976699D02*
X128958559Y-11976699D01*
X132382880Y-4884160D02*
X132382880Y-4500620D01*
X133255561Y-12078519D02*
X129995901Y-12078519D01*
X102472085Y-12286031D02*
X102222086Y-12036032D01*
X112338559Y-11976699D02*
X112130956Y-12184302D01*
X127293735Y-12146353D02*
X127124081Y-11976699D01*
X128788905Y-12146353D02*
X127293735Y-12146353D01*
X112130956Y-12184302D02*
X110981436Y-12184302D01*
X132382880Y-4884160D02*
X132382880Y-5266068D01*
X106798559Y-11976699D02*
X106778342Y-11996916D01*
X133505560Y-11828520D02*
X133255561Y-12078519D01*
X110773833Y-11976699D02*
X106798559Y-11976699D01*
X110981436Y-12184302D02*
X110773833Y-11976699D01*
X104890730Y-11976700D02*
X104028709Y-11976700D01*
X132382880Y-5266068D02*
X132907872Y-5791060D01*
X104028709Y-11976700D02*
X103719378Y-12286031D01*
X106778342Y-11996916D02*
X104910946Y-11996916D01*
X129995901Y-12078519D02*
X129894081Y-11976699D01*
X103719378Y-12286031D02*
X102472085Y-12286031D01*
X127124081Y-11976699D02*
X112338559Y-11976699D01*
X128958559Y-11976699D02*
X128788905Y-12146353D01*
X104910946Y-11996916D02*
X104890730Y-11976700D01*
X102615513Y-11584022D02*
X101130052Y-11584022D01*
X134445360Y-5294884D02*
X134941536Y-5791060D01*
X105005471Y-11699689D02*
X103913968Y-11699689D01*
X106683812Y-11699694D02*
X106663601Y-11719905D01*
X103798810Y-11814847D02*
X102846338Y-11814847D01*
X105025686Y-11719904D02*
X105005471Y-11699689D01*
X127408475Y-11869341D02*
X127238824Y-11699690D01*
X133472675Y-11192441D02*
X132877354Y-11787762D01*
X128104926Y-11869342D02*
X127408475Y-11869341D01*
X134800960Y-11442440D02*
X134550961Y-11192441D01*
X102846338Y-11814847D02*
X102615513Y-11584022D01*
X128274569Y-11699699D02*
X128104926Y-11869342D01*
X112223816Y-11699690D02*
X112016215Y-11907291D01*
X132877354Y-11787762D02*
X132120198Y-11787762D01*
X127238824Y-11699690D02*
X112223816Y-11699690D01*
X111096176Y-11907290D02*
X110888580Y-11699694D01*
X132120198Y-11787762D02*
X132032135Y-11699699D01*
X134445360Y-4818120D02*
X134445360Y-4475070D01*
X134550961Y-11192441D02*
X133472675Y-11192441D01*
X106663601Y-11719905D02*
X105025686Y-11719904D01*
X100872480Y-11841594D02*
X100174106Y-11841594D01*
X101130052Y-11584022D02*
X100872480Y-11841594D01*
X110888580Y-11699694D02*
X106683812Y-11699694D01*
X112016215Y-11907291D02*
X111096176Y-11907290D01*
X134445360Y-4475070D02*
X134993790Y-3926640D01*
X103913968Y-11699689D02*
X103798810Y-11814847D01*
X132032135Y-11699699D02*
X128274569Y-11699699D01*
X134445360Y-4818120D02*
X134445360Y-5294884D01*
X136507840Y-5323700D02*
X136975200Y-5791060D01*
X100890321Y-11432001D02*
X101015311Y-11307011D01*
X136507840Y-4394000D02*
X136975200Y-3926640D01*
X101015311Y-11307011D02*
X102998442Y-11307011D01*
X104898202Y-9407251D02*
X117598372Y-9407251D01*
X97081960Y-11630400D02*
X97405349Y-11307011D01*
X134757814Y-9133614D02*
X136558640Y-10934440D01*
X102998442Y-11307011D02*
X104898202Y-9407251D01*
X117872009Y-9133614D02*
X134757814Y-9133614D01*
X136507840Y-4818120D02*
X136507840Y-4394000D01*
X117598372Y-9407251D02*
X117872009Y-9133614D01*
X100240289Y-11307011D02*
X100365279Y-11432001D01*
X136507840Y-4818120D02*
X136507840Y-5323700D01*
X97405349Y-11307011D02*
X100240289Y-11307011D01*
X100365279Y-11432001D02*
X100890321Y-11432001D01*
X96711120Y-4889240D02*
X95809300Y-5791060D01*
X96711120Y-4889240D02*
X95748520Y-3926640D01*
X106369796Y-18137880D02*
X102034960Y-18137880D01*
X123904360Y-18026120D02*
X116038922Y-18026120D01*
X115423085Y-18641957D02*
X106873873Y-18641957D01*
X116038922Y-18026120D02*
X115423085Y-18641957D01*
X106873873Y-18641957D02*
X106369796Y-18137880D01*
X100648120Y-4940040D02*
X100636650Y-4940040D01*
X105406453Y-19195979D02*
X104972560Y-18762086D01*
X100636650Y-4940040D02*
X99623250Y-3926640D01*
X124273631Y-19195979D02*
X105406453Y-19195979D01*
X124747640Y-18721970D02*
X124273631Y-19195979D01*
X100454676Y-4940040D02*
X99603656Y-5791060D01*
X100648120Y-4940040D02*
X100454676Y-4940040D01*
D29*
X94731573Y-6612928D02*
X105096768Y-6612928D01*
X105096768Y-6612928D02*
X105794160Y-7310320D01*
D27*
X103359915Y9398022D02*
X137584608Y9398022D01*
X137584608Y9398022D02*
X137972990Y9009640D01*
X137315560Y2634240D02*
X137315560Y1928140D01*
X100450000Y9350000D02*
X103311892Y9350000D01*
X103311892Y9350000D02*
X103359915Y9398022D01*
X100196000Y9096000D02*
X100450000Y9350000D01*
X100196000Y9096000D02*
X100196000Y8588000D01*
X133786740Y2744966D02*
X133779308Y2744966D01*
X134943926Y1587780D02*
X133786740Y2744966D01*
X130200922Y7161099D02*
X129911064Y6871241D01*
X100196000Y7318000D02*
X99444000Y8070000D01*
X129911064Y6871241D02*
X105117343Y6871241D01*
X132912652Y1587780D02*
X132912652Y2356131D01*
X132912652Y2356131D02*
X132516793Y2751990D01*
X100412961Y6865999D02*
X100492783Y6945821D01*
X130138409Y6584372D02*
X130237743Y6485038D01*
X130881378Y2049548D02*
X130291496Y2639430D01*
X105492962Y6357998D02*
X105719336Y6584372D01*
X105719336Y6584372D02*
X130138409Y6584372D01*
X130881378Y1587780D02*
X130881378Y2049548D01*
X100492783Y6945821D02*
X104373801Y6945821D01*
X104373801Y6945821D02*
X104961624Y6357998D01*
X97494001Y6865999D02*
X100412961Y6865999D01*
X104961624Y6357998D02*
X105492962Y6357998D01*
X96290000Y8070000D02*
X97494001Y6865999D01*
X128850104Y1825051D02*
X129664483Y2639430D01*
X127241940Y1587780D02*
X128257999Y2603839D01*
X125494400Y2294624D02*
X124787556Y1587780D01*
X120637853Y2585681D02*
X116572357Y2585681D01*
X125132212Y3092948D02*
X121145120Y3092948D01*
X125494400Y2730760D02*
X125494400Y2294624D01*
X125494400Y2730760D02*
X125132212Y3092948D01*
X121145120Y3092948D02*
X120637853Y2585681D01*
X116572357Y2585681D02*
X116517103Y2640935D01*
X123542489Y2815937D02*
X123717488Y2640938D01*
X123717488Y2548986D02*
X123717488Y2640938D01*
X116732330Y2187200D02*
X116853800Y2308670D01*
X111727600Y2187200D02*
X116732330Y2187200D01*
X120752594Y2308670D02*
X121259861Y2815937D01*
X122756282Y1587780D02*
X123717488Y2548986D01*
X121259861Y2815937D02*
X123542489Y2815937D01*
X116853800Y2308670D02*
X120752594Y2308670D01*
X114553573Y9073489D02*
X116126427Y9073489D01*
X107907370Y9073489D02*
X108506427Y9073489D01*
X111046427Y9073489D02*
X111094449Y9121511D01*
X121009853Y1587780D02*
X121786000Y2363927D01*
X114505551Y9121511D02*
X114553573Y9073489D01*
X106933573Y9073489D02*
X107007289Y9073489D01*
X116174449Y9121511D02*
X117045551Y9121511D01*
X119585551Y9121511D02*
X119633573Y9073489D01*
X120223551Y9073489D02*
X120571880Y8725160D01*
X108554449Y9121511D02*
X109425551Y9121511D01*
X117093573Y9073489D02*
X118666427Y9073489D01*
X117045551Y9121511D02*
X117093573Y9073489D01*
X102373489Y9073489D02*
X103426427Y9073489D01*
X104345551Y9121511D02*
X104393573Y9073489D01*
X113634449Y9121511D02*
X114505551Y9121511D01*
X107251789Y8828989D02*
X107662870Y8828989D01*
X112013573Y9073489D02*
X113586427Y9073489D01*
X111965551Y9121511D02*
X112013573Y9073489D01*
X118666427Y9073489D02*
X118714449Y9121511D01*
X107662870Y8828989D02*
X107907370Y9073489D01*
X103426427Y9073489D02*
X103474449Y9121511D01*
X103474449Y9121511D02*
X104345551Y9121511D01*
X104393573Y9073489D02*
X105966427Y9073489D01*
X105966427Y9073489D02*
X106014449Y9121511D01*
X106885551Y9121511D02*
X106933573Y9073489D01*
X109473573Y9073489D02*
X111046427Y9073489D01*
X101370000Y8070000D02*
X102373489Y9073489D01*
X109425551Y9121511D02*
X109473573Y9073489D01*
X116126427Y9073489D02*
X116174449Y9121511D01*
X113586427Y9073489D02*
X113634449Y9121511D01*
X107007289Y9073489D02*
X107251789Y8828989D01*
X111094449Y9121511D02*
X111965551Y9121511D01*
X118714449Y9121511D02*
X119585551Y9121511D01*
X119633573Y9073489D02*
X120223551Y9073489D01*
X106014449Y9121511D02*
X106885551Y9121511D01*
X108506427Y9073489D02*
X108554449Y9121511D01*
X127746548Y3581011D02*
X133818659Y3581011D01*
X111039930Y2168494D02*
X111510638Y2639202D01*
X110058218Y2168494D02*
X111039930Y2168494D01*
X111944562Y2639202D02*
X112068753Y2515011D01*
X105904438Y1982405D02*
X105974921Y1911922D01*
X107835534Y1911922D02*
X108154628Y2231016D01*
X120541629Y2881210D02*
X121030378Y3369959D01*
X108154628Y2231016D02*
X109995696Y2231016D01*
X115638407Y2515011D02*
X116216342Y3092946D01*
X112068753Y2515011D02*
X115638407Y2515011D01*
X105974921Y1911922D02*
X107835534Y1911922D01*
X105904438Y1982405D02*
X104087119Y1982405D01*
X121030378Y3369959D02*
X127535497Y3369959D01*
X111510638Y2639202D02*
X111944562Y2639202D01*
X116216342Y3092946D02*
X119895971Y3092946D01*
X133818659Y3581011D02*
X133986634Y3748986D01*
X127535497Y3369959D02*
X127746548Y3581011D01*
X119895971Y3092946D02*
X120107707Y2881210D01*
X120107707Y2881210D02*
X120541629Y2881210D01*
X109995696Y2231016D02*
X110058218Y2168494D01*
X108262875Y1530395D02*
X108487990Y1755510D01*
X105103847Y1530395D02*
X108262875Y1530395D01*
X102593760Y2086912D02*
X102160352Y2086912D01*
X102160352Y2086912D02*
X101661220Y1587780D01*
X100129078Y2086912D02*
X99629946Y1587780D01*
X101260619Y2538917D02*
X103878023Y2538917D01*
X103982524Y2434416D02*
X107041384Y2434416D01*
X107041384Y2434416D02*
X107286868Y2188932D01*
X107286868Y2188932D02*
X107716262Y2188932D01*
X100808612Y2086912D02*
X101260619Y2538917D01*
X100587160Y2086912D02*
X100129078Y2086912D01*
X108147825Y2620495D02*
X110275179Y2620495D01*
X107716262Y2188932D02*
X108147825Y2620495D01*
X103878023Y2538917D02*
X103982524Y2434416D01*
X100587160Y2086912D02*
X100808612Y2086912D01*
X103992764Y2815928D02*
X104097265Y2711427D01*
X107484691Y2711427D02*
X107529513Y2666605D01*
X104097265Y2711427D02*
X107484691Y2711427D01*
X98555160Y2363921D02*
X98730156Y2538917D01*
X98730156Y2538917D02*
X100868866Y2538917D01*
X101145878Y2815928D02*
X103992764Y2815928D01*
X98555160Y2363921D02*
X98374813Y2363921D01*
X100868866Y2538917D02*
X101145878Y2815928D01*
X98374813Y2363921D02*
X97598672Y1587780D01*
X96421291Y2441673D02*
X96421291Y2640931D01*
X101031137Y3092939D02*
X100754125Y2815928D01*
X115331730Y3029917D02*
X115268701Y3092946D01*
X107746477Y3118615D02*
X107312554Y3118615D01*
X107312554Y3118615D02*
X107182378Y2988439D01*
X95567398Y1587780D02*
X96421291Y2441673D01*
X107772145Y3092947D02*
X107746477Y3118615D01*
X100754125Y2815928D02*
X96596288Y2815928D01*
X96596288Y2815928D02*
X96421291Y2640931D01*
X107182378Y2988439D02*
X104212004Y2988440D01*
X104107505Y3092939D02*
X101031137Y3092939D01*
X104212004Y2988440D02*
X104107505Y3092939D01*
X115268701Y3092946D02*
X107772145Y3092947D01*
X120365602Y4013383D02*
X119999185Y3646967D01*
X119999185Y3646967D02*
X115760815Y3646967D01*
X94617349Y3369951D02*
X93752059Y2504661D01*
X120732016Y3646969D02*
X120365602Y4013383D01*
X127420756Y3646969D02*
X120732016Y3646969D01*
X107044694Y3672636D02*
X106914520Y3542462D01*
X107975960Y3672636D02*
X107044694Y3672636D01*
X100801654Y3646961D02*
X100524645Y3369952D01*
X127631807Y3858022D02*
X127420756Y3646969D01*
X100524645Y3369952D02*
X94617349Y3369951D01*
X104336987Y3646961D02*
X100801654Y3646961D01*
X132735210Y3858022D02*
X127631807Y3858022D01*
X114919187Y3646969D02*
X108001627Y3646969D01*
X106914520Y3542462D02*
X104441485Y3542463D01*
X133063618Y4186430D02*
X132735210Y3858022D01*
X93536124Y1587780D02*
X93536124Y2288726D01*
X108001627Y3646969D02*
X107975960Y3672636D01*
X115145808Y3873590D02*
X114919187Y3646969D01*
X115534193Y3873590D02*
X115145808Y3873590D01*
X115760815Y3646967D02*
X115534193Y3873590D01*
X104441485Y3542463D02*
X104336987Y3646961D01*
X93536124Y2288726D02*
X93752059Y2504661D01*
X132343257Y4135033D02*
X132894515Y4686291D01*
X115031067Y4150601D02*
X115648934Y4150601D01*
X91534600Y2812040D02*
X92369525Y3646965D01*
X91504850Y2782290D02*
X91534600Y2812040D01*
X120955553Y3923981D02*
X127306015Y3923981D01*
X132894515Y4686291D02*
X133340832Y4686291D01*
X100409906Y3646966D02*
X100686917Y3923977D01*
X106929953Y3949647D02*
X108090701Y3949647D01*
X104451723Y3923977D02*
X104556227Y3819473D01*
X134822774Y3581810D02*
X135352290Y3581810D01*
X108116368Y3923980D02*
X114804446Y3923980D01*
X133826135Y4200988D02*
X134203596Y4200988D01*
X100686917Y3923977D02*
X104451723Y3923977D01*
X108090701Y3949647D02*
X108116368Y3923980D01*
X127517066Y4135033D02*
X132343257Y4135033D01*
X115875556Y3923978D02*
X119884444Y3923978D01*
X120589141Y4290393D02*
X120955553Y3923981D01*
X106799780Y3819474D02*
X106929953Y3949647D01*
X134203596Y4200988D02*
X134822774Y3581810D01*
X120250861Y4290394D02*
X120589141Y4290393D01*
X114804446Y3923980D02*
X115031067Y4150601D01*
X127306015Y3923981D02*
X127517066Y4135033D01*
X119884444Y3923978D02*
X120250861Y4290394D01*
X104556227Y3819473D02*
X106799780Y3819474D01*
X115648934Y4150601D02*
X115875556Y3923978D01*
X135352290Y3581810D02*
X136076040Y4305560D01*
X91504850Y1587780D02*
X91504850Y2782290D01*
X133340832Y4686291D02*
X133826135Y4200988D01*
X92369525Y3646965D02*
X100409906Y3646966D01*
X134994281Y4477999D02*
X135288640Y4183640D01*
X120136120Y4567405D02*
X120703883Y4567403D01*
X106685038Y4096484D02*
X106815212Y4226658D01*
X89461960Y2685040D02*
X89461960Y1599396D01*
X90700896Y3923976D02*
X100295164Y3923976D01*
X127191281Y4200999D02*
X127402325Y4412044D01*
X119769703Y4200989D02*
X120136120Y4567405D01*
X108231109Y4200991D02*
X114689705Y4200991D01*
X133947724Y4477999D02*
X134994281Y4477999D01*
X120703883Y4567403D02*
X121070287Y4200999D01*
X100295164Y3923976D02*
X100572176Y4200988D01*
X115763675Y4427612D02*
X115990297Y4200989D01*
X132228516Y4412044D02*
X132779774Y4963302D01*
X100572176Y4200988D02*
X104566465Y4200987D01*
X106815212Y4226658D02*
X108205443Y4226657D01*
X114916326Y4427612D02*
X115763675Y4427612D01*
X133462422Y4963301D02*
X133947724Y4477999D01*
X89461960Y2685040D02*
X90700896Y3923976D01*
X115990297Y4200989D02*
X119769703Y4200989D01*
X104670968Y4096484D02*
X106685038Y4096484D01*
X132779774Y4963302D02*
X133462422Y4963301D01*
X127402325Y4412044D02*
X132228516Y4412044D01*
X121070287Y4200999D02*
X127191281Y4200999D01*
X108205443Y4226657D02*
X108231109Y4200991D01*
X114689705Y4200991D02*
X114916326Y4427612D01*
X104566465Y4200987D02*
X104670968Y4096484D01*
X87734760Y2735840D02*
X89199905Y4200985D01*
X89199905Y4200985D02*
X100180421Y4200985D01*
X100457435Y4477999D02*
X104759603Y4477999D01*
X100180421Y4200985D02*
X100457435Y4477999D01*
X87734760Y2735840D02*
X87734760Y1920880D01*
X104759603Y4477999D02*
X104851390Y4569786D01*
X138587399Y-6977001D02*
X138812001Y-6977001D01*
X120086734Y-951730D02*
X137177030Y-951730D01*
X138324388Y-6713990D02*
X138587399Y-6977001D01*
X118672224Y-237220D02*
X119372224Y-237220D01*
X119372224Y-237220D02*
X120086734Y-951730D01*
X139435000Y-7600000D02*
X141546500Y-7600000D01*
X138324388Y-2099088D02*
X138324388Y-6713990D01*
X142438500Y-8492000D02*
X142438500Y-9192000D01*
X137177030Y-951730D02*
X138324388Y-2099088D01*
X141546500Y-7600000D02*
X142438500Y-8492000D01*
X138812001Y-6977001D02*
X139435000Y-7600000D01*
X82899500Y-9900000D02*
X86487000Y-9900000D01*
X81273000Y-11526500D02*
X82899500Y-9900000D01*
X83305039Y-9492001D02*
X85543259Y-9492001D01*
X89123500Y-8557000D02*
X90266500Y-9700000D01*
X82732001Y-8623981D02*
X82732001Y-8918963D01*
X82000020Y-7892000D02*
X82732001Y-8623981D01*
X81273000Y-7892000D02*
X82000020Y-7892000D01*
X85543259Y-9492001D02*
X86478260Y-8557000D01*
X82732001Y-8918963D02*
X83305039Y-9492001D01*
X86478260Y-8557000D02*
X89123500Y-8557000D01*
X120247048Y714000D02*
X123234242Y714000D01*
X119373268Y1587780D02*
X120247048Y714000D01*
X123658292Y1823739D02*
X124326555Y2492002D01*
X118672224Y1587780D02*
X119373268Y1587780D01*
X123234242Y714000D02*
X123658292Y1138050D01*
X123658292Y1138050D02*
X123658292Y1823739D01*
X85956760Y-2958840D02*
X84211160Y-2958840D01*
X83810000Y-820000D02*
X85147459Y-820000D01*
X85147459Y-820000D02*
X85852089Y-1524630D01*
X108469000Y-5198390D02*
X107054000Y-3783390D01*
X117258642Y-7204642D02*
X110853632Y-7204642D01*
X108847380Y-5198390D02*
X108469000Y-5198390D01*
X107054000Y-2480398D02*
X106399602Y-1826000D01*
X107054000Y-3783390D02*
X107054000Y-2480398D01*
X104643120Y-2966880D02*
X94737120Y-2966880D01*
X106399602Y-1826000D02*
X105022000Y-1826000D01*
X104768000Y-2842000D02*
X104643120Y-2966880D01*
X104768000Y-2080000D02*
X104768000Y-2842000D01*
X117258642Y-7204642D02*
X118672224Y-5791060D01*
X105022000Y-1826000D02*
X104768000Y-2080000D01*
X110853632Y-7204642D02*
X108847380Y-5198390D01*
X116960000Y-2080000D02*
X118650584Y-2080000D01*
X100065683Y4477999D02*
X100065691Y4478007D01*
X108345853Y4477999D02*
X114574961Y4477999D01*
X106674801Y4477999D02*
X106700473Y4503669D01*
X100065691Y5782653D02*
X100865039Y6582001D01*
X105397999Y5025039D02*
X105945039Y4477999D01*
X114801585Y4704623D02*
X115878416Y4704623D01*
X108320185Y4503667D02*
X108345853Y4477999D01*
X100065691Y4478007D02*
X100065691Y5782653D01*
X100865039Y6582001D02*
X104345869Y6582001D01*
X116105038Y4478000D02*
X119654962Y4478000D01*
X120021379Y4844416D02*
X120818625Y4844413D01*
X114574961Y4477999D02*
X114801585Y4704623D01*
X126619523Y4477999D02*
X126986057Y4844533D01*
X88628559Y4477999D02*
X100065683Y4477999D01*
X115878416Y4704623D02*
X116105038Y4478000D01*
X105945039Y4477999D02*
X106674801Y4477999D01*
X106700473Y4503669D02*
X108320185Y4503667D01*
X120818625Y4844413D02*
X121185039Y4477999D01*
X119654962Y4478000D02*
X120021379Y4844416D01*
X121185039Y4477999D02*
X126619523Y4477999D01*
X104345869Y6582001D02*
X105397999Y5529871D01*
X87109920Y2959360D02*
X88628559Y4477999D01*
X105397999Y5529871D02*
X105397999Y5025039D01*
X95873727Y3092941D02*
X95601891Y2821105D01*
X107861219Y3395625D02*
X107197812Y3395625D01*
X104222246Y3369950D02*
X100916396Y3369950D01*
X107197812Y3395625D02*
X107067637Y3265450D01*
X120324668Y3333211D02*
X120287923Y3369956D01*
X107886887Y3369957D02*
X107861219Y3395625D01*
X115033927Y3369957D02*
X107886887Y3369957D01*
X115260553Y3596579D02*
X115033927Y3369957D01*
X100916396Y3369950D02*
X100639386Y3092941D01*
X100639386Y3092941D02*
X95873727Y3092941D01*
X104326744Y3265452D02*
X104222246Y3369950D01*
X115646076Y3369956D02*
X115419452Y3596579D01*
X107067637Y3265450D02*
X104326744Y3265452D01*
X120287923Y3369956D02*
X115646076Y3369956D01*
X115419452Y3596579D02*
X115260553Y3596579D01*
X118823882Y-11145668D02*
X124377793Y-11145668D01*
X118648884Y-10970670D02*
X118823882Y-11145668D01*
X127875444Y-11315320D02*
X128045096Y-11145668D01*
X136973749Y-11386442D02*
X137369871Y-10990320D01*
X127468305Y-11145668D02*
X127637957Y-11315320D01*
X124727792Y-11145668D02*
X127468305Y-11145668D01*
X131650720Y-11145668D02*
X132056067Y-10740321D01*
X124377793Y-11145668D02*
X124552793Y-10970669D01*
X127637957Y-11315320D02*
X127875444Y-11315320D01*
X135695557Y-10740321D02*
X136341678Y-11386442D01*
X136341678Y-11386442D02*
X136973749Y-11386442D01*
X128045096Y-11145668D02*
X131650720Y-11145668D01*
X124552793Y-10970669D02*
X124727792Y-11145668D01*
X132056067Y-10740321D02*
X135695557Y-10740321D01*
D29*
X105860000Y-2750000D02*
X105860000Y-4444480D01*
D27*
X123376782Y-6901550D02*
X123587323Y-7112091D01*
X123587323Y-7112091D02*
X123922218Y-7112091D01*
X123922218Y-7112091D02*
X124132759Y-6901550D01*
X139506988Y-10402988D02*
X140836000Y-11732000D01*
X119386734Y-6901550D02*
X123376782Y-6901550D01*
X139506988Y-9132988D02*
X139506988Y-10402988D01*
X137877210Y-7503210D02*
X139506988Y-9132988D01*
X127812098Y-7108810D02*
X127996054Y-7108810D01*
X135818363Y-6984378D02*
X136252287Y-6984378D01*
X135735535Y-6901550D02*
X135818363Y-6984378D01*
X137877210Y-7166330D02*
X137877210Y-7503210D01*
X118672224Y-7616060D02*
X119386734Y-6901550D01*
X136335115Y-6901550D02*
X137612430Y-6901550D01*
X137612430Y-6901550D02*
X137877210Y-7166330D01*
X136252287Y-6984378D02*
X136335115Y-6901550D01*
X127996054Y-7108810D02*
X128203314Y-6901550D01*
X124132759Y-6901550D02*
X127604838Y-6901550D01*
X128203314Y-6901550D02*
X135735535Y-6901550D01*
X127604838Y-6901550D02*
X127812098Y-7108810D01*
D28*
X104568414Y-8513490D02*
X106407008Y-8513490D01*
D29*
X119941378Y-8380570D02*
X120705888Y-7616060D01*
D28*
X87401660Y-7616060D02*
X103670984Y-7616060D01*
X107232990Y-7687508D02*
X107232990Y-6229818D01*
D29*
X108633937Y-5900400D02*
X111114107Y-8380570D01*
D28*
X107232990Y-6229818D02*
X107562408Y-5900400D01*
X106407008Y-8513490D02*
X107232990Y-7687508D01*
D29*
X111114107Y-8380570D02*
X119941378Y-8380570D01*
D28*
X103670984Y-7616060D02*
X104568414Y-8513490D01*
X107562408Y-5900400D02*
X108310000Y-5900400D01*
X120705888Y-7616060D02*
X136975200Y-7616060D01*
D29*
X104299761Y-1498989D02*
X103697110Y-2101640D01*
X87401660Y-2101640D02*
X103697110Y-2101640D01*
X108310000Y-2500000D02*
X107308989Y-1498989D01*
X110164030Y-3000000D02*
X119196316Y-3000000D01*
X119196316Y-3000000D02*
X120094676Y-2101640D01*
X107308989Y-1498989D02*
X104299761Y-1498989D01*
X110084019Y-3080011D02*
X110164030Y-3000000D01*
X120094676Y-2101640D02*
X120735280Y-2101640D01*
X108878086Y-2500000D02*
X109458097Y-3080011D01*
X120735280Y-2101640D02*
X136975200Y-2101640D01*
X109458097Y-3080011D02*
X110084019Y-3080011D01*
D27*
X142438500Y-10778000D02*
X142438500Y-11478000D01*
X119372224Y-3926640D02*
X120086734Y-3212130D01*
X138154221Y-7388469D02*
X138918741Y-8152989D01*
X137877210Y-3476910D02*
X137877210Y-6774578D01*
X123519168Y-3212130D02*
X123601039Y-3294001D01*
X120086734Y-3212130D02*
X123519168Y-3212130D01*
X123601039Y-3294001D02*
X124034961Y-3294001D01*
X125551166Y-3212130D02*
X125633038Y-3294002D01*
X126066962Y-3294002D02*
X126148834Y-3212130D01*
X139172741Y-8152989D02*
X139783999Y-8764247D01*
X138154221Y-7051589D02*
X138154221Y-7388469D01*
X124034961Y-3294001D02*
X124116832Y-3212130D01*
X139783999Y-9696961D02*
X140549038Y-10462000D01*
X126148834Y-3212130D02*
X137612430Y-3212130D01*
X138918741Y-8152989D02*
X139172741Y-8152989D01*
X125633038Y-3294002D02*
X126066962Y-3294002D01*
X140549038Y-10462000D02*
X142122500Y-10462000D01*
X142122500Y-10462000D02*
X142438500Y-10778000D01*
X139783999Y-8764247D02*
X139783999Y-9696961D01*
X137612430Y-3212130D02*
X137877210Y-3476910D01*
X137877210Y-6774578D02*
X138154221Y-7051589D01*
X124116832Y-3212130D02*
X125551166Y-3212130D01*
X118672224Y-3926640D02*
X119372224Y-3926640D01*
X141435000Y-1550000D02*
X142210000Y-775000D01*
X140450000Y-1550000D02*
X141435000Y-1550000D01*
X140450000Y-2200000D02*
X142735000Y-2200000D01*
X142735000Y-2200000D02*
X142760000Y-2175000D01*
X140450000Y-2850000D02*
X141285000Y-2850000D01*
X141285000Y-2850000D02*
X142160000Y-3725000D01*
X86988000Y4898000D02*
X86988000Y9096000D01*
X87575010Y9683010D02*
X93131349Y9683010D01*
X83810000Y1720000D02*
X86988000Y4898000D01*
X86988000Y9096000D02*
X87575010Y9683010D01*
X93131349Y9683010D02*
X93306339Y9858000D01*
X93306339Y9858000D02*
X93592000Y9858000D01*
G04 #@! TA.AperFunction,Conductor*
G36*
X141770018Y9790000D02*
G01*
X141784851Y9787690D01*
X141784855Y9787690D01*
X141793724Y9786309D01*
X141812436Y9788756D01*
X141835366Y9789647D01*
X142106103Y9775458D01*
X142119209Y9774081D01*
X142334134Y9740040D01*
X142415445Y9727162D01*
X142428345Y9724420D01*
X142452895Y9717842D01*
X142718052Y9646793D01*
X142730586Y9642721D01*
X142994321Y9541482D01*
X143010587Y9535238D01*
X143022635Y9529874D01*
X143289870Y9393711D01*
X143301286Y9387120D01*
X143552832Y9223764D01*
X143563492Y9216018D01*
X143732068Y9079508D01*
X143796573Y9027273D01*
X143806374Y9018448D01*
X144018448Y8806374D01*
X144027273Y8796573D01*
X144197895Y8585873D01*
X144216016Y8563495D01*
X144223764Y8552832D01*
X144387117Y8301291D01*
X144393711Y8289870D01*
X144529874Y8022635D01*
X144535237Y8010588D01*
X144636855Y7745868D01*
X144642719Y7730591D01*
X144646793Y7718052D01*
X144680201Y7593374D01*
X144724420Y7428345D01*
X144727162Y7415445D01*
X144740040Y7334134D01*
X144763948Y7183188D01*
X144774080Y7119215D01*
X144775458Y7106098D01*
X144789262Y6842701D01*
X144787935Y6816724D01*
X144787691Y6815154D01*
X144787691Y6815150D01*
X144786309Y6806276D01*
X144787473Y6797374D01*
X144787473Y6797372D01*
X144790436Y6774717D01*
X144791500Y6758379D01*
X144791500Y2366068D01*
X144771498Y2297947D01*
X144717842Y2251454D01*
X144644901Y2241763D01*
X144633745Y2243612D01*
X144623334Y2239124D01*
X143772022Y1387812D01*
X143764408Y1373868D01*
X143764539Y1372035D01*
X143768790Y1365420D01*
X144620290Y513920D01*
X144634234Y506306D01*
X144656511Y507899D01*
X144725885Y492808D01*
X144776087Y442606D01*
X144791500Y382220D01*
X144791500Y-4783932D01*
X144771498Y-4852053D01*
X144717842Y-4898546D01*
X144644901Y-4908237D01*
X144633745Y-4906388D01*
X144623334Y-4910876D01*
X143772022Y-5762188D01*
X143764408Y-5776132D01*
X143764539Y-5777965D01*
X143768790Y-5784580D01*
X144620290Y-6636080D01*
X144634234Y-6643694D01*
X144656511Y-6642101D01*
X144725885Y-6657192D01*
X144776087Y-6707394D01*
X144791500Y-6767780D01*
X144791500Y-7863313D01*
X144771498Y-7931434D01*
X144717842Y-7977927D01*
X144652658Y-7988657D01*
X144610402Y-7984328D01*
X144603984Y-7984000D01*
X144585615Y-7984000D01*
X144570376Y-7988475D01*
X144569171Y-7989865D01*
X144567500Y-7997548D01*
X144567500Y-12667884D01*
X144571975Y-12683123D01*
X144573365Y-12684328D01*
X144581048Y-12685999D01*
X144603933Y-12685999D01*
X144610450Y-12685662D01*
X144652496Y-12681299D01*
X144722317Y-12694164D01*
X144774100Y-12742734D01*
X144791500Y-12806626D01*
X144791500Y-16150633D01*
X144790000Y-16170018D01*
X144787690Y-16184851D01*
X144787690Y-16184855D01*
X144786309Y-16193724D01*
X144787968Y-16206408D01*
X144788756Y-16212433D01*
X144789647Y-16235366D01*
X144776344Y-16489200D01*
X144775458Y-16506099D01*
X144774081Y-16519209D01*
X144747468Y-16687238D01*
X144727162Y-16815445D01*
X144724420Y-16828345D01*
X144691164Y-16952459D01*
X144661521Y-17063090D01*
X144646795Y-17118047D01*
X144642721Y-17130586D01*
X144562307Y-17340071D01*
X144535238Y-17410587D01*
X144529874Y-17422635D01*
X144393711Y-17689870D01*
X144387120Y-17701286D01*
X144223764Y-17952832D01*
X144216018Y-17963492D01*
X144051308Y-18166892D01*
X144027273Y-18196573D01*
X144018448Y-18206374D01*
X143806374Y-18418448D01*
X143796573Y-18427273D01*
X143570049Y-18610709D01*
X143563495Y-18616016D01*
X143552832Y-18623764D01*
X143301286Y-18787120D01*
X143289870Y-18793711D01*
X143022635Y-18929874D01*
X143010588Y-18935237D01*
X142730586Y-19042721D01*
X142718052Y-19046793D01*
X142573196Y-19085608D01*
X142428345Y-19124420D01*
X142415445Y-19127162D01*
X142334134Y-19140040D01*
X142119209Y-19174081D01*
X142106101Y-19175458D01*
X142030937Y-19179397D01*
X141842701Y-19189262D01*
X141816724Y-19187935D01*
X141815154Y-19187691D01*
X141815150Y-19187691D01*
X141806276Y-19186309D01*
X141797374Y-19187473D01*
X141797372Y-19187473D01*
X141782323Y-19189441D01*
X141774714Y-19190436D01*
X141758379Y-19191500D01*
X128838950Y-19191500D01*
X128770829Y-19171498D01*
X128724336Y-19117842D01*
X128714176Y-19047964D01*
X128714341Y-19046795D01*
X128726281Y-18961833D01*
X128726579Y-18940520D01*
X128707611Y-18771412D01*
X128697816Y-18743283D01*
X128653966Y-18617366D01*
X128651648Y-18610709D01*
X128561472Y-18466399D01*
X128518493Y-18423118D01*
X128446528Y-18350649D01*
X128441566Y-18345652D01*
X128297888Y-18254471D01*
X128137580Y-18197388D01*
X127968609Y-18177240D01*
X127961606Y-18177976D01*
X127961605Y-18177976D01*
X127806381Y-18194290D01*
X127806377Y-18194291D01*
X127799373Y-18195027D01*
X127792702Y-18197298D01*
X127644953Y-18247595D01*
X127644950Y-18247596D01*
X127638283Y-18249866D01*
X127632285Y-18253556D01*
X127632283Y-18253557D01*
X127627955Y-18256220D01*
X127559454Y-18274880D01*
X127491740Y-18253543D01*
X127446310Y-18198984D01*
X127439062Y-18176822D01*
X127438396Y-18173891D01*
X127437611Y-18166892D01*
X127381648Y-18006189D01*
X127291472Y-17861879D01*
X127171566Y-17741132D01*
X127139623Y-17720860D01*
X127108787Y-17701291D01*
X127027888Y-17649951D01*
X126867580Y-17592868D01*
X126758351Y-17579844D01*
X126725052Y-17571139D01*
X126603234Y-17520680D01*
X126595605Y-17517520D01*
X126481525Y-17502501D01*
X126443281Y-17497466D01*
X126435093Y-17498544D01*
X126413225Y-17501423D01*
X126396778Y-17502501D01*
X124559944Y-17502501D01*
X124543497Y-17501423D01*
X124521629Y-17498544D01*
X124513441Y-17497466D01*
X124505253Y-17498544D01*
X124501918Y-17498544D01*
X124433797Y-17478542D01*
X124412511Y-17461327D01*
X124403082Y-17451831D01*
X124382646Y-17431252D01*
X124375422Y-17426667D01*
X124294691Y-17375434D01*
X124238968Y-17340071D01*
X124078660Y-17282988D01*
X123909689Y-17262840D01*
X123902686Y-17263576D01*
X123902685Y-17263576D01*
X123747461Y-17279890D01*
X123747457Y-17279891D01*
X123740453Y-17280627D01*
X123733782Y-17282898D01*
X123586033Y-17333195D01*
X123586030Y-17333196D01*
X123579363Y-17335466D01*
X123573365Y-17339156D01*
X123573363Y-17339157D01*
X123435554Y-17423938D01*
X123369532Y-17442620D01*
X116085425Y-17442620D01*
X116068978Y-17441542D01*
X116047110Y-17438663D01*
X116038922Y-17437585D01*
X116000678Y-17442620D01*
X115934178Y-17451375D01*
X115864030Y-17440436D01*
X115848558Y-17430761D01*
X115848246Y-17431252D01*
X115704568Y-17340071D01*
X115544260Y-17282988D01*
X115375289Y-17262840D01*
X115368286Y-17263576D01*
X115368285Y-17263576D01*
X115213061Y-17279890D01*
X115213057Y-17279891D01*
X115206053Y-17280627D01*
X115199382Y-17282898D01*
X115051633Y-17333195D01*
X115051630Y-17333196D01*
X115044963Y-17335466D01*
X115038965Y-17339156D01*
X115038963Y-17339157D01*
X114906025Y-17420941D01*
X114906023Y-17420943D01*
X114900026Y-17424632D01*
X114877466Y-17446725D01*
X114789671Y-17532701D01*
X114778446Y-17543693D01*
X114774635Y-17549607D01*
X114774633Y-17549609D01*
X114694187Y-17674436D01*
X114640472Y-17720860D01*
X114588276Y-17732180D01*
X107883441Y-17732180D01*
X107815320Y-17712178D01*
X107794035Y-17694963D01*
X107699813Y-17600080D01*
X107699809Y-17600077D01*
X107694846Y-17595079D01*
X107551168Y-17503898D01*
X107390860Y-17446815D01*
X107221889Y-17426667D01*
X107214886Y-17427403D01*
X107214885Y-17427403D01*
X107059661Y-17443717D01*
X107059657Y-17443718D01*
X107052653Y-17444454D01*
X107045982Y-17446725D01*
X106898233Y-17497022D01*
X106898230Y-17497023D01*
X106891563Y-17499293D01*
X106885565Y-17502983D01*
X106885563Y-17502984D01*
X106882223Y-17505039D01*
X106746626Y-17588459D01*
X106742867Y-17592140D01*
X106677530Y-17618059D01*
X106617731Y-17609002D01*
X106522120Y-17569399D01*
X106408040Y-17554380D01*
X106369796Y-17549345D01*
X106361608Y-17550423D01*
X106339740Y-17553302D01*
X106323293Y-17554380D01*
X102567765Y-17554380D01*
X102500251Y-17534765D01*
X102449411Y-17502501D01*
X102369568Y-17451831D01*
X102209260Y-17394748D01*
X102040289Y-17374600D01*
X102033286Y-17375336D01*
X102033285Y-17375336D01*
X101878061Y-17391650D01*
X101878057Y-17391651D01*
X101871053Y-17392387D01*
X101864382Y-17394658D01*
X101716633Y-17444955D01*
X101716630Y-17444956D01*
X101709963Y-17447226D01*
X101703965Y-17450916D01*
X101703963Y-17450917D01*
X101571025Y-17532701D01*
X101571023Y-17532703D01*
X101565026Y-17536392D01*
X101499991Y-17600080D01*
X101451966Y-17647110D01*
X101443446Y-17655453D01*
X101439635Y-17661367D01*
X101439633Y-17661369D01*
X101375100Y-17761504D01*
X101351264Y-17798490D01*
X101293063Y-17958396D01*
X101271735Y-18127223D01*
X101288341Y-18296579D01*
X101290565Y-18303264D01*
X101290565Y-18303265D01*
X101302463Y-18339032D01*
X101342054Y-18458047D01*
X101345701Y-18464069D01*
X101345702Y-18464071D01*
X101350731Y-18472374D01*
X101430206Y-18603603D01*
X101548415Y-18726012D01*
X101580514Y-18747017D01*
X101664114Y-18801723D01*
X101690806Y-18819190D01*
X101697410Y-18821646D01*
X101697412Y-18821647D01*
X101733804Y-18835181D01*
X101850301Y-18878506D01*
X102018975Y-18901012D01*
X102025986Y-18900374D01*
X102025990Y-18900374D01*
X102181422Y-18886228D01*
X102188443Y-18885589D01*
X102195145Y-18883411D01*
X102195147Y-18883411D01*
X102343583Y-18835181D01*
X102343586Y-18835180D01*
X102350282Y-18833004D01*
X102453603Y-18771412D01*
X102490403Y-18749475D01*
X102490405Y-18749474D01*
X102496450Y-18745870D01*
X102496488Y-18745934D01*
X102559994Y-18721764D01*
X102569820Y-18721380D01*
X103471757Y-18721380D01*
X103539878Y-18741382D01*
X103586371Y-18795038D01*
X103596764Y-18863168D01*
X103595020Y-18876973D01*
X103602954Y-18957886D01*
X103611626Y-19046329D01*
X103610387Y-19046450D01*
X103605538Y-19110083D01*
X103562726Y-19166719D01*
X103496091Y-19191220D01*
X103487689Y-19191500D01*
X83849367Y-19191500D01*
X83829982Y-19190000D01*
X83815149Y-19187690D01*
X83815145Y-19187690D01*
X83806276Y-19186309D01*
X83787564Y-19188756D01*
X83764634Y-19189647D01*
X83493897Y-19175458D01*
X83480791Y-19174081D01*
X83265866Y-19140040D01*
X83184555Y-19127162D01*
X83171655Y-19124420D01*
X83026804Y-19085608D01*
X82881948Y-19046793D01*
X82869414Y-19042721D01*
X82589412Y-18935237D01*
X82577365Y-18929874D01*
X82310130Y-18793711D01*
X82298714Y-18787120D01*
X82047168Y-18623764D01*
X82036505Y-18616016D01*
X82029952Y-18610709D01*
X81803427Y-18427273D01*
X81793626Y-18418448D01*
X81581552Y-18206374D01*
X81572727Y-18196573D01*
X81548692Y-18166892D01*
X81383982Y-17963492D01*
X81376236Y-17952832D01*
X81212880Y-17701286D01*
X81206289Y-17689870D01*
X81070126Y-17422635D01*
X81064762Y-17410587D01*
X81037693Y-17340071D01*
X80957279Y-17130586D01*
X80953205Y-17118047D01*
X80938480Y-17063090D01*
X80908836Y-16952459D01*
X80875580Y-16828345D01*
X80872838Y-16815445D01*
X80852532Y-16687238D01*
X80825919Y-16519209D01*
X80824542Y-16506098D01*
X80823657Y-16489200D01*
X80810932Y-16246409D01*
X80811168Y-16242277D01*
X81937009Y-16242277D01*
X81962625Y-16510769D01*
X81963710Y-16515203D01*
X81963711Y-16515209D01*
X82009136Y-16700846D01*
X82026731Y-16772750D01*
X82127985Y-17022733D01*
X82264265Y-17255482D01*
X82327511Y-17334567D01*
X82421290Y-17451831D01*
X82432716Y-17466119D01*
X82629809Y-17650234D01*
X82851416Y-17803968D01*
X82855499Y-17805999D01*
X82855502Y-17806001D01*
X82957774Y-17856880D01*
X83092894Y-17924101D01*
X83097228Y-17925522D01*
X83097231Y-17925523D01*
X83344853Y-18006698D01*
X83344859Y-18006699D01*
X83349186Y-18008118D01*
X83353677Y-18008898D01*
X83353678Y-18008898D01*
X83611140Y-18053601D01*
X83611148Y-18053602D01*
X83614921Y-18054257D01*
X83618758Y-18054448D01*
X83698578Y-18058422D01*
X83698586Y-18058422D01*
X83700149Y-18058500D01*
X83868512Y-18058500D01*
X83870780Y-18058335D01*
X83870792Y-18058335D01*
X84001884Y-18048823D01*
X84069004Y-18043953D01*
X84073459Y-18042969D01*
X84073462Y-18042969D01*
X84327912Y-17986791D01*
X84327916Y-17986790D01*
X84332372Y-17985806D01*
X84458480Y-17938028D01*
X84580318Y-17891868D01*
X84580321Y-17891867D01*
X84584588Y-17890250D01*
X84820368Y-17759286D01*
X84968470Y-17646258D01*
X85031141Y-17598429D01*
X85031142Y-17598428D01*
X85034773Y-17595657D01*
X85038466Y-17591880D01*
X85177964Y-17449180D01*
X85223312Y-17402792D01*
X85382034Y-17184730D01*
X85465190Y-17026676D01*
X85505490Y-16950079D01*
X85505493Y-16950073D01*
X85507615Y-16946039D01*
X85510685Y-16937347D01*
X85595902Y-16696033D01*
X85595902Y-16696032D01*
X85597425Y-16691720D01*
X85601939Y-16668816D01*
X87398724Y-16668816D01*
X87398742Y-16669068D01*
X87404658Y-16677814D01*
X87429970Y-16700846D01*
X87435592Y-16705399D01*
X87704148Y-16898376D01*
X87710279Y-16902266D01*
X87999223Y-17063090D01*
X88005743Y-17066242D01*
X88311268Y-17192795D01*
X88318119Y-17195181D01*
X88636147Y-17285773D01*
X88643236Y-17287358D01*
X88969580Y-17340799D01*
X88976786Y-17341556D01*
X89307113Y-17357134D01*
X89314363Y-17357058D01*
X89644280Y-17334567D01*
X89651489Y-17333656D01*
X89976642Y-17273393D01*
X89983672Y-17271666D01*
X90299758Y-17174424D01*
X90306536Y-17171904D01*
X90609363Y-17038972D01*
X90615798Y-17035693D01*
X90901322Y-16868847D01*
X90907371Y-16864828D01*
X91153473Y-16680049D01*
X91161927Y-16668722D01*
X91155182Y-16656392D01*
X89292812Y-14794022D01*
X89278868Y-14786408D01*
X89277035Y-14786539D01*
X89270420Y-14790790D01*
X87406338Y-16654872D01*
X87398724Y-16668816D01*
X85601939Y-16668816D01*
X85627855Y-16537331D01*
X85648700Y-16431572D01*
X85648701Y-16431566D01*
X85649581Y-16427100D01*
X85656103Y-16296089D01*
X85662764Y-16162292D01*
X85662764Y-16162286D01*
X85662991Y-16157723D01*
X85637375Y-15889231D01*
X85627158Y-15847475D01*
X85574355Y-15631688D01*
X85573269Y-15627250D01*
X85472015Y-15377267D01*
X85362408Y-15190072D01*
X85338045Y-15148463D01*
X85338044Y-15148462D01*
X85335735Y-15144518D01*
X85217928Y-14997208D01*
X85170136Y-14937447D01*
X85170135Y-14937445D01*
X85167284Y-14933881D01*
X84970191Y-14749766D01*
X84748584Y-14596032D01*
X84744501Y-14594001D01*
X84744498Y-14593999D01*
X84579606Y-14511967D01*
X84507106Y-14475899D01*
X84502772Y-14474478D01*
X84502769Y-14474477D01*
X84255147Y-14393302D01*
X84255141Y-14393301D01*
X84250814Y-14391882D01*
X84246322Y-14391102D01*
X83988860Y-14346399D01*
X83988852Y-14346398D01*
X83985079Y-14345743D01*
X83973817Y-14345182D01*
X83901422Y-14341578D01*
X83901414Y-14341578D01*
X83899851Y-14341500D01*
X83731488Y-14341500D01*
X83729220Y-14341665D01*
X83729208Y-14341665D01*
X83598116Y-14351177D01*
X83530996Y-14356047D01*
X83526541Y-14357031D01*
X83526538Y-14357031D01*
X83272088Y-14413209D01*
X83272084Y-14413210D01*
X83267628Y-14414194D01*
X83213208Y-14434812D01*
X83019682Y-14508132D01*
X83019679Y-14508133D01*
X83015412Y-14509750D01*
X82896782Y-14575643D01*
X82788157Y-14635979D01*
X82779632Y-14640714D01*
X82734447Y-14675198D01*
X82582986Y-14790790D01*
X82565227Y-14804343D01*
X82376688Y-14997208D01*
X82217966Y-15215270D01*
X82187913Y-15272392D01*
X82094510Y-15449921D01*
X82094507Y-15449927D01*
X82092385Y-15453961D01*
X82090865Y-15458266D01*
X82090863Y-15458270D01*
X82029277Y-15632667D01*
X82002575Y-15708280D01*
X82001692Y-15712762D01*
X81957012Y-15939452D01*
X81950419Y-15972900D01*
X81950192Y-15977453D01*
X81950192Y-15977456D01*
X81937353Y-16235368D01*
X81937009Y-16242277D01*
X80811168Y-16242277D01*
X80812505Y-16218915D01*
X80813576Y-16212552D01*
X80813729Y-16200000D01*
X80809773Y-16172376D01*
X80808500Y-16154514D01*
X80808500Y-14333426D01*
X86346077Y-14333426D01*
X86354734Y-14664006D01*
X86355340Y-14671227D01*
X86401936Y-14998622D01*
X86403367Y-15005724D01*
X86487287Y-15325606D01*
X86489523Y-15332486D01*
X86609650Y-15640596D01*
X86612665Y-15647183D01*
X86767413Y-15939452D01*
X86771159Y-15945637D01*
X86958470Y-16218176D01*
X86962915Y-16223905D01*
X87023674Y-16293555D01*
X87036846Y-16301959D01*
X87046701Y-16296089D01*
X88907978Y-14434812D01*
X88915592Y-14420868D01*
X88915461Y-14419035D01*
X88911210Y-14412420D01*
X87047577Y-12548787D01*
X87034784Y-12541801D01*
X87024031Y-12549665D01*
X86871784Y-12743833D01*
X86867650Y-12749781D01*
X86694858Y-13031753D01*
X86691437Y-13038132D01*
X86552197Y-13338100D01*
X86549537Y-13344819D01*
X86445697Y-13658799D01*
X86443821Y-13665803D01*
X86376760Y-13989628D01*
X86375703Y-13996789D01*
X86346305Y-14326174D01*
X86346077Y-14333426D01*
X80808500Y-14333426D01*
X80808500Y-12648500D01*
X80828502Y-12580379D01*
X80882158Y-12533886D01*
X80934500Y-12522500D01*
X81754696Y-12522499D01*
X81779230Y-12522499D01*
X81884129Y-12511616D01*
X81890660Y-12509437D01*
X81890665Y-12509436D01*
X82043578Y-12458420D01*
X82050526Y-12456102D01*
X82199689Y-12363797D01*
X82323617Y-12239653D01*
X82344625Y-12205572D01*
X82365462Y-12171768D01*
X82418234Y-12124274D01*
X82488305Y-12112850D01*
X82553429Y-12141124D01*
X82573547Y-12162317D01*
X82589098Y-12183066D01*
X82596739Y-12193261D01*
X82713295Y-12280615D01*
X82849684Y-12331745D01*
X82911866Y-12338500D01*
X84708134Y-12338500D01*
X84770316Y-12331745D01*
X84906705Y-12280615D01*
X85023261Y-12193261D01*
X85110615Y-12076705D01*
X85161745Y-11940316D01*
X85168500Y-11878134D01*
X85168500Y-11739500D01*
X85188502Y-11671379D01*
X85242158Y-11624886D01*
X85294500Y-11613500D01*
X87805047Y-11613500D01*
X87873168Y-11633502D01*
X87919661Y-11687158D01*
X87929765Y-11757432D01*
X87900271Y-11822012D01*
X87865752Y-11849913D01*
X87862741Y-11851568D01*
X87582625Y-12027285D01*
X87576697Y-12031497D01*
X87408737Y-12166058D01*
X87400267Y-12178184D01*
X87406662Y-12189452D01*
X89267188Y-14049978D01*
X89281132Y-14057592D01*
X89282965Y-14057461D01*
X89289580Y-14053210D01*
X91152102Y-12190688D01*
X91159494Y-12177151D01*
X91152707Y-12167451D01*
X91057538Y-12086170D01*
X91051764Y-12081787D01*
X90777282Y-11897342D01*
X90771059Y-11893662D01*
X90689307Y-11851466D01*
X90637948Y-11802448D01*
X90621243Y-11733444D01*
X90644495Y-11666364D01*
X90700323Y-11622503D01*
X90747097Y-11613500D01*
X95558195Y-11613500D01*
X95626316Y-11633502D01*
X95672809Y-11687158D01*
X95682913Y-11757432D01*
X95653419Y-11822012D01*
X95611445Y-11853695D01*
X95542041Y-11886058D01*
X95542036Y-11886061D01*
X95537054Y-11888384D01*
X95532547Y-11891540D01*
X95532545Y-11891541D01*
X95357955Y-12013790D01*
X95357952Y-12013792D01*
X95353444Y-12016949D01*
X95194949Y-12175444D01*
X95191792Y-12179952D01*
X95191790Y-12179955D01*
X95081034Y-12338131D01*
X95066384Y-12359054D01*
X95064061Y-12364036D01*
X95064058Y-12364041D01*
X94984590Y-12534461D01*
X94971656Y-12562199D01*
X94970234Y-12567507D01*
X94970233Y-12567509D01*
X94931810Y-12710907D01*
X94913643Y-12778707D01*
X94894107Y-13002000D01*
X94913643Y-13225293D01*
X94915066Y-13230604D01*
X94915068Y-13230615D01*
X94918536Y-13243557D01*
X94916846Y-13314533D01*
X94877051Y-13373328D01*
X94811786Y-13401275D01*
X94796829Y-13402166D01*
X94789940Y-13402166D01*
X94722427Y-13382552D01*
X94704281Y-13371036D01*
X94543973Y-13313953D01*
X94375002Y-13293805D01*
X94367999Y-13294541D01*
X94367998Y-13294541D01*
X94315240Y-13300086D01*
X94245402Y-13287314D01*
X94234556Y-13281161D01*
X94175301Y-13243557D01*
X94101911Y-13196982D01*
X93941603Y-13139899D01*
X93772632Y-13119751D01*
X93765629Y-13120487D01*
X93765628Y-13120487D01*
X93610404Y-13136801D01*
X93610400Y-13136802D01*
X93603396Y-13137538D01*
X93596725Y-13139809D01*
X93448976Y-13190106D01*
X93448973Y-13190107D01*
X93442306Y-13192377D01*
X93436308Y-13196067D01*
X93436306Y-13196068D01*
X93303368Y-13277852D01*
X93303366Y-13277854D01*
X93297369Y-13281543D01*
X93292336Y-13286472D01*
X93205983Y-13371036D01*
X93175789Y-13400604D01*
X93171978Y-13406518D01*
X93171976Y-13406520D01*
X93096537Y-13523578D01*
X93042822Y-13570002D01*
X93031235Y-13574599D01*
X92936803Y-13606746D01*
X92930805Y-13610436D01*
X92930803Y-13610437D01*
X92797865Y-13692221D01*
X92797863Y-13692223D01*
X92791866Y-13695912D01*
X92691470Y-13794228D01*
X92628805Y-13827599D01*
X92616483Y-13829515D01*
X92546741Y-13836845D01*
X92546739Y-13836846D01*
X92539741Y-13837581D01*
X92479910Y-13857949D01*
X92385321Y-13890149D01*
X92385318Y-13890150D01*
X92378651Y-13892420D01*
X92372652Y-13896110D01*
X92372649Y-13896112D01*
X92341642Y-13915188D01*
X92273141Y-13933847D01*
X92205427Y-13912509D01*
X92159998Y-13857949D01*
X92151495Y-13829534D01*
X92138532Y-13755257D01*
X92136877Y-13748202D01*
X92042956Y-13431131D01*
X92040498Y-13424303D01*
X91910754Y-13120126D01*
X91907537Y-13113643D01*
X91743680Y-12826371D01*
X91739748Y-12820316D01*
X91543960Y-12553784D01*
X91539347Y-12548208D01*
X91538990Y-12547824D01*
X91525337Y-12539705D01*
X91524732Y-12539726D01*
X91516250Y-12544960D01*
X89652022Y-14409188D01*
X89644408Y-14423132D01*
X89644539Y-14424965D01*
X89648790Y-14431580D01*
X91511246Y-16294036D01*
X91524600Y-16301328D01*
X91534572Y-16294274D01*
X91634321Y-16174975D01*
X91638631Y-16169172D01*
X91820201Y-15892759D01*
X91823815Y-15886497D01*
X91972411Y-15591050D01*
X91975283Y-15584412D01*
X92089466Y-15272392D01*
X92131660Y-15215294D01*
X92198026Y-15190072D01*
X92267492Y-15204734D01*
X92276785Y-15210261D01*
X92284477Y-15215294D01*
X92359494Y-15264384D01*
X92366098Y-15266840D01*
X92366100Y-15266841D01*
X92439242Y-15294042D01*
X92518989Y-15323700D01*
X92592217Y-15333470D01*
X92657093Y-15362305D01*
X92664645Y-15369265D01*
X92738207Y-15442827D01*
X92749073Y-15455218D01*
X92762496Y-15472712D01*
X92762499Y-15472715D01*
X92767525Y-15479265D01*
X92798125Y-15502745D01*
X92798128Y-15502748D01*
X92889415Y-15572794D01*
X93031358Y-15631589D01*
X93183682Y-15651643D01*
X93213740Y-15647686D01*
X93230185Y-15646608D01*
X94769613Y-15646608D01*
X94786060Y-15647686D01*
X94816116Y-15651643D01*
X94824304Y-15650565D01*
X94849993Y-15647183D01*
X94854360Y-15646608D01*
X94968440Y-15631589D01*
X95110383Y-15572794D01*
X95232273Y-15479265D01*
X95234064Y-15481599D01*
X95283933Y-15454368D01*
X95310716Y-15451489D01*
X96179242Y-15451489D01*
X96247363Y-15471491D01*
X96293856Y-15525147D01*
X96303960Y-15595421D01*
X96300949Y-15610097D01*
X96300069Y-15613382D01*
X96300067Y-15613391D01*
X96298643Y-15618707D01*
X96279107Y-15842000D01*
X96298643Y-16065293D01*
X96300067Y-16070606D01*
X96300067Y-16070608D01*
X96346066Y-16242277D01*
X96356656Y-16281801D01*
X96358978Y-16286782D01*
X96358979Y-16286783D01*
X96449058Y-16479959D01*
X96449061Y-16479964D01*
X96451384Y-16484946D01*
X96454540Y-16489453D01*
X96454541Y-16489455D01*
X96571432Y-16656392D01*
X96579949Y-16668556D01*
X96738444Y-16827051D01*
X96742952Y-16830208D01*
X96742955Y-16830210D01*
X96819256Y-16883636D01*
X96922053Y-16955616D01*
X96927035Y-16957939D01*
X96927040Y-16957942D01*
X97119205Y-17047549D01*
X97125199Y-17050344D01*
X97130507Y-17051766D01*
X97130509Y-17051767D01*
X97336392Y-17106933D01*
X97336394Y-17106933D01*
X97341707Y-17108357D01*
X97565000Y-17127893D01*
X97788293Y-17108357D01*
X97793606Y-17106933D01*
X97793608Y-17106933D01*
X97999491Y-17051767D01*
X97999493Y-17051766D01*
X98004801Y-17050344D01*
X98010795Y-17047549D01*
X98202960Y-16957942D01*
X98202965Y-16957939D01*
X98207947Y-16955616D01*
X98275498Y-16908316D01*
X99633238Y-16908316D01*
X99642532Y-16920330D01*
X99687796Y-16952024D01*
X99697291Y-16957507D01*
X99890388Y-17047549D01*
X99900680Y-17051295D01*
X100106479Y-17106439D01*
X100117274Y-17108342D01*
X100329525Y-17126912D01*
X100340475Y-17126912D01*
X100552726Y-17108342D01*
X100563521Y-17106439D01*
X100769320Y-17051295D01*
X100779612Y-17047549D01*
X100972709Y-16957507D01*
X100982204Y-16952024D01*
X101028302Y-16919746D01*
X101036678Y-16909267D01*
X101029611Y-16895822D01*
X100347811Y-16214021D01*
X100333868Y-16206408D01*
X100332034Y-16206539D01*
X100325420Y-16210790D01*
X99639665Y-16896546D01*
X99633238Y-16908316D01*
X98275498Y-16908316D01*
X98310744Y-16883636D01*
X98387045Y-16830210D01*
X98387048Y-16830208D01*
X98391556Y-16827051D01*
X98550051Y-16668556D01*
X98558569Y-16656392D01*
X98675459Y-16489455D01*
X98675460Y-16489453D01*
X98678616Y-16484946D01*
X98680939Y-16479964D01*
X98680942Y-16479959D01*
X98771021Y-16286783D01*
X98771022Y-16286782D01*
X98773344Y-16281801D01*
X98782827Y-16246410D01*
X98828552Y-16075763D01*
X98865504Y-16015140D01*
X98929365Y-15984119D01*
X98999859Y-15992547D01*
X99054606Y-16037750D01*
X99071966Y-16075763D01*
X99125705Y-16276320D01*
X99129451Y-16286612D01*
X99219496Y-16479714D01*
X99224974Y-16489200D01*
X99257254Y-16535302D01*
X99267732Y-16543677D01*
X99281180Y-16536609D01*
X100245905Y-15571885D01*
X100308217Y-15537859D01*
X100379033Y-15542924D01*
X100424095Y-15571885D01*
X101389542Y-16537331D01*
X101401317Y-16543761D01*
X101413330Y-16534467D01*
X101445026Y-16489200D01*
X101450504Y-16479714D01*
X101540549Y-16286612D01*
X101544295Y-16276320D01*
X101598034Y-16075763D01*
X101634986Y-16015140D01*
X101698846Y-15984119D01*
X101769341Y-15992547D01*
X101824088Y-16037750D01*
X101841448Y-16075763D01*
X101887173Y-16246410D01*
X101896656Y-16281801D01*
X101898978Y-16286782D01*
X101898979Y-16286783D01*
X101989058Y-16479959D01*
X101989061Y-16479964D01*
X101991384Y-16484946D01*
X101994540Y-16489453D01*
X101994541Y-16489455D01*
X102111432Y-16656392D01*
X102119949Y-16668556D01*
X102278444Y-16827051D01*
X102282952Y-16830208D01*
X102282955Y-16830210D01*
X102359256Y-16883636D01*
X102462053Y-16955616D01*
X102467035Y-16957939D01*
X102467040Y-16957942D01*
X102659205Y-17047549D01*
X102665199Y-17050344D01*
X102670507Y-17051766D01*
X102670509Y-17051767D01*
X102876392Y-17106933D01*
X102876394Y-17106933D01*
X102881707Y-17108357D01*
X103105000Y-17127893D01*
X103328293Y-17108357D01*
X103333606Y-17106933D01*
X103333608Y-17106933D01*
X103539491Y-17051767D01*
X103539493Y-17051766D01*
X103544801Y-17050344D01*
X103550795Y-17047549D01*
X103742960Y-16957942D01*
X103742965Y-16957939D01*
X103747947Y-16955616D01*
X103850744Y-16883636D01*
X103927045Y-16830210D01*
X103927048Y-16830208D01*
X103931556Y-16827051D01*
X104090051Y-16668556D01*
X104098569Y-16656392D01*
X104215459Y-16489455D01*
X104215460Y-16489453D01*
X104218616Y-16484946D01*
X104220939Y-16479964D01*
X104220942Y-16479959D01*
X104311021Y-16286783D01*
X104311022Y-16286782D01*
X104313344Y-16281801D01*
X104323935Y-16242277D01*
X104368293Y-16076728D01*
X104405245Y-16016105D01*
X104469105Y-15985084D01*
X104539600Y-15993512D01*
X104594347Y-16038715D01*
X104611707Y-16076728D01*
X104656066Y-16242277D01*
X104666656Y-16281801D01*
X104668978Y-16286782D01*
X104668979Y-16286783D01*
X104759058Y-16479959D01*
X104759061Y-16479964D01*
X104761384Y-16484946D01*
X104764540Y-16489453D01*
X104764541Y-16489455D01*
X104881432Y-16656392D01*
X104889949Y-16668556D01*
X105048444Y-16827051D01*
X105052952Y-16830208D01*
X105052955Y-16830210D01*
X105129256Y-16883636D01*
X105232053Y-16955616D01*
X105237035Y-16957939D01*
X105237040Y-16957942D01*
X105429205Y-17047549D01*
X105435199Y-17050344D01*
X105440507Y-17051766D01*
X105440509Y-17051767D01*
X105646392Y-17106933D01*
X105646394Y-17106933D01*
X105651707Y-17108357D01*
X105875000Y-17127893D01*
X106098293Y-17108357D01*
X106103606Y-17106933D01*
X106103608Y-17106933D01*
X106309491Y-17051767D01*
X106309493Y-17051766D01*
X106314801Y-17050344D01*
X106320795Y-17047549D01*
X106512960Y-16957942D01*
X106512965Y-16957939D01*
X106517947Y-16955616D01*
X106620744Y-16883636D01*
X106697045Y-16830210D01*
X106697048Y-16830208D01*
X106701556Y-16827051D01*
X106860051Y-16668556D01*
X106868569Y-16656392D01*
X106985459Y-16489455D01*
X106985460Y-16489453D01*
X106988616Y-16484946D01*
X106990939Y-16479964D01*
X106990942Y-16479959D01*
X107081021Y-16286783D01*
X107081022Y-16286782D01*
X107083344Y-16281801D01*
X107093935Y-16242277D01*
X107138293Y-16076728D01*
X107175245Y-16016105D01*
X107239105Y-15985084D01*
X107309600Y-15993512D01*
X107364347Y-16038715D01*
X107381707Y-16076728D01*
X107426066Y-16242277D01*
X107436656Y-16281801D01*
X107438978Y-16286782D01*
X107438979Y-16286783D01*
X107529058Y-16479959D01*
X107529061Y-16479964D01*
X107531384Y-16484946D01*
X107534540Y-16489453D01*
X107534541Y-16489455D01*
X107651432Y-16656392D01*
X107659949Y-16668556D01*
X107818444Y-16827051D01*
X107822952Y-16830208D01*
X107822955Y-16830210D01*
X107899256Y-16883636D01*
X108002053Y-16955616D01*
X108007035Y-16957939D01*
X108007040Y-16957942D01*
X108199205Y-17047549D01*
X108205199Y-17050344D01*
X108210507Y-17051766D01*
X108210509Y-17051767D01*
X108416392Y-17106933D01*
X108416394Y-17106933D01*
X108421707Y-17108357D01*
X108645000Y-17127893D01*
X108868293Y-17108357D01*
X108873606Y-17106933D01*
X108873608Y-17106933D01*
X109079491Y-17051767D01*
X109079493Y-17051766D01*
X109084801Y-17050344D01*
X109090795Y-17047549D01*
X109282960Y-16957942D01*
X109282965Y-16957939D01*
X109287947Y-16955616D01*
X109390744Y-16883636D01*
X109467045Y-16830210D01*
X109467048Y-16830208D01*
X109471556Y-16827051D01*
X109630051Y-16668556D01*
X109638569Y-16656392D01*
X109755459Y-16489455D01*
X109755460Y-16489453D01*
X109758616Y-16484946D01*
X109760939Y-16479964D01*
X109760942Y-16479959D01*
X109851021Y-16286783D01*
X109851022Y-16286782D01*
X109853344Y-16281801D01*
X109863935Y-16242277D01*
X109908293Y-16076728D01*
X109945245Y-16016105D01*
X110009105Y-15985084D01*
X110079600Y-15993512D01*
X110134347Y-16038715D01*
X110151707Y-16076728D01*
X110196066Y-16242277D01*
X110206656Y-16281801D01*
X110208978Y-16286782D01*
X110208979Y-16286783D01*
X110299058Y-16479959D01*
X110299061Y-16479964D01*
X110301384Y-16484946D01*
X110304540Y-16489453D01*
X110304541Y-16489455D01*
X110421432Y-16656392D01*
X110429949Y-16668556D01*
X110588444Y-16827051D01*
X110592952Y-16830208D01*
X110592955Y-16830210D01*
X110669256Y-16883636D01*
X110772053Y-16955616D01*
X110777035Y-16957939D01*
X110777040Y-16957942D01*
X110969205Y-17047549D01*
X110975199Y-17050344D01*
X110980507Y-17051766D01*
X110980509Y-17051767D01*
X111186392Y-17106933D01*
X111186394Y-17106933D01*
X111191707Y-17108357D01*
X111415000Y-17127893D01*
X111638293Y-17108357D01*
X111643606Y-17106933D01*
X111643608Y-17106933D01*
X111849491Y-17051767D01*
X111849493Y-17051766D01*
X111854801Y-17050344D01*
X111860795Y-17047549D01*
X112052960Y-16957942D01*
X112052965Y-16957939D01*
X112057947Y-16955616D01*
X112160744Y-16883636D01*
X112237045Y-16830210D01*
X112237048Y-16830208D01*
X112241556Y-16827051D01*
X112400051Y-16668556D01*
X112408569Y-16656392D01*
X112525459Y-16489455D01*
X112525460Y-16489453D01*
X112528616Y-16484946D01*
X112530939Y-16479964D01*
X112530942Y-16479959D01*
X112548117Y-16443126D01*
X112595034Y-16389841D01*
X112663312Y-16370380D01*
X112678758Y-16371454D01*
X112733472Y-16378657D01*
X112733473Y-16378657D01*
X112741661Y-16379735D01*
X112771719Y-16375778D01*
X112788164Y-16374700D01*
X112939704Y-16374700D01*
X113007825Y-16394702D01*
X113053898Y-16447449D01*
X113069055Y-16479954D01*
X113069061Y-16479965D01*
X113071384Y-16484946D01*
X113074540Y-16489453D01*
X113074541Y-16489455D01*
X113191432Y-16656392D01*
X113199949Y-16668556D01*
X113358444Y-16827051D01*
X113362952Y-16830208D01*
X113362955Y-16830210D01*
X113439256Y-16883636D01*
X113542053Y-16955616D01*
X113547035Y-16957939D01*
X113547040Y-16957942D01*
X113739205Y-17047549D01*
X113745199Y-17050344D01*
X113750507Y-17051766D01*
X113750509Y-17051767D01*
X113956392Y-17106933D01*
X113956394Y-17106933D01*
X113961707Y-17108357D01*
X114185000Y-17127893D01*
X114408293Y-17108357D01*
X114413606Y-17106933D01*
X114413608Y-17106933D01*
X114619491Y-17051767D01*
X114619493Y-17051766D01*
X114624801Y-17050344D01*
X114630795Y-17047549D01*
X114822960Y-16957942D01*
X114822965Y-16957939D01*
X114827947Y-16955616D01*
X114895498Y-16908316D01*
X116253238Y-16908316D01*
X116262532Y-16920330D01*
X116307796Y-16952024D01*
X116317291Y-16957507D01*
X116510388Y-17047549D01*
X116520680Y-17051295D01*
X116726479Y-17106439D01*
X116737274Y-17108342D01*
X116949525Y-17126912D01*
X116960475Y-17126912D01*
X117172726Y-17108342D01*
X117183521Y-17106439D01*
X117389320Y-17051295D01*
X117399612Y-17047549D01*
X117592709Y-16957507D01*
X117602204Y-16952024D01*
X117648302Y-16919746D01*
X117656678Y-16909267D01*
X117649611Y-16895822D01*
X116967811Y-16214021D01*
X116953868Y-16206408D01*
X116952034Y-16206539D01*
X116945420Y-16210790D01*
X116259665Y-16896546D01*
X116253238Y-16908316D01*
X114895498Y-16908316D01*
X114930744Y-16883636D01*
X115007045Y-16830210D01*
X115007048Y-16830208D01*
X115011556Y-16827051D01*
X115170051Y-16668556D01*
X115178569Y-16656392D01*
X115295459Y-16489455D01*
X115295460Y-16489453D01*
X115298616Y-16484946D01*
X115300939Y-16479964D01*
X115300942Y-16479959D01*
X115391021Y-16286783D01*
X115391022Y-16286782D01*
X115393344Y-16281801D01*
X115402827Y-16246410D01*
X115448552Y-16075763D01*
X115485504Y-16015140D01*
X115549365Y-15984119D01*
X115619859Y-15992547D01*
X115674606Y-16037750D01*
X115691966Y-16075763D01*
X115745705Y-16276320D01*
X115749451Y-16286612D01*
X115839496Y-16479714D01*
X115844974Y-16489200D01*
X115877254Y-16535302D01*
X115887732Y-16543677D01*
X115901180Y-16536609D01*
X116865905Y-15571885D01*
X116928217Y-15537859D01*
X116999033Y-15542924D01*
X117044095Y-15571885D01*
X118009542Y-16537331D01*
X118021317Y-16543761D01*
X118033330Y-16534467D01*
X118065026Y-16489200D01*
X118070504Y-16479714D01*
X118160549Y-16286612D01*
X118164295Y-16276320D01*
X118218034Y-16075763D01*
X118254986Y-16015140D01*
X118318846Y-15984119D01*
X118389341Y-15992547D01*
X118444088Y-16037750D01*
X118461448Y-16075763D01*
X118507173Y-16246410D01*
X118516656Y-16281801D01*
X118518978Y-16286782D01*
X118518979Y-16286783D01*
X118609058Y-16479959D01*
X118609061Y-16479964D01*
X118611384Y-16484946D01*
X118614540Y-16489453D01*
X118614541Y-16489455D01*
X118731432Y-16656392D01*
X118739949Y-16668556D01*
X118898444Y-16827051D01*
X118902952Y-16830208D01*
X118902955Y-16830210D01*
X118979256Y-16883636D01*
X119082053Y-16955616D01*
X119087035Y-16957939D01*
X119087040Y-16957942D01*
X119279205Y-17047549D01*
X119285199Y-17050344D01*
X119290507Y-17051766D01*
X119290509Y-17051767D01*
X119496392Y-17106933D01*
X119496394Y-17106933D01*
X119501707Y-17108357D01*
X119725000Y-17127893D01*
X119948293Y-17108357D01*
X119953606Y-17106933D01*
X119953608Y-17106933D01*
X120159491Y-17051767D01*
X120159493Y-17051766D01*
X120164801Y-17050344D01*
X120170795Y-17047549D01*
X120362960Y-16957942D01*
X120362965Y-16957939D01*
X120367947Y-16955616D01*
X120435498Y-16908316D01*
X121793238Y-16908316D01*
X121802532Y-16920330D01*
X121847796Y-16952024D01*
X121857291Y-16957507D01*
X122050388Y-17047549D01*
X122060680Y-17051295D01*
X122266479Y-17106439D01*
X122277274Y-17108342D01*
X122489525Y-17126912D01*
X122500475Y-17126912D01*
X122712726Y-17108342D01*
X122723521Y-17106439D01*
X122929320Y-17051295D01*
X122939612Y-17047549D01*
X123132709Y-16957507D01*
X123142204Y-16952024D01*
X123188302Y-16919746D01*
X123196678Y-16909267D01*
X123189611Y-16895822D01*
X122507811Y-16214021D01*
X122493868Y-16206408D01*
X122492034Y-16206539D01*
X122485420Y-16210790D01*
X121799665Y-16896546D01*
X121793238Y-16908316D01*
X120435498Y-16908316D01*
X120470744Y-16883636D01*
X120547045Y-16830210D01*
X120547048Y-16830208D01*
X120551556Y-16827051D01*
X120710051Y-16668556D01*
X120718569Y-16656392D01*
X120835459Y-16489455D01*
X120835460Y-16489453D01*
X120838616Y-16484946D01*
X120840939Y-16479964D01*
X120840942Y-16479959D01*
X120931021Y-16286783D01*
X120931022Y-16286782D01*
X120933344Y-16281801D01*
X120942827Y-16246410D01*
X120988552Y-16075763D01*
X121025504Y-16015140D01*
X121089365Y-15984119D01*
X121159859Y-15992547D01*
X121214606Y-16037750D01*
X121231966Y-16075763D01*
X121285705Y-16276320D01*
X121289451Y-16286612D01*
X121379496Y-16479714D01*
X121384974Y-16489200D01*
X121417254Y-16535302D01*
X121427733Y-16543678D01*
X121441177Y-16536612D01*
X122122979Y-15854811D01*
X122129356Y-15843132D01*
X122859408Y-15843132D01*
X122859539Y-15844966D01*
X122863790Y-15851580D01*
X123549546Y-16537335D01*
X123561316Y-16543762D01*
X123573330Y-16534467D01*
X123605026Y-16489200D01*
X123610504Y-16479714D01*
X123700549Y-16286612D01*
X123704295Y-16276320D01*
X123758034Y-16075763D01*
X123794986Y-16015140D01*
X123858846Y-15984119D01*
X123929341Y-15992547D01*
X123984088Y-16037750D01*
X124001448Y-16075763D01*
X124047173Y-16246410D01*
X124056656Y-16281801D01*
X124058978Y-16286782D01*
X124058979Y-16286783D01*
X124149058Y-16479959D01*
X124149061Y-16479964D01*
X124151384Y-16484946D01*
X124154540Y-16489453D01*
X124154541Y-16489455D01*
X124271432Y-16656392D01*
X124279949Y-16668556D01*
X124438444Y-16827051D01*
X124442952Y-16830208D01*
X124442955Y-16830210D01*
X124519256Y-16883636D01*
X124622053Y-16955616D01*
X124627035Y-16957939D01*
X124627040Y-16957942D01*
X124819205Y-17047549D01*
X124825199Y-17050344D01*
X124830507Y-17051766D01*
X124830509Y-17051767D01*
X125036392Y-17106933D01*
X125036394Y-17106933D01*
X125041707Y-17108357D01*
X125265000Y-17127893D01*
X125488293Y-17108357D01*
X125493606Y-17106933D01*
X125493608Y-17106933D01*
X125699491Y-17051767D01*
X125699493Y-17051766D01*
X125704801Y-17050344D01*
X125710795Y-17047549D01*
X125902960Y-16957942D01*
X125902965Y-16957939D01*
X125907947Y-16955616D01*
X125975498Y-16908316D01*
X127333238Y-16908316D01*
X127342532Y-16920330D01*
X127387796Y-16952024D01*
X127397291Y-16957507D01*
X127590388Y-17047549D01*
X127600680Y-17051295D01*
X127806479Y-17106439D01*
X127817274Y-17108342D01*
X128029525Y-17126912D01*
X128040475Y-17126912D01*
X128252726Y-17108342D01*
X128263521Y-17106439D01*
X128469320Y-17051295D01*
X128479612Y-17047549D01*
X128672709Y-16957507D01*
X128682204Y-16952024D01*
X128728302Y-16919746D01*
X128736678Y-16909267D01*
X128729611Y-16895822D01*
X128502605Y-16668816D01*
X134438724Y-16668816D01*
X134438742Y-16669068D01*
X134444658Y-16677814D01*
X134469970Y-16700846D01*
X134475592Y-16705399D01*
X134744148Y-16898376D01*
X134750279Y-16902266D01*
X135039223Y-17063090D01*
X135045743Y-17066242D01*
X135351268Y-17192795D01*
X135358119Y-17195181D01*
X135676147Y-17285773D01*
X135683236Y-17287358D01*
X136009580Y-17340799D01*
X136016786Y-17341556D01*
X136347113Y-17357134D01*
X136354363Y-17357058D01*
X136684280Y-17334567D01*
X136691489Y-17333656D01*
X137016642Y-17273393D01*
X137023672Y-17271666D01*
X137339758Y-17174424D01*
X137346536Y-17171904D01*
X137649363Y-17038972D01*
X137655798Y-17035693D01*
X137941322Y-16868847D01*
X137947371Y-16864828D01*
X138193473Y-16680049D01*
X138201927Y-16668722D01*
X138195182Y-16656392D01*
X136332812Y-14794022D01*
X136318868Y-14786408D01*
X136317035Y-14786539D01*
X136310420Y-14790790D01*
X134446338Y-16654872D01*
X134438724Y-16668816D01*
X128502605Y-16668816D01*
X128047811Y-16214021D01*
X128033868Y-16206408D01*
X128032034Y-16206539D01*
X128025420Y-16210790D01*
X127339665Y-16896546D01*
X127333238Y-16908316D01*
X125975498Y-16908316D01*
X126010744Y-16883636D01*
X126087045Y-16830210D01*
X126087048Y-16830208D01*
X126091556Y-16827051D01*
X126250051Y-16668556D01*
X126258569Y-16656392D01*
X126375459Y-16489455D01*
X126375460Y-16489453D01*
X126378616Y-16484946D01*
X126380939Y-16479964D01*
X126380942Y-16479959D01*
X126471021Y-16286783D01*
X126471022Y-16286782D01*
X126473344Y-16281801D01*
X126482827Y-16246410D01*
X126528552Y-16075763D01*
X126565504Y-16015140D01*
X126629365Y-15984119D01*
X126699859Y-15992547D01*
X126754606Y-16037750D01*
X126771966Y-16075763D01*
X126825705Y-16276320D01*
X126829451Y-16286612D01*
X126919496Y-16479714D01*
X126924974Y-16489200D01*
X126957254Y-16535302D01*
X126967733Y-16543678D01*
X126981177Y-16536612D01*
X127662979Y-15854811D01*
X127669356Y-15843132D01*
X128399408Y-15843132D01*
X128399539Y-15844966D01*
X128403790Y-15851580D01*
X129089546Y-16537335D01*
X129101316Y-16543762D01*
X129113330Y-16534467D01*
X129145026Y-16489200D01*
X129150504Y-16479714D01*
X129240549Y-16286612D01*
X129244295Y-16276320D01*
X129299439Y-16070521D01*
X129301342Y-16059726D01*
X129319912Y-15847475D01*
X129319912Y-15836525D01*
X129301342Y-15624274D01*
X129299439Y-15613479D01*
X129244295Y-15407680D01*
X129240549Y-15397388D01*
X129150504Y-15204286D01*
X129145026Y-15194800D01*
X129112746Y-15148698D01*
X129102267Y-15140322D01*
X129088823Y-15147388D01*
X128407021Y-15829189D01*
X128399408Y-15843132D01*
X127669356Y-15843132D01*
X127670592Y-15840868D01*
X127670461Y-15839034D01*
X127666210Y-15832420D01*
X126980454Y-15146665D01*
X126968684Y-15140238D01*
X126956670Y-15149533D01*
X126924974Y-15194800D01*
X126919496Y-15204286D01*
X126829451Y-15397388D01*
X126825705Y-15407680D01*
X126771966Y-15608237D01*
X126735014Y-15668860D01*
X126671154Y-15699881D01*
X126600659Y-15691453D01*
X126545912Y-15646250D01*
X126528552Y-15608237D01*
X126474767Y-15407509D01*
X126474766Y-15407507D01*
X126473344Y-15402199D01*
X126461718Y-15377267D01*
X126380942Y-15204041D01*
X126380939Y-15204036D01*
X126378616Y-15199054D01*
X126343941Y-15149533D01*
X126253210Y-15019955D01*
X126253208Y-15019952D01*
X126250051Y-15015444D01*
X126091556Y-14856949D01*
X125974140Y-14774733D01*
X127333322Y-14774733D01*
X127340388Y-14788177D01*
X128022189Y-15469979D01*
X128036132Y-15477592D01*
X128037966Y-15477461D01*
X128044580Y-15473210D01*
X128730335Y-14787454D01*
X128736762Y-14775684D01*
X128727468Y-14763670D01*
X128682204Y-14731976D01*
X128672709Y-14726493D01*
X128479612Y-14636451D01*
X128469320Y-14632705D01*
X128263521Y-14577561D01*
X128252726Y-14575658D01*
X128040475Y-14557088D01*
X128029525Y-14557088D01*
X127817274Y-14575658D01*
X127806479Y-14577561D01*
X127600680Y-14632705D01*
X127590388Y-14636451D01*
X127397286Y-14726496D01*
X127387800Y-14731974D01*
X127341698Y-14764254D01*
X127333322Y-14774733D01*
X125974140Y-14774733D01*
X125907947Y-14728384D01*
X125902965Y-14726061D01*
X125902960Y-14726058D01*
X125709783Y-14635979D01*
X125709782Y-14635979D01*
X125704801Y-14633656D01*
X125699493Y-14632234D01*
X125699491Y-14632233D01*
X125493608Y-14577067D01*
X125493606Y-14577067D01*
X125488293Y-14575643D01*
X125265000Y-14556107D01*
X125041707Y-14575643D01*
X125036394Y-14577067D01*
X125036392Y-14577067D01*
X124830509Y-14632233D01*
X124830507Y-14632234D01*
X124825199Y-14633656D01*
X124820218Y-14635978D01*
X124820217Y-14635979D01*
X124627041Y-14726058D01*
X124627036Y-14726061D01*
X124622054Y-14728384D01*
X124617547Y-14731540D01*
X124617545Y-14731541D01*
X124442955Y-14853790D01*
X124442952Y-14853792D01*
X124438444Y-14856949D01*
X124279949Y-15015444D01*
X124276792Y-15019952D01*
X124276790Y-15019955D01*
X124186059Y-15149533D01*
X124151384Y-15199054D01*
X124149061Y-15204036D01*
X124149058Y-15204041D01*
X124068282Y-15377267D01*
X124056656Y-15402199D01*
X124055234Y-15407507D01*
X124055233Y-15407509D01*
X124001448Y-15608237D01*
X123964496Y-15668860D01*
X123900635Y-15699881D01*
X123830141Y-15691453D01*
X123775394Y-15646250D01*
X123758034Y-15608237D01*
X123704295Y-15407680D01*
X123700549Y-15397388D01*
X123610504Y-15204286D01*
X123605026Y-15194800D01*
X123572746Y-15148698D01*
X123562267Y-15140322D01*
X123548823Y-15147388D01*
X122867021Y-15829189D01*
X122859408Y-15843132D01*
X122129356Y-15843132D01*
X122130592Y-15840868D01*
X122130461Y-15839034D01*
X122126210Y-15832420D01*
X121440454Y-15146665D01*
X121428684Y-15140238D01*
X121416670Y-15149533D01*
X121384974Y-15194800D01*
X121379496Y-15204286D01*
X121289451Y-15397388D01*
X121285705Y-15407680D01*
X121231966Y-15608237D01*
X121195014Y-15668860D01*
X121131154Y-15699881D01*
X121060659Y-15691453D01*
X121005912Y-15646250D01*
X120988552Y-15608237D01*
X120934767Y-15407509D01*
X120934766Y-15407507D01*
X120933344Y-15402199D01*
X120921718Y-15377267D01*
X120840942Y-15204041D01*
X120840939Y-15204036D01*
X120838616Y-15199054D01*
X120803941Y-15149533D01*
X120713210Y-15019955D01*
X120713208Y-15019952D01*
X120710051Y-15015444D01*
X120551556Y-14856949D01*
X120481095Y-14807611D01*
X120434140Y-14774733D01*
X121793322Y-14774733D01*
X121800388Y-14788177D01*
X122482189Y-15469979D01*
X122496132Y-15477592D01*
X122497966Y-15477461D01*
X122504580Y-15473210D01*
X123190335Y-14787454D01*
X123196762Y-14775684D01*
X123187468Y-14763670D01*
X123142204Y-14731976D01*
X123132709Y-14726493D01*
X122939612Y-14636451D01*
X122929320Y-14632705D01*
X122723521Y-14577561D01*
X122712726Y-14575658D01*
X122500475Y-14557088D01*
X122489525Y-14557088D01*
X122277274Y-14575658D01*
X122266479Y-14577561D01*
X122060680Y-14632705D01*
X122050388Y-14636451D01*
X121857286Y-14726496D01*
X121847800Y-14731974D01*
X121801698Y-14764254D01*
X121793322Y-14774733D01*
X120434140Y-14774733D01*
X120402945Y-14752890D01*
X120371190Y-14730655D01*
X120326862Y-14675198D01*
X120319553Y-14604578D01*
X120354366Y-14538347D01*
X120628357Y-14264356D01*
X120690669Y-14230330D01*
X120750063Y-14231744D01*
X120881392Y-14266933D01*
X120881394Y-14266933D01*
X120886707Y-14268357D01*
X121110000Y-14287893D01*
X121333293Y-14268357D01*
X121338606Y-14266933D01*
X121338608Y-14266933D01*
X121544491Y-14211767D01*
X121544493Y-14211766D01*
X121549801Y-14210344D01*
X121558045Y-14206500D01*
X121747960Y-14117942D01*
X121747965Y-14117939D01*
X121752947Y-14115616D01*
X121936556Y-13987051D01*
X122095051Y-13828556D01*
X122146376Y-13755257D01*
X122220459Y-13649455D01*
X122220460Y-13649453D01*
X122223616Y-13644946D01*
X122225939Y-13639964D01*
X122225942Y-13639959D01*
X122316021Y-13446783D01*
X122316022Y-13446782D01*
X122318344Y-13441801D01*
X122327798Y-13406520D01*
X122373293Y-13236728D01*
X122410245Y-13176105D01*
X122474105Y-13145084D01*
X122544600Y-13153512D01*
X122599347Y-13198715D01*
X122616707Y-13236728D01*
X122662203Y-13406520D01*
X122671656Y-13441801D01*
X122673978Y-13446782D01*
X122673979Y-13446783D01*
X122764058Y-13639959D01*
X122764061Y-13639964D01*
X122766384Y-13644946D01*
X122769540Y-13649453D01*
X122769541Y-13649455D01*
X122843625Y-13755257D01*
X122894949Y-13828556D01*
X123053444Y-13987051D01*
X123237053Y-14115616D01*
X123242035Y-14117939D01*
X123242040Y-14117942D01*
X123431955Y-14206500D01*
X123440199Y-14210344D01*
X123445507Y-14211766D01*
X123445509Y-14211767D01*
X123651392Y-14266933D01*
X123651394Y-14266933D01*
X123656707Y-14268357D01*
X123880000Y-14287893D01*
X124103293Y-14268357D01*
X124108606Y-14266933D01*
X124108608Y-14266933D01*
X124314491Y-14211767D01*
X124314493Y-14211766D01*
X124319801Y-14210344D01*
X124328045Y-14206500D01*
X124517960Y-14117942D01*
X124517965Y-14117939D01*
X124522947Y-14115616D01*
X124706556Y-13987051D01*
X124865051Y-13828556D01*
X124916376Y-13755257D01*
X124990459Y-13649455D01*
X124990460Y-13649453D01*
X124993616Y-13644946D01*
X124995939Y-13639964D01*
X124995942Y-13639959D01*
X125086021Y-13446783D01*
X125086022Y-13446782D01*
X125088344Y-13441801D01*
X125097798Y-13406520D01*
X125143293Y-13236728D01*
X125180245Y-13176105D01*
X125244105Y-13145084D01*
X125314600Y-13153512D01*
X125369347Y-13198715D01*
X125386707Y-13236728D01*
X125432203Y-13406520D01*
X125441656Y-13441801D01*
X125443978Y-13446782D01*
X125443979Y-13446783D01*
X125534058Y-13639959D01*
X125534061Y-13639964D01*
X125536384Y-13644946D01*
X125539540Y-13649453D01*
X125539541Y-13649455D01*
X125613625Y-13755257D01*
X125664949Y-13828556D01*
X125823444Y-13987051D01*
X126007053Y-14115616D01*
X126012035Y-14117939D01*
X126012040Y-14117942D01*
X126201955Y-14206500D01*
X126210199Y-14210344D01*
X126215507Y-14211766D01*
X126215509Y-14211767D01*
X126421392Y-14266933D01*
X126421394Y-14266933D01*
X126426707Y-14268357D01*
X126650000Y-14287893D01*
X126873293Y-14268357D01*
X126878606Y-14266933D01*
X126878608Y-14266933D01*
X127084491Y-14211767D01*
X127084493Y-14211766D01*
X127089801Y-14210344D01*
X127098045Y-14206500D01*
X127287960Y-14117942D01*
X127287965Y-14117939D01*
X127292947Y-14115616D01*
X127476556Y-13987051D01*
X127635051Y-13828556D01*
X127686376Y-13755257D01*
X127760459Y-13649455D01*
X127760460Y-13649453D01*
X127763616Y-13644946D01*
X127765939Y-13639964D01*
X127765942Y-13639959D01*
X127856021Y-13446783D01*
X127856022Y-13446782D01*
X127858344Y-13441801D01*
X127867798Y-13406520D01*
X127913293Y-13236728D01*
X127950245Y-13176105D01*
X128014105Y-13145084D01*
X128084600Y-13153512D01*
X128139347Y-13198715D01*
X128156707Y-13236728D01*
X128202203Y-13406520D01*
X128211656Y-13441801D01*
X128213978Y-13446782D01*
X128213979Y-13446783D01*
X128304058Y-13639959D01*
X128304061Y-13639964D01*
X128306384Y-13644946D01*
X128309540Y-13649453D01*
X128309541Y-13649455D01*
X128383625Y-13755257D01*
X128434949Y-13828556D01*
X128593444Y-13987051D01*
X128777053Y-14115616D01*
X128782035Y-14117939D01*
X128782040Y-14117942D01*
X128971955Y-14206500D01*
X128980199Y-14210344D01*
X128985507Y-14211766D01*
X128985509Y-14211767D01*
X129191392Y-14266933D01*
X129191394Y-14266933D01*
X129196707Y-14268357D01*
X129420000Y-14287893D01*
X129643293Y-14268357D01*
X129648606Y-14266933D01*
X129648608Y-14266933D01*
X129854491Y-14211767D01*
X129854493Y-14211766D01*
X129859801Y-14210344D01*
X129868045Y-14206500D01*
X130057960Y-14117942D01*
X130057965Y-14117939D01*
X130062947Y-14115616D01*
X130246556Y-13987051D01*
X130405051Y-13828556D01*
X130456376Y-13755257D01*
X130530459Y-13649455D01*
X130530460Y-13649453D01*
X130533616Y-13644946D01*
X130535939Y-13639964D01*
X130535942Y-13639959D01*
X130626021Y-13446783D01*
X130626022Y-13446782D01*
X130628344Y-13441801D01*
X130637798Y-13406520D01*
X130684933Y-13230608D01*
X130684933Y-13230606D01*
X130686357Y-13225293D01*
X130705893Y-13002000D01*
X130700301Y-12938081D01*
X130688133Y-12799001D01*
X130702122Y-12729396D01*
X130751522Y-12678403D01*
X130813654Y-12662019D01*
X133209058Y-12662019D01*
X133225505Y-12663097D01*
X133255561Y-12667054D01*
X133263749Y-12665976D01*
X133293805Y-12662019D01*
X133332445Y-12656932D01*
X133407885Y-12647000D01*
X133538424Y-12592929D01*
X133575222Y-12583857D01*
X133614331Y-12580298D01*
X133652022Y-12576868D01*
X133652023Y-12576868D01*
X133659043Y-12576229D01*
X133740798Y-12549665D01*
X133781350Y-12536489D01*
X133852317Y-12534461D01*
X133913115Y-12571124D01*
X133944441Y-12634836D01*
X133936348Y-12705370D01*
X133919440Y-12734068D01*
X133911788Y-12743827D01*
X133907649Y-12749782D01*
X133734858Y-13031753D01*
X133731437Y-13038132D01*
X133592197Y-13338100D01*
X133589537Y-13344819D01*
X133485697Y-13658799D01*
X133483821Y-13665803D01*
X133416760Y-13989628D01*
X133415703Y-13996789D01*
X133386305Y-14326174D01*
X133386077Y-14333426D01*
X133394734Y-14664006D01*
X133395340Y-14671227D01*
X133441936Y-14998622D01*
X133443367Y-15005724D01*
X133527287Y-15325606D01*
X133529523Y-15332486D01*
X133649650Y-15640596D01*
X133652665Y-15647183D01*
X133807413Y-15939452D01*
X133811159Y-15945637D01*
X133998470Y-16218176D01*
X134002915Y-16223905D01*
X134063674Y-16293555D01*
X134076846Y-16301959D01*
X134086701Y-16296089D01*
X135959658Y-14423132D01*
X136684408Y-14423132D01*
X136684539Y-14424965D01*
X136688790Y-14431580D01*
X138551246Y-16294036D01*
X138564600Y-16301328D01*
X138574572Y-16294274D01*
X138618048Y-16242277D01*
X139937009Y-16242277D01*
X139962625Y-16510769D01*
X139963710Y-16515203D01*
X139963711Y-16515209D01*
X140009136Y-16700846D01*
X140026731Y-16772750D01*
X140127985Y-17022733D01*
X140264265Y-17255482D01*
X140327511Y-17334567D01*
X140421290Y-17451831D01*
X140432716Y-17466119D01*
X140629809Y-17650234D01*
X140851416Y-17803968D01*
X140855499Y-17805999D01*
X140855502Y-17806001D01*
X140957774Y-17856880D01*
X141092894Y-17924101D01*
X141097228Y-17925522D01*
X141097231Y-17925523D01*
X141344853Y-18006698D01*
X141344859Y-18006699D01*
X141349186Y-18008118D01*
X141353677Y-18008898D01*
X141353678Y-18008898D01*
X141611140Y-18053601D01*
X141611148Y-18053602D01*
X141614921Y-18054257D01*
X141618758Y-18054448D01*
X141698578Y-18058422D01*
X141698586Y-18058422D01*
X141700149Y-18058500D01*
X141868512Y-18058500D01*
X141870780Y-18058335D01*
X141870792Y-18058335D01*
X142001884Y-18048823D01*
X142069004Y-18043953D01*
X142073459Y-18042969D01*
X142073462Y-18042969D01*
X142327912Y-17986791D01*
X142327916Y-17986790D01*
X142332372Y-17985806D01*
X142458480Y-17938028D01*
X142580318Y-17891868D01*
X142580321Y-17891867D01*
X142584588Y-17890250D01*
X142820368Y-17759286D01*
X142968470Y-17646258D01*
X143031141Y-17598429D01*
X143031142Y-17598428D01*
X143034773Y-17595657D01*
X143038466Y-17591880D01*
X143177964Y-17449180D01*
X143223312Y-17402792D01*
X143382034Y-17184730D01*
X143465190Y-17026676D01*
X143505490Y-16950079D01*
X143505493Y-16950073D01*
X143507615Y-16946039D01*
X143510685Y-16937347D01*
X143595902Y-16696033D01*
X143595902Y-16696032D01*
X143597425Y-16691720D01*
X143627855Y-16537331D01*
X143648700Y-16431572D01*
X143648701Y-16431566D01*
X143649581Y-16427100D01*
X143656103Y-16296089D01*
X143662764Y-16162292D01*
X143662764Y-16162286D01*
X143662991Y-16157723D01*
X143637375Y-15889231D01*
X143627158Y-15847475D01*
X143574355Y-15631688D01*
X143573269Y-15627250D01*
X143472015Y-15377267D01*
X143362408Y-15190072D01*
X143338045Y-15148463D01*
X143338044Y-15148462D01*
X143335735Y-15144518D01*
X143217928Y-14997208D01*
X143170136Y-14937447D01*
X143170135Y-14937445D01*
X143167284Y-14933881D01*
X142970191Y-14749766D01*
X142748584Y-14596032D01*
X142744501Y-14594001D01*
X142744498Y-14593999D01*
X142579606Y-14511967D01*
X142507106Y-14475899D01*
X142502772Y-14474478D01*
X142502769Y-14474477D01*
X142255147Y-14393302D01*
X142255141Y-14393301D01*
X142250814Y-14391882D01*
X142246322Y-14391102D01*
X141988860Y-14346399D01*
X141988852Y-14346398D01*
X141985079Y-14345743D01*
X141973817Y-14345182D01*
X141901422Y-14341578D01*
X141901414Y-14341578D01*
X141899851Y-14341500D01*
X141731488Y-14341500D01*
X141729220Y-14341665D01*
X141729208Y-14341665D01*
X141598116Y-14351177D01*
X141530996Y-14356047D01*
X141526541Y-14357031D01*
X141526538Y-14357031D01*
X141272088Y-14413209D01*
X141272084Y-14413210D01*
X141267628Y-14414194D01*
X141213208Y-14434812D01*
X141019682Y-14508132D01*
X141019679Y-14508133D01*
X141015412Y-14509750D01*
X140896782Y-14575643D01*
X140788157Y-14635979D01*
X140779632Y-14640714D01*
X140734447Y-14675198D01*
X140582986Y-14790790D01*
X140565227Y-14804343D01*
X140376688Y-14997208D01*
X140217966Y-15215270D01*
X140187913Y-15272392D01*
X140094510Y-15449921D01*
X140094507Y-15449927D01*
X140092385Y-15453961D01*
X140090865Y-15458266D01*
X140090863Y-15458270D01*
X140029277Y-15632667D01*
X140002575Y-15708280D01*
X140001692Y-15712762D01*
X139957012Y-15939452D01*
X139950419Y-15972900D01*
X139950192Y-15977453D01*
X139950192Y-15977456D01*
X139937353Y-16235368D01*
X139937009Y-16242277D01*
X138618048Y-16242277D01*
X138674321Y-16174975D01*
X138678631Y-16169172D01*
X138860201Y-15892759D01*
X138863815Y-15886497D01*
X139012411Y-15591050D01*
X139015283Y-15584412D01*
X139128931Y-15273855D01*
X139131027Y-15266913D01*
X139208226Y-14945355D01*
X139209510Y-14938216D01*
X139249335Y-14609119D01*
X139249762Y-14603506D01*
X139255378Y-14424797D01*
X139255305Y-14419204D01*
X139236221Y-14088226D01*
X139235389Y-14081036D01*
X139178532Y-13755257D01*
X139176877Y-13748202D01*
X139082956Y-13431131D01*
X139080498Y-13424303D01*
X138950754Y-13120126D01*
X138947537Y-13113643D01*
X138783680Y-12826371D01*
X138779748Y-12820316D01*
X138583960Y-12553784D01*
X138579347Y-12548208D01*
X138578990Y-12547824D01*
X138565337Y-12539705D01*
X138564732Y-12539726D01*
X138556250Y-12544960D01*
X136692022Y-14409188D01*
X136684408Y-14423132D01*
X135959658Y-14423132D01*
X138192102Y-12190688D01*
X138199494Y-12177151D01*
X138192707Y-12167451D01*
X138097538Y-12086170D01*
X138091764Y-12081787D01*
X137817282Y-11897342D01*
X137811059Y-11893662D01*
X137757975Y-11866263D01*
X137706616Y-11817245D01*
X137689911Y-11748242D01*
X137713163Y-11681161D01*
X137751247Y-11646068D01*
X137825315Y-11601914D01*
X137831361Y-11598310D01*
X137836455Y-11593459D01*
X137836459Y-11593456D01*
X137903704Y-11529419D01*
X137954592Y-11480959D01*
X138048762Y-11339222D01*
X138109190Y-11180145D01*
X138132872Y-11011633D01*
X138133170Y-10990320D01*
X138114202Y-10821212D01*
X138058239Y-10660509D01*
X137968063Y-10516199D01*
X137848157Y-10395452D01*
X137704479Y-10304271D01*
X137544171Y-10247188D01*
X137375200Y-10227040D01*
X137368197Y-10227776D01*
X137368196Y-10227776D01*
X137212972Y-10244090D01*
X137212968Y-10244091D01*
X137205964Y-10244827D01*
X137199293Y-10247098D01*
X137055921Y-10295905D01*
X136984988Y-10298923D01*
X136947802Y-10283012D01*
X136931776Y-10272842D01*
X136893248Y-10248391D01*
X136732940Y-10191308D01*
X136725945Y-10190474D01*
X136725941Y-10190473D01*
X136684307Y-10185509D01*
X136671539Y-10183987D01*
X136606265Y-10156060D01*
X136597361Y-10147968D01*
X135301548Y-8852155D01*
X135267522Y-8789843D01*
X135272587Y-8719028D01*
X135315134Y-8662192D01*
X135381654Y-8637381D01*
X135390643Y-8637060D01*
X135441936Y-8637060D01*
X135445182Y-8636723D01*
X135445186Y-8636723D01*
X135540844Y-8626798D01*
X135540848Y-8626797D01*
X135547702Y-8626086D01*
X135554238Y-8623905D01*
X135554240Y-8623905D01*
X135686342Y-8579832D01*
X135715482Y-8570110D01*
X135865884Y-8477038D01*
X135871057Y-8471856D01*
X135876794Y-8467309D01*
X135878015Y-8468849D01*
X135931579Y-8439540D01*
X136002399Y-8444543D01*
X136040380Y-8468904D01*
X136040971Y-8468156D01*
X136046717Y-8472694D01*
X136051897Y-8477865D01*
X136058127Y-8481705D01*
X136058128Y-8481706D01*
X136195290Y-8566254D01*
X136202462Y-8570675D01*
X136282205Y-8597124D01*
X136363811Y-8624192D01*
X136363813Y-8624192D01*
X136370339Y-8626357D01*
X136377175Y-8627057D01*
X136377178Y-8627058D01*
X136420231Y-8631469D01*
X136474800Y-8637060D01*
X137475600Y-8637060D01*
X137478846Y-8636723D01*
X137478850Y-8636723D01*
X137574508Y-8626798D01*
X137574512Y-8626797D01*
X137581366Y-8626086D01*
X137587902Y-8623905D01*
X137587904Y-8623905D01*
X137720006Y-8579832D01*
X137749146Y-8570110D01*
X137892720Y-8481263D01*
X137961173Y-8462425D01*
X138028943Y-8483586D01*
X138048119Y-8499312D01*
X138886583Y-9337776D01*
X138920609Y-9400088D01*
X138923488Y-9426871D01*
X138923488Y-10356485D01*
X138922410Y-10372932D01*
X138918453Y-10402988D01*
X138933682Y-10518666D01*
X138938507Y-10555312D01*
X138997302Y-10697255D01*
X139090831Y-10819145D01*
X139097377Y-10824168D01*
X139114890Y-10837606D01*
X139127281Y-10848474D01*
X139440595Y-11161788D01*
X139474621Y-11224100D01*
X139477500Y-11250883D01*
X139477500Y-12630134D01*
X139484255Y-12692316D01*
X139535385Y-12828705D01*
X139622739Y-12945261D01*
X139739295Y-13032615D01*
X139875684Y-13083745D01*
X139937866Y-13090500D01*
X141734134Y-13090500D01*
X141796316Y-13083745D01*
X141932705Y-13032615D01*
X142049261Y-12945261D01*
X142136615Y-12828705D01*
X142153304Y-12784187D01*
X142159271Y-12768271D01*
X142201912Y-12711506D01*
X142268474Y-12686806D01*
X142277253Y-12686500D01*
X142712947Y-12686499D01*
X142732230Y-12686499D01*
X142837129Y-12675616D01*
X142843660Y-12673437D01*
X142843665Y-12673436D01*
X142996578Y-12622420D01*
X143003526Y-12620102D01*
X143152689Y-12527797D01*
X143276617Y-12403653D01*
X143278614Y-12400413D01*
X143335352Y-12360186D01*
X143406275Y-12356953D01*
X143467687Y-12392578D01*
X143475066Y-12401078D01*
X143481782Y-12409552D01*
X143595479Y-12523051D01*
X143606890Y-12532063D01*
X143743654Y-12616365D01*
X143756832Y-12622509D01*
X143909740Y-12673227D01*
X143923106Y-12676093D01*
X144016601Y-12685672D01*
X144023016Y-12686000D01*
X144041385Y-12686000D01*
X144056624Y-12681525D01*
X144057829Y-12680135D01*
X144059500Y-12672452D01*
X144059500Y-8002116D01*
X144055025Y-7986877D01*
X144053635Y-7985672D01*
X144045952Y-7984001D01*
X144023067Y-7984001D01*
X144016548Y-7984338D01*
X143921830Y-7994166D01*
X143908436Y-7997058D01*
X143755635Y-8048036D01*
X143742457Y-8054210D01*
X143605851Y-8138744D01*
X143594450Y-8147780D01*
X143480949Y-8261479D01*
X143475206Y-8268751D01*
X143417289Y-8309814D01*
X143346366Y-8313046D01*
X143284954Y-8277421D01*
X143279160Y-8270746D01*
X143275797Y-8265311D01*
X143151653Y-8141383D01*
X143002329Y-8049339D01*
X142958273Y-8034726D01*
X142842359Y-7996279D01*
X142842360Y-7996279D01*
X142835835Y-7994115D01*
X142829000Y-7993415D01*
X142828997Y-7993414D01*
X142808559Y-7991320D01*
X142802387Y-7990688D01*
X142736660Y-7963847D01*
X142726134Y-7954440D01*
X141991978Y-7220285D01*
X141981110Y-7207892D01*
X141967685Y-7190396D01*
X141962657Y-7183843D01*
X141948055Y-7172638D01*
X141879722Y-7120205D01*
X141840767Y-7090314D01*
X141698824Y-7031519D01*
X141584744Y-7016500D01*
X141546500Y-7011465D01*
X141538312Y-7012543D01*
X141516444Y-7015422D01*
X141499997Y-7016500D01*
X140884480Y-7016500D01*
X140854408Y-7007670D01*
X142532160Y-7007670D01*
X142537887Y-7015320D01*
X142709042Y-7120205D01*
X142717837Y-7124687D01*
X142927988Y-7211734D01*
X142937373Y-7214783D01*
X143158554Y-7267885D01*
X143168301Y-7269428D01*
X143395070Y-7287275D01*
X143404930Y-7287275D01*
X143631699Y-7269428D01*
X143641446Y-7267885D01*
X143862627Y-7214783D01*
X143872012Y-7211734D01*
X144082163Y-7124687D01*
X144090958Y-7120205D01*
X144258445Y-7017568D01*
X144267907Y-7007110D01*
X144264124Y-6998334D01*
X143412812Y-6147022D01*
X143398868Y-6139408D01*
X143397035Y-6139539D01*
X143390420Y-6143790D01*
X142538920Y-6995290D01*
X142532160Y-7007670D01*
X140854408Y-7007670D01*
X140816359Y-6996498D01*
X140795385Y-6979595D01*
X139679885Y-5864095D01*
X139645859Y-5801783D01*
X139650924Y-5730968D01*
X139679885Y-5685905D01*
X139860905Y-5504885D01*
X139923217Y-5470859D01*
X139994032Y-5475924D01*
X140039095Y-5504885D01*
X141170290Y-6636080D01*
X141182670Y-6642840D01*
X141190320Y-6637113D01*
X141295205Y-6465958D01*
X141299687Y-6457163D01*
X141386734Y-6247012D01*
X141389783Y-6237627D01*
X141442885Y-6016446D01*
X141444428Y-6006699D01*
X141462275Y-5779930D01*
X141887725Y-5779930D01*
X141905572Y-6006699D01*
X141907115Y-6016446D01*
X141960217Y-6237627D01*
X141963266Y-6247012D01*
X142050313Y-6457163D01*
X142054795Y-6465958D01*
X142157432Y-6633445D01*
X142167890Y-6642907D01*
X142176666Y-6639124D01*
X143027978Y-5787812D01*
X143035592Y-5773868D01*
X143035461Y-5772035D01*
X143031210Y-5765420D01*
X142179710Y-4913920D01*
X142167330Y-4907160D01*
X142159680Y-4912887D01*
X142054795Y-5084042D01*
X142050313Y-5092837D01*
X141963266Y-5302988D01*
X141960217Y-5312373D01*
X141907115Y-5533554D01*
X141905572Y-5543301D01*
X141887725Y-5770070D01*
X141887725Y-5779930D01*
X141462275Y-5779930D01*
X141462275Y-5770070D01*
X141444428Y-5543301D01*
X141442885Y-5533554D01*
X141389783Y-5312373D01*
X141386734Y-5302988D01*
X141341174Y-5192997D01*
X141333585Y-5122407D01*
X141365364Y-5058920D01*
X141426422Y-5022693D01*
X141441909Y-5019889D01*
X141443249Y-5019594D01*
X141450037Y-5018857D01*
X141568190Y-4979094D01*
X141615204Y-4963272D01*
X141615206Y-4963271D01*
X141621675Y-4961094D01*
X141776905Y-4867823D01*
X141781862Y-4863135D01*
X141781865Y-4863133D01*
X141903527Y-4748082D01*
X141903529Y-4748080D01*
X141908485Y-4743393D01*
X141912317Y-4737755D01*
X141912320Y-4737751D01*
X142006442Y-4599255D01*
X142010277Y-4593612D01*
X142012811Y-4587277D01*
X142012813Y-4587273D01*
X142021139Y-4566457D01*
X142065009Y-4510636D01*
X142132094Y-4487396D01*
X142137910Y-4487317D01*
X142144015Y-4488132D01*
X142151026Y-4487494D01*
X142151028Y-4487494D01*
X142306462Y-4473348D01*
X142313483Y-4472709D01*
X142320185Y-4470531D01*
X142320187Y-4470531D01*
X142369506Y-4454506D01*
X142440473Y-4452478D01*
X142501271Y-4489141D01*
X142524150Y-4524463D01*
X142535876Y-4551666D01*
X143387188Y-5402978D01*
X143401132Y-5410592D01*
X143402965Y-5410461D01*
X143409580Y-5406210D01*
X144261080Y-4554710D01*
X144267840Y-4542330D01*
X144262113Y-4534680D01*
X144090958Y-4429795D01*
X144082163Y-4425313D01*
X143872012Y-4338266D01*
X143862627Y-4335217D01*
X143641446Y-4282115D01*
X143631699Y-4280572D01*
X143404930Y-4262725D01*
X143395070Y-4262725D01*
X143168301Y-4280572D01*
X143158554Y-4282115D01*
X142937379Y-4335215D01*
X142934481Y-4336157D01*
X142933318Y-4336190D01*
X142932561Y-4336372D01*
X142932523Y-4336213D01*
X142863513Y-4338187D01*
X142802714Y-4301527D01*
X142771386Y-4237816D01*
X142779476Y-4167282D01*
X142790592Y-4146598D01*
X142834990Y-4079773D01*
X142838891Y-4073902D01*
X142899319Y-3914825D01*
X142923001Y-3746313D01*
X142923299Y-3725000D01*
X142904331Y-3555892D01*
X142891384Y-3518712D01*
X142850686Y-3401846D01*
X142848368Y-3395189D01*
X142758192Y-3250879D01*
X142660275Y-3152275D01*
X142626469Y-3089846D01*
X142631781Y-3019049D01*
X142674526Y-2962362D01*
X142741132Y-2937783D01*
X142741359Y-2937778D01*
X142744015Y-2938132D01*
X142750190Y-2937570D01*
X142750192Y-2937570D01*
X142906462Y-2923348D01*
X142913483Y-2922709D01*
X142920185Y-2920531D01*
X142920187Y-2920531D01*
X143068623Y-2872301D01*
X143068626Y-2872300D01*
X143075322Y-2870124D01*
X143221490Y-2782990D01*
X143226584Y-2778139D01*
X143226588Y-2778136D01*
X143317695Y-2691375D01*
X143344721Y-2665639D01*
X143384822Y-2605283D01*
X143434990Y-2529773D01*
X143438891Y-2523902D01*
X143499319Y-2364825D01*
X143501479Y-2349459D01*
X143513988Y-2260447D01*
X143523001Y-2196313D01*
X143523299Y-2175000D01*
X143504331Y-2005892D01*
X143448368Y-1845189D01*
X143358192Y-1700879D01*
X143346877Y-1689484D01*
X143282929Y-1625088D01*
X143238286Y-1580132D01*
X143094608Y-1488951D01*
X142934300Y-1431868D01*
X142906003Y-1428494D01*
X142840730Y-1400567D01*
X142800916Y-1341784D01*
X142799204Y-1270808D01*
X142815973Y-1233653D01*
X142865850Y-1158582D01*
X142888891Y-1123902D01*
X142949319Y-964825D01*
X142973001Y-796313D01*
X142973118Y-787964D01*
X142973244Y-778961D01*
X142973244Y-778955D01*
X142973299Y-775000D01*
X142954331Y-605892D01*
X142951461Y-597649D01*
X142900686Y-451846D01*
X142898368Y-445189D01*
X142808192Y-300879D01*
X142763375Y-255747D01*
X142729568Y-193317D01*
X142734880Y-122520D01*
X142777625Y-65833D01*
X142844231Y-41254D01*
X142900998Y-50555D01*
X142927982Y-61732D01*
X142937373Y-64783D01*
X143158554Y-117885D01*
X143168301Y-119428D01*
X143395070Y-137275D01*
X143404930Y-137275D01*
X143631699Y-119428D01*
X143641446Y-117885D01*
X143862627Y-64783D01*
X143872012Y-61734D01*
X144082163Y25313D01*
X144090958Y29795D01*
X144258445Y132432D01*
X144267907Y142890D01*
X144264124Y151666D01*
X143412812Y1002978D01*
X143398868Y1010592D01*
X143397035Y1010461D01*
X143390420Y1006210D01*
X142538920Y154710D01*
X142531306Y140766D01*
X142533007Y116973D01*
X142539807Y98745D01*
X142524720Y29370D01*
X142474520Y-20835D01*
X142405147Y-35930D01*
X142388680Y-33428D01*
X142384300Y-31868D01*
X142215329Y-11720D01*
X142208326Y-12456D01*
X142208325Y-12456D01*
X142192694Y-14099D01*
X142122856Y-1327D01*
X142071009Y47175D01*
X142058048Y77749D01*
X142053706Y93512D01*
X142049539Y108641D01*
X141965078Y268836D01*
X141960673Y274049D01*
X141960670Y274053D01*
X141852594Y401943D01*
X141852590Y401947D01*
X141848187Y407157D01*
X141809621Y436643D01*
X141709743Y513006D01*
X141709739Y513009D01*
X141704322Y517150D01*
X141599186Y566175D01*
X141546369Y590805D01*
X141546366Y590806D01*
X141540192Y593685D01*
X141533547Y595170D01*
X141533542Y595172D01*
X141470493Y609265D01*
X141428762Y618593D01*
X141366646Y652973D01*
X141332978Y715478D01*
X141339840Y789776D01*
X141386734Y902988D01*
X141389783Y912373D01*
X141442885Y1133554D01*
X141444428Y1143301D01*
X141462275Y1370070D01*
X141887725Y1370070D01*
X141905572Y1143301D01*
X141907115Y1133554D01*
X141960217Y912373D01*
X141963266Y902988D01*
X142050313Y692837D01*
X142054795Y684042D01*
X142157432Y516555D01*
X142167890Y507093D01*
X142176666Y510876D01*
X143027978Y1362188D01*
X143035592Y1376132D01*
X143035461Y1377965D01*
X143031210Y1384580D01*
X142179710Y2236080D01*
X142167330Y2242840D01*
X142159680Y2237113D01*
X142054795Y2065958D01*
X142050313Y2057163D01*
X141963266Y1847012D01*
X141960217Y1837627D01*
X141907115Y1616446D01*
X141905572Y1606699D01*
X141887725Y1379930D01*
X141887725Y1370070D01*
X141462275Y1370070D01*
X141462275Y1379930D01*
X141444428Y1606699D01*
X141442885Y1616446D01*
X141389783Y1837627D01*
X141386734Y1847012D01*
X141299687Y2057163D01*
X141295205Y2065958D01*
X141192568Y2233445D01*
X141182110Y2242907D01*
X141173334Y2239124D01*
X139088920Y154710D01*
X139082160Y142330D01*
X139087887Y134680D01*
X139259042Y29795D01*
X139267837Y25313D01*
X139451788Y-50882D01*
X139507069Y-95430D01*
X139529490Y-162794D01*
X139511932Y-231585D01*
X139479135Y-268117D01*
X139394276Y-331715D01*
X139381715Y-344276D01*
X139305214Y-446351D01*
X139296676Y-461946D01*
X139251522Y-582394D01*
X139247895Y-597649D01*
X139242369Y-648514D01*
X139242000Y-655328D01*
X139242000Y-681885D01*
X139246475Y-697124D01*
X139247865Y-698329D01*
X139255548Y-700000D01*
X139391116Y-700000D01*
X139459237Y-720002D01*
X139505730Y-773658D01*
X139515834Y-843932D01*
X139486340Y-908512D01*
X139466683Y-926825D01*
X139386739Y-986739D01*
X139369520Y-1009715D01*
X139338758Y-1050760D01*
X139281899Y-1093275D01*
X139273430Y-1096091D01*
X139244877Y-1104475D01*
X139243672Y-1105865D01*
X139242001Y-1113548D01*
X139242001Y-1144669D01*
X139242371Y-1151490D01*
X139248748Y-1210207D01*
X139246002Y-1210505D01*
X139246060Y-1239446D01*
X139248255Y-1239684D01*
X139241500Y-1301866D01*
X139241500Y-1798134D01*
X139241869Y-1801531D01*
X139248255Y-1860316D01*
X139245826Y-1860580D01*
X139245826Y-1889420D01*
X139248255Y-1889684D01*
X139241500Y-1951866D01*
X139241500Y-2448134D01*
X139241869Y-2451531D01*
X139248255Y-2510316D01*
X139245826Y-2510580D01*
X139245826Y-2539420D01*
X139248255Y-2539684D01*
X139241500Y-2601866D01*
X139241500Y-2616553D01*
X139221498Y-2684674D01*
X139167842Y-2731167D01*
X139105487Y-2741345D01*
X139105487Y-2741500D01*
X139033888Y-2741500D01*
X138965767Y-2721498D01*
X138919274Y-2667842D01*
X138907888Y-2615500D01*
X138907888Y-2145589D01*
X138908966Y-2129141D01*
X138910615Y-2116621D01*
X138912923Y-2099088D01*
X138907888Y-2060844D01*
X138892869Y-1946764D01*
X138841806Y-1823487D01*
X138834074Y-1804820D01*
X138780776Y-1735361D01*
X138740545Y-1682931D01*
X138716485Y-1664469D01*
X138704095Y-1653602D01*
X138094555Y-1044062D01*
X138060529Y-981750D01*
X138065594Y-910935D01*
X138076390Y-888851D01*
X138113475Y-828688D01*
X138113476Y-828686D01*
X138117315Y-822458D01*
X138172997Y-654581D01*
X138183700Y-550120D01*
X138183700Y75680D01*
X138180280Y108641D01*
X138173438Y174588D01*
X138173437Y174592D01*
X138172726Y181446D01*
X138160364Y218501D01*
X138119068Y342278D01*
X138116750Y349226D01*
X138023678Y499628D01*
X137937091Y586064D01*
X137903012Y648346D01*
X137908015Y719166D01*
X137936936Y764255D01*
X138019334Y846797D01*
X138024505Y851977D01*
X138063299Y914912D01*
X138113475Y996312D01*
X138113476Y996314D01*
X138117315Y1002542D01*
X138159884Y1130883D01*
X138170832Y1163891D01*
X138170832Y1163893D01*
X138172997Y1170419D01*
X138183700Y1274880D01*
X138183700Y1370070D01*
X138437725Y1370070D01*
X138455572Y1143301D01*
X138457115Y1133554D01*
X138510217Y912373D01*
X138513266Y902988D01*
X138600313Y692837D01*
X138604795Y684042D01*
X138707432Y516555D01*
X138717890Y507093D01*
X138726666Y510876D01*
X139577978Y1362188D01*
X139585592Y1376132D01*
X139585461Y1377965D01*
X139581210Y1384580D01*
X138729710Y2236080D01*
X138717330Y2242840D01*
X138709680Y2237113D01*
X138604795Y2065958D01*
X138600313Y2057163D01*
X138513266Y1847012D01*
X138510217Y1837627D01*
X138457115Y1616446D01*
X138455572Y1606699D01*
X138437725Y1379930D01*
X138437725Y1370070D01*
X138183700Y1370070D01*
X138183700Y1900680D01*
X138179882Y1937478D01*
X138173438Y1999588D01*
X138173437Y1999592D01*
X138172726Y2006446D01*
X138155806Y2057163D01*
X138119068Y2167278D01*
X138116750Y2174226D01*
X138047549Y2286053D01*
X138028711Y2354505D01*
X138036906Y2397101D01*
X138052375Y2437822D01*
X138052376Y2437826D01*
X138054879Y2444415D01*
X138077744Y2607110D01*
X139082093Y2607110D01*
X139085876Y2598334D01*
X139937188Y1747022D01*
X139951132Y1739408D01*
X139952965Y1739539D01*
X139959580Y1743790D01*
X140811080Y2595290D01*
X140817534Y2607110D01*
X142532093Y2607110D01*
X142535876Y2598334D01*
X143387188Y1747022D01*
X143401132Y1739408D01*
X143402965Y1739539D01*
X143409580Y1743790D01*
X144261080Y2595290D01*
X144267840Y2607670D01*
X144262113Y2615320D01*
X144090958Y2720205D01*
X144082163Y2724687D01*
X143872012Y2811734D01*
X143862627Y2814783D01*
X143641446Y2867885D01*
X143631699Y2869428D01*
X143404930Y2887275D01*
X143395070Y2887275D01*
X143168301Y2869428D01*
X143158554Y2867885D01*
X142937373Y2814783D01*
X142927988Y2811734D01*
X142717837Y2724687D01*
X142709042Y2720205D01*
X142541555Y2617568D01*
X142532093Y2607110D01*
X140817534Y2607110D01*
X140817840Y2607670D01*
X140812113Y2615320D01*
X140640958Y2720205D01*
X140632163Y2724687D01*
X140422012Y2811734D01*
X140412627Y2814783D01*
X140191446Y2867885D01*
X140181699Y2869428D01*
X139954930Y2887275D01*
X139945070Y2887275D01*
X139718301Y2869428D01*
X139708554Y2867885D01*
X139487373Y2814783D01*
X139477988Y2811734D01*
X139267837Y2724687D01*
X139259042Y2720205D01*
X139091555Y2617568D01*
X139082093Y2607110D01*
X138077744Y2607110D01*
X138078561Y2612927D01*
X138078859Y2634240D01*
X138059891Y2803348D01*
X138050719Y2829688D01*
X138017926Y2923853D01*
X138003928Y2964051D01*
X137997943Y2973630D01*
X137967513Y3022326D01*
X137913752Y3108361D01*
X137889168Y3133118D01*
X137798808Y3224111D01*
X137793846Y3229108D01*
X137777599Y3239419D01*
X137726210Y3272031D01*
X137650168Y3320289D01*
X137489860Y3377372D01*
X137320889Y3397520D01*
X137313886Y3396784D01*
X137313885Y3396784D01*
X137158661Y3380470D01*
X137158657Y3380469D01*
X137151653Y3379733D01*
X137144982Y3377462D01*
X136997233Y3327165D01*
X136997230Y3327164D01*
X136990563Y3324894D01*
X136984565Y3321204D01*
X136984563Y3321203D01*
X136851625Y3239419D01*
X136851623Y3239417D01*
X136845626Y3235728D01*
X136724046Y3116667D01*
X136720235Y3110753D01*
X136720233Y3110751D01*
X136646707Y2996662D01*
X136631864Y2973630D01*
X136573663Y2813724D01*
X136572780Y2806734D01*
X136561275Y2715666D01*
X136532893Y2650589D01*
X136473833Y2611188D01*
X136449275Y2606132D01*
X136415346Y2602611D01*
X136375893Y2598518D01*
X136375890Y2598517D01*
X136369034Y2597806D01*
X136362498Y2595625D01*
X136362496Y2595625D01*
X136293003Y2572440D01*
X136201254Y2541830D01*
X136050852Y2448758D01*
X136045679Y2443576D01*
X136039942Y2439029D01*
X136038421Y2440948D01*
X135986353Y2412456D01*
X135915533Y2417457D01*
X135878969Y2440907D01*
X135878155Y2439876D01*
X135872408Y2444415D01*
X135867229Y2449585D01*
X135860998Y2453426D01*
X135722894Y2538555D01*
X135722892Y2538556D01*
X135716664Y2542395D01*
X135625740Y2572553D01*
X135555315Y2595912D01*
X135555313Y2595912D01*
X135548787Y2598077D01*
X135541951Y2598777D01*
X135541948Y2598778D01*
X135498895Y2603189D01*
X135444326Y2608780D01*
X134800309Y2608780D01*
X134732188Y2628782D01*
X134711214Y2645685D01*
X134565051Y2791848D01*
X134531025Y2854160D01*
X134528932Y2866894D01*
X134528073Y2874550D01*
X134540355Y2944476D01*
X134588492Y2996662D01*
X134657201Y3014538D01*
X134670354Y3012599D01*
X134670450Y3013329D01*
X134822774Y2993275D01*
X134830962Y2994353D01*
X134852830Y2997232D01*
X134869277Y2998310D01*
X135305787Y2998310D01*
X135322234Y2997232D01*
X135352290Y2993275D01*
X135360478Y2994353D01*
X135390534Y2998310D01*
X135413071Y3001277D01*
X135504614Y3013329D01*
X135577364Y3043463D01*
X135638931Y3068965D01*
X135638932Y3068966D01*
X135646557Y3072124D01*
X135651195Y3075683D01*
X135685996Y3102386D01*
X135761901Y3160630D01*
X135768447Y3165653D01*
X135786909Y3189713D01*
X135797776Y3202103D01*
X136113663Y3517990D01*
X136175975Y3552016D01*
X136191338Y3554376D01*
X136229523Y3557851D01*
X136236225Y3560029D01*
X136236227Y3560029D01*
X136384663Y3608259D01*
X136384666Y3608260D01*
X136391362Y3610436D01*
X136537530Y3697570D01*
X136542624Y3702421D01*
X136542628Y3702424D01*
X136609873Y3766461D01*
X136660761Y3814921D01*
X136754931Y3956658D01*
X136815359Y4115735D01*
X136828815Y4211483D01*
X137184000Y4211483D01*
X137188064Y4197641D01*
X137201478Y4195607D01*
X137208184Y4196466D01*
X137218262Y4198608D01*
X137422255Y4259809D01*
X137431842Y4263567D01*
X137623095Y4357261D01*
X137631945Y4362536D01*
X137805328Y4486208D01*
X137813200Y4492861D01*
X137964052Y4643188D01*
X137970730Y4651035D01*
X138095003Y4823980D01*
X138100313Y4832817D01*
X138194670Y5023733D01*
X138198469Y5033328D01*
X138260377Y5237090D01*
X138262555Y5247163D01*
X138263986Y5258038D01*
X138261775Y5272222D01*
X138248617Y5276000D01*
X137202115Y5276000D01*
X137186876Y5271525D01*
X137185671Y5270135D01*
X137184000Y5262452D01*
X137184000Y4211483D01*
X136828815Y4211483D01*
X136839041Y4284247D01*
X136839339Y4305560D01*
X136820371Y4474668D01*
X136814036Y4492861D01*
X136766726Y4628714D01*
X136764408Y4635371D01*
X136759524Y4643188D01*
X136695146Y4746212D01*
X136676000Y4812982D01*
X136676000Y5658000D01*
X136696002Y5726121D01*
X136749658Y5772614D01*
X136802000Y5784000D01*
X138248344Y5784000D01*
X138261875Y5787973D01*
X138263180Y5797053D01*
X138221214Y5964125D01*
X138217894Y5973876D01*
X138132972Y6169186D01*
X138128105Y6178261D01*
X138012426Y6357074D01*
X138006136Y6365243D01*
X137862806Y6522760D01*
X137855273Y6529785D01*
X137688139Y6661778D01*
X137679556Y6667480D01*
X137642602Y6687880D01*
X137592631Y6738313D01*
X137588502Y6757723D01*
X139937009Y6757723D01*
X139962625Y6489231D01*
X139963710Y6484797D01*
X139963711Y6484791D01*
X140011997Y6287463D01*
X140026731Y6227250D01*
X140127985Y5977267D01*
X140130294Y5973324D01*
X140233505Y5797053D01*
X140264265Y5744518D01*
X140333455Y5658000D01*
X140384686Y5593940D01*
X140432716Y5533881D01*
X140629809Y5349766D01*
X140851416Y5196032D01*
X140855499Y5194001D01*
X140855502Y5193999D01*
X140964660Y5139694D01*
X141092894Y5075899D01*
X141097228Y5074478D01*
X141097231Y5074477D01*
X141344853Y4993302D01*
X141344859Y4993301D01*
X141349186Y4991882D01*
X141353677Y4991102D01*
X141353678Y4991102D01*
X141611140Y4946399D01*
X141611148Y4946398D01*
X141614921Y4945743D01*
X141618758Y4945552D01*
X141698578Y4941578D01*
X141698586Y4941578D01*
X141700149Y4941500D01*
X141868512Y4941500D01*
X141870780Y4941665D01*
X141870792Y4941665D01*
X142001884Y4951177D01*
X142069004Y4956047D01*
X142073459Y4957031D01*
X142073462Y4957031D01*
X142327912Y5013209D01*
X142327916Y5013210D01*
X142332372Y5014194D01*
X142476608Y5068840D01*
X142580318Y5108132D01*
X142580321Y5108133D01*
X142584588Y5109750D01*
X142820368Y5240714D01*
X143034773Y5404343D01*
X143057817Y5427915D01*
X143220117Y5593940D01*
X143223312Y5597208D01*
X143382034Y5815270D01*
X143465190Y5973324D01*
X143505490Y6049921D01*
X143505493Y6049927D01*
X143507615Y6053961D01*
X143548306Y6169186D01*
X143595902Y6303967D01*
X143595902Y6303968D01*
X143597425Y6308280D01*
X143633987Y6493783D01*
X143648700Y6568428D01*
X143648701Y6568434D01*
X143649581Y6572900D01*
X143651841Y6618297D01*
X143662764Y6837708D01*
X143662764Y6837714D01*
X143662991Y6842277D01*
X143637375Y7110769D01*
X143635309Y7119215D01*
X143574355Y7368312D01*
X143573269Y7372750D01*
X143472015Y7622733D01*
X143335735Y7855482D01*
X143217434Y8003410D01*
X143170136Y8062553D01*
X143170135Y8062555D01*
X143167284Y8066119D01*
X142970191Y8250234D01*
X142748584Y8403968D01*
X142744501Y8405999D01*
X142744498Y8406001D01*
X142575674Y8489989D01*
X142507106Y8524101D01*
X142502772Y8525522D01*
X142502769Y8525523D01*
X142255147Y8606698D01*
X142255141Y8606699D01*
X142250814Y8608118D01*
X142246322Y8608898D01*
X141988860Y8653601D01*
X141988852Y8653602D01*
X141985079Y8654257D01*
X141973817Y8654818D01*
X141901422Y8658422D01*
X141901414Y8658422D01*
X141899851Y8658500D01*
X141731488Y8658500D01*
X141729220Y8658335D01*
X141729208Y8658335D01*
X141598116Y8648823D01*
X141530996Y8643953D01*
X141526541Y8642969D01*
X141526538Y8642969D01*
X141272088Y8586791D01*
X141272084Y8586790D01*
X141267628Y8585806D01*
X141180576Y8552825D01*
X141019682Y8491868D01*
X141019679Y8491867D01*
X141015412Y8490250D01*
X140779632Y8359286D01*
X140565227Y8195657D01*
X140562034Y8192391D01*
X140562032Y8192389D01*
X140474946Y8103305D01*
X140376688Y8002792D01*
X140217966Y7784730D01*
X140178285Y7709308D01*
X140094510Y7550079D01*
X140094507Y7550073D01*
X140092385Y7546039D01*
X140090865Y7541734D01*
X140090863Y7541730D01*
X140029576Y7368181D01*
X140002575Y7291720D01*
X139996522Y7261010D01*
X139951478Y7032471D01*
X139950419Y7027100D01*
X139950192Y7022547D01*
X139950192Y7022544D01*
X139937450Y6766579D01*
X139937009Y6757723D01*
X137588502Y6757723D01*
X137577859Y6807755D01*
X137602975Y6874161D01*
X137630327Y6900768D01*
X137654040Y6917682D01*
X137809860Y7028827D01*
X137968096Y7186511D01*
X138098453Y7367923D01*
X138111995Y7395322D01*
X138195136Y7563547D01*
X138195137Y7563549D01*
X138197430Y7568189D01*
X138205828Y7595831D01*
X138213493Y7621057D01*
X138252434Y7680421D01*
X138317289Y7709308D01*
X138387465Y7698546D01*
X138403044Y7689860D01*
X138417469Y7680421D01*
X138459846Y7652690D01*
X138466450Y7650234D01*
X138466452Y7650233D01*
X138521454Y7629778D01*
X138619341Y7593374D01*
X138788015Y7570868D01*
X138795026Y7571506D01*
X138795030Y7571506D01*
X138950462Y7585652D01*
X138957483Y7586291D01*
X138964185Y7588469D01*
X138964187Y7588469D01*
X139112623Y7636699D01*
X139112626Y7636700D01*
X139119322Y7638876D01*
X139265490Y7726010D01*
X139270584Y7730861D01*
X139270588Y7730864D01*
X139343600Y7800393D01*
X139388721Y7843361D01*
X139482891Y7985098D01*
X139543319Y8144175D01*
X139567001Y8312687D01*
X139567299Y8334000D01*
X139548331Y8503108D01*
X139541021Y8524101D01*
X139519509Y8585873D01*
X139512500Y8627310D01*
X139512500Y9665500D01*
X139532502Y9733621D01*
X139586158Y9780114D01*
X139638500Y9791500D01*
X141750633Y9791500D01*
X141770018Y9790000D01*
G37*
G04 #@! TD.AperFunction*
G04 #@! TA.AperFunction,Conductor*
G36*
X85494568Y-3562908D02*
G01*
X85602444Y-3633500D01*
X85612606Y-3640150D01*
X85619210Y-3642606D01*
X85619212Y-3642607D01*
X85648508Y-3653502D01*
X85772101Y-3699466D01*
X85940775Y-3721972D01*
X85947786Y-3721334D01*
X85947790Y-3721334D01*
X86027602Y-3714070D01*
X86055741Y-3711509D01*
X86125393Y-3725254D01*
X86176558Y-3774475D01*
X86193160Y-3836990D01*
X86193160Y-4239540D01*
X86193497Y-4242786D01*
X86193497Y-4242790D01*
X86203404Y-4338266D01*
X86204134Y-4345306D01*
X86206315Y-4351842D01*
X86206315Y-4351844D01*
X86240566Y-4454506D01*
X86260110Y-4513086D01*
X86353182Y-4663488D01*
X86358364Y-4668661D01*
X86459479Y-4769600D01*
X86493558Y-4831883D01*
X86488555Y-4902703D01*
X86459634Y-4947791D01*
X86352355Y-5055257D01*
X86348515Y-5061487D01*
X86348514Y-5061488D01*
X86272720Y-5184449D01*
X86259545Y-5205822D01*
X86235425Y-5278542D01*
X86215872Y-5337494D01*
X86203863Y-5373699D01*
X86203163Y-5380535D01*
X86203162Y-5380538D01*
X86198751Y-5423591D01*
X86193160Y-5478160D01*
X86193160Y-6103960D01*
X86193497Y-6107206D01*
X86193497Y-6107210D01*
X86201355Y-6182939D01*
X86204134Y-6209726D01*
X86206315Y-6216262D01*
X86206315Y-6216264D01*
X86217903Y-6250998D01*
X86260110Y-6377506D01*
X86353182Y-6527908D01*
X86427481Y-6602077D01*
X86439769Y-6614344D01*
X86473848Y-6676626D01*
X86468845Y-6747446D01*
X86439924Y-6792535D01*
X86352355Y-6880257D01*
X86348515Y-6886487D01*
X86348514Y-6886488D01*
X86269101Y-7015320D01*
X86259545Y-7030822D01*
X86203863Y-7198699D01*
X86203163Y-7205535D01*
X86203162Y-7205538D01*
X86202215Y-7214783D01*
X86193160Y-7303160D01*
X86193160Y-7928960D01*
X86193496Y-7932201D01*
X86193497Y-7932215D01*
X86196587Y-7961995D01*
X86183722Y-8031816D01*
X86147965Y-8074959D01*
X86136158Y-8084019D01*
X86062103Y-8140843D01*
X86057080Y-8147389D01*
X86043642Y-8164902D01*
X86032774Y-8177293D01*
X85349418Y-8860649D01*
X85287106Y-8894675D01*
X85216291Y-8889610D01*
X85159455Y-8847063D01*
X85134644Y-8780543D01*
X85139419Y-8737994D01*
X85139284Y-8737965D01*
X85139572Y-8736635D01*
X85139763Y-8734929D01*
X85140378Y-8732903D01*
X85142555Y-8722837D01*
X85143986Y-8711962D01*
X85141775Y-8697778D01*
X85128617Y-8694000D01*
X83682000Y-8694000D01*
X83613879Y-8673998D01*
X83567386Y-8620342D01*
X83556000Y-8568000D01*
X83556000Y-8312000D01*
X83576002Y-8243879D01*
X83629658Y-8197386D01*
X83682000Y-8186000D01*
X85128344Y-8186000D01*
X85141875Y-8182027D01*
X85143180Y-8172947D01*
X85101214Y-8005875D01*
X85097894Y-7996124D01*
X85012972Y-7800814D01*
X85008105Y-7791739D01*
X84892426Y-7612926D01*
X84886136Y-7604757D01*
X84742806Y-7447240D01*
X84735273Y-7440215D01*
X84568139Y-7308222D01*
X84559556Y-7302520D01*
X84522602Y-7282120D01*
X84472631Y-7231687D01*
X84457859Y-7162245D01*
X84482975Y-7095839D01*
X84510327Y-7069232D01*
X84533797Y-7052491D01*
X84689860Y-6941173D01*
X84706868Y-6924225D01*
X84844435Y-6787137D01*
X84848096Y-6783489D01*
X84868509Y-6755082D01*
X84975435Y-6606277D01*
X84978453Y-6602077D01*
X84998832Y-6560844D01*
X85075136Y-6406453D01*
X85075137Y-6406451D01*
X85077430Y-6401811D01*
X85142370Y-6188069D01*
X85171529Y-5966590D01*
X85173156Y-5900000D01*
X85154852Y-5677361D01*
X85100431Y-5460702D01*
X85011354Y-5255840D01*
X84900213Y-5084042D01*
X84892822Y-5072617D01*
X84892820Y-5072614D01*
X84890014Y-5068277D01*
X84739670Y-4903051D01*
X84735619Y-4899852D01*
X84735615Y-4899848D01*
X84568414Y-4767800D01*
X84568410Y-4767798D01*
X84564359Y-4764598D01*
X84523053Y-4741796D01*
X84473084Y-4691364D01*
X84458312Y-4621921D01*
X84483428Y-4555516D01*
X84510780Y-4528909D01*
X84569143Y-4487279D01*
X84689860Y-4401173D01*
X84732683Y-4358500D01*
X84810883Y-4280572D01*
X84848096Y-4243489D01*
X84852173Y-4237816D01*
X84975435Y-4066277D01*
X84978453Y-4062077D01*
X85077430Y-3861811D01*
X85112521Y-3746313D01*
X85140866Y-3653021D01*
X85140867Y-3653015D01*
X85142370Y-3648069D01*
X85143045Y-3642941D01*
X85143311Y-3641711D01*
X85177258Y-3579356D01*
X85239527Y-3545253D01*
X85266465Y-3542340D01*
X85425575Y-3542340D01*
X85494568Y-3562908D01*
G37*
G04 #@! TD.AperFunction*
G04 #@! TA.AperFunction,Conductor*
G36*
X107991778Y-3514233D02*
G01*
X108041373Y-3518682D01*
X108043795Y-3518712D01*
X108043802Y-3518712D01*
X108047116Y-3518752D01*
X108053715Y-3518833D01*
X108128035Y-3513995D01*
X108136221Y-3513729D01*
X108480519Y-3513729D01*
X108491778Y-3514233D01*
X108541373Y-3518682D01*
X108543795Y-3518712D01*
X108543802Y-3518712D01*
X108547116Y-3518752D01*
X108553715Y-3518833D01*
X108628035Y-3513995D01*
X108636221Y-3513729D01*
X108943721Y-3513729D01*
X109011842Y-3533731D01*
X109032816Y-3550634D01*
X109038327Y-3556145D01*
X109041522Y-3558623D01*
X109050544Y-3566329D01*
X109082776Y-3596597D01*
X109089725Y-3600417D01*
X109100529Y-3606357D01*
X109117053Y-3617210D01*
X109133056Y-3629624D01*
X109173640Y-3647187D01*
X109184270Y-3652394D01*
X109223037Y-3673706D01*
X109230714Y-3675677D01*
X109230719Y-3675679D01*
X109242655Y-3678743D01*
X109261363Y-3685148D01*
X109279952Y-3693192D01*
X109287777Y-3694431D01*
X109287779Y-3694432D01*
X109323616Y-3700108D01*
X109335237Y-3702515D01*
X109370386Y-3711539D01*
X109378067Y-3713511D01*
X109398328Y-3713511D01*
X109418037Y-3715062D01*
X109438040Y-3718230D01*
X109445932Y-3717484D01*
X109451159Y-3716990D01*
X109482051Y-3714070D01*
X109493908Y-3713511D01*
X110005252Y-3713511D01*
X110016435Y-3714038D01*
X110023928Y-3715713D01*
X110031854Y-3715464D01*
X110031855Y-3715464D01*
X110092005Y-3713573D01*
X110095964Y-3713511D01*
X110123875Y-3713511D01*
X110127810Y-3713014D01*
X110127875Y-3713006D01*
X110139712Y-3712073D01*
X110171970Y-3711059D01*
X110175989Y-3710933D01*
X110183908Y-3710684D01*
X110203362Y-3705032D01*
X110222719Y-3701024D01*
X110234949Y-3699479D01*
X110234950Y-3699479D01*
X110242816Y-3698485D01*
X110250187Y-3695566D01*
X110250189Y-3695566D01*
X110283931Y-3682207D01*
X110295161Y-3678362D01*
X110330002Y-3668240D01*
X110330003Y-3668240D01*
X110337612Y-3666029D01*
X110344431Y-3661996D01*
X110344436Y-3661994D01*
X110355047Y-3655718D01*
X110372800Y-3647021D01*
X110384605Y-3642347D01*
X110430984Y-3633500D01*
X117337724Y-3633500D01*
X117405845Y-3653502D01*
X117452338Y-3707158D01*
X117463724Y-3759500D01*
X117463724Y-4239540D01*
X117464061Y-4242786D01*
X117464061Y-4242790D01*
X117473968Y-4338266D01*
X117474698Y-4345306D01*
X117476879Y-4351842D01*
X117476879Y-4351844D01*
X117511130Y-4454506D01*
X117530674Y-4513086D01*
X117623746Y-4663488D01*
X117628928Y-4668661D01*
X117730043Y-4769600D01*
X117764122Y-4831883D01*
X117759119Y-4902703D01*
X117730198Y-4947791D01*
X117622919Y-5055257D01*
X117619079Y-5061487D01*
X117619078Y-5061488D01*
X117543284Y-5184449D01*
X117530109Y-5205822D01*
X117505989Y-5278542D01*
X117486436Y-5337494D01*
X117474427Y-5373699D01*
X117473727Y-5380535D01*
X117473726Y-5380538D01*
X117469315Y-5423591D01*
X117463724Y-5478160D01*
X117463724Y-6103960D01*
X117464061Y-6107205D01*
X117464061Y-6107211D01*
X117464150Y-6108065D01*
X117464115Y-6108253D01*
X117464229Y-6110450D01*
X117463706Y-6110477D01*
X117451290Y-6177887D01*
X117427919Y-6210171D01*
X117220382Y-6417708D01*
X117158070Y-6451734D01*
X117144457Y-6453923D01*
X117101736Y-6458413D01*
X117101735Y-6458413D01*
X117094735Y-6459149D01*
X117010154Y-6487942D01*
X116940315Y-6511717D01*
X116940312Y-6511718D01*
X116933645Y-6513988D01*
X116927647Y-6517678D01*
X116927645Y-6517679D01*
X116789836Y-6602460D01*
X116723814Y-6621142D01*
X111147516Y-6621142D01*
X111079395Y-6601140D01*
X111058421Y-6584237D01*
X109292861Y-4818678D01*
X109282001Y-4806296D01*
X109263537Y-4782233D01*
X109247074Y-4769600D01*
X109198388Y-4732243D01*
X109141647Y-4688704D01*
X108999704Y-4629909D01*
X108990460Y-4628692D01*
X108847380Y-4609855D01*
X108839192Y-4610933D01*
X108817324Y-4613812D01*
X108800877Y-4614890D01*
X108762883Y-4614890D01*
X108694762Y-4594888D01*
X108673788Y-4577985D01*
X107824627Y-3728824D01*
X107790601Y-3666512D01*
X107795666Y-3595697D01*
X107838213Y-3538861D01*
X107904733Y-3514050D01*
X107913722Y-3513729D01*
X107980519Y-3513729D01*
X107991778Y-3514233D01*
G37*
G04 #@! TD.AperFunction*
G04 #@! TA.AperFunction,Conductor*
G36*
X86622238Y9771498D02*
G01*
X86668731Y9717842D01*
X86678835Y9647568D01*
X86649341Y9582988D01*
X86643212Y9576405D01*
X86608289Y9541482D01*
X86595898Y9530615D01*
X86571843Y9512157D01*
X86495307Y9412413D01*
X86478314Y9390267D01*
X86419519Y9248324D01*
X86399465Y9096000D01*
X86400543Y9087812D01*
X86403422Y9065944D01*
X86404500Y9049497D01*
X86404500Y5191884D01*
X86384498Y5123763D01*
X86367595Y5102789D01*
X84321158Y3056351D01*
X84258846Y3022326D01*
X84190004Y3026673D01*
X84163084Y3036206D01*
X84163081Y3036207D01*
X84158212Y3037931D01*
X84153123Y3038838D01*
X84153121Y3038838D01*
X83943373Y3076200D01*
X83943367Y3076201D01*
X83938284Y3077106D01*
X83864452Y3078008D01*
X83720081Y3079772D01*
X83720079Y3079772D01*
X83714911Y3079835D01*
X83494091Y3046045D01*
X83281756Y2976643D01*
X83277164Y2974253D01*
X83277165Y2974253D01*
X83180348Y2923853D01*
X83083607Y2873493D01*
X83079474Y2870390D01*
X83079471Y2870388D01*
X82909100Y2742470D01*
X82904965Y2739365D01*
X82846267Y2677941D01*
X82767284Y2595290D01*
X82750629Y2577862D01*
X82747715Y2573590D01*
X82747714Y2573589D01*
X82723419Y2537974D01*
X82624743Y2393320D01*
X82530688Y2190695D01*
X82470989Y1975430D01*
X82447251Y1753305D01*
X82447548Y1748152D01*
X82447548Y1748149D01*
X82457084Y1582770D01*
X82460110Y1530285D01*
X82461247Y1525239D01*
X82461248Y1525233D01*
X82481119Y1437061D01*
X82509222Y1312361D01*
X82593266Y1105384D01*
X82595965Y1100980D01*
X82694345Y940438D01*
X82709987Y914912D01*
X82856250Y746062D01*
X83028126Y603368D01*
X83098595Y562189D01*
X83101445Y560524D01*
X83150169Y508886D01*
X83163240Y439103D01*
X83136509Y373331D01*
X83096055Y339973D01*
X83083607Y333493D01*
X83079474Y330390D01*
X83079471Y330388D01*
X82909100Y202470D01*
X82904965Y199365D01*
X82883807Y177224D01*
X82789875Y78930D01*
X82750629Y37862D01*
X82747715Y33590D01*
X82747714Y33589D01*
X82699748Y-36727D01*
X82624743Y-146680D01*
X82609215Y-180132D01*
X82553167Y-300879D01*
X82530688Y-349305D01*
X82470989Y-564570D01*
X82447251Y-786695D01*
X82447548Y-791848D01*
X82447548Y-791851D01*
X82457902Y-971414D01*
X82460110Y-1009715D01*
X82461247Y-1014761D01*
X82461248Y-1014767D01*
X82469360Y-1050760D01*
X82509222Y-1227639D01*
X82593266Y-1434616D01*
X82633032Y-1499508D01*
X82700139Y-1609017D01*
X82709987Y-1625088D01*
X82856250Y-1793938D01*
X83028126Y-1936632D01*
X83098595Y-1977811D01*
X83101445Y-1979476D01*
X83150169Y-2031114D01*
X83163240Y-2100897D01*
X83136509Y-2166669D01*
X83096055Y-2200027D01*
X83083607Y-2206507D01*
X83079474Y-2209610D01*
X83079471Y-2209612D01*
X82915620Y-2332635D01*
X82904965Y-2340635D01*
X82750629Y-2502138D01*
X82747715Y-2506410D01*
X82747714Y-2506411D01*
X82731778Y-2529773D01*
X82624743Y-2686680D01*
X82598643Y-2742908D01*
X82546004Y-2856310D01*
X82530688Y-2889305D01*
X82470989Y-3104570D01*
X82447251Y-3326695D01*
X82447548Y-3331848D01*
X82447548Y-3331851D01*
X82451200Y-3395189D01*
X82460110Y-3549715D01*
X82461247Y-3554761D01*
X82461248Y-3554767D01*
X82483252Y-3652401D01*
X82509222Y-3767639D01*
X82593266Y-3974616D01*
X82709987Y-4165088D01*
X82856250Y-4333938D01*
X83028126Y-4476632D01*
X83047806Y-4488132D01*
X83101445Y-4519476D01*
X83150169Y-4571114D01*
X83163240Y-4640897D01*
X83136509Y-4706669D01*
X83096055Y-4740027D01*
X83083607Y-4746507D01*
X83079474Y-4749610D01*
X83079471Y-4749612D01*
X82922029Y-4867823D01*
X82904965Y-4880635D01*
X82901393Y-4884373D01*
X82789465Y-5001499D01*
X82750629Y-5042138D01*
X82747715Y-5046410D01*
X82747714Y-5046411D01*
X82716044Y-5092837D01*
X82624743Y-5226680D01*
X82600670Y-5278542D01*
X82573305Y-5337494D01*
X82526481Y-5390861D01*
X82458237Y-5410442D01*
X82390242Y-5390018D01*
X82351873Y-5350748D01*
X82326253Y-5309348D01*
X82317220Y-5297950D01*
X82203521Y-5184449D01*
X82192110Y-5175437D01*
X82055346Y-5091135D01*
X82042168Y-5084991D01*
X81889260Y-5034273D01*
X81875894Y-5031407D01*
X81782399Y-5021828D01*
X81775984Y-5021500D01*
X81545115Y-5021500D01*
X81529876Y-5025975D01*
X81528671Y-5027365D01*
X81527000Y-5035048D01*
X81527000Y-6145000D01*
X81506998Y-6213121D01*
X81453342Y-6259614D01*
X81401000Y-6271000D01*
X81145000Y-6271000D01*
X81076879Y-6250998D01*
X81030386Y-6197342D01*
X81019000Y-6145000D01*
X81019000Y-5039616D01*
X81014525Y-5024377D01*
X81013135Y-5023172D01*
X81005452Y-5021501D01*
X80934500Y-5021501D01*
X80866379Y-5001499D01*
X80819886Y-4947843D01*
X80808500Y-4895501D01*
X80808500Y6746750D01*
X80809416Y6757723D01*
X81937009Y6757723D01*
X81962625Y6489231D01*
X81963710Y6484797D01*
X81963711Y6484791D01*
X82011997Y6287463D01*
X82026731Y6227250D01*
X82127985Y5977267D01*
X82130294Y5973324D01*
X82233505Y5797053D01*
X82264265Y5744518D01*
X82333455Y5658000D01*
X82384686Y5593940D01*
X82432716Y5533881D01*
X82629809Y5349766D01*
X82851416Y5196032D01*
X82855499Y5194001D01*
X82855502Y5193999D01*
X82964660Y5139694D01*
X83092894Y5075899D01*
X83097228Y5074478D01*
X83097231Y5074477D01*
X83344853Y4993302D01*
X83344859Y4993301D01*
X83349186Y4991882D01*
X83353677Y4991102D01*
X83353678Y4991102D01*
X83611140Y4946399D01*
X83611148Y4946398D01*
X83614921Y4945743D01*
X83618758Y4945552D01*
X83698578Y4941578D01*
X83698586Y4941578D01*
X83700149Y4941500D01*
X83868512Y4941500D01*
X83870780Y4941665D01*
X83870792Y4941665D01*
X84001884Y4951177D01*
X84069004Y4956047D01*
X84073459Y4957031D01*
X84073462Y4957031D01*
X84327912Y5013209D01*
X84327916Y5013210D01*
X84332372Y5014194D01*
X84476608Y5068840D01*
X84580318Y5108132D01*
X84580321Y5108133D01*
X84584588Y5109750D01*
X84820368Y5240714D01*
X85034773Y5404343D01*
X85057817Y5427915D01*
X85220117Y5593940D01*
X85223312Y5597208D01*
X85382034Y5815270D01*
X85465190Y5973324D01*
X85505490Y6049921D01*
X85505493Y6049927D01*
X85507615Y6053961D01*
X85548306Y6169186D01*
X85595902Y6303967D01*
X85595902Y6303968D01*
X85597425Y6308280D01*
X85633987Y6493783D01*
X85648700Y6568428D01*
X85648701Y6568434D01*
X85649581Y6572900D01*
X85651841Y6618297D01*
X85662764Y6837708D01*
X85662764Y6837714D01*
X85662991Y6842277D01*
X85637375Y7110769D01*
X85635309Y7119215D01*
X85574355Y7368312D01*
X85573269Y7372750D01*
X85472015Y7622733D01*
X85335735Y7855482D01*
X85217434Y8003410D01*
X85170136Y8062553D01*
X85170135Y8062555D01*
X85167284Y8066119D01*
X84970191Y8250234D01*
X84748584Y8403968D01*
X84744501Y8405999D01*
X84744498Y8406001D01*
X84575674Y8489989D01*
X84507106Y8524101D01*
X84502772Y8525522D01*
X84502769Y8525523D01*
X84255147Y8606698D01*
X84255141Y8606699D01*
X84250814Y8608118D01*
X84246322Y8608898D01*
X83988860Y8653601D01*
X83988852Y8653602D01*
X83985079Y8654257D01*
X83973817Y8654818D01*
X83901422Y8658422D01*
X83901414Y8658422D01*
X83899851Y8658500D01*
X83731488Y8658500D01*
X83729220Y8658335D01*
X83729208Y8658335D01*
X83598116Y8648823D01*
X83530996Y8643953D01*
X83526541Y8642969D01*
X83526538Y8642969D01*
X83272088Y8586791D01*
X83272084Y8586790D01*
X83267628Y8585806D01*
X83180576Y8552825D01*
X83019682Y8491868D01*
X83019679Y8491867D01*
X83015412Y8490250D01*
X82779632Y8359286D01*
X82565227Y8195657D01*
X82562034Y8192391D01*
X82562032Y8192389D01*
X82474946Y8103305D01*
X82376688Y8002792D01*
X82217966Y7784730D01*
X82178285Y7709308D01*
X82094510Y7550079D01*
X82094507Y7550073D01*
X82092385Y7546039D01*
X82090865Y7541734D01*
X82090863Y7541730D01*
X82029576Y7368181D01*
X82002575Y7291720D01*
X81996522Y7261010D01*
X81951478Y7032471D01*
X81950419Y7027100D01*
X81950192Y7022547D01*
X81950192Y7022544D01*
X81937450Y6766579D01*
X81937009Y6757723D01*
X80809416Y6757723D01*
X80810246Y6767655D01*
X80812770Y6782656D01*
X80812770Y6782659D01*
X80813576Y6787448D01*
X80813729Y6800000D01*
X80813039Y6804820D01*
X80811644Y6814563D01*
X80810545Y6839017D01*
X80820402Y7027100D01*
X80824542Y7106101D01*
X80825920Y7119215D01*
X80836053Y7183188D01*
X80859960Y7334134D01*
X80872838Y7415445D01*
X80875580Y7428345D01*
X80919799Y7593374D01*
X80953207Y7718052D01*
X80957281Y7730591D01*
X80963146Y7745868D01*
X81064763Y8010588D01*
X81070126Y8022635D01*
X81206289Y8289870D01*
X81212883Y8301291D01*
X81376236Y8552832D01*
X81383984Y8563495D01*
X81402106Y8585873D01*
X81572727Y8796573D01*
X81581552Y8806374D01*
X81793626Y9018448D01*
X81803427Y9027273D01*
X81867932Y9079508D01*
X82036508Y9216018D01*
X82047168Y9223764D01*
X82298714Y9387120D01*
X82310130Y9393711D01*
X82577365Y9529874D01*
X82589413Y9535238D01*
X82605679Y9541482D01*
X82869414Y9642721D01*
X82881948Y9646793D01*
X83147105Y9717842D01*
X83171655Y9724420D01*
X83184555Y9727162D01*
X83265866Y9740040D01*
X83480791Y9774081D01*
X83493899Y9775458D01*
X83582744Y9780114D01*
X83757299Y9789262D01*
X83783276Y9787935D01*
X83784846Y9787691D01*
X83784850Y9787691D01*
X83793724Y9786309D01*
X83802626Y9787473D01*
X83802628Y9787473D01*
X83817677Y9789441D01*
X83825286Y9790436D01*
X83841621Y9791500D01*
X86554117Y9791500D01*
X86622238Y9771498D01*
G37*
G04 #@! TD.AperFunction*
G04 #@! TA.AperFunction,Conductor*
G36*
X109489672Y215937D02*
G01*
X109491041Y217885D01*
X109543299Y181158D01*
X109548595Y177225D01*
X109598884Y137793D01*
X109605806Y134668D01*
X109608054Y133306D01*
X109622787Y124902D01*
X109625126Y123648D01*
X109631341Y119280D01*
X109638417Y116521D01*
X109638421Y116519D01*
X109690876Y96068D01*
X109696954Y93513D01*
X109755176Y67225D01*
X109762647Y65841D01*
X109765201Y65040D01*
X109781480Y60403D01*
X109784035Y59747D01*
X109791111Y56988D01*
X109819564Y53242D01*
X109854453Y48649D01*
X109860969Y47617D01*
X109903308Y39770D01*
X109923789Y35974D01*
X109931369Y36411D01*
X109931370Y36411D01*
X109986000Y39561D01*
X109993253Y39770D01*
X117337724Y39770D01*
X117405845Y19768D01*
X117452338Y-33888D01*
X117463724Y-86230D01*
X117463724Y-550120D01*
X117464061Y-553366D01*
X117464061Y-553370D01*
X117469970Y-610316D01*
X117474698Y-655886D01*
X117476879Y-662422D01*
X117476879Y-662424D01*
X117512439Y-769010D01*
X117530674Y-823666D01*
X117623746Y-974068D01*
X117628928Y-979241D01*
X117730043Y-1080180D01*
X117764122Y-1142463D01*
X117759119Y-1213283D01*
X117730198Y-1258371D01*
X117622919Y-1365837D01*
X117619079Y-1372067D01*
X117619078Y-1372068D01*
X117585132Y-1427139D01*
X117532360Y-1474632D01*
X117462288Y-1486056D01*
X117410358Y-1467408D01*
X117358082Y-1434233D01*
X117294608Y-1393951D01*
X117134300Y-1336868D01*
X116965329Y-1316720D01*
X116958326Y-1317456D01*
X116958325Y-1317456D01*
X116803101Y-1333770D01*
X116803097Y-1333771D01*
X116796093Y-1334507D01*
X116789422Y-1336778D01*
X116641673Y-1387075D01*
X116641670Y-1387076D01*
X116635003Y-1389346D01*
X116629005Y-1393036D01*
X116629003Y-1393037D01*
X116496065Y-1474821D01*
X116496063Y-1474823D01*
X116490066Y-1478512D01*
X116448201Y-1519510D01*
X116407655Y-1559216D01*
X116368486Y-1597573D01*
X116364675Y-1603487D01*
X116364673Y-1603489D01*
X116313476Y-1682931D01*
X116276304Y-1740610D01*
X116250157Y-1812449D01*
X116221543Y-1891066D01*
X116218103Y-1900516D01*
X116196775Y-2069343D01*
X116210529Y-2209612D01*
X116212352Y-2228204D01*
X116199093Y-2297952D01*
X116150230Y-2349459D01*
X116086953Y-2366500D01*
X110791548Y-2366500D01*
X110723427Y-2346498D01*
X110676934Y-2292842D01*
X110666238Y-2253668D01*
X110665290Y-2244646D01*
X110665290Y-2244645D01*
X110664600Y-2238082D01*
X110605585Y-2056454D01*
X110510098Y-1891066D01*
X110463410Y-1839213D01*
X110386733Y-1754055D01*
X110386732Y-1754054D01*
X110382311Y-1749144D01*
X110227810Y-1636892D01*
X110221782Y-1634208D01*
X110221780Y-1634207D01*
X110059377Y-1561901D01*
X110059376Y-1561901D01*
X110053346Y-1559216D01*
X109959946Y-1539363D01*
X109873002Y-1520882D01*
X109872997Y-1520882D01*
X109866545Y-1519510D01*
X109810653Y-1519510D01*
X109742532Y-1499508D01*
X109721558Y-1482605D01*
X108235547Y3406D01*
X108201521Y65718D01*
X108206586Y136533D01*
X108249133Y193369D01*
X108315653Y218180D01*
X108324642Y218501D01*
X109171607Y218501D01*
X109180177Y218209D01*
X109230295Y214792D01*
X109230299Y214792D01*
X109237871Y214276D01*
X109245348Y215581D01*
X109245349Y215581D01*
X109271827Y220202D01*
X109300822Y225263D01*
X109307340Y226224D01*
X109370761Y233899D01*
X109377865Y236583D01*
X109385246Y238396D01*
X109385966Y235464D01*
X109442928Y239774D01*
X109489672Y215937D01*
G37*
G04 #@! TD.AperFunction*
G04 #@! TA.AperFunction,Conductor*
G36*
X135742026Y7394856D02*
G01*
X135769875Y7363006D01*
X135829987Y7264912D01*
X135976250Y7096062D01*
X136148126Y6953368D01*
X136209196Y6917682D01*
X136221955Y6910226D01*
X136270679Y6858588D01*
X136283750Y6788805D01*
X136257019Y6723033D01*
X136216562Y6689673D01*
X136208457Y6685454D01*
X136199738Y6679964D01*
X136029433Y6552095D01*
X136021726Y6545252D01*
X135874590Y6391283D01*
X135868109Y6383278D01*
X135763498Y6229926D01*
X135708587Y6184924D01*
X135638062Y6176753D01*
X135574315Y6208007D01*
X135553618Y6232491D01*
X135472822Y6357383D01*
X135472820Y6357386D01*
X135470014Y6361723D01*
X135319670Y6526949D01*
X135315619Y6530148D01*
X135315615Y6530152D01*
X135148414Y6662200D01*
X135148410Y6662202D01*
X135144359Y6665402D01*
X135103053Y6688204D01*
X135053084Y6738636D01*
X135038312Y6808079D01*
X135063428Y6874484D01*
X135090780Y6901091D01*
X135134603Y6932350D01*
X135269860Y7028827D01*
X135428096Y7186511D01*
X135558453Y7367923D01*
X135559776Y7366972D01*
X135606645Y7410143D01*
X135676580Y7422375D01*
X135742026Y7394856D01*
G37*
G04 #@! TD.AperFunction*
G04 #@! TA.AperFunction,Conductor*
G36*
X95101751Y7395322D02*
G01*
X95129579Y7363489D01*
X95189987Y7264912D01*
X95336250Y7096062D01*
X95508126Y6953368D01*
X95569196Y6917682D01*
X95581445Y6910524D01*
X95630169Y6858886D01*
X95643240Y6789103D01*
X95616509Y6723331D01*
X95576055Y6689973D01*
X95563607Y6683493D01*
X95559474Y6680390D01*
X95559471Y6680388D01*
X95389100Y6552470D01*
X95384965Y6549365D01*
X95381393Y6545627D01*
X95273729Y6432963D01*
X95230629Y6387862D01*
X95123201Y6230379D01*
X95068293Y6185379D01*
X94997768Y6177208D01*
X94934021Y6208462D01*
X94913324Y6232946D01*
X94832822Y6357383D01*
X94832820Y6357386D01*
X94830014Y6361723D01*
X94679670Y6526949D01*
X94675619Y6530148D01*
X94675615Y6530152D01*
X94508414Y6662200D01*
X94508410Y6662202D01*
X94504359Y6665402D01*
X94462569Y6688471D01*
X94412598Y6738903D01*
X94397826Y6808346D01*
X94422942Y6874752D01*
X94450294Y6901359D01*
X94625328Y7026208D01*
X94633200Y7032861D01*
X94784052Y7183188D01*
X94790730Y7191035D01*
X94918022Y7368181D01*
X94919279Y7367278D01*
X94966373Y7410638D01*
X95036311Y7422855D01*
X95101751Y7395322D01*
G37*
G04 #@! TD.AperFunction*
M02*
