G04 #@! TF.GenerationSoftware,KiCad,Pcbnew,(6.0.4)*
G04 #@! TF.CreationDate,2022-12-13T21:19:27-06:00*
G04 #@! TF.ProjectId,ctrl_board,6374726c-5f62-46f6-9172-642e6b696361,rev?*
G04 #@! TF.SameCoordinates,Original*
G04 #@! TF.FileFunction,Legend,Bot*
G04 #@! TF.FilePolarity,Positive*
%FSLAX46Y46*%
G04 Gerber Fmt 4.6, Leading zero omitted, Abs format (unit mm)*
G04 Created by KiCad (PCBNEW (6.0.4)) date 2022-12-13 21:19:27*
%MOMM*%
%LPD*%
G01*
G04 APERTURE LIST*
G04 Aperture macros list*
%AMRoundRect*
0 Rectangle with rounded corners*
0 $1 Rounding radius*
0 $2 $3 $4 $5 $6 $7 $8 $9 X,Y pos of 4 corners*
0 Add a 4 corners polygon primitive as box body*
4,1,4,$2,$3,$4,$5,$6,$7,$8,$9,$2,$3,0*
0 Add four circle primitives for the rounded corners*
1,1,$1+$1,$2,$3*
1,1,$1+$1,$4,$5*
1,1,$1+$1,$6,$7*
1,1,$1+$1,$8,$9*
0 Add four rect primitives between the rounded corners*
20,1,$1+$1,$2,$3,$4,$5,0*
20,1,$1+$1,$4,$5,$6,$7,0*
20,1,$1+$1,$6,$7,$8,$9,0*
20,1,$1+$1,$8,$9,$2,$3,0*%
%AMFreePoly0*
4,1,22,0.500000,-0.750000,0.000000,-0.750000,0.000000,-0.745033,-0.079941,-0.743568,-0.215256,-0.701293,-0.333266,-0.622738,-0.424486,-0.514219,-0.481581,-0.384460,-0.499164,-0.250000,-0.500000,-0.250000,-0.500000,0.250000,-0.499164,0.250000,-0.499963,0.256109,-0.478152,0.396186,-0.417904,0.524511,-0.324060,0.630769,-0.204165,0.706417,-0.067858,0.745374,0.000000,0.744959,0.000000,0.750000,
0.500000,0.750000,0.500000,-0.750000,0.500000,-0.750000,$1*%
%AMFreePoly1*
4,1,20,0.000000,0.744959,0.073905,0.744508,0.209726,0.703889,0.328688,0.626782,0.421226,0.519385,0.479903,0.390333,0.500000,0.250000,0.500000,-0.250000,0.499851,-0.262216,0.476331,-0.402017,0.414519,-0.529596,0.319384,-0.634700,0.198574,-0.708877,0.061801,-0.746166,0.000000,-0.745033,0.000000,-0.750000,-0.500000,-0.750000,-0.500000,0.750000,0.000000,0.750000,0.000000,0.744959,
0.000000,0.744959,$1*%
%AMFreePoly2*
4,1,22,0.550000,-0.750000,0.000000,-0.750000,0.000000,-0.745033,-0.079941,-0.743568,-0.215256,-0.701293,-0.333266,-0.622738,-0.424486,-0.514219,-0.481581,-0.384460,-0.499164,-0.250000,-0.500000,-0.250000,-0.500000,0.250000,-0.499164,0.250000,-0.499963,0.256109,-0.478152,0.396186,-0.417904,0.524511,-0.324060,0.630769,-0.204165,0.706417,-0.067858,0.745374,0.000000,0.744959,0.000000,0.750000,
0.550000,0.750000,0.550000,-0.750000,0.550000,-0.750000,$1*%
%AMFreePoly3*
4,1,20,0.000000,0.744959,0.073905,0.744508,0.209726,0.703889,0.328688,0.626782,0.421226,0.519385,0.479903,0.390333,0.500000,0.250000,0.500000,-0.250000,0.499851,-0.262216,0.476331,-0.402017,0.414519,-0.529596,0.319384,-0.634700,0.198574,-0.708877,0.061801,-0.746166,0.000000,-0.745033,0.000000,-0.750000,-0.550000,-0.750000,-0.550000,0.750000,0.000000,0.750000,0.000000,0.744959,
0.000000,0.744959,$1*%
G04 Aperture macros list end*
%ADD10C,0.100000*%
%ADD11C,0.150000*%
%ADD12C,0.350000*%
%ADD13C,0.120000*%
%ADD14C,0.010000*%
%ADD15R,1.700000X1.700000*%
%ADD16O,1.700000X1.700000*%
%ADD17O,6.500000X2.500000*%
%ADD18O,8.500000X2.500000*%
%ADD19O,8.000000X2.500000*%
%ADD20C,2.700000*%
%ADD21C,2.000000*%
%ADD22R,2.000000X2.000000*%
%ADD23R,2.000000X3.200000*%
%ADD24RoundRect,0.250000X-0.262500X-0.450000X0.262500X-0.450000X0.262500X0.450000X-0.262500X0.450000X0*%
%ADD25FreePoly0,90.000000*%
%ADD26FreePoly1,90.000000*%
%ADD27FreePoly2,90.000000*%
%ADD28R,1.500000X1.000000*%
%ADD29FreePoly3,90.000000*%
%ADD30RoundRect,0.250000X-0.450000X0.262500X-0.450000X-0.262500X0.450000X-0.262500X0.450000X0.262500X0*%
%ADD31RoundRect,0.250000X0.450000X-0.262500X0.450000X0.262500X-0.450000X0.262500X-0.450000X-0.262500X0*%
%ADD32RoundRect,0.100000X0.100000X-0.637500X0.100000X0.637500X-0.100000X0.637500X-0.100000X-0.637500X0*%
%ADD33RoundRect,0.250000X0.262500X0.450000X-0.262500X0.450000X-0.262500X-0.450000X0.262500X-0.450000X0*%
%ADD34RoundRect,0.250000X-0.475000X0.250000X-0.475000X-0.250000X0.475000X-0.250000X0.475000X0.250000X0*%
G04 APERTURE END LIST*
D10*
X234426666Y-118455714D02*
X234464761Y-118493809D01*
X234579047Y-118531904D01*
X234655238Y-118531904D01*
X234769523Y-118493809D01*
X234845714Y-118417619D01*
X234883809Y-118341428D01*
X234921904Y-118189047D01*
X234921904Y-118074761D01*
X234883809Y-117922380D01*
X234845714Y-117846190D01*
X234769523Y-117770000D01*
X234655238Y-117731904D01*
X234579047Y-117731904D01*
X234464761Y-117770000D01*
X234426666Y-117808095D01*
X233969523Y-118531904D02*
X234045714Y-118493809D01*
X234083809Y-118455714D01*
X234121904Y-118379523D01*
X234121904Y-118150952D01*
X234083809Y-118074761D01*
X234045714Y-118036666D01*
X233969523Y-117998571D01*
X233855238Y-117998571D01*
X233779047Y-118036666D01*
X233740952Y-118074761D01*
X233702857Y-118150952D01*
X233702857Y-118379523D01*
X233740952Y-118455714D01*
X233779047Y-118493809D01*
X233855238Y-118531904D01*
X233969523Y-118531904D01*
X233360000Y-117998571D02*
X233360000Y-118798571D01*
X233360000Y-118036666D02*
X233283809Y-117998571D01*
X233131428Y-117998571D01*
X233055238Y-118036666D01*
X233017142Y-118074761D01*
X232979047Y-118150952D01*
X232979047Y-118379523D01*
X233017142Y-118455714D01*
X233055238Y-118493809D01*
X233131428Y-118531904D01*
X233283809Y-118531904D01*
X233360000Y-118493809D01*
X232712380Y-117998571D02*
X232521904Y-118531904D01*
X232331428Y-117998571D02*
X232521904Y-118531904D01*
X232598095Y-118722380D01*
X232636190Y-118760476D01*
X232712380Y-118798571D01*
X232026666Y-118531904D02*
X232026666Y-117998571D01*
X232026666Y-118150952D02*
X231988571Y-118074761D01*
X231950476Y-118036666D01*
X231874285Y-117998571D01*
X231798095Y-117998571D01*
X231531428Y-118531904D02*
X231531428Y-117998571D01*
X231531428Y-117731904D02*
X231569523Y-117770000D01*
X231531428Y-117808095D01*
X231493333Y-117770000D01*
X231531428Y-117731904D01*
X231531428Y-117808095D01*
X230807619Y-117998571D02*
X230807619Y-118646190D01*
X230845714Y-118722380D01*
X230883809Y-118760476D01*
X230960000Y-118798571D01*
X231074285Y-118798571D01*
X231150476Y-118760476D01*
X230807619Y-118493809D02*
X230883809Y-118531904D01*
X231036190Y-118531904D01*
X231112380Y-118493809D01*
X231150476Y-118455714D01*
X231188571Y-118379523D01*
X231188571Y-118150952D01*
X231150476Y-118074761D01*
X231112380Y-118036666D01*
X231036190Y-117998571D01*
X230883809Y-117998571D01*
X230807619Y-118036666D01*
X230426666Y-118531904D02*
X230426666Y-117731904D01*
X230083809Y-118531904D02*
X230083809Y-118112857D01*
X230121904Y-118036666D01*
X230198095Y-117998571D01*
X230312380Y-117998571D01*
X230388571Y-118036666D01*
X230426666Y-118074761D01*
X229817142Y-117998571D02*
X229512380Y-117998571D01*
X229702857Y-117731904D02*
X229702857Y-118417619D01*
X229664761Y-118493809D01*
X229588571Y-118531904D01*
X229512380Y-118531904D01*
X228674285Y-117808095D02*
X228636190Y-117770000D01*
X228560000Y-117731904D01*
X228369523Y-117731904D01*
X228293333Y-117770000D01*
X228255238Y-117808095D01*
X228217142Y-117884285D01*
X228217142Y-117960476D01*
X228255238Y-118074761D01*
X228712380Y-118531904D01*
X228217142Y-118531904D01*
X227721904Y-117731904D02*
X227645714Y-117731904D01*
X227569523Y-117770000D01*
X227531428Y-117808095D01*
X227493333Y-117884285D01*
X227455238Y-118036666D01*
X227455238Y-118227142D01*
X227493333Y-118379523D01*
X227531428Y-118455714D01*
X227569523Y-118493809D01*
X227645714Y-118531904D01*
X227721904Y-118531904D01*
X227798095Y-118493809D01*
X227836190Y-118455714D01*
X227874285Y-118379523D01*
X227912380Y-118227142D01*
X227912380Y-118036666D01*
X227874285Y-117884285D01*
X227836190Y-117808095D01*
X227798095Y-117770000D01*
X227721904Y-117731904D01*
X227150476Y-117808095D02*
X227112380Y-117770000D01*
X227036190Y-117731904D01*
X226845714Y-117731904D01*
X226769523Y-117770000D01*
X226731428Y-117808095D01*
X226693333Y-117884285D01*
X226693333Y-117960476D01*
X226731428Y-118074761D01*
X227188571Y-118531904D01*
X226693333Y-118531904D01*
X226388571Y-117808095D02*
X226350476Y-117770000D01*
X226274285Y-117731904D01*
X226083809Y-117731904D01*
X226007619Y-117770000D01*
X225969523Y-117808095D01*
X225931428Y-117884285D01*
X225931428Y-117960476D01*
X225969523Y-118074761D01*
X226426666Y-118531904D01*
X225931428Y-118531904D01*
X224636190Y-118531904D02*
X224636190Y-118112857D01*
X224674285Y-118036666D01*
X224750476Y-117998571D01*
X224902857Y-117998571D01*
X224979047Y-118036666D01*
X224636190Y-118493809D02*
X224712380Y-118531904D01*
X224902857Y-118531904D01*
X224979047Y-118493809D01*
X225017142Y-118417619D01*
X225017142Y-118341428D01*
X224979047Y-118265238D01*
X224902857Y-118227142D01*
X224712380Y-118227142D01*
X224636190Y-118189047D01*
X224255238Y-118531904D02*
X224255238Y-117731904D01*
X224179047Y-118227142D02*
X223950476Y-118531904D01*
X223950476Y-117998571D02*
X224255238Y-118303333D01*
X223264761Y-117998571D02*
X223264761Y-118531904D01*
X223607619Y-117998571D02*
X223607619Y-118417619D01*
X223569523Y-118493809D01*
X223493333Y-118531904D01*
X223379047Y-118531904D01*
X223302857Y-118493809D01*
X223264761Y-118455714D01*
X222883809Y-118531904D02*
X222883809Y-117731904D01*
X222807619Y-118227142D02*
X222579047Y-118531904D01*
X222579047Y-117998571D02*
X222883809Y-118303333D01*
X221931428Y-118493809D02*
X222007619Y-118531904D01*
X222160000Y-118531904D01*
X222236190Y-118493809D01*
X222274285Y-118417619D01*
X222274285Y-118112857D01*
X222236190Y-118036666D01*
X222160000Y-117998571D01*
X222007619Y-117998571D01*
X221931428Y-118036666D01*
X221893333Y-118112857D01*
X221893333Y-118189047D01*
X222274285Y-118265238D01*
X221550476Y-118531904D02*
X221550476Y-117998571D01*
X221550476Y-118150952D02*
X221512380Y-118074761D01*
X221474285Y-118036666D01*
X221398095Y-117998571D01*
X221321904Y-117998571D01*
X201050000Y-102000000D02*
X201016666Y-101933333D01*
X201016666Y-101833333D01*
X201050000Y-101733333D01*
X201116666Y-101666666D01*
X201183333Y-101633333D01*
X201316666Y-101600000D01*
X201416666Y-101600000D01*
X201550000Y-101633333D01*
X201616666Y-101666666D01*
X201683333Y-101733333D01*
X201716666Y-101833333D01*
X201716666Y-101900000D01*
X201683333Y-102000000D01*
X201650000Y-102033333D01*
X201416666Y-102033333D01*
X201416666Y-101900000D01*
X201716666Y-102333333D02*
X201016666Y-102333333D01*
X201016666Y-102600000D01*
X201050000Y-102666666D01*
X201083333Y-102700000D01*
X201150000Y-102733333D01*
X201250000Y-102733333D01*
X201316666Y-102700000D01*
X201350000Y-102666666D01*
X201383333Y-102600000D01*
X201383333Y-102333333D01*
X201716666Y-103066666D02*
X201716666Y-103200000D01*
X201683333Y-103266666D01*
X201650000Y-103300000D01*
X201550000Y-103366666D01*
X201416666Y-103400000D01*
X201150000Y-103400000D01*
X201083333Y-103366666D01*
X201050000Y-103333333D01*
X201016666Y-103266666D01*
X201016666Y-103133333D01*
X201050000Y-103066666D01*
X201083333Y-103033333D01*
X201150000Y-103000000D01*
X201316666Y-103000000D01*
X201383333Y-103033333D01*
X201416666Y-103066666D01*
X201450000Y-103133333D01*
X201450000Y-103266666D01*
X201416666Y-103333333D01*
X201383333Y-103366666D01*
X201316666Y-103400000D01*
D11*
X210400000Y-123393500D02*
X210400000Y-123012500D01*
X210395000Y-118885000D02*
X211493500Y-118885000D01*
X222033000Y-117009000D02*
X222033000Y-110913000D01*
X233336000Y-117453500D02*
X221461500Y-117453500D01*
X221461500Y-117453500D02*
X221461500Y-110341500D01*
X221461500Y-110341500D02*
X233336000Y-110341500D01*
X222033000Y-110913000D02*
X232828000Y-110913000D01*
X232830000Y-110913000D02*
X232830000Y-117009000D01*
X233336000Y-110341500D02*
X233336000Y-117453500D01*
X232828000Y-117009000D02*
X222033000Y-117009000D01*
X222144000Y-118885000D02*
X222144000Y-120599500D01*
X222144000Y-123393500D02*
X210400000Y-123400000D01*
X222144000Y-120599500D02*
X222144000Y-123393500D01*
X211493500Y-118885000D02*
X222144000Y-118885000D01*
X210395000Y-123012500D02*
X210395000Y-120599500D01*
X252900000Y-119800000D02*
X258000000Y-119800000D01*
X258000000Y-119800000D02*
X258000000Y-123500000D01*
X258000000Y-123500000D02*
X252900000Y-123500000D01*
X252900000Y-123500000D02*
X252900000Y-119800000D01*
X242400000Y-119800000D02*
X247600000Y-119800000D01*
X247600000Y-119800000D02*
X247600000Y-123500000D01*
X247600000Y-123500000D02*
X242400000Y-123500000D01*
X242400000Y-123500000D02*
X242400000Y-119800000D01*
X210395000Y-120599500D02*
X210395000Y-118885000D01*
X247600000Y-123500000D02*
X252900000Y-123500000D01*
X252900000Y-123500000D02*
X252900000Y-119800000D01*
X252900000Y-119800000D02*
X247600000Y-119800000D01*
X247600000Y-119800000D02*
X247600000Y-123500000D01*
D10*
X201077166Y-109185500D02*
X201077166Y-109618833D01*
X201343833Y-109385500D01*
X201343833Y-109485500D01*
X201377166Y-109552166D01*
X201410500Y-109585500D01*
X201477166Y-109618833D01*
X201643833Y-109618833D01*
X201710500Y-109585500D01*
X201743833Y-109552166D01*
X201777166Y-109485500D01*
X201777166Y-109285500D01*
X201743833Y-109218833D01*
X201710500Y-109185500D01*
X201710500Y-109918833D02*
X201743833Y-109952166D01*
X201777166Y-109918833D01*
X201743833Y-109885500D01*
X201710500Y-109918833D01*
X201777166Y-109918833D01*
X201077166Y-110185500D02*
X201077166Y-110618833D01*
X201343833Y-110385500D01*
X201343833Y-110485500D01*
X201377166Y-110552166D01*
X201410500Y-110585500D01*
X201477166Y-110618833D01*
X201643833Y-110618833D01*
X201710500Y-110585500D01*
X201743833Y-110552166D01*
X201777166Y-110485500D01*
X201777166Y-110285500D01*
X201743833Y-110218833D01*
X201710500Y-110185500D01*
X201310500Y-110852166D02*
X201777166Y-111018833D01*
X201310500Y-111185500D01*
X201016666Y-115400000D02*
X201016666Y-115066666D01*
X201350000Y-115033333D01*
X201316666Y-115066666D01*
X201283333Y-115133333D01*
X201283333Y-115300000D01*
X201316666Y-115366666D01*
X201350000Y-115400000D01*
X201416666Y-115433333D01*
X201583333Y-115433333D01*
X201650000Y-115400000D01*
X201683333Y-115366666D01*
X201716666Y-115300000D01*
X201716666Y-115133333D01*
X201683333Y-115066666D01*
X201650000Y-115033333D01*
X201250000Y-115666666D02*
X201716666Y-115833333D01*
X201250000Y-116000000D01*
X201050000Y-112366666D02*
X201016666Y-112300000D01*
X201016666Y-112200000D01*
X201050000Y-112100000D01*
X201116666Y-112033333D01*
X201183333Y-112000000D01*
X201316666Y-111966666D01*
X201416666Y-111966666D01*
X201550000Y-112000000D01*
X201616666Y-112033333D01*
X201683333Y-112100000D01*
X201716666Y-112200000D01*
X201716666Y-112266666D01*
X201683333Y-112366666D01*
X201650000Y-112400000D01*
X201416666Y-112400000D01*
X201416666Y-112266666D01*
X201716666Y-112700000D02*
X201016666Y-112700000D01*
X201716666Y-113100000D01*
X201016666Y-113100000D01*
X201716666Y-113433333D02*
X201016666Y-113433333D01*
X201016666Y-113600000D01*
X201050000Y-113700000D01*
X201116666Y-113766666D01*
X201183333Y-113800000D01*
X201316666Y-113833333D01*
X201416666Y-113833333D01*
X201550000Y-113800000D01*
X201616666Y-113766666D01*
X201683333Y-113700000D01*
X201716666Y-113600000D01*
X201716666Y-113433333D01*
X201783333Y-104250000D02*
X201816666Y-104350000D01*
X201816666Y-104516666D01*
X201783333Y-104583333D01*
X201750000Y-104616666D01*
X201683333Y-104650000D01*
X201616666Y-104650000D01*
X201550000Y-104616666D01*
X201516666Y-104583333D01*
X201483333Y-104516666D01*
X201450000Y-104383333D01*
X201416666Y-104316666D01*
X201383333Y-104283333D01*
X201316666Y-104250000D01*
X201250000Y-104250000D01*
X201183333Y-104283333D01*
X201150000Y-104316666D01*
X201116666Y-104383333D01*
X201116666Y-104550000D01*
X201150000Y-104650000D01*
X201816666Y-104950000D02*
X201116666Y-104950000D01*
X201116666Y-105116666D01*
X201150000Y-105216666D01*
X201216666Y-105283333D01*
X201283333Y-105316666D01*
X201416666Y-105350000D01*
X201516666Y-105350000D01*
X201650000Y-105316666D01*
X201716666Y-105283333D01*
X201783333Y-105216666D01*
X201816666Y-105116666D01*
X201816666Y-104950000D01*
X201616666Y-105616666D02*
X201616666Y-105950000D01*
X201816666Y-105550000D02*
X201116666Y-105783333D01*
X201816666Y-106016666D01*
X201783333Y-106866666D02*
X201816666Y-106966666D01*
X201816666Y-107133333D01*
X201783333Y-107200000D01*
X201750000Y-107233333D01*
X201683333Y-107266666D01*
X201616666Y-107266666D01*
X201550000Y-107233333D01*
X201516666Y-107200000D01*
X201483333Y-107133333D01*
X201450000Y-107000000D01*
X201416666Y-106933333D01*
X201383333Y-106900000D01*
X201316666Y-106866666D01*
X201250000Y-106866666D01*
X201183333Y-106900000D01*
X201150000Y-106933333D01*
X201116666Y-107000000D01*
X201116666Y-107166666D01*
X201150000Y-107266666D01*
X201750000Y-107966666D02*
X201783333Y-107933333D01*
X201816666Y-107833333D01*
X201816666Y-107766666D01*
X201783333Y-107666666D01*
X201716666Y-107600000D01*
X201650000Y-107566666D01*
X201516666Y-107533333D01*
X201416666Y-107533333D01*
X201283333Y-107566666D01*
X201216666Y-107600000D01*
X201150000Y-107666666D01*
X201116666Y-107766666D01*
X201116666Y-107833333D01*
X201150000Y-107933333D01*
X201183333Y-107966666D01*
X201816666Y-108600000D02*
X201816666Y-108266666D01*
X201116666Y-108266666D01*
X221633333Y-121994166D02*
X221400000Y-122694166D01*
X221166666Y-121994166D01*
X220633333Y-122660833D02*
X220700000Y-122694166D01*
X220833333Y-122694166D01*
X220900000Y-122660833D01*
X220933333Y-122627500D01*
X220966666Y-122560833D01*
X220966666Y-122360833D01*
X220933333Y-122294166D01*
X220900000Y-122260833D01*
X220833333Y-122227500D01*
X220700000Y-122227500D01*
X220633333Y-122260833D01*
X220033333Y-122660833D02*
X220100000Y-122694166D01*
X220233333Y-122694166D01*
X220300000Y-122660833D01*
X220333333Y-122627500D01*
X220366666Y-122560833D01*
X220366666Y-122360833D01*
X220333333Y-122294166D01*
X220300000Y-122260833D01*
X220233333Y-122227500D01*
X220100000Y-122227500D01*
X220033333Y-122260833D01*
X221533333Y-119614500D02*
X221600000Y-119581166D01*
X221700000Y-119581166D01*
X221800000Y-119614500D01*
X221866666Y-119681166D01*
X221900000Y-119747833D01*
X221933333Y-119881166D01*
X221933333Y-119981166D01*
X221900000Y-120114500D01*
X221866666Y-120181166D01*
X221800000Y-120247833D01*
X221700000Y-120281166D01*
X221633333Y-120281166D01*
X221533333Y-120247833D01*
X221500000Y-120214500D01*
X221500000Y-119981166D01*
X221633333Y-119981166D01*
X221200000Y-120281166D02*
X221200000Y-119581166D01*
X220800000Y-120281166D01*
X220800000Y-119581166D01*
X220466666Y-120281166D02*
X220466666Y-119581166D01*
X220300000Y-119581166D01*
X220200000Y-119614500D01*
X220133333Y-119681166D01*
X220100000Y-119747833D01*
X220066666Y-119881166D01*
X220066666Y-119981166D01*
X220100000Y-120114500D01*
X220133333Y-120181166D01*
X220200000Y-120247833D01*
X220300000Y-120281166D01*
X220466666Y-120281166D01*
X209005166Y-119724833D02*
X208305166Y-119724833D01*
X208305166Y-120191500D02*
X208305166Y-120324833D01*
X208338500Y-120391500D01*
X208405166Y-120458166D01*
X208538500Y-120491500D01*
X208771833Y-120491500D01*
X208905166Y-120458166D01*
X208971833Y-120391500D01*
X209005166Y-120324833D01*
X209005166Y-120191500D01*
X208971833Y-120124833D01*
X208905166Y-120058166D01*
X208771833Y-120024833D01*
X208538500Y-120024833D01*
X208405166Y-120058166D01*
X208338500Y-120124833D01*
X208305166Y-120191500D01*
X209932166Y-119074833D02*
X209932166Y-119408166D01*
X210132166Y-119008166D02*
X209432166Y-119241500D01*
X210132166Y-119474833D01*
X210132166Y-120008166D02*
X209432166Y-120008166D01*
X210098833Y-120008166D02*
X210132166Y-119941500D01*
X210132166Y-119808166D01*
X210098833Y-119741500D01*
X210065500Y-119708166D01*
X209998833Y-119674833D01*
X209798833Y-119674833D01*
X209732166Y-119708166D01*
X209698833Y-119741500D01*
X209665500Y-119808166D01*
X209665500Y-119941500D01*
X209698833Y-120008166D01*
X210132166Y-120641500D02*
X209432166Y-120641500D01*
X210098833Y-120641500D02*
X210132166Y-120574833D01*
X210132166Y-120441500D01*
X210098833Y-120374833D01*
X210065500Y-120341500D01*
X209998833Y-120308166D01*
X209798833Y-120308166D01*
X209732166Y-120341500D01*
X209698833Y-120374833D01*
X209665500Y-120441500D01*
X209665500Y-120574833D01*
X209698833Y-120641500D01*
X210132166Y-120974833D02*
X209665500Y-120974833D01*
X209798833Y-120974833D02*
X209732166Y-121008166D01*
X209698833Y-121041500D01*
X209665500Y-121108166D01*
X209665500Y-121174833D01*
X230846380Y-115554904D02*
X230579714Y-116354904D01*
X230313047Y-115554904D01*
X229741619Y-116316809D02*
X229817809Y-116354904D01*
X229970190Y-116354904D01*
X230046380Y-116316809D01*
X230084476Y-116240619D01*
X230084476Y-115935857D01*
X230046380Y-115859666D01*
X229970190Y-115821571D01*
X229817809Y-115821571D01*
X229741619Y-115859666D01*
X229703523Y-115935857D01*
X229703523Y-116012047D01*
X230084476Y-116088238D01*
X229360666Y-116354904D02*
X229360666Y-115821571D01*
X229360666Y-115973952D02*
X229322571Y-115897761D01*
X229284476Y-115859666D01*
X229208285Y-115821571D01*
X229132095Y-115821571D01*
X228903523Y-116316809D02*
X228827333Y-116354904D01*
X228674952Y-116354904D01*
X228598761Y-116316809D01*
X228560666Y-116240619D01*
X228560666Y-116202523D01*
X228598761Y-116126333D01*
X228674952Y-116088238D01*
X228789238Y-116088238D01*
X228865428Y-116050142D01*
X228903523Y-115973952D01*
X228903523Y-115935857D01*
X228865428Y-115859666D01*
X228789238Y-115821571D01*
X228674952Y-115821571D01*
X228598761Y-115859666D01*
X228217809Y-116354904D02*
X228217809Y-115821571D01*
X228217809Y-115554904D02*
X228255904Y-115593000D01*
X228217809Y-115631095D01*
X228179714Y-115593000D01*
X228217809Y-115554904D01*
X228217809Y-115631095D01*
X227722571Y-116354904D02*
X227798761Y-116316809D01*
X227836857Y-116278714D01*
X227874952Y-116202523D01*
X227874952Y-115973952D01*
X227836857Y-115897761D01*
X227798761Y-115859666D01*
X227722571Y-115821571D01*
X227608285Y-115821571D01*
X227532095Y-115859666D01*
X227494000Y-115897761D01*
X227455904Y-115973952D01*
X227455904Y-116202523D01*
X227494000Y-116278714D01*
X227532095Y-116316809D01*
X227608285Y-116354904D01*
X227722571Y-116354904D01*
X227113047Y-115821571D02*
X227113047Y-116354904D01*
X227113047Y-115897761D02*
X227074952Y-115859666D01*
X226998761Y-115821571D01*
X226884476Y-115821571D01*
X226808285Y-115859666D01*
X226770190Y-115935857D01*
X226770190Y-116354904D01*
X225360666Y-116354904D02*
X225817809Y-116354904D01*
X225589238Y-116354904D02*
X225589238Y-115554904D01*
X225665428Y-115669190D01*
X225741619Y-115745380D01*
X225817809Y-115783476D01*
X225017809Y-116278714D02*
X224979714Y-116316809D01*
X225017809Y-116354904D01*
X225055904Y-116316809D01*
X225017809Y-116278714D01*
X225017809Y-116354904D01*
X224294000Y-115554904D02*
X224446380Y-115554904D01*
X224522571Y-115593000D01*
X224560666Y-115631095D01*
X224636857Y-115745380D01*
X224674952Y-115897761D01*
X224674952Y-116202523D01*
X224636857Y-116278714D01*
X224598761Y-116316809D01*
X224522571Y-116354904D01*
X224370190Y-116354904D01*
X224294000Y-116316809D01*
X224255904Y-116278714D01*
X224217809Y-116202523D01*
X224217809Y-116012047D01*
X224255904Y-115935857D01*
X224294000Y-115897761D01*
X224370190Y-115859666D01*
X224522571Y-115859666D01*
X224598761Y-115897761D01*
X224636857Y-115935857D01*
X224674952Y-116012047D01*
D11*
X231946380Y-114635642D02*
X231994000Y-114683261D01*
X232136857Y-114730880D01*
X232232095Y-114730880D01*
X232374952Y-114683261D01*
X232470190Y-114588023D01*
X232517809Y-114492785D01*
X232565428Y-114302309D01*
X232565428Y-114159452D01*
X232517809Y-113968976D01*
X232470190Y-113873738D01*
X232374952Y-113778500D01*
X232232095Y-113730880D01*
X232136857Y-113730880D01*
X231994000Y-113778500D01*
X231946380Y-113826119D01*
X231374952Y-114730880D02*
X231470190Y-114683261D01*
X231517809Y-114635642D01*
X231565428Y-114540404D01*
X231565428Y-114254690D01*
X231517809Y-114159452D01*
X231470190Y-114111833D01*
X231374952Y-114064214D01*
X231232095Y-114064214D01*
X231136857Y-114111833D01*
X231089238Y-114159452D01*
X231041619Y-114254690D01*
X231041619Y-114540404D01*
X231089238Y-114635642D01*
X231136857Y-114683261D01*
X231232095Y-114730880D01*
X231374952Y-114730880D01*
X230613047Y-114064214D02*
X230613047Y-114730880D01*
X230613047Y-114159452D02*
X230565428Y-114111833D01*
X230470190Y-114064214D01*
X230327333Y-114064214D01*
X230232095Y-114111833D01*
X230184476Y-114207071D01*
X230184476Y-114730880D01*
X229851142Y-114064214D02*
X229470190Y-114064214D01*
X229708285Y-113730880D02*
X229708285Y-114588023D01*
X229660666Y-114683261D01*
X229565428Y-114730880D01*
X229470190Y-114730880D01*
X229136857Y-114730880D02*
X229136857Y-114064214D01*
X229136857Y-114254690D02*
X229089238Y-114159452D01*
X229041619Y-114111833D01*
X228946380Y-114064214D01*
X228851142Y-114064214D01*
X228374952Y-114730880D02*
X228470190Y-114683261D01*
X228517809Y-114635642D01*
X228565428Y-114540404D01*
X228565428Y-114254690D01*
X228517809Y-114159452D01*
X228470190Y-114111833D01*
X228374952Y-114064214D01*
X228232095Y-114064214D01*
X228136857Y-114111833D01*
X228089238Y-114159452D01*
X228041619Y-114254690D01*
X228041619Y-114540404D01*
X228089238Y-114635642D01*
X228136857Y-114683261D01*
X228232095Y-114730880D01*
X228374952Y-114730880D01*
X227470190Y-114730880D02*
X227565428Y-114683261D01*
X227613047Y-114588023D01*
X227613047Y-113730880D01*
X225994000Y-114207071D02*
X225851142Y-114254690D01*
X225803523Y-114302309D01*
X225755904Y-114397547D01*
X225755904Y-114540404D01*
X225803523Y-114635642D01*
X225851142Y-114683261D01*
X225946380Y-114730880D01*
X226327333Y-114730880D01*
X226327333Y-113730880D01*
X225994000Y-113730880D01*
X225898761Y-113778500D01*
X225851142Y-113826119D01*
X225803523Y-113921357D01*
X225803523Y-114016595D01*
X225851142Y-114111833D01*
X225898761Y-114159452D01*
X225994000Y-114207071D01*
X226327333Y-114207071D01*
X225184476Y-114730880D02*
X225279714Y-114683261D01*
X225327333Y-114635642D01*
X225374952Y-114540404D01*
X225374952Y-114254690D01*
X225327333Y-114159452D01*
X225279714Y-114111833D01*
X225184476Y-114064214D01*
X225041619Y-114064214D01*
X224946380Y-114111833D01*
X224898761Y-114159452D01*
X224851142Y-114254690D01*
X224851142Y-114540404D01*
X224898761Y-114635642D01*
X224946380Y-114683261D01*
X225041619Y-114730880D01*
X225184476Y-114730880D01*
X223994000Y-114730880D02*
X223994000Y-114207071D01*
X224041619Y-114111833D01*
X224136857Y-114064214D01*
X224327333Y-114064214D01*
X224422571Y-114111833D01*
X223994000Y-114683261D02*
X224089238Y-114730880D01*
X224327333Y-114730880D01*
X224422571Y-114683261D01*
X224470190Y-114588023D01*
X224470190Y-114492785D01*
X224422571Y-114397547D01*
X224327333Y-114349928D01*
X224089238Y-114349928D01*
X223994000Y-114302309D01*
X223517809Y-114730880D02*
X223517809Y-114064214D01*
X223517809Y-114254690D02*
X223470190Y-114159452D01*
X223422571Y-114111833D01*
X223327333Y-114064214D01*
X223232095Y-114064214D01*
X222470190Y-114730880D02*
X222470190Y-113730880D01*
X222470190Y-114683261D02*
X222565428Y-114730880D01*
X222755904Y-114730880D01*
X222851142Y-114683261D01*
X222898761Y-114635642D01*
X222946380Y-114540404D01*
X222946380Y-114254690D01*
X222898761Y-114159452D01*
X222851142Y-114111833D01*
X222755904Y-114064214D01*
X222565428Y-114064214D01*
X222470190Y-114111833D01*
D12*
X230858223Y-112988571D02*
X230670723Y-111488571D01*
X230099294Y-111488571D01*
X229965366Y-111560000D01*
X229902866Y-111631428D01*
X229849294Y-111774285D01*
X229876080Y-111988571D01*
X229965366Y-112131428D01*
X230045723Y-112202857D01*
X230197508Y-112274285D01*
X230768937Y-112274285D01*
X229358223Y-112988571D02*
X229233223Y-111988571D01*
X229170723Y-111488571D02*
X229251080Y-111560000D01*
X229188580Y-111631428D01*
X229108223Y-111560000D01*
X229170723Y-111488571D01*
X229188580Y-111631428D01*
X228706437Y-112917142D02*
X228501080Y-112988571D01*
X228143937Y-112988571D01*
X227992151Y-112917142D01*
X227911794Y-112845714D01*
X227822508Y-112702857D01*
X227804651Y-112560000D01*
X227858223Y-112417142D01*
X227920723Y-112345714D01*
X228054651Y-112274285D01*
X228331437Y-112202857D01*
X228465366Y-112131428D01*
X228527866Y-112060000D01*
X228581437Y-111917142D01*
X228563580Y-111774285D01*
X228474294Y-111631428D01*
X228393937Y-111560000D01*
X228242151Y-111488571D01*
X227885008Y-111488571D01*
X227679651Y-111560000D01*
X226340366Y-112845714D02*
X226420723Y-112917142D01*
X226643937Y-112988571D01*
X226786794Y-112988571D01*
X226992151Y-112917142D01*
X227117151Y-112774285D01*
X227170723Y-112631428D01*
X227206437Y-112345714D01*
X227179651Y-112131428D01*
X227072508Y-111845714D01*
X226983223Y-111702857D01*
X226822508Y-111560000D01*
X226599294Y-111488571D01*
X226456437Y-111488571D01*
X226251080Y-111560000D01*
X226188580Y-111631428D01*
X225777866Y-112917142D02*
X225572508Y-112988571D01*
X225215366Y-112988571D01*
X225063580Y-112917142D01*
X224983223Y-112845714D01*
X224893937Y-112702857D01*
X224876080Y-112560000D01*
X224929651Y-112417142D01*
X224992151Y-112345714D01*
X225126080Y-112274285D01*
X225402866Y-112202857D01*
X225536794Y-112131428D01*
X225599294Y-112060000D01*
X225652866Y-111917142D01*
X225635008Y-111774285D01*
X225545723Y-111631428D01*
X225465366Y-111560000D01*
X225313580Y-111488571D01*
X224956437Y-111488571D01*
X224751080Y-111560000D01*
X224286794Y-112988571D02*
X224099294Y-111488571D01*
D10*
X255083333Y-120916666D02*
X255416666Y-120916666D01*
X255416666Y-120216666D01*
X254850000Y-120550000D02*
X254616666Y-120550000D01*
X254516666Y-120916666D02*
X254850000Y-120916666D01*
X254850000Y-120216666D01*
X254516666Y-120216666D01*
X254216666Y-120916666D02*
X254216666Y-120216666D01*
X254050000Y-120216666D01*
X253950000Y-120250000D01*
X253883333Y-120316666D01*
X253850000Y-120383333D01*
X253816666Y-120516666D01*
X253816666Y-120616666D01*
X253850000Y-120750000D01*
X253883333Y-120816666D01*
X253950000Y-120883333D01*
X254050000Y-120916666D01*
X254216666Y-120916666D01*
X253550000Y-120283333D02*
X253516666Y-120250000D01*
X253450000Y-120216666D01*
X253283333Y-120216666D01*
X253216666Y-120250000D01*
X253183333Y-120283333D01*
X253150000Y-120350000D01*
X253150000Y-120416666D01*
X253183333Y-120516666D01*
X253583333Y-120916666D01*
X253150000Y-120916666D01*
X214231166Y-120861500D02*
X214231166Y-121194833D01*
X214431166Y-120794833D02*
X213731166Y-121028166D01*
X214431166Y-121261500D01*
X214431166Y-121861500D02*
X214431166Y-121461500D01*
X214431166Y-121661500D02*
X213731166Y-121661500D01*
X213831166Y-121594833D01*
X213897833Y-121528166D01*
X213931166Y-121461500D01*
D11*
X264103809Y-104872380D02*
X264103809Y-103872380D01*
X263675238Y-104872380D02*
X263675238Y-104348571D01*
X263722857Y-104253333D01*
X263818095Y-104205714D01*
X263960952Y-104205714D01*
X264056190Y-104253333D01*
X264103809Y-104300952D01*
X263341904Y-104205714D02*
X262960952Y-104205714D01*
X263199047Y-103872380D02*
X263199047Y-104729523D01*
X263151428Y-104824761D01*
X263056190Y-104872380D01*
X262960952Y-104872380D01*
X262770476Y-104205714D02*
X262389523Y-104205714D01*
X262627619Y-103872380D02*
X262627619Y-104729523D01*
X262580000Y-104824761D01*
X262484761Y-104872380D01*
X262389523Y-104872380D01*
X262056190Y-104205714D02*
X262056190Y-105205714D01*
X262056190Y-104253333D02*
X261960952Y-104205714D01*
X261770476Y-104205714D01*
X261675238Y-104253333D01*
X261627619Y-104300952D01*
X261580000Y-104396190D01*
X261580000Y-104681904D01*
X261627619Y-104777142D01*
X261675238Y-104824761D01*
X261770476Y-104872380D01*
X261960952Y-104872380D01*
X262056190Y-104824761D01*
X261199047Y-104824761D02*
X261103809Y-104872380D01*
X260913333Y-104872380D01*
X260818095Y-104824761D01*
X260770476Y-104729523D01*
X260770476Y-104681904D01*
X260818095Y-104586666D01*
X260913333Y-104539047D01*
X261056190Y-104539047D01*
X261151428Y-104491428D01*
X261199047Y-104396190D01*
X261199047Y-104348571D01*
X261151428Y-104253333D01*
X261056190Y-104205714D01*
X260913333Y-104205714D01*
X260818095Y-104253333D01*
X260341904Y-104777142D02*
X260294285Y-104824761D01*
X260341904Y-104872380D01*
X260389523Y-104824761D01*
X260341904Y-104777142D01*
X260341904Y-104872380D01*
X260341904Y-104253333D02*
X260294285Y-104300952D01*
X260341904Y-104348571D01*
X260389523Y-104300952D01*
X260341904Y-104253333D01*
X260341904Y-104348571D01*
X259151428Y-103824761D02*
X260008571Y-105110476D01*
X258103809Y-103824761D02*
X258960952Y-105110476D01*
X257341904Y-104205714D02*
X257341904Y-105015238D01*
X257389523Y-105110476D01*
X257437142Y-105158095D01*
X257532380Y-105205714D01*
X257675238Y-105205714D01*
X257770476Y-105158095D01*
X257341904Y-104824761D02*
X257437142Y-104872380D01*
X257627619Y-104872380D01*
X257722857Y-104824761D01*
X257770476Y-104777142D01*
X257818095Y-104681904D01*
X257818095Y-104396190D01*
X257770476Y-104300952D01*
X257722857Y-104253333D01*
X257627619Y-104205714D01*
X257437142Y-104205714D01*
X257341904Y-104253333D01*
X256865714Y-104872380D02*
X256865714Y-104205714D01*
X256865714Y-103872380D02*
X256913333Y-103920000D01*
X256865714Y-103967619D01*
X256818095Y-103920000D01*
X256865714Y-103872380D01*
X256865714Y-103967619D01*
X256532380Y-104205714D02*
X256151428Y-104205714D01*
X256389523Y-103872380D02*
X256389523Y-104729523D01*
X256341904Y-104824761D01*
X256246666Y-104872380D01*
X256151428Y-104872380D01*
X255818095Y-104872380D02*
X255818095Y-103872380D01*
X255389523Y-104872380D02*
X255389523Y-104348571D01*
X255437142Y-104253333D01*
X255532380Y-104205714D01*
X255675238Y-104205714D01*
X255770476Y-104253333D01*
X255818095Y-104300952D01*
X254484761Y-104205714D02*
X254484761Y-104872380D01*
X254913333Y-104205714D02*
X254913333Y-104729523D01*
X254865714Y-104824761D01*
X254770476Y-104872380D01*
X254627619Y-104872380D01*
X254532380Y-104824761D01*
X254484761Y-104777142D01*
X254008571Y-104872380D02*
X254008571Y-103872380D01*
X254008571Y-104253333D02*
X253913333Y-104205714D01*
X253722857Y-104205714D01*
X253627619Y-104253333D01*
X253580000Y-104300952D01*
X253532380Y-104396190D01*
X253532380Y-104681904D01*
X253580000Y-104777142D01*
X253627619Y-104824761D01*
X253722857Y-104872380D01*
X253913333Y-104872380D01*
X254008571Y-104824761D01*
X253103809Y-104777142D02*
X253056190Y-104824761D01*
X253103809Y-104872380D01*
X253151428Y-104824761D01*
X253103809Y-104777142D01*
X253103809Y-104872380D01*
X252199047Y-104824761D02*
X252294285Y-104872380D01*
X252484761Y-104872380D01*
X252580000Y-104824761D01*
X252627619Y-104777142D01*
X252675238Y-104681904D01*
X252675238Y-104396190D01*
X252627619Y-104300952D01*
X252580000Y-104253333D01*
X252484761Y-104205714D01*
X252294285Y-104205714D01*
X252199047Y-104253333D01*
X251627619Y-104872380D02*
X251722857Y-104824761D01*
X251770476Y-104777142D01*
X251818095Y-104681904D01*
X251818095Y-104396190D01*
X251770476Y-104300952D01*
X251722857Y-104253333D01*
X251627619Y-104205714D01*
X251484761Y-104205714D01*
X251389523Y-104253333D01*
X251341904Y-104300952D01*
X251294285Y-104396190D01*
X251294285Y-104681904D01*
X251341904Y-104777142D01*
X251389523Y-104824761D01*
X251484761Y-104872380D01*
X251627619Y-104872380D01*
X250865714Y-104872380D02*
X250865714Y-104205714D01*
X250865714Y-104300952D02*
X250818095Y-104253333D01*
X250722857Y-104205714D01*
X250580000Y-104205714D01*
X250484761Y-104253333D01*
X250437142Y-104348571D01*
X250437142Y-104872380D01*
X250437142Y-104348571D02*
X250389523Y-104253333D01*
X250294285Y-104205714D01*
X250151428Y-104205714D01*
X250056190Y-104253333D01*
X250008571Y-104348571D01*
X250008571Y-104872380D01*
X248818095Y-103824761D02*
X249675238Y-105110476D01*
X248484761Y-104205714D02*
X248484761Y-105205714D01*
X248484761Y-104253333D02*
X248389523Y-104205714D01*
X248199047Y-104205714D01*
X248103809Y-104253333D01*
X248056190Y-104300952D01*
X248008571Y-104396190D01*
X248008571Y-104681904D01*
X248056190Y-104777142D01*
X248103809Y-104824761D01*
X248199047Y-104872380D01*
X248389523Y-104872380D01*
X248484761Y-104824761D01*
X247580000Y-104872380D02*
X247580000Y-104205714D01*
X247580000Y-103872380D02*
X247627619Y-103920000D01*
X247580000Y-103967619D01*
X247532380Y-103920000D01*
X247580000Y-103872380D01*
X247580000Y-103967619D01*
X247151428Y-104824761D02*
X247056190Y-104872380D01*
X246865714Y-104872380D01*
X246770476Y-104824761D01*
X246722857Y-104729523D01*
X246722857Y-104681904D01*
X246770476Y-104586666D01*
X246865714Y-104539047D01*
X247008571Y-104539047D01*
X247103809Y-104491428D01*
X247151428Y-104396190D01*
X247151428Y-104348571D01*
X247103809Y-104253333D01*
X247008571Y-104205714D01*
X246865714Y-104205714D01*
X246770476Y-104253333D01*
X245865714Y-104824761D02*
X245960952Y-104872380D01*
X246151428Y-104872380D01*
X246246666Y-104824761D01*
X246294285Y-104777142D01*
X246341904Y-104681904D01*
X246341904Y-104396190D01*
X246294285Y-104300952D01*
X246246666Y-104253333D01*
X246151428Y-104205714D01*
X245960952Y-104205714D01*
X245865714Y-104253333D01*
X245484761Y-104824761D02*
X245389523Y-104872380D01*
X245199047Y-104872380D01*
X245103809Y-104824761D01*
X245056190Y-104729523D01*
X245056190Y-104681904D01*
X245103809Y-104586666D01*
X245199047Y-104539047D01*
X245341904Y-104539047D01*
X245437142Y-104491428D01*
X245484761Y-104396190D01*
X245484761Y-104348571D01*
X245437142Y-104253333D01*
X245341904Y-104205714D01*
X245199047Y-104205714D01*
X245103809Y-104253333D01*
X244627619Y-104872380D02*
X244627619Y-104205714D01*
X244627619Y-103872380D02*
X244675238Y-103920000D01*
X244627619Y-103967619D01*
X244580000Y-103920000D01*
X244627619Y-103872380D01*
X244627619Y-103967619D01*
X243437142Y-103824761D02*
X244294285Y-105110476D01*
X243103809Y-104205714D02*
X243103809Y-105205714D01*
X243103809Y-104253333D02*
X243008571Y-104205714D01*
X242818095Y-104205714D01*
X242722857Y-104253333D01*
X242675238Y-104300952D01*
X242627619Y-104396190D01*
X242627619Y-104681904D01*
X242675238Y-104777142D01*
X242722857Y-104824761D01*
X242818095Y-104872380D01*
X243008571Y-104872380D01*
X243103809Y-104824761D01*
X242199047Y-104872380D02*
X242199047Y-104205714D01*
X242199047Y-103872380D02*
X242246666Y-103920000D01*
X242199047Y-103967619D01*
X242151428Y-103920000D01*
X242199047Y-103872380D01*
X242199047Y-103967619D01*
X241770476Y-104824761D02*
X241675238Y-104872380D01*
X241484761Y-104872380D01*
X241389523Y-104824761D01*
X241341904Y-104729523D01*
X241341904Y-104681904D01*
X241389523Y-104586666D01*
X241484761Y-104539047D01*
X241627619Y-104539047D01*
X241722857Y-104491428D01*
X241770476Y-104396190D01*
X241770476Y-104348571D01*
X241722857Y-104253333D01*
X241627619Y-104205714D01*
X241484761Y-104205714D01*
X241389523Y-104253333D01*
X240484761Y-104824761D02*
X240580000Y-104872380D01*
X240770476Y-104872380D01*
X240865714Y-104824761D01*
X240913333Y-104777142D01*
X240960952Y-104681904D01*
X240960952Y-104396190D01*
X240913333Y-104300952D01*
X240865714Y-104253333D01*
X240770476Y-104205714D01*
X240580000Y-104205714D01*
X240484761Y-104253333D01*
X240103809Y-104824761D02*
X240008571Y-104872380D01*
X239818095Y-104872380D01*
X239722857Y-104824761D01*
X239675238Y-104729523D01*
X239675238Y-104681904D01*
X239722857Y-104586666D01*
X239818095Y-104539047D01*
X239960952Y-104539047D01*
X240056190Y-104491428D01*
X240103809Y-104396190D01*
X240103809Y-104348571D01*
X240056190Y-104253333D01*
X239960952Y-104205714D01*
X239818095Y-104205714D01*
X239722857Y-104253333D01*
X239246666Y-104872380D02*
X239246666Y-104205714D01*
X239246666Y-103872380D02*
X239294285Y-103920000D01*
X239246666Y-103967619D01*
X239199047Y-103920000D01*
X239246666Y-103872380D01*
X239246666Y-103967619D01*
X238770476Y-104491428D02*
X238008571Y-104491428D01*
X237532380Y-104872380D02*
X237532380Y-103872380D01*
X237103809Y-104872380D02*
X237103809Y-104348571D01*
X237151428Y-104253333D01*
X237246666Y-104205714D01*
X237389523Y-104205714D01*
X237484761Y-104253333D01*
X237532380Y-104300952D01*
X236722857Y-104205714D02*
X236532380Y-104872380D01*
X236341904Y-104396190D01*
X236151428Y-104872380D01*
X235960952Y-104205714D01*
D10*
X244816666Y-120450000D02*
X244716666Y-120483333D01*
X244683333Y-120516666D01*
X244650000Y-120583333D01*
X244650000Y-120683333D01*
X244683333Y-120750000D01*
X244716666Y-120783333D01*
X244783333Y-120816666D01*
X245050000Y-120816666D01*
X245050000Y-120116666D01*
X244816666Y-120116666D01*
X244750000Y-120150000D01*
X244716666Y-120183333D01*
X244683333Y-120250000D01*
X244683333Y-120316666D01*
X244716666Y-120383333D01*
X244750000Y-120416666D01*
X244816666Y-120450000D01*
X245050000Y-120450000D01*
X244450000Y-120116666D02*
X244050000Y-120116666D01*
X244250000Y-120816666D02*
X244250000Y-120116666D01*
X243816666Y-120816666D02*
X243816666Y-120116666D01*
X243416666Y-120816666D01*
X243416666Y-120116666D01*
X243150000Y-120116666D02*
X242716666Y-120116666D01*
X242950000Y-120383333D01*
X242850000Y-120383333D01*
X242783333Y-120416666D01*
X242750000Y-120450000D01*
X242716666Y-120516666D01*
X242716666Y-120683333D01*
X242750000Y-120750000D01*
X242783333Y-120783333D01*
X242850000Y-120816666D01*
X243050000Y-120816666D01*
X243116666Y-120783333D01*
X243150000Y-120750000D01*
X249883333Y-120916666D02*
X250216666Y-120916666D01*
X250216666Y-120216666D01*
X249650000Y-120550000D02*
X249416666Y-120550000D01*
X249316666Y-120916666D02*
X249650000Y-120916666D01*
X249650000Y-120216666D01*
X249316666Y-120216666D01*
X249016666Y-120916666D02*
X249016666Y-120216666D01*
X248850000Y-120216666D01*
X248750000Y-120250000D01*
X248683333Y-120316666D01*
X248650000Y-120383333D01*
X248616666Y-120516666D01*
X248616666Y-120616666D01*
X248650000Y-120750000D01*
X248683333Y-120816666D01*
X248750000Y-120883333D01*
X248850000Y-120916666D01*
X249016666Y-120916666D01*
X247950000Y-120916666D02*
X248350000Y-120916666D01*
X248150000Y-120916666D02*
X248150000Y-120216666D01*
X248216666Y-120316666D01*
X248283333Y-120383333D01*
X248350000Y-120416666D01*
X217406166Y-120861500D02*
X217406166Y-121194833D01*
X217606166Y-120794833D02*
X216906166Y-121028166D01*
X217606166Y-121261500D01*
X216972833Y-121461500D02*
X216939500Y-121494833D01*
X216906166Y-121561500D01*
X216906166Y-121728166D01*
X216939500Y-121794833D01*
X216972833Y-121828166D01*
X217039500Y-121861500D01*
X217106166Y-121861500D01*
X217206166Y-121828166D01*
X217606166Y-121428166D01*
X217606166Y-121861500D01*
X211183166Y-120861500D02*
X211183166Y-121194833D01*
X211383166Y-120794833D02*
X210683166Y-121028166D01*
X211383166Y-121261500D01*
X210683166Y-121628166D02*
X210683166Y-121694833D01*
X210716500Y-121761500D01*
X210749833Y-121794833D01*
X210816500Y-121828166D01*
X210949833Y-121861500D01*
X211116500Y-121861500D01*
X211249833Y-121828166D01*
X211316500Y-121794833D01*
X211349833Y-121761500D01*
X211383166Y-121694833D01*
X211383166Y-121628166D01*
X211349833Y-121561500D01*
X211316500Y-121528166D01*
X211249833Y-121494833D01*
X211116500Y-121461500D01*
X210949833Y-121461500D01*
X210816500Y-121494833D01*
X210749833Y-121528166D01*
X210716500Y-121561500D01*
X210683166Y-121628166D01*
X217409523Y-103200000D02*
X217485714Y-103161904D01*
X217600000Y-103161904D01*
X217714285Y-103200000D01*
X217790476Y-103276190D01*
X217828571Y-103352380D01*
X217866666Y-103504761D01*
X217866666Y-103619047D01*
X217828571Y-103771428D01*
X217790476Y-103847619D01*
X217714285Y-103923809D01*
X217600000Y-103961904D01*
X217523809Y-103961904D01*
X217409523Y-103923809D01*
X217371428Y-103885714D01*
X217371428Y-103619047D01*
X217523809Y-103619047D01*
X217028571Y-103961904D02*
X217028571Y-103161904D01*
X216571428Y-103961904D01*
X216571428Y-103161904D01*
X216190476Y-103961904D02*
X216190476Y-103161904D01*
X216000000Y-103161904D01*
X215885714Y-103200000D01*
X215809523Y-103276190D01*
X215771428Y-103352380D01*
X215733333Y-103504761D01*
X215733333Y-103619047D01*
X215771428Y-103771428D01*
X215809523Y-103847619D01*
X215885714Y-103923809D01*
X216000000Y-103961904D01*
X216190476Y-103961904D01*
X220366666Y-103161904D02*
X220100000Y-103961904D01*
X219833333Y-103161904D01*
X219109523Y-103885714D02*
X219147619Y-103923809D01*
X219261904Y-103961904D01*
X219338095Y-103961904D01*
X219452380Y-103923809D01*
X219528571Y-103847619D01*
X219566666Y-103771428D01*
X219604761Y-103619047D01*
X219604761Y-103504761D01*
X219566666Y-103352380D01*
X219528571Y-103276190D01*
X219452380Y-103200000D01*
X219338095Y-103161904D01*
X219261904Y-103161904D01*
X219147619Y-103200000D01*
X219109523Y-103238095D01*
X218309523Y-103885714D02*
X218347619Y-103923809D01*
X218461904Y-103961904D01*
X218538095Y-103961904D01*
X218652380Y-103923809D01*
X218728571Y-103847619D01*
X218766666Y-103771428D01*
X218804761Y-103619047D01*
X218804761Y-103504761D01*
X218766666Y-103352380D01*
X218728571Y-103276190D01*
X218652380Y-103200000D01*
X218538095Y-103161904D01*
X218461904Y-103161904D01*
X218347619Y-103200000D01*
X218309523Y-103238095D01*
X222752380Y-103923809D02*
X222638095Y-103961904D01*
X222447619Y-103961904D01*
X222371428Y-103923809D01*
X222333333Y-103885714D01*
X222295238Y-103809523D01*
X222295238Y-103733333D01*
X222333333Y-103657142D01*
X222371428Y-103619047D01*
X222447619Y-103580952D01*
X222600000Y-103542857D01*
X222676190Y-103504761D01*
X222714285Y-103466666D01*
X222752380Y-103390476D01*
X222752380Y-103314285D01*
X222714285Y-103238095D01*
X222676190Y-103200000D01*
X222600000Y-103161904D01*
X222409523Y-103161904D01*
X222295238Y-103200000D01*
X221495238Y-103885714D02*
X221533333Y-103923809D01*
X221647619Y-103961904D01*
X221723809Y-103961904D01*
X221838095Y-103923809D01*
X221914285Y-103847619D01*
X221952380Y-103771428D01*
X221990476Y-103619047D01*
X221990476Y-103504761D01*
X221952380Y-103352380D01*
X221914285Y-103276190D01*
X221838095Y-103200000D01*
X221723809Y-103161904D01*
X221647619Y-103161904D01*
X221533333Y-103200000D01*
X221495238Y-103238095D01*
X220771428Y-103961904D02*
X221152380Y-103961904D01*
X221152380Y-103161904D01*
X225371428Y-103923809D02*
X225257142Y-103961904D01*
X225066666Y-103961904D01*
X224990476Y-103923809D01*
X224952380Y-103885714D01*
X224914285Y-103809523D01*
X224914285Y-103733333D01*
X224952380Y-103657142D01*
X224990476Y-103619047D01*
X225066666Y-103580952D01*
X225219047Y-103542857D01*
X225295238Y-103504761D01*
X225333333Y-103466666D01*
X225371428Y-103390476D01*
X225371428Y-103314285D01*
X225333333Y-103238095D01*
X225295238Y-103200000D01*
X225219047Y-103161904D01*
X225028571Y-103161904D01*
X224914285Y-103200000D01*
X224571428Y-103961904D02*
X224571428Y-103161904D01*
X224380952Y-103161904D01*
X224266666Y-103200000D01*
X224190476Y-103276190D01*
X224152380Y-103352380D01*
X224114285Y-103504761D01*
X224114285Y-103619047D01*
X224152380Y-103771428D01*
X224190476Y-103847619D01*
X224266666Y-103923809D01*
X224380952Y-103961904D01*
X224571428Y-103961904D01*
X223809523Y-103733333D02*
X223428571Y-103733333D01*
X223885714Y-103961904D02*
X223619047Y-103161904D01*
X223352380Y-103961904D01*
D11*
X203833333Y-117052380D02*
X203833333Y-117766666D01*
X203880952Y-117909523D01*
X203976190Y-118004761D01*
X204119047Y-118052380D01*
X204214285Y-118052380D01*
X202833333Y-118052380D02*
X203404761Y-118052380D01*
X203119047Y-118052380D02*
X203119047Y-117052380D01*
X203214285Y-117195238D01*
X203309523Y-117290476D01*
X203404761Y-117338095D01*
X206538095Y-100152380D02*
X206538095Y-99152380D01*
X206157142Y-99152380D01*
X206061904Y-99200000D01*
X206014285Y-99247619D01*
X205966666Y-99342857D01*
X205966666Y-99485714D01*
X206014285Y-99580952D01*
X206061904Y-99628571D01*
X206157142Y-99676190D01*
X206538095Y-99676190D01*
X205014285Y-100152380D02*
X205585714Y-100152380D01*
X205300000Y-100152380D02*
X205300000Y-99152380D01*
X205395238Y-99295238D01*
X205490476Y-99390476D01*
X205585714Y-99438095D01*
D10*
X209661904Y-107385714D02*
X209280952Y-107119047D01*
X209661904Y-106928571D02*
X208861904Y-106928571D01*
X208861904Y-107233333D01*
X208900000Y-107309523D01*
X208938095Y-107347619D01*
X209014285Y-107385714D01*
X209128571Y-107385714D01*
X209204761Y-107347619D01*
X209242857Y-107309523D01*
X209280952Y-107233333D01*
X209280952Y-106928571D01*
X209661904Y-108147619D02*
X209661904Y-107690476D01*
X209661904Y-107919047D02*
X208861904Y-107919047D01*
X208976190Y-107842857D01*
X209052380Y-107766666D01*
X209090476Y-107690476D01*
X208861904Y-108642857D02*
X208861904Y-108719047D01*
X208900000Y-108795238D01*
X208938095Y-108833333D01*
X209014285Y-108871428D01*
X209166666Y-108909523D01*
X209357142Y-108909523D01*
X209509523Y-108871428D01*
X209585714Y-108833333D01*
X209623809Y-108795238D01*
X209661904Y-108719047D01*
X209661904Y-108642857D01*
X209623809Y-108566666D01*
X209585714Y-108528571D01*
X209509523Y-108490476D01*
X209357142Y-108452380D01*
X209166666Y-108452380D01*
X209014285Y-108490476D01*
X208938095Y-108528571D01*
X208900000Y-108566666D01*
X208861904Y-108642857D01*
D11*
X233852380Y-105816666D02*
X234566666Y-105816666D01*
X234709523Y-105769047D01*
X234804761Y-105673809D01*
X234852380Y-105530952D01*
X234852380Y-105435714D01*
X234852380Y-106292857D02*
X233852380Y-106292857D01*
X233852380Y-106673809D01*
X233900000Y-106769047D01*
X233947619Y-106816666D01*
X234042857Y-106864285D01*
X234185714Y-106864285D01*
X234280952Y-106816666D01*
X234328571Y-106769047D01*
X234376190Y-106673809D01*
X234376190Y-106292857D01*
X234185714Y-107721428D02*
X234852380Y-107721428D01*
X233804761Y-107483333D02*
X234519047Y-107245238D01*
X234519047Y-107864285D01*
D10*
X220216666Y-109116666D02*
X220450000Y-108783333D01*
X220616666Y-109116666D02*
X220616666Y-108416666D01*
X220350000Y-108416666D01*
X220283333Y-108450000D01*
X220250000Y-108483333D01*
X220216666Y-108550000D01*
X220216666Y-108650000D01*
X220250000Y-108716666D01*
X220283333Y-108750000D01*
X220350000Y-108783333D01*
X220616666Y-108783333D01*
X219983333Y-108416666D02*
X219550000Y-108416666D01*
X219783333Y-108683333D01*
X219683333Y-108683333D01*
X219616666Y-108716666D01*
X219583333Y-108750000D01*
X219550000Y-108816666D01*
X219550000Y-108983333D01*
X219583333Y-109050000D01*
X219616666Y-109083333D01*
X219683333Y-109116666D01*
X219883333Y-109116666D01*
X219950000Y-109083333D01*
X219983333Y-109050000D01*
X222116666Y-109116666D02*
X222350000Y-108783333D01*
X222516666Y-109116666D02*
X222516666Y-108416666D01*
X222250000Y-108416666D01*
X222183333Y-108450000D01*
X222150000Y-108483333D01*
X222116666Y-108550000D01*
X222116666Y-108650000D01*
X222150000Y-108716666D01*
X222183333Y-108750000D01*
X222250000Y-108783333D01*
X222516666Y-108783333D01*
X221516666Y-108650000D02*
X221516666Y-109116666D01*
X221683333Y-108383333D02*
X221850000Y-108883333D01*
X221416666Y-108883333D01*
D11*
X220961880Y-116813333D02*
X220485690Y-116480000D01*
X220961880Y-116241904D02*
X219961880Y-116241904D01*
X219961880Y-116622857D01*
X220009500Y-116718095D01*
X220057119Y-116765714D01*
X220152357Y-116813333D01*
X220295214Y-116813333D01*
X220390452Y-116765714D01*
X220438071Y-116718095D01*
X220485690Y-116622857D01*
X220485690Y-116241904D01*
X219961880Y-117146666D02*
X219961880Y-117813333D01*
X220961880Y-117384761D01*
X217802380Y-116813333D02*
X217326190Y-116480000D01*
X217802380Y-116241904D02*
X216802380Y-116241904D01*
X216802380Y-116622857D01*
X216850000Y-116718095D01*
X216897619Y-116765714D01*
X216992857Y-116813333D01*
X217135714Y-116813333D01*
X217230952Y-116765714D01*
X217278571Y-116718095D01*
X217326190Y-116622857D01*
X217326190Y-116241904D01*
X217230952Y-117384761D02*
X217183333Y-117289523D01*
X217135714Y-117241904D01*
X217040476Y-117194285D01*
X216992857Y-117194285D01*
X216897619Y-117241904D01*
X216850000Y-117289523D01*
X216802380Y-117384761D01*
X216802380Y-117575238D01*
X216850000Y-117670476D01*
X216897619Y-117718095D01*
X216992857Y-117765714D01*
X217040476Y-117765714D01*
X217135714Y-117718095D01*
X217183333Y-117670476D01*
X217230952Y-117575238D01*
X217230952Y-117384761D01*
X217278571Y-117289523D01*
X217326190Y-117241904D01*
X217421428Y-117194285D01*
X217611904Y-117194285D01*
X217707142Y-117241904D01*
X217754761Y-117289523D01*
X217802380Y-117384761D01*
X217802380Y-117575238D01*
X217754761Y-117670476D01*
X217707142Y-117718095D01*
X217611904Y-117765714D01*
X217421428Y-117765714D01*
X217326190Y-117718095D01*
X217278571Y-117670476D01*
X217230952Y-117575238D01*
X214675380Y-116813333D02*
X214199190Y-116480000D01*
X214675380Y-116241904D02*
X213675380Y-116241904D01*
X213675380Y-116622857D01*
X213723000Y-116718095D01*
X213770619Y-116765714D01*
X213865857Y-116813333D01*
X214008714Y-116813333D01*
X214103952Y-116765714D01*
X214151571Y-116718095D01*
X214199190Y-116622857D01*
X214199190Y-116241904D01*
X214675380Y-117289523D02*
X214675380Y-117480000D01*
X214627761Y-117575238D01*
X214580142Y-117622857D01*
X214437285Y-117718095D01*
X214246809Y-117765714D01*
X213865857Y-117765714D01*
X213770619Y-117718095D01*
X213723000Y-117670476D01*
X213675380Y-117575238D01*
X213675380Y-117384761D01*
X213723000Y-117289523D01*
X213770619Y-117241904D01*
X213865857Y-117194285D01*
X214103952Y-117194285D01*
X214199190Y-117241904D01*
X214246809Y-117289523D01*
X214294428Y-117384761D01*
X214294428Y-117575238D01*
X214246809Y-117670476D01*
X214199190Y-117718095D01*
X214103952Y-117765714D01*
X215952380Y-110738095D02*
X216761904Y-110738095D01*
X216857142Y-110785714D01*
X216904761Y-110833333D01*
X216952380Y-110928571D01*
X216952380Y-111119047D01*
X216904761Y-111214285D01*
X216857142Y-111261904D01*
X216761904Y-111309523D01*
X215952380Y-111309523D01*
X216952380Y-112309523D02*
X216952380Y-111738095D01*
X216952380Y-112023809D02*
X215952380Y-112023809D01*
X216095238Y-111928571D01*
X216190476Y-111833333D01*
X216238095Y-111738095D01*
D10*
X223940000Y-119986666D02*
X224173333Y-119653333D01*
X224340000Y-119986666D02*
X224340000Y-119286666D01*
X224073333Y-119286666D01*
X224006666Y-119320000D01*
X223973333Y-119353333D01*
X223940000Y-119420000D01*
X223940000Y-119520000D01*
X223973333Y-119586666D01*
X224006666Y-119620000D01*
X224073333Y-119653333D01*
X224340000Y-119653333D01*
X223273333Y-119986666D02*
X223673333Y-119986666D01*
X223473333Y-119986666D02*
X223473333Y-119286666D01*
X223540000Y-119386666D01*
X223606666Y-119453333D01*
X223673333Y-119486666D01*
X223006666Y-119353333D02*
X222973333Y-119320000D01*
X222906666Y-119286666D01*
X222740000Y-119286666D01*
X222673333Y-119320000D01*
X222640000Y-119353333D01*
X222606666Y-119420000D01*
X222606666Y-119486666D01*
X222640000Y-119586666D01*
X223040000Y-119986666D01*
X222606666Y-119986666D01*
X227720000Y-121336666D02*
X227953333Y-121003333D01*
X228120000Y-121336666D02*
X228120000Y-120636666D01*
X227853333Y-120636666D01*
X227786666Y-120670000D01*
X227753333Y-120703333D01*
X227720000Y-120770000D01*
X227720000Y-120870000D01*
X227753333Y-120936666D01*
X227786666Y-120970000D01*
X227853333Y-121003333D01*
X228120000Y-121003333D01*
X227053333Y-121336666D02*
X227453333Y-121336666D01*
X227253333Y-121336666D02*
X227253333Y-120636666D01*
X227320000Y-120736666D01*
X227386666Y-120803333D01*
X227453333Y-120836666D01*
X226820000Y-120636666D02*
X226386666Y-120636666D01*
X226620000Y-120903333D01*
X226520000Y-120903333D01*
X226453333Y-120936666D01*
X226420000Y-120970000D01*
X226386666Y-121036666D01*
X226386666Y-121203333D01*
X226420000Y-121270000D01*
X226453333Y-121303333D01*
X226520000Y-121336666D01*
X226720000Y-121336666D01*
X226786666Y-121303333D01*
X226820000Y-121270000D01*
X209661904Y-105085714D02*
X209280952Y-104819047D01*
X209661904Y-104628571D02*
X208861904Y-104628571D01*
X208861904Y-104933333D01*
X208900000Y-105009523D01*
X208938095Y-105047619D01*
X209014285Y-105085714D01*
X209128571Y-105085714D01*
X209204761Y-105047619D01*
X209242857Y-105009523D01*
X209280952Y-104933333D01*
X209280952Y-104628571D01*
X209661904Y-105847619D02*
X209661904Y-105390476D01*
X209661904Y-105619047D02*
X208861904Y-105619047D01*
X208976190Y-105542857D01*
X209052380Y-105466666D01*
X209090476Y-105390476D01*
X209661904Y-106609523D02*
X209661904Y-106152380D01*
X209661904Y-106380952D02*
X208861904Y-106380952D01*
X208976190Y-106304761D01*
X209052380Y-106228571D01*
X209090476Y-106152380D01*
X217116000Y-105320333D02*
X217149333Y-105287000D01*
X217182666Y-105187000D01*
X217182666Y-105120333D01*
X217149333Y-105020333D01*
X217082666Y-104953666D01*
X217016000Y-104920333D01*
X216882666Y-104887000D01*
X216782666Y-104887000D01*
X216649333Y-104920333D01*
X216582666Y-104953666D01*
X216516000Y-105020333D01*
X216482666Y-105120333D01*
X216482666Y-105187000D01*
X216516000Y-105287000D01*
X216549333Y-105320333D01*
X217182666Y-105987000D02*
X217182666Y-105587000D01*
X217182666Y-105787000D02*
X216482666Y-105787000D01*
X216582666Y-105720333D01*
X216649333Y-105653666D01*
X216682666Y-105587000D01*
X226216666Y-109116666D02*
X226450000Y-108783333D01*
X226616666Y-109116666D02*
X226616666Y-108416666D01*
X226350000Y-108416666D01*
X226283333Y-108450000D01*
X226250000Y-108483333D01*
X226216666Y-108550000D01*
X226216666Y-108650000D01*
X226250000Y-108716666D01*
X226283333Y-108750000D01*
X226350000Y-108783333D01*
X226616666Y-108783333D01*
X225616666Y-108416666D02*
X225750000Y-108416666D01*
X225816666Y-108450000D01*
X225850000Y-108483333D01*
X225916666Y-108583333D01*
X225950000Y-108716666D01*
X225950000Y-108983333D01*
X225916666Y-109050000D01*
X225883333Y-109083333D01*
X225816666Y-109116666D01*
X225683333Y-109116666D01*
X225616666Y-109083333D01*
X225583333Y-109050000D01*
X225550000Y-108983333D01*
X225550000Y-108816666D01*
X225583333Y-108750000D01*
X225616666Y-108716666D01*
X225683333Y-108683333D01*
X225816666Y-108683333D01*
X225883333Y-108716666D01*
X225916666Y-108750000D01*
X225950000Y-108816666D01*
X230316666Y-109116666D02*
X230550000Y-108783333D01*
X230716666Y-109116666D02*
X230716666Y-108416666D01*
X230450000Y-108416666D01*
X230383333Y-108450000D01*
X230350000Y-108483333D01*
X230316666Y-108550000D01*
X230316666Y-108650000D01*
X230350000Y-108716666D01*
X230383333Y-108750000D01*
X230450000Y-108783333D01*
X230716666Y-108783333D01*
X229650000Y-109116666D02*
X230050000Y-109116666D01*
X229850000Y-109116666D02*
X229850000Y-108416666D01*
X229916666Y-108516666D01*
X229983333Y-108583333D01*
X230050000Y-108616666D01*
X228316666Y-109116666D02*
X228550000Y-108783333D01*
X228716666Y-109116666D02*
X228716666Y-108416666D01*
X228450000Y-108416666D01*
X228383333Y-108450000D01*
X228350000Y-108483333D01*
X228316666Y-108550000D01*
X228316666Y-108650000D01*
X228350000Y-108716666D01*
X228383333Y-108750000D01*
X228450000Y-108783333D01*
X228716666Y-108783333D01*
X228050000Y-108483333D02*
X228016666Y-108450000D01*
X227950000Y-108416666D01*
X227783333Y-108416666D01*
X227716666Y-108450000D01*
X227683333Y-108483333D01*
X227650000Y-108550000D01*
X227650000Y-108616666D01*
X227683333Y-108716666D01*
X228083333Y-109116666D01*
X227650000Y-109116666D01*
D11*
X206733333Y-122652380D02*
X206733333Y-123366666D01*
X206780952Y-123509523D01*
X206876190Y-123604761D01*
X207019047Y-123652380D01*
X207114285Y-123652380D01*
X205828571Y-122985714D02*
X205828571Y-123652380D01*
X206066666Y-122604761D02*
X206304761Y-123319047D01*
X205685714Y-123319047D01*
D10*
X224016666Y-109216666D02*
X224250000Y-108883333D01*
X224416666Y-109216666D02*
X224416666Y-108516666D01*
X224150000Y-108516666D01*
X224083333Y-108550000D01*
X224050000Y-108583333D01*
X224016666Y-108650000D01*
X224016666Y-108750000D01*
X224050000Y-108816666D01*
X224083333Y-108850000D01*
X224150000Y-108883333D01*
X224416666Y-108883333D01*
X223383333Y-108516666D02*
X223716666Y-108516666D01*
X223750000Y-108850000D01*
X223716666Y-108816666D01*
X223650000Y-108783333D01*
X223483333Y-108783333D01*
X223416666Y-108816666D01*
X223383333Y-108850000D01*
X223350000Y-108916666D01*
X223350000Y-109083333D01*
X223383333Y-109150000D01*
X223416666Y-109183333D01*
X223483333Y-109216666D01*
X223650000Y-109216666D01*
X223716666Y-109183333D01*
X223750000Y-109150000D01*
D13*
X202170000Y-114000000D02*
X202170000Y-101240000D01*
X202170000Y-115270000D02*
X202170000Y-116600000D01*
X202170000Y-116600000D02*
X203500000Y-116600000D01*
X202170000Y-114000000D02*
X204830000Y-114000000D01*
X202170000Y-101240000D02*
X204830000Y-101240000D01*
X204830000Y-114000000D02*
X204830000Y-101240000D01*
X207040000Y-98770000D02*
X207040000Y-100100000D01*
X207040000Y-97500000D02*
X209640000Y-97500000D01*
X207040000Y-100100000D02*
X208370000Y-100100000D01*
X207040000Y-94900000D02*
X207040000Y-97500000D01*
X257960000Y-94900000D02*
X257960000Y-100100000D01*
X207040000Y-94900000D02*
X257960000Y-94900000D01*
X209640000Y-100100000D02*
X257960000Y-100100000D01*
X209640000Y-97500000D02*
X209640000Y-100100000D01*
X206872936Y-107065000D02*
X207327064Y-107065000D01*
X206872936Y-108535000D02*
X207327064Y-108535000D01*
X231600000Y-105950000D02*
X231600000Y-107350000D01*
X233600000Y-107350000D02*
X233600000Y-105950000D01*
X232900000Y-105250000D02*
X232300000Y-105250000D01*
X232300000Y-108050000D02*
X232900000Y-108050000D01*
X232300000Y-105250000D02*
G75*
G03*
X231600000Y-105950000I0J-700000D01*
G01*
X233600000Y-105950000D02*
G75*
G03*
X232900000Y-105250000I-700000J0D01*
G01*
X231600000Y-107350000D02*
G75*
G03*
X232300000Y-108050000I699999J-1D01*
G01*
X232900000Y-108050000D02*
G75*
G03*
X233600000Y-107350000I1J699999D01*
G01*
X218559500Y-123221000D02*
X219159500Y-123221000D01*
X217859500Y-119771000D02*
X217859500Y-122571000D01*
X217659500Y-122371000D02*
X217359500Y-122071000D01*
X217359500Y-122671000D02*
X217359500Y-122071000D01*
X217659500Y-122371000D02*
X217359500Y-122671000D01*
X219859500Y-122571000D02*
X219859500Y-119771000D01*
X219159500Y-119121000D02*
X218559500Y-119121000D01*
X217859500Y-122521000D02*
G75*
G03*
X218559500Y-123221000I699999J-1D01*
G01*
X218559500Y-119121000D02*
G75*
G03*
X217859500Y-119821000I0J-700000D01*
G01*
X219159500Y-123221000D02*
G75*
G03*
X219859500Y-122521000I1J699999D01*
G01*
X219859500Y-119821000D02*
G75*
G03*
X219159500Y-119121000I-700000J0D01*
G01*
X216716250Y-122571000D02*
X216716250Y-119771000D01*
X216016250Y-119121000D02*
X215416250Y-119121000D01*
X215416250Y-123221000D02*
X216016250Y-123221000D01*
X214516250Y-122371000D02*
X214216250Y-122671000D01*
X214216250Y-122671000D02*
X214216250Y-122071000D01*
X214516250Y-122371000D02*
X214216250Y-122071000D01*
X214716250Y-119771000D02*
X214716250Y-122571000D01*
X214716250Y-122521000D02*
G75*
G03*
X215416250Y-123221000I699999J-1D01*
G01*
X216016250Y-123221000D02*
G75*
G03*
X216716250Y-122521000I1J699999D01*
G01*
X215416250Y-119121000D02*
G75*
G03*
X214716250Y-119821000I0J-700000D01*
G01*
X216716250Y-119821000D02*
G75*
G03*
X216016250Y-119121000I-700000J0D01*
G01*
X212273000Y-123221000D02*
X212873000Y-123221000D01*
X211573000Y-119771000D02*
X211573000Y-122571000D01*
X212873000Y-119121000D02*
X212273000Y-119121000D01*
X211373000Y-122371000D02*
X211073000Y-122671000D01*
X211373000Y-122371000D02*
X211073000Y-122071000D01*
X213573000Y-122571000D02*
X213573000Y-119771000D01*
X211073000Y-122671000D02*
X211073000Y-122071000D01*
X211573000Y-122521000D02*
G75*
G03*
X212273000Y-123221000I699999J-1D01*
G01*
X212273000Y-119121000D02*
G75*
G03*
X211573000Y-119821000I0J-700000D01*
G01*
X212873000Y-123221000D02*
G75*
G03*
X213573000Y-122521000I1J699999D01*
G01*
X213573000Y-119821000D02*
G75*
G03*
X212873000Y-119121000I-700000J0D01*
G01*
X220773083Y-106465936D02*
X220773083Y-106920064D01*
X219303083Y-106465936D02*
X219303083Y-106920064D01*
X222805466Y-106465936D02*
X222805466Y-106920064D01*
X221335466Y-106465936D02*
X221335466Y-106920064D01*
X218124500Y-117207064D02*
X218124500Y-116752936D01*
X219594500Y-117207064D02*
X219594500Y-116752936D01*
X216435000Y-117207064D02*
X216435000Y-116752936D01*
X214965000Y-117207064D02*
X214965000Y-116752936D01*
X213308000Y-117207064D02*
X213308000Y-116752936D01*
X211838000Y-117207064D02*
X211838000Y-116752936D01*
X215735000Y-110000000D02*
X215735000Y-113600000D01*
X210265000Y-110000000D02*
X210265000Y-112200000D01*
X215735000Y-110000000D02*
X215735000Y-107800000D01*
X210265000Y-110000000D02*
X210265000Y-107800000D01*
X222565000Y-122027064D02*
X222565000Y-121572936D01*
X224035000Y-122027064D02*
X224035000Y-121572936D01*
X224539084Y-122027064D02*
X224539084Y-121572936D01*
X226009084Y-122027064D02*
X226009084Y-121572936D01*
X207327064Y-106235000D02*
X206872936Y-106235000D01*
X207327064Y-104765000D02*
X206872936Y-104765000D01*
X216165000Y-107888748D02*
X216165000Y-108411252D01*
X217635000Y-107888748D02*
X217635000Y-108411252D01*
X226870232Y-106465936D02*
X226870232Y-106920064D01*
X225400232Y-106465936D02*
X225400232Y-106920064D01*
X230935000Y-106465936D02*
X230935000Y-106920064D01*
X229465000Y-106465936D02*
X229465000Y-106920064D01*
X228902615Y-106465936D02*
X228902615Y-106920064D01*
X227432615Y-106465936D02*
X227432615Y-106920064D01*
X203500000Y-126130000D02*
X200900000Y-126130000D01*
X203500000Y-123470000D02*
X200900000Y-123470000D01*
X200900000Y-126130000D02*
X200900000Y-123470000D01*
X206100000Y-126130000D02*
X206100000Y-124800000D01*
X204770000Y-126130000D02*
X206100000Y-126130000D01*
X203500000Y-126130000D02*
X203500000Y-123470000D01*
X223265000Y-106939564D02*
X223265000Y-106485436D01*
X224735000Y-106939564D02*
X224735000Y-106485436D01*
G36*
X259237733Y-114061734D02*
G01*
X259034533Y-114061734D01*
X259034533Y-113672267D01*
X259237733Y-113672267D01*
X259237733Y-114061734D01*
G37*
D14*
X259237733Y-114061734D02*
X259034533Y-114061734D01*
X259034533Y-113672267D01*
X259237733Y-113672267D01*
X259237733Y-114061734D01*
G36*
X254496400Y-112012800D02*
G01*
X254293200Y-112012800D01*
X254293200Y-110556534D01*
X254496400Y-110556534D01*
X254496400Y-112012800D01*
G37*
X254496400Y-112012800D02*
X254293200Y-112012800D01*
X254293200Y-110556534D01*
X254496400Y-110556534D01*
X254496400Y-112012800D01*
G36*
X260897200Y-108101201D02*
G01*
X261083467Y-108101201D01*
X261083467Y-108930934D01*
X261306608Y-108930934D01*
X261295134Y-109134196D01*
X261506800Y-109134134D01*
X261506800Y-109354267D01*
X261305216Y-109354267D01*
X261295134Y-109142601D01*
X261189300Y-109137559D01*
X261083467Y-109132518D01*
X261083467Y-108932704D01*
X260994567Y-108927585D01*
X260905667Y-108922467D01*
X260901132Y-108511834D01*
X260896598Y-108101201D01*
X260473867Y-108101201D01*
X260473867Y-107898001D01*
X260897200Y-107898001D01*
X260897200Y-108101201D01*
G37*
X260897200Y-108101201D02*
X261083467Y-108101201D01*
X261083467Y-108930934D01*
X261306608Y-108930934D01*
X261295134Y-109134196D01*
X261506800Y-109134134D01*
X261506800Y-109354267D01*
X261305216Y-109354267D01*
X261295134Y-109142601D01*
X261189300Y-109137559D01*
X261083467Y-109132518D01*
X261083467Y-108932704D01*
X260994567Y-108927585D01*
X260905667Y-108922467D01*
X260901132Y-108511834D01*
X260896598Y-108101201D01*
X260473867Y-108101201D01*
X260473867Y-107898001D01*
X260897200Y-107898001D01*
X260897200Y-108101201D01*
G36*
X258822867Y-112224467D02*
G01*
X258827945Y-112321834D01*
X258833024Y-112419201D01*
X259034533Y-112419201D01*
X259034533Y-113672267D01*
X258831334Y-113672267D01*
X258831334Y-112419201D01*
X255952667Y-112419201D01*
X255952667Y-112639334D01*
X255529334Y-112639334D01*
X255529334Y-113028801D01*
X255343067Y-113028801D01*
X255343067Y-112639334D01*
X255527717Y-112639334D01*
X255532759Y-112533501D01*
X255537800Y-112427667D01*
X255745233Y-112422913D01*
X255952667Y-112418158D01*
X255952667Y-112215809D01*
X258822867Y-112224467D01*
G37*
X258822867Y-112224467D02*
X258827945Y-112321834D01*
X258833024Y-112419201D01*
X259034533Y-112419201D01*
X259034533Y-113672267D01*
X258831334Y-113672267D01*
X258831334Y-112419201D01*
X255952667Y-112419201D01*
X255952667Y-112639334D01*
X255529334Y-112639334D01*
X255529334Y-113028801D01*
X255343067Y-113028801D01*
X255343067Y-112639334D01*
X255527717Y-112639334D01*
X255532759Y-112533501D01*
X255537800Y-112427667D01*
X255745233Y-112422913D01*
X255952667Y-112418158D01*
X255952667Y-112215809D01*
X258822867Y-112224467D01*
G36*
X261930133Y-109540534D02*
G01*
X261506800Y-109540534D01*
X261506800Y-109354267D01*
X261930133Y-109354267D01*
X261930133Y-109540534D01*
G37*
X261930133Y-109540534D02*
X261506800Y-109540534D01*
X261506800Y-109354267D01*
X261930133Y-109354267D01*
X261930133Y-109540534D01*
G36*
X259864267Y-108287467D02*
G01*
X260270667Y-108287467D01*
X260270667Y-108101201D01*
X260473867Y-108101201D01*
X260473867Y-108508382D01*
X259872733Y-108499134D01*
X259867692Y-108393300D01*
X259862651Y-108287467D01*
X259661067Y-108287467D01*
X259661067Y-108101201D01*
X259864267Y-108101201D01*
X259864267Y-108287467D01*
G37*
X259864267Y-108287467D02*
X260270667Y-108287467D01*
X260270667Y-108101201D01*
X260473867Y-108101201D01*
X260473867Y-108508382D01*
X259872733Y-108499134D01*
X259867692Y-108393300D01*
X259862651Y-108287467D01*
X259661067Y-108287467D01*
X259661067Y-108101201D01*
X259864267Y-108101201D01*
X259864267Y-108287467D01*
G36*
X260473867Y-109134134D02*
G01*
X260270667Y-109134134D01*
X260270667Y-108930934D01*
X260473867Y-108930934D01*
X260473867Y-109134134D01*
G37*
X260473867Y-109134134D02*
X260270667Y-109134134D01*
X260270667Y-108930934D01*
X260473867Y-108930934D01*
X260473867Y-109134134D01*
G36*
X254001929Y-108290880D02*
G01*
X254098467Y-108295934D01*
X254107681Y-108930934D01*
X254293200Y-108930934D01*
X254293200Y-109134134D01*
X254496400Y-109134134D01*
X254496400Y-109354267D01*
X254919734Y-109354267D01*
X254919734Y-109540534D01*
X255121859Y-109540534D01*
X255126629Y-109739500D01*
X255131400Y-109938467D01*
X256879767Y-109942780D01*
X258628134Y-109947092D01*
X258628134Y-110167067D01*
X257798400Y-110167067D01*
X257798400Y-110370267D01*
X257612133Y-110370267D01*
X257612133Y-110556534D01*
X257188800Y-110556534D01*
X257188800Y-110979867D01*
X255953709Y-110979867D01*
X255948955Y-110772434D01*
X255944200Y-110565001D01*
X255529334Y-110555491D01*
X255529334Y-110168142D01*
X255330367Y-110163371D01*
X255131400Y-110158601D01*
X255131400Y-109946872D01*
X254919734Y-109946934D01*
X254919734Y-109541576D01*
X254712300Y-109536822D01*
X254504867Y-109532067D01*
X254499777Y-109443987D01*
X254494687Y-109355906D01*
X254398177Y-109350853D01*
X254301667Y-109345801D01*
X254296625Y-109239967D01*
X254291584Y-109134134D01*
X254106934Y-109134134D01*
X254106934Y-108930934D01*
X253903734Y-108930934D01*
X253903734Y-109946934D01*
X253683233Y-109946934D01*
X253687650Y-109231501D01*
X253692067Y-108516067D01*
X253793667Y-108507601D01*
X253895267Y-108499134D01*
X253900329Y-108392480D01*
X253905392Y-108285827D01*
X254001929Y-108290880D01*
G37*
X254001929Y-108290880D02*
X254098467Y-108295934D01*
X254107681Y-108930934D01*
X254293200Y-108930934D01*
X254293200Y-109134134D01*
X254496400Y-109134134D01*
X254496400Y-109354267D01*
X254919734Y-109354267D01*
X254919734Y-109540534D01*
X255121859Y-109540534D01*
X255126629Y-109739500D01*
X255131400Y-109938467D01*
X256879767Y-109942780D01*
X258628134Y-109947092D01*
X258628134Y-110167067D01*
X257798400Y-110167067D01*
X257798400Y-110370267D01*
X257612133Y-110370267D01*
X257612133Y-110556534D01*
X257188800Y-110556534D01*
X257188800Y-110979867D01*
X255953709Y-110979867D01*
X255948955Y-110772434D01*
X255944200Y-110565001D01*
X255529334Y-110555491D01*
X255529334Y-110168142D01*
X255330367Y-110163371D01*
X255131400Y-110158601D01*
X255131400Y-109946872D01*
X254919734Y-109946934D01*
X254919734Y-109541576D01*
X254712300Y-109536822D01*
X254504867Y-109532067D01*
X254499777Y-109443987D01*
X254494687Y-109355906D01*
X254398177Y-109350853D01*
X254301667Y-109345801D01*
X254296625Y-109239967D01*
X254291584Y-109134134D01*
X254106934Y-109134134D01*
X254106934Y-108930934D01*
X253903734Y-108930934D01*
X253903734Y-109946934D01*
X253683233Y-109946934D01*
X253687650Y-109231501D01*
X253692067Y-108516067D01*
X253793667Y-108507601D01*
X253895267Y-108499134D01*
X253900329Y-108392480D01*
X253905392Y-108285827D01*
X254001929Y-108290880D01*
G36*
X254106934Y-110167067D02*
G01*
X253903734Y-110167067D01*
X253903734Y-109946934D01*
X254106934Y-109946934D01*
X254106934Y-110167067D01*
G37*
X254106934Y-110167067D02*
X253903734Y-110167067D01*
X253903734Y-109946934D01*
X254106934Y-109946934D01*
X254106934Y-110167067D01*
G36*
X259661067Y-114264934D02*
G01*
X260270667Y-114264934D01*
X260270667Y-114363712D01*
X260269537Y-114407102D01*
X260265298Y-114452101D01*
X260258992Y-114474164D01*
X260246055Y-114477033D01*
X260203713Y-114479857D01*
X260137804Y-114481587D01*
X260054113Y-114482087D01*
X259958425Y-114481220D01*
X259669533Y-114476600D01*
X259659451Y-114264934D01*
X259237733Y-114264934D01*
X259237733Y-114061734D01*
X259661067Y-114061734D01*
X259661067Y-114264934D01*
G37*
X259661067Y-114264934D02*
X260270667Y-114264934D01*
X260270667Y-114363712D01*
X260269537Y-114407102D01*
X260265298Y-114452101D01*
X260258992Y-114474164D01*
X260246055Y-114477033D01*
X260203713Y-114479857D01*
X260137804Y-114481587D01*
X260054113Y-114482087D01*
X259958425Y-114481220D01*
X259669533Y-114476600D01*
X259659451Y-114264934D01*
X259237733Y-114264934D01*
X259237733Y-114061734D01*
X259661067Y-114061734D01*
X259661067Y-114264934D01*
G36*
X254293200Y-110556534D02*
G01*
X254106934Y-110556534D01*
X254106934Y-110167067D01*
X254293200Y-110167067D01*
X254293200Y-110556534D01*
G37*
X254293200Y-110556534D02*
X254106934Y-110556534D01*
X254106934Y-110167067D01*
X254293200Y-110167067D01*
X254293200Y-110556534D01*
G36*
X254919734Y-114264934D02*
G01*
X255529334Y-114264934D01*
X255529334Y-114061734D01*
X255952667Y-114061734D01*
X255952667Y-114264934D01*
X255530950Y-114264934D01*
X255525908Y-114370767D01*
X255520867Y-114476600D01*
X254928200Y-114476600D01*
X254923159Y-114370767D01*
X254918117Y-114264934D01*
X254496400Y-114264934D01*
X254496400Y-114061734D01*
X254919734Y-114061734D01*
X254919734Y-114264934D01*
G37*
X254919734Y-114264934D02*
X255529334Y-114264934D01*
X255529334Y-114061734D01*
X255952667Y-114061734D01*
X255952667Y-114264934D01*
X255530950Y-114264934D01*
X255525908Y-114370767D01*
X255520867Y-114476600D01*
X254928200Y-114476600D01*
X254923159Y-114370767D01*
X254918117Y-114264934D01*
X254496400Y-114264934D01*
X254496400Y-114061734D01*
X254919734Y-114061734D01*
X254919734Y-114264934D01*
G36*
X261930133Y-110370267D02*
G01*
X260271448Y-110370267D01*
X260262200Y-110971401D01*
X260050534Y-110981483D01*
X260050534Y-113672267D01*
X260270667Y-113672267D01*
X260270667Y-114061734D01*
X260050534Y-114061734D01*
X260050534Y-113674037D01*
X259961633Y-113668919D01*
X259872733Y-113663801D01*
X259863903Y-112216001D01*
X259661067Y-112216001D01*
X259661067Y-112012800D01*
X259237733Y-112012800D01*
X259237733Y-111201043D01*
X259445167Y-111196288D01*
X259652600Y-111191534D01*
X259657642Y-111085701D01*
X259662683Y-110979867D01*
X260049752Y-110979867D01*
X260054376Y-110679301D01*
X260059000Y-110378734D01*
X260164834Y-110373692D01*
X260270667Y-110368651D01*
X260270667Y-110167067D01*
X261930133Y-110167067D01*
X261930133Y-110370267D01*
G37*
X261930133Y-110370267D02*
X260271448Y-110370267D01*
X260262200Y-110971401D01*
X260050534Y-110981483D01*
X260050534Y-113672267D01*
X260270667Y-113672267D01*
X260270667Y-114061734D01*
X260050534Y-114061734D01*
X260050534Y-113674037D01*
X259961633Y-113668919D01*
X259872733Y-113663801D01*
X259863903Y-112216001D01*
X259661067Y-112216001D01*
X259661067Y-112012800D01*
X259237733Y-112012800D01*
X259237733Y-111201043D01*
X259445167Y-111196288D01*
X259652600Y-111191534D01*
X259657642Y-111085701D01*
X259662683Y-110979867D01*
X260049752Y-110979867D01*
X260054376Y-110679301D01*
X260059000Y-110378734D01*
X260164834Y-110373692D01*
X260270667Y-110368651D01*
X260270667Y-110167067D01*
X261930133Y-110167067D01*
X261930133Y-110370267D01*
G36*
X262133333Y-110167067D02*
G01*
X261930133Y-110167067D01*
X261930133Y-109540534D01*
X262133333Y-109540534D01*
X262133333Y-110167067D01*
G37*
X262133333Y-110167067D02*
X261930133Y-110167067D01*
X261930133Y-109540534D01*
X262133333Y-109540534D01*
X262133333Y-110167067D01*
G36*
X259661067Y-108101201D02*
G01*
X259237733Y-108101201D01*
X259237733Y-108507601D01*
X259034533Y-108507601D01*
X259034533Y-107898001D01*
X259661067Y-107898001D01*
X259661067Y-108101201D01*
G37*
X259661067Y-108101201D02*
X259237733Y-108101201D01*
X259237733Y-108507601D01*
X259034533Y-108507601D01*
X259034533Y-107898001D01*
X259661067Y-107898001D01*
X259661067Y-108101201D01*
G36*
X255343067Y-113672267D02*
G01*
X255529334Y-113672267D01*
X255529334Y-114061734D01*
X255343067Y-114061734D01*
X255343067Y-113673883D01*
X255237234Y-113668842D01*
X255131400Y-113663801D01*
X255126764Y-113360249D01*
X255126289Y-113326561D01*
X255125591Y-113219218D01*
X255126782Y-113140950D01*
X255130063Y-113087999D01*
X255135635Y-113056604D01*
X255143697Y-113043008D01*
X255157244Y-113038114D01*
X255199396Y-113031687D01*
X255254167Y-113029060D01*
X255343067Y-113028801D01*
X255343067Y-113672267D01*
G37*
X255343067Y-113672267D02*
X255529334Y-113672267D01*
X255529334Y-114061734D01*
X255343067Y-114061734D01*
X255343067Y-113673883D01*
X255237234Y-113668842D01*
X255131400Y-113663801D01*
X255126764Y-113360249D01*
X255126289Y-113326561D01*
X255125591Y-113219218D01*
X255126782Y-113140950D01*
X255130063Y-113087999D01*
X255135635Y-113056604D01*
X255143697Y-113043008D01*
X255157244Y-113038114D01*
X255199396Y-113031687D01*
X255254167Y-113029060D01*
X255343067Y-113028801D01*
X255343067Y-113672267D01*
G36*
X259657129Y-108926700D02*
G01*
X259652600Y-109345801D01*
X259445167Y-109350555D01*
X259237733Y-109355310D01*
X259237733Y-109540534D01*
X259034533Y-109540534D01*
X259034533Y-109354267D01*
X259237733Y-109354267D01*
X259237733Y-108507601D01*
X259661658Y-108507601D01*
X259657129Y-108926700D01*
G37*
X259657129Y-108926700D02*
X259652600Y-109345801D01*
X259445167Y-109350555D01*
X259237733Y-109355310D01*
X259237733Y-109540534D01*
X259034533Y-109540534D01*
X259034533Y-109354267D01*
X259237733Y-109354267D01*
X259237733Y-108507601D01*
X259661658Y-108507601D01*
X259657129Y-108926700D01*
G36*
X254293200Y-113672267D02*
G01*
X254106934Y-113672267D01*
X254106934Y-112012800D01*
X254293200Y-112012800D01*
X254293200Y-113672267D01*
G37*
X254293200Y-113672267D02*
X254106934Y-113672267D01*
X254106934Y-112012800D01*
X254293200Y-112012800D01*
X254293200Y-113672267D01*
G36*
X259034533Y-109946934D02*
G01*
X258628134Y-109946934D01*
X258628134Y-109540534D01*
X259034533Y-109540534D01*
X259034533Y-109946934D01*
G37*
X259034533Y-109946934D02*
X258628134Y-109946934D01*
X258628134Y-109540534D01*
X259034533Y-109540534D01*
X259034533Y-109946934D01*
G36*
X260473867Y-114264934D02*
G01*
X260270667Y-114264934D01*
X260270667Y-114061734D01*
X260473867Y-114061734D01*
X260473867Y-114264934D01*
G37*
X260473867Y-114264934D02*
X260270667Y-114264934D01*
X260270667Y-114061734D01*
X260473867Y-114061734D01*
X260473867Y-114264934D01*
G36*
X254496400Y-114061734D02*
G01*
X254293200Y-114061734D01*
X254293200Y-113672267D01*
X254496400Y-113672267D01*
X254496400Y-114061734D01*
G37*
X254496400Y-114061734D02*
X254293200Y-114061734D01*
X254293200Y-113672267D01*
X254496400Y-113672267D01*
X254496400Y-114061734D01*
%LPC*%
D15*
X216690000Y-102000000D03*
D16*
X219230000Y-102000000D03*
X221770000Y-102000000D03*
X224310000Y-102000000D03*
D17*
X231500000Y-126000000D03*
D18*
X233000000Y-102500000D03*
D19*
X209000000Y-102500000D03*
D17*
X209500000Y-126000000D03*
D15*
X203500000Y-115270000D03*
D16*
X203500000Y-112730000D03*
X203500000Y-110190000D03*
X203500000Y-107650000D03*
X203500000Y-105110000D03*
X203500000Y-102570000D03*
D20*
X203500000Y-120500000D03*
D21*
X246500000Y-101800000D03*
X240000000Y-101800000D03*
X246500000Y-106300000D03*
X240000000Y-106300000D03*
X246500000Y-117700000D03*
X240000000Y-117700000D03*
X246500000Y-113200000D03*
X240000000Y-113200000D03*
D15*
X243950000Y-122200000D03*
D16*
X246490000Y-122200000D03*
X249030000Y-122200000D03*
X251570000Y-122200000D03*
X254110000Y-122200000D03*
X256650000Y-122200000D03*
D22*
X255400000Y-116300000D03*
D21*
X260400000Y-116300000D03*
X257900000Y-116300000D03*
D23*
X263500000Y-108800000D03*
X252300000Y-108800000D03*
D21*
X260400000Y-101800000D03*
X255400000Y-101800000D03*
D20*
X203500000Y-97500000D03*
X261500000Y-97500000D03*
X261500000Y-120500000D03*
D15*
X208370000Y-98770000D03*
D16*
X208370000Y-96230000D03*
X210910000Y-98770000D03*
X210910000Y-96230000D03*
X213450000Y-98770000D03*
X213450000Y-96230000D03*
X215990000Y-98770000D03*
X215990000Y-96230000D03*
X218530000Y-98770000D03*
X218530000Y-96230000D03*
X221070000Y-98770000D03*
X221070000Y-96230000D03*
X223610000Y-98770000D03*
X223610000Y-96230000D03*
X226150000Y-98770000D03*
X226150000Y-96230000D03*
X228690000Y-98770000D03*
X228690000Y-96230000D03*
X231230000Y-98770000D03*
X231230000Y-96230000D03*
X233770000Y-98770000D03*
X233770000Y-96230000D03*
X236310000Y-98770000D03*
X236310000Y-96230000D03*
X238850000Y-98770000D03*
X238850000Y-96230000D03*
X241390000Y-98770000D03*
X241390000Y-96230000D03*
X243930000Y-98770000D03*
X243930000Y-96230000D03*
X246470000Y-98770000D03*
X246470000Y-96230000D03*
X249010000Y-98770000D03*
X249010000Y-96230000D03*
X251550000Y-98770000D03*
X251550000Y-96230000D03*
X254090000Y-98770000D03*
X254090000Y-96230000D03*
X256630000Y-98770000D03*
X256630000Y-96230000D03*
D24*
X206187500Y-107800000D03*
X208012500Y-107800000D03*
D25*
X232600000Y-107300000D03*
D26*
X232600000Y-106000000D03*
D27*
X218859500Y-122471000D03*
D28*
X218859500Y-121171000D03*
D29*
X218859500Y-119871000D03*
D27*
X215716250Y-122471000D03*
D28*
X215716250Y-121171000D03*
D29*
X215716250Y-119871000D03*
D27*
X212573000Y-122471000D03*
D28*
X212573000Y-121171000D03*
D29*
X212573000Y-119871000D03*
D30*
X220038083Y-105780500D03*
X220038083Y-107605500D03*
X222070466Y-105780500D03*
X222070466Y-107605500D03*
D31*
X218859500Y-117892500D03*
X218859500Y-116067500D03*
X215700000Y-117892500D03*
X215700000Y-116067500D03*
X212573000Y-117892500D03*
X212573000Y-116067500D03*
D32*
X215275000Y-112862500D03*
X214625000Y-112862500D03*
X213975000Y-112862500D03*
X213325000Y-112862500D03*
X212675000Y-112862500D03*
X212025000Y-112862500D03*
X211375000Y-112862500D03*
X210725000Y-112862500D03*
X210725000Y-107137500D03*
X211375000Y-107137500D03*
X212025000Y-107137500D03*
X212675000Y-107137500D03*
X213325000Y-107137500D03*
X213975000Y-107137500D03*
X214625000Y-107137500D03*
X215275000Y-107137500D03*
D31*
X223300000Y-122712500D03*
X223300000Y-120887500D03*
X225274084Y-122712500D03*
X225274084Y-120887500D03*
D33*
X208012500Y-105500000D03*
X206187500Y-105500000D03*
D34*
X216900000Y-107200000D03*
X216900000Y-109100000D03*
D30*
X226135232Y-105780500D03*
X226135232Y-107605500D03*
X230200000Y-105780500D03*
X230200000Y-107605500D03*
X228167615Y-105780500D03*
X228167615Y-107605500D03*
D15*
X204770000Y-124800000D03*
D16*
X202230000Y-124800000D03*
D31*
X224000000Y-107625000D03*
X224000000Y-105800000D03*
M02*
