G04 #@! TF.GenerationSoftware,KiCad,Pcbnew,(6.0.4)*
G04 #@! TF.CreationDate,2022-12-13T21:19:27-06:00*
G04 #@! TF.ProjectId,ctrl_board,6374726c-5f62-46f6-9172-642e6b696361,rev?*
G04 #@! TF.SameCoordinates,Original*
G04 #@! TF.FileFunction,Soldermask,Top*
G04 #@! TF.FilePolarity,Negative*
%FSLAX46Y46*%
G04 Gerber Fmt 4.6, Leading zero omitted, Abs format (unit mm)*
G04 Created by KiCad (PCBNEW (6.0.4)) date 2022-12-13 21:19:27*
%MOMM*%
%LPD*%
G01*
G04 APERTURE LIST*
%ADD10R,1.700000X1.700000*%
%ADD11O,1.700000X1.700000*%
%ADD12O,6.500000X2.500000*%
%ADD13O,8.500000X2.500000*%
%ADD14O,8.000000X2.500000*%
%ADD15C,2.700000*%
%ADD16C,2.000000*%
%ADD17R,2.000000X2.000000*%
%ADD18R,2.000000X3.200000*%
G04 APERTURE END LIST*
D10*
X216690000Y-102000000D03*
D11*
X219230000Y-102000000D03*
X221770000Y-102000000D03*
X224310000Y-102000000D03*
D12*
X231500000Y-126000000D03*
D13*
X233000000Y-102500000D03*
D14*
X209000000Y-102500000D03*
D12*
X209500000Y-126000000D03*
D10*
X203500000Y-115270000D03*
D11*
X203500000Y-112730000D03*
X203500000Y-110190000D03*
X203500000Y-107650000D03*
X203500000Y-105110000D03*
X203500000Y-102570000D03*
D15*
X203500000Y-120500000D03*
D16*
X246500000Y-101800000D03*
X240000000Y-101800000D03*
X246500000Y-106300000D03*
X240000000Y-106300000D03*
X246500000Y-117700000D03*
X240000000Y-117700000D03*
X246500000Y-113200000D03*
X240000000Y-113200000D03*
D10*
X243950000Y-122200000D03*
D11*
X246490000Y-122200000D03*
X249030000Y-122200000D03*
X251570000Y-122200000D03*
X254110000Y-122200000D03*
X256650000Y-122200000D03*
D17*
X255400000Y-116300000D03*
D16*
X260400000Y-116300000D03*
X257900000Y-116300000D03*
D18*
X263500000Y-108800000D03*
X252300000Y-108800000D03*
D16*
X260400000Y-101800000D03*
X255400000Y-101800000D03*
D15*
X203500000Y-97500000D03*
X261500000Y-97500000D03*
X261500000Y-120500000D03*
D10*
X208370000Y-98770000D03*
D11*
X208370000Y-96230000D03*
X210910000Y-98770000D03*
X210910000Y-96230000D03*
X213450000Y-98770000D03*
X213450000Y-96230000D03*
X215990000Y-98770000D03*
X215990000Y-96230000D03*
X218530000Y-98770000D03*
X218530000Y-96230000D03*
X221070000Y-98770000D03*
X221070000Y-96230000D03*
X223610000Y-98770000D03*
X223610000Y-96230000D03*
X226150000Y-98770000D03*
X226150000Y-96230000D03*
X228690000Y-98770000D03*
X228690000Y-96230000D03*
X231230000Y-98770000D03*
X231230000Y-96230000D03*
X233770000Y-98770000D03*
X233770000Y-96230000D03*
X236310000Y-98770000D03*
X236310000Y-96230000D03*
X238850000Y-98770000D03*
X238850000Y-96230000D03*
X241390000Y-98770000D03*
X241390000Y-96230000D03*
X243930000Y-98770000D03*
X243930000Y-96230000D03*
X246470000Y-98770000D03*
X246470000Y-96230000D03*
X249010000Y-98770000D03*
X249010000Y-96230000D03*
X251550000Y-98770000D03*
X251550000Y-96230000D03*
X254090000Y-98770000D03*
X254090000Y-96230000D03*
X256630000Y-98770000D03*
X256630000Y-96230000D03*
D10*
X204770000Y-124800000D03*
D11*
X202230000Y-124800000D03*
M02*
