G04 #@! TF.GenerationSoftware,KiCad,Pcbnew,(6.0.4)*
G04 #@! TF.CreationDate,2022-09-08T15:32:11-05:00*
G04 #@! TF.ProjectId,rascsi_2p6,72617363-7369-45f3-9270-362e6b696361,rev?*
G04 #@! TF.SameCoordinates,PX59d60c0PY325aa00*
G04 #@! TF.FileFunction,Legend,Top*
G04 #@! TF.FilePolarity,Positive*
%FSLAX46Y46*%
G04 Gerber Fmt 4.6, Leading zero omitted, Abs format (unit mm)*
G04 Created by KiCad (PCBNEW (6.0.4)) date 2022-09-08 15:32:11*
%MOMM*%
%LPD*%
G01*
G04 APERTURE LIST*
G04 Aperture macros list*
%AMRoundRect*
0 Rectangle with rounded corners*
0 $1 Rounding radius*
0 $2 $3 $4 $5 $6 $7 $8 $9 X,Y pos of 4 corners*
0 Add a 4 corners polygon primitive as box body*
4,1,4,$2,$3,$4,$5,$6,$7,$8,$9,$2,$3,0*
0 Add four circle primitives for the rounded corners*
1,1,$1+$1,$2,$3*
1,1,$1+$1,$4,$5*
1,1,$1+$1,$6,$7*
1,1,$1+$1,$8,$9*
0 Add four rect primitives between the rounded corners*
20,1,$1+$1,$2,$3,$4,$5,0*
20,1,$1+$1,$4,$5,$6,$7,0*
20,1,$1+$1,$6,$7,$8,$9,0*
20,1,$1+$1,$8,$9,$2,$3,0*%
G04 Aperture macros list end*
%ADD10C,0.120000*%
G04 #@! TA.AperFunction,Profile*
%ADD11C,0.050000*%
G04 #@! TD*
%ADD12C,0.150000*%
%ADD13C,0.100000*%
%ADD14C,0.400000*%
%ADD15C,0.254000*%
%ADD16C,0.125000*%
%ADD17C,0.200000*%
%ADD18C,0.010000*%
%ADD19C,1.545000*%
%ADD20C,4.845000*%
%ADD21RoundRect,0.243750X0.243750X0.456250X-0.243750X0.456250X-0.243750X-0.456250X0.243750X-0.456250X0*%
%ADD22C,0.800000*%
%ADD23C,5.400000*%
%ADD24R,1.700000X1.700000*%
%ADD25O,1.700000X1.700000*%
%ADD26RoundRect,0.250000X-0.450000X0.262500X-0.450000X-0.262500X0.450000X-0.262500X0.450000X0.262500X0*%
%ADD27RoundRect,0.250000X-0.625000X0.375000X-0.625000X-0.375000X0.625000X-0.375000X0.625000X0.375000X0*%
%ADD28R,0.650000X1.950000*%
%ADD29RoundRect,0.135000X-0.135000X-0.185000X0.135000X-0.185000X0.135000X0.185000X-0.135000X0.185000X0*%
%ADD30RoundRect,0.135000X-0.185000X0.135000X-0.185000X-0.135000X0.185000X-0.135000X0.185000X0.135000X0*%
%ADD31RoundRect,0.250000X0.450000X-0.262500X0.450000X0.262500X-0.450000X0.262500X-0.450000X-0.262500X0*%
%ADD32R,0.750000X1.425000*%
%ADD33R,1.100000X1.100000*%
%ADD34R,1.400000X0.400000*%
%ADD35C,2.000000*%
%ADD36R,1.350000X1.350000*%
%ADD37O,1.350000X1.350000*%
G04 APERTURE END LIST*
D10*
X87350453Y-7652000D02*
G75*
G03*
X87350453Y-7652000I-511953J0D01*
G01*
X89950000Y6826000D02*
X87283000Y6826000D01*
X137324953Y-2381500D02*
G75*
G03*
X137324953Y-2381500I-511953J0D01*
G01*
X109594000Y-39672000D02*
X111880000Y-39672000D01*
X111880000Y-39672000D02*
X111880000Y-41704000D01*
X111880000Y-41704000D02*
X109594000Y-41704000D01*
X109594000Y-41704000D02*
X109594000Y-39672000D01*
X128177000Y-33560000D02*
X130844000Y-33560000D01*
X130844000Y-33560000D02*
X130844000Y-36100000D01*
X130844000Y-36100000D02*
X128177000Y-36100000D01*
X128177000Y-36100000D02*
X128177000Y-33560000D01*
X88680000Y4159000D02*
X87283000Y4159000D01*
X124370953Y-2318000D02*
G75*
G03*
X124370953Y-2318000I-511953J0D01*
G01*
X138337000Y4159000D02*
X89950000Y4159000D01*
X118670000Y-19020000D02*
X136670000Y-19020000D01*
X136670000Y-19020000D02*
X136670000Y-24020000D01*
X136670000Y-24020000D02*
X118670000Y-24020000D01*
X118670000Y-24020000D02*
X118670000Y-19020000D01*
X87283000Y9493000D02*
X138337000Y9493000D01*
X87283000Y4159000D02*
X87283000Y5556000D01*
X127882000Y-39672000D02*
X129660000Y-39672000D01*
X129660000Y-39672000D02*
X129660000Y-43736000D01*
X129660000Y-43736000D02*
X127882000Y-43736000D01*
X127882000Y-43736000D02*
X127882000Y-39672000D01*
X89950000Y4159000D02*
X89950000Y6826000D01*
X118470000Y-18820000D02*
X136870000Y-18820000D01*
X136870000Y-18820000D02*
X136870000Y-24220000D01*
X136870000Y-24220000D02*
X118470000Y-24220000D01*
X118470000Y-24220000D02*
X118470000Y-18820000D01*
X118270000Y-18620000D02*
X137070000Y-18620000D01*
X137070000Y-18620000D02*
X137070000Y-24420000D01*
X137070000Y-24420000D02*
X118270000Y-24420000D01*
X118270000Y-24420000D02*
X118270000Y-18620000D01*
X128304000Y-33687000D02*
X130717000Y-33687000D01*
X130717000Y-33687000D02*
X130717000Y-35973000D01*
X130717000Y-35973000D02*
X128304000Y-35973000D01*
X128304000Y-35973000D02*
X128304000Y-33687000D01*
X138337000Y9493000D02*
X138337000Y4159000D01*
X86267000Y-33306000D02*
X139353000Y-33306000D01*
X139353000Y-33306000D02*
X139353000Y-45752000D01*
X139353000Y-45752000D02*
X86267000Y-45752000D01*
X86267000Y-45752000D02*
X86267000Y-33306000D01*
X109848000Y-39926000D02*
X111626000Y-39926000D01*
X111626000Y-39926000D02*
X111626000Y-41450000D01*
X111626000Y-41450000D02*
X109848000Y-41450000D01*
X109848000Y-41450000D02*
X109848000Y-39926000D01*
X87283000Y6826000D02*
X87283000Y9493000D01*
X100367953Y-7652000D02*
G75*
G03*
X100367953Y-7652000I-511953J0D01*
G01*
X127628000Y-39418000D02*
X129914000Y-39418000D01*
X129914000Y-39418000D02*
X129914000Y-43990000D01*
X129914000Y-43990000D02*
X127628000Y-43990000D01*
X127628000Y-43990000D02*
X127628000Y-39418000D01*
D11*
X83800000Y10300000D02*
X141800000Y10300000D01*
X83800000Y-45696000D02*
X141800000Y-45696000D01*
X141800000Y-45696000D02*
G75*
G03*
X145300000Y-42196000I0J3500000D01*
G01*
X80300000Y6800000D02*
X80300000Y-42196000D01*
X145300000Y6800000D02*
G75*
G03*
X141800000Y10300000I-3500000J0D01*
G01*
X83800000Y10300000D02*
G75*
G03*
X80300000Y6800000I0J-3500000D01*
G01*
X80300000Y-42196000D02*
G75*
G03*
X83800000Y-45696000I3500000J0D01*
G01*
X145300000Y6800000D02*
X145300000Y-42196000D01*
D12*
X136131428Y-16501904D02*
X136626666Y-16501904D01*
X136360000Y-16806666D01*
X136474285Y-16806666D01*
X136550476Y-16844761D01*
X136588571Y-16882857D01*
X136626666Y-16959047D01*
X136626666Y-17149523D01*
X136588571Y-17225714D01*
X136550476Y-17263809D01*
X136474285Y-17301904D01*
X136245714Y-17301904D01*
X136169523Y-17263809D01*
X136131428Y-17225714D01*
X136893333Y-16501904D02*
X137388571Y-16501904D01*
X137121904Y-16806666D01*
X137236190Y-16806666D01*
X137312380Y-16844761D01*
X137350476Y-16882857D01*
X137388571Y-16959047D01*
X137388571Y-17149523D01*
X137350476Y-17225714D01*
X137312380Y-17263809D01*
X137236190Y-17301904D01*
X137007619Y-17301904D01*
X136931428Y-17263809D01*
X136893333Y-17225714D01*
X137883809Y-16501904D02*
X137960000Y-16501904D01*
X138036190Y-16540000D01*
X138074285Y-16578095D01*
X138112380Y-16654285D01*
X138150476Y-16806666D01*
X138150476Y-16997142D01*
X138112380Y-17149523D01*
X138074285Y-17225714D01*
X138036190Y-17263809D01*
X137960000Y-17301904D01*
X137883809Y-17301904D01*
X137807619Y-17263809D01*
X137769523Y-17225714D01*
X137731428Y-17149523D01*
X137693333Y-16997142D01*
X137693333Y-16806666D01*
X137731428Y-16654285D01*
X137769523Y-16578095D01*
X137807619Y-16540000D01*
X137883809Y-16501904D01*
X81447390Y-55439D02*
X81409295Y-169725D01*
X81409295Y-360201D01*
X81447390Y-436391D01*
X81485485Y-474487D01*
X81561676Y-512582D01*
X81637866Y-512582D01*
X81714057Y-474487D01*
X81752152Y-436391D01*
X81790247Y-360201D01*
X81828342Y-207820D01*
X81866438Y-131629D01*
X81904533Y-93534D01*
X81980723Y-55439D01*
X82056914Y-55439D01*
X82133104Y-93534D01*
X82171200Y-131629D01*
X82209295Y-207820D01*
X82209295Y-398296D01*
X82171200Y-512582D01*
X81409295Y-855439D02*
X82209295Y-855439D01*
X82209295Y-1045915D01*
X82171200Y-1160201D01*
X82095009Y-1236391D01*
X82018819Y-1274487D01*
X81866438Y-1312582D01*
X81752152Y-1312582D01*
X81599771Y-1274487D01*
X81523580Y-1236391D01*
X81447390Y-1160201D01*
X81409295Y-1045915D01*
X81409295Y-855439D01*
X81637866Y-1617344D02*
X81637866Y-1998296D01*
X81409295Y-1541153D02*
X82209295Y-1807820D01*
X81409295Y-2074487D01*
X81447390Y-2745165D02*
X81409295Y-2859450D01*
X81409295Y-3049926D01*
X81447390Y-3126117D01*
X81485485Y-3164212D01*
X81561676Y-3202307D01*
X81637866Y-3202307D01*
X81714057Y-3164212D01*
X81752152Y-3126117D01*
X81790247Y-3049926D01*
X81828342Y-2897546D01*
X81866438Y-2821355D01*
X81904533Y-2783260D01*
X81980723Y-2745165D01*
X82056914Y-2745165D01*
X82133104Y-2783260D01*
X82171200Y-2821355D01*
X82209295Y-2897546D01*
X82209295Y-3088022D01*
X82171200Y-3202307D01*
X81485485Y-4002307D02*
X81447390Y-3964212D01*
X81409295Y-3849926D01*
X81409295Y-3773736D01*
X81447390Y-3659450D01*
X81523580Y-3583260D01*
X81599771Y-3545165D01*
X81752152Y-3507069D01*
X81866438Y-3507069D01*
X82018819Y-3545165D01*
X82095009Y-3583260D01*
X82171200Y-3659450D01*
X82209295Y-3773736D01*
X82209295Y-3849926D01*
X82171200Y-3964212D01*
X82133104Y-4002307D01*
X81409295Y-4726117D02*
X81409295Y-4345165D01*
X82209295Y-4345165D01*
X133923809Y3162096D02*
X133466666Y3162096D01*
X133695238Y3162096D02*
X133695238Y3962096D01*
X133619047Y3847810D01*
X133542857Y3771620D01*
X133466666Y3733524D01*
X134419047Y3962096D02*
X134495238Y3962096D01*
X134571428Y3924000D01*
X134609523Y3885905D01*
X134647619Y3809715D01*
X134685714Y3657334D01*
X134685714Y3466858D01*
X134647619Y3314477D01*
X134609523Y3238286D01*
X134571428Y3200191D01*
X134495238Y3162096D01*
X134419047Y3162096D01*
X134342857Y3200191D01*
X134304761Y3238286D01*
X134266666Y3314477D01*
X134228571Y3466858D01*
X134228571Y3657334D01*
X134266666Y3809715D01*
X134304761Y3885905D01*
X134342857Y3924000D01*
X134419047Y3962096D01*
X135028571Y3162096D02*
X135028571Y3962096D01*
X135104761Y3466858D02*
X135333333Y3162096D01*
X135333333Y3695429D02*
X135028571Y3390667D01*
X143812380Y-20844285D02*
X143812380Y-20225238D01*
X144193333Y-20558571D01*
X144193333Y-20415714D01*
X144240952Y-20320476D01*
X144288571Y-20272857D01*
X144383809Y-20225238D01*
X144621904Y-20225238D01*
X144717142Y-20272857D01*
X144764761Y-20320476D01*
X144812380Y-20415714D01*
X144812380Y-20701428D01*
X144764761Y-20796666D01*
X144717142Y-20844285D01*
X144145714Y-19891904D02*
X144812380Y-19653809D01*
X144145714Y-19415714D01*
X115343333Y-25732380D02*
X115343333Y-24732380D01*
X115771904Y-25732380D02*
X115771904Y-25208571D01*
X115724285Y-25113333D01*
X115629047Y-25065714D01*
X115486190Y-25065714D01*
X115390952Y-25113333D01*
X115343333Y-25160952D01*
X116105238Y-25065714D02*
X116486190Y-25065714D01*
X116248095Y-24732380D02*
X116248095Y-25589523D01*
X116295714Y-25684761D01*
X116390952Y-25732380D01*
X116486190Y-25732380D01*
X116676666Y-25065714D02*
X117057619Y-25065714D01*
X116819523Y-24732380D02*
X116819523Y-25589523D01*
X116867142Y-25684761D01*
X116962380Y-25732380D01*
X117057619Y-25732380D01*
X117390952Y-25065714D02*
X117390952Y-26065714D01*
X117390952Y-25113333D02*
X117486190Y-25065714D01*
X117676666Y-25065714D01*
X117771904Y-25113333D01*
X117819523Y-25160952D01*
X117867142Y-25256190D01*
X117867142Y-25541904D01*
X117819523Y-25637142D01*
X117771904Y-25684761D01*
X117676666Y-25732380D01*
X117486190Y-25732380D01*
X117390952Y-25684761D01*
X118248095Y-25684761D02*
X118343333Y-25732380D01*
X118533809Y-25732380D01*
X118629047Y-25684761D01*
X118676666Y-25589523D01*
X118676666Y-25541904D01*
X118629047Y-25446666D01*
X118533809Y-25399047D01*
X118390952Y-25399047D01*
X118295714Y-25351428D01*
X118248095Y-25256190D01*
X118248095Y-25208571D01*
X118295714Y-25113333D01*
X118390952Y-25065714D01*
X118533809Y-25065714D01*
X118629047Y-25113333D01*
X119105238Y-25637142D02*
X119152857Y-25684761D01*
X119105238Y-25732380D01*
X119057619Y-25684761D01*
X119105238Y-25637142D01*
X119105238Y-25732380D01*
X119105238Y-25113333D02*
X119152857Y-25160952D01*
X119105238Y-25208571D01*
X119057619Y-25160952D01*
X119105238Y-25113333D01*
X119105238Y-25208571D01*
X120295714Y-24684761D02*
X119438571Y-25970476D01*
X121343333Y-24684761D02*
X120486190Y-25970476D01*
X122105238Y-25065714D02*
X122105238Y-25875238D01*
X122057619Y-25970476D01*
X122010000Y-26018095D01*
X121914761Y-26065714D01*
X121771904Y-26065714D01*
X121676666Y-26018095D01*
X122105238Y-25684761D02*
X122010000Y-25732380D01*
X121819523Y-25732380D01*
X121724285Y-25684761D01*
X121676666Y-25637142D01*
X121629047Y-25541904D01*
X121629047Y-25256190D01*
X121676666Y-25160952D01*
X121724285Y-25113333D01*
X121819523Y-25065714D01*
X122010000Y-25065714D01*
X122105238Y-25113333D01*
X122581428Y-25732380D02*
X122581428Y-25065714D01*
X122581428Y-24732380D02*
X122533809Y-24780000D01*
X122581428Y-24827619D01*
X122629047Y-24780000D01*
X122581428Y-24732380D01*
X122581428Y-24827619D01*
X122914761Y-25065714D02*
X123295714Y-25065714D01*
X123057619Y-24732380D02*
X123057619Y-25589523D01*
X123105238Y-25684761D01*
X123200476Y-25732380D01*
X123295714Y-25732380D01*
X123629047Y-25732380D02*
X123629047Y-24732380D01*
X124057619Y-25732380D02*
X124057619Y-25208571D01*
X124010000Y-25113333D01*
X123914761Y-25065714D01*
X123771904Y-25065714D01*
X123676666Y-25113333D01*
X123629047Y-25160952D01*
X124962380Y-25065714D02*
X124962380Y-25732380D01*
X124533809Y-25065714D02*
X124533809Y-25589523D01*
X124581428Y-25684761D01*
X124676666Y-25732380D01*
X124819523Y-25732380D01*
X124914761Y-25684761D01*
X124962380Y-25637142D01*
X125438571Y-25732380D02*
X125438571Y-24732380D01*
X125438571Y-25113333D02*
X125533809Y-25065714D01*
X125724285Y-25065714D01*
X125819523Y-25113333D01*
X125867142Y-25160952D01*
X125914761Y-25256190D01*
X125914761Y-25541904D01*
X125867142Y-25637142D01*
X125819523Y-25684761D01*
X125724285Y-25732380D01*
X125533809Y-25732380D01*
X125438571Y-25684761D01*
X126343333Y-25637142D02*
X126390952Y-25684761D01*
X126343333Y-25732380D01*
X126295714Y-25684761D01*
X126343333Y-25637142D01*
X126343333Y-25732380D01*
X127248095Y-25684761D02*
X127152857Y-25732380D01*
X126962380Y-25732380D01*
X126867142Y-25684761D01*
X126819523Y-25637142D01*
X126771904Y-25541904D01*
X126771904Y-25256190D01*
X126819523Y-25160952D01*
X126867142Y-25113333D01*
X126962380Y-25065714D01*
X127152857Y-25065714D01*
X127248095Y-25113333D01*
X127819523Y-25732380D02*
X127724285Y-25684761D01*
X127676666Y-25637142D01*
X127629047Y-25541904D01*
X127629047Y-25256190D01*
X127676666Y-25160952D01*
X127724285Y-25113333D01*
X127819523Y-25065714D01*
X127962380Y-25065714D01*
X128057619Y-25113333D01*
X128105238Y-25160952D01*
X128152857Y-25256190D01*
X128152857Y-25541904D01*
X128105238Y-25637142D01*
X128057619Y-25684761D01*
X127962380Y-25732380D01*
X127819523Y-25732380D01*
X128581428Y-25732380D02*
X128581428Y-25065714D01*
X128581428Y-25160952D02*
X128629047Y-25113333D01*
X128724285Y-25065714D01*
X128867142Y-25065714D01*
X128962380Y-25113333D01*
X129010000Y-25208571D01*
X129010000Y-25732380D01*
X129010000Y-25208571D02*
X129057619Y-25113333D01*
X129152857Y-25065714D01*
X129295714Y-25065714D01*
X129390952Y-25113333D01*
X129438571Y-25208571D01*
X129438571Y-25732380D01*
X130629047Y-24684761D02*
X129771904Y-25970476D01*
X131390952Y-25732380D02*
X131390952Y-25208571D01*
X131343333Y-25113333D01*
X131248095Y-25065714D01*
X131057619Y-25065714D01*
X130962380Y-25113333D01*
X131390952Y-25684761D02*
X131295714Y-25732380D01*
X131057619Y-25732380D01*
X130962380Y-25684761D01*
X130914761Y-25589523D01*
X130914761Y-25494285D01*
X130962380Y-25399047D01*
X131057619Y-25351428D01*
X131295714Y-25351428D01*
X131390952Y-25303809D01*
X131867142Y-25732380D02*
X131867142Y-24732380D01*
X131962380Y-25351428D02*
X132248095Y-25732380D01*
X132248095Y-25065714D02*
X131867142Y-25446666D01*
X133105238Y-25065714D02*
X133105238Y-25732380D01*
X132676666Y-25065714D02*
X132676666Y-25589523D01*
X132724285Y-25684761D01*
X132819523Y-25732380D01*
X132962380Y-25732380D01*
X133057619Y-25684761D01*
X133105238Y-25637142D01*
X133581428Y-25732380D02*
X133581428Y-24732380D01*
X133676666Y-25351428D02*
X133962380Y-25732380D01*
X133962380Y-25065714D02*
X133581428Y-25446666D01*
X134771904Y-25684761D02*
X134676666Y-25732380D01*
X134486190Y-25732380D01*
X134390952Y-25684761D01*
X134343333Y-25589523D01*
X134343333Y-25208571D01*
X134390952Y-25113333D01*
X134486190Y-25065714D01*
X134676666Y-25065714D01*
X134771904Y-25113333D01*
X134819523Y-25208571D01*
X134819523Y-25303809D01*
X134343333Y-25399047D01*
X135248095Y-25732380D02*
X135248095Y-25065714D01*
X135248095Y-25256190D02*
X135295714Y-25160952D01*
X135343333Y-25113333D01*
X135438571Y-25065714D01*
X135533809Y-25065714D01*
X136581428Y-24684761D02*
X135724285Y-25970476D01*
X137486190Y-25732380D02*
X137152857Y-25256190D01*
X136914761Y-25732380D02*
X136914761Y-24732380D01*
X137295714Y-24732380D01*
X137390952Y-24780000D01*
X137438571Y-24827619D01*
X137486190Y-24922857D01*
X137486190Y-25065714D01*
X137438571Y-25160952D01*
X137390952Y-25208571D01*
X137295714Y-25256190D01*
X136914761Y-25256190D01*
X137867142Y-25446666D02*
X138343333Y-25446666D01*
X137771904Y-25732380D02*
X138105238Y-24732380D01*
X138438571Y-25732380D01*
X138724285Y-25684761D02*
X138867142Y-25732380D01*
X139105238Y-25732380D01*
X139200476Y-25684761D01*
X139248095Y-25637142D01*
X139295714Y-25541904D01*
X139295714Y-25446666D01*
X139248095Y-25351428D01*
X139200476Y-25303809D01*
X139105238Y-25256190D01*
X138914761Y-25208571D01*
X138819523Y-25160952D01*
X138771904Y-25113333D01*
X138724285Y-25018095D01*
X138724285Y-24922857D01*
X138771904Y-24827619D01*
X138819523Y-24780000D01*
X138914761Y-24732380D01*
X139152857Y-24732380D01*
X139295714Y-24780000D01*
X140295714Y-25637142D02*
X140248095Y-25684761D01*
X140105238Y-25732380D01*
X140010000Y-25732380D01*
X139867142Y-25684761D01*
X139771904Y-25589523D01*
X139724285Y-25494285D01*
X139676666Y-25303809D01*
X139676666Y-25160952D01*
X139724285Y-24970476D01*
X139771904Y-24875238D01*
X139867142Y-24780000D01*
X140010000Y-24732380D01*
X140105238Y-24732380D01*
X140248095Y-24780000D01*
X140295714Y-24827619D01*
X140676666Y-25684761D02*
X140819523Y-25732380D01*
X141057619Y-25732380D01*
X141152857Y-25684761D01*
X141200476Y-25637142D01*
X141248095Y-25541904D01*
X141248095Y-25446666D01*
X141200476Y-25351428D01*
X141152857Y-25303809D01*
X141057619Y-25256190D01*
X140867142Y-25208571D01*
X140771904Y-25160952D01*
X140724285Y-25113333D01*
X140676666Y-25018095D01*
X140676666Y-24922857D01*
X140724285Y-24827619D01*
X140771904Y-24780000D01*
X140867142Y-24732380D01*
X141105238Y-24732380D01*
X141248095Y-24780000D01*
X141676666Y-25732380D02*
X141676666Y-24732380D01*
X141535952Y436334D02*
X142012142Y436334D01*
X141440714Y150620D02*
X141774047Y1150620D01*
X142107380Y150620D01*
X143012142Y245858D02*
X142964523Y198239D01*
X142821666Y150620D01*
X142726428Y150620D01*
X142583571Y198239D01*
X142488333Y293477D01*
X142440714Y388715D01*
X142393095Y579191D01*
X142393095Y722048D01*
X142440714Y912524D01*
X142488333Y1007762D01*
X142583571Y1103000D01*
X142726428Y1150620D01*
X142821666Y1150620D01*
X142964523Y1103000D01*
X143012142Y1055381D01*
X143297857Y1150620D02*
X143869285Y1150620D01*
X143583571Y150620D02*
X143583571Y1150620D01*
X141416904Y-3262571D02*
X141750238Y-3262571D01*
X141893095Y-3786380D02*
X141416904Y-3786380D01*
X141416904Y-2786380D01*
X141893095Y-2786380D01*
X142321666Y-3786380D02*
X142321666Y-2786380D01*
X142893095Y-3786380D01*
X142893095Y-2786380D01*
X143702619Y-3262571D02*
X143845476Y-3310190D01*
X143893095Y-3357809D01*
X143940714Y-3453047D01*
X143940714Y-3595904D01*
X143893095Y-3691142D01*
X143845476Y-3738761D01*
X143750238Y-3786380D01*
X143369285Y-3786380D01*
X143369285Y-2786380D01*
X143702619Y-2786380D01*
X143797857Y-2834000D01*
X143845476Y-2881619D01*
X143893095Y-2976857D01*
X143893095Y-3072095D01*
X143845476Y-3167333D01*
X143797857Y-3214952D01*
X143702619Y-3262571D01*
X143369285Y-3262571D01*
X111333666Y4008120D02*
X111333666Y3293834D01*
X111286047Y3150977D01*
X111190809Y3055739D01*
X111047952Y3008120D01*
X110952714Y3008120D01*
X112333666Y3008120D02*
X111762238Y3008120D01*
X112047952Y3008120D02*
X112047952Y4008120D01*
X111952714Y3865262D01*
X111857476Y3770024D01*
X111762238Y3722405D01*
X138597404Y-11436214D02*
X139245023Y-11436214D01*
X139321214Y-11398119D01*
X139359309Y-11360023D01*
X139397404Y-11283833D01*
X139397404Y-11131452D01*
X139359309Y-11055261D01*
X139321214Y-11017166D01*
X139245023Y-10979071D01*
X138597404Y-10979071D01*
X139359309Y-10636214D02*
X139397404Y-10521928D01*
X139397404Y-10331452D01*
X139359309Y-10255261D01*
X139321214Y-10217166D01*
X139245023Y-10179071D01*
X139168833Y-10179071D01*
X139092642Y-10217166D01*
X139054547Y-10255261D01*
X139016452Y-10331452D01*
X138978357Y-10483833D01*
X138940261Y-10560023D01*
X138902166Y-10598119D01*
X138825976Y-10636214D01*
X138749785Y-10636214D01*
X138673595Y-10598119D01*
X138635500Y-10560023D01*
X138597404Y-10483833D01*
X138597404Y-10293357D01*
X138635500Y-10179071D01*
X138978357Y-9569547D02*
X139016452Y-9455261D01*
X139054547Y-9417166D01*
X139130738Y-9379071D01*
X139245023Y-9379071D01*
X139321214Y-9417166D01*
X139359309Y-9455261D01*
X139397404Y-9531452D01*
X139397404Y-9836214D01*
X138597404Y-9836214D01*
X138597404Y-9569547D01*
X138635500Y-9493357D01*
X138673595Y-9455261D01*
X138749785Y-9417166D01*
X138825976Y-9417166D01*
X138902166Y-9455261D01*
X138940261Y-9493357D01*
X138978357Y-9569547D01*
X138978357Y-9836214D01*
X139397404Y-8426690D02*
X138597404Y-8426690D01*
X138597404Y-8121928D01*
X138635500Y-8045738D01*
X138673595Y-8007642D01*
X138749785Y-7969547D01*
X138864071Y-7969547D01*
X138940261Y-8007642D01*
X138978357Y-8045738D01*
X139016452Y-8121928D01*
X139016452Y-8426690D01*
X139397404Y-7512404D02*
X139359309Y-7588595D01*
X139321214Y-7626690D01*
X139245023Y-7664785D01*
X139016452Y-7664785D01*
X138940261Y-7626690D01*
X138902166Y-7588595D01*
X138864071Y-7512404D01*
X138864071Y-7398119D01*
X138902166Y-7321928D01*
X138940261Y-7283833D01*
X139016452Y-7245738D01*
X139245023Y-7245738D01*
X139321214Y-7283833D01*
X139359309Y-7321928D01*
X139397404Y-7398119D01*
X139397404Y-7512404D01*
X138864071Y-6979071D02*
X139397404Y-6826690D01*
X139016452Y-6674309D01*
X139397404Y-6521928D01*
X138864071Y-6369547D01*
X139359309Y-5760023D02*
X139397404Y-5836214D01*
X139397404Y-5988595D01*
X139359309Y-6064785D01*
X139283119Y-6102880D01*
X138978357Y-6102880D01*
X138902166Y-6064785D01*
X138864071Y-5988595D01*
X138864071Y-5836214D01*
X138902166Y-5760023D01*
X138978357Y-5721928D01*
X139054547Y-5721928D01*
X139130738Y-6102880D01*
X139397404Y-5379071D02*
X138864071Y-5379071D01*
X139016452Y-5379071D02*
X138940261Y-5340976D01*
X138902166Y-5302880D01*
X138864071Y-5226690D01*
X138864071Y-5150500D01*
X96087619Y-44821809D02*
X96201904Y-44859904D01*
X96392380Y-44859904D01*
X96468571Y-44821809D01*
X96506666Y-44783714D01*
X96544761Y-44707523D01*
X96544761Y-44631333D01*
X96506666Y-44555142D01*
X96468571Y-44517047D01*
X96392380Y-44478952D01*
X96240000Y-44440857D01*
X96163809Y-44402761D01*
X96125714Y-44364666D01*
X96087619Y-44288476D01*
X96087619Y-44212285D01*
X96125714Y-44136095D01*
X96163809Y-44098000D01*
X96240000Y-44059904D01*
X96430476Y-44059904D01*
X96544761Y-44098000D01*
X97268571Y-44859904D02*
X96887619Y-44859904D01*
X96887619Y-44059904D01*
X92658571Y-44859904D02*
X92391904Y-44478952D01*
X92201428Y-44859904D02*
X92201428Y-44059904D01*
X92506190Y-44059904D01*
X92582380Y-44098000D01*
X92620476Y-44136095D01*
X92658571Y-44212285D01*
X92658571Y-44326571D01*
X92620476Y-44402761D01*
X92582380Y-44440857D01*
X92506190Y-44478952D01*
X92201428Y-44478952D01*
X93534761Y-44936095D02*
X93458571Y-44898000D01*
X93382380Y-44821809D01*
X93268095Y-44707523D01*
X93191904Y-44669428D01*
X93115714Y-44669428D01*
X93153809Y-44859904D02*
X93077619Y-44821809D01*
X93001428Y-44745619D01*
X92963333Y-44593238D01*
X92963333Y-44326571D01*
X93001428Y-44174190D01*
X93077619Y-44098000D01*
X93153809Y-44059904D01*
X93306190Y-44059904D01*
X93382380Y-44098000D01*
X93458571Y-44174190D01*
X93496666Y-44326571D01*
X93496666Y-44593238D01*
X93458571Y-44745619D01*
X93382380Y-44821809D01*
X93306190Y-44859904D01*
X93153809Y-44859904D01*
X94455619Y-44783714D02*
X94417523Y-44821809D01*
X94303238Y-44859904D01*
X94227047Y-44859904D01*
X94112761Y-44821809D01*
X94036571Y-44745619D01*
X93998476Y-44669428D01*
X93960380Y-44517047D01*
X93960380Y-44402761D01*
X93998476Y-44250380D01*
X94036571Y-44174190D01*
X94112761Y-44098000D01*
X94227047Y-44059904D01*
X94303238Y-44059904D01*
X94417523Y-44098000D01*
X94455619Y-44136095D01*
X94798476Y-44859904D02*
X94798476Y-44059904D01*
X94988952Y-44059904D01*
X95103238Y-44098000D01*
X95179428Y-44174190D01*
X95217523Y-44250380D01*
X95255619Y-44402761D01*
X95255619Y-44517047D01*
X95217523Y-44669428D01*
X95179428Y-44745619D01*
X95103238Y-44821809D01*
X94988952Y-44859904D01*
X94798476Y-44859904D01*
X88651714Y-44059904D02*
X88270761Y-44059904D01*
X88232666Y-44440857D01*
X88270761Y-44402761D01*
X88346952Y-44364666D01*
X88537428Y-44364666D01*
X88613619Y-44402761D01*
X88651714Y-44440857D01*
X88689809Y-44517047D01*
X88689809Y-44707523D01*
X88651714Y-44783714D01*
X88613619Y-44821809D01*
X88537428Y-44859904D01*
X88346952Y-44859904D01*
X88270761Y-44821809D01*
X88232666Y-44783714D01*
X88956476Y-44326571D02*
X89146952Y-44859904D01*
X89337428Y-44326571D01*
X98005333Y-44859904D02*
X98005333Y-44059904D01*
X98272000Y-44631333D01*
X98538666Y-44059904D01*
X98538666Y-44859904D01*
X99338666Y-44098000D02*
X99262476Y-44059904D01*
X99148190Y-44059904D01*
X99033904Y-44098000D01*
X98957714Y-44174190D01*
X98919619Y-44250380D01*
X98881523Y-44402761D01*
X98881523Y-44517047D01*
X98919619Y-44669428D01*
X98957714Y-44745619D01*
X99033904Y-44821809D01*
X99148190Y-44859904D01*
X99224380Y-44859904D01*
X99338666Y-44821809D01*
X99376761Y-44783714D01*
X99376761Y-44517047D01*
X99224380Y-44517047D01*
X126751714Y-44059904D02*
X126370761Y-44059904D01*
X126332666Y-44440857D01*
X126370761Y-44402761D01*
X126446952Y-44364666D01*
X126637428Y-44364666D01*
X126713619Y-44402761D01*
X126751714Y-44440857D01*
X126789809Y-44517047D01*
X126789809Y-44707523D01*
X126751714Y-44783714D01*
X126713619Y-44821809D01*
X126637428Y-44859904D01*
X126446952Y-44859904D01*
X126370761Y-44821809D01*
X126332666Y-44783714D01*
X127056476Y-44326571D02*
X127246952Y-44859904D01*
X127437428Y-44326571D01*
X100113523Y-44631333D02*
X100494476Y-44631333D01*
X100037333Y-44859904D02*
X100304000Y-44059904D01*
X100570666Y-44859904D01*
X100837333Y-44859904D02*
X100837333Y-44059904D01*
X101294476Y-44859904D02*
X100951619Y-44402761D01*
X101294476Y-44059904D02*
X100837333Y-44517047D01*
X102450285Y-44440857D02*
X102564571Y-44478952D01*
X102602666Y-44517047D01*
X102640761Y-44593238D01*
X102640761Y-44707523D01*
X102602666Y-44783714D01*
X102564571Y-44821809D01*
X102488380Y-44859904D01*
X102183619Y-44859904D01*
X102183619Y-44059904D01*
X102450285Y-44059904D01*
X102526476Y-44098000D01*
X102564571Y-44136095D01*
X102602666Y-44212285D01*
X102602666Y-44288476D01*
X102564571Y-44364666D01*
X102526476Y-44402761D01*
X102450285Y-44440857D01*
X102183619Y-44440857D01*
X103136000Y-44478952D02*
X103136000Y-44859904D01*
X102869333Y-44059904D02*
X103136000Y-44478952D01*
X103402666Y-44059904D01*
X110019523Y-44859904D02*
X110019523Y-44059904D01*
X110210000Y-44059904D01*
X110324285Y-44098000D01*
X110400476Y-44174190D01*
X110438571Y-44250380D01*
X110476666Y-44402761D01*
X110476666Y-44517047D01*
X110438571Y-44669428D01*
X110400476Y-44745619D01*
X110324285Y-44821809D01*
X110210000Y-44859904D01*
X110019523Y-44859904D01*
X111162380Y-44059904D02*
X111010000Y-44059904D01*
X110933809Y-44098000D01*
X110895714Y-44136095D01*
X110819523Y-44250380D01*
X110781428Y-44402761D01*
X110781428Y-44707523D01*
X110819523Y-44783714D01*
X110857619Y-44821809D01*
X110933809Y-44859904D01*
X111086190Y-44859904D01*
X111162380Y-44821809D01*
X111200476Y-44783714D01*
X111238571Y-44707523D01*
X111238571Y-44517047D01*
X111200476Y-44440857D01*
X111162380Y-44402761D01*
X111086190Y-44364666D01*
X110933809Y-44364666D01*
X110857619Y-44402761D01*
X110819523Y-44440857D01*
X110781428Y-44517047D01*
X107987523Y-44859904D02*
X107987523Y-44059904D01*
X108178000Y-44059904D01*
X108292285Y-44098000D01*
X108368476Y-44174190D01*
X108406571Y-44250380D01*
X108444666Y-44402761D01*
X108444666Y-44517047D01*
X108406571Y-44669428D01*
X108368476Y-44745619D01*
X108292285Y-44821809D01*
X108178000Y-44859904D01*
X107987523Y-44859904D01*
X108711333Y-44059904D02*
X109244666Y-44059904D01*
X108901809Y-44859904D01*
X114083523Y-44859904D02*
X114083523Y-44059904D01*
X114274000Y-44059904D01*
X114388285Y-44098000D01*
X114464476Y-44174190D01*
X114502571Y-44250380D01*
X114540666Y-44402761D01*
X114540666Y-44517047D01*
X114502571Y-44669428D01*
X114464476Y-44745619D01*
X114388285Y-44821809D01*
X114274000Y-44859904D01*
X114083523Y-44859904D01*
X115226380Y-44326571D02*
X115226380Y-44859904D01*
X115035904Y-44021809D02*
X114845428Y-44593238D01*
X115340666Y-44593238D01*
X116115523Y-44859904D02*
X116115523Y-44059904D01*
X116306000Y-44059904D01*
X116420285Y-44098000D01*
X116496476Y-44174190D01*
X116534571Y-44250380D01*
X116572666Y-44402761D01*
X116572666Y-44517047D01*
X116534571Y-44669428D01*
X116496476Y-44745619D01*
X116420285Y-44821809D01*
X116306000Y-44859904D01*
X116115523Y-44859904D01*
X116839333Y-44059904D02*
X117334571Y-44059904D01*
X117067904Y-44364666D01*
X117182190Y-44364666D01*
X117258380Y-44402761D01*
X117296476Y-44440857D01*
X117334571Y-44517047D01*
X117334571Y-44707523D01*
X117296476Y-44783714D01*
X117258380Y-44821809D01*
X117182190Y-44859904D01*
X116953619Y-44859904D01*
X116877428Y-44821809D01*
X116839333Y-44783714D01*
X118147523Y-44859904D02*
X118147523Y-44059904D01*
X118338000Y-44059904D01*
X118452285Y-44098000D01*
X118528476Y-44174190D01*
X118566571Y-44250380D01*
X118604666Y-44402761D01*
X118604666Y-44517047D01*
X118566571Y-44669428D01*
X118528476Y-44745619D01*
X118452285Y-44821809D01*
X118338000Y-44859904D01*
X118147523Y-44859904D01*
X118909428Y-44136095D02*
X118947523Y-44098000D01*
X119023714Y-44059904D01*
X119214190Y-44059904D01*
X119290380Y-44098000D01*
X119328476Y-44136095D01*
X119366571Y-44212285D01*
X119366571Y-44288476D01*
X119328476Y-44402761D01*
X118871333Y-44859904D01*
X119366571Y-44859904D01*
X121957523Y-44859904D02*
X121957523Y-44059904D01*
X122148000Y-44059904D01*
X122262285Y-44098000D01*
X122338476Y-44174190D01*
X122376571Y-44250380D01*
X122414666Y-44402761D01*
X122414666Y-44517047D01*
X122376571Y-44669428D01*
X122338476Y-44745619D01*
X122262285Y-44821809D01*
X122148000Y-44859904D01*
X121957523Y-44859904D01*
X122909904Y-44059904D02*
X122986095Y-44059904D01*
X123062285Y-44098000D01*
X123100380Y-44136095D01*
X123138476Y-44212285D01*
X123176571Y-44364666D01*
X123176571Y-44555142D01*
X123138476Y-44707523D01*
X123100380Y-44783714D01*
X123062285Y-44821809D01*
X122986095Y-44859904D01*
X122909904Y-44859904D01*
X122833714Y-44821809D01*
X122795619Y-44783714D01*
X122757523Y-44707523D01*
X122719428Y-44555142D01*
X122719428Y-44364666D01*
X122757523Y-44212285D01*
X122795619Y-44136095D01*
X122833714Y-44098000D01*
X122909904Y-44059904D01*
X120179523Y-44859904D02*
X120179523Y-44059904D01*
X120370000Y-44059904D01*
X120484285Y-44098000D01*
X120560476Y-44174190D01*
X120598571Y-44250380D01*
X120636666Y-44402761D01*
X120636666Y-44517047D01*
X120598571Y-44669428D01*
X120560476Y-44745619D01*
X120484285Y-44821809D01*
X120370000Y-44859904D01*
X120179523Y-44859904D01*
X121398571Y-44859904D02*
X120941428Y-44859904D01*
X121170000Y-44859904D02*
X121170000Y-44059904D01*
X121093809Y-44174190D01*
X121017619Y-44250380D01*
X120941428Y-44288476D01*
X112051523Y-44859904D02*
X112051523Y-44059904D01*
X112242000Y-44059904D01*
X112356285Y-44098000D01*
X112432476Y-44174190D01*
X112470571Y-44250380D01*
X112508666Y-44402761D01*
X112508666Y-44517047D01*
X112470571Y-44669428D01*
X112432476Y-44745619D01*
X112356285Y-44821809D01*
X112242000Y-44859904D01*
X112051523Y-44859904D01*
X113232476Y-44059904D02*
X112851523Y-44059904D01*
X112813428Y-44440857D01*
X112851523Y-44402761D01*
X112927714Y-44364666D01*
X113118190Y-44364666D01*
X113194380Y-44402761D01*
X113232476Y-44440857D01*
X113270571Y-44517047D01*
X113270571Y-44707523D01*
X113232476Y-44783714D01*
X113194380Y-44821809D01*
X113118190Y-44859904D01*
X112927714Y-44859904D01*
X112851523Y-44821809D01*
X112813428Y-44783714D01*
X106190476Y-44859904D02*
X106190476Y-44059904D01*
X106380952Y-44059904D01*
X106495238Y-44098000D01*
X106571428Y-44174190D01*
X106609523Y-44250380D01*
X106647619Y-44402761D01*
X106647619Y-44517047D01*
X106609523Y-44669428D01*
X106571428Y-44745619D01*
X106495238Y-44821809D01*
X106380952Y-44859904D01*
X106190476Y-44859904D01*
X106990476Y-44859904D02*
X106990476Y-44059904D01*
X107295238Y-44059904D01*
X107371428Y-44098000D01*
X107409523Y-44136095D01*
X107447619Y-44212285D01*
X107447619Y-44326571D01*
X107409523Y-44402761D01*
X107371428Y-44440857D01*
X107295238Y-44478952D01*
X106990476Y-44478952D01*
X130161714Y-44859904D02*
X129780761Y-44859904D01*
X129780761Y-44059904D01*
X130428380Y-44440857D02*
X130695047Y-44440857D01*
X130809333Y-44859904D02*
X130428380Y-44859904D01*
X130428380Y-44059904D01*
X130809333Y-44059904D01*
X131152190Y-44859904D02*
X131152190Y-44059904D01*
X131342666Y-44059904D01*
X131456952Y-44098000D01*
X131533142Y-44174190D01*
X131571238Y-44250380D01*
X131609333Y-44402761D01*
X131609333Y-44517047D01*
X131571238Y-44669428D01*
X131533142Y-44745619D01*
X131456952Y-44821809D01*
X131342666Y-44859904D01*
X131152190Y-44859904D01*
X92528476Y-34044380D02*
X92528476Y-34758666D01*
X92480857Y-34901523D01*
X92385619Y-34996761D01*
X92242761Y-35044380D01*
X92147523Y-35044380D01*
X93528476Y-35044380D02*
X92957047Y-35044380D01*
X93242761Y-35044380D02*
X93242761Y-34044380D01*
X93147523Y-34187238D01*
X93052285Y-34282476D01*
X92957047Y-34330095D01*
X94147523Y-34044380D02*
X94242761Y-34044380D01*
X94338000Y-34092000D01*
X94385619Y-34139619D01*
X94433238Y-34234857D01*
X94480857Y-34425333D01*
X94480857Y-34663428D01*
X94433238Y-34853904D01*
X94385619Y-34949142D01*
X94338000Y-34996761D01*
X94242761Y-35044380D01*
X94147523Y-35044380D01*
X94052285Y-34996761D01*
X94004666Y-34949142D01*
X93957047Y-34853904D01*
X93909428Y-34663428D01*
X93909428Y-34425333D01*
X93957047Y-34234857D01*
X94004666Y-34139619D01*
X94052285Y-34092000D01*
X94147523Y-34044380D01*
D13*
X105096666Y-11826500D02*
X105196666Y-11859833D01*
X105230000Y-11893166D01*
X105263333Y-11959833D01*
X105263333Y-12059833D01*
X105230000Y-12126500D01*
X105196666Y-12159833D01*
X105130000Y-12193166D01*
X104863333Y-12193166D01*
X104863333Y-11493166D01*
X105096666Y-11493166D01*
X105163333Y-11526500D01*
X105196666Y-11559833D01*
X105230000Y-11626500D01*
X105230000Y-11693166D01*
X105196666Y-11759833D01*
X105163333Y-11793166D01*
X105096666Y-11826500D01*
X104863333Y-11826500D01*
X105830000Y-12159833D02*
X105763333Y-12193166D01*
X105630000Y-12193166D01*
X105563333Y-12159833D01*
X105530000Y-12093166D01*
X105530000Y-11826500D01*
X105563333Y-11759833D01*
X105630000Y-11726500D01*
X105763333Y-11726500D01*
X105830000Y-11759833D01*
X105863333Y-11826500D01*
X105863333Y-11893166D01*
X105530000Y-11959833D01*
X106163333Y-12193166D02*
X106163333Y-11726500D01*
X106163333Y-11859833D02*
X106196666Y-11793166D01*
X106230000Y-11759833D01*
X106296666Y-11726500D01*
X106363333Y-11726500D01*
X106896666Y-11726500D02*
X106896666Y-12293166D01*
X106863333Y-12359833D01*
X106830000Y-12393166D01*
X106763333Y-12426500D01*
X106663333Y-12426500D01*
X106596666Y-12393166D01*
X106896666Y-12159833D02*
X106830000Y-12193166D01*
X106696666Y-12193166D01*
X106630000Y-12159833D01*
X106596666Y-12126500D01*
X106563333Y-12059833D01*
X106563333Y-11859833D01*
X106596666Y-11793166D01*
X106630000Y-11759833D01*
X106696666Y-11726500D01*
X106830000Y-11726500D01*
X106896666Y-11759833D01*
X105146666Y-13253500D02*
X105113333Y-13286833D01*
X105013333Y-13320166D01*
X104946666Y-13320166D01*
X104846666Y-13286833D01*
X104780000Y-13220166D01*
X104746666Y-13153500D01*
X104713333Y-13020166D01*
X104713333Y-12920166D01*
X104746666Y-12786833D01*
X104780000Y-12720166D01*
X104846666Y-12653500D01*
X104946666Y-12620166D01*
X105013333Y-12620166D01*
X105113333Y-12653500D01*
X105146666Y-12686833D01*
X105546666Y-13320166D02*
X105480000Y-13286833D01*
X105446666Y-13253500D01*
X105413333Y-13186833D01*
X105413333Y-12986833D01*
X105446666Y-12920166D01*
X105480000Y-12886833D01*
X105546666Y-12853500D01*
X105646666Y-12853500D01*
X105713333Y-12886833D01*
X105746666Y-12920166D01*
X105780000Y-12986833D01*
X105780000Y-13186833D01*
X105746666Y-13253500D01*
X105713333Y-13286833D01*
X105646666Y-13320166D01*
X105546666Y-13320166D01*
X106080000Y-12853500D02*
X106080000Y-13320166D01*
X106080000Y-12920166D02*
X106113333Y-12886833D01*
X106180000Y-12853500D01*
X106280000Y-12853500D01*
X106346666Y-12886833D01*
X106380000Y-12953500D01*
X106380000Y-13320166D01*
X106713333Y-12853500D02*
X106713333Y-13320166D01*
X106713333Y-12920166D02*
X106746666Y-12886833D01*
X106813333Y-12853500D01*
X106913333Y-12853500D01*
X106980000Y-12886833D01*
X107013333Y-12953500D01*
X107013333Y-13320166D01*
D12*
X82209295Y-5358699D02*
X82209295Y-5853937D01*
X81904533Y-5587271D01*
X81904533Y-5701556D01*
X81866438Y-5777747D01*
X81828342Y-5815842D01*
X81752152Y-5853937D01*
X81561676Y-5853937D01*
X81485485Y-5815842D01*
X81447390Y-5777747D01*
X81409295Y-5701556D01*
X81409295Y-5472985D01*
X81447390Y-5396795D01*
X81485485Y-5358699D01*
X81485485Y-6196795D02*
X81447390Y-6234890D01*
X81409295Y-6196795D01*
X81447390Y-6158699D01*
X81485485Y-6196795D01*
X81409295Y-6196795D01*
X82209295Y-6501556D02*
X82209295Y-6996795D01*
X81904533Y-6730128D01*
X81904533Y-6844414D01*
X81866438Y-6920604D01*
X81828342Y-6958699D01*
X81752152Y-6996795D01*
X81561676Y-6996795D01*
X81485485Y-6958699D01*
X81447390Y-6920604D01*
X81409295Y-6844414D01*
X81409295Y-6615842D01*
X81447390Y-6539652D01*
X81485485Y-6501556D01*
X93385409Y3162096D02*
X92928266Y3162096D01*
X93156838Y3162096D02*
X93156838Y3962096D01*
X93080647Y3847810D01*
X93004457Y3771620D01*
X92928266Y3733524D01*
X93880647Y3962096D02*
X93956838Y3962096D01*
X94033028Y3924000D01*
X94071123Y3885905D01*
X94109219Y3809715D01*
X94147314Y3657334D01*
X94147314Y3466858D01*
X94109219Y3314477D01*
X94071123Y3238286D01*
X94033028Y3200191D01*
X93956838Y3162096D01*
X93880647Y3162096D01*
X93804457Y3200191D01*
X93766361Y3238286D01*
X93728266Y3314477D01*
X93690171Y3466858D01*
X93690171Y3657334D01*
X93728266Y3809715D01*
X93766361Y3885905D01*
X93804457Y3924000D01*
X93880647Y3962096D01*
X94490171Y3162096D02*
X94490171Y3962096D01*
X94566361Y3466858D02*
X94794933Y3162096D01*
X94794933Y3695429D02*
X94490171Y3390667D01*
X82209295Y-11042914D02*
X82209295Y-10661961D01*
X81828342Y-10623866D01*
X81866438Y-10661961D01*
X81904533Y-10738152D01*
X81904533Y-10928628D01*
X81866438Y-11004819D01*
X81828342Y-11042914D01*
X81752152Y-11081009D01*
X81561676Y-11081009D01*
X81485485Y-11042914D01*
X81447390Y-11004819D01*
X81409295Y-10928628D01*
X81409295Y-10738152D01*
X81447390Y-10661961D01*
X81485485Y-10623866D01*
X81942628Y-11347676D02*
X81409295Y-11538152D01*
X81942628Y-11728628D01*
X86654666Y-39378380D02*
X86654666Y-40092666D01*
X86607047Y-40235523D01*
X86511809Y-40330761D01*
X86368952Y-40378380D01*
X86273714Y-40378380D01*
X87178476Y-40378380D02*
X87368952Y-40378380D01*
X87464190Y-40330761D01*
X87511809Y-40283142D01*
X87607047Y-40140285D01*
X87654666Y-39949809D01*
X87654666Y-39568857D01*
X87607047Y-39473619D01*
X87559428Y-39426000D01*
X87464190Y-39378380D01*
X87273714Y-39378380D01*
X87178476Y-39426000D01*
X87130857Y-39473619D01*
X87083238Y-39568857D01*
X87083238Y-39806952D01*
X87130857Y-39902190D01*
X87178476Y-39949809D01*
X87273714Y-39997428D01*
X87464190Y-39997428D01*
X87559428Y-39949809D01*
X87607047Y-39902190D01*
X87654666Y-39806952D01*
X111057380Y-20620476D02*
X111057380Y-20049047D01*
X112057380Y-20334761D02*
X111057380Y-20334761D01*
X112009761Y-19334761D02*
X112057380Y-19430000D01*
X112057380Y-19620476D01*
X112009761Y-19715714D01*
X111914523Y-19763333D01*
X111533571Y-19763333D01*
X111438333Y-19715714D01*
X111390714Y-19620476D01*
X111390714Y-19430000D01*
X111438333Y-19334761D01*
X111533571Y-19287142D01*
X111628809Y-19287142D01*
X111724047Y-19763333D01*
X112057380Y-18858571D02*
X111390714Y-18858571D01*
X111581190Y-18858571D02*
X111485952Y-18810952D01*
X111438333Y-18763333D01*
X111390714Y-18668095D01*
X111390714Y-18572857D01*
X112057380Y-18239523D02*
X111390714Y-18239523D01*
X111485952Y-18239523D02*
X111438333Y-18191904D01*
X111390714Y-18096666D01*
X111390714Y-17953809D01*
X111438333Y-17858571D01*
X111533571Y-17810952D01*
X112057380Y-17810952D01*
X111533571Y-17810952D02*
X111438333Y-17763333D01*
X111390714Y-17668095D01*
X111390714Y-17525238D01*
X111438333Y-17430000D01*
X111533571Y-17382380D01*
X112057380Y-17382380D01*
X113143571Y-21191904D02*
X113143571Y-20858571D01*
X113667380Y-20715714D02*
X113667380Y-21191904D01*
X112667380Y-21191904D01*
X112667380Y-20715714D01*
X113000714Y-20287142D02*
X113667380Y-20287142D01*
X113095952Y-20287142D02*
X113048333Y-20239523D01*
X113000714Y-20144285D01*
X113000714Y-20001428D01*
X113048333Y-19906190D01*
X113143571Y-19858571D01*
X113667380Y-19858571D01*
X113667380Y-18953809D02*
X113143571Y-18953809D01*
X113048333Y-19001428D01*
X113000714Y-19096666D01*
X113000714Y-19287142D01*
X113048333Y-19382380D01*
X113619761Y-18953809D02*
X113667380Y-19049047D01*
X113667380Y-19287142D01*
X113619761Y-19382380D01*
X113524523Y-19430000D01*
X113429285Y-19430000D01*
X113334047Y-19382380D01*
X113286428Y-19287142D01*
X113286428Y-19049047D01*
X113238809Y-18953809D01*
X113667380Y-18477619D02*
X112667380Y-18477619D01*
X113048333Y-18477619D02*
X113000714Y-18382380D01*
X113000714Y-18191904D01*
X113048333Y-18096666D01*
X113095952Y-18049047D01*
X113191190Y-18001428D01*
X113476904Y-18001428D01*
X113572142Y-18049047D01*
X113619761Y-18096666D01*
X113667380Y-18191904D01*
X113667380Y-18382380D01*
X113619761Y-18477619D01*
X113667380Y-17430000D02*
X113619761Y-17525238D01*
X113524523Y-17572857D01*
X112667380Y-17572857D01*
X113619761Y-16668095D02*
X113667380Y-16763333D01*
X113667380Y-16953809D01*
X113619761Y-17049047D01*
X113524523Y-17096666D01*
X113143571Y-17096666D01*
X113048333Y-17049047D01*
X113000714Y-16953809D01*
X113000714Y-16763333D01*
X113048333Y-16668095D01*
X113143571Y-16620476D01*
X113238809Y-16620476D01*
X113334047Y-17096666D01*
X108130000Y-19891903D02*
X108168095Y-19815712D01*
X108168095Y-19701427D01*
X108130000Y-19587141D01*
X108053809Y-19510950D01*
X107977619Y-19472855D01*
X107825238Y-19434760D01*
X107710952Y-19434760D01*
X107558571Y-19472855D01*
X107482380Y-19510950D01*
X107406190Y-19587141D01*
X107368095Y-19701427D01*
X107368095Y-19777617D01*
X107406190Y-19891903D01*
X107444285Y-19929998D01*
X107710952Y-19929998D01*
X107710952Y-19777617D01*
X107368095Y-20272855D02*
X108168095Y-20272855D01*
X107368095Y-20729998D01*
X108168095Y-20729998D01*
X107368095Y-21110950D02*
X108168095Y-21110950D01*
X108168095Y-21301427D01*
X108130000Y-21415712D01*
X108053809Y-21491903D01*
X107977619Y-21529998D01*
X107825238Y-21568093D01*
X107710952Y-21568093D01*
X107558571Y-21529998D01*
X107482380Y-21491903D01*
X107406190Y-21415712D01*
X107368095Y-21301427D01*
X107368095Y-21110950D01*
X107368095Y-14312857D02*
X107368095Y-13855714D01*
X107368095Y-14084285D02*
X108168095Y-14084285D01*
X108053809Y-14008095D01*
X107977619Y-13931904D01*
X107939523Y-13855714D01*
X108091904Y-14617619D02*
X108130000Y-14655714D01*
X108168095Y-14731904D01*
X108168095Y-14922380D01*
X108130000Y-14998571D01*
X108091904Y-15036666D01*
X108015714Y-15074761D01*
X107939523Y-15074761D01*
X107825238Y-15036666D01*
X107368095Y-14579523D01*
X107368095Y-15074761D01*
X107901428Y-15341428D02*
X107368095Y-15531904D01*
X107901428Y-15722380D01*
X82171200Y-8200805D02*
X82209295Y-8124614D01*
X82209295Y-8010329D01*
X82171200Y-7896043D01*
X82095009Y-7819852D01*
X82018819Y-7781757D01*
X81866438Y-7743662D01*
X81752152Y-7743662D01*
X81599771Y-7781757D01*
X81523580Y-7819852D01*
X81447390Y-7896043D01*
X81409295Y-8010329D01*
X81409295Y-8086519D01*
X81447390Y-8200805D01*
X81485485Y-8238900D01*
X81752152Y-8238900D01*
X81752152Y-8086519D01*
X81409295Y-8581757D02*
X82209295Y-8581757D01*
X81409295Y-9038900D01*
X82209295Y-9038900D01*
X81409295Y-9419852D02*
X82209295Y-9419852D01*
X82209295Y-9610329D01*
X82171200Y-9724614D01*
X82095009Y-9800805D01*
X82018819Y-9838900D01*
X81866438Y-9876995D01*
X81752152Y-9876995D01*
X81599771Y-9838900D01*
X81523580Y-9800805D01*
X81447390Y-9724614D01*
X81409295Y-9610329D01*
X81409295Y-9419852D01*
X82171200Y2291429D02*
X82209295Y2367620D01*
X82209295Y2481905D01*
X82171200Y2596191D01*
X82095009Y2672381D01*
X82018819Y2710477D01*
X81866438Y2748572D01*
X81752152Y2748572D01*
X81599771Y2710477D01*
X81523580Y2672381D01*
X81447390Y2596191D01*
X81409295Y2481905D01*
X81409295Y2405715D01*
X81447390Y2291429D01*
X81485485Y2253334D01*
X81752152Y2253334D01*
X81752152Y2405715D01*
X81409295Y1910477D02*
X82209295Y1910477D01*
X82209295Y1605715D01*
X82171200Y1529524D01*
X82133104Y1491429D01*
X82056914Y1453334D01*
X81942628Y1453334D01*
X81866438Y1491429D01*
X81828342Y1529524D01*
X81790247Y1605715D01*
X81790247Y1910477D01*
X81409295Y1072381D02*
X81409295Y920000D01*
X81447390Y843810D01*
X81485485Y805715D01*
X81599771Y729524D01*
X81752152Y691429D01*
X82056914Y691429D01*
X82133104Y729524D01*
X82171200Y767620D01*
X82209295Y843810D01*
X82209295Y996191D01*
X82171200Y1072381D01*
X82133104Y1110477D01*
X82056914Y1148572D01*
X81866438Y1148572D01*
X81790247Y1110477D01*
X81752152Y1072381D01*
X81714057Y996191D01*
X81714057Y843810D01*
X81752152Y767620D01*
X81790247Y729524D01*
X81866438Y691429D01*
X121020609Y3162096D02*
X120563466Y3162096D01*
X120792038Y3162096D02*
X120792038Y3962096D01*
X120715847Y3847810D01*
X120639657Y3771620D01*
X120563466Y3733524D01*
X121515847Y3962096D02*
X121592038Y3962096D01*
X121668228Y3924000D01*
X121706323Y3885905D01*
X121744419Y3809715D01*
X121782514Y3657334D01*
X121782514Y3466858D01*
X121744419Y3314477D01*
X121706323Y3238286D01*
X121668228Y3200191D01*
X121592038Y3162096D01*
X121515847Y3162096D01*
X121439657Y3200191D01*
X121401561Y3238286D01*
X121363466Y3314477D01*
X121325371Y3466858D01*
X121325371Y3657334D01*
X121363466Y3809715D01*
X121401561Y3885905D01*
X121439657Y3924000D01*
X121515847Y3962096D01*
X122125371Y3162096D02*
X122125371Y3962096D01*
X122201561Y3466858D02*
X122430133Y3162096D01*
X122430133Y3695429D02*
X122125371Y3390667D01*
D14*
X123613988Y-21894761D02*
X123066369Y-20942380D01*
X122471130Y-21894761D02*
X122721130Y-19894761D01*
X123483035Y-19894761D01*
X123661607Y-19990000D01*
X123744940Y-20085238D01*
X123816369Y-20275714D01*
X123780654Y-20561428D01*
X123661607Y-20751904D01*
X123554464Y-20847142D01*
X123352083Y-20942380D01*
X122590178Y-20942380D01*
X125328273Y-21894761D02*
X125459226Y-20847142D01*
X125387797Y-20656666D01*
X125209226Y-20561428D01*
X124828273Y-20561428D01*
X124625892Y-20656666D01*
X125340178Y-21799523D02*
X125137797Y-21894761D01*
X124661607Y-21894761D01*
X124483035Y-21799523D01*
X124411607Y-21609047D01*
X124435416Y-21418571D01*
X124554464Y-21228095D01*
X124756845Y-21132857D01*
X125233035Y-21132857D01*
X125435416Y-21037619D01*
X126197321Y-21799523D02*
X126471130Y-21894761D01*
X126947321Y-21894761D01*
X127149702Y-21799523D01*
X127256845Y-21704285D01*
X127375892Y-21513809D01*
X127399702Y-21323333D01*
X127328273Y-21132857D01*
X127244940Y-21037619D01*
X127066369Y-20942380D01*
X126697321Y-20847142D01*
X126518750Y-20751904D01*
X126435416Y-20656666D01*
X126363988Y-20466190D01*
X126387797Y-20275714D01*
X126506845Y-20085238D01*
X126613988Y-19990000D01*
X126816369Y-19894761D01*
X127292559Y-19894761D01*
X127566369Y-19990000D01*
X129352083Y-21704285D02*
X129244940Y-21799523D01*
X128947321Y-21894761D01*
X128756845Y-21894761D01*
X128483035Y-21799523D01*
X128316369Y-21609047D01*
X128244940Y-21418571D01*
X128197321Y-21037619D01*
X128233035Y-20751904D01*
X128375892Y-20370952D01*
X128494940Y-20180476D01*
X128709226Y-19990000D01*
X129006845Y-19894761D01*
X129197321Y-19894761D01*
X129471130Y-19990000D01*
X129554464Y-20085238D01*
X130102083Y-21799523D02*
X130375892Y-21894761D01*
X130852083Y-21894761D01*
X131054464Y-21799523D01*
X131161607Y-21704285D01*
X131280654Y-21513809D01*
X131304464Y-21323333D01*
X131233035Y-21132857D01*
X131149702Y-21037619D01*
X130971130Y-20942380D01*
X130602083Y-20847142D01*
X130423511Y-20751904D01*
X130340178Y-20656666D01*
X130268750Y-20466190D01*
X130292559Y-20275714D01*
X130411607Y-20085238D01*
X130518750Y-19990000D01*
X130721130Y-19894761D01*
X131197321Y-19894761D01*
X131471130Y-19990000D01*
X132090178Y-21894761D02*
X132340178Y-19894761D01*
D12*
X108130000Y-16949999D02*
X108168095Y-16873808D01*
X108168095Y-16759523D01*
X108130000Y-16645237D01*
X108053809Y-16569046D01*
X107977619Y-16530951D01*
X107825238Y-16492856D01*
X107710952Y-16492856D01*
X107558571Y-16530951D01*
X107482380Y-16569046D01*
X107406190Y-16645237D01*
X107368095Y-16759523D01*
X107368095Y-16835713D01*
X107406190Y-16949999D01*
X107444285Y-16988094D01*
X107710952Y-16988094D01*
X107710952Y-16835713D01*
X107368095Y-17330951D02*
X108168095Y-17330951D01*
X107368095Y-17788094D01*
X108168095Y-17788094D01*
X107368095Y-18169046D02*
X108168095Y-18169046D01*
X108168095Y-18359523D01*
X108130000Y-18473808D01*
X108053809Y-18549999D01*
X107977619Y-18588094D01*
X107825238Y-18626189D01*
X107710952Y-18626189D01*
X107558571Y-18588094D01*
X107482380Y-18549999D01*
X107406190Y-18473808D01*
X107368095Y-18359523D01*
X107368095Y-18169046D01*
X143782380Y-22212857D02*
X143782380Y-22689047D01*
X144258571Y-22736666D01*
X144210952Y-22689047D01*
X144163333Y-22593809D01*
X144163333Y-22355714D01*
X144210952Y-22260476D01*
X144258571Y-22212857D01*
X144353809Y-22165238D01*
X144591904Y-22165238D01*
X144687142Y-22212857D01*
X144734761Y-22260476D01*
X144782380Y-22355714D01*
X144782380Y-22593809D01*
X144734761Y-22689047D01*
X144687142Y-22736666D01*
X144115714Y-21831904D02*
X144782380Y-21593809D01*
X144115714Y-21355714D01*
X119891904Y-23432380D02*
X119558571Y-22956190D01*
X119320476Y-23432380D02*
X119320476Y-22432380D01*
X119701428Y-22432380D01*
X119796666Y-22480000D01*
X119844285Y-22527619D01*
X119891904Y-22622857D01*
X119891904Y-22765714D01*
X119844285Y-22860952D01*
X119796666Y-22908571D01*
X119701428Y-22956190D01*
X119320476Y-22956190D01*
X120701428Y-23384761D02*
X120606190Y-23432380D01*
X120415714Y-23432380D01*
X120320476Y-23384761D01*
X120272857Y-23289523D01*
X120272857Y-22908571D01*
X120320476Y-22813333D01*
X120415714Y-22765714D01*
X120606190Y-22765714D01*
X120701428Y-22813333D01*
X120749047Y-22908571D01*
X120749047Y-23003809D01*
X120272857Y-23099047D01*
X121320476Y-23432380D02*
X121225238Y-23384761D01*
X121177619Y-23289523D01*
X121177619Y-22432380D01*
X121844285Y-23432380D02*
X121749047Y-23384761D01*
X121701428Y-23337142D01*
X121653809Y-23241904D01*
X121653809Y-22956190D01*
X121701428Y-22860952D01*
X121749047Y-22813333D01*
X121844285Y-22765714D01*
X121987142Y-22765714D01*
X122082380Y-22813333D01*
X122130000Y-22860952D01*
X122177619Y-22956190D01*
X122177619Y-23241904D01*
X122130000Y-23337142D01*
X122082380Y-23384761D01*
X121987142Y-23432380D01*
X121844285Y-23432380D01*
X123034761Y-23432380D02*
X123034761Y-22908571D01*
X122987142Y-22813333D01*
X122891904Y-22765714D01*
X122701428Y-22765714D01*
X122606190Y-22813333D01*
X123034761Y-23384761D02*
X122939523Y-23432380D01*
X122701428Y-23432380D01*
X122606190Y-23384761D01*
X122558571Y-23289523D01*
X122558571Y-23194285D01*
X122606190Y-23099047D01*
X122701428Y-23051428D01*
X122939523Y-23051428D01*
X123034761Y-23003809D01*
X123939523Y-23432380D02*
X123939523Y-22432380D01*
X123939523Y-23384761D02*
X123844285Y-23432380D01*
X123653809Y-23432380D01*
X123558571Y-23384761D01*
X123510952Y-23337142D01*
X123463333Y-23241904D01*
X123463333Y-22956190D01*
X123510952Y-22860952D01*
X123558571Y-22813333D01*
X123653809Y-22765714D01*
X123844285Y-22765714D01*
X123939523Y-22813333D01*
X124796666Y-23384761D02*
X124701428Y-23432380D01*
X124510952Y-23432380D01*
X124415714Y-23384761D01*
X124368095Y-23289523D01*
X124368095Y-22908571D01*
X124415714Y-22813333D01*
X124510952Y-22765714D01*
X124701428Y-22765714D01*
X124796666Y-22813333D01*
X124844285Y-22908571D01*
X124844285Y-23003809D01*
X124368095Y-23099047D01*
X125701428Y-23432380D02*
X125701428Y-22432380D01*
X125701428Y-23384761D02*
X125606190Y-23432380D01*
X125415714Y-23432380D01*
X125320476Y-23384761D01*
X125272857Y-23337142D01*
X125225238Y-23241904D01*
X125225238Y-22956190D01*
X125272857Y-22860952D01*
X125320476Y-22813333D01*
X125415714Y-22765714D01*
X125606190Y-22765714D01*
X125701428Y-22813333D01*
X126796666Y-22432380D02*
X127130000Y-23432380D01*
X127463333Y-22432380D01*
X128177619Y-23384761D02*
X128082380Y-23432380D01*
X127891904Y-23432380D01*
X127796666Y-23384761D01*
X127749047Y-23289523D01*
X127749047Y-22908571D01*
X127796666Y-22813333D01*
X127891904Y-22765714D01*
X128082380Y-22765714D01*
X128177619Y-22813333D01*
X128225238Y-22908571D01*
X128225238Y-23003809D01*
X127749047Y-23099047D01*
X128653809Y-23432380D02*
X128653809Y-22765714D01*
X128653809Y-22956190D02*
X128701428Y-22860952D01*
X128749047Y-22813333D01*
X128844285Y-22765714D01*
X128939523Y-22765714D01*
X129225238Y-23384761D02*
X129320476Y-23432380D01*
X129510952Y-23432380D01*
X129606190Y-23384761D01*
X129653809Y-23289523D01*
X129653809Y-23241904D01*
X129606190Y-23146666D01*
X129510952Y-23099047D01*
X129368095Y-23099047D01*
X129272857Y-23051428D01*
X129225238Y-22956190D01*
X129225238Y-22908571D01*
X129272857Y-22813333D01*
X129368095Y-22765714D01*
X129510952Y-22765714D01*
X129606190Y-22813333D01*
X130082380Y-23432380D02*
X130082380Y-22765714D01*
X130082380Y-22432380D02*
X130034761Y-22480000D01*
X130082380Y-22527619D01*
X130130000Y-22480000D01*
X130082380Y-22432380D01*
X130082380Y-22527619D01*
X130701428Y-23432380D02*
X130606190Y-23384761D01*
X130558571Y-23337142D01*
X130510952Y-23241904D01*
X130510952Y-22956190D01*
X130558571Y-22860952D01*
X130606190Y-22813333D01*
X130701428Y-22765714D01*
X130844285Y-22765714D01*
X130939523Y-22813333D01*
X130987142Y-22860952D01*
X131034761Y-22956190D01*
X131034761Y-23241904D01*
X130987142Y-23337142D01*
X130939523Y-23384761D01*
X130844285Y-23432380D01*
X130701428Y-23432380D01*
X131463333Y-22765714D02*
X131463333Y-23432380D01*
X131463333Y-22860952D02*
X131510952Y-22813333D01*
X131606190Y-22765714D01*
X131749047Y-22765714D01*
X131844285Y-22813333D01*
X131891904Y-22908571D01*
X131891904Y-23432380D01*
X133082380Y-22527619D02*
X133130000Y-22480000D01*
X133225238Y-22432380D01*
X133463333Y-22432380D01*
X133558571Y-22480000D01*
X133606190Y-22527619D01*
X133653809Y-22622857D01*
X133653809Y-22718095D01*
X133606190Y-22860952D01*
X133034761Y-23432380D01*
X133653809Y-23432380D01*
X134082380Y-23337142D02*
X134130000Y-23384761D01*
X134082380Y-23432380D01*
X134034761Y-23384761D01*
X134082380Y-23337142D01*
X134082380Y-23432380D01*
X134987142Y-22432380D02*
X134796666Y-22432380D01*
X134701428Y-22480000D01*
X134653809Y-22527619D01*
X134558571Y-22670476D01*
X134510952Y-22860952D01*
X134510952Y-23241904D01*
X134558571Y-23337142D01*
X134606190Y-23384761D01*
X134701428Y-23432380D01*
X134891904Y-23432380D01*
X134987142Y-23384761D01*
X135034761Y-23337142D01*
X135082380Y-23241904D01*
X135082380Y-23003809D01*
X135034761Y-22908571D01*
X134987142Y-22860952D01*
X134891904Y-22813333D01*
X134701428Y-22813333D01*
X134606190Y-22860952D01*
X134558571Y-22908571D01*
X134510952Y-23003809D01*
X135939523Y-23432380D02*
X135939523Y-22432380D01*
X135939523Y-23384761D02*
X135844285Y-23432380D01*
X135653809Y-23432380D01*
X135558571Y-23384761D01*
X135510952Y-23337142D01*
X135463333Y-23241904D01*
X135463333Y-22956190D01*
X135510952Y-22860952D01*
X135558571Y-22813333D01*
X135653809Y-22765714D01*
X135844285Y-22765714D01*
X135939523Y-22813333D01*
X136119523Y-13188095D02*
X136157619Y-13150000D01*
X136233809Y-13111904D01*
X136424285Y-13111904D01*
X136500476Y-13150000D01*
X136538571Y-13188095D01*
X136576666Y-13264285D01*
X136576666Y-13340476D01*
X136538571Y-13454761D01*
X136081428Y-13911904D01*
X136576666Y-13911904D01*
X136881428Y-13188095D02*
X136919523Y-13150000D01*
X136995714Y-13111904D01*
X137186190Y-13111904D01*
X137262380Y-13150000D01*
X137300476Y-13188095D01*
X137338571Y-13264285D01*
X137338571Y-13340476D01*
X137300476Y-13454761D01*
X136843333Y-13911904D01*
X137338571Y-13911904D01*
X137833809Y-13111904D02*
X137910000Y-13111904D01*
X137986190Y-13150000D01*
X138024285Y-13188095D01*
X138062380Y-13264285D01*
X138100476Y-13416666D01*
X138100476Y-13607142D01*
X138062380Y-13759523D01*
X138024285Y-13835714D01*
X137986190Y-13873809D01*
X137910000Y-13911904D01*
X137833809Y-13911904D01*
X137757619Y-13873809D01*
X137719523Y-13835714D01*
X137681428Y-13759523D01*
X137643333Y-13607142D01*
X137643333Y-13416666D01*
X137681428Y-13264285D01*
X137719523Y-13188095D01*
X137757619Y-13150000D01*
X137833809Y-13111904D01*
X108168095Y-22795714D02*
X108168095Y-22414761D01*
X107787142Y-22376666D01*
X107825238Y-22414761D01*
X107863333Y-22490952D01*
X107863333Y-22681428D01*
X107825238Y-22757619D01*
X107787142Y-22795714D01*
X107710952Y-22833809D01*
X107520476Y-22833809D01*
X107444285Y-22795714D01*
X107406190Y-22757619D01*
X107368095Y-22681428D01*
X107368095Y-22490952D01*
X107406190Y-22414761D01*
X107444285Y-22376666D01*
X107901428Y-23100476D02*
X107368095Y-23290952D01*
X107901428Y-23481428D01*
D13*
X142061856Y-22435547D02*
X141561856Y-22435547D01*
X141561856Y-22316500D01*
X141585666Y-22245071D01*
X141633285Y-22197452D01*
X141680904Y-22173642D01*
X141776142Y-22149833D01*
X141847570Y-22149833D01*
X141942808Y-22173642D01*
X141990427Y-22197452D01*
X142038046Y-22245071D01*
X142061856Y-22316500D01*
X142061856Y-22435547D01*
X141561856Y-21983166D02*
X141561856Y-21673642D01*
X141752332Y-21840309D01*
X141752332Y-21768880D01*
X141776142Y-21721261D01*
X141799951Y-21697452D01*
X141847570Y-21673642D01*
X141966618Y-21673642D01*
X142014237Y-21697452D01*
X142038046Y-21721261D01*
X142061856Y-21768880D01*
X142061856Y-21911738D01*
X142038046Y-21959357D01*
X142014237Y-21983166D01*
X142914690Y2011953D02*
X142414690Y2011953D01*
X142414690Y2131000D01*
X142438500Y2202429D01*
X142486119Y2250048D01*
X142533738Y2273858D01*
X142628976Y2297667D01*
X142700404Y2297667D01*
X142795642Y2273858D01*
X142843261Y2250048D01*
X142890880Y2202429D01*
X142914690Y2131000D01*
X142914690Y2011953D01*
X142914690Y2773858D02*
X142914690Y2488143D01*
X142914690Y2631000D02*
X142414690Y2631000D01*
X142486119Y2583381D01*
X142533738Y2535762D01*
X142557547Y2488143D01*
X142781523Y-1925047D02*
X142281523Y-1925047D01*
X142281523Y-1806000D01*
X142305333Y-1734571D01*
X142352952Y-1686952D01*
X142400571Y-1663142D01*
X142495809Y-1639333D01*
X142567237Y-1639333D01*
X142662475Y-1663142D01*
X142710094Y-1686952D01*
X142757713Y-1734571D01*
X142781523Y-1806000D01*
X142781523Y-1925047D01*
X142329142Y-1448857D02*
X142305333Y-1425047D01*
X142281523Y-1377428D01*
X142281523Y-1258380D01*
X142305333Y-1210761D01*
X142329142Y-1186952D01*
X142376761Y-1163142D01*
X142424380Y-1163142D01*
X142495809Y-1186952D01*
X142781523Y-1472666D01*
X142781523Y-1163142D01*
D12*
X81196666Y4237620D02*
X81196666Y3523334D01*
X81149047Y3380477D01*
X81053809Y3285239D01*
X80910952Y3237620D01*
X80815714Y3237620D01*
X82101428Y3904286D02*
X82101428Y3237620D01*
X81863333Y4285239D02*
X81625238Y3570953D01*
X82244285Y3570953D01*
D13*
X107620000Y-11420000D02*
X107386666Y-11420000D01*
X107386666Y-11786666D02*
X107386666Y-11086666D01*
X107720000Y-11086666D01*
X107986666Y-11086666D02*
X107986666Y-11653333D01*
X108020000Y-11720000D01*
X108053333Y-11753333D01*
X108120000Y-11786666D01*
X108253333Y-11786666D01*
X108320000Y-11753333D01*
X108353333Y-11720000D01*
X108386666Y-11653333D01*
X108386666Y-11086666D01*
X108686666Y-11753333D02*
X108786666Y-11786666D01*
X108953333Y-11786666D01*
X109020000Y-11753333D01*
X109053333Y-11720000D01*
X109086666Y-11653333D01*
X109086666Y-11586666D01*
X109053333Y-11520000D01*
X109020000Y-11486666D01*
X108953333Y-11453333D01*
X108820000Y-11420000D01*
X108753333Y-11386666D01*
X108720000Y-11353333D01*
X108686666Y-11286666D01*
X108686666Y-11220000D01*
X108720000Y-11153333D01*
X108753333Y-11120000D01*
X108820000Y-11086666D01*
X108986666Y-11086666D01*
X109086666Y-11120000D01*
X109386666Y-11420000D02*
X109620000Y-11420000D01*
X109720000Y-11786666D02*
X109386666Y-11786666D01*
X109386666Y-11086666D01*
X109720000Y-11086666D01*
X110386666Y-11786666D02*
X109986666Y-11786666D01*
X110186666Y-11786666D02*
X110186666Y-11086666D01*
X110120000Y-11186666D01*
X110053333Y-11253333D01*
X109986666Y-11286666D01*
D15*
X100764523Y-5889761D02*
X99494523Y-5889761D01*
X100643571Y-4559285D02*
X100704047Y-4619761D01*
X100764523Y-4801190D01*
X100764523Y-4922142D01*
X100704047Y-5103571D01*
X100583095Y-5224523D01*
X100462142Y-5285000D01*
X100220238Y-5345476D01*
X100038809Y-5345476D01*
X99796904Y-5285000D01*
X99675952Y-5224523D01*
X99555000Y-5103571D01*
X99494523Y-4922142D01*
X99494523Y-4801190D01*
X99555000Y-4619761D01*
X99615476Y-4559285D01*
X100764523Y-3349761D02*
X100764523Y-4075476D01*
X100764523Y-3712619D02*
X99494523Y-3712619D01*
X99675952Y-3833571D01*
X99796904Y-3954523D01*
X99857380Y-4075476D01*
X124434523Y-6209761D02*
X123164523Y-6209761D01*
X124313571Y-4879285D02*
X124374047Y-4939761D01*
X124434523Y-5121190D01*
X124434523Y-5242142D01*
X124374047Y-5423571D01*
X124253095Y-5544523D01*
X124132142Y-5605000D01*
X123890238Y-5665476D01*
X123708809Y-5665476D01*
X123466904Y-5605000D01*
X123345952Y-5544523D01*
X123225000Y-5423571D01*
X123164523Y-5242142D01*
X123164523Y-5121190D01*
X123225000Y-4939761D01*
X123285476Y-4879285D01*
X123164523Y-4455952D02*
X123164523Y-3669761D01*
X123648333Y-4093095D01*
X123648333Y-3911666D01*
X123708809Y-3790714D01*
X123769285Y-3730238D01*
X123890238Y-3669761D01*
X124192619Y-3669761D01*
X124313571Y-3730238D01*
X124374047Y-3790714D01*
X124434523Y-3911666D01*
X124434523Y-4274523D01*
X124374047Y-4395476D01*
X124313571Y-4455952D01*
D12*
X140194666Y3146096D02*
X139928000Y3527048D01*
X139737523Y3146096D02*
X139737523Y3946096D01*
X140042285Y3946096D01*
X140118476Y3908000D01*
X140156571Y3869905D01*
X140194666Y3793715D01*
X140194666Y3679429D01*
X140156571Y3603239D01*
X140118476Y3565143D01*
X140042285Y3527048D01*
X139737523Y3527048D01*
X140499428Y3869905D02*
X140537523Y3908000D01*
X140613714Y3946096D01*
X140804190Y3946096D01*
X140880380Y3908000D01*
X140918476Y3869905D01*
X140956571Y3793715D01*
X140956571Y3717524D01*
X140918476Y3603239D01*
X140461333Y3146096D01*
X140956571Y3146096D01*
X139432666Y-24031904D02*
X139166000Y-23650952D01*
X138975523Y-24031904D02*
X138975523Y-23231904D01*
X139280285Y-23231904D01*
X139356476Y-23270000D01*
X139394571Y-23308095D01*
X139432666Y-23384285D01*
X139432666Y-23498571D01*
X139394571Y-23574761D01*
X139356476Y-23612857D01*
X139280285Y-23650952D01*
X138975523Y-23650952D01*
X139699333Y-23231904D02*
X140194571Y-23231904D01*
X139927904Y-23536666D01*
X140042190Y-23536666D01*
X140118380Y-23574761D01*
X140156476Y-23612857D01*
X140194571Y-23689047D01*
X140194571Y-23879523D01*
X140156476Y-23955714D01*
X140118380Y-23993809D01*
X140042190Y-24031904D01*
X139813619Y-24031904D01*
X139737428Y-23993809D01*
X139699333Y-23955714D01*
X132053904Y2104667D02*
X131672952Y1838000D01*
X132053904Y1647524D02*
X131253904Y1647524D01*
X131253904Y1952286D01*
X131292000Y2028477D01*
X131330095Y2066572D01*
X131406285Y2104667D01*
X131520571Y2104667D01*
X131596761Y2066572D01*
X131634857Y2028477D01*
X131672952Y1952286D01*
X131672952Y1647524D01*
X131253904Y2828477D02*
X131253904Y2447524D01*
X131634857Y2409429D01*
X131596761Y2447524D01*
X131558666Y2523715D01*
X131558666Y2714191D01*
X131596761Y2790381D01*
X131634857Y2828477D01*
X131711047Y2866572D01*
X131901523Y2866572D01*
X131977714Y2828477D01*
X132015809Y2790381D01*
X132053904Y2714191D01*
X132053904Y2523715D01*
X132015809Y2447524D01*
X131977714Y2409429D01*
X117829904Y2104667D02*
X117448952Y1838000D01*
X117829904Y1647524D02*
X117029904Y1647524D01*
X117029904Y1952286D01*
X117068000Y2028477D01*
X117106095Y2066572D01*
X117182285Y2104667D01*
X117296571Y2104667D01*
X117372761Y2066572D01*
X117410857Y2028477D01*
X117448952Y1952286D01*
X117448952Y1647524D01*
X117829904Y2485620D02*
X117829904Y2638000D01*
X117791809Y2714191D01*
X117753714Y2752286D01*
X117639428Y2828477D01*
X117487047Y2866572D01*
X117182285Y2866572D01*
X117106095Y2828477D01*
X117068000Y2790381D01*
X117029904Y2714191D01*
X117029904Y2561810D01*
X117068000Y2485620D01*
X117106095Y2447524D01*
X117182285Y2409429D01*
X117372761Y2409429D01*
X117448952Y2447524D01*
X117487047Y2485620D01*
X117525142Y2561810D01*
X117525142Y2714191D01*
X117487047Y2790381D01*
X117448952Y2828477D01*
X117372761Y2866572D01*
X125136904Y1716715D02*
X124755952Y1450048D01*
X125136904Y1259572D02*
X124336904Y1259572D01*
X124336904Y1564334D01*
X124375000Y1640524D01*
X124413095Y1678620D01*
X124489285Y1716715D01*
X124603571Y1716715D01*
X124679761Y1678620D01*
X124717857Y1640524D01*
X124755952Y1564334D01*
X124755952Y1259572D01*
X125136904Y2478620D02*
X125136904Y2021477D01*
X125136904Y2250048D02*
X124336904Y2250048D01*
X124451190Y2173858D01*
X124527380Y2097667D01*
X124565476Y2021477D01*
X124336904Y2745286D02*
X124336904Y3240524D01*
X124641666Y2973858D01*
X124641666Y3088143D01*
X124679761Y3164334D01*
X124717857Y3202429D01*
X124794047Y3240524D01*
X124984523Y3240524D01*
X125060714Y3202429D01*
X125098809Y3164334D01*
X125136904Y3088143D01*
X125136904Y2859572D01*
X125098809Y2783381D01*
X125060714Y2745286D01*
X107610904Y1716715D02*
X107229952Y1450048D01*
X107610904Y1259572D02*
X106810904Y1259572D01*
X106810904Y1564334D01*
X106849000Y1640524D01*
X106887095Y1678620D01*
X106963285Y1716715D01*
X107077571Y1716715D01*
X107153761Y1678620D01*
X107191857Y1640524D01*
X107229952Y1564334D01*
X107229952Y1259572D01*
X106887095Y2021477D02*
X106849000Y2059572D01*
X106810904Y2135762D01*
X106810904Y2326239D01*
X106849000Y2402429D01*
X106887095Y2440524D01*
X106963285Y2478620D01*
X107039476Y2478620D01*
X107153761Y2440524D01*
X107610904Y1983381D01*
X107610904Y2478620D01*
X106887095Y2783381D02*
X106849000Y2821477D01*
X106810904Y2897667D01*
X106810904Y3088143D01*
X106849000Y3164334D01*
X106887095Y3202429D01*
X106963285Y3240524D01*
X107039476Y3240524D01*
X107153761Y3202429D01*
X107610904Y2745286D01*
X107610904Y3240524D01*
X89127904Y1723715D02*
X88746952Y1457048D01*
X89127904Y1266572D02*
X88327904Y1266572D01*
X88327904Y1571334D01*
X88366000Y1647524D01*
X88404095Y1685620D01*
X88480285Y1723715D01*
X88594571Y1723715D01*
X88670761Y1685620D01*
X88708857Y1647524D01*
X88746952Y1571334D01*
X88746952Y1266572D01*
X89127904Y2485620D02*
X89127904Y2028477D01*
X89127904Y2257048D02*
X88327904Y2257048D01*
X88442190Y2180858D01*
X88518380Y2104667D01*
X88556476Y2028477D01*
X88594571Y3171334D02*
X89127904Y3171334D01*
X88289809Y2980858D02*
X88861238Y2790381D01*
X88861238Y3285620D01*
D15*
X137474523Y-6039761D02*
X136204523Y-6039761D01*
X137353571Y-4709285D02*
X137414047Y-4769761D01*
X137474523Y-4951190D01*
X137474523Y-5072142D01*
X137414047Y-5253571D01*
X137293095Y-5374523D01*
X137172142Y-5435000D01*
X136930238Y-5495476D01*
X136748809Y-5495476D01*
X136506904Y-5435000D01*
X136385952Y-5374523D01*
X136265000Y-5253571D01*
X136204523Y-5072142D01*
X136204523Y-4951190D01*
X136265000Y-4769761D01*
X136325476Y-4709285D01*
X136627857Y-3620714D02*
X137474523Y-3620714D01*
X136144047Y-3923095D02*
X137051190Y-4225476D01*
X137051190Y-3439285D01*
D12*
X139432666Y-18951904D02*
X139166000Y-18570952D01*
X138975523Y-18951904D02*
X138975523Y-18151904D01*
X139280285Y-18151904D01*
X139356476Y-18190000D01*
X139394571Y-18228095D01*
X139432666Y-18304285D01*
X139432666Y-18418571D01*
X139394571Y-18494761D01*
X139356476Y-18532857D01*
X139280285Y-18570952D01*
X138975523Y-18570952D01*
X140118380Y-18418571D02*
X140118380Y-18951904D01*
X139927904Y-18113809D02*
X139737428Y-18685238D01*
X140232666Y-18685238D01*
D15*
X116394047Y-17667119D02*
X116454523Y-17485690D01*
X116454523Y-17183309D01*
X116394047Y-17062357D01*
X116333571Y-17001880D01*
X116212619Y-16941404D01*
X116091666Y-16941404D01*
X115970714Y-17001880D01*
X115910238Y-17062357D01*
X115849761Y-17183309D01*
X115789285Y-17425214D01*
X115728809Y-17546166D01*
X115668333Y-17606642D01*
X115547380Y-17667119D01*
X115426428Y-17667119D01*
X115305476Y-17606642D01*
X115245000Y-17546166D01*
X115184523Y-17425214D01*
X115184523Y-17122833D01*
X115245000Y-16941404D01*
X116454523Y-15731880D02*
X116454523Y-16457595D01*
X116454523Y-16094738D02*
X115184523Y-16094738D01*
X115365952Y-16215690D01*
X115486904Y-16336642D01*
X115547380Y-16457595D01*
D13*
X111153333Y-11756666D02*
X111153333Y-11056666D01*
X111320000Y-11056666D01*
X111420000Y-11090000D01*
X111486666Y-11156666D01*
X111520000Y-11223333D01*
X111553333Y-11356666D01*
X111553333Y-11456666D01*
X111520000Y-11590000D01*
X111486666Y-11656666D01*
X111420000Y-11723333D01*
X111320000Y-11756666D01*
X111153333Y-11756666D01*
X112186666Y-11056666D02*
X111853333Y-11056666D01*
X111820000Y-11390000D01*
X111853333Y-11356666D01*
X111920000Y-11323333D01*
X112086666Y-11323333D01*
X112153333Y-11356666D01*
X112186666Y-11390000D01*
X112220000Y-11456666D01*
X112220000Y-11623333D01*
X112186666Y-11690000D01*
X112153333Y-11723333D01*
X112086666Y-11756666D01*
X111920000Y-11756666D01*
X111853333Y-11723333D01*
X111820000Y-11690000D01*
D15*
X87654523Y-6339761D02*
X86384523Y-6339761D01*
X87533571Y-5009285D02*
X87594047Y-5069761D01*
X87654523Y-5251190D01*
X87654523Y-5372142D01*
X87594047Y-5553571D01*
X87473095Y-5674523D01*
X87352142Y-5735000D01*
X87110238Y-5795476D01*
X86928809Y-5795476D01*
X86686904Y-5735000D01*
X86565952Y-5674523D01*
X86445000Y-5553571D01*
X86384523Y-5372142D01*
X86384523Y-5251190D01*
X86445000Y-5069761D01*
X86505476Y-5009285D01*
X86505476Y-4525476D02*
X86445000Y-4465000D01*
X86384523Y-4344047D01*
X86384523Y-4041666D01*
X86445000Y-3920714D01*
X86505476Y-3860238D01*
X86626428Y-3799761D01*
X86747380Y-3799761D01*
X86928809Y-3860238D01*
X87654523Y-4585952D01*
X87654523Y-3799761D01*
D13*
X142040690Y-20530547D02*
X141540690Y-20530547D01*
X141540690Y-20411500D01*
X141564500Y-20340071D01*
X141612119Y-20292452D01*
X141659738Y-20268642D01*
X141754976Y-20244833D01*
X141826404Y-20244833D01*
X141921642Y-20268642D01*
X141969261Y-20292452D01*
X142016880Y-20340071D01*
X142040690Y-20411500D01*
X142040690Y-20530547D01*
X141707357Y-19816261D02*
X142040690Y-19816261D01*
X141516880Y-19935309D02*
X141874023Y-20054357D01*
X141874023Y-19744833D01*
D12*
X140194666Y2130096D02*
X139928000Y2511048D01*
X139737523Y2130096D02*
X139737523Y2930096D01*
X140042285Y2930096D01*
X140118476Y2892000D01*
X140156571Y2853905D01*
X140194666Y2777715D01*
X140194666Y2663429D01*
X140156571Y2587239D01*
X140118476Y2549143D01*
X140042285Y2511048D01*
X139737523Y2511048D01*
X140956571Y2130096D02*
X140499428Y2130096D01*
X140728000Y2130096D02*
X140728000Y2930096D01*
X140651809Y2815810D01*
X140575619Y2739620D01*
X140499428Y2701524D01*
D15*
X143696523Y-8345333D02*
X144603666Y-8345333D01*
X144785095Y-8405809D01*
X144906047Y-8526761D01*
X144966523Y-8708190D01*
X144966523Y-8829142D01*
X144240809Y-7559142D02*
X144180333Y-7680095D01*
X144119857Y-7740571D01*
X143998904Y-7801047D01*
X143938428Y-7801047D01*
X143817476Y-7740571D01*
X143757000Y-7680095D01*
X143696523Y-7559142D01*
X143696523Y-7317238D01*
X143757000Y-7196285D01*
X143817476Y-7135809D01*
X143938428Y-7075333D01*
X143998904Y-7075333D01*
X144119857Y-7135809D01*
X144180333Y-7196285D01*
X144240809Y-7317238D01*
X144240809Y-7559142D01*
X144301285Y-7680095D01*
X144361761Y-7740571D01*
X144482714Y-7801047D01*
X144724619Y-7801047D01*
X144845571Y-7740571D01*
X144906047Y-7680095D01*
X144966523Y-7559142D01*
X144966523Y-7317238D01*
X144906047Y-7196285D01*
X144845571Y-7135809D01*
X144724619Y-7075333D01*
X144482714Y-7075333D01*
X144361761Y-7135809D01*
X144301285Y-7196285D01*
X144240809Y-7317238D01*
D12*
X82082666Y-25154380D02*
X82082666Y-25868666D01*
X82035047Y-26011523D01*
X81939809Y-26106761D01*
X81796952Y-26154380D01*
X81701714Y-26154380D01*
X82463619Y-25154380D02*
X83082666Y-25154380D01*
X82749333Y-25535333D01*
X82892190Y-25535333D01*
X82987428Y-25582952D01*
X83035047Y-25630571D01*
X83082666Y-25725809D01*
X83082666Y-25963904D01*
X83035047Y-26059142D01*
X82987428Y-26106761D01*
X82892190Y-26154380D01*
X82606476Y-26154380D01*
X82511238Y-26106761D01*
X82463619Y-26059142D01*
X137895904Y2104667D02*
X137514952Y1838000D01*
X137895904Y1647524D02*
X137095904Y1647524D01*
X137095904Y1952286D01*
X137134000Y2028477D01*
X137172095Y2066572D01*
X137248285Y2104667D01*
X137362571Y2104667D01*
X137438761Y2066572D01*
X137476857Y2028477D01*
X137514952Y1952286D01*
X137514952Y1647524D01*
X137438761Y2561810D02*
X137400666Y2485620D01*
X137362571Y2447524D01*
X137286380Y2409429D01*
X137248285Y2409429D01*
X137172095Y2447524D01*
X137134000Y2485620D01*
X137095904Y2561810D01*
X137095904Y2714191D01*
X137134000Y2790381D01*
X137172095Y2828477D01*
X137248285Y2866572D01*
X137286380Y2866572D01*
X137362571Y2828477D01*
X137400666Y2790381D01*
X137438761Y2714191D01*
X137438761Y2561810D01*
X137476857Y2485620D01*
X137514952Y2447524D01*
X137591142Y2409429D01*
X137743523Y2409429D01*
X137819714Y2447524D01*
X137857809Y2485620D01*
X137895904Y2561810D01*
X137895904Y2714191D01*
X137857809Y2790381D01*
X137819714Y2828477D01*
X137743523Y2866572D01*
X137591142Y2866572D01*
X137514952Y2828477D01*
X137476857Y2790381D01*
X137438761Y2714191D01*
D16*
X80723333Y-18201904D02*
X80723333Y-18773333D01*
X80685238Y-18887619D01*
X80609047Y-18963809D01*
X80494761Y-19001904D01*
X80418571Y-19001904D01*
X81485238Y-18201904D02*
X81104285Y-18201904D01*
X81066190Y-18582857D01*
X81104285Y-18544761D01*
X81180476Y-18506666D01*
X81370952Y-18506666D01*
X81447142Y-18544761D01*
X81485238Y-18582857D01*
X81523333Y-18659047D01*
X81523333Y-18849523D01*
X81485238Y-18925714D01*
X81447142Y-18963809D01*
X81370952Y-19001904D01*
X81180476Y-19001904D01*
X81104285Y-18963809D01*
X81066190Y-18925714D01*
D12*
X105060476Y-24362380D02*
X105060476Y-25076666D01*
X105012857Y-25219523D01*
X104917619Y-25314761D01*
X104774761Y-25362380D01*
X104679523Y-25362380D01*
X105489047Y-24457619D02*
X105536666Y-24410000D01*
X105631904Y-24362380D01*
X105870000Y-24362380D01*
X105965238Y-24410000D01*
X106012857Y-24457619D01*
X106060476Y-24552857D01*
X106060476Y-24648095D01*
X106012857Y-24790952D01*
X105441428Y-25362380D01*
X106060476Y-25362380D01*
X106679523Y-24362380D02*
X106774761Y-24362380D01*
X106870000Y-24410000D01*
X106917619Y-24457619D01*
X106965238Y-24552857D01*
X107012857Y-24743333D01*
X107012857Y-24981428D01*
X106965238Y-25171904D01*
X106917619Y-25267142D01*
X106870000Y-25314761D01*
X106774761Y-25362380D01*
X106679523Y-25362380D01*
X106584285Y-25314761D01*
X106536666Y-25267142D01*
X106489047Y-25171904D01*
X106441428Y-24981428D01*
X106441428Y-24743333D01*
X106489047Y-24552857D01*
X106536666Y-24457619D01*
X106584285Y-24410000D01*
X106679523Y-24362380D01*
D10*
X143514500Y-21106500D02*
X140829500Y-21106500D01*
X140829500Y-23026500D02*
X143514500Y-23026500D01*
X143514500Y-23026500D02*
X143514500Y-21106500D01*
X144388500Y3341000D02*
X141703500Y3341000D01*
X141703500Y1421000D02*
X144388500Y1421000D01*
X144388500Y1421000D02*
X144388500Y3341000D01*
X144276500Y-596000D02*
X141591500Y-596000D01*
X144276500Y-2516000D02*
X144276500Y-596000D01*
X141591500Y-2516000D02*
X144276500Y-2516000D01*
X83810000Y-12310000D02*
X82480000Y-12310000D01*
X82480000Y-12310000D02*
X82480000Y-10980000D01*
X85140000Y-9710000D02*
X82480000Y-9710000D01*
X82480000Y-9710000D02*
X82480000Y3050000D01*
X85140000Y3050000D02*
X82480000Y3050000D01*
X85140000Y-9710000D02*
X85140000Y3050000D01*
X127625000Y-13372936D02*
X127625000Y-13827064D01*
X126155000Y-13372936D02*
X126155000Y-13827064D01*
X108340000Y-13597936D02*
X108340000Y-14802064D01*
X110160000Y-13597936D02*
X110160000Y-14802064D01*
D17*
X99054000Y-10685000D02*
X99054000Y-8735000D01*
X111844000Y-8385000D02*
X99044000Y-8385000D01*
X111844000Y-1585000D02*
X111844000Y-8385000D01*
X99044000Y-8385000D02*
X99044000Y-1585000D01*
X99044000Y-1585000D02*
X111844000Y-1585000D01*
X124788000Y715000D02*
X124788000Y-1235000D01*
X124798000Y-1585000D02*
X124798000Y-8385000D01*
X124798000Y-8385000D02*
X111998000Y-8385000D01*
X111998000Y-1585000D02*
X124798000Y-1585000D01*
X111998000Y-8385000D02*
X111998000Y-1585000D01*
D10*
X138604859Y3080500D02*
X138912141Y3080500D01*
X138604859Y3840500D02*
X138912141Y3840500D01*
X139227000Y-21849359D02*
X139227000Y-22156641D01*
X139987000Y-21849359D02*
X139987000Y-22156641D01*
X132432500Y2384641D02*
X132432500Y2077359D01*
X133192500Y2384641D02*
X133192500Y2077359D01*
X133702500Y2384641D02*
X133702500Y2077359D01*
X134462500Y2384641D02*
X134462500Y2077359D01*
X135732500Y2384641D02*
X135732500Y2077359D01*
X134972500Y2384641D02*
X134972500Y2077359D01*
X118145000Y2384641D02*
X118145000Y2077359D01*
X118905000Y2384641D02*
X118905000Y2077359D01*
X120685000Y2384641D02*
X120685000Y2077359D01*
X121445000Y2384641D02*
X121445000Y2077359D01*
X122715000Y2384641D02*
X122715000Y2077359D01*
X121955000Y2384641D02*
X121955000Y2077359D01*
X123985000Y2384641D02*
X123985000Y2077359D01*
X123225000Y2384641D02*
X123225000Y2077359D01*
X91600000Y2384641D02*
X91600000Y2077359D01*
X90840000Y2384641D02*
X90840000Y2077359D01*
X92870000Y2384641D02*
X92870000Y2077359D01*
X92110000Y2384641D02*
X92110000Y2077359D01*
X101889000Y2384641D02*
X101889000Y2077359D01*
X102649000Y2384641D02*
X102649000Y2077359D01*
X103919000Y2384641D02*
X103919000Y2077359D01*
X103159000Y2384641D02*
X103159000Y2077359D01*
X104429000Y2384641D02*
X104429000Y2077359D01*
X105189000Y2384641D02*
X105189000Y2077359D01*
X105699000Y2384641D02*
X105699000Y2077359D01*
X106459000Y2384641D02*
X106459000Y2077359D01*
X128067500Y-13372936D02*
X128067500Y-13827064D01*
X129537500Y-13372936D02*
X129537500Y-13827064D01*
X129980000Y-13372936D02*
X129980000Y-13827064D01*
X131450000Y-13372936D02*
X131450000Y-13827064D01*
X133362500Y-13372936D02*
X133362500Y-13827064D01*
X131892500Y-13372936D02*
X131892500Y-13827064D01*
X135275000Y-13372936D02*
X135275000Y-13827064D01*
X133805000Y-13372936D02*
X133805000Y-13827064D01*
X118505000Y-13372936D02*
X118505000Y-13827064D01*
X119975000Y-13372936D02*
X119975000Y-13827064D01*
X120417500Y-13372936D02*
X120417500Y-13827064D01*
X121887500Y-13372936D02*
X121887500Y-13827064D01*
X122330000Y-13372936D02*
X122330000Y-13827064D01*
X123800000Y-13372936D02*
X123800000Y-13827064D01*
X125712500Y-13372936D02*
X125712500Y-13827064D01*
X124242500Y-13372936D02*
X124242500Y-13827064D01*
X90890000Y-13372936D02*
X90890000Y-13827064D01*
X92360000Y-13372936D02*
X92360000Y-13827064D01*
X94272500Y-13372936D02*
X94272500Y-13827064D01*
X92802500Y-13372936D02*
X92802500Y-13827064D01*
X96185000Y-13372936D02*
X96185000Y-13827064D01*
X94715000Y-13372936D02*
X94715000Y-13827064D01*
X98097500Y-13372936D02*
X98097500Y-13827064D01*
X96627500Y-13372936D02*
X96627500Y-13827064D01*
X100010000Y-13372936D02*
X100010000Y-13827064D01*
X98540000Y-13372936D02*
X98540000Y-13827064D01*
X101922500Y-13372936D02*
X101922500Y-13827064D01*
X100452500Y-13372936D02*
X100452500Y-13827064D01*
X103835000Y-13372936D02*
X103835000Y-13827064D01*
X102365000Y-13372936D02*
X102365000Y-13827064D01*
X129537500Y-17227064D02*
X129537500Y-16772936D01*
X128067500Y-17227064D02*
X128067500Y-16772936D01*
X129980000Y-17227064D02*
X129980000Y-16772936D01*
X131450000Y-17227064D02*
X131450000Y-16772936D01*
X131892500Y-17227064D02*
X131892500Y-16772936D01*
X133362500Y-17227064D02*
X133362500Y-16772936D01*
X135275000Y-17227064D02*
X135275000Y-16772936D01*
X133805000Y-17227064D02*
X133805000Y-16772936D01*
X118505000Y-17227064D02*
X118505000Y-16772936D01*
X119975000Y-17227064D02*
X119975000Y-16772936D01*
X120417500Y-17227064D02*
X120417500Y-16772936D01*
X121887500Y-17227064D02*
X121887500Y-16772936D01*
X123800000Y-17227064D02*
X123800000Y-16772936D01*
X122330000Y-17227064D02*
X122330000Y-16772936D01*
X124242500Y-17227064D02*
X124242500Y-16772936D01*
X125712500Y-17227064D02*
X125712500Y-16772936D01*
X126155000Y-17227064D02*
X126155000Y-16772936D01*
X127625000Y-17227064D02*
X127625000Y-16772936D01*
X88535000Y-17227064D02*
X88535000Y-16772936D01*
X87065000Y-17227064D02*
X87065000Y-16772936D01*
X88977500Y-17227064D02*
X88977500Y-16772936D01*
X90447500Y-17227064D02*
X90447500Y-16772936D01*
X92360000Y-17227064D02*
X92360000Y-16772936D01*
X90890000Y-17227064D02*
X90890000Y-16772936D01*
X94272500Y-17227064D02*
X94272500Y-16772936D01*
X92802500Y-17227064D02*
X92802500Y-16772936D01*
X96185000Y-17227064D02*
X96185000Y-16772936D01*
X94715000Y-17227064D02*
X94715000Y-16772936D01*
X96627500Y-17227064D02*
X96627500Y-16772936D01*
X98097500Y-17227064D02*
X98097500Y-16772936D01*
X98540000Y-17227064D02*
X98540000Y-16772936D01*
X100010000Y-17227064D02*
X100010000Y-16772936D01*
X100452500Y-17227064D02*
X100452500Y-16772936D01*
X101922500Y-17227064D02*
X101922500Y-16772936D01*
X103835000Y-17227064D02*
X103835000Y-16772936D01*
X102365000Y-17227064D02*
X102365000Y-16772936D01*
G36*
X94246833Y-6203158D02*
G01*
X94454267Y-6207913D01*
X94661700Y-6212667D01*
X94666741Y-6318501D01*
X94671783Y-6424334D01*
X94856433Y-6424334D01*
X94856433Y-6813801D01*
X94670166Y-6813801D01*
X94670166Y-6424334D01*
X94246833Y-6424334D01*
X94246833Y-6204201D01*
X91368166Y-6204201D01*
X91368166Y-7457267D01*
X91164967Y-7457267D01*
X91164967Y-6204201D01*
X91366476Y-6204201D01*
X91371555Y-6106834D01*
X91376633Y-6009467D01*
X94246833Y-6000809D01*
X94246833Y-6203158D01*
G37*
D18*
X94246833Y-6203158D02*
X94454267Y-6207913D01*
X94661700Y-6212667D01*
X94666741Y-6318501D01*
X94671783Y-6424334D01*
X94856433Y-6424334D01*
X94856433Y-6813801D01*
X94670166Y-6813801D01*
X94670166Y-6424334D01*
X94246833Y-6424334D01*
X94246833Y-6204201D01*
X91368166Y-6204201D01*
X91368166Y-7457267D01*
X91164967Y-7457267D01*
X91164967Y-6204201D01*
X91366476Y-6204201D01*
X91371555Y-6106834D01*
X91376633Y-6009467D01*
X94246833Y-6000809D01*
X94246833Y-6203158D01*
G36*
X88692700Y-3325534D02*
G01*
X88269367Y-3325534D01*
X88269367Y-3139267D01*
X88692700Y-3139267D01*
X88692700Y-3325534D01*
G37*
X88692700Y-3325534D02*
X88269367Y-3325534D01*
X88269367Y-3139267D01*
X88692700Y-3139267D01*
X88692700Y-3325534D01*
G36*
X96295766Y-3952067D02*
G01*
X96092566Y-3952067D01*
X96092566Y-3731934D01*
X96295766Y-3731934D01*
X96295766Y-3952067D01*
G37*
X96295766Y-3952067D02*
X96092566Y-3952067D01*
X96092566Y-3731934D01*
X96295766Y-3731934D01*
X96295766Y-3952067D01*
G36*
X91164967Y-2292601D02*
G01*
X90961767Y-2292601D01*
X90961767Y-1886201D01*
X90538433Y-1886201D01*
X90538433Y-1683001D01*
X91164967Y-1683001D01*
X91164967Y-2292601D01*
G37*
X91164967Y-2292601D02*
X90961767Y-2292601D01*
X90961767Y-1886201D01*
X90538433Y-1886201D01*
X90538433Y-1683001D01*
X91164967Y-1683001D01*
X91164967Y-2292601D01*
G36*
X88269367Y-3952067D02*
G01*
X88066167Y-3952067D01*
X88066167Y-3325534D01*
X88269367Y-3325534D01*
X88269367Y-3952067D01*
G37*
X88269367Y-3952067D02*
X88066167Y-3952067D01*
X88066167Y-3325534D01*
X88269367Y-3325534D01*
X88269367Y-3952067D01*
G36*
X89928833Y-8049934D02*
G01*
X89725633Y-8049934D01*
X89725633Y-7846734D01*
X89928833Y-7846734D01*
X89928833Y-8049934D01*
G37*
X89928833Y-8049934D02*
X89725633Y-8049934D01*
X89725633Y-7846734D01*
X89928833Y-7846734D01*
X89928833Y-8049934D01*
G36*
X94945333Y-6814060D02*
G01*
X95000104Y-6816687D01*
X95042256Y-6823114D01*
X95055803Y-6828008D01*
X95063865Y-6841604D01*
X95069437Y-6872999D01*
X95072718Y-6925950D01*
X95073909Y-7004218D01*
X95073211Y-7111561D01*
X95072736Y-7145249D01*
X95068100Y-7448801D01*
X94962266Y-7453842D01*
X94856433Y-7458883D01*
X94856433Y-7846734D01*
X94670166Y-7846734D01*
X94670166Y-7457267D01*
X94856433Y-7457267D01*
X94856433Y-6813801D01*
X94945333Y-6814060D01*
G37*
X94945333Y-6814060D02*
X95000104Y-6816687D01*
X95042256Y-6823114D01*
X95055803Y-6828008D01*
X95063865Y-6841604D01*
X95069437Y-6872999D01*
X95072718Y-6925950D01*
X95073909Y-7004218D01*
X95073211Y-7111561D01*
X95072736Y-7145249D01*
X95068100Y-7448801D01*
X94962266Y-7453842D01*
X94856433Y-7458883D01*
X94856433Y-7846734D01*
X94670166Y-7846734D01*
X94670166Y-7457267D01*
X94856433Y-7457267D01*
X94856433Y-6813801D01*
X94945333Y-6814060D01*
G36*
X90961767Y-8049934D02*
G01*
X90540049Y-8049934D01*
X90529967Y-8261600D01*
X90241075Y-8266220D01*
X90145387Y-8267087D01*
X90061696Y-8266587D01*
X89995787Y-8264857D01*
X89953445Y-8262033D01*
X89940508Y-8259164D01*
X89934202Y-8237101D01*
X89929963Y-8192102D01*
X89928833Y-8148712D01*
X89928833Y-8049934D01*
X90538433Y-8049934D01*
X90538433Y-7846734D01*
X90961767Y-7846734D01*
X90961767Y-8049934D01*
G37*
X90961767Y-8049934D02*
X90540049Y-8049934D01*
X90529967Y-8261600D01*
X90241075Y-8266220D01*
X90145387Y-8267087D01*
X90061696Y-8266587D01*
X89995787Y-8264857D01*
X89953445Y-8262033D01*
X89940508Y-8259164D01*
X89934202Y-8237101D01*
X89929963Y-8192102D01*
X89928833Y-8148712D01*
X89928833Y-8049934D01*
X90538433Y-8049934D01*
X90538433Y-7846734D01*
X90961767Y-7846734D01*
X90961767Y-8049934D01*
G36*
X89928833Y-2919134D02*
G01*
X89725633Y-2919134D01*
X89725633Y-2715934D01*
X89928833Y-2715934D01*
X89928833Y-2919134D01*
G37*
X89928833Y-2919134D02*
X89725633Y-2919134D01*
X89725633Y-2715934D01*
X89928833Y-2715934D01*
X89928833Y-2919134D01*
G36*
X90961767Y-3139267D02*
G01*
X91164967Y-3139267D01*
X91164967Y-3325534D01*
X90961767Y-3325534D01*
X90961767Y-3140310D01*
X90754333Y-3135555D01*
X90546900Y-3130801D01*
X90542371Y-2711700D01*
X90537842Y-2292601D01*
X90961767Y-2292601D01*
X90961767Y-3139267D01*
G37*
X90961767Y-3139267D02*
X91164967Y-3139267D01*
X91164967Y-3325534D01*
X90961767Y-3325534D01*
X90961767Y-3140310D01*
X90754333Y-3135555D01*
X90546900Y-3130801D01*
X90542371Y-2711700D01*
X90537842Y-2292601D01*
X90961767Y-2292601D01*
X90961767Y-3139267D01*
G36*
X89928833Y-4153651D02*
G01*
X90034666Y-4158692D01*
X90140500Y-4163734D01*
X90145124Y-4464301D01*
X90149748Y-4764867D01*
X90536817Y-4764867D01*
X90541858Y-4870701D01*
X90546900Y-4976534D01*
X90754333Y-4981288D01*
X90961767Y-4986043D01*
X90961767Y-5797800D01*
X90538433Y-5797800D01*
X90538433Y-6001001D01*
X90335597Y-6001001D01*
X90326767Y-7448801D01*
X90237867Y-7453919D01*
X90148966Y-7459037D01*
X90148966Y-7846734D01*
X89928833Y-7846734D01*
X89928833Y-7457267D01*
X90148966Y-7457267D01*
X90148966Y-4766483D01*
X89937300Y-4756401D01*
X89928052Y-4155267D01*
X88269367Y-4155267D01*
X88269367Y-3952067D01*
X89928833Y-3952067D01*
X89928833Y-4153651D01*
G37*
X89928833Y-4153651D02*
X90034666Y-4158692D01*
X90140500Y-4163734D01*
X90145124Y-4464301D01*
X90149748Y-4764867D01*
X90536817Y-4764867D01*
X90541858Y-4870701D01*
X90546900Y-4976534D01*
X90754333Y-4981288D01*
X90961767Y-4986043D01*
X90961767Y-5797800D01*
X90538433Y-5797800D01*
X90538433Y-6001001D01*
X90335597Y-6001001D01*
X90326767Y-7448801D01*
X90237867Y-7453919D01*
X90148966Y-7459037D01*
X90148966Y-7846734D01*
X89928833Y-7846734D01*
X89928833Y-7457267D01*
X90148966Y-7457267D01*
X90148966Y-4766483D01*
X89937300Y-4756401D01*
X89928052Y-4155267D01*
X88269367Y-4155267D01*
X88269367Y-3952067D01*
X89928833Y-3952067D01*
X89928833Y-4153651D01*
G36*
X96092566Y-7457267D02*
G01*
X95906300Y-7457267D01*
X95906300Y-5797800D01*
X96092566Y-5797800D01*
X96092566Y-7457267D01*
G37*
X96092566Y-7457267D02*
X95906300Y-7457267D01*
X95906300Y-5797800D01*
X96092566Y-5797800D01*
X96092566Y-7457267D01*
G36*
X91164967Y-7846734D02*
G01*
X90961767Y-7846734D01*
X90961767Y-7457267D01*
X91164967Y-7457267D01*
X91164967Y-7846734D01*
G37*
X91164967Y-7846734D02*
X90961767Y-7846734D01*
X90961767Y-7457267D01*
X91164967Y-7457267D01*
X91164967Y-7846734D01*
G36*
X91571366Y-3731934D02*
G01*
X91164967Y-3731934D01*
X91164967Y-3325534D01*
X91571366Y-3325534D01*
X91571366Y-3731934D01*
G37*
X91571366Y-3731934D02*
X91164967Y-3731934D01*
X91164967Y-3325534D01*
X91571366Y-3325534D01*
X91571366Y-3731934D01*
G36*
X89725633Y-1886201D02*
G01*
X89302902Y-1886201D01*
X89298368Y-2296834D01*
X89293833Y-2707467D01*
X89204933Y-2712585D01*
X89116033Y-2717704D01*
X89116033Y-2917518D01*
X89010200Y-2922559D01*
X88904366Y-2927601D01*
X88894284Y-3139267D01*
X88692700Y-3139267D01*
X88692700Y-2919134D01*
X88904366Y-2919196D01*
X88892892Y-2715934D01*
X89116033Y-2715934D01*
X89116033Y-1886201D01*
X89302300Y-1886201D01*
X89302300Y-1683001D01*
X89725633Y-1683001D01*
X89725633Y-1886201D01*
G37*
X89725633Y-1886201D02*
X89302902Y-1886201D01*
X89298368Y-2296834D01*
X89293833Y-2707467D01*
X89204933Y-2712585D01*
X89116033Y-2717704D01*
X89116033Y-2917518D01*
X89010200Y-2922559D01*
X88904366Y-2927601D01*
X88894284Y-3139267D01*
X88692700Y-3139267D01*
X88692700Y-2919134D01*
X88904366Y-2919196D01*
X88892892Y-2715934D01*
X89116033Y-2715934D01*
X89116033Y-1886201D01*
X89302300Y-1886201D01*
X89302300Y-1683001D01*
X89725633Y-1683001D01*
X89725633Y-1886201D01*
G36*
X94670166Y-8049934D02*
G01*
X95279766Y-8049934D01*
X95279766Y-7846734D01*
X95703100Y-7846734D01*
X95703100Y-8049934D01*
X95281383Y-8049934D01*
X95276341Y-8155767D01*
X95271300Y-8261600D01*
X94678633Y-8261600D01*
X94673592Y-8155767D01*
X94668550Y-8049934D01*
X94246833Y-8049934D01*
X94246833Y-7846734D01*
X94670166Y-7846734D01*
X94670166Y-8049934D01*
G37*
X94670166Y-8049934D02*
X95279766Y-8049934D01*
X95279766Y-7846734D01*
X95703100Y-7846734D01*
X95703100Y-8049934D01*
X95281383Y-8049934D01*
X95276341Y-8155767D01*
X95271300Y-8261600D01*
X94678633Y-8261600D01*
X94673592Y-8155767D01*
X94668550Y-8049934D01*
X94246833Y-8049934D01*
X94246833Y-7846734D01*
X94670166Y-7846734D01*
X94670166Y-8049934D01*
G36*
X95906300Y-7846734D02*
G01*
X95703100Y-7846734D01*
X95703100Y-7457267D01*
X95906300Y-7457267D01*
X95906300Y-7846734D01*
G37*
X95906300Y-7846734D02*
X95703100Y-7846734D01*
X95703100Y-7457267D01*
X95906300Y-7457267D01*
X95906300Y-7846734D01*
G36*
X96299171Y-2177480D02*
G01*
X96304233Y-2284134D01*
X96405833Y-2292601D01*
X96507433Y-2301067D01*
X96511850Y-3016501D01*
X96516267Y-3731934D01*
X96295766Y-3731934D01*
X96295766Y-2715934D01*
X96092566Y-2715934D01*
X96092566Y-2919134D01*
X95907916Y-2919134D01*
X95902875Y-3024967D01*
X95897833Y-3130801D01*
X95801323Y-3135853D01*
X95704813Y-3140906D01*
X95699723Y-3228987D01*
X95694633Y-3317067D01*
X95487200Y-3321822D01*
X95279766Y-3326576D01*
X95279766Y-3731934D01*
X95068100Y-3731872D01*
X95068100Y-3943601D01*
X94869133Y-3948371D01*
X94670166Y-3953142D01*
X94670166Y-4340491D01*
X94255300Y-4350001D01*
X94250545Y-4557434D01*
X94245791Y-4764867D01*
X93010700Y-4764867D01*
X93010700Y-4341534D01*
X92587367Y-4341534D01*
X92587367Y-4155267D01*
X92401100Y-4155267D01*
X92401100Y-3952067D01*
X91571366Y-3952067D01*
X91571366Y-3732092D01*
X93319733Y-3727780D01*
X95068100Y-3723467D01*
X95072871Y-3524500D01*
X95077641Y-3325534D01*
X95279766Y-3325534D01*
X95279766Y-3139267D01*
X95703100Y-3139267D01*
X95703100Y-2919134D01*
X95906300Y-2919134D01*
X95906300Y-2715934D01*
X96091819Y-2715934D01*
X96101033Y-2080934D01*
X96197571Y-2075880D01*
X96294108Y-2070827D01*
X96299171Y-2177480D01*
G37*
X96299171Y-2177480D02*
X96304233Y-2284134D01*
X96405833Y-2292601D01*
X96507433Y-2301067D01*
X96511850Y-3016501D01*
X96516267Y-3731934D01*
X96295766Y-3731934D01*
X96295766Y-2715934D01*
X96092566Y-2715934D01*
X96092566Y-2919134D01*
X95907916Y-2919134D01*
X95902875Y-3024967D01*
X95897833Y-3130801D01*
X95801323Y-3135853D01*
X95704813Y-3140906D01*
X95699723Y-3228987D01*
X95694633Y-3317067D01*
X95487200Y-3321822D01*
X95279766Y-3326576D01*
X95279766Y-3731934D01*
X95068100Y-3731872D01*
X95068100Y-3943601D01*
X94869133Y-3948371D01*
X94670166Y-3953142D01*
X94670166Y-4340491D01*
X94255300Y-4350001D01*
X94250545Y-4557434D01*
X94245791Y-4764867D01*
X93010700Y-4764867D01*
X93010700Y-4341534D01*
X92587367Y-4341534D01*
X92587367Y-4155267D01*
X92401100Y-4155267D01*
X92401100Y-3952067D01*
X91571366Y-3952067D01*
X91571366Y-3732092D01*
X93319733Y-3727780D01*
X95068100Y-3723467D01*
X95072871Y-3524500D01*
X95077641Y-3325534D01*
X95279766Y-3325534D01*
X95279766Y-3139267D01*
X95703100Y-3139267D01*
X95703100Y-2919134D01*
X95906300Y-2919134D01*
X95906300Y-2715934D01*
X96091819Y-2715934D01*
X96101033Y-2080934D01*
X96197571Y-2075880D01*
X96294108Y-2070827D01*
X96299171Y-2177480D01*
G36*
X95906300Y-5797800D02*
G01*
X95703100Y-5797800D01*
X95703100Y-4341534D01*
X95906300Y-4341534D01*
X95906300Y-5797800D01*
G37*
X95906300Y-5797800D02*
X95703100Y-5797800D01*
X95703100Y-4341534D01*
X95906300Y-4341534D01*
X95906300Y-5797800D01*
G36*
X96092566Y-4341534D02*
G01*
X95906300Y-4341534D01*
X95906300Y-3952067D01*
X96092566Y-3952067D01*
X96092566Y-4341534D01*
G37*
X96092566Y-4341534D02*
X95906300Y-4341534D01*
X95906300Y-3952067D01*
X96092566Y-3952067D01*
X96092566Y-4341534D01*
G36*
X89928833Y-2072467D02*
G01*
X90335233Y-2072467D01*
X90335233Y-1886201D01*
X90538433Y-1886201D01*
X90538433Y-2072467D01*
X90336849Y-2072467D01*
X90331808Y-2178300D01*
X90326767Y-2284134D01*
X89725633Y-2293382D01*
X89725633Y-1886201D01*
X89928833Y-1886201D01*
X89928833Y-2072467D01*
G37*
X89928833Y-2072467D02*
X90335233Y-2072467D01*
X90335233Y-1886201D01*
X90538433Y-1886201D01*
X90538433Y-2072467D01*
X90336849Y-2072467D01*
X90331808Y-2178300D01*
X90326767Y-2284134D01*
X89725633Y-2293382D01*
X89725633Y-1886201D01*
X89928833Y-1886201D01*
X89928833Y-2072467D01*
G36*
X132562733Y-8083799D02*
G01*
X132986067Y-8083799D01*
X132986067Y-8286999D01*
X132359533Y-8286999D01*
X132359533Y-7677399D01*
X132562733Y-7677399D01*
X132562733Y-8083799D01*
G37*
X132562733Y-8083799D02*
X132986067Y-8083799D01*
X132986067Y-8286999D01*
X132359533Y-8286999D01*
X132359533Y-7677399D01*
X132562733Y-7677399D01*
X132562733Y-8083799D01*
G36*
X133462804Y-1703413D02*
G01*
X133528713Y-1705143D01*
X133571055Y-1707967D01*
X133583992Y-1710836D01*
X133590298Y-1732899D01*
X133594537Y-1777898D01*
X133595667Y-1821288D01*
X133595667Y-1920066D01*
X132986067Y-1920066D01*
X132986067Y-2123266D01*
X132562733Y-2123266D01*
X132562733Y-1920066D01*
X132984451Y-1920066D01*
X132994533Y-1708400D01*
X133283425Y-1703780D01*
X133379113Y-1702913D01*
X133462804Y-1703413D01*
G37*
X133462804Y-1703413D02*
X133528713Y-1705143D01*
X133571055Y-1707967D01*
X133583992Y-1710836D01*
X133590298Y-1732899D01*
X133594537Y-1777898D01*
X133595667Y-1821288D01*
X133595667Y-1920066D01*
X132986067Y-1920066D01*
X132986067Y-2123266D01*
X132562733Y-2123266D01*
X132562733Y-1920066D01*
X132984451Y-1920066D01*
X132994533Y-1708400D01*
X133283425Y-1703780D01*
X133379113Y-1702913D01*
X133462804Y-1703413D01*
G36*
X127821400Y-5628466D02*
G01*
X127618200Y-5628466D01*
X127618200Y-4172200D01*
X127821400Y-4172200D01*
X127821400Y-5628466D01*
G37*
X127821400Y-5628466D02*
X127618200Y-5628466D01*
X127618200Y-4172200D01*
X127821400Y-4172200D01*
X127821400Y-5628466D01*
G36*
X132359533Y-3765799D02*
G01*
X132158024Y-3765799D01*
X132152945Y-3863166D01*
X132147867Y-3960533D01*
X129277667Y-3969191D01*
X129277667Y-3766842D01*
X129070233Y-3762087D01*
X128862800Y-3757333D01*
X128857759Y-3651499D01*
X128852717Y-3545666D01*
X128668067Y-3545666D01*
X128668067Y-3156199D01*
X128854334Y-3156199D01*
X128854334Y-3545666D01*
X129277667Y-3545666D01*
X129277667Y-3765799D01*
X132156334Y-3765799D01*
X132156334Y-2512733D01*
X132359533Y-2512733D01*
X132359533Y-3765799D01*
G37*
X132359533Y-3765799D02*
X132158024Y-3765799D01*
X132152945Y-3863166D01*
X132147867Y-3960533D01*
X129277667Y-3969191D01*
X129277667Y-3766842D01*
X129070233Y-3762087D01*
X128862800Y-3757333D01*
X128857759Y-3651499D01*
X128852717Y-3545666D01*
X128668067Y-3545666D01*
X128668067Y-3156199D01*
X128854334Y-3156199D01*
X128854334Y-3545666D01*
X129277667Y-3545666D01*
X129277667Y-3765799D01*
X132156334Y-3765799D01*
X132156334Y-2512733D01*
X132359533Y-2512733D01*
X132359533Y-3765799D01*
G36*
X134831800Y-7050866D02*
G01*
X134620134Y-7050804D01*
X134631608Y-7254066D01*
X134408467Y-7254066D01*
X134408467Y-8083799D01*
X134222200Y-8083799D01*
X134222200Y-8286999D01*
X133798867Y-8286999D01*
X133798867Y-8083799D01*
X134221598Y-8083799D01*
X134226132Y-7673166D01*
X134230667Y-7262533D01*
X134319567Y-7257415D01*
X134408467Y-7252296D01*
X134408467Y-7052482D01*
X134514300Y-7047441D01*
X134620134Y-7042399D01*
X134630216Y-6830733D01*
X134831800Y-6830733D01*
X134831800Y-7050866D01*
G37*
X134831800Y-7050866D02*
X134620134Y-7050804D01*
X134631608Y-7254066D01*
X134408467Y-7254066D01*
X134408467Y-8083799D01*
X134222200Y-8083799D01*
X134222200Y-8286999D01*
X133798867Y-8286999D01*
X133798867Y-8083799D01*
X134221598Y-8083799D01*
X134226132Y-7673166D01*
X134230667Y-7262533D01*
X134319567Y-7257415D01*
X134408467Y-7252296D01*
X134408467Y-7052482D01*
X134514300Y-7047441D01*
X134620134Y-7042399D01*
X134630216Y-6830733D01*
X134831800Y-6830733D01*
X134831800Y-7050866D01*
G36*
X135458333Y-6644466D02*
G01*
X135255133Y-6644466D01*
X135255133Y-6017933D01*
X135458333Y-6017933D01*
X135458333Y-6644466D01*
G37*
X135458333Y-6644466D02*
X135255133Y-6644466D01*
X135255133Y-6017933D01*
X135458333Y-6017933D01*
X135458333Y-6644466D01*
G36*
X133595667Y-2512733D02*
G01*
X133375534Y-2512733D01*
X133375534Y-5203517D01*
X133587200Y-5213599D01*
X133596448Y-5814733D01*
X135255133Y-5814733D01*
X135255133Y-6017933D01*
X133595667Y-6017933D01*
X133595667Y-5816349D01*
X133489834Y-5811308D01*
X133384000Y-5806266D01*
X133379376Y-5505699D01*
X133374752Y-5205133D01*
X132987683Y-5205133D01*
X132982642Y-5099299D01*
X132977600Y-4993466D01*
X132770167Y-4988712D01*
X132562733Y-4983957D01*
X132562733Y-4172200D01*
X132986067Y-4172200D01*
X132986067Y-3968999D01*
X133188903Y-3968999D01*
X133197733Y-2521199D01*
X133286633Y-2516081D01*
X133375534Y-2510963D01*
X133375534Y-2123266D01*
X133595667Y-2123266D01*
X133595667Y-2512733D01*
G37*
X133595667Y-2512733D02*
X133375534Y-2512733D01*
X133375534Y-5203517D01*
X133587200Y-5213599D01*
X133596448Y-5814733D01*
X135255133Y-5814733D01*
X135255133Y-6017933D01*
X133595667Y-6017933D01*
X133595667Y-5816349D01*
X133489834Y-5811308D01*
X133384000Y-5806266D01*
X133379376Y-5505699D01*
X133374752Y-5205133D01*
X132987683Y-5205133D01*
X132982642Y-5099299D01*
X132977600Y-4993466D01*
X132770167Y-4988712D01*
X132562733Y-4983957D01*
X132562733Y-4172200D01*
X132986067Y-4172200D01*
X132986067Y-3968999D01*
X133188903Y-3968999D01*
X133197733Y-2521199D01*
X133286633Y-2516081D01*
X133375534Y-2510963D01*
X133375534Y-2123266D01*
X133595667Y-2123266D01*
X133595667Y-2512733D01*
G36*
X135255133Y-6830733D02*
G01*
X134831800Y-6830733D01*
X134831800Y-6644466D01*
X135255133Y-6644466D01*
X135255133Y-6830733D01*
G37*
X135255133Y-6830733D02*
X134831800Y-6830733D01*
X134831800Y-6644466D01*
X135255133Y-6644466D01*
X135255133Y-6830733D01*
G36*
X133798867Y-8083799D02*
G01*
X133595667Y-8083799D01*
X133595667Y-7897533D01*
X133189267Y-7897533D01*
X133189267Y-8083799D01*
X132986067Y-8083799D01*
X132986067Y-7897533D01*
X133187651Y-7897533D01*
X133192692Y-7791700D01*
X133197733Y-7685866D01*
X133798867Y-7676618D01*
X133798867Y-8083799D01*
G37*
X133798867Y-8083799D02*
X133595667Y-8083799D01*
X133595667Y-7897533D01*
X133189267Y-7897533D01*
X133189267Y-8083799D01*
X132986067Y-8083799D01*
X132986067Y-7897533D01*
X133187651Y-7897533D01*
X133192692Y-7791700D01*
X133197733Y-7685866D01*
X133798867Y-7676618D01*
X133798867Y-8083799D01*
G36*
X133798867Y-2123266D02*
G01*
X133595667Y-2123266D01*
X133595667Y-1920066D01*
X133798867Y-1920066D01*
X133798867Y-2123266D01*
G37*
X133798867Y-2123266D02*
X133595667Y-2123266D01*
X133595667Y-1920066D01*
X133798867Y-1920066D01*
X133798867Y-2123266D01*
G36*
X132359533Y-6644466D02*
G01*
X131953134Y-6644466D01*
X131953134Y-6238066D01*
X132359533Y-6238066D01*
X132359533Y-6644466D01*
G37*
X132359533Y-6644466D02*
X131953134Y-6644466D01*
X131953134Y-6238066D01*
X132359533Y-6238066D01*
X132359533Y-6644466D01*
G36*
X132562733Y-6829690D02*
G01*
X132770167Y-6834445D01*
X132977600Y-6839199D01*
X132982129Y-7258300D01*
X132986658Y-7677399D01*
X132562733Y-7677399D01*
X132562733Y-6830733D01*
X132359533Y-6830733D01*
X132359533Y-6644466D01*
X132562733Y-6644466D01*
X132562733Y-6829690D01*
G37*
X132562733Y-6829690D02*
X132770167Y-6834445D01*
X132977600Y-6839199D01*
X132982129Y-7258300D01*
X132986658Y-7677399D01*
X132562733Y-7677399D01*
X132562733Y-6830733D01*
X132359533Y-6830733D01*
X132359533Y-6644466D01*
X132562733Y-6644466D01*
X132562733Y-6829690D01*
G36*
X133798867Y-7254066D02*
G01*
X133595667Y-7254066D01*
X133595667Y-7050866D01*
X133798867Y-7050866D01*
X133798867Y-7254066D01*
G37*
X133798867Y-7254066D02*
X133595667Y-7254066D01*
X133595667Y-7050866D01*
X133798867Y-7050866D01*
X133798867Y-7254066D01*
G36*
X128850908Y-1814233D02*
G01*
X128855950Y-1920066D01*
X129277667Y-1920066D01*
X129277667Y-2123266D01*
X128854334Y-2123266D01*
X128854334Y-1920066D01*
X128244734Y-1920066D01*
X128244734Y-2123266D01*
X127821400Y-2123266D01*
X127821400Y-1920066D01*
X128243117Y-1920066D01*
X128248159Y-1814233D01*
X128253200Y-1708400D01*
X128845867Y-1708400D01*
X128850908Y-1814233D01*
G37*
X128850908Y-1814233D02*
X128855950Y-1920066D01*
X129277667Y-1920066D01*
X129277667Y-2123266D01*
X128854334Y-2123266D01*
X128854334Y-1920066D01*
X128244734Y-1920066D01*
X128244734Y-2123266D01*
X127821400Y-2123266D01*
X127821400Y-1920066D01*
X128243117Y-1920066D01*
X128248159Y-1814233D01*
X128253200Y-1708400D01*
X128845867Y-1708400D01*
X128850908Y-1814233D01*
G36*
X127618200Y-4172200D02*
G01*
X127431934Y-4172200D01*
X127431934Y-2512733D01*
X127618200Y-2512733D01*
X127618200Y-4172200D01*
G37*
X127618200Y-4172200D02*
X127431934Y-4172200D01*
X127431934Y-2512733D01*
X127618200Y-2512733D01*
X127618200Y-4172200D01*
G36*
X128854334Y-2512733D02*
G01*
X128668067Y-2512733D01*
X128668067Y-3156199D01*
X128579167Y-3155940D01*
X128524396Y-3153313D01*
X128482244Y-3146886D01*
X128468697Y-3141992D01*
X128460635Y-3128396D01*
X128455063Y-3097001D01*
X128451782Y-3044050D01*
X128450591Y-2965782D01*
X128451289Y-2858439D01*
X128451764Y-2824751D01*
X128456400Y-2521199D01*
X128562234Y-2516158D01*
X128668067Y-2511117D01*
X128668067Y-2123266D01*
X128854334Y-2123266D01*
X128854334Y-2512733D01*
G37*
X128854334Y-2512733D02*
X128668067Y-2512733D01*
X128668067Y-3156199D01*
X128579167Y-3155940D01*
X128524396Y-3153313D01*
X128482244Y-3146886D01*
X128468697Y-3141992D01*
X128460635Y-3128396D01*
X128455063Y-3097001D01*
X128451782Y-3044050D01*
X128450591Y-2965782D01*
X128451289Y-2858439D01*
X128451764Y-2824751D01*
X128456400Y-2521199D01*
X128562234Y-2516158D01*
X128668067Y-2511117D01*
X128668067Y-2123266D01*
X128854334Y-2123266D01*
X128854334Y-2512733D01*
G36*
X127618200Y-6017933D02*
G01*
X127431934Y-6017933D01*
X127431934Y-5628466D01*
X127618200Y-5628466D01*
X127618200Y-6017933D01*
G37*
X127618200Y-6017933D02*
X127431934Y-6017933D01*
X127431934Y-5628466D01*
X127618200Y-5628466D01*
X127618200Y-6017933D01*
G36*
X132562733Y-2512733D02*
G01*
X132359533Y-2512733D01*
X132359533Y-2123266D01*
X132562733Y-2123266D01*
X132562733Y-2512733D01*
G37*
X132562733Y-2512733D02*
X132359533Y-2512733D01*
X132359533Y-2123266D01*
X132562733Y-2123266D01*
X132562733Y-2512733D01*
G36*
X127821400Y-2512733D02*
G01*
X127618200Y-2512733D01*
X127618200Y-2123266D01*
X127821400Y-2123266D01*
X127821400Y-2512733D01*
G37*
X127821400Y-2512733D02*
X127618200Y-2512733D01*
X127618200Y-2123266D01*
X127821400Y-2123266D01*
X127821400Y-2512733D01*
G36*
X130513800Y-5628466D02*
G01*
X130937133Y-5628466D01*
X130937133Y-5814733D01*
X131123400Y-5814733D01*
X131123400Y-6017933D01*
X131953134Y-6017933D01*
X131953134Y-6237908D01*
X130204767Y-6242220D01*
X128456400Y-6246533D01*
X128451629Y-6445500D01*
X128446859Y-6644466D01*
X128244734Y-6644466D01*
X128244734Y-6830733D01*
X127821400Y-6830733D01*
X127821400Y-7050866D01*
X127618200Y-7050866D01*
X127618200Y-7254066D01*
X127432681Y-7254066D01*
X127423467Y-7889066D01*
X127326929Y-7894120D01*
X127230392Y-7899173D01*
X127225329Y-7792520D01*
X127220267Y-7685866D01*
X127118667Y-7677399D01*
X127017067Y-7668933D01*
X127012650Y-6953499D01*
X127008233Y-6238066D01*
X127228734Y-6238066D01*
X127228734Y-7254066D01*
X127431934Y-7254066D01*
X127431934Y-7050866D01*
X127616584Y-7050866D01*
X127621625Y-6945033D01*
X127626667Y-6839199D01*
X127723177Y-6834147D01*
X127819687Y-6829094D01*
X127824777Y-6741013D01*
X127829867Y-6652933D01*
X128037300Y-6648178D01*
X128244734Y-6643424D01*
X128244734Y-6238066D01*
X128456400Y-6238128D01*
X128456400Y-6026399D01*
X128655367Y-6021629D01*
X128854334Y-6016858D01*
X128854334Y-5629509D01*
X129269200Y-5619999D01*
X129273955Y-5412566D01*
X129278709Y-5205133D01*
X130513800Y-5205133D01*
X130513800Y-5628466D01*
G37*
X130513800Y-5628466D02*
X130937133Y-5628466D01*
X130937133Y-5814733D01*
X131123400Y-5814733D01*
X131123400Y-6017933D01*
X131953134Y-6017933D01*
X131953134Y-6237908D01*
X130204767Y-6242220D01*
X128456400Y-6246533D01*
X128451629Y-6445500D01*
X128446859Y-6644466D01*
X128244734Y-6644466D01*
X128244734Y-6830733D01*
X127821400Y-6830733D01*
X127821400Y-7050866D01*
X127618200Y-7050866D01*
X127618200Y-7254066D01*
X127432681Y-7254066D01*
X127423467Y-7889066D01*
X127326929Y-7894120D01*
X127230392Y-7899173D01*
X127225329Y-7792520D01*
X127220267Y-7685866D01*
X127118667Y-7677399D01*
X127017067Y-7668933D01*
X127012650Y-6953499D01*
X127008233Y-6238066D01*
X127228734Y-6238066D01*
X127228734Y-7254066D01*
X127431934Y-7254066D01*
X127431934Y-7050866D01*
X127616584Y-7050866D01*
X127621625Y-6945033D01*
X127626667Y-6839199D01*
X127723177Y-6834147D01*
X127819687Y-6829094D01*
X127824777Y-6741013D01*
X127829867Y-6652933D01*
X128037300Y-6648178D01*
X128244734Y-6643424D01*
X128244734Y-6238066D01*
X128456400Y-6238128D01*
X128456400Y-6026399D01*
X128655367Y-6021629D01*
X128854334Y-6016858D01*
X128854334Y-5629509D01*
X129269200Y-5619999D01*
X129273955Y-5412566D01*
X129278709Y-5205133D01*
X130513800Y-5205133D01*
X130513800Y-5628466D01*
G36*
X127431934Y-6238066D02*
G01*
X127228734Y-6238066D01*
X127228734Y-6017933D01*
X127431934Y-6017933D01*
X127431934Y-6238066D01*
G37*
X127431934Y-6238066D02*
X127228734Y-6238066D01*
X127228734Y-6017933D01*
X127431934Y-6017933D01*
X127431934Y-6238066D01*
G36*
X120463867Y-8083799D02*
G01*
X120260667Y-8083799D01*
X120260667Y-7897533D01*
X119854267Y-7897533D01*
X119854267Y-8083799D01*
X119651067Y-8083799D01*
X119651067Y-7897533D01*
X119852651Y-7897533D01*
X119857692Y-7791700D01*
X119862733Y-7685866D01*
X120463867Y-7676618D01*
X120463867Y-8083799D01*
G37*
X120463867Y-8083799D02*
X120260667Y-8083799D01*
X120260667Y-7897533D01*
X119854267Y-7897533D01*
X119854267Y-8083799D01*
X119651067Y-8083799D01*
X119651067Y-7897533D01*
X119852651Y-7897533D01*
X119857692Y-7791700D01*
X119862733Y-7685866D01*
X120463867Y-7676618D01*
X120463867Y-8083799D01*
G36*
X119227733Y-8083799D02*
G01*
X119651067Y-8083799D01*
X119651067Y-8286999D01*
X119024533Y-8286999D01*
X119024533Y-7677399D01*
X119227733Y-7677399D01*
X119227733Y-8083799D01*
G37*
X119227733Y-8083799D02*
X119651067Y-8083799D01*
X119651067Y-8286999D01*
X119024533Y-8286999D01*
X119024533Y-7677399D01*
X119227733Y-7677399D01*
X119227733Y-8083799D01*
G36*
X114283200Y-4172200D02*
G01*
X114096934Y-4172200D01*
X114096934Y-2512733D01*
X114283200Y-2512733D01*
X114283200Y-4172200D01*
G37*
X114283200Y-4172200D02*
X114096934Y-4172200D01*
X114096934Y-2512733D01*
X114283200Y-2512733D01*
X114283200Y-4172200D01*
G36*
X114486400Y-5628466D02*
G01*
X114283200Y-5628466D01*
X114283200Y-4172200D01*
X114486400Y-4172200D01*
X114486400Y-5628466D01*
G37*
X114486400Y-5628466D02*
X114283200Y-5628466D01*
X114283200Y-4172200D01*
X114486400Y-4172200D01*
X114486400Y-5628466D01*
G36*
X121496800Y-7050866D02*
G01*
X121285134Y-7050804D01*
X121296608Y-7254066D01*
X121073467Y-7254066D01*
X121073467Y-8083799D01*
X120887200Y-8083799D01*
X120887200Y-8286999D01*
X120463867Y-8286999D01*
X120463867Y-8083799D01*
X120886598Y-8083799D01*
X120891132Y-7673166D01*
X120895667Y-7262533D01*
X120984567Y-7257415D01*
X121073467Y-7252296D01*
X121073467Y-7052482D01*
X121179300Y-7047441D01*
X121285134Y-7042399D01*
X121295216Y-6830733D01*
X121496800Y-6830733D01*
X121496800Y-7050866D01*
G37*
X121496800Y-7050866D02*
X121285134Y-7050804D01*
X121296608Y-7254066D01*
X121073467Y-7254066D01*
X121073467Y-8083799D01*
X120887200Y-8083799D01*
X120887200Y-8286999D01*
X120463867Y-8286999D01*
X120463867Y-8083799D01*
X120886598Y-8083799D01*
X120891132Y-7673166D01*
X120895667Y-7262533D01*
X120984567Y-7257415D01*
X121073467Y-7252296D01*
X121073467Y-7052482D01*
X121179300Y-7047441D01*
X121285134Y-7042399D01*
X121295216Y-6830733D01*
X121496800Y-6830733D01*
X121496800Y-7050866D01*
G36*
X119227733Y-2512733D02*
G01*
X119024533Y-2512733D01*
X119024533Y-2123266D01*
X119227733Y-2123266D01*
X119227733Y-2512733D01*
G37*
X119227733Y-2512733D02*
X119024533Y-2512733D01*
X119024533Y-2123266D01*
X119227733Y-2123266D01*
X119227733Y-2512733D01*
G36*
X115519334Y-2512733D02*
G01*
X115333067Y-2512733D01*
X115333067Y-3156199D01*
X115244167Y-3155940D01*
X115189396Y-3153313D01*
X115147244Y-3146886D01*
X115133697Y-3141992D01*
X115125635Y-3128396D01*
X115120063Y-3097001D01*
X115116782Y-3044050D01*
X115115591Y-2965782D01*
X115116289Y-2858439D01*
X115116764Y-2824751D01*
X115121400Y-2521199D01*
X115227234Y-2516158D01*
X115333067Y-2511117D01*
X115333067Y-2123266D01*
X115519334Y-2123266D01*
X115519334Y-2512733D01*
G37*
X115519334Y-2512733D02*
X115333067Y-2512733D01*
X115333067Y-3156199D01*
X115244167Y-3155940D01*
X115189396Y-3153313D01*
X115147244Y-3146886D01*
X115133697Y-3141992D01*
X115125635Y-3128396D01*
X115120063Y-3097001D01*
X115116782Y-3044050D01*
X115115591Y-2965782D01*
X115116289Y-2858439D01*
X115116764Y-2824751D01*
X115121400Y-2521199D01*
X115227234Y-2516158D01*
X115333067Y-2511117D01*
X115333067Y-2123266D01*
X115519334Y-2123266D01*
X115519334Y-2512733D01*
G36*
X119227733Y-6829690D02*
G01*
X119435167Y-6834445D01*
X119642600Y-6839199D01*
X119647129Y-7258300D01*
X119651658Y-7677399D01*
X119227733Y-7677399D01*
X119227733Y-6830733D01*
X119024533Y-6830733D01*
X119024533Y-6644466D01*
X119227733Y-6644466D01*
X119227733Y-6829690D01*
G37*
X119227733Y-6829690D02*
X119435167Y-6834445D01*
X119642600Y-6839199D01*
X119647129Y-7258300D01*
X119651658Y-7677399D01*
X119227733Y-7677399D01*
X119227733Y-6830733D01*
X119024533Y-6830733D01*
X119024533Y-6644466D01*
X119227733Y-6644466D01*
X119227733Y-6829690D01*
G36*
X120127804Y-1703413D02*
G01*
X120193713Y-1705143D01*
X120236055Y-1707967D01*
X120248992Y-1710836D01*
X120255298Y-1732899D01*
X120259537Y-1777898D01*
X120260667Y-1821288D01*
X120260667Y-1920066D01*
X119651067Y-1920066D01*
X119651067Y-2123266D01*
X119227733Y-2123266D01*
X119227733Y-1920066D01*
X119649451Y-1920066D01*
X119659533Y-1708400D01*
X119948425Y-1703780D01*
X120044113Y-1702913D01*
X120127804Y-1703413D01*
G37*
X120127804Y-1703413D02*
X120193713Y-1705143D01*
X120236055Y-1707967D01*
X120248992Y-1710836D01*
X120255298Y-1732899D01*
X120259537Y-1777898D01*
X120260667Y-1821288D01*
X120260667Y-1920066D01*
X119651067Y-1920066D01*
X119651067Y-2123266D01*
X119227733Y-2123266D01*
X119227733Y-1920066D01*
X119649451Y-1920066D01*
X119659533Y-1708400D01*
X119948425Y-1703780D01*
X120044113Y-1702913D01*
X120127804Y-1703413D01*
G36*
X117178800Y-5628466D02*
G01*
X117602133Y-5628466D01*
X117602133Y-5814733D01*
X117788400Y-5814733D01*
X117788400Y-6017933D01*
X118618134Y-6017933D01*
X118618134Y-6237908D01*
X116869767Y-6242220D01*
X115121400Y-6246533D01*
X115116629Y-6445500D01*
X115111859Y-6644466D01*
X114909734Y-6644466D01*
X114909734Y-6830733D01*
X114486400Y-6830733D01*
X114486400Y-7050866D01*
X114283200Y-7050866D01*
X114283200Y-7254066D01*
X114097681Y-7254066D01*
X114088467Y-7889066D01*
X113991929Y-7894120D01*
X113895392Y-7899173D01*
X113890329Y-7792520D01*
X113885267Y-7685866D01*
X113783667Y-7677399D01*
X113682067Y-7668933D01*
X113677650Y-6953499D01*
X113673233Y-6238066D01*
X113893734Y-6238066D01*
X113893734Y-7254066D01*
X114096934Y-7254066D01*
X114096934Y-7050866D01*
X114281584Y-7050866D01*
X114286625Y-6945033D01*
X114291667Y-6839199D01*
X114388177Y-6834147D01*
X114484687Y-6829094D01*
X114489777Y-6741013D01*
X114494867Y-6652933D01*
X114702300Y-6648178D01*
X114909734Y-6643424D01*
X114909734Y-6238066D01*
X115121400Y-6238128D01*
X115121400Y-6026399D01*
X115320367Y-6021629D01*
X115519334Y-6016858D01*
X115519334Y-5629509D01*
X115934200Y-5619999D01*
X115938955Y-5412566D01*
X115943709Y-5205133D01*
X117178800Y-5205133D01*
X117178800Y-5628466D01*
G37*
X117178800Y-5628466D02*
X117602133Y-5628466D01*
X117602133Y-5814733D01*
X117788400Y-5814733D01*
X117788400Y-6017933D01*
X118618134Y-6017933D01*
X118618134Y-6237908D01*
X116869767Y-6242220D01*
X115121400Y-6246533D01*
X115116629Y-6445500D01*
X115111859Y-6644466D01*
X114909734Y-6644466D01*
X114909734Y-6830733D01*
X114486400Y-6830733D01*
X114486400Y-7050866D01*
X114283200Y-7050866D01*
X114283200Y-7254066D01*
X114097681Y-7254066D01*
X114088467Y-7889066D01*
X113991929Y-7894120D01*
X113895392Y-7899173D01*
X113890329Y-7792520D01*
X113885267Y-7685866D01*
X113783667Y-7677399D01*
X113682067Y-7668933D01*
X113677650Y-6953499D01*
X113673233Y-6238066D01*
X113893734Y-6238066D01*
X113893734Y-7254066D01*
X114096934Y-7254066D01*
X114096934Y-7050866D01*
X114281584Y-7050866D01*
X114286625Y-6945033D01*
X114291667Y-6839199D01*
X114388177Y-6834147D01*
X114484687Y-6829094D01*
X114489777Y-6741013D01*
X114494867Y-6652933D01*
X114702300Y-6648178D01*
X114909734Y-6643424D01*
X114909734Y-6238066D01*
X115121400Y-6238128D01*
X115121400Y-6026399D01*
X115320367Y-6021629D01*
X115519334Y-6016858D01*
X115519334Y-5629509D01*
X115934200Y-5619999D01*
X115938955Y-5412566D01*
X115943709Y-5205133D01*
X117178800Y-5205133D01*
X117178800Y-5628466D01*
G36*
X120463867Y-2123266D02*
G01*
X120260667Y-2123266D01*
X120260667Y-1920066D01*
X120463867Y-1920066D01*
X120463867Y-2123266D01*
G37*
X120463867Y-2123266D02*
X120260667Y-2123266D01*
X120260667Y-1920066D01*
X120463867Y-1920066D01*
X120463867Y-2123266D01*
G36*
X115515908Y-1814233D02*
G01*
X115520950Y-1920066D01*
X115942667Y-1920066D01*
X115942667Y-2123266D01*
X115519334Y-2123266D01*
X115519334Y-1920066D01*
X114909734Y-1920066D01*
X114909734Y-2123266D01*
X114486400Y-2123266D01*
X114486400Y-1920066D01*
X114908117Y-1920066D01*
X114913159Y-1814233D01*
X114918200Y-1708400D01*
X115510867Y-1708400D01*
X115515908Y-1814233D01*
G37*
X115515908Y-1814233D02*
X115520950Y-1920066D01*
X115942667Y-1920066D01*
X115942667Y-2123266D01*
X115519334Y-2123266D01*
X115519334Y-1920066D01*
X114909734Y-1920066D01*
X114909734Y-2123266D01*
X114486400Y-2123266D01*
X114486400Y-1920066D01*
X114908117Y-1920066D01*
X114913159Y-1814233D01*
X114918200Y-1708400D01*
X115510867Y-1708400D01*
X115515908Y-1814233D01*
G36*
X120260667Y-2512733D02*
G01*
X120040534Y-2512733D01*
X120040534Y-5203517D01*
X120252200Y-5213599D01*
X120261448Y-5814733D01*
X121920133Y-5814733D01*
X121920133Y-6017933D01*
X120260667Y-6017933D01*
X120260667Y-5816349D01*
X120154834Y-5811308D01*
X120049000Y-5806266D01*
X120044376Y-5505699D01*
X120039752Y-5205133D01*
X119652683Y-5205133D01*
X119647642Y-5099299D01*
X119642600Y-4993466D01*
X119435167Y-4988712D01*
X119227733Y-4983957D01*
X119227733Y-4172200D01*
X119651067Y-4172200D01*
X119651067Y-3968999D01*
X119853903Y-3968999D01*
X119862733Y-2521199D01*
X119951633Y-2516081D01*
X120040534Y-2510963D01*
X120040534Y-2123266D01*
X120260667Y-2123266D01*
X120260667Y-2512733D01*
G37*
X120260667Y-2512733D02*
X120040534Y-2512733D01*
X120040534Y-5203517D01*
X120252200Y-5213599D01*
X120261448Y-5814733D01*
X121920133Y-5814733D01*
X121920133Y-6017933D01*
X120260667Y-6017933D01*
X120260667Y-5816349D01*
X120154834Y-5811308D01*
X120049000Y-5806266D01*
X120044376Y-5505699D01*
X120039752Y-5205133D01*
X119652683Y-5205133D01*
X119647642Y-5099299D01*
X119642600Y-4993466D01*
X119435167Y-4988712D01*
X119227733Y-4983957D01*
X119227733Y-4172200D01*
X119651067Y-4172200D01*
X119651067Y-3968999D01*
X119853903Y-3968999D01*
X119862733Y-2521199D01*
X119951633Y-2516081D01*
X120040534Y-2510963D01*
X120040534Y-2123266D01*
X120260667Y-2123266D01*
X120260667Y-2512733D01*
G36*
X121920133Y-6830733D02*
G01*
X121496800Y-6830733D01*
X121496800Y-6644466D01*
X121920133Y-6644466D01*
X121920133Y-6830733D01*
G37*
X121920133Y-6830733D02*
X121496800Y-6830733D01*
X121496800Y-6644466D01*
X121920133Y-6644466D01*
X121920133Y-6830733D01*
G36*
X120463867Y-7254066D02*
G01*
X120260667Y-7254066D01*
X120260667Y-7050866D01*
X120463867Y-7050866D01*
X120463867Y-7254066D01*
G37*
X120463867Y-7254066D02*
X120260667Y-7254066D01*
X120260667Y-7050866D01*
X120463867Y-7050866D01*
X120463867Y-7254066D01*
G36*
X114096934Y-6238066D02*
G01*
X113893734Y-6238066D01*
X113893734Y-6017933D01*
X114096934Y-6017933D01*
X114096934Y-6238066D01*
G37*
X114096934Y-6238066D02*
X113893734Y-6238066D01*
X113893734Y-6017933D01*
X114096934Y-6017933D01*
X114096934Y-6238066D01*
G36*
X119024533Y-6644466D02*
G01*
X118618134Y-6644466D01*
X118618134Y-6238066D01*
X119024533Y-6238066D01*
X119024533Y-6644466D01*
G37*
X119024533Y-6644466D02*
X118618134Y-6644466D01*
X118618134Y-6238066D01*
X119024533Y-6238066D01*
X119024533Y-6644466D01*
G36*
X114283200Y-6017933D02*
G01*
X114096934Y-6017933D01*
X114096934Y-5628466D01*
X114283200Y-5628466D01*
X114283200Y-6017933D01*
G37*
X114283200Y-6017933D02*
X114096934Y-6017933D01*
X114096934Y-5628466D01*
X114283200Y-5628466D01*
X114283200Y-6017933D01*
G36*
X114486400Y-2512733D02*
G01*
X114283200Y-2512733D01*
X114283200Y-2123266D01*
X114486400Y-2123266D01*
X114486400Y-2512733D01*
G37*
X114486400Y-2512733D02*
X114283200Y-2512733D01*
X114283200Y-2123266D01*
X114486400Y-2123266D01*
X114486400Y-2512733D01*
G36*
X119024533Y-3765799D02*
G01*
X118823024Y-3765799D01*
X118817945Y-3863166D01*
X118812867Y-3960533D01*
X115942667Y-3969191D01*
X115942667Y-3766842D01*
X115735233Y-3762087D01*
X115527800Y-3757333D01*
X115522759Y-3651499D01*
X115517717Y-3545666D01*
X115333067Y-3545666D01*
X115333067Y-3156199D01*
X115519334Y-3156199D01*
X115519334Y-3545666D01*
X115942667Y-3545666D01*
X115942667Y-3765799D01*
X118821334Y-3765799D01*
X118821334Y-2512733D01*
X119024533Y-2512733D01*
X119024533Y-3765799D01*
G37*
X119024533Y-3765799D02*
X118823024Y-3765799D01*
X118817945Y-3863166D01*
X118812867Y-3960533D01*
X115942667Y-3969191D01*
X115942667Y-3766842D01*
X115735233Y-3762087D01*
X115527800Y-3757333D01*
X115522759Y-3651499D01*
X115517717Y-3545666D01*
X115333067Y-3545666D01*
X115333067Y-3156199D01*
X115519334Y-3156199D01*
X115519334Y-3545666D01*
X115942667Y-3545666D01*
X115942667Y-3765799D01*
X118821334Y-3765799D01*
X118821334Y-2512733D01*
X119024533Y-2512733D01*
X119024533Y-3765799D01*
G36*
X122123333Y-6644466D02*
G01*
X121920133Y-6644466D01*
X121920133Y-6017933D01*
X122123333Y-6017933D01*
X122123333Y-6644466D01*
G37*
X122123333Y-6644466D02*
X121920133Y-6644466D01*
X121920133Y-6017933D01*
X122123333Y-6017933D01*
X122123333Y-6644466D01*
G36*
X105096866Y-3668434D02*
G01*
X104690467Y-3668434D01*
X104690467Y-3262034D01*
X105096866Y-3262034D01*
X105096866Y-3668434D01*
G37*
X105096866Y-3668434D02*
X104690467Y-3668434D01*
X104690467Y-3262034D01*
X105096866Y-3262034D01*
X105096866Y-3668434D01*
G36*
X103251133Y-1822701D02*
G01*
X102828402Y-1822701D01*
X102823868Y-2233334D01*
X102819333Y-2643967D01*
X102730433Y-2649085D01*
X102641533Y-2654204D01*
X102641533Y-2854018D01*
X102535700Y-2859059D01*
X102429866Y-2864101D01*
X102419784Y-3075767D01*
X102218200Y-3075767D01*
X102218200Y-2855634D01*
X102429866Y-2855696D01*
X102418392Y-2652434D01*
X102641533Y-2652434D01*
X102641533Y-1822701D01*
X102827800Y-1822701D01*
X102827800Y-1619501D01*
X103251133Y-1619501D01*
X103251133Y-1822701D01*
G37*
X103251133Y-1822701D02*
X102828402Y-1822701D01*
X102823868Y-2233334D01*
X102819333Y-2643967D01*
X102730433Y-2649085D01*
X102641533Y-2654204D01*
X102641533Y-2854018D01*
X102535700Y-2859059D01*
X102429866Y-2864101D01*
X102419784Y-3075767D01*
X102218200Y-3075767D01*
X102218200Y-2855634D01*
X102429866Y-2855696D01*
X102418392Y-2652434D01*
X102641533Y-2652434D01*
X102641533Y-1822701D01*
X102827800Y-1822701D01*
X102827800Y-1619501D01*
X103251133Y-1619501D01*
X103251133Y-1822701D01*
G36*
X103454333Y-2008967D02*
G01*
X103860733Y-2008967D01*
X103860733Y-1822701D01*
X104063933Y-1822701D01*
X104063933Y-2008967D01*
X103862349Y-2008967D01*
X103857308Y-2114800D01*
X103852267Y-2220634D01*
X103251133Y-2229882D01*
X103251133Y-1822701D01*
X103454333Y-1822701D01*
X103454333Y-2008967D01*
G37*
X103454333Y-2008967D02*
X103860733Y-2008967D01*
X103860733Y-1822701D01*
X104063933Y-1822701D01*
X104063933Y-2008967D01*
X103862349Y-2008967D01*
X103857308Y-2114800D01*
X103852267Y-2220634D01*
X103251133Y-2229882D01*
X103251133Y-1822701D01*
X103454333Y-1822701D01*
X103454333Y-2008967D01*
G36*
X104487267Y-7986434D02*
G01*
X104065549Y-7986434D01*
X104055467Y-8198100D01*
X103766575Y-8202720D01*
X103670887Y-8203587D01*
X103587196Y-8203087D01*
X103521287Y-8201357D01*
X103478945Y-8198533D01*
X103466008Y-8195664D01*
X103459702Y-8173601D01*
X103455463Y-8128602D01*
X103454333Y-8085212D01*
X103454333Y-7986434D01*
X104063933Y-7986434D01*
X104063933Y-7783234D01*
X104487267Y-7783234D01*
X104487267Y-7986434D01*
G37*
X104487267Y-7986434D02*
X104065549Y-7986434D01*
X104055467Y-8198100D01*
X103766575Y-8202720D01*
X103670887Y-8203587D01*
X103587196Y-8203087D01*
X103521287Y-8201357D01*
X103478945Y-8198533D01*
X103466008Y-8195664D01*
X103459702Y-8173601D01*
X103455463Y-8128602D01*
X103454333Y-8085212D01*
X103454333Y-7986434D01*
X104063933Y-7986434D01*
X104063933Y-7783234D01*
X104487267Y-7783234D01*
X104487267Y-7986434D01*
G36*
X103454333Y-7986434D02*
G01*
X103251133Y-7986434D01*
X103251133Y-7783234D01*
X103454333Y-7783234D01*
X103454333Y-7986434D01*
G37*
X103454333Y-7986434D02*
X103251133Y-7986434D01*
X103251133Y-7783234D01*
X103454333Y-7783234D01*
X103454333Y-7986434D01*
G36*
X102218200Y-3262034D02*
G01*
X101794867Y-3262034D01*
X101794867Y-3075767D01*
X102218200Y-3075767D01*
X102218200Y-3262034D01*
G37*
X102218200Y-3262034D02*
X101794867Y-3262034D01*
X101794867Y-3075767D01*
X102218200Y-3075767D01*
X102218200Y-3262034D01*
G36*
X109821266Y-3888567D02*
G01*
X109618066Y-3888567D01*
X109618066Y-3668434D01*
X109821266Y-3668434D01*
X109821266Y-3888567D01*
G37*
X109821266Y-3888567D02*
X109618066Y-3888567D01*
X109618066Y-3668434D01*
X109821266Y-3668434D01*
X109821266Y-3888567D01*
G36*
X109618066Y-4278034D02*
G01*
X109431800Y-4278034D01*
X109431800Y-3888567D01*
X109618066Y-3888567D01*
X109618066Y-4278034D01*
G37*
X109618066Y-4278034D02*
X109431800Y-4278034D01*
X109431800Y-3888567D01*
X109618066Y-3888567D01*
X109618066Y-4278034D01*
G36*
X104690467Y-7783234D02*
G01*
X104487267Y-7783234D01*
X104487267Y-7393767D01*
X104690467Y-7393767D01*
X104690467Y-7783234D01*
G37*
X104690467Y-7783234D02*
X104487267Y-7783234D01*
X104487267Y-7393767D01*
X104690467Y-7393767D01*
X104690467Y-7783234D01*
G36*
X109431800Y-5734300D02*
G01*
X109228600Y-5734300D01*
X109228600Y-4278034D01*
X109431800Y-4278034D01*
X109431800Y-5734300D01*
G37*
X109431800Y-5734300D02*
X109228600Y-5734300D01*
X109228600Y-4278034D01*
X109431800Y-4278034D01*
X109431800Y-5734300D01*
G36*
X104690467Y-2229101D02*
G01*
X104487267Y-2229101D01*
X104487267Y-1822701D01*
X104063933Y-1822701D01*
X104063933Y-1619501D01*
X104690467Y-1619501D01*
X104690467Y-2229101D01*
G37*
X104690467Y-2229101D02*
X104487267Y-2229101D01*
X104487267Y-1822701D01*
X104063933Y-1822701D01*
X104063933Y-1619501D01*
X104690467Y-1619501D01*
X104690467Y-2229101D01*
G36*
X108470833Y-6750560D02*
G01*
X108525604Y-6753187D01*
X108567756Y-6759614D01*
X108581303Y-6764508D01*
X108589365Y-6778104D01*
X108594937Y-6809499D01*
X108598218Y-6862450D01*
X108599409Y-6940718D01*
X108598711Y-7048061D01*
X108598236Y-7081749D01*
X108593600Y-7385301D01*
X108487766Y-7390342D01*
X108381933Y-7395383D01*
X108381933Y-7783234D01*
X108195666Y-7783234D01*
X108195666Y-7393767D01*
X108381933Y-7393767D01*
X108381933Y-6750301D01*
X108470833Y-6750560D01*
G37*
X108470833Y-6750560D02*
X108525604Y-6753187D01*
X108567756Y-6759614D01*
X108581303Y-6764508D01*
X108589365Y-6778104D01*
X108594937Y-6809499D01*
X108598218Y-6862450D01*
X108599409Y-6940718D01*
X108598711Y-7048061D01*
X108598236Y-7081749D01*
X108593600Y-7385301D01*
X108487766Y-7390342D01*
X108381933Y-7395383D01*
X108381933Y-7783234D01*
X108195666Y-7783234D01*
X108195666Y-7393767D01*
X108381933Y-7393767D01*
X108381933Y-6750301D01*
X108470833Y-6750560D01*
G36*
X103454333Y-2855634D02*
G01*
X103251133Y-2855634D01*
X103251133Y-2652434D01*
X103454333Y-2652434D01*
X103454333Y-2855634D01*
G37*
X103454333Y-2855634D02*
X103251133Y-2855634D01*
X103251133Y-2652434D01*
X103454333Y-2652434D01*
X103454333Y-2855634D01*
G36*
X101794867Y-3888567D02*
G01*
X101591667Y-3888567D01*
X101591667Y-3262034D01*
X101794867Y-3262034D01*
X101794867Y-3888567D01*
G37*
X101794867Y-3888567D02*
X101591667Y-3888567D01*
X101591667Y-3262034D01*
X101794867Y-3262034D01*
X101794867Y-3888567D01*
G36*
X108195666Y-7986434D02*
G01*
X108805266Y-7986434D01*
X108805266Y-7783234D01*
X109228600Y-7783234D01*
X109228600Y-7986434D01*
X108806883Y-7986434D01*
X108801841Y-8092267D01*
X108796800Y-8198100D01*
X108204133Y-8198100D01*
X108199092Y-8092267D01*
X108194050Y-7986434D01*
X107772333Y-7986434D01*
X107772333Y-7783234D01*
X108195666Y-7783234D01*
X108195666Y-7986434D01*
G37*
X108195666Y-7986434D02*
X108805266Y-7986434D01*
X108805266Y-7783234D01*
X109228600Y-7783234D01*
X109228600Y-7986434D01*
X108806883Y-7986434D01*
X108801841Y-8092267D01*
X108796800Y-8198100D01*
X108204133Y-8198100D01*
X108199092Y-8092267D01*
X108194050Y-7986434D01*
X107772333Y-7986434D01*
X107772333Y-7783234D01*
X108195666Y-7783234D01*
X108195666Y-7986434D01*
G36*
X109824671Y-2113980D02*
G01*
X109829733Y-2220634D01*
X109931333Y-2229101D01*
X110032933Y-2237567D01*
X110037350Y-2953001D01*
X110041767Y-3668434D01*
X109821266Y-3668434D01*
X109821266Y-2652434D01*
X109618066Y-2652434D01*
X109618066Y-2855634D01*
X109433416Y-2855634D01*
X109428375Y-2961467D01*
X109423333Y-3067301D01*
X109326823Y-3072353D01*
X109230313Y-3077406D01*
X109225223Y-3165487D01*
X109220133Y-3253567D01*
X109012700Y-3258322D01*
X108805266Y-3263076D01*
X108805266Y-3668434D01*
X108593600Y-3668372D01*
X108593600Y-3880101D01*
X108394633Y-3884871D01*
X108195666Y-3889642D01*
X108195666Y-4276991D01*
X107780800Y-4286501D01*
X107776045Y-4493934D01*
X107771291Y-4701367D01*
X106536200Y-4701367D01*
X106536200Y-4278034D01*
X106112867Y-4278034D01*
X106112867Y-4091767D01*
X105926600Y-4091767D01*
X105926600Y-3888567D01*
X105096866Y-3888567D01*
X105096866Y-3668592D01*
X106845233Y-3664280D01*
X108593600Y-3659967D01*
X108598371Y-3461000D01*
X108603141Y-3262034D01*
X108805266Y-3262034D01*
X108805266Y-3075767D01*
X109228600Y-3075767D01*
X109228600Y-2855634D01*
X109431800Y-2855634D01*
X109431800Y-2652434D01*
X109617319Y-2652434D01*
X109626533Y-2017434D01*
X109723071Y-2012380D01*
X109819608Y-2007327D01*
X109824671Y-2113980D01*
G37*
X109824671Y-2113980D02*
X109829733Y-2220634D01*
X109931333Y-2229101D01*
X110032933Y-2237567D01*
X110037350Y-2953001D01*
X110041767Y-3668434D01*
X109821266Y-3668434D01*
X109821266Y-2652434D01*
X109618066Y-2652434D01*
X109618066Y-2855634D01*
X109433416Y-2855634D01*
X109428375Y-2961467D01*
X109423333Y-3067301D01*
X109326823Y-3072353D01*
X109230313Y-3077406D01*
X109225223Y-3165487D01*
X109220133Y-3253567D01*
X109012700Y-3258322D01*
X108805266Y-3263076D01*
X108805266Y-3668434D01*
X108593600Y-3668372D01*
X108593600Y-3880101D01*
X108394633Y-3884871D01*
X108195666Y-3889642D01*
X108195666Y-4276991D01*
X107780800Y-4286501D01*
X107776045Y-4493934D01*
X107771291Y-4701367D01*
X106536200Y-4701367D01*
X106536200Y-4278034D01*
X106112867Y-4278034D01*
X106112867Y-4091767D01*
X105926600Y-4091767D01*
X105926600Y-3888567D01*
X105096866Y-3888567D01*
X105096866Y-3668592D01*
X106845233Y-3664280D01*
X108593600Y-3659967D01*
X108598371Y-3461000D01*
X108603141Y-3262034D01*
X108805266Y-3262034D01*
X108805266Y-3075767D01*
X109228600Y-3075767D01*
X109228600Y-2855634D01*
X109431800Y-2855634D01*
X109431800Y-2652434D01*
X109617319Y-2652434D01*
X109626533Y-2017434D01*
X109723071Y-2012380D01*
X109819608Y-2007327D01*
X109824671Y-2113980D01*
G36*
X109431800Y-7783234D02*
G01*
X109228600Y-7783234D01*
X109228600Y-7393767D01*
X109431800Y-7393767D01*
X109431800Y-7783234D01*
G37*
X109431800Y-7783234D02*
X109228600Y-7783234D01*
X109228600Y-7393767D01*
X109431800Y-7393767D01*
X109431800Y-7783234D01*
G36*
X104487267Y-3075767D02*
G01*
X104690467Y-3075767D01*
X104690467Y-3262034D01*
X104487267Y-3262034D01*
X104487267Y-3076810D01*
X104279833Y-3072055D01*
X104072400Y-3067301D01*
X104067871Y-2648200D01*
X104063342Y-2229101D01*
X104487267Y-2229101D01*
X104487267Y-3075767D01*
G37*
X104487267Y-3075767D02*
X104690467Y-3075767D01*
X104690467Y-3262034D01*
X104487267Y-3262034D01*
X104487267Y-3076810D01*
X104279833Y-3072055D01*
X104072400Y-3067301D01*
X104067871Y-2648200D01*
X104063342Y-2229101D01*
X104487267Y-2229101D01*
X104487267Y-3075767D01*
G36*
X109618066Y-7393767D02*
G01*
X109431800Y-7393767D01*
X109431800Y-5734300D01*
X109618066Y-5734300D01*
X109618066Y-7393767D01*
G37*
X109618066Y-7393767D02*
X109431800Y-7393767D01*
X109431800Y-5734300D01*
X109618066Y-5734300D01*
X109618066Y-7393767D01*
G36*
X107772333Y-6139658D02*
G01*
X107979767Y-6144413D01*
X108187200Y-6149167D01*
X108192241Y-6255001D01*
X108197283Y-6360834D01*
X108381933Y-6360834D01*
X108381933Y-6750301D01*
X108195666Y-6750301D01*
X108195666Y-6360834D01*
X107772333Y-6360834D01*
X107772333Y-6140701D01*
X104893666Y-6140701D01*
X104893666Y-7393767D01*
X104690467Y-7393767D01*
X104690467Y-6140701D01*
X104891976Y-6140701D01*
X104897055Y-6043334D01*
X104902133Y-5945967D01*
X107772333Y-5937309D01*
X107772333Y-6139658D01*
G37*
X107772333Y-6139658D02*
X107979767Y-6144413D01*
X108187200Y-6149167D01*
X108192241Y-6255001D01*
X108197283Y-6360834D01*
X108381933Y-6360834D01*
X108381933Y-6750301D01*
X108195666Y-6750301D01*
X108195666Y-6360834D01*
X107772333Y-6360834D01*
X107772333Y-6140701D01*
X104893666Y-6140701D01*
X104893666Y-7393767D01*
X104690467Y-7393767D01*
X104690467Y-6140701D01*
X104891976Y-6140701D01*
X104897055Y-6043334D01*
X104902133Y-5945967D01*
X107772333Y-5937309D01*
X107772333Y-6139658D01*
G36*
X103454333Y-4090151D02*
G01*
X103560166Y-4095192D01*
X103666000Y-4100234D01*
X103670624Y-4400801D01*
X103675248Y-4701367D01*
X104062317Y-4701367D01*
X104067358Y-4807201D01*
X104072400Y-4913034D01*
X104279833Y-4917788D01*
X104487267Y-4922543D01*
X104487267Y-5734300D01*
X104063933Y-5734300D01*
X104063933Y-5937501D01*
X103861097Y-5937501D01*
X103852267Y-7385301D01*
X103763367Y-7390419D01*
X103674466Y-7395537D01*
X103674466Y-7783234D01*
X103454333Y-7783234D01*
X103454333Y-7393767D01*
X103674466Y-7393767D01*
X103674466Y-4702983D01*
X103462800Y-4692901D01*
X103453552Y-4091767D01*
X101794867Y-4091767D01*
X101794867Y-3888567D01*
X103454333Y-3888567D01*
X103454333Y-4090151D01*
G37*
X103454333Y-4090151D02*
X103560166Y-4095192D01*
X103666000Y-4100234D01*
X103670624Y-4400801D01*
X103675248Y-4701367D01*
X104062317Y-4701367D01*
X104067358Y-4807201D01*
X104072400Y-4913034D01*
X104279833Y-4917788D01*
X104487267Y-4922543D01*
X104487267Y-5734300D01*
X104063933Y-5734300D01*
X104063933Y-5937501D01*
X103861097Y-5937501D01*
X103852267Y-7385301D01*
X103763367Y-7390419D01*
X103674466Y-7395537D01*
X103674466Y-7783234D01*
X103454333Y-7783234D01*
X103454333Y-7393767D01*
X103674466Y-7393767D01*
X103674466Y-4702983D01*
X103462800Y-4692901D01*
X103453552Y-4091767D01*
X101794867Y-4091767D01*
X101794867Y-3888567D01*
X103454333Y-3888567D01*
X103454333Y-4090151D01*
D10*
X94650000Y2384641D02*
X94650000Y2077359D01*
X95410000Y2384641D02*
X95410000Y2077359D01*
X89570000Y2384641D02*
X89570000Y2077359D01*
X90330000Y2384641D02*
X90330000Y2077359D01*
X94140000Y2384641D02*
X94140000Y2077359D01*
X93380000Y2384641D02*
X93380000Y2077359D01*
X87065000Y-13372936D02*
X87065000Y-13827064D01*
X88535000Y-13372936D02*
X88535000Y-13827064D01*
X90447500Y-13372936D02*
X90447500Y-13827064D01*
X88977500Y-13372936D02*
X88977500Y-13827064D01*
D17*
X137742000Y715000D02*
X137742000Y-1235000D01*
X137752000Y-8385000D02*
X124952000Y-8385000D01*
X137752000Y-1585000D02*
X137752000Y-8385000D01*
X124952000Y-8385000D02*
X124952000Y-1585000D01*
X124952000Y-1585000D02*
X137752000Y-1585000D01*
D10*
X139987000Y-19944359D02*
X139987000Y-20251641D01*
X139227000Y-19944359D02*
X139227000Y-20251641D01*
D17*
X117715000Y-19449500D02*
X114045000Y-19449500D01*
X114045000Y-19449500D02*
X114045000Y-13949500D01*
X117240000Y-12174500D02*
X117240000Y-13599500D01*
X117715000Y-13949500D02*
X117715000Y-19449500D01*
X114045000Y-13949500D02*
X117715000Y-13949500D01*
D10*
X112570000Y-11925000D02*
X110570000Y-11925000D01*
X110570000Y-11925000D02*
X110570000Y-15775000D01*
X112570000Y-11925000D02*
X112570000Y-15775000D01*
D17*
X86090000Y-8385000D02*
X86090000Y-1585000D01*
X86090000Y-1585000D02*
X98890000Y-1585000D01*
X98890000Y-1585000D02*
X98890000Y-8385000D01*
X98890000Y-8385000D02*
X86090000Y-8385000D01*
X86100000Y-10685000D02*
X86100000Y-8735000D01*
D10*
X143514500Y-19201500D02*
X140829500Y-19201500D01*
X143514500Y-21121500D02*
X143514500Y-19201500D01*
X140829500Y-21121500D02*
X143514500Y-21121500D01*
X138604859Y2824500D02*
X138912141Y2824500D01*
X138604859Y2064500D02*
X138912141Y2064500D01*
G36*
X82878409Y-34939682D02*
G01*
X82716773Y-34939682D01*
X82716773Y-34639500D01*
X82878409Y-34639500D01*
X82878409Y-34939682D01*
G37*
D18*
X82878409Y-34939682D02*
X82716773Y-34939682D01*
X82716773Y-34639500D01*
X82878409Y-34639500D01*
X82878409Y-34939682D01*
G36*
X81562227Y-37525864D02*
G01*
X81562227Y-33923682D01*
X81643046Y-33923682D01*
X81697344Y-33919820D01*
X81719615Y-33900233D01*
X81723864Y-33854409D01*
X81729585Y-33805343D01*
X81756575Y-33787259D01*
X81793136Y-33785136D01*
X81839678Y-33780631D01*
X81858768Y-33757779D01*
X81862409Y-33704318D01*
X81862409Y-33623500D01*
X84887318Y-33623500D01*
X84887318Y-33704318D01*
X84891180Y-33758617D01*
X84910767Y-33780888D01*
X84956591Y-33785136D01*
X85005657Y-33790858D01*
X85023741Y-33817847D01*
X85025864Y-33854409D01*
X85030369Y-33900951D01*
X85053221Y-33920040D01*
X85106682Y-33923682D01*
X85187500Y-33923682D01*
X85187500Y-37525864D01*
X85025864Y-37525864D01*
X85025864Y-38241682D01*
X81723864Y-38241682D01*
X81723864Y-38103136D01*
X81862409Y-38103136D01*
X84887318Y-38103136D01*
X84887318Y-37664409D01*
X81862409Y-37664409D01*
X81862409Y-38103136D01*
X81723864Y-38103136D01*
X81723864Y-37525864D01*
X85025864Y-37525864D01*
X85025864Y-33923682D01*
X84956591Y-33923682D01*
X84907525Y-33917960D01*
X84889440Y-33890971D01*
X84887318Y-33854409D01*
X84887318Y-33785136D01*
X81862409Y-33785136D01*
X81862409Y-33854409D01*
X81856688Y-33903475D01*
X81829698Y-33921560D01*
X81793136Y-33923682D01*
X81723864Y-33923682D01*
X81723864Y-37525864D01*
X81562227Y-37525864D01*
G37*
X81562227Y-37525864D02*
X81562227Y-33923682D01*
X81643046Y-33923682D01*
X81697344Y-33919820D01*
X81719615Y-33900233D01*
X81723864Y-33854409D01*
X81729585Y-33805343D01*
X81756575Y-33787259D01*
X81793136Y-33785136D01*
X81839678Y-33780631D01*
X81858768Y-33757779D01*
X81862409Y-33704318D01*
X81862409Y-33623500D01*
X84887318Y-33623500D01*
X84887318Y-33704318D01*
X84891180Y-33758617D01*
X84910767Y-33780888D01*
X84956591Y-33785136D01*
X85005657Y-33790858D01*
X85023741Y-33817847D01*
X85025864Y-33854409D01*
X85030369Y-33900951D01*
X85053221Y-33920040D01*
X85106682Y-33923682D01*
X85187500Y-33923682D01*
X85187500Y-37525864D01*
X85025864Y-37525864D01*
X85025864Y-38241682D01*
X81723864Y-38241682D01*
X81723864Y-38103136D01*
X81862409Y-38103136D01*
X84887318Y-38103136D01*
X84887318Y-37664409D01*
X81862409Y-37664409D01*
X81862409Y-38103136D01*
X81723864Y-38103136D01*
X81723864Y-37525864D01*
X85025864Y-37525864D01*
X85025864Y-33923682D01*
X84956591Y-33923682D01*
X84907525Y-33917960D01*
X84889440Y-33890971D01*
X84887318Y-33854409D01*
X84887318Y-33785136D01*
X81862409Y-33785136D01*
X81862409Y-33854409D01*
X81856688Y-33903475D01*
X81829698Y-33921560D01*
X81793136Y-33923682D01*
X81723864Y-33923682D01*
X81723864Y-37525864D01*
X81562227Y-37525864D01*
G36*
X82301136Y-37087136D02*
G01*
X82000955Y-37087136D01*
X82000955Y-36948591D01*
X82301136Y-36948591D01*
X82301136Y-37087136D01*
G37*
X82301136Y-37087136D02*
X82000955Y-37087136D01*
X82000955Y-36948591D01*
X82301136Y-36948591D01*
X82301136Y-37087136D01*
G36*
X84610227Y-34131500D02*
G01*
X84615949Y-34180566D01*
X84642938Y-34198651D01*
X84679500Y-34200773D01*
X84748773Y-34200773D01*
X84748773Y-36094227D01*
X84679500Y-36094227D01*
X84630434Y-36099949D01*
X84612350Y-36126938D01*
X84610227Y-36163500D01*
X84610227Y-36232773D01*
X82139500Y-36232773D01*
X82139500Y-36163500D01*
X82133778Y-36114434D01*
X82106789Y-36096350D01*
X82070227Y-36094227D01*
X82139500Y-36094227D01*
X84610227Y-36094227D01*
X84610227Y-34200773D01*
X82139500Y-34200773D01*
X82139500Y-36094227D01*
X82070227Y-36094227D01*
X82000955Y-36094227D01*
X82000955Y-34200773D01*
X82070227Y-34200773D01*
X82119293Y-34195051D01*
X82137378Y-34168062D01*
X82139500Y-34131500D01*
X82139500Y-34062227D01*
X84610227Y-34062227D01*
X84610227Y-34131500D01*
G37*
X84610227Y-34131500D02*
X84615949Y-34180566D01*
X84642938Y-34198651D01*
X84679500Y-34200773D01*
X84748773Y-34200773D01*
X84748773Y-36094227D01*
X84679500Y-36094227D01*
X84630434Y-36099949D01*
X84612350Y-36126938D01*
X84610227Y-36163500D01*
X84610227Y-36232773D01*
X82139500Y-36232773D01*
X82139500Y-36163500D01*
X82133778Y-36114434D01*
X82106789Y-36096350D01*
X82070227Y-36094227D01*
X82139500Y-36094227D01*
X84610227Y-36094227D01*
X84610227Y-34200773D01*
X82139500Y-34200773D01*
X82139500Y-36094227D01*
X82070227Y-36094227D01*
X82000955Y-36094227D01*
X82000955Y-34200773D01*
X82070227Y-34200773D01*
X82119293Y-34195051D01*
X82137378Y-34168062D01*
X82139500Y-34131500D01*
X82139500Y-34062227D01*
X84610227Y-34062227D01*
X84610227Y-34131500D01*
G36*
X84610227Y-36948591D02*
G01*
X83732773Y-36948591D01*
X83732773Y-36810046D01*
X84610227Y-36810046D01*
X84610227Y-36948591D01*
G37*
X84610227Y-36948591D02*
X83732773Y-36948591D01*
X83732773Y-36810046D01*
X84610227Y-36810046D01*
X84610227Y-36948591D01*
G36*
X83871318Y-34939682D02*
G01*
X83732773Y-34939682D01*
X83732773Y-34639500D01*
X83871318Y-34639500D01*
X83871318Y-34939682D01*
G37*
X83871318Y-34939682D02*
X83732773Y-34939682D01*
X83732773Y-34639500D01*
X83871318Y-34639500D01*
X83871318Y-34939682D01*
G36*
X83712566Y-35522676D02*
G01*
X83730651Y-35549665D01*
X83732773Y-35586227D01*
X83727051Y-35635293D01*
X83700062Y-35653378D01*
X83663500Y-35655500D01*
X83614434Y-35661222D01*
X83596350Y-35688211D01*
X83594227Y-35724773D01*
X83594227Y-35794046D01*
X83016955Y-35794046D01*
X83016955Y-35724773D01*
X83011233Y-35675707D01*
X82984244Y-35657622D01*
X82947682Y-35655500D01*
X82898616Y-35649778D01*
X82880531Y-35622789D01*
X82878409Y-35586227D01*
X82884131Y-35537161D01*
X82911120Y-35519077D01*
X82947682Y-35516955D01*
X82996748Y-35522676D01*
X83014832Y-35549665D01*
X83016955Y-35586227D01*
X83016955Y-35655500D01*
X83594227Y-35655500D01*
X83594227Y-35586227D01*
X83599949Y-35537161D01*
X83626938Y-35519077D01*
X83663500Y-35516955D01*
X83712566Y-35522676D01*
G37*
X83712566Y-35522676D02*
X83730651Y-35549665D01*
X83732773Y-35586227D01*
X83727051Y-35635293D01*
X83700062Y-35653378D01*
X83663500Y-35655500D01*
X83614434Y-35661222D01*
X83596350Y-35688211D01*
X83594227Y-35724773D01*
X83594227Y-35794046D01*
X83016955Y-35794046D01*
X83016955Y-35724773D01*
X83011233Y-35675707D01*
X82984244Y-35657622D01*
X82947682Y-35655500D01*
X82898616Y-35649778D01*
X82880531Y-35622789D01*
X82878409Y-35586227D01*
X82884131Y-35537161D01*
X82911120Y-35519077D01*
X82947682Y-35516955D01*
X82996748Y-35522676D01*
X83014832Y-35549665D01*
X83016955Y-35586227D01*
X83016955Y-35655500D01*
X83594227Y-35655500D01*
X83594227Y-35586227D01*
X83599949Y-35537161D01*
X83626938Y-35519077D01*
X83663500Y-35516955D01*
X83712566Y-35522676D01*
G36*
X83455682Y-35355318D02*
G01*
X83155500Y-35355318D01*
X83155500Y-35286046D01*
X83161222Y-35236980D01*
X83188211Y-35218895D01*
X83224773Y-35216773D01*
X83294046Y-35216773D01*
X83294046Y-34639500D01*
X83455682Y-34639500D01*
X83455682Y-35355318D01*
G37*
X83455682Y-35355318D02*
X83155500Y-35355318D01*
X83155500Y-35286046D01*
X83161222Y-35236980D01*
X83188211Y-35218895D01*
X83224773Y-35216773D01*
X83294046Y-35216773D01*
X83294046Y-34639500D01*
X83455682Y-34639500D01*
X83455682Y-35355318D01*
D17*
X139655000Y-9959000D02*
X139655000Y-9959000D01*
X139455000Y-9959000D02*
X139455000Y-9959000D01*
D13*
X145305000Y-12584000D02*
X145305000Y-4585000D01*
D17*
X139455000Y-9959000D02*
G75*
G03*
X139655000Y-9959000I100000J0D01*
G01*
X139655000Y-9959000D02*
G75*
G03*
X139455000Y-9959000I-100000J0D01*
G01*
D10*
X80936500Y-31524500D02*
X80936500Y-30194500D01*
X83536500Y-31524500D02*
X144556500Y-31524500D01*
X83536500Y-31524500D02*
X83536500Y-28924500D01*
X80936500Y-28924500D02*
X80936500Y-26324500D01*
X144556500Y-31524500D02*
X144556500Y-26324500D01*
X80936500Y-26324500D02*
X144556500Y-26324500D01*
X83536500Y-28924500D02*
X80936500Y-28924500D01*
X82266500Y-31524500D02*
X80936500Y-31524500D01*
X136772000Y-39688000D02*
X137772000Y-39688000D01*
X137772000Y-39688000D02*
X137772000Y-40688000D01*
X137002500Y2384641D02*
X137002500Y2077359D01*
X136242500Y2384641D02*
X136242500Y2077359D01*
X119415000Y2384641D02*
X119415000Y2077359D01*
X120175000Y2384641D02*
X120175000Y2077359D01*
X86340000Y-19170000D02*
X86340000Y-21770000D01*
X88940000Y-21770000D02*
X88940000Y-24370000D01*
X81200000Y-19170000D02*
X81200000Y-24370000D01*
X86340000Y-19170000D02*
X81200000Y-19170000D01*
X88940000Y-24370000D02*
X81200000Y-24370000D01*
X87610000Y-19170000D02*
X88940000Y-19170000D01*
X86340000Y-21770000D02*
X88940000Y-21770000D01*
X88940000Y-19170000D02*
X88940000Y-20500000D01*
X104540000Y-21310000D02*
X104540000Y-13630000D01*
X107200000Y-13630000D02*
X104540000Y-13630000D01*
X107200000Y-21310000D02*
X104540000Y-21310000D01*
X107200000Y-22580000D02*
X107200000Y-23910000D01*
X107200000Y-23910000D02*
X105870000Y-23910000D01*
X107200000Y-21310000D02*
X107200000Y-13630000D01*
%LPC*%
D19*
X129421600Y-34830000D03*
X126651600Y-34830000D03*
X123881600Y-34830000D03*
X121111600Y-34830000D03*
X118341600Y-34830000D03*
X115571600Y-34830000D03*
X112801600Y-34830000D03*
X110031600Y-34830000D03*
X107261600Y-34830000D03*
X104491600Y-34830000D03*
X101721600Y-34830000D03*
X98951600Y-34830000D03*
X96181600Y-34830000D03*
X128036600Y-37670000D03*
X125266600Y-37670000D03*
X122496600Y-37670000D03*
X119726600Y-37670000D03*
X116956600Y-37670000D03*
X114186600Y-37670000D03*
X111416600Y-37670000D03*
X108646600Y-37670000D03*
X105876600Y-37670000D03*
X103106600Y-37670000D03*
X100336600Y-37670000D03*
X97566600Y-37670000D03*
D20*
X136321600Y-36250000D03*
X89281600Y-36250000D03*
D21*
X142767000Y-22066500D03*
X140892000Y-22066500D03*
X143641000Y2381000D03*
X141766000Y2381000D03*
X143529000Y-1556000D03*
X141654000Y-1556000D03*
D22*
X85825000Y6800000D03*
X82368109Y5368109D03*
X83800000Y8825000D03*
D23*
X83800000Y6800000D03*
D22*
X83800000Y4775000D03*
X85231891Y5368109D03*
X81775000Y6800000D03*
X85231891Y8231891D03*
X82368109Y8231891D03*
X83800000Y-18225000D03*
X81775000Y-16200000D03*
X85231891Y-17631891D03*
X82368109Y-14768109D03*
X85231891Y-14768109D03*
D23*
X83800000Y-16200000D03*
D22*
X85825000Y-16200000D03*
X82368109Y-17631891D03*
X83800000Y-14175000D03*
X85231891Y-40768109D03*
X83800000Y-44225000D03*
X82368109Y-40768109D03*
X81775000Y-42200000D03*
X85231891Y-43631891D03*
X83800000Y-40175000D03*
X82368109Y-43631891D03*
X85825000Y-42200000D03*
D23*
X83800000Y-42200000D03*
D24*
X83810000Y-10980000D03*
D25*
X83810000Y-8440000D03*
X83810000Y-5900000D03*
X83810000Y-3360000D03*
X83810000Y-820000D03*
X83810000Y1720000D03*
D22*
X141800000Y-18225000D03*
X140368109Y-17631891D03*
D23*
X141800000Y-16200000D03*
D22*
X143825000Y-16200000D03*
X141800000Y-14175000D03*
X143231891Y-17631891D03*
X143231891Y-14768109D03*
X139775000Y-16200000D03*
X140368109Y-14768109D03*
X141800000Y-40175000D03*
X143825000Y-42200000D03*
X140368109Y-43631891D03*
D23*
X141800000Y-42200000D03*
D22*
X141800000Y-44225000D03*
X140368109Y-40768109D03*
X143231891Y-40768109D03*
X143231891Y-43631891D03*
X139775000Y-42200000D03*
X143825000Y6800000D03*
X143231891Y5368109D03*
X141800000Y8825000D03*
X140368109Y5368109D03*
D23*
X141800000Y6800000D03*
D22*
X140368109Y8231891D03*
X141800000Y4775000D03*
X143231891Y8231891D03*
X139775000Y6800000D03*
D26*
X126890000Y-12687500D03*
X126890000Y-14512500D03*
D27*
X109250000Y-12800000D03*
X109250000Y-15600000D03*
D28*
X99729000Y-9710000D03*
X100999000Y-9710000D03*
X102269000Y-9710000D03*
X103539000Y-9710000D03*
X104809000Y-9710000D03*
X106079000Y-9710000D03*
X107349000Y-9710000D03*
X108619000Y-9710000D03*
X109889000Y-9710000D03*
X111159000Y-9710000D03*
X111159000Y-260000D03*
X109889000Y-260000D03*
X108619000Y-260000D03*
X107349000Y-260000D03*
X106079000Y-260000D03*
X104809000Y-260000D03*
X103539000Y-260000D03*
X102269000Y-260000D03*
X100999000Y-260000D03*
X99729000Y-260000D03*
X124113000Y-260000D03*
X122843000Y-260000D03*
X121573000Y-260000D03*
X120303000Y-260000D03*
X119033000Y-260000D03*
X117763000Y-260000D03*
X116493000Y-260000D03*
X115223000Y-260000D03*
X113953000Y-260000D03*
X112683000Y-260000D03*
X112683000Y-9710000D03*
X113953000Y-9710000D03*
X115223000Y-9710000D03*
X116493000Y-9710000D03*
X117763000Y-9710000D03*
X119033000Y-9710000D03*
X120303000Y-9710000D03*
X121573000Y-9710000D03*
X122843000Y-9710000D03*
X124113000Y-9710000D03*
D29*
X138248500Y3460500D03*
X139268500Y3460500D03*
D30*
X139607000Y-21493000D03*
X139607000Y-22513000D03*
X132812500Y2741000D03*
X132812500Y1721000D03*
X134082500Y2741000D03*
X134082500Y1721000D03*
X135352500Y2741000D03*
X135352500Y1721000D03*
X118525000Y2741000D03*
X118525000Y1721000D03*
X121065000Y2741000D03*
X121065000Y1721000D03*
X122335000Y2741000D03*
X122335000Y1721000D03*
X123605000Y2741000D03*
X123605000Y1721000D03*
X91220000Y2741000D03*
X91220000Y1721000D03*
X92490000Y2741000D03*
X92490000Y1721000D03*
X102269000Y2741000D03*
X102269000Y1721000D03*
X103539000Y2741000D03*
X103539000Y1721000D03*
X104809000Y2741000D03*
X104809000Y1721000D03*
X106079000Y2741000D03*
X106079000Y1721000D03*
D26*
X128802500Y-12687500D03*
X128802500Y-14512500D03*
X130715000Y-12687500D03*
X130715000Y-14512500D03*
X132627500Y-12687500D03*
X132627500Y-14512500D03*
X134540000Y-12687500D03*
X134540000Y-14512500D03*
X119240000Y-12687500D03*
X119240000Y-14512500D03*
X121152500Y-12687500D03*
X121152500Y-14512500D03*
X123065000Y-12687500D03*
X123065000Y-14512500D03*
X124977500Y-12687500D03*
X124977500Y-14512500D03*
X91625000Y-12687500D03*
X91625000Y-14512500D03*
X93537500Y-12687500D03*
X93537500Y-14512500D03*
X95450000Y-12687500D03*
X95450000Y-14512500D03*
X97362500Y-12687500D03*
X97362500Y-14512500D03*
X99275000Y-12687500D03*
X99275000Y-14512500D03*
X101187500Y-12687500D03*
X101187500Y-14512500D03*
X103100000Y-12687500D03*
X103100000Y-14512500D03*
D31*
X128802500Y-17912500D03*
X128802500Y-16087500D03*
X130715000Y-17912500D03*
X130715000Y-16087500D03*
X132627500Y-17912500D03*
X132627500Y-16087500D03*
X134540000Y-17912500D03*
X134540000Y-16087500D03*
X119240000Y-17912500D03*
X119240000Y-16087500D03*
X121152500Y-17912500D03*
X121152500Y-16087500D03*
X123065000Y-17912500D03*
X123065000Y-16087500D03*
X124977500Y-17912500D03*
X124977500Y-16087500D03*
X126890000Y-17912500D03*
X126890000Y-16087500D03*
X87800000Y-17912500D03*
X87800000Y-16087500D03*
X89712500Y-17912500D03*
X89712500Y-16087500D03*
X91625000Y-17912500D03*
X91625000Y-16087500D03*
X93537500Y-17912500D03*
X93537500Y-16087500D03*
X95450000Y-17912500D03*
X95450000Y-16087500D03*
X97362500Y-17912500D03*
X97362500Y-16087500D03*
X99275000Y-17912500D03*
X99275000Y-16087500D03*
X101187500Y-17912500D03*
X101187500Y-16087500D03*
X103100000Y-17912500D03*
X103100000Y-16087500D03*
D30*
X95030000Y2741000D03*
X95030000Y1721000D03*
X89950000Y2741000D03*
X89950000Y1721000D03*
X93760000Y2741000D03*
X93760000Y1721000D03*
D26*
X87800000Y-12687500D03*
X87800000Y-14512500D03*
X89712500Y-12687500D03*
X89712500Y-14512500D03*
D28*
X137067000Y-260000D03*
X135797000Y-260000D03*
X134527000Y-260000D03*
X133257000Y-260000D03*
X131987000Y-260000D03*
X130717000Y-260000D03*
X129447000Y-260000D03*
X128177000Y-260000D03*
X126907000Y-260000D03*
X125637000Y-260000D03*
X125637000Y-9710000D03*
X126907000Y-9710000D03*
X128177000Y-9710000D03*
X129447000Y-9710000D03*
X130717000Y-9710000D03*
X131987000Y-9710000D03*
X133257000Y-9710000D03*
X134527000Y-9710000D03*
X135797000Y-9710000D03*
X137067000Y-9710000D03*
D30*
X139607000Y-19588000D03*
X139607000Y-20608000D03*
D32*
X116515000Y-12887500D03*
X115245000Y-12887500D03*
X115245000Y-20511500D03*
X116515000Y-20511500D03*
D33*
X111570000Y-12725000D03*
X111570000Y-15525000D03*
D28*
X86775000Y-9710000D03*
X88045000Y-9710000D03*
X89315000Y-9710000D03*
X90585000Y-9710000D03*
X91855000Y-9710000D03*
X93125000Y-9710000D03*
X94395000Y-9710000D03*
X95665000Y-9710000D03*
X96935000Y-9710000D03*
X98205000Y-9710000D03*
X98205000Y-260000D03*
X96935000Y-260000D03*
X95665000Y-260000D03*
X94395000Y-260000D03*
X93125000Y-260000D03*
X91855000Y-260000D03*
X90585000Y-260000D03*
X89315000Y-260000D03*
X88045000Y-260000D03*
X86775000Y-260000D03*
D21*
X142767000Y-20161500D03*
X140892000Y-20161500D03*
D29*
X138248500Y2444500D03*
X139268500Y2444500D03*
D34*
X141205000Y-9960000D03*
X141205000Y-9310000D03*
X141205000Y-8660000D03*
X141205000Y-8010000D03*
X141205000Y-7360000D03*
D35*
X144155000Y-12235000D03*
X144155000Y-5085000D03*
X140705000Y-5085000D03*
X140705000Y-12235000D03*
D24*
X82266500Y-30194500D03*
D25*
X82266500Y-27654500D03*
X84806500Y-30194500D03*
X84806500Y-27654500D03*
X87346500Y-30194500D03*
X87346500Y-27654500D03*
X89886500Y-30194500D03*
X89886500Y-27654500D03*
X92426500Y-30194500D03*
X92426500Y-27654500D03*
X94966500Y-30194500D03*
X94966500Y-27654500D03*
X97506500Y-30194500D03*
X97506500Y-27654500D03*
X100046500Y-30194500D03*
X100046500Y-27654500D03*
X102586500Y-30194500D03*
X102586500Y-27654500D03*
X105126500Y-30194500D03*
X105126500Y-27654500D03*
X107666500Y-30194500D03*
X107666500Y-27654500D03*
X110206500Y-30194500D03*
X110206500Y-27654500D03*
X112746500Y-30194500D03*
X112746500Y-27654500D03*
X115286500Y-30194500D03*
X115286500Y-27654500D03*
X117826500Y-30194500D03*
X117826500Y-27654500D03*
X120366500Y-30194500D03*
X120366500Y-27654500D03*
X122906500Y-30194500D03*
X122906500Y-27654500D03*
X125446500Y-30194500D03*
X125446500Y-27654500D03*
X127986500Y-30194500D03*
X127986500Y-27654500D03*
X130526500Y-30194500D03*
X130526500Y-27654500D03*
X133066500Y-30194500D03*
X133066500Y-27654500D03*
X135606500Y-30194500D03*
X135606500Y-27654500D03*
X138146500Y-30194500D03*
X138146500Y-27654500D03*
X140686500Y-30194500D03*
X140686500Y-27654500D03*
X143226500Y-30194500D03*
X143226500Y-27654500D03*
D36*
X136772000Y-40688000D03*
D37*
X136772000Y-42688000D03*
X134772000Y-40688000D03*
X134772000Y-42688000D03*
X132772000Y-40688000D03*
X132772000Y-42688000D03*
X130772000Y-40688000D03*
X130772000Y-42688000D03*
X128772000Y-40688000D03*
X128772000Y-42688000D03*
D36*
X126772000Y-40688000D03*
D37*
X126772000Y-42688000D03*
X124772000Y-40688000D03*
X124772000Y-42688000D03*
X122772000Y-40688000D03*
X122772000Y-42688000D03*
X120772000Y-40688000D03*
X120772000Y-42688000D03*
X118772000Y-40688000D03*
X118772000Y-42688000D03*
X116772000Y-40688000D03*
X116772000Y-42688000D03*
X114772000Y-40688000D03*
X114772000Y-42688000D03*
X112772000Y-40688000D03*
X112772000Y-42688000D03*
X110772000Y-40688000D03*
X110772000Y-42688000D03*
X108772000Y-40688000D03*
X108772000Y-42688000D03*
X106772000Y-40688000D03*
X106772000Y-42688000D03*
X104772000Y-40688000D03*
X104772000Y-42688000D03*
X102772000Y-40688000D03*
X102772000Y-42688000D03*
X100772000Y-40688000D03*
X100772000Y-42688000D03*
X98772000Y-40688000D03*
X98772000Y-42688000D03*
X96772000Y-40688000D03*
X96772000Y-42688000D03*
X94772000Y-40688000D03*
X94772000Y-42688000D03*
X92772000Y-40688000D03*
X92772000Y-42688000D03*
X90772000Y-40688000D03*
X90772000Y-42688000D03*
X88772000Y-40688000D03*
X88772000Y-42688000D03*
D30*
X136622500Y2741000D03*
X136622500Y1721000D03*
X119795000Y2741000D03*
X119795000Y1721000D03*
D24*
X87610000Y-20500000D03*
D25*
X87610000Y-23040000D03*
X85070000Y-20500000D03*
X85070000Y-23040000D03*
X82530000Y-20500000D03*
X82530000Y-23040000D03*
D24*
X105870000Y-22580000D03*
D25*
X105870000Y-20040000D03*
X105870000Y-17500000D03*
X105870000Y-14960000D03*
D24*
X88670000Y5530000D03*
D25*
X88670000Y8070000D03*
X91210000Y5530000D03*
X91210000Y8070000D03*
X93750000Y5530000D03*
X93750000Y8070000D03*
X96290000Y5530000D03*
X96290000Y8070000D03*
X98830000Y5530000D03*
X98830000Y8070000D03*
X101370000Y5530000D03*
X101370000Y8070000D03*
X103910000Y5530000D03*
X103910000Y8070000D03*
X106450000Y5530000D03*
X106450000Y8070000D03*
X108990000Y5530000D03*
X108990000Y8070000D03*
X111530000Y5530000D03*
X111530000Y8070000D03*
X114070000Y5530000D03*
X114070000Y8070000D03*
X116610000Y5530000D03*
X116610000Y8070000D03*
X119150000Y5530000D03*
X119150000Y8070000D03*
X121690000Y5530000D03*
X121690000Y8070000D03*
X124230000Y5530000D03*
X124230000Y8070000D03*
X126770000Y5530000D03*
X126770000Y8070000D03*
X129310000Y5530000D03*
X129310000Y8070000D03*
X131850000Y5530000D03*
X131850000Y8070000D03*
X134390000Y5530000D03*
X134390000Y8070000D03*
X136930000Y5530000D03*
X136930000Y8070000D03*
D24*
X139226000Y-1683000D03*
D25*
X139226000Y857000D03*
M02*
