M48
; DRILL file {KiCad (6.0.4)} date Thu Sep  8 15:32:13 2022
; FORMAT={-:-/ absolute / metric / decimal}
; #@! TF.CreationDate,2022-09-08T15:32:13-05:00
; #@! TF.GenerationSoftware,Kicad,Pcbnew,(6.0.4)
; #@! TF.FileFunction,Plated,1,2,PTH
FMAT,2
METRIC
; #@! TA.AperFunction,Plated,PTH,ViaDrill
T1C0.250
; #@! TA.AperFunction,Plated,PTH,ViaDrill
T2C0.400
; #@! TA.AperFunction,Plated,PTH,ComponentDrill
T3C0.500
; #@! TA.AperFunction,Plated,PTH,ComponentDrill
T4C0.800
; #@! TA.AperFunction,Plated,PTH,ComponentDrill
T5C1.000
; #@! TA.AperFunction,Plated,PTH,ComponentDrill
T6C1.030
; #@! TA.AperFunction,Plated,PTH,ComponentDrill
T7C1.329
; #@! TA.AperFunction,Plated,PTH,ComponentDrill
T8C2.700
; #@! TA.AperFunction,Plated,PTH,ComponentDrill
T9C3.230
%
G90
G05
T1
X82.53Y-24.78
X83.78Y-31.48
X84.744Y-24.303
X84.963Y-12.348
X85.85Y-4.79
X86.291Y-12.552
X86.37Y-31.53
X87.032Y-7.192
X87.8Y-13.56
X87.8Y-17.01
X88.258Y-1.572
X89.0Y-4.06
X89.002Y-31.303
X89.243Y2.464
X89.444Y-4.723
X89.47Y-20.3
X89.49Y-22.98
X89.712Y-13.56
X89.712Y-17.01
X89.74Y-19.04
X89.91Y-25.95
X90.21Y-7.8
X90.561Y-21.986
X90.611Y2.164
X90.68Y-20.64
X91.55Y6.85
X91.58Y-25.84
X91.625Y-13.56
X91.625Y-17.01
X91.66Y-18.99
X91.694Y-31.179
X91.728Y2.127
X92.558Y3.472
X92.6Y-21.37
X92.606Y4.116
X93.051Y2.164
X93.19Y-25.82
X93.537Y-13.56
X93.537Y-17.01
X93.62Y-19.03
X93.931Y-30.852
X94.4Y2.14
X95.05Y-21.38
X95.45Y-13.56
X95.45Y-17.01
X95.51Y-19.05
X95.579Y4.53
X95.583Y2.164
X95.64Y-25.87
X95.77Y-29.1
X96.32Y-21.91
X96.34Y-11.34
X96.39Y-23.88
X96.409Y-31.109
X96.944Y-25.864
X97.15Y-19.07
X97.362Y-13.56
X97.362Y-17.01
X97.42Y-20.72
X97.62Y-8.44
X97.989Y-22.39
X98.44Y-25.71
X98.96Y-26.45
X99.0Y-19.04
X99.03Y-24.303
X99.07Y-6.86
X99.275Y-13.56
X99.275Y-17.01
X99.431Y-36.494
X99.434Y-38.656
X99.7Y-8.01
X99.77Y-20.27
X100.072Y4.632
X100.645Y-33.758
X100.82Y-25.9
X100.91Y-39.247
X100.974Y-29.027
X100.99Y0.38
X101.06Y-24.78
X101.1Y-19.17
X101.188Y-13.56
X101.188Y-17.01
X101.687Y-23.478
X101.71Y-1.93
X101.974Y-39.418
X102.51Y-31.435
X102.686Y-35.947
X102.98Y1.11
X103.0Y-19.27
X103.1Y-13.56
X103.1Y-17.01
X103.498Y-31.75
X103.539Y-1.746
X104.23Y1.09
X104.28Y-32.052
X104.49Y-38.501
X105.383Y1.861
X105.394Y-38.713
X105.52Y-31.958
X105.96Y3.74
X106.038Y-35.862
X106.079Y-1.81
X106.795Y1.541
X107.08Y3.28
X108.431Y-33.138
X108.521Y-31.857
X108.752Y-35.782
X109.713Y-38.111
X110.12Y-31.996
X111.019Y-31.996
X112.37Y1.52
X113.38Y-1.57
X114.166Y-31.544
X114.609Y-35.949
X115.089Y6.213
X115.182Y-39.662
X115.19Y2.2
X115.236Y-31.653
X115.479Y-33.403
X115.588Y-38.216
X115.9Y-1.57
X116.5Y2.3
X116.61Y-28.88
X116.65Y1.26
X117.187Y-31.685
X117.244Y-33.077
X117.29Y-6.17
X117.597Y1.388
X118.23Y-36.257
X118.812Y-32.689
X119.2Y-4.891
X119.24Y-13.56
X119.24Y-17.01
X119.79Y1.075
X119.83Y-19.77
X120.493Y2.127
X121.024Y-36.624
X121.14Y-19.22
X121.152Y-13.56
X121.152Y-17.01
X121.532Y-38.656
X121.54Y-31.56
X121.904Y1.237
X122.155Y-24.995
X122.99Y2.22
X123.065Y-13.56
X123.065Y-17.01
X123.159Y-22.348
X123.22Y-1.78
X123.564Y-36.116
X123.732Y-26.003
X124.013Y-24.493
X124.093Y1.052
X124.268Y-30.901
X124.977Y-13.56
X124.977Y-17.01
X125.036Y-31.749
X125.24Y-19.89
X125.33Y-2.0
X125.376Y3.229
X125.821Y-23.991
X126.03Y-4.7
X126.23Y1.48
X126.371Y-31.585
X126.73Y-32.95
X126.89Y-13.56
X126.89Y-17.01
X127.48Y3.195
X127.49Y1.34
X127.49Y-4.12
X127.882Y-22.146
X128.749Y3.195
X128.802Y-13.56
X128.802Y-17.01
X128.818Y-31.63
X129.27Y-19.29
X129.406Y-4.62
X130.419Y-32.415
X130.422Y-2.08
X130.715Y-13.56
X130.715Y-17.01
X130.785Y4.92
X131.078Y3.803
X131.34Y4.414
X131.503Y-28.977
X131.51Y-25.96
X132.627Y-13.56
X132.627Y-17.01
X132.848Y4.816
X133.387Y2.003
X133.994Y-31.15
X134.47Y-25.74
X134.54Y-13.56
X134.54Y-17.01
X134.654Y2.127
X135.777Y2.019
X135.829Y-32.666
X135.983Y-3.393
X136.064Y1.462
X136.39Y-15.21
X137.05Y-11.98
X137.055Y-31.122
X137.34Y1.12
X137.911Y-10.346
X138.67Y-19.6
X139.35Y-31.15
X139.377Y-7.383
X142.0Y-31.22
X142.91Y0.6
X143.201Y-8.647
X143.578Y-8.02
X143.578Y-9.32
T2
X86.48Y-5.89
X88.617Y3.27
X99.75Y-2.75
X100.53Y-7.04
X102.3Y-5.82
X109.12Y2.8
X113.31Y-11.78
X113.32Y-22.68
X114.18Y-17.01
X114.3Y-13.97
X116.78Y-11.78
X120.235Y-8.197
X124.78Y-8.2
X126.75Y-25.64
X136.65Y-7.42
X138.042Y-6.906
X139.03Y4.55
T3
X81.775Y6.8
X81.775Y-16.2
X81.775Y-42.2
X82.368Y8.232
X82.368Y5.368
X82.368Y-14.768
X82.368Y-17.632
X82.368Y-40.768
X82.368Y-43.632
X83.8Y8.825
X83.8Y4.775
X83.8Y-14.175
X83.8Y-18.225
X83.8Y-40.175
X83.8Y-44.225
X85.232Y8.232
X85.232Y5.368
X85.232Y-14.768
X85.232Y-17.632
X85.232Y-40.768
X85.232Y-43.632
X85.825Y6.8
X85.825Y-16.2
X85.825Y-42.2
X139.775Y6.8
X139.775Y-16.2
X139.775Y-42.2
X140.368Y8.232
X140.368Y5.368
X140.368Y-14.768
X140.368Y-17.632
X140.368Y-40.768
X140.368Y-43.632
X141.8Y8.825
X141.8Y4.775
X141.8Y-14.175
X141.8Y-18.225
X141.8Y-40.175
X141.8Y-44.225
X143.232Y8.232
X143.232Y5.368
X143.232Y-14.768
X143.232Y-17.632
X143.232Y-40.768
X143.232Y-43.632
X143.825Y6.8
X143.825Y-16.2
X143.825Y-42.2
T4
X88.772Y-40.688
X88.772Y-42.688
X90.772Y-40.688
X90.772Y-42.688
X92.772Y-40.688
X92.772Y-42.688
X94.772Y-40.688
X94.772Y-42.688
X96.772Y-40.688
X96.772Y-42.688
X98.772Y-40.688
X98.772Y-42.688
X100.772Y-40.688
X100.772Y-42.688
X102.772Y-40.688
X102.772Y-42.688
X104.772Y-40.688
X104.772Y-42.688
X106.772Y-40.688
X106.772Y-42.688
X108.772Y-40.688
X108.772Y-42.688
X110.772Y-40.688
X110.772Y-42.688
X112.772Y-40.688
X112.772Y-42.688
X114.772Y-40.688
X114.772Y-42.688
X116.772Y-40.688
X116.772Y-42.688
X118.772Y-40.688
X118.772Y-42.688
X120.772Y-40.688
X120.772Y-42.688
X122.772Y-40.688
X122.772Y-42.688
X124.772Y-40.688
X124.772Y-42.688
X126.772Y-40.688
X126.772Y-42.688
X128.772Y-40.688
X128.772Y-42.688
X130.772Y-40.688
X130.772Y-42.688
X132.772Y-40.688
X132.772Y-42.688
X134.772Y-40.688
X134.772Y-42.688
X136.772Y-40.688
X136.772Y-42.688
T5
X82.266Y-27.654
X82.266Y-30.194
X82.53Y-20.5
X82.53Y-23.04
X83.81Y1.72
X83.81Y-0.82
X83.81Y-3.36
X83.81Y-5.9
X83.81Y-8.44
X83.81Y-10.98
X84.806Y-27.654
X84.806Y-30.194
X85.07Y-20.5
X85.07Y-23.04
X87.346Y-27.654
X87.346Y-30.194
X87.61Y-20.5
X87.61Y-23.04
X88.67Y8.07
X88.67Y5.53
X89.886Y-27.654
X89.886Y-30.194
X91.21Y8.07
X91.21Y5.53
X92.426Y-27.654
X92.426Y-30.194
X93.75Y8.07
X93.75Y5.53
X94.966Y-27.654
X94.966Y-30.194
X96.29Y8.07
X96.29Y5.53
X97.507Y-27.654
X97.507Y-30.194
X98.83Y8.07
X98.83Y5.53
X100.046Y-27.654
X100.046Y-30.194
X101.37Y8.07
X101.37Y5.53
X102.587Y-27.654
X102.587Y-30.194
X103.91Y8.07
X103.91Y5.53
X105.126Y-27.654
X105.126Y-30.194
X105.87Y-14.96
X105.87Y-17.5
X105.87Y-20.04
X105.87Y-22.58
X106.45Y8.07
X106.45Y5.53
X107.666Y-27.654
X107.666Y-30.194
X108.99Y8.07
X108.99Y5.53
X110.206Y-27.654
X110.206Y-30.194
X111.53Y8.07
X111.53Y5.53
X112.746Y-27.654
X112.746Y-30.194
X114.07Y8.07
X114.07Y5.53
X115.286Y-27.654
X115.286Y-30.194
X116.61Y8.07
X116.61Y5.53
X117.826Y-27.654
X117.826Y-30.194
X119.15Y8.07
X119.15Y5.53
X120.366Y-27.654
X120.366Y-30.194
X121.69Y8.07
X121.69Y5.53
X122.906Y-27.654
X122.906Y-30.194
X124.23Y8.07
X124.23Y5.53
X125.447Y-27.654
X125.447Y-30.194
X126.77Y8.07
X126.77Y5.53
X127.986Y-27.654
X127.986Y-30.194
X129.31Y8.07
X129.31Y5.53
X130.526Y-27.654
X130.526Y-30.194
X131.85Y8.07
X131.85Y5.53
X133.066Y-27.654
X133.066Y-30.194
X134.39Y8.07
X134.39Y5.53
X135.606Y-27.654
X135.606Y-30.194
X136.93Y8.07
X136.93Y5.53
X138.147Y-27.654
X138.147Y-30.194
X139.226Y0.857
X139.226Y-1.683
X140.686Y-27.654
X140.686Y-30.194
X143.226Y-27.654
X143.226Y-30.194
T6
X96.182Y-34.83
X97.567Y-37.67
X98.952Y-34.83
X100.337Y-37.67
X101.722Y-34.83
X103.107Y-37.67
X104.492Y-34.83
X105.877Y-37.67
X107.262Y-34.83
X108.647Y-37.67
X110.032Y-34.83
X111.417Y-37.67
X112.802Y-34.83
X114.187Y-37.67
X115.572Y-34.83
X116.957Y-37.67
X118.342Y-34.83
X119.727Y-37.67
X121.112Y-34.83
X122.497Y-37.67
X123.882Y-34.83
X125.267Y-37.67
X126.652Y-34.83
X128.037Y-37.67
X129.422Y-34.83
T7
X140.705Y-5.085
X140.705Y-12.235
X144.155Y-5.085
X144.155Y-12.235
T8
X83.8Y6.8
X83.8Y-16.2
X83.8Y-42.2
X141.8Y6.8
X141.8Y-16.2
X141.8Y-42.2
T9
X89.282Y-36.25
X136.322Y-36.25
T0
M30
